<?xml version="1.0" encoding="utf-8"?>
<!-- Generator: Adobe Illustrator 25.0.0, SVG Export Plug-In . SVG Version: 6.00 Build 0)  -->
<svg version="1.1" id="Layer_1" xmlns="http://www.w3.org/2000/svg" xmlns:xlink="http://www.w3.org/1999/xlink" x="0px" y="0px"
	 viewBox="0 0 9.17 8.38" style="enable-background:new 0 0 9.17 8.38;" xml:space="preserve">
<style type="text/css">
	.st0{fill:#9E5C4C;}
</style>
<g>
	<path class="st0" d="M2.06,0l0.01,0.03C2.08,0.05,2.1,0.08,2.11,0.09C2.12,0.1,2.13,0.13,2.13,0.16c0.01,0.12,0.02,0.15,0.06,0.21
		C2.21,0.4,2.23,0.45,2.23,0.48s0.01,0.05,0.02,0.06c0.01,0.01,0.01,0.02,0.01,0.04c0,0.04,0.06,0.27,0.08,0.32
		c0.03,0.07,0.05,0.16,0.04,0.18c-0.01,0.01,0,0.02,0.02,0.05C2.43,1.16,2.44,1.18,2.43,1.2c0,0.02,0.01,0.06,0.04,0.15
		C2.5,1.41,2.52,1.49,2.52,1.51c0.01,0.06,0.05,0.1,0.08,0.07c0.02-0.02,0.82-0.03,0.85-0.01c0.01,0.01,0.13,0.01,0.14,0
		c0.01-0.01,0.02,0,0.03,0.01C3.64,1.59,3.66,1.6,3.67,1.6c0.01,0,0.03,0.01,0.05,0.02c0.02,0.01,0.05,0.02,0.06,0.02
		c0.03,0,0.22,0.1,0.25,0.13c0.02,0.02,0.06,0.06,0.06,0.07C4.11,1.87,4.12,1.9,4.13,1.91C4.14,1.92,4.14,1.97,4.14,2
		c0,0.04,0.01,0.06,0.02,0.08c0.01,0.01,0.02,0.04,0.02,0.06c0,0.01,0.04,0.08,0.07,0.13c0.03,0.05,0.07,0.12,0.08,0.15
		C4.34,2.45,4.37,2.48,4.38,2.5c0.01,0.02,0.03,0.05,0.04,0.08C4.43,2.6,4.46,2.64,4.47,2.66C4.49,2.68,4.5,2.7,4.5,2.72
		c0,0.02,0.02,0.04,0.03,0.05c0.02,0.02,0.04,0.15,0.03,0.21c0,0.04-0.01,0.06-0.03,0.08C4.51,3.07,4.5,3.09,4.5,3.1
		c0,0.01-0.01,0.02-0.02,0.02C4.45,3.13,4.36,3.23,4.35,3.28C4.34,3.3,4.33,3.34,4.31,3.36C4.3,3.38,4.25,3.43,4.22,3.48
		C4.16,3.57,4.12,3.63,4.07,3.7C4.04,3.73,4.01,3.78,4,3.8L3.96,3.87c-0.04,0.04-0.07,0.12-0.1,0.21C3.85,4.12,3.82,4.16,3.81,4.19
		C3.78,4.25,3.68,4.55,3.68,4.61c0,0.03-0.01,0.06-0.02,0.07C3.65,4.69,3.64,4.72,3.64,4.75c0,0.07,0,0.13-0.01,0.17
		c0,0.02-0.01,0.05,0,0.09c0.01,0.03,0.01,0.07,0.01,0.08s0,0.01,0.01,0.02C3.66,5.12,3.67,5.16,3.68,5.2
		C3.69,5.24,3.7,5.29,3.71,5.31c0.01,0.02,0.02,0.03,0.02,0.04s0.02,0.06,0.05,0.13c0.05,0.12,0.1,0.19,0.14,0.23
		c0.01,0.01,0.04,0.04,0.05,0.07C3.98,5.8,4.01,5.85,4.03,5.87c0.02,0.02,0.03,0.04,0.03,0.05c0,0.01,0.02,0.02,0.05,0.05
		c0.03,0.02,0.06,0.06,0.07,0.09c0.06,0.1,0.08,0.12,0.14,0.18c0.04,0.04,0.07,0.08,0.08,0.1c0.01,0.02,0.01,0.02,0.02,0.03
		c0.01,0,0.01,0.02,0.01,0.03c0,0.02,0,0.02,0.02,0.02s0.03,0,0.06,0.03c0.02,0.02,0.05,0.03,0.05,0.04s0.03,0.02,0.13,0.08
		c0.03,0.01,0.06,0.02,0.14,0.02c0.07,0,0.16,0,0.22,0.01c0.06,0,0.22,0.01,0.33,0.01c0.12,0,0.32,0.01,0.47,0.02
		c0.29,0.01,0.7,0,0.72-0.01C6.59,6.6,6.69,6.6,6.71,6.61C6.72,6.62,6.76,6.6,6.85,6.54c0.11-0.07,0.2-0.19,0.53-0.51
		C7.39,6,7.39,6,7.42,5.99c0.04-0.01,0.05-0.02,0.08-0.1c0.03-0.07,0.03-0.09,0.02-0.1C7.5,5.76,7.51,5.75,7.53,5.76
		c0.01,0,0.02-0.01,0.07-0.16c0.04-0.11,0.06-0.19,0.06-0.22c0-0.06,0.03-0.19,0.04-0.18c0.01,0,0.02-0.03,0.02-0.05
		c0-0.01,0.01-0.02,0.02-0.03c0.01-0.01,0.02-0.05,0.02-0.09c0.01-0.06,0.02-0.09,0.03-0.1c0.02-0.02,0.03-0.05,0.03-0.06
		s0-0.02,0.01-0.02C7.84,4.89,7.9,4.84,7.91,4.8c0-0.02,0-0.08-0.01-0.14C7.88,4.57,7.88,4.54,7.89,4.47C7.9,4.42,7.9,4.39,7.9,4.38
		c0-0.02,0.06,0.04,0.07,0.06c0.01,0.03,0.02,0.02,0.02-0.02c0-0.07,0.05-0.07,0.08,0C8.1,4.5,8.15,4.6,8.18,4.63
		C8.2,4.64,8.21,4.66,8.21,4.67S8.24,4.7,8.28,4.73c0.05,0.03,0.1,0.05,0.11,0.06C8.4,4.8,8.43,4.82,8.44,4.84
		c0.03,0.03,0.05,0.04,0.2,0.08c0.04,0.01,0.08,0.02,0.09,0.04c0.01,0.01,0.03,0.03,0.04,0.03c0.01,0,0.04,0.02,0.08,0.06
		s0.07,0.07,0.08,0.07c0.01,0,0.03,0.05,0.02,0.06c0,0.01,0.06,0.13,0.1,0.19c0.02,0.02,0.03,0.05,0.03,0.06s0,0.03,0.01,0.05
		C9.1,5.53,9.12,5.57,9.1,5.59C9.08,5.6,9.08,5.61,9.1,5.65C9.12,5.68,9.14,5.7,9.15,5.71c0.02,0.01,0.03,0.08,0.01,0.16
		C9.15,5.91,9.14,5.96,9.14,5.99s0,0.05-0.01,0.06C9.12,6.06,9.12,6.1,9.12,6.14c0,0.1-0.02,0.24-0.03,0.27
		C9.08,6.42,9.08,6.44,9.08,6.45s0.01,0.03,0,0.06c-0.01,0.03-0.01,0.05,0,0.07c0.01,0.02,0.01,0.03,0,0.05
		c-0.01,0.01-0.02,0.06-0.02,0.1L8.95,6.94c-0.02,0.04-0.07,0.11-0.1,0.15c-0.03,0.04-0.07,0.1-0.09,0.14L8.72,7.29l0.02,0.03
		c0.02,0.02,0.03,0.05,0.03,0.1c0,0.07,0,0.07-0.03,0.1C8.72,7.54,8.71,7.55,8.71,7.59c0,0.09-0.06,0.17-0.13,0.17
		c-0.02,0-0.02,0-0.01,0.03c0.01,0.03,0,0.04-0.02,0.05C8.5,7.86,8.47,7.87,8.47,7.88c0,0.01-0.01,0.02-0.03,0.02
		S8.41,7.92,8.41,7.94c0,0.01-0.01,0.03-0.02,0.04C8.36,7.99,8.26,8.04,8.21,8.04c-0.01,0-0.03,0-0.04,0.01H8.14
		c-0.02,0-0.04,0-0.05,0.01C8.07,8.08,8.07,8.08,8.01,8.08c-0.04-0.01-0.08-0.01-0.11,0C7.83,8.08,7.56,8.09,7.22,8.12L6.9,8.13
		c-0.02,0-0.32,0.01-0.37,0.01c-0.04,0-0.22,0.03-0.25,0.04C6.27,8.2,6.23,8.21,6.19,8.21c-0.03,0-0.08,0.01-0.1,0.02
		C6.07,8.24,5.98,8.26,5.88,8.29C5.78,8.3,5.67,8.33,5.65,8.33S5.6,8.34,5.58,8.34s-0.02,0-0.03,0.01C5.54,8.37,5.4,8.38,5.19,8.38
		c-0.19,0-0.2,0.01-0.21-0.01c0-0.01-0.01-0.01-0.02-0.01c-0.01,0-0.02,0-0.03-0.01c-0.01,0-0.03-0.01-0.06-0.01
		C4.81,8.33,4.74,8.29,4.72,8.28C4.71,8.26,4.67,8.25,4.63,8.24c-0.09-0.03-0.17-0.1-0.22-0.15c-0.02-0.02-0.06-0.07-0.1-0.11
		S4.24,7.91,4.24,7.9S4.23,7.87,4.22,7.87C4.2,7.86,4.13,7.79,4.11,7.75C4.1,7.73,4.07,7.69,4.04,7.66C4.01,7.62,3.99,7.6,3.99,7.59
		c0-0.01-0.03-0.04-0.07-0.08C3.83,7.4,3.75,7.28,3.74,7.24c0-0.02-0.02-0.06-0.03-0.07C3.7,7.15,3.68,7.13,3.67,7.12
		C3.63,7.03,3.54,6.87,3.52,6.86C3.51,6.85,3.51,6.85,3.51,6.84S3.47,6.77,3.43,6.72C3.39,6.66,3.35,6.61,3.34,6.59
		C3.33,6.57,3.32,6.56,3.31,6.56c-0.01,0-0.02-0.02-0.03-0.04C3.27,6.5,3.25,6.46,3.22,6.43C3.2,6.4,3.18,6.37,3.18,6.36
		c0-0.01-0.01-0.03-0.02-0.06C3.15,6.27,3.13,6.24,3.13,6.22c0-0.02,0-0.05-0.01-0.05C3.11,6.16,3.11,6.13,3.1,6.08
		c0-0.05-0.01-0.09-0.02-0.1C3.05,5.96,3.05,5.69,3.07,5.65c0.01-0.03,0.02-0.1,0.03-0.2c0-0.02,0.01-0.04,0.02-0.06
		c0.01-0.02,0.01-0.04,0.01-0.05s-0.01-0.03,0-0.03C3.15,5.3,3.16,5.27,3.18,5.17c0.01-0.05,0.03-0.1,0.03-0.12s0.02-0.08,0.04-0.13
		s0.03-0.11,0.04-0.13C3.3,4.75,3.3,4.75,3.32,4.76c0.01,0,0.02-0.01,0.07-0.15L3.46,4.4C3.47,4.37,3.49,4.34,3.5,4.31
		c0.03-0.06,0.07-0.24,0.06-0.26c0-0.01,0-0.02,0.01-0.02C3.58,4.03,3.6,4.02,3.6,4c0-0.02,0.01-0.05,0.02-0.07
		C3.63,3.9,3.64,3.85,3.64,3.81s0.01-0.14,0.03-0.24c0.02-0.1,0.04-0.22,0.05-0.28c0.01-0.06,0.02-0.12,0.02-0.15
		c0-0.03,0.01-0.05,0.01-0.06c0.01-0.01,0.01-0.04,0-0.08c-0.01-0.07-0.01-0.08,0-0.09c0.01-0.01,0.01-0.02,0-0.04
		C3.74,2.85,3.72,2.82,3.71,2.79C3.7,2.76,3.66,2.72,3.64,2.69c-0.02-0.03-0.05-0.08-0.06-0.1C3.57,2.56,3.57,2.54,3.56,2.53
		C3.55,2.52,3.54,2.5,3.53,2.48C3.52,2.46,3.5,2.45,3.48,2.44S3.43,2.41,3.4,2.39C3.34,2.36,3.32,2.36,3.25,2.36
		C3.15,2.37,3.03,2.39,3,2.41C2.98,2.42,2.93,2.44,2.82,2.46C2.76,2.47,2.73,2.5,2.73,2.53c0,0.01,0,0.03,0.01,0.05
		c0.01,0.03,0.01,0.04-0.01,0.09C2.72,2.72,2.72,2.75,2.74,2.93c0.01,0.04,0.02,0.2,0.02,0.36c0,0.16,0.01,0.36,0.01,0.45v0.41
		c0,0.07-0.02,0.22-0.03,0.23c-0.01,0.01-0.02,0.05-0.02,0.1c0,0.05-0.01,0.09-0.02,0.1C2.69,4.59,2.68,4.6,2.68,4.62
		c0,0.05-0.03,0.16-0.04,0.17c-0.01,0-0.01,0.03-0.01,0.05c0,0.02-0.01,0.08-0.02,0.12C2.6,5,2.59,5.06,2.58,5.09
		C2.57,5.12,2.56,5.16,2.55,5.17C2.54,5.18,2.54,5.19,2.54,5.2c0,0.01,0,0.04-0.01,0.07C2.52,5.3,2.5,5.4,2.47,5.51
		C2.45,5.61,2.41,5.73,2.4,5.77C2.39,5.81,2.39,5.83,2.39,5.84c0.01,0.01,0,0.02-0.01,0.03C2.37,5.9,2.35,6.02,2.35,6.08
		c0,0.02,0,0.04-0.01,0.05c-0.02,0.02-0.02,0.13-0.02,0.3c0,0.12-0.01,0.19-0.06,0.3c-0.01,0.03-0.03,0.1-0.04,0.15
		C2.21,6.93,2.21,6.97,2.2,6.98C2.19,6.99,2.16,7.02,2.15,7.04C2.14,7.06,2.12,7.07,2.11,7.07c-0.02,0-0.07,0.05-0.2,0.19
		C1.8,7.37,1.75,7.44,1.69,7.55C1.67,7.59,1.63,7.64,1.62,7.66c-0.03,0.04-0.1,0.19-0.1,0.22c0,0.02,0,0.03-0.01,0.03
		c-0.01,0-0.04,0.03-0.07,0.06C1.41,8,1.38,8.04,1.36,8.06C1.32,8.09,1.21,8.12,1.17,8.09c-0.01-0.01-0.02-0.01-0.03,0
		c-0.01,0.01-0.02,0.01-0.03,0C1.1,8.08,1.06,8.08,1.01,8.07C0.89,8.04,0.73,7.99,0.68,7.94C0.66,7.92,0.63,7.9,0.61,7.89
		C0.59,7.88,0.55,7.85,0.53,7.83C0.51,7.81,0.49,7.79,0.42,7.79C0.31,7.78,0.3,7.77,0.3,7.75c0-0.01-0.01-0.01-0.02-0.02
		C0.27,7.72,0.26,7.72,0.26,7.71c0-0.01-0.06-0.06-0.08-0.06c-0.01,0-0.02-0.01-0.03-0.02c0-0.01-0.03-0.02-0.05-0.03
		C0.07,7.59,0.06,7.58,0.05,7.55C0.04,7.53,0.03,7.5,0.02,7.49C0.01,7.48,0,7.47,0,7.45c0-0.04,0.04-0.2,0.05-0.23
		c0.01-0.01,0.02-0.06,0.03-0.1c0.01-0.04,0.04-0.08,0.05-0.1C0.14,7,0.18,6.94,0.21,6.89c0.03-0.05,0.05-0.09,0.07-0.1
		c0-0.01,0.03-0.03,0.05-0.06c0.01-0.01,0.05-0.08,0.06-0.1l0.05-0.05C0.47,6.56,0.5,6.51,0.5,6.48c0-0.01,0.02-0.04,0.03-0.06
		C0.55,6.4,0.57,6.35,0.59,6.3s0.05-0.1,0.06-0.12c0.01-0.02,0.01-0.03,0.01-0.04c0-0.01,0.01-0.03,0.02-0.04
		C0.69,6.08,0.73,6.04,0.76,6c0.03-0.04,0.05-0.09,0.06-0.09c0.01,0,0.01-0.01,0.01-0.02c0-0.01,0.02-0.03,0.03-0.04
		c0.01-0.01,0.02-0.03,0.02-0.04S0.89,5.78,0.9,5.76c0.01-0.02,0.05-0.07,0.07-0.11s0.05-0.09,0.07-0.11
		c0.02-0.02,0.03-0.05,0.03-0.06s0.02-0.03,0.04-0.05C1.15,5.39,1.2,5.28,1.22,5.21c0.01-0.02,0.02-0.04,0.03-0.05
		c0.01-0.01,0.02-0.02,0.02-0.03S1.28,5.09,1.3,5.07C1.32,5.05,1.34,5.02,1.34,5c0-0.02,0.01-0.05,0.02-0.06
		c0.01-0.01,0.02-0.05,0.03-0.1c0.01-0.05,0.04-0.09,0.04-0.1C1.44,4.73,1.44,4.7,1.44,4.66s0.03-0.13,0.05-0.21
		s0.05-0.16,0.05-0.18c0-0.02,0.01-0.06,0.02-0.08c0.01-0.02,0.02-0.03,0.01-0.04c0-0.01,0-0.03,0.01-0.05
		c0.01-0.03,0.03-0.11,0.05-0.18c0.02-0.07,0.04-0.15,0.05-0.17c0.01-0.02,0.01-0.04,0.01-0.06c0-0.02,0.01-0.05,0.02-0.07
		c0.01-0.03,0.02-0.06,0.02-0.1c0-0.03,0-0.05,0.01-0.06c0.01-0.01,0.01-0.03,0.01-0.07c0-0.02,0.02-0.09,0.03-0.12
		c0.01-0.03,0.01-0.09,0.01-0.14c0-0.06,0.01-0.11,0.02-0.12c0.01-0.02,0.01-0.02,0-0.04C1.8,2.95,1.79,2.95,1.73,2.95
		c-0.04,0-0.09,0.01-0.11,0.02S1.54,3,1.5,3.01C1.4,3.03,1.33,3.06,1.26,3.1C1.24,3.12,1.22,3.13,1.21,3.13S1.19,3.15,1.17,3.17
		C1.08,3.26,1,3.31,0.95,3.33c-0.07,0.02-0.21,0.02-0.29,0C0.6,3.32,0.59,3.31,0.54,3.26L0.49,3.2L0.48,3.05
		c-0.01-0.12,0-0.16-0.02-0.22C0.45,2.79,0.44,2.76,0.45,2.75c0-0.01-0.01-0.03-0.03-0.05C0.39,2.67,0.38,2.65,0.38,2.64
		c0-0.01-0.01-0.03-0.03-0.05C0.33,2.57,0.31,2.53,0.3,2.51C0.29,2.49,0.26,2.46,0.24,2.43C0.19,2.36,0.17,2.31,0.19,2.28
		s0.02-0.12,0-0.16C0.18,2.1,0.18,2.07,0.2,1.99c0.01-0.04,0.06-0.12,0.12-0.18c0.03-0.03,0.05-0.06,0.05-0.07
		c0-0.01,0-0.02,0.04-0.02c0.02,0,0.04-0.02,0.05-0.03c0.01-0.02,0.05-0.04,0.07-0.06C0.57,1.6,0.58,1.6,0.64,1.6
		c0.07,0,0.08,0,0.1,0.03c0.02,0.02,0.03,0.03,0.04,0.02c0.01-0.01,0.04-0.01,0.06,0C0.87,1.66,0.88,1.67,0.9,1.72l0.02,0.05h0.06
		c0.03,0,0.07,0,0.09-0.01C1.1,1.75,1.11,1.75,1.16,1.77C1.19,1.78,1.22,1.79,1.22,1.8c0.01,0.01,0.02,0.01,0.03,0
		c0.01-0.01,0.06,0,0.09,0c0.04,0,0.06,0,0.06-0.01c0.01-0.02,0.03-0.02,0.05,0C1.46,1.8,1.48,1.81,1.53,1.8
		c0.04-0.01,0.08-0.02,0.09-0.03c0.01-0.01,0.05-0.02,0.07-0.02c0.03,0,0.04,0,0.06-0.02C1.76,1.72,1.78,1.7,1.79,1.7
		c0.01,0,0.02-0.02,0.03-0.05c0.02-0.04,0.03-0.11,0.04-0.46c0.01-0.23,0.01-0.46,0.01-0.51c0-0.08,0-0.11,0.01-0.15
		C1.89,0.5,1.89,0.46,1.89,0.44c0-0.02,0-0.06,0.01-0.08C1.91,0.34,1.91,0.3,1.91,0.29c0-0.02-0.01-0.04,0-0.05
		c0.01-0.01,0.03-0.05,0.03-0.07c0-0.03,0.02-0.06,0.03-0.07c0.01-0.02,0.02-0.03,0.02-0.04S2,0.03,2.02,0.02L2.06,0z M5.43,0.48
		C5.44,0.46,5.46,0.5,5.49,0.56C5.52,0.62,5.53,0.63,5.54,0.7v0.1c0,0.02,0,0.03,0.01,0.05c0.01,0.01,0.01,0.03,0.01,0.07
		c0,0.03,0,0.04,0.02,0.07c0.02,0,0.02,0.03,0.04,0.04l0.02,0.05h0.11c0.04,0,0.13,0,0.14-0.01C5.92,1.05,6,1.04,6.05,1.04
		c0.03,0,0.11-0.01,0.14-0.02c0.03,0,0.07-0.01,0.1-0.01c0.03,0,0.12-0.02,0.22-0.05c0.14-0.03,0.23-0.07,0.24-0.07
		c0.01,0,0.04-0.01,0.05-0.02c0.02-0.02,0.03-0.02,0.04-0.01c0.01,0.01,0.04,0.01,0.06,0c0.04-0.01,0.16,0.05,0.17,0.11
		C7.09,1.05,7.09,1.1,7.1,1.11c0.01,0,0.02,0.02,0.02,0.05c0,0.02,0.01,0.03,0.02,0.04c0.01,0.01,0.04,0.04,0.04,0.08
		C7.19,1.34,7.2,1.37,7.22,1.4c0.02,0.04,0.02,0.06,0.02,0.1v0.06c0.01,0.01,0.01,0.02,0.01,0.03s0,0.03,0.02,0.06
		c0.01,0.02,0.01,0.03,0.01,0.04S7.29,1.7,7.3,1.7c0.01,0,0.01,0.02,0.01,0.04c0,0.02,0.01,0.07,0.03,0.11s0.03,0.08,0.03,0.09
		S7.38,2,7.41,2.05c0.01,0.01,0.02,0.04,0.03,0.08c0.01,0.02,0.05,0.06,0.07,0.08c0.02,0.02,0.02,0.06,0.03,0.11
		C7.55,2.36,7.58,2.41,7.6,2.43C7.62,2.47,7.63,2.5,7.63,2.51c0,0.01,0.05,0.08,0.05,0.09v0.03c0,0.01,0.01,0.03,0.02,0.04
		c0.02,0.02,0.02,0.05,0.01,0.08c0,0.02-0.01,0.06-0.01,0.07c0,0.01-0.01,0.02-0.02,0.03C7.67,2.89,7.59,3.13,7.57,3.23
		c-0.01,0.05-0.02,0.1-0.03,0.14C7.53,3.39,7.53,3.42,7.53,3.45v0.04c-0.03,0.07-0.03,0.34,0,0.42v0.12c0,0.03,0.01,0.07,0.01,0.09
		c0,0.02,0.01,0.04,0.02,0.06C7.57,4.19,7.57,4.2,7.57,4.22c-0.01,0.04,0,0.05,0.02,0.08c0.02,0.04,0.02,0.05,0.02,0.07
		c0,0.01,0,0.03,0.01,0.05C7.63,4.43,7.64,4.46,7.64,4.5c0,0.03,0.01,0.06,0.02,0.07C7.68,4.6,7.68,4.61,7.67,4.63
		C7.65,4.65,7.61,4.89,7.62,4.92c0,0.01-0.04,0.06-0.08,0.12C7.53,5.09,7.38,5.16,7.36,5.16c-0.01,0-0.03-0.02-0.05-0.03
		C7.24,5.1,7.11,5.1,6.9,5.1H5.61C5.56,5.11,5.46,5.11,5.39,5.11H5.18c-0.09,0-0.12-0.01-0.15-0.17c-0.02-0.1-0.02-0.15-0.01-0.15
		c0.01,0,0.01-0.02,0-0.06C5.01,4.7,5.01,4.63,5.01,4.59c0-0.06,0.01-0.11,0.03-0.16c0.02-0.05,0.03-0.09,0.03-0.11
		c0-0.01,0.02-0.05,0.04-0.06C5.13,4.23,5.15,4.2,5.15,4.19s0-0.05,0.01-0.06C5.18,4.12,5.2,4.11,5.2,4.1
		c0.01-0.02-0.02-0.12-0.04-0.16C5.15,3.93,5.15,3.88,5.15,3.82C5.14,3.74,5.13,3.71,5.11,3.65C5.1,3.64,5.1,3.62,5.1,3.61
		s0-0.04-0.01-0.07C5.07,3.5,5.06,3.46,5.06,3.38c0-0.12,0-0.13-0.02-0.14c-0.01,0-0.01-0.01,0-0.09c0.02-0.08,0.01-0.12-0.03-0.14
		C5,3,5,2.99,5,2.98c0-0.01-0.01-0.01-0.02-0.01c-0.01,0-0.02,0-0.02-0.01S4.95,2.95,4.94,2.95c-0.01,0-0.03-0.02-0.06-0.03
		C4.85,2.9,4.83,2.89,4.82,2.89c-0.01,0-0.02,0-0.05-0.02C4.75,2.84,4.72,2.83,4.7,2.82c0-0.02-0.01-0.02-0.01-0.03
		c0-0.02,0-0.03-0.01-0.03C4.67,2.74,4.7,2.72,4.73,2.72c0.06,0,0.09,0,0.1-0.01c0.01-0.02,0.01-0.02,0.02-0.02
		c0.01,0,0.04,0,0.07-0.01c0.03-0.01,0.06-0.03,0.07-0.03c0.01,0,0.05-0.06,0.05-0.1c0-0.01,0-0.01,0.01-0.03
		c0.01-0.01,0-0.04,0-0.08V2.38c0.01,0,0.01-0.04,0-0.07c-0.01-0.05-0.01-0.07,0-0.1c0.01-0.02,0.01-0.05,0.01-0.07
		c-0.01-0.08-0.02-0.2-0.01-0.22c0.01-0.02,0.01-0.03,0-0.05c-0.01-0.01-0.01-0.02,0-0.05c0.02-0.06,0.02-0.09,0-0.1
		C5.04,1.7,5.06,1.62,5.09,1.56c0-0.02,0-0.04-0.02-0.07c-0.01-0.04-0.01-0.05,0-0.07c0.02-0.01,0.02-0.05,0.02-0.07
		c-0.02-0.02,0-0.06,0.01-0.04c0.01,0,0.01,0,0.01-0.02c0-0.01,0-0.03-0.01-0.03C5.11,1.24,5.11,1.2,5.11,1.17
		c0.01-0.12,0.03-0.22,0.1-0.43c0.03-0.11,0.08-0.21,0.08-0.22c0-0.02,0.07-0.02,0.1-0.01c0.02,0.01,0.05,0.01,0.04,0V0.48z
		 M6.79,1.75c-0.01,0-0.06,0.01-0.12,0.02C6.62,1.78,6.5,1.81,6.44,1.82C6.3,1.84,6.16,1.87,6.02,1.95
		c-0.06,0.02-0.09,0.04-0.1,0.04c-0.01,0-0.02,0-0.03,0.01c-0.01,0.01-0.05,0.03-0.1,0.03C5.75,2.05,5.73,2.05,5.73,2.06
		s0.02,0.05,0.02,0.12c0.01,0.03,0.01,0.08,0.02,0.14C5.78,2.38,5.79,2.41,5.8,2.41c0.01,0,0.05,0.01,0.07,0.01s0.02-0.01,0.03,0
		c0.01,0,0.02,0,0.04-0.01C5.96,2.41,6,2.4,6.05,2.4c0.03,0,0.09,0,0.12-0.01c0.05-0.01,0.17-0.03,0.17-0.01H6.4
		c0.12,0,0.28,0.02,0.28,0.04c0,0.01,0.01,0.01,0.03,0.01C6.77,2.44,6.82,2.5,6.83,2.55C6.84,2.57,6.85,2.6,6.87,2.63
		C6.91,2.69,6.92,2.72,6.9,2.77C6.88,2.85,6.84,2.89,6.76,2.96c-0.07,0.05-0.11,0.08-0.2,0.09c-0.02,0-0.05,0.01-0.06,0.01
		c-0.02,0.01-0.02,0.01-0.02,0c0-0.01-0.01,0-0.03,0.01c-0.02,0.01-0.03,0.01-0.04,0c-0.01-0.01-0.01-0.01-0.02,0
		C6.38,3.08,6.24,3.09,6.18,3.11c-0.02,0-0.05,0.01-0.06,0.01c-0.01,0-0.03,0.01-0.04,0c-0.01-0.01-0.02-0.03-0.04,0
		C6.01,3.13,5.99,3.13,5.98,3.13c-0.02-0.01-0.04,0-0.06,0L5.9,3.15v0.49h0.04c0.06,0.01,0.15,0,0.19-0.01
		c0.02-0.01,0.06-0.02,0.08-0.02C6.25,3.6,6.33,3.6,6.35,3.58c0.04-0.01,0.13-0.03,0.19-0.04C6.63,3.53,6.72,3.52,6.75,3.5
		c0.03-0.01,0.06-0.02,0.08-0.02c0.02,0,0.05-0.01,0.05-0.02c0-0.01,0.01-0.01,0.03-0.01c0.03,0,0.03-0.03,0.04-0.06
		C6.96,3.32,6.99,3.26,7,3.24c0.01-0.01,0.02-0.03,0.02-0.06c0.02-0.09,0.04-0.22,0.03-0.23c0-0.02,0-0.02,0.01-0.03
		C7.08,2.9,7.08,2.85,7.07,2.83c-0.01-0.01-0.01-0.01,0-0.02C7.08,2.8,7.08,2.77,7.08,2.75V2.58c0-0.06,0.01-0.1,0-0.11
		c0-0.01-0.01-0.05-0.01-0.08c0-0.04-0.01-0.07-0.02-0.08C7.04,2.3,7.04,2.28,7.04,2.27s0-0.02-0.01-0.03
		C7.02,2.23,7.01,2.22,7.01,2.21c0-0.02-0.01-0.05-0.03-0.07C6.96,2.11,6.95,2.09,6.95,2.08c0-0.01,0-0.02-0.01-0.03L6.92,1.99
		C6.89,1.91,6.81,1.78,6.79,1.78V1.75z"/>
</g>
</svg>
