<?xml version="1.0" encoding="utf-8"?>
<!-- Generator: Adobe Illustrator 25.0.0, SVG Export Plug-In . SVG Version: 6.00 Build 0)  -->
<svg version="1.1" id="Layer_1" xmlns="http://www.w3.org/2000/svg" xmlns:xlink="http://www.w3.org/1999/xlink" x="0px" y="0px"
	 viewBox="0 0 17.33 9.19" enable-background="new 0 0 17.33 9.19" xml:space="preserve">
<g>
	<path fill="#9E5C4C" d="M8.37,3.8C8.35,3.81,8.34,3.83,8.34,3.84c0,0.01-0.01,0.02-0.02,0.04C8.31,3.9,8.3,3.91,8.3,3.92
		c0,0.01-0.01,0.02-0.03,0.04C8.26,3.98,8.24,3.99,8.24,4S8.23,4.03,8.22,4.04C8.2,4.06,8.09,4.24,8.09,4.27
		c0,0.01-0.01,0.05-0.02,0.09c-0.04,0.08-0.04,0.1,0.02,0.35c0.01,0.02,0.01,0.03,0,0.04C8.08,4.76,8.07,4.79,8.07,4.82
		c-0.01,0.1-0.14,0.22-0.26,0.25C7.73,5.1,7.68,5.09,7.58,5.04C7.5,5,7.45,4.94,7.43,4.88C7.42,4.85,7.42,4.8,7.4,4.76
		c0-0.04-0.02-0.08-0.02-0.09c0-0.02-0.02-0.05-0.07-0.09C7.25,4.51,7.2,4.49,7.15,4.49c-0.02,0-0.04,0-0.04-0.01
		c0.02-0.02-0.05-0.1-0.08-0.11C6.97,4.35,6.85,4.32,6.84,4.33C6.82,4.34,6.72,4.32,6.71,4.31c-0.01-0.01,0-0.02,0.01-0.03h0.03
		c0.01,0,0.04,0,0.07-0.01c0.03-0.01,0.2-0.01,0.36-0.01h0.35C7.58,4.25,7.64,4.17,7.67,4.1c0.07-0.15,0.07-0.18,0.01-0.23
		C7.61,3.78,7.29,3.68,7,3.64C6.88,3.63,6.78,3.61,6.58,3.56C6.52,3.54,6.45,3.53,6.43,3.53S6.37,3.51,6.34,3.5
		c-0.03-0.01-0.1-0.03-0.12-0.03C6.19,3.46,6.11,3.44,6.06,3.43C6,3.42,5.96,3.41,5.95,3.41c-0.04,0-0.18-0.04-0.22-0.05
		C5.67,3.34,5.44,3.32,5.42,3.33c-0.01,0.01-0.03,0-0.06,0c-0.02,0-0.08,0-0.17,0.01C5.12,3.35,4.97,3.37,4.86,3.39
		C4.63,3.42,4.53,3.43,4.38,3.47C4.26,3.5,4.13,3.51,3.87,3.54c-0.14,0.01-0.17,0-0.36,0.03C3.37,3.6,3.27,3.62,3.18,3.67
		C3.14,3.68,3.11,3.69,3.1,3.69c-0.01,0-0.01,0-0.02,0.01C3.07,3.71,3.07,3.71,3.06,3.71C3.05,3.71,3,3.72,2.93,3.73
		C2.87,3.75,2.75,3.77,2.66,3.79C2.57,3.8,2.46,3.83,2.42,3.84c-0.06,0-0.1,0.01-0.11,0.01c-0.03,0-0.2,0.07-0.23,0.1
		C2.07,3.96,2.03,3.97,2.01,3.96C1.99,3.96,1.95,3.99,1.92,4C1.9,4.01,1.84,4.04,1.78,4.05c-0.05,0.02-0.1,0.04-0.1,0.05
		c0,0.01-0.04,0.02-0.11,0.03C1.42,4.16,1.31,4.26,1.29,4.29C1.28,4.3,1.26,4.49,1.23,4.55C1.2,4.64,1.2,4.72,1.17,4.74
		c-0.02,0-0.05,0.02-0.09,0.04C1.06,4.79,1.03,4.81,1.02,4.81C1.01,4.81,1,4.82,1,4.83C0.99,4.87,0.62,4.87,0.58,4.84
		C0.57,4.82,0.56,4.83,0.54,4.83S0.49,4.82,0.46,4.8C0.43,4.78,0.39,4.76,0.37,4.75C0.36,4.74,0.34,4.73,0.33,4.72
		C0.32,4.71,0.3,4.7,0.29,4.7C0.27,4.69,0.27,4.69,0.27,4.67c0-0.02,0-0.04-0.04-0.07C0.2,4.56,0.18,4.53,0.18,4.52
		c0-0.01-0.01-0.04-0.02-0.06C0.1,4.36,0.09,4.27,0.09,4.11V4.03L0,3.7c-0.01-0.02,0.01-0.05,0.03-0.06c0.01-0.02,0.01-0.02,0-0.04
		C0.01,3.59,0.02,3.56,0.02,3.54c0-0.02,0.02-0.04,0-0.05c-0.01-0.01-0.01-0.02,0-0.03c0.02-0.01,0.02-0.03,0.02-0.04
		c0-0.01,0.01-0.03,0.02-0.04c0.01-0.01,0.01-0.02,0-0.03c-0.03-0.02,0.01-0.16,0.03-0.2C0.1,3.13,0.11,3.12,0.12,3.12
		c0.01,0,0.01-0.02,0.01-0.05c0-0.05,0-0.06,0.02-0.05c0.03,0,0.04,0,0.06-0.04C0.23,2.93,0.24,2.91,0.3,2.91
		c0.02,0,0.05,0,0.06-0.01C0.38,2.89,0.39,2.88,0.4,2.89C0.42,2.9,0.46,2.88,0.46,2.86c0-0.02,0-0.02,0.05-0.01
		c0.02,0.02,0.04,0.02,0.04,0c0.02-0.02,0.03-0.02,0.05,0c0.04,0.01,0.05,0.01,0.06,0c0.01-0.01,0.03-0.01,0.09,0
		c0.06,0.01,0.07,0.02,0.08,0.04c0,0.02,0.01,0.02,0.05,0.02c0.02,0,0.03,0.01,0.04,0.04c0.01,0.03,0.01,0.03,0.05,0.03
		c0.03,0,0.04,0,0.05,0.02c0.01,0.03,0.03,0.04,0.05,0.02c0-0.01,0.03,0.01,0.05,0.01s0.05,0,0.08-0.01
		c0.03-0.01,0.05-0.01,0.06-0.01c0.02,0.01,0.02,0.02,0.06,0.01c0.03-0.02,0.11-0.01,0.13,0c0.01,0.01,0.03,0.01,0.06-0.01
		c0.06-0.03,0.08-0.03,0.08,0C1.59,3.03,1.6,3.02,1.61,3C1.62,2.99,1.65,2.99,1.7,3.01c0.07,0.01,0.07,0.01,0.12-0.02
		c0.06-0.02,0.06-0.02,0.06,0c0,0.03,0.03,0.02,0.08-0.01c0.04-0.02,0.05-0.02,0.06,0c0,0.01,0.01,0.01,0.04,0.01
		c0.02-0.01,0.05-0.01,0.06,0C2.13,3,2.15,3,2.16,2.99c0.02-0.01,0.15-0.02,0.26-0.01c0.05,0,0.07,0,0.08-0.01
		c0.01-0.01,0.02,0,0.05,0.01c0.02,0.01,0.04,0.01,0.08,0.01c0.09-0.02,0.18-0.02,0.44-0.03c0.1,0,0.23-0.02,0.26-0.02
		c0.15-0.01,0.26-0.01,0.41-0.01c0.22,0,0.34-0.02,0.71-0.07c0.2-0.03,0.42-0.04,0.51-0.05C5.05,2.8,5.18,2.79,5.25,2.79
		c0.08-0.01,0.23-0.01,0.34-0.02c0.1,0,0.21-0.01,0.27,0c0.05,0,0.11-0.01,0.12-0.01c0.01,0,0.04,0.01,0.06,0.02
		C6.06,2.79,6.11,2.8,6.13,2.8s0.08,0.02,0.11,0.03s0.08,0.03,0.09,0.03c0.01,0,0.02,0,0.02,0.01c0,0.01,0.05,0.04,0.13,0.07
		c0.07,0.02,0.17,0.07,0.23,0.09C6.78,3.06,6.86,3.09,6.9,3.1s0.08,0.02,0.09,0.03C7,3.14,7.05,3.16,7.12,3.17
		c0.06,0.02,0.19,0.05,0.27,0.08C7.58,3.31,8.15,3.5,8.17,3.52C8.18,3.53,8.2,3.53,8.21,3.53c0.01,0,0.02,0.01,0.04,0.02
		c0.02,0.02,0.04,0.04,0.06,0.04c0.01,0,0.03,0.01,0.04,0.03c0.03,0.02,0.04,0.05,0.04,0.07C8.39,3.75,8.39,3.77,8.37,3.8z
		 M7.84,8.7c0,0.03,0,0.04-0.01,0.06C7.82,8.78,7.81,8.8,7.81,8.82c0,0.02-0.01,0.04-0.08,0.09C7.69,8.94,7.64,8.98,7.62,9
		C7.56,9.08,7.51,9.12,7.45,9.15C7.42,9.17,7.38,9.17,7.37,9.17c-0.01,0-0.04-0.01-0.07,0c-0.04,0.01-0.05,0.01-0.07,0H7.18
		c-0.01,0-0.01-0.01-0.02-0.01C7.14,9.14,7.13,9.14,7.11,9.12C7.1,9.12,7.08,9.12,7.07,9.11C7.06,9.1,7.06,9.1,7.05,9.1
		S7.04,9.08,7.02,9.08C6.97,9.08,6.79,9,6.77,8.98C6.76,8.97,6.74,8.97,6.72,8.97c-0.02,0-0.04-0.01-0.05-0.01
		c-0.01,0-0.02-0.01-0.03-0.02C6.63,8.93,6.63,8.93,6.62,8.93c-0.01,0-0.04-0.03-0.08-0.04S6.46,8.86,6.45,8.85
		C6.44,8.84,6.43,8.84,6.42,8.84c-0.01,0-0.04-0.01-0.04-0.02C6.37,8.8,6.32,8.78,6.25,8.77c-0.02,0-0.05-0.01-0.05-0.02
		C6.19,8.73,6.16,8.72,6.12,8.72c-0.01,0-0.02-0.01-0.03-0.03C6.08,8.67,6.06,8.65,6.04,8.64S6.01,8.61,6,8.6
		C5.99,8.59,5.98,8.59,5.97,8.57c-0.02-0.02-0.06-0.04-0.1-0.08C5.83,8.46,5.78,8.41,5.76,8.4C5.74,8.39,5.71,8.37,5.71,8.36
		C5.7,8.34,5.69,8.33,5.67,8.33c-0.01,0-0.01-0.01-0.02-0.01c-0.01,0-0.01-0.01-0.01-0.02S5.61,8.28,5.6,8.27S5.57,8.24,5.55,8.24
		S5.51,8.22,5.5,8.21c-0.02-0.03-0.14-0.1-0.2-0.12L5.22,8.05C5.19,8.03,5.18,8.03,5.14,8.04C5.05,8.07,4.97,8.13,4.86,8.22
		C4.84,8.24,4.81,8.25,4.79,8.25C4.77,8.26,4.73,8.28,4.71,8.3C4.69,8.32,4.66,8.35,4.64,8.36C4.62,8.37,4.57,8.41,4.53,8.44
		C4.49,8.47,4.45,8.5,4.42,8.51C4.4,8.52,4.35,8.55,4.33,8.57C4.32,8.58,4.24,8.62,4.18,8.65C4.11,8.69,4.06,8.72,4.03,8.74
		C4.01,8.77,3.97,8.8,3.95,8.81C3.88,8.85,3.71,9,3.69,9.04C3.68,9.06,3.66,9.08,3.64,9.1c-0.01,0-0.04,0.03-0.06,0.05
		C3.55,9.18,3.53,9.19,3.5,9.18H3.47c-0.01,0-0.01,0.02-0.03,0.01c-0.02,0-0.04-0.02-0.06-0.02s-0.07-0.01-0.1-0.02
		C3.25,9.14,3.22,9.12,3.2,9.12c-0.02,0-0.04-0.01-0.05-0.01c-0.01,0-0.03-0.02-0.06-0.03C3.06,9.08,3,9.05,2.94,9.02
		C2.76,8.94,2.7,8.91,2.63,8.89C2.6,8.88,2.58,8.88,2.55,8.87C2.53,8.85,2.39,8.84,2.34,8.85c-0.04,0.01-0.11,0-0.24-0.04
		C2.06,8.8,2.01,8.79,1.98,8.78C1.93,8.77,1.79,8.72,1.69,8.67C1.65,8.65,1.65,8.65,1.64,8.66C1.63,8.67,1.63,8.68,1.6,8.67
		c-0.02,0-0.06-0.01-0.1,0C1.44,8.68,1.44,8.68,1.37,8.64C1.33,8.62,1.29,8.59,1.28,8.58C1.25,8.54,1.22,8.42,1.22,8.33
		c0-0.06,0-0.08-0.01-0.1c0-0.01-0.01-0.03-0.01-0.04c0-0.01,0-0.06-0.02-0.11S1.15,7.99,1.15,7.97c0-0.02-0.01-0.05-0.02-0.07
		C1.12,7.88,1.11,7.85,1.11,7.83c0-0.02-0.02-0.06-0.03-0.08c-0.01-0.03-0.02-0.08-0.02-0.1c0-0.04-0.01-0.04-0.04-0.12
		C1,7.5,1.01,7.49,1.02,7.48c0.01-0.01,0.01-0.01,0.01-0.02s0-0.02,0.02-0.02h0.03l-0.04-0.1C1.02,7.28,0.99,7.23,0.99,7.22
		c-0.01-0.02-0.01-0.02,0-0.03c-0.02-0.02-0.03-0.05-0.04-0.1c0-0.02,0.01,0.01,0.01,0.02c0.02,0.04,0.05,0.07,0.05,0.04
		c0-0.01-0.01-0.04-0.02-0.06L0.96,7.04h0.03c0.04,0,0.1,0.1,0.11,0.15c0,0.01,0.02,0.05,0.04,0.08l0.03,0.02V7.27
		c0-0.02-0.02-0.05-0.03-0.06L1.12,7.19C1.11,7.18,1.1,7.13,1.07,7.07c-0.04-0.08-0.04-0.1-0.03-0.12c0.01-0.02,0.01-0.04,0.01-0.06
		l0.01-0.03l0.03,0.05c0.02,0.03,0.03,0.04,0.03,0.02c0-0.01,0-0.04-0.01-0.07C1.1,6.84,1.1,6.83,1.1,6.82
		c0.02,0.01,0.04-0.03,0.04-0.09c0-0.05,0-0.05-0.01-0.04c-0.01,0.01-0.02,0-0.03-0.02V6.64c0-0.01,0.05,0.02,0.05,0.04
		c0.01,0.03,0.05,0.05,0.1,0.05c0.04,0,0.05,0,0.06,0.04l0.08,0.14c0.04,0.06,0.09,0.12,0.1,0.14C1.5,7.08,1.52,7.11,1.53,7.12
		c0.02,0.02,0.03,0.01,0.02-0.03c0-0.03-0.02-0.04-0.03-0.05C1.51,7.03,1.51,7.02,1.5,7.01C1.49,7,1.49,6.99,1.47,6.97
		C1.42,6.93,1.41,6.89,1.4,6.84c0-0.02-0.02-0.05-0.04-0.07C1.34,6.75,1.32,6.72,1.32,6.71c0-0.01,0-0.02-0.01-0.03
		c-0.02-0.02-0.03-0.04,0-0.04c0.02,0,0.02-0.01-0.01-0.02c-0.02,0-0.04-0.02-0.06-0.04C1.23,6.56,1.21,6.55,1.2,6.55
		c-0.02,0-0.02-0.04-0.03-0.06C1.15,6.46,1.15,6.44,1.16,6.44C1.18,6.43,1.18,6.43,1.2,6.46c0.02,0.02,0.02,0.02,0.03,0.02
		c0.01,0,0.01-0.01,0.02-0.01c0.01,0,0.01,0.01,0.02,0.01C1.29,6.5,1.31,6.49,1.31,6.5v0.04c0,0.01,0.02,0.01,0,0.02
		s-0.02,0.04,0,0.03c0.01,0,0.03,0.01,0.06,0.05C1.39,6.67,1.41,6.7,1.42,6.7c0.02,0.01,0.01,0.02-0.01,0.03
		c-0.01,0-0.01,0.02,0,0.02h0.03c0.01,0,0.02,0.01,0.02,0.03C1.47,6.8,1.51,6.85,1.54,6.86c0.01,0,0.02,0.03,0.03,0.05
		c0.01,0.02,0.02,0.04,0.02,0.05c0,0.01,0.01,0.02,0.01,0.03s0.01,0.02,0.02,0.03c0.01,0.01,0.01,0.02,0.02,0.03
		C1.65,7.06,1.65,7.08,1.67,7.1C1.69,7.12,1.7,7.14,1.7,7.15s0.01,0.02,0.01,0.03V7.2c0,0.01,0.01,0.01,0.01,0.02
		c0,0.01,0.04,0.05,0.04,0.06C1.77,7.3,1.78,7.31,1.79,7.32C1.8,7.33,1.8,7.33,1.8,7.34c0,0.01,0.01,0.01,0.01,0.02
		s0.02,0.02,0.03,0.05c0.01,0.03,0.01,0.03,0.02,0.04l0.02,0.02C1.89,7.48,1.9,7.5,1.9,7.51c0,0.01,0.02,0.01,0.02,0.03
		c0,0.03,0.05,0.08,0.07,0.08C2,7.62,2,7.63,2,7.64v0.02c0,0.01,0.04,0.02,0.07,0.06c0.08,0.1,0.21,0.19,0.27,0.18
		c0.02,0,0.05,0,0.08,0.01s0.06,0.01,0.07,0.01c0.01,0,0.13,0.03,0.18,0.05c0.01,0,0.02-0.01,0.03-0.01c0.01,0,0.03-0.01,0.09,0.01
		C2.92,8,3.08,8.01,3.3,8.01c0.2,0,0.26,0,0.32-0.03c0.01,0,0.04-0.03,0.07-0.04C3.72,7.92,3.73,7.91,3.74,7.9
		c0.01-0.01,0.02-0.02,0.04-0.02s0.03-0.01,0.04-0.02c0.01-0.01,0.03-0.03,0.04-0.03c0.03-0.01,0.15-0.07,0.19-0.09
		c0.01,0,0.06-0.04,0.1-0.06C4.19,7.66,4.23,7.62,4.26,7.6C4.28,7.59,4.3,7.57,4.32,7.56c0.01,0,0.02-0.01,0.04-0.03L4.4,7.51
		L4.38,7.49C4.37,7.48,4.32,7.45,4.27,7.43C4.22,7.41,4.15,7.38,4.12,7.36L4.01,7.29C3.98,7.28,3.93,7.25,3.9,7.24
		C3.87,7.23,3.84,7.22,3.82,7.2c-0.06-0.05-0.3-0.16-0.33-0.15c-0.01,0-0.03,0-0.05-0.01C3.41,7.03,3.4,7.03,3.4,7.05
		c0,0.01-0.01,0.01-0.02,0.01c-0.01,0-0.02,0.01-0.04,0.05C3.33,7.14,3.31,7.17,3.31,7.18c0,0.01-0.01,0.02-0.01,0.03
		c0,0.01-0.02,0.03-0.02,0.05c0,0.02-0.01,0.03-0.03,0.04C3.23,7.31,3.23,7.32,3.23,7.34c0,0.01-0.01,0.04-0.02,0.06
		C3.2,7.42,3.19,7.44,3.19,7.46c0,0.01-0.01,0.04-0.02,0.06c0,0.01-0.02,0.03-0.02,0.04c0,0.03-0.06,0.1-0.11,0.11
		C2.97,7.68,2.85,7.66,2.82,7.62C2.81,7.61,2.8,7.6,2.78,7.6c-0.04-0.01-0.1-0.05-0.12-0.09C2.65,7.49,2.63,7.46,2.62,7.45
		C2.61,7.44,2.58,7.41,2.58,7.4C2.56,7.36,2.52,7.26,2.52,7.25c0-0.01-0.01-0.02-0.01-0.03c0-0.01-0.01-0.03-0.01-0.04
		c0-0.01,0-0.03-0.01-0.05C2.47,7.08,2.46,7.04,2.47,7.01c0-0.01,0.01-0.02,0.01-0.03C2.47,6.96,2.46,6.77,2.47,6.75
		c0.01-0.02,0.01-0.02,0-0.03c-0.01-0.01,0-0.02,0.01-0.05C2.5,6.6,2.49,6.54,2.46,6.5L2.43,6.44c0-0.01-0.02-0.02-0.03-0.03
		L2.36,6.37c-0.03-0.03-0.16-0.1-0.19-0.1c-0.03,0-0.07-0.03-0.09-0.07C2.07,6.18,2.02,6.11,1.97,6.07l-0.1-0.1V5.9L1.86,5.83
		l0.07-0.06c0.05-0.05,0.06-0.06,0.09-0.06c0.02,0,0.04-0.01,0.05-0.02c0.01-0.01,0.03,0,0.04,0c0.01,0,0.04,0,0.06-0.01
		c0.03,0,0.04,0,0.07,0.02C2.27,5.72,2.28,5.72,2.3,5.72c0.02-0.01,0.03,0,0.04,0c0.01,0,0.02,0.02,0.07,0.02
		c0.04,0,0.05,0.01,0.06,0.01c0.01,0,0.01,0.01,0.02,0.01c0.02,0.02,0.02,0.02,0.03,0.02c0.01,0,0.02,0.01,0.03,0.03
		c0.01,0.02,0.03,0.03,0.09,0.05c0.04,0.01,0.09,0.04,0.1,0.05c0.01,0.01,0.02,0.01,0.06,0c0.04-0.02,0.07-0.08,0.07-0.09
		S2.88,5.81,2.88,5.8c0-0.01,0.03-0.01,0.03-0.03c0.01-0.04,0.05-0.11,0.07-0.11c0.02,0,0.06-0.05,0.06-0.07
		c0-0.01,0.02-0.02,0.03-0.03c0.01-0.01,0.02-0.03,0.02-0.04S3.11,5.5,3.12,5.49c0.01-0.01,0.01-0.02,0.02-0.03
		c0.01-0.01,0.02-0.03,0.04-0.04C3.2,5.41,3.22,5.4,3.23,5.38c0.02-0.02,0.04-0.03,0.08-0.03c0.03,0,0.06-0.01,0.07-0.01
		c0.02,0,0.02-0.01,0.04,0c0.01,0,0.04,0.01,0.06,0.02C3.51,5.37,3.53,5.38,3.54,5.4c0.01,0.02,0.02,0.02,0.03,0.02
		c0.01,0,0.03,0.02,0.04,0.02c0.01,0,0.02,0.02,0.04,0.02c0.04,0,0.12,0.05,0.14,0.08C3.8,5.55,3.81,5.57,3.81,5.58
		C3.83,5.6,3.82,5.62,3.83,5.64c0.02,0.04,0.02,0.07,0,0.11c-0.01,0.03-0.01,0.03,0,0.04c0.01,0.01,0,0.01,0,0.02
		c0,0.01,0,0.01,0.01,0.03c0.01,0.02,0,0.04,0,0.06c0,0.01,0.01,0.01-0.01,0.03C3.82,5.94,3.81,5.96,3.8,5.97
		C3.79,5.98,3.79,5.99,3.78,6.01v0.03c0,0.01-0.02,0.03-0.02,0.04c-0.01,0.03-0.02,0.03,0,0.04c0.01,0,0.06-0.01,0.23-0.06
		C4.07,6.03,4.3,5.95,4.41,5.91s0.27-0.09,0.35-0.12c0.08-0.03,0.22-0.07,0.31-0.1c0.09-0.03,0.17-0.06,0.19-0.07L5.29,5.6
		l0.48-0.11c0.01,0,0.03,0.01,0.04,0.01c0.02,0.01,0.04,0.02,0.06,0.01c0.06-0.02,0.16,0.02,0.2,0.08C6.11,5.65,6.12,5.68,6.1,5.76
		C6.09,5.8,6.08,5.84,6.08,5.86c0,0.02,0,0.04-0.01,0.06c0,0.01-0.02,0.05-0.03,0.08C6.03,6.03,6.01,6.08,5.99,6.11
		c-0.04,0.07-0.1,0.19-0.1,0.2c0,0.01-0.01,0.03-0.02,0.04C5.85,6.37,5.76,6.64,5.75,6.72c0,0.02-0.02,0.07-0.03,0.13
		C5.69,7,5.68,7.12,5.71,7.15c0.01,0.01,0,0.01,0,0.02c0,0.01,0.06,0.09,0.08,0.09c0.01,0,0.04,0.01,0.07,0.02
		C5.9,7.29,5.92,7.29,5.93,7.29c0.01,0,0.03,0,0.06,0.02c0.04,0.03,0.06,0.03,0.18,0.03c0.07,0,0.15-0.01,0.17-0.01
		c0.04-0.01,0.04-0.01,0.04,0.01c0.03-0.01,0.06-0.01,0.09,0.01c0.01,0.01,0.05,0.03,0.08,0.04C6.58,7.4,6.6,7.41,6.61,7.42
		c0.01,0.01,0.01,0.02,0.02,0.02c0.03,0,0.09,0.04,0.14,0.08c0.02,0.01,0.04,0.01,0.06,0.02c0.01,0,0.02,0.02,0.04,0.04
		C6.89,7.6,6.92,7.63,6.94,7.64C6.96,7.65,6.98,7.68,7,7.7c0.02,0.03,0.05,0.04,0.08,0.05l0.1,0.05c0.04,0.03,0.09,0.07,0.11,0.08
		C7.33,7.9,7.34,7.91,7.35,7.95C7.35,7.96,7.38,8,7.39,8c0.04,0.01,0.08,0.06,0.09,0.07L7.51,8.1c0.01,0.01,0.01,0.02,0.02,0.03
		c0.01,0.01,0.03,0.04,0.06,0.08c0.03,0.04,0.05,0.06,0.06,0.07C7.66,8.29,7.67,8.29,7.68,8.3c0.01,0.01,0.04,0.04,0.05,0.06
		c0.01,0.02,0.04,0.06,0.06,0.09C7.82,8.49,7.83,8.5,7.83,8.53c0,0.02,0.01,0.04,0.02,0.05c0.01,0.01,0.01,0.02,0,0.04
		C7.85,8.64,7.84,8.67,7.84,8.7z M1.11,7.31c-0.04-0.08-0.07-0.1-0.07-0.06c0,0.01,0.01,0.01,0.01,0.02c0,0.04,0.02,0.1,0.04,0.1
		c0.01,0,0.01,0.01,0.02,0.01c0.01,0,0.03,0.02,0.04,0.02C1.16,7.4,1.14,7.36,1.11,7.31z M1.23,7.12C1.21,7.08,1.19,7.06,1.19,7.08
		c0,0.03,0.02,0.07,0.04,0.09C1.26,7.19,1.26,7.18,1.23,7.12z M1.22,6.51C1.21,6.52,1.24,6.52,1.25,6.52
		C1.25,6.49,1.23,6.5,1.22,6.51z M1.26,7.44c-0.02-0.01-0.02-0.01-0.02,0c0,0.02,0.03,0.03,0.03,0.02S1.27,7.44,1.26,7.44z
		 M1.62,7.25C1.6,7.22,1.59,7.24,1.61,7.27c0.01,0.01,0.04,0.02,0.03,0.01C1.63,7.27,1.63,7.26,1.62,7.25z M3.17,1.8
		c-0.01,0-0.01,0.01-0.02,0.02C3.14,1.83,3.11,1.84,3.09,1.84c-0.03,0-0.05,0.02-0.08,0.05C2.99,1.91,2.95,1.93,2.92,1.95
		C2.86,1.98,2.86,1.98,2.86,2.03c0,0.02,0,0.07,0.01,0.11c0.02,0.12,0.01,0.37-0.02,0.42C2.84,2.57,2.83,2.6,2.81,2.63
		c-0.02,0.04-0.04,0.05-0.1,0.08C2.62,2.76,2.49,2.83,2.49,2.84c0,0.02-0.06,0.04-0.08,0.03C2.4,2.86,2.38,2.86,2.37,2.86
		c-0.01,0-0.03,0-0.05-0.01S2.27,2.84,2.24,2.84c-0.04,0-0.05-0.01-0.08-0.03C2.14,2.79,2.11,2.77,2.1,2.76
		C2.08,2.75,2.07,2.73,2.05,2.69C2.04,2.67,2.02,2.64,2.01,2.63C1.99,2.61,1.98,2.57,1.97,2.51c0-0.03-0.02-0.07-0.03-0.09
		C1.93,2.4,1.92,2.38,1.92,2.36c0-0.02-0.01-0.05-0.01-0.06V2.25c0.01-0.01,0-0.05,0-0.09s-0.01-0.07,0-0.08
		c0.01,0,0.01-0.03,0.01-0.08s0.01-0.11,0.02-0.16c0.02-0.07,0.02-0.08,0-0.11C1.93,1.7,1.93,1.67,1.93,1.64
		c0.01-0.02,0.01-0.05,0.01-0.06c0-0.01-0.01-0.01-0.01-0.02s0-0.04-0.01-0.07V1.42c0.01-0.01,0.02-0.05,0.03-0.09
		c0.01-0.04,0.02-0.07,0.04-0.09c0.02-0.02,0.03-0.03,0.04-0.03c0.01,0,0.01-0.01,0.02-0.03c0.01-0.02,0.02-0.02,0.03-0.01
		c0.01,0,0.04,0.01,0.06,0.02C2.16,1.2,2.19,1.22,2.21,1.24c0.03,0.03,0.12,0.08,0.15,0.08c0.02,0,0.06,0.05,0.08,0.09
		c0.01,0.03,0.03,0.05,0.08,0.07C2.58,1.5,2.59,1.5,2.67,1.5c0.21,0,0.48,0.04,0.56,0.07c-0.01,0-0.03,0-0.04,0.01
		c-0.01,0.01-0.01,0.01,0,0.03C3.21,1.63,3.2,1.66,3.18,1.64c-0.01-0.01-0.01-0.01-0.02,0C3.15,1.65,3.17,1.66,3.22,1.72
		c0.01,0.01,0.01,0.02,0.01,0.03C3.23,1.76,3.18,1.8,3.17,1.8z M2.72,5.16c-0.05,0.02-0.07,0.02-0.1,0.01
		C2.61,5.16,2.6,5.16,2.59,5.16C2.57,5.17,2.37,5.12,2.33,5.1C2.32,5.08,2.29,5.07,2.28,5.07C2.25,5.07,2.21,5.02,2.21,5
		c0-0.01,0-0.03,0.01-0.04c0.01-0.02,0.01-0.03,0-0.04C2.21,4.9,2.21,4.87,2.21,4.81c0-0.08-0.01-0.1-0.03-0.13
		C2.16,4.66,2.15,4.63,2.16,4.63c0.02,0,0.02-0.02,0.02-0.04V4.51c0.01-0.02,0.01-0.03,0-0.05c0-0.01,0-0.04,0.01-0.06
		C2.2,4.38,2.21,4.35,2.21,4.32c0-0.03-0.01-0.06,0-0.07c0.01-0.01,0.02-0.02,0.03-0.04c0.01-0.03,0.01-0.03,0.08-0.02h0.1
		c0.06-0.01,0.1,0.01,0.13,0.06C2.56,4.27,2.58,4.29,2.59,4.3C2.6,4.31,2.61,4.32,2.61,4.33s0.01,0.01,0.1,0.14
		C2.72,4.5,2.74,4.54,2.75,4.54c0.01,0,0.02,0.02,0.02,0.04c0,0.02,0.01,0.04,0.02,0.05C2.8,4.64,2.81,4.66,2.81,4.68
		c0,0.02,0.02,0.06,0.03,0.09c0.02,0.08,0.02,0.22,0,0.27C2.81,5.1,2.79,5.13,2.72,5.16z M5.57,0.61c0.01,0.08-0.01,0.21-0.03,0.23
		C5.53,0.85,5.53,0.87,5.53,0.88S5.51,0.94,5.49,0.99c-0.02,0.05-0.04,0.09-0.04,0.1S5.43,1.13,5.4,1.17
		C5.37,1.2,5.35,1.23,5.35,1.24c0,0.01-0.01,0.02-0.02,0.03C5.32,1.28,5.3,1.3,5.29,1.32C5.27,1.37,5.11,1.55,5.06,1.58
		C5.04,1.59,5.01,1.61,5,1.62C4.96,1.66,4.8,1.74,4.75,1.74c-0.03,0-0.04,0-0.04,0.01c0,0.02-0.02,0.02-0.03,0
		c0-0.01-0.01-0.01-0.03-0.01c-0.01,0-0.05,0.01-0.08,0C4.54,1.73,4.53,1.72,4.52,1.73c-0.01,0.01-0.02,0-0.04-0.01
		C4.47,1.71,4.4,1.7,4.33,1.69C4.19,1.67,3.83,1.6,3.79,1.58C3.78,1.57,3.75,1.56,3.73,1.55S3.69,1.54,3.69,1.53
		c0-0.01-0.03-0.01-0.06-0.01c-0.03,0-0.06-0.01-0.06-0.02c0-0.01-0.01-0.01-0.03-0.01S3.49,1.47,3.48,1.46
		C3.47,1.45,3.45,1.43,3.43,1.42C3.41,1.41,3.4,1.4,3.39,1.38C3.38,1.36,3.34,1.32,3.32,1.3C3.19,1.16,3.12,1.08,3.1,1.03
		C3.05,0.92,3.01,0.88,2.93,0.87c-0.02,0-0.04-0.02-0.05-0.03c0-0.01-0.03-0.03-0.06-0.05C2.79,0.77,2.77,0.75,2.76,0.74
		C2.74,0.71,2.7,0.68,2.69,0.68c-0.01,0-0.02-0.01-0.03-0.02C2.63,0.63,2.64,0.58,2.69,0.53C2.72,0.5,2.74,0.49,2.76,0.49
		s0.03,0,0.04-0.01c0.01-0.01,0.01-0.01,0.04,0.01c0.04,0.03,0.1,0.03,0.27,0c0.07-0.01,0.21-0.03,0.3-0.04
		C3.5,0.44,3.6,0.44,3.64,0.43c0.04-0.01,0.1-0.01,0.13-0.01c0.03,0,0.08,0.01,0.1,0c0.02-0.01,0.11-0.02,0.2-0.03
		c0.25-0.02,0.41-0.04,0.45-0.06c0.02-0.01,0.03-0.02,0.04-0.01c0.01,0.01,0.03,0,0.05-0.01C4.63,0.3,4.66,0.3,4.67,0.3
		c0.02,0,0.03-0.01,0.04-0.02c0.01-0.01,0.02-0.01,0.04-0.01s0.04,0,0.06-0.01c0.02-0.01,0.04-0.02,0.06-0.02s0.05-0.01,0.06-0.02
		c0.02-0.01,0.06-0.03,0.11-0.04c0.05-0.01,0.1-0.03,0.11-0.04c0.01-0.01,0.02-0.01,0.03-0.01c0.01,0,0.04,0.01,0.06,0
		c0.05-0.02,0.1-0.03,0.11-0.01c0,0.01,0.01,0.01,0.02,0.01c0.01,0,0.02-0.01,0.02,0c0,0.01,0.02,0.01,0.03,0.02
		c0.01,0.01,0.03,0.03,0.04,0.06C5.47,0.24,5.49,0.26,5.5,0.27c0.01,0.01,0.02,0.01,0.02,0.02s0.02,0.03,0.03,0.04
		c0.02,0.02,0.01,0.03,0.01,0.05c0,0.01,0.01,0.03,0.01,0.04c0.01,0.03,0.01,0.07,0,0.09V0.61z M5.84,4.63c0,0.07,0,0.09-0.01,0.13
		C5.8,4.78,5.8,4.8,5.8,4.83c0.03,0.05-0.03,0.12-0.14,0.2C5.58,5.1,5.39,5.32,5.39,5.33c0.01,0.01-0.04,0.1-0.08,0.14
		C5.26,5.5,5.24,5.5,5.16,5.5c-0.06,0-0.12,0-0.15-0.01c-0.04-0.01-0.1-0.04-0.18-0.04S4.65,5.44,4.62,5.43
		C4.59,5.42,4.58,5.41,4.44,5.4c-0.01,0-0.16-0.05-0.25-0.07C4.09,5.29,4.01,5.27,4,5.27c-0.03,0-0.05-0.02-0.06-0.03
		C3.93,5.23,3.88,5.21,3.84,5.2C3.81,5.18,3.76,5.16,3.75,5.15C3.73,5.12,3.64,5.02,3.64,5c0-0.01-0.01-0.04-0.03-0.05
		C3.57,4.91,3.55,4.88,3.55,4.86c0-0.04-0.04-0.14-0.13-0.23c0-0.02,0-0.05-0.01-0.05c-0.02,0-0.02-0.02-0.02-0.05
		c0.02-0.05,0-0.08-0.03-0.13C3.31,4.31,3.31,4.23,3.31,4.11V4.07c0-0.01-0.01-0.03-0.01-0.06V3.93c0.01-0.04,0.02-0.04,0.08-0.01
		c0.01,0.01,0.04,0.02,0.05,0.03c0.08,0.02,0.3,0.16,0.31,0.19c0.01,0.02,0.01,0.04,0.02,0.04h0.03c0,0.01,0,0.02,0.13,0.12
		c0.01,0,0.01,0,0.13,0.14c0.01,0,0.03,0.01,0.09,0.03c0.04,0,0.05,0,0.06,0.01c0.01,0.01,0.11,0.03,0.19,0.04h0.13
		c0.01-0.03,0.04-0.03,0.07,0.01C4.6,4.55,4.62,4.55,4.64,4.54c0.01-0.01,0.05-0.01,0.05,0C4.7,4.55,4.7,4.55,4.72,4.55
		c0.05,0,0.2-0.04,0.25-0.09c0.06-0.02,0.09-0.03,0.1-0.03c0.02,0,0.03,0,0.06-0.02C5.14,4.4,5.16,4.37,5.2,4.36
		c0.02-0.01,0.03-0.04,0.03-0.05c0-0.01,0.01-0.02,0.04-0.03c0.04-0.01,0.07-0.02,0.09-0.05C5.4,4.21,5.45,4.19,5.47,4.18
		c0.04,0,0.09,0,0.11-0.02C5.6,4.15,5.61,4.15,5.62,4.15c0.02,0,0.04-0.01,0.05-0.01c0.1-0.02,0.18,0.05,0.17,0.14
		c0,0.02-0.01,0.04,0,0.06c0.01,0,0.01,0.01,0.01,0.13c0.01,0,0.01,0.02,0,0.05C5.84,4.53,5.84,4.58,5.84,4.63z M4.84,1.97
		C4.81,1.99,4.78,2,4.77,2c-0.01,0-0.05,0.02-0.1,0.04C4.46,2.12,4.39,2.15,4.34,2.25C4.32,2.28,4.32,2.29,4.33,2.32
		c0.01,0.02,0,0.05,0,0.07c0,0.01,0.01,0.03,0.02,0.08c0.03,0.05,0.03,0.06,0.02,0.1c-0.01,0.04-0.02,0.06-0.06,0.1
		C4.27,2.7,4.23,2.74,4.23,2.76C4.22,2.78,4.21,2.78,4.19,2.78c-0.01,0-0.06,0.01-0.09,0.02c-0.07,0.01-0.08,0.01-0.12,0
		C3.95,2.79,3.93,2.79,3.91,2.78c0-0.01-0.02-0.01-0.03-0.01c-0.02,0-0.11-0.12-0.15-0.22C3.71,2.5,3.7,2.46,3.7,2.34
		c0-0.08,0-0.16-0.01-0.17V2.02c-0.01-0.05,0-0.16,0.03-0.2c0.01-0.01,0.03-0.01,0.06,0.01c0.03,0.02,0.03,0.02,0.05,0
		c0.02-0.01,0.02-0.01,0.04,0c0.01,0.01,0.02,0.01,0.02,0.02s0.01,0,0.02,0C3.94,1.84,3.99,1.87,4.03,1.9
		C4.05,1.92,4.08,1.94,4.1,1.95c0.03,0.02,0.09,0.01,0.1,0c0-0.01,0.03-0.01,0.04-0.01c0.03,0,0.1-0.01,0.18-0.01
		c0.09,0,0.14,0,0.14,0.01c0.02,0.02,0.07,0.02,0.21-0.01c0.11-0.02,0.12-0.02,0.12,0C4.89,1.94,4.88,1.95,4.84,1.97z M5.29,5.97
		c0-0.01-0.05,0.02-0.11,0.03C5.12,6.01,5.04,6.03,5.01,6.03c-0.04,0-0.14,0.02-0.3,0.08c-0.29,0.1-0.39,0.17-0.5,0.23
		C4.16,6.37,4.12,6.4,4.11,6.41C4.1,6.42,4.08,6.43,4.07,6.44C4.05,6.47,4.06,6.51,4.1,6.54c0.05,0.02,0.17,0.08,0.2,0.08
		c0.01,0,0.04,0.01,0.06,0.03C4.38,6.67,4.4,6.68,4.41,6.68c0.01,0,0.05,0.01,0.1,0.03c0.07,0.02,0.09,0.05,0.1,0.07
		c0,0.01,0.03,0.01,0.07,0.02c0.03,0,0.07,0.02,0.12,0.05C4.85,6.88,4.9,6.9,4.92,6.9s0.04,0,0.04,0.01c0.01,0.02,0.06,0.02,0.09,0
		c0.04-0.03,0.17-0.43,0.19-0.6c0.01-0.04,0.02-0.08,0.02-0.09C5.27,6.2,5.29,6.11,5.3,6.03C5.3,6,5.29,5.98,5.29,5.97z M5.08,3.57
		C5.11,3.59,5.1,3.62,5.06,3.66C5.03,3.68,5.01,3.7,5,3.7c-0.01,0-0.05,0.03-0.1,0.07L4.82,3.83L4.8,3.94
		C4.77,4.08,4.71,4.2,4.64,4.2c-0.02,0-0.03,0-0.03,0.01C4.6,4.23,4.51,4.22,4.5,4.2c0-0.01-0.04-0.03-0.05-0.03
		C4.44,4.16,4.42,4.15,4.42,4.14c0-0.01-0.09-0.13-0.11-0.16C4.29,3.97,4.28,3.94,4.28,3.93c0-0.01-0.01-0.03-0.02-0.05
		C4.25,3.86,4.23,3.83,4.22,3.8C4.19,3.75,4.19,3.74,4.2,3.69c0.02-0.04,0.03-0.07,0.04-0.08c0.02-0.02,0.02-0.02,0.08,0
		c0.03,0.01,0.07,0.02,0.09,0.02c0.01,0,0.02,0,0.03,0.01C4.45,3.65,4.47,3.66,4.5,3.66c0.09,0,0.26-0.03,0.33-0.05
		C4.87,3.6,4.92,3.58,4.97,3.57H5.08z M6.88,1.84C6.87,1.86,6.87,1.9,6.87,1.93c0,0.1-0.01,0.28-0.02,0.3
		c0,0.01-0.02,0.05-0.02,0.08c0,0.03-0.01,0.07-0.02,0.1C6.8,2.43,6.78,2.46,6.78,2.48c0,0.02-0.02,0.05-0.05,0.08
		C6.67,2.61,6.64,2.62,6.51,2.62L6.44,2.63L6.37,2.58c-0.04-0.03-0.08-0.07-0.09-0.1C6.27,2.45,6.25,2.44,6.24,2.44
		c-0.03,0-0.09-0.13-0.12-0.23C6.11,2.17,6.09,2.1,6.07,2.07C6.05,2.03,6.04,2,6.04,1.98c0-0.01-0.02-0.04-0.06-0.09
		c-0.05-0.06-0.07-0.07-0.15-0.1C5.78,1.77,5.72,1.75,5.69,1.75c-0.02,0-0.06-0.02-0.08-0.03C5.59,1.71,5.57,1.7,5.56,1.7
		c-0.02,0-0.09-0.04-0.1-0.06C5.45,1.62,5.48,1.62,5.59,1.62c0.05,0,0.11-0.01,0.13-0.02s0.07-0.03,0.12-0.04
		C5.9,1.54,5.92,1.54,5.92,1.53c0-0.01,0.01-0.01,0.02-0.01c0.01,0,0.03,0.01,0.04,0c0.01-0.01,0.07-0.03,0.13-0.05
		C6.22,1.43,6.29,1.39,6.3,1.34c0-0.02,0-0.03,0.01-0.03c0.01,0,0.03-0.03,0.04-0.08c0.01-0.05,0.03-0.08,0.03-0.09
		c0.01-0.01,0.04-0.01,0.09-0.01c0.08,0,0.09,0,0.12,0.02C6.61,1.16,6.63,1.19,6.66,1.2c0.03,0.01,0.06,0.03,0.07,0.05
		C6.74,1.27,6.76,1.3,6.78,1.32C6.8,1.34,6.82,1.37,6.82,1.39s0.02,0.05,0.03,0.07c0.01,0.02,0.02,0.05,0.02,0.08
		c0,0.02,0,0.04,0.01,0.05c0.01,0.01,0,0.03,0,0.05c0,0.02,0,0.07,0.01,0.1C6.89,1.78,6.89,1.81,6.88,1.84z M6.12,3.97
		c-0.05,0-0.1,0-0.2-0.02C5.91,3.93,5.87,3.92,5.84,3.9c-0.03-0.01-0.1-0.06-0.12-0.09L5.65,3.74C5.6,3.7,5.59,3.67,5.62,3.64
		c0.01-0.02,0.03-0.01,0.2-0.01c0.16,0,0.2,0,0.24,0.02c0.03,0.01,0.05,0.02,0.05,0.03c0,0.01,0.01,0.03,0.03,0.05
		C6.16,3.75,6.19,3.78,6.19,3.8c0,0.02,0.02,0.04,0.03,0.05c0.02,0.02,0.03,0.04,0,0.08C6.21,3.97,6.2,3.97,6.12,3.97z M7.36,3.37
		C7.29,3.35,6.85,3.23,6.74,3.21C6.67,3.19,6.6,3.18,6.58,3.18S6.56,3.19,6.64,3.22c0.05,0.03,0.11,0.04,0.13,0.04h0.08
		C6.9,3.29,7.37,3.39,7.38,3.39C7.39,3.39,7.38,3.38,7.36,3.37z"/>
	<path fill="#9E5C4C" d="M13.26,0l0.04,0.02l0.17,0.04c0.03,0,0.07,0.02,0.1,0.04c0.04,0.02,0.06,0.05,0.09,0.1
		c0.02,0.03,0.03,0.06,0.04,0.06s0.02,0.02,0.03,0.04c0.02,0.05,0.11,0.19,0.15,0.24c0.02,0.02,0.04,0.05,0.05,0.07
		c0.01,0.02,0.03,0.04,0.04,0.04s0.02,0.02,0.02,0.03c0,0.03,0.06,0.12,0.08,0.12c0.03,0,0.07,0.12,0.1,0.32l0.01,0.07l0.06-0.01
		c0.05-0.01,0.07,0,0.06,0.01c-0.01,0.02,0,0.02,0.02,0c0.01-0.01,0.06-0.02,0.1-0.02c0.04-0.01,0.17-0.03,0.28-0.05
		c0.11-0.02,0.22-0.04,0.24-0.04c0.01,0,0.02,0,0.02-0.02c-0.01-0.02,0.01-0.03,0.02-0.01c0,0.01,0.02,0.01,0.03,0
		c0.01-0.01,0.06-0.03,0.1-0.04s0.07-0.02,0.08-0.03c0.01-0.01,0.03-0.01,0.04-0.01c0.02,0,0.03,0,0.03-0.01S15.35,0.97,15.41,1
		c0.02,0.01,0.06,0.04,0.09,0.06c0.03,0.02,0.04,0.04,0.05,0.04s0.02,0.01,0.03,0.03c0.03,0.05,0.18,0.17,0.41,0.32
		c0.12,0.08,0.23,0.16,0.25,0.17c0.03,0.02,0.09,0.06,0.28,0.17c0.04,0.03,0.09,0.06,0.1,0.07s0.05,0.03,0.08,0.04
		s0.05,0.03,0.05,0.04s0.02,0.02,0.03,0.02s0.02,0.01,0.03,0.02c0.01,0.01,0.05,0.03,0.07,0.04c0.05,0.03,0.18,0.13,0.25,0.19
		c0.03,0.02,0.06,0.04,0.07,0.05c0.01,0.01,0.03,0.02,0.03,0.03s0.01,0.02,0.03,0.03c0.02,0.01,0.04,0.03,0.06,0.08
		c0.01,0.04,0.02,0.07,0.01,0.07s0,0.01,0,0.03s-0.01,0.07-0.03,0.13c-0.02,0.07-0.04,0.09-0.06,0.1c-0.02,0.01-0.03,0.03-0.03,0.05
		c0,0.02-0.01,0.04-0.02,0.06c-0.01,0.02-0.04,0.06-0.06,0.09C17.11,2.96,17.09,2.99,17.08,3s-0.02,0.04-0.02,0.06
		c0,0.02-0.03,0.06-0.05,0.08c-0.02,0.03-0.02,0.05-0.02,0.06c0,0.01-0.01,0.05-0.03,0.09C16.9,3.43,16.9,3.44,16.92,3.5
		c0.01,0.04,0.01,0.09,0.01,0.16l-0.01,0.11l-0.06,0.05l-0.07,0.07c-0.01,0.01-0.07,0.03-0.13,0.05c-0.12,0.04-0.15,0.05-0.25,0
		c-0.08-0.04-0.22-0.18-0.22-0.21c0-0.01-0.01-0.03-0.02-0.04c-0.01-0.01-0.02-0.02-0.01-0.03c0.01-0.01-0.01-0.03-0.02-0.06
		c-0.03-0.06-0.06-0.13-0.06-0.21c0-0.13-0.04-0.19-0.17-0.31c-0.02-0.02-0.06-0.06-0.09-0.1c-0.03-0.04-0.07-0.07-0.09-0.08
		c-0.02-0.01-0.03-0.01-0.03-0.02s-0.02-0.04-0.04-0.06l-0.13-0.13c-0.09-0.09-0.08-0.1-0.05-0.1c0.02,0,0.04,0.01,0.05,0.03
		c0.01,0.01,0.05,0.03,0.07,0.04c0.07,0.04,0.27,0.13,0.34,0.15c0.1,0.03,0.27,0.05,0.34,0.04c0.03,0,0.07-0.01,0.09-0.01
		c0.01,0,0.03-0.02,0.04-0.03c0.01-0.01,0.03-0.04,0.05-0.06c0.04-0.05,0.08-0.11,0.1-0.19l0.02-0.07l-0.05-0.05
		c-0.03-0.03-0.06-0.06-0.07-0.06c-0.01,0-0.03-0.02-0.06-0.04c-0.03-0.03-0.08-0.06-0.11-0.07c-0.03-0.01-0.05-0.03-0.07-0.04
		c-0.02-0.01-0.05-0.04-0.08-0.05c-0.02-0.01-0.05-0.02-0.06-0.03c-0.01-0.01-0.02-0.02-0.03-0.02s-0.02,0-0.03-0.01
		S16.01,2.1,16,2.11c-0.01,0.01-0.03-0.02-0.06-0.04c-0.03-0.03-0.07-0.05-0.09-0.06C15.83,2,15.81,2,15.81,1.99
		s-0.01-0.02-0.03-0.03c-0.02-0.01-0.05-0.02-0.06-0.03c-0.01-0.01-0.04-0.04-0.07-0.05c-0.02-0.01-0.06-0.03-0.09-0.05
		c-0.03-0.02-0.09-0.06-0.13-0.08c-0.04-0.03-0.09-0.07-0.1-0.08c-0.01-0.01-0.03-0.02-0.04-0.02c-0.04,0-0.13-0.03-0.14-0.05
		c-0.01-0.02-0.04-0.04-0.1-0.04c-0.04,0-0.06,0.01-0.14,0.05c-0.12,0.07-0.15,0.08-0.21,0.08c-0.02,0-0.06,0-0.08,0.01
		c-0.02,0-0.12,0.02-0.22,0.03c-0.1,0.01-0.18,0.03-0.19,0.04c-0.01,0-0.05,0.01-0.09,0.02c-0.04,0.01-0.1,0.04-0.14,0.06
		c-0.04,0.02-0.08,0.04-0.09,0.04s-0.03,0.01-0.04,0.02c-0.01,0.01-0.02,0.01-0.03,0.01c-0.01,0-0.05,0.01-0.07,0.03
		c-0.02,0.02-0.05,0.03-0.06,0.03c-0.01,0-0.07,0.02-0.13,0.03c-0.04,0-0.11,0.01-0.15,0.01s-0.06,0-0.13,0.03
		c-0.04,0.02-0.1,0.04-0.12,0.04c-0.03,0-0.12,0.03-0.32,0.08c-0.04,0.01-0.09,0.02-0.12,0.03s-0.1,0.04-0.15,0.05
		s-0.12,0.04-0.16,0.05c-0.04,0.01-0.11,0.02-0.15,0.03c-0.06,0.01-0.12,0.04-0.25,0.1c-0.09,0.04-0.16,0.08-0.17,0.08
		s-0.03,0.01-0.05,0.02c-0.08,0.04-0.32,0.12-0.52,0.18c-0.08,0.03-0.33,0.15-0.37,0.19c-0.02,0.01-0.05,0.04-0.07,0.05
		c-0.05,0.03-0.16,0.15-0.16,0.17c0,0.01-0.01,0.03-0.01,0.05c0,0.02-0.01,0.06-0.01,0.09c-0.01,0.05-0.02,0.08-0.11,0.16
		c-0.01,0.01-0.04,0.03-0.07,0.06c-0.03,0.03-0.06,0.05-0.08,0.05s-0.04,0-0.06,0.01c-0.02,0.01-0.05,0.02-0.06,0.02
		c-0.01,0-0.04,0-0.05,0.01c-0.02,0.01-0.03,0.01-0.08,0c-0.08-0.02-0.19-0.05-0.2-0.07C9.93,3.49,9.92,3.49,9.91,3.49
		c-0.01,0-0.04-0.02-0.07-0.05S9.78,3.39,9.77,3.39c-0.01,0-0.02-0.01-0.02-0.02c0-0.01-0.01-0.03-0.03-0.04
		C9.7,3.31,9.68,3.3,9.68,3.29c0-0.01-0.01-0.02-0.02-0.03C9.63,3.24,9.61,3.18,9.61,3.11c0-0.03-0.01-0.05-0.02-0.06
		C9.58,3.04,9.58,3.02,9.58,3c0-0.03-0.01-0.04-0.02-0.05C9.54,2.94,9.55,2.93,9.55,2.89s0-0.06-0.01-0.08
		C9.53,2.79,9.52,2.78,9.52,2.77c0-0.01,0-0.02-0.01-0.04C9.5,2.7,9.49,2.66,9.48,2.58C9.47,2.49,9.46,2.45,9.45,2.44
		C9.43,2.42,9.43,2.39,9.43,2.33c0-0.04,0-0.07-0.01-0.07c-0.01,0-0.02-0.06-0.01-0.07c0.01-0.01,0.01-0.08,0.01-0.25
		c0-0.13,0.01-0.25,0.01-0.26c0.01-0.01,0.01-0.03,0.01-0.05c0-0.02,0.02-0.05,0.04-0.08c0-0.01,0.03-0.05,0.04-0.07
		c0.01-0.02,0.02-0.05,0.03-0.05c0.01,0,0.02-0.02,0.02-0.03S9.59,1.38,9.6,1.38c0.01,0,0.02-0.01,0.03-0.03
		C9.64,1.33,9.64,1.3,9.65,1.3c0.01-0.02,0.01-0.05,0.02-0.07C9.68,1.2,9.69,1.18,9.69,1.17c0-0.02,0.05-0.06,0.1-0.07l0.06-0.03
		C9.88,1.05,9.9,1.05,9.94,1.05s0.07,0.01,0.08,0.02c0.01,0.01,0.02,0.01,0.03,0.01c0.02,0,0.07,0.03,0.08,0.06
		c0.01,0,0.03,0.01,0.03,0.02c0.01,0.01,0.02,0.03,0.04,0.04c0.02,0.01,0.04,0.04,0.05,0.07c0.01,0.03,0.02,0.05,0.04,0.06
		c0.02,0.01,0.04,0.02,0.05,0.04c0.01,0.02,0.02,0.05,0.03,0.06c0.01,0.01,0.03,0.03,0.03,0.04s0.01,0.01,0.02,0.01
		c0.01,0,0.02,0.02,0.02,0.03s0.01,0.04,0.02,0.06c0.01,0.03,0.03,0.04,0.09,0.06c0.04,0.01,0.08,0.02,0.09,0.02
		c0.09-0.02,0.12-0.02,0.13-0.01c0.02,0.01,0.04,0.02,0.12,0.02c0.06-0.01,0.1-0.01,0.11,0c0.01,0.01,0.05,0.01,0.12,0
		c0.06-0.01,0.11-0.02,0.11-0.01s0.21,0,0.22-0.01c0.01-0.01,0.03,0,0.05,0h0.12c0.04,0,0.13-0.01,0.19-0.02
		c0.06-0.01,0.14-0.01,0.17-0.02c0.03-0.01,0.09-0.02,0.14-0.02s0.11,0,0.12-0.01c0.02-0.01,0.07-0.01,0.12-0.01
		c0.05,0,0.17-0.02,0.26-0.03c0.09-0.01,0.2-0.03,0.24-0.03c0.04-0.01,0.09-0.01,0.1-0.02c0.01-0.01,0.03-0.01,0.04-0.01h0.05
		l0.04-0.01l-0.02-0.05c-0.01-0.03-0.03-0.08-0.04-0.1c-0.01-0.03-0.02-0.07-0.02-0.08c0-0.06,0-0.08-0.02-0.09
		c-0.01-0.01-0.02-0.01-0.02-0.02c0-0.01-0.01-0.03-0.02-0.05c-0.01-0.02-0.01-0.08-0.02-0.13c-0.01-0.14-0.05-0.21-0.12-0.25
		c-0.03-0.02-0.09-0.05-0.13-0.09c-0.04-0.04-0.09-0.08-0.1-0.09c-0.03-0.02-0.19-0.05-0.33-0.05c-0.3-0.01-0.32-0.02-0.33-0.03
		L11.9,0.4h0.03c0.02,0,0.13-0.01,0.24-0.03c0.12-0.02,0.27-0.04,0.35-0.04c0.08-0.01,0.16-0.01,0.18-0.02
		c0.01,0,0.07-0.02,0.11-0.03c0.09-0.02,0.23-0.08,0.28-0.13c0.02-0.02,0.05-0.04,0.06-0.04s0.03-0.02,0.06-0.05L13.26,0z
		 M14.46,3.05c0.01,0,0.03,0,0.04,0.01c0.02,0.02,0.12,0.05,0.16,0.04c0.03-0.01,0.04,0,0.05,0.02c0.01,0.01,0.03,0.02,0.04,0.02
		c0.01,0,0.03,0.01,0.04,0.02c0.01,0.01,0.05,0.03,0.07,0.04c0.03,0.01,0.06,0.03,0.07,0.04c0.02,0.01,0.03,0.02,0.04,0.01
		c0.01-0.01,0.04,0,0.13,0.04c0.1,0.05,0.13,0.07,0.2,0.14c0.05,0.05,0.09,0.09,0.09,0.1s0.02,0.04,0.04,0.09
		c0.04,0.08,0.07,0.2,0.07,0.28c0,0.06-0.03,0.22-0.06,0.27c-0.02,0.04-0.09,0.1-0.14,0.12C15.28,4.3,15.21,4.3,15.15,4.3
		c-0.14,0-0.38,0.02-0.43,0.04c-0.03,0.01-0.04,0.01-0.05,0c-0.01-0.01-0.02-0.01-0.04,0c-0.01,0.01-0.08,0.01-0.19,0.01h-0.19
		c-0.01,0-0.07,0.01-0.12,0.01s-0.12,0.01-0.14,0.02c-0.06,0.01-0.17,0.02-0.43,0.02c-0.13,0-0.23,0-0.24,0.01s0,0.04,0.01,0.08
		s0.02,0.1,0.02,0.12c0,0.03,0.01,0.05,0.03,0.07c0.01,0.02,0.02,0.05,0.02,0.06c0,0.03-0.02,0.11-0.03,0.11s-0.01,0.02,0,0.03
		c0.01,0,0.01,0.01,0,0.02s-0.01,0.03-0.01,0.05c0,0.02-0.01,0.06-0.02,0.09c-0.01,0.03-0.02,0.07-0.02,0.09
		c0,0.04-0.07,0.17-0.12,0.24c-0.02,0.02-0.03,0.05-0.03,0.06c0,0.01-0.01,0.03-0.03,0.05c-0.06,0.06-0.08,0.08-0.09,0.1
		c-0.01,0-0.02,0.01-0.02,0.02c0,0.01-0.06,0.08-0.12,0.15C12.77,5.9,12.7,6,12.73,6h0.1c0.01,0,0.05-0.01,0.09-0.02
		c0.04-0.01,0.1-0.02,0.14-0.02c0.08,0,0.22-0.02,0.29-0.03c0.03-0.01,0.09-0.02,0.15-0.03c0.06-0.01,0.14-0.03,0.16-0.03
		c0.03-0.01,0.06-0.02,0.07-0.02c0.02,0,0.09-0.03,0.29-0.09c0.04-0.01,0.1-0.03,0.13-0.03c0.03-0.01,0.06-0.02,0.07-0.03
		s0.03-0.01,0.04-0.01c0.01,0,0.04-0.02,0.07-0.04c0.03-0.02,0.06-0.03,0.07-0.03s0.02-0.02,0.04-0.03
		c0.02-0.02,0.04-0.02,0.05-0.01h0.07c0.08,0,0.26,0.09,0.26,0.12c0,0.02,0.06,0.09,0.09,0.11c0.03,0.01,0.07,0.07,0.11,0.13
		c0.01,0.01,0.03,0.04,0.04,0.04c0.01,0,0.05,0.03,0.09,0.06s0.08,0.05,0.09,0.05s0.02,0.02,0.03,0.03
		c0.03,0.03,0.22,0.14,0.25,0.15c0.01,0,0.02,0.01,0.03,0.02s0.03,0.01,0.04,0.01c0.02,0,0.05,0.01,0.07,0.03
		c0.23,0.18,0.26,0.22,0.26,0.31c0,0.05,0,0.06-0.01,0.08c-0.01,0.01-0.02,0.04-0.02,0.05s-0.01,0.03-0.03,0.05
		c-0.01,0.01-0.03,0.04-0.04,0.06c-0.01,0.02-0.04,0.07-0.07,0.11c-0.07,0.11-0.11,0.18-0.11,0.21c0,0.02,0,0.04-0.01,0.04
		c-0.01,0.01-0.01,0.03-0.01,0.05c0,0.02-0.01,0.07-0.02,0.11c-0.02,0.09-0.03,0.3-0.01,0.38c0.02,0.1,0.03,0.17,0.02,0.21
		c-0.01,0.03-0.01,0.05,0.01,0.1c0.01,0.03,0.02,0.07,0.02,0.09c0,0.02,0,0.04,0.01,0.05c0.02,0.02,0.04,0.11,0.04,0.18
		c0,0.05,0.02,0.16,0.03,0.18c0.01,0.02-0.02,0.22-0.04,0.23c-0.01,0.01-0.02,0.01-0.02,0.02c0,0.02-0.07,0.09-0.09,0.09
		c-0.01,0-0.03,0.01-0.05,0.03c-0.04,0.04-0.18,0.1-0.24,0.1c-0.02,0-0.06,0-0.09,0.01c-0.08,0.02-0.19,0.02-0.31,0
		c-0.06-0.01-0.1-0.02-0.11-0.01c0,0.01-0.02,0.01-0.04,0c-0.06-0.02-0.27-0.02-0.35,0c-0.05,0.01-0.11,0.02-0.34,0.02
		c-0.15,0-0.34-0.01-0.4-0.01c-0.08,0-0.13,0-0.17,0.01c-0.03,0.01-0.09,0.01-0.15,0.01c-0.11,0-0.5-0.01-0.66-0.02
		c-0.1-0.01-0.29-0.04-0.41-0.08c-0.03-0.01-0.07-0.02-0.09-0.02c-0.04,0-0.14-0.04-0.16-0.07c-0.03-0.04-0.05-0.24-0.03-0.27
		c0.01-0.01,0.01-0.02,0-0.04c-0.01-0.02-0.01-0.04,0.01-0.09l0.03-0.05L11.99,8.4c-0.03-0.05-0.03-0.06-0.01-0.08
		C11.99,8.3,12,8.28,11.99,8.26c0-0.02-0.01-0.04,0-0.05C12,8.2,12.01,8.18,12.01,8.16c0.01-0.07,0.06-0.19,0.07-0.19
		s0.01-0.01,0.01-0.02s0-0.03,0.01-0.04c0.01-0.02,0.01-0.03-0.04-0.04c-0.14-0.03-0.16-0.04-0.19-0.08
		c-0.04-0.05-0.08-0.16-0.07-0.18c0-0.01,0-0.05-0.02-0.1c-0.02-0.05-0.04-0.14-0.04-0.18s-0.01-0.1-0.02-0.12
		c-0.01-0.03-0.01-0.07-0.02-0.09c-0.01-0.02-0.02-0.05-0.03-0.06c-0.01-0.01-0.02-0.01-0.07,0.01c-0.03,0.01-0.06,0.02-0.07,0.02
		c-0.01,0-0.06,0.01-0.12,0.03c-0.13,0.04-0.3,0.09-0.44,0.11c-0.06,0.01-0.11,0.01-0.11,0.02c0,0.01-0.01,0.01-0.03,0.01
		c-0.04,0-0.16,0.03-0.21,0.05c-0.05,0.02-0.12,0.04-0.21,0.07c-0.04,0.01-0.08,0.02-0.09,0.03c-0.01,0.01-0.02,0.02-0.03,0.01
		c-0.01-0.01-0.02,0.01-0.03,0.02c-0.01,0.01-0.04,0.02-0.06,0.02s-0.09,0.02-0.14,0.04L9.97,7.53L9.92,7.48
		C9.9,7.45,9.86,7.42,9.84,7.41C9.82,7.39,9.8,7.36,9.79,7.34C9.78,7.32,9.77,7.29,9.76,7.28C9.75,7.27,9.74,7.24,9.73,7.21
		c0-0.03-0.02-0.07-0.03-0.08C9.69,7.12,9.68,7.11,9.68,7.1c0.01-0.02-0.01-0.13-0.03-0.19C9.64,6.88,9.64,6.86,9.64,6.85
		c0.01-0.02,0.01-0.03-0.01-0.06c-0.02-0.04-0.02-0.04,0-0.05c0.02-0.02,0.04-0.08,0.02-0.09c-0.01,0-0.02-0.01-0.01-0.03
		c0.01-0.01,0-0.03,0-0.04c0-0.01,0.01-0.02,0.01-0.03C9.66,6.53,9.7,6.43,9.69,6.42C9.68,6.41,9.72,6.28,9.74,6.25
		c0.01-0.02,0.03-0.04,0.03-0.06c0-0.02,0-0.08,0.01-0.12c0.02-0.09,0.03-0.15,0-0.26C9.77,5.75,9.76,5.67,9.76,5.58
		c0-0.12-0.01-0.15-0.04-0.22c-0.04-0.1-0.07-0.13-0.11-0.17C9.59,5.17,9.58,5.15,9.58,5.14S9.56,5.11,9.54,5.08
		C9.52,5.05,9.5,5.03,9.51,5.03c0.01,0,0.05,0.02,0.09,0.04C9.66,5.1,9.66,5.1,9.66,5.09C9.65,5.08,9.63,5.05,9.6,5.03
		C9.53,4.98,9.53,4.97,9.59,4.98C9.62,4.98,9.66,5,9.68,5h0.09c0.13,0,0.42,0.11,0.54,0.22c0.02,0.02,0.05,0.05,0.07,0.06
		s0.06,0.04,0.11,0.08c0.05,0.04,0.1,0.08,0.12,0.09c0.04,0.02,0.16,0.02,0.19,0c0.01-0.01,0.06-0.02,0.09-0.02
		c0.07-0.01,0.13-0.03,0.15-0.04c0.02,0.01,0.19-0.03,0.21-0.04c0.01-0.01,0.01-0.02,0.02-0.01c0.01,0,0.07-0.01,0.14-0.03
		c0.09-0.03,0.14-0.05,0.14-0.06c0-0.01,0.01-0.02,0.02-0.02c0.01,0,0.02,0,0.03-0.01c0-0.01,0.02-0.01,0.03-0.01
		c0.02,0,0.04-0.01,0.07-0.04c0.02-0.02,0.05-0.05,0.07-0.06c0.06-0.03,0.14-0.08,0.25-0.19l0.04-0.04
		c-0.01-0.01-0.01-0.02,0.01-0.04l0.04-0.07c0.01-0.03,0.03-0.05,0.05-0.06c0.03-0.01,0.03-0.02,0.03-0.04
		c0-0.01,0.02-0.04,0.03-0.06c0.02-0.03,0.03-0.05,0.02-0.07c0-0.02-0.01-0.04-0.01-0.06c0-0.02,0-0.04-0.02-0.05
		c-0.02-0.02-0.02-0.02-0.12-0.01s-0.16,0.03-0.19,0.05c-0.01,0.01-0.02,0-0.03-0.01s-0.04-0.02-0.14-0.02H11.6
		c-0.01,0-0.07-0.01-0.14-0.02c-0.1-0.01-0.12-0.02-0.14-0.04c-0.01-0.01-0.05-0.03-0.07-0.03s-0.05-0.02-0.06-0.03
		c-0.01-0.01-0.03-0.03-0.04-0.03c-0.03-0.01-0.1-0.05-0.12-0.07C11.02,4.21,11.01,4.2,11,4.2c-0.02,0-0.07-0.06-0.12-0.17
		c-0.04-0.08-0.03-0.11,0.01-0.14c0.03-0.02,0.07-0.04,0.15-0.04c0.06,0,0.11,0,0.12-0.01c0.03-0.02,0.16-0.04,0.17-0.03
		c0.01,0.02,0.14-0.04,0.16-0.07c0.01-0.02,0.02-0.02,0.04-0.02c0.05,0,0.19-0.03,0.2-0.04c0.01-0.02,0.07-0.04,0.09-0.03
		c0.01,0,0.01,0.01,0.02,0c0-0.01,0.05-0.02,0.09-0.02c0.06-0.01,0.09-0.01,0.09-0.02s0.02-0.01,0.03-0.01s0.03,0.01,0.03,0
		s0.01-0.01,0.02-0.01c0.01,0,0.02-0.01,0.02-0.02s0.01-0.01,0.02-0.01s0.04,0,0.04-0.01c0.02,0.01,0.03,0,0.06-0.02
		c0.04-0.03,0.06-0.03,0.07-0.02c0.01,0.01,0.02,0.01,0.02,0c0.01-0.02,0.06-0.05,0.1-0.04c0.02,0,0.04-0.01,0.06-0.02
		c0.03-0.02,0.05-0.02,0.06-0.01s0.03,0.01,0.07,0c0.03-0.01,0.06-0.01,0.07-0.01s0.03,0,0.04-0.02c0.01-0.02,0.02-0.02,0.03-0.01
		c0.02,0.01,0.06,0,0.06-0.02c0-0.02,0.02-0.01,0.04,0c0.02,0.01,0.16-0.04,0.19-0.07c0.01-0.01,0.03-0.01,0.04-0.01
		c0.03,0.01,0.03,0.01,0.09-0.01c0.03-0.01,0.07-0.02,0.08-0.02c0.01,0,0.04-0.01,0.06-0.02c0.02-0.01,0.06-0.02,0.09-0.02
		s0.05,0,0.05-0.01s0.05-0.02,0.1-0.02c0.02,0,0.05-0.02,0.08-0.03c0.03-0.01,0.09-0.03,0.12-0.03c0.04,0,0.1-0.01,0.13-0.02
		c0.04-0.01,0.09-0.01,0.14-0.01c0.05,0,0.08,0,0.08-0.01c0.01-0.02,0.07-0.02,0.09,0c0.01,0.01,0.02,0.01,0.04,0
		c0.01-0.01,0.02-0.02,0.03-0.01c0.01,0,0.02,0,0.02-0.01c0.01-0.02,0.01-0.02,0.07-0.02C14.4,3.06,14.45,3.05,14.46,3.05z
		 M14.48,6.18c-0.01,0.01-0.03,0-0.05,0c-0.07-0.01-0.29,0.03-0.36,0.07c-0.02,0.01-0.06,0.03-0.09,0.04
		c-0.08,0.03-0.18,0.07-0.19,0.08c-0.02,0.02-0.38,0.14-0.48,0.17c-0.02,0.01-0.06,0.02-0.07,0.03c-0.01,0.01-0.03,0.01-0.04,0.01
		s-0.05,0.01-0.08,0.03c-0.03,0.02-0.06,0.03-0.07,0.03c-0.01,0-0.02,0.01-0.02,0.02c0,0.01-0.01,0.01-0.02,0.01
		c-0.01,0-0.01,0-0.02,0.01c-0.01,0.02-0.11,0.06-0.14,0.06c-0.01,0-0.01,0.01-0.02,0.02c-0.01,0.02-0.05,0.06-0.08,0.07
		c-0.02,0-0.02,0.02-0.01,0.38c0,0.05,0.01,0.09,0.01,0.1s0.01,0.03,0,0.05c-0.01,0.03,0,0.07,0.02,0.1
		c0.01,0.01,0.02-0.01,0.04-0.02c0.04-0.01,0.05-0.01,0.09,0s0.21,0.01,0.31,0.01c0.05,0,0.69-0.03,0.76-0.03
		c0.11,0,0.37-0.01,0.45-0.02c0.05-0.01,0.15-0.02,0.23-0.04c0.14-0.03,0.16-0.04,0.24-0.09c0.05-0.03,0.1-0.07,0.11-0.08
		s0.02-0.03,0.03-0.03s0.02-0.04,0.06-0.14c0.07-0.21,0.09-0.27,0.08-0.3c0-0.01-0.01-0.03-0.02-0.03s-0.03-0.02-0.06-0.05
		c-0.08-0.08-0.2-0.18-0.22-0.18c-0.01,0-0.05-0.03-0.13-0.09c-0.03-0.02-0.07-0.04-0.08-0.05c-0.03-0.01-0.08-0.06-0.12-0.11
		C14.51,6.17,14.49,6.16,14.48,6.18z M14.2,1.21c-0.01,0-0.01,0-0.02,0.01c-0.02,0.02-0.01,0.03,0.02,0.01
		C14.21,1.22,14.21,1.21,14.2,1.21z M14.27,1.2c-0.02,0.01-0.01,0.03,0,0.03S14.28,1.21,14.27,1.2z"/>
</g>
</svg>
