<?xml version="1.0" encoding="utf-8"?>
<!-- Generator: Adobe Illustrator 25.0.0, SVG Export Plug-In . SVG Version: 6.00 Build 0)  -->
<svg version="1.1" id="Layer_1" xmlns="http://www.w3.org/2000/svg" xmlns:xlink="http://www.w3.org/1999/xlink" x="0px" y="0px"
	 viewBox="0 0 12.29 12.29" style="enable-background:new 0 0 12.29 12.29;" xml:space="preserve">
<style type="text/css">
	.st0{fill:#65514E;}
</style>
<g>
	<g>
		<path class="st0" d="M12.16,12.29c0.08-0.04,0.01-0.03-0.02-0.04L12.16,12.29z"/>
		<path class="st0" d="M12.15,12.25l-0.01-0.03C12.13,12.23,12.14,12.24,12.15,12.25z"/>
		<path class="st0" d="M12,12.02c0.09-0.01,0.08,0.11,0.18,0.06C12.18,11.99,12.1,11.94,12,12.02z"/>
		<polygon class="st0" points="12.02,12.13 12.06,12.09 11.96,12.12 		"/>
		<polygon class="st0" points="12.01,12.19 12.02,12.17 11.92,12.16 		"/>
		<path class="st0" d="M11.89,11.84l0.05,0.03c-0.02,0.1-0.1,0.05-0.11,0.11c0.05,0.05,0.14-0.1,0.18-0.01
			c0.05-0.06-0.11-0.11-0.01-0.18C11.97,11.71,11.95,11.84,11.89,11.84z"/>
		<path class="st0" d="M8.85,9.71c0-0.01,0-0.01,0-0.01C8.85,9.71,8.84,9.71,8.85,9.71z"/>
		<path class="st0" d="M8.09,9.06c0-0.02-0.01-0.03-0.01-0.05C8.07,9.03,8.06,9.04,8.06,9.05L8.09,9.06z"/>
		<path class="st0" d="M9.45,9.99c0,0.02,0,0.04,0.01,0.05C9.47,10.03,9.47,10.01,9.45,9.99z"/>
		<path class="st0" d="M5.25,5.19c0.01,0,0.02-0.01,0.03-0.02c0,0,0,0,0,0L5.25,5.19L5.25,5.19z"/>
		<path class="st0" d="M7.16,8.4C7.15,8.39,7.14,8.38,7.12,8.37C7.14,8.39,7.15,8.4,7.16,8.4z"/>
		<path class="st0" d="M9.71,10.24c0,0-0.01-0.01-0.01-0.01c0,0.01,0,0.01,0,0.02L9.71,10.24C9.71,10.24,9.71,10.24,9.71,10.24z"/>
		<path class="st0" d="M8.2,9.4c0-0.02-0.01-0.03-0.02-0.04C8.19,9.38,8.2,9.39,8.2,9.4z"/>
		<path class="st0" d="M11.32,11.09c0-0.02-0.02-0.02-0.04-0.02C11.28,11.09,11.29,11.1,11.32,11.09z"/>
		<path class="st0" d="M11.06,10.85C11.06,10.85,11.06,10.85,11.06,10.85C11.07,10.84,11.07,10.84,11.06,10.85z"/>
		<path class="st0" d="M10.91,10.68C10.91,10.68,10.91,10.68,10.91,10.68C10.92,10.67,10.92,10.67,10.91,10.68z"/>
		<path class="st0" d="M11.29,11.07c0.01-0.05,0.11-0.17-0.03-0.08l-0.01,0.02c0.01-0.04-0.06-0.02-0.08-0.04
			c-0.01,0.01-0.02,0.02-0.02,0.04c0.01,0.01,0.02,0.03,0.03,0.05C11.17,11.11,11.24,11.07,11.29,11.07z"/>
		<path class="st0" d="M8.88,9.69C8.86,9.71,8.89,9.72,8.88,9.69L8.88,9.69z"/>
		<path class="st0" d="M9.18,9.82C9.18,9.81,9.17,9.8,9.16,9.8C9.17,9.81,9.17,9.82,9.18,9.82z"/>
		<path class="st0" d="M9.97,10.67C9.97,10.67,9.97,10.67,9.97,10.67C9.96,10.68,9.97,10.68,9.97,10.67z"/>
		<path class="st0" d="M9.14,9.77C9.15,9.78,9.16,9.79,9.16,9.8C9.16,9.79,9.16,9.78,9.14,9.77z"/>
		<path class="st0" d="M9.79,10.36C9.79,10.36,9.79,10.36,9.79,10.36C9.79,10.36,9.79,10.36,9.79,10.36z"/>
		<path class="st0" d="M2.24,1.43C2.26,1.44,2.24,1.48,2.25,1.5C2.36,1.46,2.18,1.43,2.3,1.41C2.28,1.4,2.26,1.4,2.24,1.39
			L2.19,1.49C2.25,1.49,2.19,1.44,2.24,1.43z"/>
		<path class="st0" d="M5.19,4.83l0,0.01C5.22,4.8,5.23,4.8,5.23,4.75C5.15,4.78,5.11,4.89,5.02,4.91c0.01,0,0.02,0.02,0.03,0.03
			C5.07,4.88,5.13,4.85,5.19,4.83z"/>
		<path class="st0" d="M5.04,4.94C5.04,4.94,5.04,4.94,5.04,4.94C5.03,4.96,5.03,4.96,5.03,4.97C5.03,4.98,5.04,4.99,5.04,5
			C5.04,4.98,5.05,4.96,5.04,4.94z"/>
		<path class="st0" d="M2.75,2.01c0,0.01,0.01,0.02,0.01,0.03C2.77,2.02,2.76,2.01,2.75,2.01z"/>
		<path class="st0" d="M8.14,7.52c0.02,0,0.03,0,0.04,0C8.17,7.51,8.15,7.52,8.14,7.52z"/>
		<path class="st0" d="M5.51,5.29c0,0.01,0,0.02,0.01,0.03c0.01,0,0.01,0,0.02,0.01L5.51,5.29z"/>
		<path class="st0" d="M3.51,4.69c0.1-0.07-0.02,0,0-0.08L3.44,4.63C3.45,4.66,3.49,4.67,3.51,4.69z"/>
		<polygon class="st0" points="2.24,1.39 2.23,1.39 2.24,1.39 		"/>
		<path class="st0" d="M2.73,3.94c0-0.01,0-0.02,0-0.02C2.72,3.92,2.72,3.93,2.73,3.94z"/>
		<path class="st0" d="M5.16,5.13l0.09,0.1L5.25,5.19C5.19,5.21,5.22,5.09,5.16,5.13z"/>
		<path class="st0" d="M3.88,5.16L3.84,5.21C4.04,5.21,4,5.47,4.23,5.4c-0.06,0.3,0.24-0.08,0.19,0.19l0.02-0.03
			c0.33,0.39,0.62,0.86,1.04,1.11L5.45,6.71c0.48,0.6,1.08,1.06,1.59,1.62c0.08,0.02,0.13-0.09,0.21-0.09
			c0.02,0.02,0.06,0.06,0.02,0.1C7.21,8.33,7.19,8.39,7.16,8.4c0.06,0.06,0.09,0.18,0.2,0.18l0.01-0.1c0.04,0,0.06,0.05,0.08,0.07
			c-0.04,0.02-0.07,0.11-0.1,0.11C7.6,8.63,7.38,8.8,7.53,8.84c0.14-0.1,0.36-0.08,0.52-0.08l0.01,0.07
			C8.01,8.78,7.97,8.92,7.91,8.85c0.02,0.09,0.13,0.09,0.16,0.17c0.02-0.04,0.06-0.08,0.1-0.07C8.19,8.99,8.13,9.06,8.16,9.1
			l-0.07,0C8.07,9.17,8.15,9.13,8.18,9.15C8.14,9.21,8.18,9.27,8.12,9.32c0.12-0.02,0.1,0.04,0.2,0.05c0-0.11,0.08-0.05,0.11-0.1
			L8.35,9.23C8.4,9.35,8.31,9.21,8.23,9.3c0-0.08,0.2-0.08,0.11-0.14c0.13,0.04,0.11,0.1,0.27,0.12c-0.07-0.04,0.07-0.05,0.06-0.1
			C8.74,9.24,8.66,9.22,8.63,9.3c0.04,0.03,0,0.1,0.1,0.07c0.03,0.08-0.07,0.05-0.08,0.12C8.57,9.52,8.56,9.24,8.39,9.45
			c-0.03-0.03-0.14,0-0.18-0.04c0.01,0.06,0.01,0.18,0.1,0.18l0.11-0.1c0.04,0.03,0.12-0.03,0.13,0.01C8.5,9.51,8.48,9.58,8.52,9.6
			c0.01-0.02-0.01-0.03,0.01-0.05C8.59,9.6,8.67,9.53,8.76,9.58C8.73,9.5,8.75,9.46,8.75,9.36C8.83,9.3,8.79,9.38,8.83,9.4
			c-0.01,0.01-0.02,0-0.03,0.02l0.07,0c0.03,0.1-0.11,0.1-0.1,0.19c-0.02,0.1,0.09,0.02,0.08,0.08c0-0.01,0.01-0.02,0.01-0.02
			c0.01,0.01,0.01,0.01,0.01,0.02c0,0,0,0,0-0.01c0.05,0.02,0.08,0.07,0.14,0.02C9,9.74,9.06,9.73,9.09,9.73
			c0.04,0,0.15-0.02,0.09,0.1c0,0,0,0,0,0c0.03,0.05,0.04,0.12,0,0.14l0.05,0.09l-0.08,0.06c0.08,0.05,0.12,0,0.24-0.03
			c0,0.09,0.12,0.13,0.18,0.14c0,0.01,0.01,0.02,0.03,0.02l0-0.05c0.05,0.05,0.08,0.01,0.11,0.04c0-0.01,0-0.02,0.01,0.01
			c0,0.01,0.01,0.01,0.01,0.02c-0.01,0.01-0.02,0-0.02-0.01l-0.02,0.03c-0.04,0.12,0.1,0.02,0.12,0.09c-0.01,0-0.02,0-0.02-0.01
			c0,0.04-0.06,0.18,0.01,0.13c0,0.01,0.02,0.01,0.04,0l0.01,0.03c0-0.01-0.01-0.02-0.01-0.03c0.03-0.01,0.07-0.02,0.05-0.01
			l0.05,0.07c0,0.02,0.03,0.03,0.05,0.03l-0.02,0.04c0.03,0.02,0.01,0.04,0,0.04c-0.02,0.18,0.17,0.07,0.17,0.24
			c0.07-0.03,0.05-0.09,0.08-0.12c0.05-0.02,0.13-0.01,0.18-0.01c-0.03,0.11,0.02,0.28-0.09,0.36c0.06,0.08,0.04-0.08,0.11-0.08
			l0,0.01c-0.01-0.04,0-0.09,0.03-0.14c0.05-0.06,0.12-0.01,0.13,0.02l-0.09,0.06c0.09,0.04,0.19-0.09,0.31-0.13
			c0.02,0.08-0.08,0.12-0.13,0.2l0.07,0.03l-0.06,0.06c0.05,0.02,0.11-0.03,0.14,0.05c-0.09,0.02,0.02,0.13-0.1,0.15
			c0.01,0.05,0.13-0.06,0.06,0.03c0.08-0.04,0.01-0.05,0.01-0.09c0.08-0.1,0.1,0.02,0.16,0.03c-0.04,0.05-0.07,0.03-0.07,0.1
			c0.04-0.03,0.09-0.03,0.07,0.03c0.06-0.06,0.05,0.03,0.07,0.06c-0.01-0.04-0.01-0.11,0.06-0.15c0.04,0,0.07,0,0.1,0.05l0-0.06
			c0.12-0.05,0,0.12,0.08,0.15c-0.06,0.01-0.07,0-0.13,0.02c0.05,0,0.14,0,0.2,0.01l-0.04,0.13c0.05-0.04,0.04,0.05,0.1,0
			c0.02,0.09-0.11,0.03-0.16,0.06c0.03,0.1,0.15-0.04,0.13,0.11l-0.07,0.03c0.02,0.03,0.09,0.04,0.07,0.07
			c0.02-0.02,0-0.02-0.01-0.04c0.13-0.1,0.18,0.02,0.29-0.11l-0.02-0.04c0.07,0.02,0.18-0.02,0.17,0.05
			c-0.01,0.06-0.1,0.06-0.14,0.08c0.04,0.05,0.16-0.09,0.2-0.03c-0.01-0.05,0.04-0.08,0.09-0.1c-0.02-0.04-0.06-0.12-0.1-0.06
			l0,0.02c-0.03,0.03-0.06,0.02-0.08,0.03c-0.04-0.04,0.03-0.07,0.05-0.1c-0.05-0.09-0.12,0.11-0.18,0.05l0.01-0.03
			c-0.06,0-0.11-0.04-0.19,0.02c0.05-0.1-0.1-0.04-0.08-0.11c0.16-0.17,0.09,0.12,0.22,0.06c0-0.07,0.1-0.06,0.15-0.09l-0.17-0.03
			c0.01-0.03,0.07-0.14-0.01-0.1l0,0.01c-0.06-0.02-0.12,0.06-0.13,0c0.01-0.02,0.05-0.04,0.06-0.05c-0.02-0.05-0.06,0.01-0.1,0
			c-0.02-0.05,0.08-0.05,0.08-0.1c-0.1,0.03-0.04-0.07-0.08-0.1c-0.08,0.11-0.26,0-0.27,0.15l-0.14-0.01
			c0.03-0.07,0.19-0.08,0.24-0.18l0.06,0.07c0.11-0.13-0.21-0.05-0.12-0.22c-0.03-0.04-0.04-0.01-0.04-0.13l-0.09,0.12
			c-0.01-0.06,0.04-0.12,0.06-0.15c-0.03-0.01-0.04-0.03-0.05-0.05c0.02-0.01,0.04-0.02,0.06-0.01c0.03-0.08,0.01-0.07-0.03-0.05
			c-0.04,0.01-0.06-0.01-0.08-0.03l0.06-0.02c-0.02,0-0.05-0.01-0.07,0.01c-0.01-0.01-0.02-0.01-0.03-0.01
			c-0.01,0.02-0.06,0.1-0.06,0.15c-0.03-0.12-0.12-0.15-0.09-0.3c0.03-0.03,0.1-0.04,0.09-0.05c-0.02-0.05-0.1-0.03-0.15,0.02
			c-0.01,0-0.02-0.01-0.02-0.01c0.02-0.03,0.04-0.07,0.03-0.09c0.01-0.01,0.01-0.03,0-0.04c-0.09,0.07-0.11-0.03-0.17-0.01
			c0.01,0.02,0.02,0.04,0.05,0.06c-0.08,0.03-0.17,0.07-0.14,0.01c0.1-0.01,0.04-0.14,0.13-0.09c0.06-0.16-0.1,0.05-0.12-0.04
			l0.01-0.08c0.07-0.06,0.09,0.03,0.1-0.01l-0.03-0.02c0.07-0.02,0.13,0.1,0.26,0.09l-0.08-0.15c-0.21-0.07-0.31-0.33-0.56-0.32
			c0,0,0,0,0.01,0c-0.01,0-0.02,0.01-0.05,0.04l0.01-0.02l-0.07,0.02c0.03-0.08-0.01-0.15-0.01-0.23C10.04,9.68,10.04,9.68,10,9.73
			C9.93,9.78,9.9,9.8,9.88,9.74C9.93,9.7,9.95,9.72,9.95,9.66C9.95,9.69,9.9,9.71,9.88,9.7C9.89,9.65,9.85,9.6,9.9,9.56
			c0.02,0,0.02,0.02,0.02,0.04c0.02,0,0-0.08,0.06-0.09L9.92,9.48C9.94,9.42,10,9.44,10.01,9.41C9.91,9.37,9.78,9.43,9.69,9.4
			c0.03-0.02,0.12-0.12,0.09-0.09c-0.02-0.08-0.21,0-0.27-0.04c0.04-0.02,0.05,0.01,0.08,0.01C9.46,9.08,9.33,8.95,9.26,8.7
			L9.13,8.76l0.03-0.11c-0.1-0.23-0.29-0.29-0.47-0.41C8.62,8.2,8.72,8.14,8.72,8.09C8.63,7.97,8.49,8.06,8.37,7.98
			C8.41,7.96,8.52,7.9,8.48,7.85c-0.04,0.02-0.09,0.06-0.1,0.02l0.04-0.02C8.45,7.78,8.38,7.8,8.35,7.73
			C8.26,7.64,8.1,7.62,7.91,7.66c-0.07-0.09,0.12-0.1,0.12-0.14c0.02,0.09,0.06,0.02,0.1,0c-0.06,0-0.11-0.02-0.06-0.11
			C8.04,7.38,8.02,7.36,7.93,7.36c0.04,0,0.02,0.05-0.03,0.07c-0.01-0.06-0.12-0.12-0.03-0.2C7.65,7.04,7.45,6.8,7.23,6.59
			C7.15,6.6,7.24,6.63,7.19,6.65c-0.11,0.01-0.01-0.07-0.1-0.07l0.07-0.03C7.1,6.48,6.95,6.5,6.84,6.49c0.06-0.04,0-0.1,0.08-0.08
			c-0.04-0.02,0.17-0.3,0.1-0.27L6.82,6.4C6.8,6.42,6.77,6.36,6.76,6.38C6.78,6.31,6.8,6.23,6.78,6.21c0.05-0.07,0.08-0.01,0.1,0.02
			c0.1-0.09-0.02-0.14,0.1-0.2C6.92,5.99,6.95,6.08,6.88,6.09L6.85,6.02l0,0.07C6.79,6.08,6.7,6.14,6.71,6.04L6.56,6.08
			C6.63,6,6.53,6.02,6.52,5.98l0.07-0.03C6.55,5.91,6.55,5.89,6.56,5.84c0.09-0.05,0.02,0.05,0.09-0.01L6.63,5.77
			c-0.04,0.04-0.1,0.05-0.1,0.11c-0.12,0.04-0.2,0.09-0.29-0.01C6.27,5.75,6.35,5.84,6.4,5.75C6.34,5.63,6.09,5.83,6.05,5.76
			C6,5.66,5.94,5.73,5.86,5.66c0.07-0.03,0-0.1,0.04-0.17l0.08-0.02c-0.04-0.01-0.04-0.05,0-0.08C5.92,5.47,5.83,5.37,5.74,5.35
			L5.69,5.42C5.64,5.4,5.54,5.38,5.52,5.32C5.44,5.28,5.4,5.34,5.29,5.36c0.03-0.08,0.09-0.14,0.16-0.19
			c-0.01,0.05,0.03,0.06,0.04,0.1C5.62,5.3,5.81,5.24,5.86,5.34C6.03,5.24,5.79,5.31,5.8,5.22c0.01-0.01,0.02-0.01,0.02-0.01
			c0,0-0.01-0.01-0.01-0.01C5.86,5.21,5.93,5.23,6,5.17C5.94,5.14,5.83,5.28,5.83,5.16c-0.08,0-0.01-0.15-0.02-0.19
			C5.73,5,5.61,5.11,5.56,5.01l0.11-0.05c-0.08-0.08-0.15,0.08-0.22,0C5.47,5,5.35,5.02,5.4,5.07C5.33,5.09,5.27,5.04,5.25,4.98
			C5.23,4.98,5.22,5,5.19,5.03c-0.01,0.1,0.12,0.02,0.08,0.13l0.12-0.05C5.4,5.18,5.34,5.25,5.28,5.26
			c0.02,0.01,0.04,0.01,0.03,0.03c-0.12,0.13,0-0.1-0.13,0l0.04,0.02c-0.07,0.1-0.14,0-0.17-0.04c0-0.08-0.03-0.13,0.03-0.2
			L5.16,5.1c0.02-0.08-0.1-0.04-0.13-0.08C5.03,5.01,5.04,5,5.04,5c0,0.01-0.01,0.01-0.01,0.02c0-0.01,0-0.02,0.01-0.04
			C5,4.94,4.92,4.93,4.91,4.89L4.86,4.94L4.9,4.92c0.02,0.03,0.03,0.1-0.03,0.12c-0.1-0.02-0.01-0.14,0.03-0.2
			c0.1-0.07,0.06,0.06,0.12,0.06c0.06-0.1-0.05-0.07-0.06-0.19c0.11-0.06,0.07,0.07,0.17,0.01C5.08,4.65,5,4.7,4.97,4.62
			c0.05-0.03,0.1,0.01,0.15-0.04L5.12,4.52C5.21,4.6,5.21,4.4,5.3,4.44c0.01-0.07-0.12,0.03-0.1-0.07C5.17,4.42,5.13,4.53,5.06,4.52
			L5.04,4.45C5.06,4.38,5.18,4.4,5.19,4.33L5.11,4.31C5.08,4.34,5.09,4.38,5.04,4.4c0-0.06-0.15,0.06-0.22,0.06
			C4.79,4.43,4.78,4.41,4.8,4.37C4.65,4.38,4.57,4.29,4.43,4.3c0.1-0.01,0.09-0.09,0.1-0.16C4.6,4.18,4.68,4.1,4.73,4.04
			C4.69,4.02,4.59,4.09,4.57,4.13C4.56,4.05,4.48,4.15,4.5,4.05c0-0.06,0.1-0.07,0.12-0.11C4.56,3.89,4.5,4.03,4.46,3.95
			c0.01-0.01,0.02-0.01,0.03-0.03C4.48,3.88,4.41,3.88,4.36,3.92c0.08-0.14-0.11-0.08,0.01-0.18c-0.1-0.05-0.05,0.07-0.1,0.09
			c-0.08,0.02-0.1-0.08-0.1-0.12c0.02,0.02,0.07,0,0.07,0.04l0.06-0.09C4.25,3.51,4.07,3.77,4.04,3.61
			c0.09,0.01,0.07-0.04,0.15-0.07c-0.03,0-0.08-0.09-0.1,0.01C4.06,3.52,4.05,3.48,4.04,3.44c-0.06,0-0.11-0.01-0.18,0.02
			C3.82,3.4,3.84,3.31,3.85,3.26C3.69,3.21,3.69,3.03,3.53,2.98l0,0.01c-0.07-0.1-0.06,0.13-0.14,0.05c0.1-0.08,0.01-0.11,0.03-0.19
			C3.36,2.7,3.17,2.73,3.13,2.57C3.15,2.55,3.18,2.54,3.2,2.55c-0.05-0.1-0.12-0.14-0.19-0.22l0.01-0.01C3,2.15,2.81,2.14,2.68,2.05
			c0.02,0,0.06-0.03,0.08-0.04C2.72,1.94,2.64,1.84,2.52,1.88c0.02-0.15-0.07-0.02-0.07-0.19c0.01-0.02,0.02-0.01,0.03,0
			C2.47,1.61,2.43,1.59,2.4,1.54C2.25,1.5,2.11,1.6,2.04,1.45c0.12-0.13,0.1,0.04,0.2-0.06c-0.04,0-0.09,0.01-0.09-0.05
			c0.07-0.03,0.03-0.03,0.09-0.06c0.01-0.06-0.22,0.04-0.21,0.02C2,1.33,2,1.35,2.02,1.37c-0.1,0.05-0.11-0.1-0.2-0.12
			c0.02,0.02,0.04,0.1-0.03,0.13c-0.04-0.1-0.19,0-0.28,0C1.5,1.26,1.66,1.32,1.73,1.22C1.75,1.18,1.8,1.09,1.86,1.08
			C1.82,1,1.7,1.04,1.63,1l0.03-0.02C1.57,0.92,1.39,0.95,1.38,0.84l0,0.06c-0.03,0-0.06-0.04-0.13-0.01
			C1.3,0.85,1.29,0.76,1.34,0.75c-0.16,0.1-0.24-0.09-0.4,0c0.01-0.05,0.08-0.09,0.12-0.11c0.03,0.06,0.02,0.1,0.1,0.07
			c-0.04-0.04-0.03-0.1,0-0.12C1.04,0.63,0.91,0.57,0.81,0.63C0.83,0.56,0.82,0.51,0.9,0.45C0.74,0.38,0.75,0.72,0.62,0.58
			c0-0.13,0.15-0.03,0.09-0.13l0.03,0C0.84,0.22,0.56,0.54,0.5,0.46c0.08-0.1,0.11-0.02,0.13-0.13C0.55,0.29,0.38,0.4,0.35,0.31
			L0.4,0.28C0.35,0.25,0.3,0.15,0.25,0.12C0.26,0.1,0.27,0.11,0.28,0.11C0.24,0,0.2,0.13,0.21,0L0.14,0.03
			c0,0.06,0.01,0.17,0.1,0.15C0.15,0.2,0.19,0.36,0.09,0.42L0.13,0.4C0.09,0.63,0.2,0.78,0.28,0.96c0.18-0.02,0.1,0.17,0.25,0.19
			c0.12-0.1,0.04-0.01,0.13,0.05C0.61,1.17,0.57,1.28,0.58,1.32c0.04-0.01,0.07-0.01,0.1,0C0.66,1.37,0.66,1.55,0.77,1.51
			c0.01,0.08-0.05,0.02-0.08,0.04C0.65,1.62,0.77,1.54,0.75,1.59c0,0-0.01,0.01-0.02,0.01C0.8,1.67,0.81,1.74,0.87,1.82
			c0.11-0.1,0.11,0.03,0.18,0.02c-0.05,0.02,0,0.08,0,0.12l0.12-0.04c0.11-0.03,0,0.1,0.09,0.11l0.01-0.03
			c0.07,0,0.1,0.16,0.07,0.26c0.54,0.12,0.39,0.63,0.8,0.92c0.06-0.01,0.04-0.07,0.1-0.1C2.29,3.1,2.29,3.12,2.33,3.15
			c0-0.06-0.03-0.02,0-0.04L2.25,3.08c0.01-0.01,0.01-0.01,0.02-0.03c-0.03-0.01-0.07,0-0.08-0.03c0.06,0,0.15-0.07,0.16,0
			c-0.01,0.01-0.02,0.01-0.04,0c0.03,0.04,0.07,0,0.07,0.05c0.01,0.05,0.03,0.02,0,0.06l0.06,0.14c0.14-0.05,0.11,0.1,0.12,0.13
			c-0.08,0.06-0.09-0.04-0.18,0L2.36,3.5l0.06-0.05l0.03,0.07L2.44,3.52c0.03-0.02,0.06-0.03,0.05,0C2.48,3.53,2.47,3.55,2.47,3.55
			l0.07,0C2.45,3.59,2.55,3.6,2.47,3.66c0.08,0.15,0.24,0.06,0.25,0.25c0.02-0.05,0.14-0.07,0.16-0.03c0,0.04-0.01,0.06-0.05,0.07
			l0.08,0.01C2.86,4.12,2.98,4.1,3.02,4.22L2.99,4.24c0.06-0.01,0.12,0,0.15,0.05L3.07,4.34c0.01,0.09,0.17-0.09,0.18,0.01
			c0.06-0.06,0.06-0.13,0.12-0.2c-0.05,0.08,0,0.15,0.03,0.09C3.49,4.27,3.44,4.28,3.43,4.3L3.51,4.3c0.04,0.04-0.07,0.1-0.12,0.12
			c0.11-0.03,0.1,0.06,0.13,0.11L3.47,4.54l0.04,0.07C3.6,4.59,3.65,4.64,3.67,4.72L3.56,4.77C3.55,4.85,3.6,4.76,3.63,4.75
			c0.09,0.01,0.05,0.08,0.03,0.16C3.83,4.9,3.68,5.21,3.88,5.16z M9.99,10.61l0-0.02C10.03,10.6,10.05,10.59,9.99,10.61z
			 M9.56,10.13c0.09,0.02,0.03,0.04,0.01,0.07c-0.03-0.08-0.09-0.08-0.11-0.16c-0.01,0.02-0.03,0.05-0.04,0.07
			C9.4,10.09,9.4,10.05,9.44,10C9.55,9.94,9.53,10.2,9.56,10.13z M11.01,10.75c-0.01,0-0.02,0.01-0.03,0.01c0,0,0,0,0,0L11.01,10.75
			z M10.66,10.55c0.01-0.02,0.02-0.04,0.02-0.05C10.66,10.52,10.65,10.54,10.66,10.55z M10.22,9.89c0.02-0.05-0.02-0.07-0.05-0.08
			C10.18,9.83,10.19,9.86,10.22,9.89z M6.74,6.48c0.03,0,0.1,0,0.09-0.06C6.79,6.45,6.81,6.37,6.75,6.4c0,0,0,0,0-0.01
			C6.74,6.44,6.73,6.48,6.74,6.48z M4.83,5.15c0.04-0.03,0.09-0.06,0.11-0.09c0,0,0,0,0,0.01c0.01-0.02,0.01-0.03,0.02-0.03
			C4.95,5.01,4.95,4.99,4.93,4.99C4.81,5.1,4.76,5.09,4.83,5.15z"/>
		<path class="st0" d="M5.84,5.22c-0.01,0-0.01-0.01-0.02-0.01C5.82,5.22,5.83,5.22,5.84,5.22z"/>
		<path class="st0" d="M4.93,5c-0.01,0.01,0,0.03,0,0.06C4.94,5.04,4.94,5.02,4.93,5z"/>
		<path class="st0" d="M11.52,12.02l-0.03,0l0,0.07c0.09,0.02,0.14-0.03,0.21-0.07c-0.1,0.01-0.1-0.05-0.18-0.1L11.52,12.02z"/>
		<path class="st0" d="M11.88,11.62c0.01-0.02,0.03-0.07,0.03-0.08l-0.04,0.03L11.88,11.62z"/>
		<path class="st0" d="M11.41,10.82l0.02,0.08C11.47,10.88,11.47,10.77,11.41,10.82z"/>
		<path class="st0" d="M11.03,11.64l0.06-0.01c0.01-0.05-0.03-0.08-0.08-0.05C11.08,11.59,11.01,11.62,11.03,11.64z"/>
		<path class="st0" d="M11.28,10.67c-0.08,0.05-0.02-0.08-0.1-0.03C11.21,10.64,11.21,10.74,11.28,10.67z"/>
		<path class="st0" d="M10.66,11.36c-0.05,0.08,0.04,0.05,0.05,0.1C10.69,11.43,10.72,11.32,10.66,11.36z"/>
		<path class="st0" d="M10.81,10.59c0.05-0.05,0.07-0.02,0.08,0.01c-0.02,0.01-0.05,0.02-0.07,0.02c0.08,0,0.07,0.01,0.13,0.02
			c0-0.07-0.02-0.14,0.04-0.19C10.92,10.48,10.83,10.52,10.81,10.59z"/>
		<path class="st0" d="M10.58,11.29c0.01,0.05-0.02,0.11,0.01,0.14c0.03-0.04,0.07-0.1,0.02-0.13l0.07-0.04
			C10.69,11.17,10.62,11.34,10.58,11.29z"/>
		<path class="st0" d="M10.8,10.31l-0.01,0.04c0.08-0.01,0.11,0.06,0.2,0.01C10.94,10.33,10.85,10.3,10.8,10.31z"/>
		<path class="st0" d="M10.55,11.05l-0.08,0.07c0.03,0.05,0.02-0.03,0.06-0.03c0,0.02,0.01,0.05,0.03,0.04
			C10.5,11.1,10.62,11.06,10.55,11.05z"/>
		<path class="st0" d="M10.34,11.02L10.26,11l-0.05,0.12C10.3,11.15,10.26,11.08,10.34,11.02z"/>
		<path class="st0" d="M10.34,10.9l0.01-0.02l-0.19,0.05C10.25,10.92,10.24,10.93,10.34,10.9z"/>
		<path class="st0" d="M9.98,9.51C9.94,9.54,9.94,9.62,9.96,9.57C9.99,9.55,9.98,9.45,9.98,9.51z"/>
		<path class="st0" d="M9.51,10.32c0.01-0.05-0.11-0.07-0.16-0.07C9.4,10.27,9.47,10.37,9.51,10.32z"/>
		<path class="st0" d="M9.33,10.25c0,0,0.01,0,0.02,0C9.34,10.25,9.34,10.25,9.33,10.25z"/>
		<path class="st0" d="M7.91,9.19c0,0-0.01,0-0.02,0C7.9,9.19,7.91,9.19,7.91,9.19z"/>
		<path class="st0" d="M7.96,9.2c0.01,0.03,0.07,0.05,0.11,0.02C8.03,9.2,7.99,9.18,7.91,9.19C7.93,9.2,7.92,9.24,7.96,9.2z"/>
		<path class="st0" d="M7.7,8.89c0.04-0.01,0.05,0.02,0.07-0.01C7.78,8.86,7.71,8.86,7.7,8.89z"/>
		<path class="st0" d="M6.78,5.98C6.77,5.94,6.74,5.93,6.7,5.99C6.73,6.02,6.74,5.97,6.78,5.98z"/>
		<polygon class="st0" points="6.65,5.97 6.67,5.94 6.69,5.88 		"/>
		<path class="st0" d="M6.54,5.7C6.54,5.7,6.56,5.69,6.57,5.69C6.55,5.69,6.53,5.69,6.54,5.7z"/>
		<path class="st0" d="M6.58,5.7C6.57,5.7,6.57,5.69,6.58,5.7C6.57,5.7,6.57,5.7,6.58,5.7z"/>
		<path class="st0" d="M6.57,5.72L6.6,5.7c-0.01,0-0.02,0-0.03,0C6.58,5.7,6.59,5.71,6.57,5.72z"/>
		<path class="st0" d="M6.49,5.64L6.45,5.75c0.07,0,0-0.08,0.11-0.13L6.49,5.64z"/>
		<path class="st0" d="M6.34,5.54c-0.01-0.06-0.18,0.01-0.11-0.1C6.09,5.39,6.11,5.61,5.96,5.53c0.06,0.15,0.23-0.12,0.27,0.02
			C6.24,5.45,6.3,5.54,6.34,5.54z"/>
		<path class="st0" d="M6.21,5.7c0.05-0.04,0.01-0.09-0.03-0.07C6.18,5.65,6.14,5.73,6.21,5.7z"/>
		<polygon class="st0" points="6.11,5.39 6.12,5.32 6.08,5.34 		"/>
		<path class="st0" d="M6.02,5.25L6.1,5.23C6.07,5.24,6.03,5.19,6.02,5.25z"/>
		<path class="st0" d="M5.92,5.03C5.91,4.99,5.77,5.08,5.85,5.11L5.84,5.1C5.87,5.08,5.88,5.01,5.92,5.03z"/>
		<path class="st0" d="M5.37,4.86c0.02,0.02,0.05,0.03,0.07,0L5.37,4.83L5.37,4.86z"/>
		<path class="st0" d="M5.09,5.16C5.03,5.25,5.14,5.2,5.15,5.26C5.13,5.21,5.14,5.2,5.09,5.16z"/>
		<path class="st0" d="M5.42,4.7c0.04-0.02,0.05,0.02,0.05,0.04C5.51,4.69,5.46,4.67,5.42,4.7z"/>
		<path class="st0" d="M5.31,4.64C5.32,4.59,5.35,4.6,5.36,4.57c0-0.07-0.05-0.1-0.11-0.08C5.23,4.53,5.16,4.62,5.11,4.65
			C5.19,4.68,5.36,4.57,5.28,4.7l0.18-0.08C5.43,4.56,5.33,4.68,5.31,4.64z"/>
		<path class="st0" d="M5.18,5L5.2,4.92C5.16,4.97,5.13,4.96,5.1,4.95C5.01,5.05,5.16,4.99,5.18,5z"/>
		<polygon class="st0" points="4.93,4.38 4.85,4.33 4.86,4.36 		"/>
		<polygon class="st0" points="4.92,4.3 4.95,4.28 4.85,4.27 		"/>
		<polygon class="st0" points="4.89,4.2 4.89,4.22 4.95,4.23 		"/>
		<path class="st0" d="M4.77,4.05L4.74,4.1c0.03,0.01,0.02,0.08,0.07,0.03C4.77,4.13,4.75,4.09,4.77,4.05z"/>
		<path class="st0" d="M3.32,4.6c0.04-0.01,0.05-0.04,0.07-0.07L3.3,4.57C3.31,4.57,3.33,4.58,3.32,4.6z"/>
		<path class="st0" d="M3.35,4.41L3.22,4.44C3.27,4.5,3.33,4.45,3.4,4.49c0-0.04-0.08-0.02-0.09-0.07L3.35,4.41z"/>
		<path class="st0" d="M2.43,3.38c0.05-0.04,0.04-0.05,0.1-0.04C2.46,3.32,2.43,3.26,2.36,3.21C2.34,3.25,2.25,3.26,2.28,3.27
			l0.09,0.03L2.33,3.33C2.34,3.41,2.41,3.3,2.43,3.38z"/>
		<path class="st0" d="M0.42,0.32C0.45,0.3,0.46,0.27,0.47,0.24C0.41,0.23,0.43,0.32,0.42,0.32z"/>
	</g>
	<g>
		<path class="st0" d="M12.29,0.13c-0.04-0.08-0.03-0.01-0.04,0.02L12.29,0.13z"/>
		<path class="st0" d="M12.25,0.14l-0.03,0.01C12.23,0.16,12.24,0.15,12.25,0.14z"/>
		<path class="st0" d="M12.02,0.28c-0.01-0.09,0.11-0.08,0.06-0.18C11.99,0.1,11.94,0.19,12.02,0.28z"/>
		<polygon class="st0" points="12.13,0.27 12.09,0.22 12.12,0.32 		"/>
		<polygon class="st0" points="12.19,0.28 12.17,0.27 12.16,0.37 		"/>
		<path class="st0" d="M11.84,0.4l0.03-0.05c0.1,0.02,0.05,0.1,0.11,0.11c0.05-0.05-0.1-0.14-0.01-0.18
			c-0.06-0.05-0.11,0.11-0.18,0.01C11.71,0.32,11.84,0.34,11.84,0.4z"/>
		<path class="st0" d="M9.71,3.44c-0.01,0-0.01,0-0.01,0C9.71,3.44,9.71,3.44,9.71,3.44z"/>
		<path class="st0" d="M9.06,4.2c-0.02,0-0.03,0.01-0.05,0.01c0.01,0.01,0.02,0.01,0.03,0.01L9.06,4.2z"/>
		<path class="st0" d="M9.99,2.83c0.02,0,0.04,0,0.05-0.01C10.03,2.82,10.01,2.82,9.99,2.83z"/>
		<path class="st0" d="M5.19,7.04c0-0.01-0.01-0.02-0.02-0.03c0,0,0,0,0,0L5.19,7.04L5.19,7.04z"/>
		<path class="st0" d="M8.4,5.12C8.39,5.14,8.38,5.15,8.37,5.16C8.39,5.15,8.4,5.14,8.4,5.12z"/>
		<path class="st0" d="M10.24,2.57c0,0-0.01,0.01-0.01,0.01c0.01,0,0.01,0,0.02,0L10.24,2.57C10.24,2.57,10.24,2.57,10.24,2.57z"/>
		<path class="st0" d="M9.4,4.08c-0.02,0-0.03,0.01-0.04,0.02C9.38,4.1,9.39,4.09,9.4,4.08z"/>
		<path class="st0" d="M11.09,0.96c-0.02,0-0.02,0.02-0.02,0.04C11.09,1.01,11.1,1,11.09,0.96z"/>
		<path class="st0" d="M10.85,1.22C10.85,1.22,10.85,1.22,10.85,1.22C10.84,1.21,10.84,1.22,10.85,1.22z"/>
		<path class="st0" d="M10.68,1.38C10.68,1.38,10.68,1.38,10.68,1.38C10.67,1.37,10.67,1.37,10.68,1.38z"/>
		<path class="st0" d="M11.07,1c-0.05-0.01-0.17-0.11-0.08,0.03l0.02,0.01c-0.04-0.01-0.02,0.06-0.04,0.08
			c0.01,0.01,0.02,0.02,0.04,0.02c0.01-0.01,0.03-0.02,0.05-0.03C11.11,1.12,11.07,1.05,11.07,1z"/>
		<path class="st0" d="M9.69,3.41C9.71,3.43,9.72,3.4,9.69,3.41L9.69,3.41z"/>
		<path class="st0" d="M9.82,3.11C9.81,3.11,9.8,3.12,9.8,3.12C9.81,3.12,9.82,3.12,9.82,3.11z"/>
		<path class="st0" d="M10.67,2.31C10.67,2.31,10.67,2.31,10.67,2.31C10.68,2.33,10.68,2.32,10.67,2.31z"/>
		<path class="st0" d="M9.77,3.14C9.78,3.14,9.79,3.13,9.8,3.12C9.79,3.13,9.78,3.13,9.77,3.14z"/>
		<path class="st0" d="M10.36,2.5C10.36,2.5,10.36,2.5,10.36,2.5C10.36,2.5,10.36,2.5,10.36,2.5z"/>
		<path class="st0" d="M1.43,10.05c0.01-0.03,0.05-0.01,0.07-0.01c-0.04-0.11-0.07,0.07-0.09-0.05c-0.02,0.02-0.02,0.04-0.02,0.06
			l0.09,0.05C1.49,10.04,1.44,10.1,1.43,10.05z"/>
		<path class="st0" d="M4.83,7.1l0.01,0C4.8,7.07,4.8,7.05,4.75,7.06c0.03,0.07,0.14,0.11,0.15,0.21c0-0.01,0.02-0.02,0.03-0.03
			C4.88,7.22,4.85,7.15,4.83,7.1z"/>
		<path class="st0" d="M4.94,7.24C4.94,7.25,4.94,7.25,4.94,7.24c0.01,0.01,0.02,0.01,0.03,0.01C4.98,7.25,4.99,7.25,5,7.25
			C4.98,7.24,4.96,7.24,4.94,7.24z"/>
		<path class="st0" d="M2.01,9.53c0.01,0,0.02-0.01,0.03-0.01C2.02,9.52,2.01,9.52,2.01,9.53z"/>
		<path class="st0" d="M7.52,4.15c0-0.02,0-0.03,0-0.04C7.51,4.12,7.52,4.13,7.52,4.15z"/>
		<path class="st0" d="M5.29,6.78c0.01,0,0.02,0,0.03-0.01c0-0.01,0-0.01,0.01-0.02L5.29,6.78z"/>
		<path class="st0" d="M4.69,8.78c-0.07-0.1,0,0.02-0.08,0l0.02,0.07C4.66,8.83,4.67,8.8,4.69,8.78z"/>
		<polygon class="st0" points="1.39,10.05 1.39,10.05 1.39,10.05 		"/>
		<path class="st0" d="M3.94,9.56c-0.01,0-0.02,0-0.02,0C3.92,9.56,3.93,9.56,3.94,9.56z"/>
		<path class="st0" d="M5.13,7.13l0.1-0.09L5.19,7.04C5.21,7.1,5.09,7.06,5.13,7.13z"/>
		<path class="st0" d="M5.16,8.41l0.06,0.04C5.21,8.24,5.47,8.28,5.4,8.06c0.3,0.06-0.08-0.24,0.19-0.19L5.56,7.85
			c0.39-0.33,0.86-0.62,1.11-1.04l0.03,0.04c0.6-0.48,1.06-1.08,1.62-1.59c0.02-0.08-0.09-0.13-0.09-0.21
			c0.02-0.02,0.06-0.06,0.1-0.02C8.33,5.08,8.39,5.09,8.4,5.12c0.06-0.06,0.18-0.09,0.18-0.2l-0.1-0.01c0-0.04,0.05-0.06,0.07-0.08
			c0.02,0.04,0.11,0.07,0.11,0.1C8.63,4.68,8.8,4.91,8.84,4.76C8.74,4.62,8.77,4.4,8.76,4.24l0.07-0.01
			C8.78,4.28,8.92,4.31,8.85,4.38c0.09-0.02,0.09-0.13,0.17-0.16c-0.04-0.02-0.08-0.06-0.07-0.1C8.99,4.1,9.06,4.16,9.1,4.13l0,0.07
			c0.07,0.02,0.03-0.06,0.05-0.09C9.21,4.15,9.27,4.1,9.32,4.17c-0.02-0.12,0.04-0.1,0.05-0.2c-0.11,0-0.05-0.08-0.1-0.11L9.23,3.94
			C9.35,3.88,9.21,3.98,9.3,4.06c-0.08,0-0.08-0.2-0.14-0.11c0.04-0.13,0.1-0.11,0.12-0.27c-0.04,0.07-0.05-0.07-0.1-0.06
			C9.24,3.55,9.22,3.63,9.3,3.66c0.03-0.04,0.1,0,0.07-0.1c0.08-0.03,0.05,0.07,0.12,0.08C9.52,3.72,9.24,3.73,9.45,3.9
			c-0.03,0.03,0,0.14-0.04,0.18c0.06-0.01,0.18-0.01,0.18-0.1l-0.1-0.11c0.03-0.04-0.03-0.12,0.01-0.13
			C9.51,3.79,9.58,3.81,9.6,3.77C9.57,3.76,9.57,3.78,9.55,3.76C9.6,3.69,9.53,3.61,9.58,3.53C9.5,3.56,9.46,3.54,9.36,3.54
			C9.3,3.45,9.38,3.49,9.4,3.46c0.01,0.01,0,0.02,0.02,0.03l0-0.07c0.1-0.03,0.1,0.11,0.19,0.1c0.1,0.02,0.02-0.09,0.08-0.08
			c-0.01,0-0.02-0.01-0.02-0.01c0.01-0.01,0.01-0.01,0.02-0.01c0,0,0,0-0.01,0c0.02-0.05,0.07-0.08,0.02-0.14
			C9.74,3.29,9.73,3.23,9.73,3.2c0-0.04-0.02-0.15,0.1-0.09c0,0,0,0,0,0c0.05-0.03,0.12-0.04,0.14,0l0.09-0.05l0.06,0.08
			c0.05-0.08,0-0.12-0.03-0.24c0.09,0,0.13-0.12,0.14-0.18c0.01,0,0.02-0.01,0.02-0.03l-0.05,0c0.05-0.05,0.01-0.08,0.04-0.11
			c-0.01,0-0.02,0,0.01-0.01c0.01,0,0.01-0.01,0.02-0.01c0.01,0.01,0,0.02-0.01,0.02l0.03,0.02c0.12,0.04,0.02-0.1,0.09-0.12
			c0,0.01,0,0.02-0.01,0.02c0.04,0,0.18,0.06,0.13-0.01c0.01,0,0.01-0.02,0-0.04l0.03-0.01c-0.01,0-0.02,0.01-0.03,0.01
			c-0.01-0.03-0.02-0.07-0.01-0.05l0.07-0.05c0.02,0,0.03-0.03,0.03-0.05l0.04,0.02c0.02-0.03,0.04-0.01,0.04,0
			c0.18,0.02,0.07-0.17,0.24-0.17c-0.03-0.07-0.09-0.05-0.12-0.08c-0.02-0.05-0.01-0.13-0.01-0.18c0.11,0.03,0.28-0.02,0.36,0.09
			c0.08-0.06-0.08-0.04-0.08-0.11l0.01,0c-0.04,0.01-0.09,0-0.14-0.03c-0.06-0.05-0.01-0.12,0.02-0.13l0.06,0.09
			c0.04-0.09-0.09-0.19-0.13-0.31c0.08-0.02,0.12,0.08,0.2,0.13l0.03-0.07l0.06,0.06c0.02-0.05-0.03-0.11,0.05-0.14
			c0.02,0.09,0.13-0.02,0.15,0.1c0.05-0.01-0.06-0.13,0.03-0.06c-0.04-0.08-0.05-0.01-0.09-0.01c-0.1-0.08,0.02-0.1,0.03-0.16
			c0.05,0.04,0.03,0.07,0.1,0.07c-0.03-0.04-0.03-0.09,0.03-0.07c-0.06-0.06,0.03-0.05,0.06-0.07c-0.04,0.01-0.11,0.01-0.15-0.06
			c0-0.04,0-0.07,0.05-0.1l-0.06,0c-0.05-0.12,0.12,0,0.15-0.08c0.01,0.06,0,0.07,0.02,0.13c0-0.05,0-0.14,0.01-0.2l0.13,0.04
			c-0.04-0.05,0.05-0.04,0-0.1c0.09-0.02,0.03,0.11,0.06,0.16c0.1-0.03-0.04-0.15,0.11-0.13L11.9,1c0.03-0.02,0.04-0.09,0.07-0.07
			c-0.02-0.02-0.02,0-0.04,0.01c-0.1-0.13,0.02-0.18-0.11-0.29l-0.04,0.02c0.02-0.07-0.02-0.18,0.05-0.17
			c0.06,0.01,0.06,0.1,0.08,0.14c0.05-0.04-0.09-0.16-0.03-0.2c-0.05,0.01-0.08-0.04-0.1-0.09c-0.04,0.02-0.12,0.06-0.06,0.1l0.02,0
			c0.03,0.03,0.02,0.06,0.03,0.08c-0.04,0.04-0.07-0.03-0.1-0.05c-0.09,0.05,0.11,0.12,0.05,0.18l-0.03-0.01
			c0,0.06-0.04,0.11,0.02,0.19c-0.1-0.05-0.04,0.1-0.11,0.08c-0.17-0.16,0.12-0.09,0.06-0.22c-0.07,0-0.06-0.1-0.09-0.15l-0.03,0.17
			c-0.03-0.01-0.14-0.07-0.1,0.01l0.01,0c-0.02,0.06,0.06,0.12,0,0.13c-0.02-0.01-0.04-0.05-0.05-0.06c-0.05,0.02,0.01,0.06,0,0.1
			c-0.05,0.02-0.05-0.08-0.1-0.08c0.03,0.1-0.07,0.04-0.1,0.08c0.11,0.08,0,0.26,0.15,0.27l-0.01,0.14
			c-0.07-0.03-0.08-0.19-0.18-0.24l0.07-0.06c-0.13-0.11-0.05,0.21-0.22,0.12C10.97,1.17,11,1.18,10.88,1.19l0.12,0.09
			c-0.06,0.01-0.12-0.04-0.15-0.06c-0.01,0.03-0.03,0.04-0.05,0.05c-0.01-0.02-0.02-0.04-0.01-0.06c-0.08-0.03-0.07-0.01-0.05,0.03
			c0.01,0.04-0.01,0.06-0.03,0.08l-0.02-0.06c0,0.02-0.01,0.05,0.01,0.07c-0.01,0.01-0.01,0.02-0.01,0.03
			c0.02,0.01,0.1,0.06,0.15,0.06c-0.12,0.03-0.15,0.12-0.3,0.09c-0.03-0.03-0.04-0.1-0.05-0.09c-0.05,0.02-0.03,0.1,0.02,0.15
			c0,0.01-0.01,0.02-0.01,0.02c-0.03-0.02-0.07-0.04-0.09-0.03c-0.01-0.01-0.03-0.01-0.04,0c0.07,0.09-0.03,0.11-0.01,0.17
			c0.02-0.01,0.04-0.02,0.06-0.05c0.03,0.08,0.07,0.17,0.01,0.14c-0.01-0.1-0.14-0.04-0.09-0.13c-0.16-0.06,0.05,0.1-0.04,0.12
			L10.2,1.82c-0.06-0.07,0.03-0.09-0.01-0.1l-0.02,0.03c-0.02-0.07,0.1-0.13,0.09-0.26l-0.15,0.08c-0.07,0.21-0.33,0.31-0.32,0.56
			c0,0,0,0,0-0.01c0,0.01,0.01,0.02,0.04,0.05L9.82,2.16l0.02,0.07C9.76,2.2,9.7,2.24,9.61,2.24c0.06,0.01,0.06,0.01,0.11,0.05
			C9.78,2.36,9.8,2.39,9.74,2.4C9.7,2.36,9.72,2.34,9.66,2.33C9.69,2.34,9.71,2.38,9.7,2.41C9.65,2.4,9.6,2.43,9.56,2.39
			c0-0.02,0.02-0.02,0.04-0.02c0-0.02-0.08,0-0.09-0.06L9.48,2.36C9.42,2.35,9.44,2.29,9.41,2.28C9.37,2.37,9.43,2.51,9.4,2.6
			C9.38,2.57,9.29,2.48,9.31,2.51c-0.08,0.02,0,0.21-0.04,0.27C9.25,2.74,9.28,2.73,9.28,2.7C9.08,2.83,8.95,2.96,8.7,3.02
			l0.06,0.14L8.65,3.14c-0.23,0.1-0.29,0.29-0.41,0.47C8.2,3.66,8.14,3.57,8.09,3.56C7.97,3.66,8.06,3.8,7.98,3.92
			C7.96,3.88,7.9,3.77,7.85,3.81c0.02,0.04,0.06,0.09,0.02,0.1L7.85,3.86C7.78,3.84,7.8,3.9,7.73,3.94
			C7.64,4.03,7.62,4.19,7.66,4.37c-0.09,0.07-0.1-0.12-0.14-0.12c0.09-0.02,0.02-0.06,0-0.1c0,0.06-0.02,0.11-0.11,0.06
			C7.38,4.25,7.36,4.27,7.36,4.36c0-0.04,0.05-0.02,0.07,0.03c-0.06,0.01-0.12,0.12-0.2,0.03C7.04,4.63,6.8,4.84,6.59,5.05
			C6.6,5.14,6.63,5.05,6.65,5.1c0.01,0.11-0.07,0.01-0.07,0.1L6.55,5.13C6.48,5.19,6.5,5.34,6.49,5.45c-0.04-0.06-0.1,0-0.08-0.08
			c-0.02,0.04-0.3-0.17-0.27-0.1l0.26,0.2c0.02,0.02-0.03,0.05-0.02,0.06C6.31,5.51,6.23,5.49,6.21,5.51
			C6.14,5.46,6.2,5.42,6.22,5.4c-0.09-0.1-0.14,0.02-0.2-0.1C5.99,5.37,6.08,5.34,6.09,5.41L6.02,5.43l0.07,0
			C6.08,5.5,6.14,5.58,6.04,5.58l0.04,0.15c-0.08-0.07-0.05,0.02-0.1,0.03L5.95,5.7C5.91,5.74,5.89,5.74,5.84,5.73
			C5.79,5.64,5.88,5.71,5.83,5.64L5.77,5.66c0.04,0.04,0.05,0.1,0.11,0.1c0.04,0.12,0.09,0.2-0.01,0.29
			C5.75,6.02,5.84,5.94,5.75,5.88C5.63,5.95,5.83,6.19,5.76,6.24c-0.1,0.04-0.03,0.11-0.1,0.18c-0.03-0.07-0.1,0-0.17-0.04
			L5.48,6.31c-0.01,0.04-0.05,0.04-0.08,0c0.07,0.06-0.03,0.16-0.05,0.24l0.07,0.05C5.4,6.65,5.38,6.74,5.32,6.77
			C5.28,6.85,5.34,6.89,5.36,7C5.28,6.97,5.22,6.91,5.17,6.83c0.05,0.01,0.06-0.03,0.1-0.04C5.3,6.66,5.24,6.48,5.34,6.43
			C5.24,6.26,5.31,6.5,5.22,6.49C5.21,6.48,5.21,6.47,5.21,6.47c0,0-0.01,0.01-0.01,0.01c0.01-0.05,0.03-0.11-0.03-0.19
			C5.14,6.34,5.28,6.46,5.16,6.45c0,0.08-0.15,0.01-0.19,0.02C5,6.56,5.11,6.67,5.01,6.72L4.97,6.61c-0.08,0.08,0.08,0.15,0,0.22
			C5,6.82,5.02,6.94,5.07,6.89c0.02,0.07-0.03,0.13-0.09,0.15c0,0.02,0.02,0.03,0.05,0.06c0.1,0.01,0.02-0.12,0.13-0.08L5.11,6.9
			c0.07-0.01,0.14,0.05,0.15,0.11c0.01-0.02,0.01-0.04,0.03-0.03c0.13,0.12-0.1,0,0,0.13l0.02-0.04c0.1,0.07,0,0.14-0.04,0.17
			c-0.08,0-0.13,0.03-0.2-0.03L5.1,7.13c-0.08-0.02-0.04,0.1-0.08,0.13C5.01,7.25,5,7.25,5,7.25c0.01,0,0.01,0.01,0.02,0.01
			c-0.01,0-0.02,0-0.04-0.01C4.94,7.29,4.93,7.37,4.89,7.37l0.06,0.05L4.92,7.39c0.03-0.02,0.1-0.03,0.12,0.03
			C5.01,7.52,4.9,7.43,4.83,7.4C4.77,7.3,4.89,7.34,4.9,7.28C4.8,7.22,4.83,7.33,4.71,7.34C4.65,7.23,4.78,7.27,4.72,7.17
			C4.65,7.21,4.7,7.29,4.62,7.32c-0.03-0.05,0.01-0.1-0.04-0.15L4.52,7.17C4.6,7.08,4.4,7.07,4.44,6.99
			C4.37,6.98,4.47,7.1,4.37,7.09c0.05,0.03,0.16,0.06,0.15,0.14L4.45,7.25C4.38,7.23,4.4,7.11,4.33,7.1L4.31,7.18
			C4.34,7.2,4.38,7.19,4.4,7.25c-0.06,0,0.06,0.15,0.06,0.22c-0.03,0.02-0.06,0.04-0.1,0.02C4.38,7.63,4.29,7.72,4.3,7.85
			c-0.01-0.1-0.09-0.09-0.16-0.1c0.04-0.06-0.05-0.14-0.1-0.19C4.02,7.59,4.09,7.7,4.13,7.71C4.05,7.73,4.15,7.8,4.05,7.79
			C4,7.79,3.99,7.7,3.94,7.67C3.89,7.72,4.03,7.79,3.95,7.83C3.95,7.81,3.95,7.81,3.93,7.79C3.88,7.81,3.88,7.88,3.92,7.93
			C3.78,7.85,3.84,8.04,3.74,7.92c-0.05,0.1,0.07,0.05,0.09,0.1c0.02,0.08-0.08,0.1-0.12,0.1c0.02-0.02,0-0.07,0.04-0.07L3.66,7.99
			C3.51,8.04,3.77,8.22,3.61,8.25C3.62,8.16,3.57,8.18,3.54,8.1c0,0.03-0.09,0.08,0.01,0.1C3.52,8.23,3.48,8.24,3.44,8.25
			c0,0.06-0.01,0.11,0.02,0.18C3.4,8.47,3.31,8.45,3.26,8.44C3.21,8.59,3.03,8.6,2.98,8.76l0.01,0C2.89,8.83,3.12,8.82,3.03,8.9
			C2.96,8.8,2.92,8.89,2.85,8.87C2.7,8.93,2.73,9.12,2.57,9.16C2.55,9.14,2.54,9.11,2.55,9.09c-0.1,0.05-0.14,0.12-0.22,0.19
			L2.33,9.26C2.15,9.29,2.14,9.48,2.05,9.61c0-0.02-0.03-0.06-0.04-0.08C1.94,9.57,1.83,9.65,1.88,9.77
			C1.72,9.74,1.86,9.84,1.69,9.84c-0.02-0.01-0.01-0.02,0-0.03C1.61,9.82,1.59,9.86,1.54,9.89c-0.04,0.15,0.06,0.29-0.09,0.36
			c-0.13-0.12,0.04-0.1-0.06-0.2c0,0.04,0.01,0.09-0.05,0.09c-0.03-0.07-0.03-0.03-0.06-0.09c-0.06-0.01,0.04,0.22,0.02,0.21
			c0.02,0.02,0.04,0.03,0.06,0.01c0.05,0.1-0.1,0.11-0.12,0.2c0.02-0.02,0.1-0.04,0.13,0.03c-0.1,0.04,0,0.19,0,0.28
			c-0.12,0.01-0.05-0.15-0.15-0.22c-0.04-0.02-0.14-0.06-0.14-0.12C1,10.47,1.04,10.59,1,10.66l-0.02-0.03
			c-0.06,0.08-0.03,0.27-0.14,0.28l0.06,0c0,0.03-0.04,0.06-0.01,0.13C0.85,10.99,0.76,11,0.75,10.95c0.1,0.16-0.09,0.24,0,0.4
			c-0.05-0.01-0.09-0.08-0.11-0.12c0.06-0.03,0.1-0.02,0.07-0.1c-0.04,0.04-0.1,0.03-0.12,0c0.04,0.12-0.02,0.24,0.04,0.34
			c-0.07-0.01-0.12-0.01-0.17-0.08c-0.08,0.16,0.26,0.15,0.13,0.28c-0.13,0-0.03-0.15-0.13-0.09l0-0.03
			c-0.23-0.11,0.08,0.17,0.01,0.23c-0.1-0.08-0.02-0.11-0.13-0.13c-0.04,0.09,0.07,0.25-0.02,0.28l-0.03-0.05
			c-0.03,0.05-0.13,0.11-0.16,0.15c-0.02-0.02-0.01-0.02-0.01-0.03C0,12.04,0.13,12.09,0,12.08l0.03,0.06c0.06,0,0.17-0.01,0.15-0.1
			c0.02,0.09,0.18,0.06,0.24,0.16L0.4,12.16c0.24,0.04,0.38-0.07,0.56-0.15c-0.02-0.18,0.17-0.1,0.19-0.25
			c-0.1-0.12-0.01-0.04,0.05-0.13c-0.03,0.05,0.08,0.09,0.12,0.08c-0.01-0.04-0.01-0.07,0-0.1c0.05,0.02,0.23,0.02,0.19-0.09
			c0.08-0.01,0.02,0.05,0.04,0.08c0.07,0.04-0.01-0.08,0.05-0.06c0,0,0.01,0.01,0.01,0.02c0.06-0.07,0.13-0.09,0.22-0.14
			c-0.1-0.11,0.03-0.11,0.02-0.18c0.02,0.05,0.08,0,0.12,0l-0.04-0.12c-0.03-0.11,0.1,0,0.11-0.09l-0.03-0.01
			c0-0.07,0.16-0.1,0.26-0.07c0.12-0.54,0.63-0.39,0.92-0.8c-0.01-0.06-0.07-0.04-0.1-0.1C3.1,10,3.12,9.99,3.15,9.96
			c-0.06,0-0.02,0.03-0.04,0l-0.02,0.08c-0.01-0.01-0.01-0.01-0.03-0.02c-0.01,0.03,0,0.07-0.03,0.08c0-0.06-0.07-0.15,0-0.16
			c0.01,0.01,0.01,0.02,0,0.04c0.04-0.03,0-0.07,0.05-0.07c0.05-0.01,0.02-0.03,0.06,0l0.14-0.06c-0.05-0.14,0.1-0.11,0.13-0.12
			c0.06,0.08-0.04,0.09,0,0.18L3.5,9.93L3.44,9.87l0.07-0.03l0.01,0.01c-0.02-0.03-0.03-0.06,0-0.05C3.53,9.8,3.55,9.81,3.55,9.82
			l0-0.07C3.59,9.83,3.6,9.74,3.66,9.81c0.15-0.08,0.06-0.24,0.25-0.25C3.87,9.55,3.84,9.42,3.89,9.4c0.04,0,0.06,0.01,0.07,0.05
			l0.01-0.08C4.12,9.43,4.1,9.31,4.22,9.27L4.24,9.3c-0.01-0.06,0-0.12,0.05-0.15l0.05,0.07c0.09-0.01-0.09-0.17,0.01-0.18
			c-0.06-0.06-0.13-0.06-0.2-0.12c0.08,0.05,0.15,0,0.09-0.03C4.27,8.8,4.28,8.84,4.3,8.85L4.3,8.78c0.04-0.04,0.1,0.07,0.12,0.12
			C4.39,8.8,4.47,8.81,4.53,8.77l0.01,0.05l0.07-0.04C4.59,8.69,4.64,8.63,4.72,8.61l0.05,0.12c0.08,0.01-0.01-0.05-0.02-0.07
			c0.01-0.09,0.08-0.05,0.16-0.03C4.9,8.46,5.21,8.61,5.16,8.41z M10.61,2.29l-0.02,0C10.6,2.26,10.59,2.23,10.61,2.29z M10.13,2.73
			c0.02-0.09,0.04-0.03,0.07-0.01c-0.08,0.03-0.08,0.09-0.16,0.11c0.02,0.01,0.05,0.03,0.07,0.04C10.09,2.88,10.05,2.89,10,2.85
			C9.94,2.74,10.2,2.76,10.13,2.73z M10.75,1.27c0,0.01,0.01,0.02,0.01,0.03c0,0,0,0,0,0L10.75,1.27z M10.55,1.62
			c-0.02-0.01-0.04-0.02-0.05-0.02C10.52,1.62,10.54,1.64,10.55,1.62z M9.89,2.06C9.85,2.04,9.83,2.08,9.82,2.11
			C9.83,2.1,9.86,2.1,9.89,2.06z M6.48,5.55c0-0.03,0-0.1-0.06-0.09C6.45,5.5,6.37,5.48,6.4,5.53c0,0,0,0-0.01,0
			C6.44,5.54,6.48,5.55,6.48,5.55z M5.15,7.46C5.12,7.42,5.09,7.37,5.06,7.36c0,0,0,0,0.01,0C5.05,7.35,5.04,7.34,5.03,7.33
			C5.01,7.33,4.99,7.34,4.99,7.36C5.1,7.48,5.09,7.52,5.15,7.46z"/>
		<path class="st0" d="M5.22,6.45c0,0.01-0.01,0.01-0.01,0.02C5.22,6.47,5.22,6.46,5.22,6.45z"/>
		<path class="st0" d="M5,7.36c0.01,0.01,0.03,0,0.06,0C5.04,7.35,5.02,7.34,5,7.36z"/>
		<path class="st0" d="M12.02,0.76l0,0.03l0.07,0c0.02-0.09-0.03-0.14-0.07-0.21c0.01,0.1-0.05,0.1-0.1,0.18L12.02,0.76z"/>
		<path class="st0" d="M11.62,0.41c-0.02-0.01-0.07-0.03-0.08-0.03l0.03,0.04L11.62,0.41z"/>
		<path class="st0" d="M10.82,0.88l0.08-0.02C10.88,0.81,10.77,0.82,10.82,0.88z"/>
		<path class="st0" d="M11.64,1.25l-0.01-0.06c-0.05-0.01-0.08,0.03-0.05,0.08C11.59,1.21,11.62,1.28,11.64,1.25z"/>
		<path class="st0" d="M10.67,1.01c0.05,0.08-0.08,0.02-0.03,0.1C10.64,1.07,10.74,1.08,10.67,1.01z"/>
		<path class="st0" d="M11.36,1.62c0.08,0.05,0.05-0.04,0.1-0.05C11.43,1.6,11.32,1.57,11.36,1.62z"/>
		<path class="st0" d="M10.59,1.48c-0.05-0.05-0.02-0.07,0.01-0.08c0.01,0.02,0.02,0.05,0.02,0.07c0-0.08,0.01-0.07,0.02-0.13
			c-0.07,0-0.14,0.02-0.19-0.04C10.48,1.36,10.52,1.46,10.59,1.48z"/>
		<path class="st0" d="M11.29,1.71c0.05-0.01,0.11,0.02,0.14-0.01c-0.04-0.03-0.1-0.07-0.13-0.02L11.25,1.6
			C11.17,1.6,11.34,1.66,11.29,1.71z"/>
		<path class="st0" d="M10.31,1.49l0.04,0.01c-0.01-0.08,0.06-0.11,0.01-0.2C10.33,1.35,10.3,1.44,10.31,1.49z"/>
		<path class="st0" d="M11.05,1.73l0.07,0.08c0.05-0.03-0.03-0.02-0.03-0.06c0.02,0,0.05-0.01,0.04-0.03
			C11.1,1.79,11.06,1.67,11.05,1.73z"/>
		<path class="st0" d="M11.02,1.95L11,2.03l0.12,0.05C11.15,1.99,11.08,2.03,11.02,1.95z"/>
		<path class="st0" d="M10.9,1.95l-0.02-0.01l0.05,0.19C10.92,2.04,10.93,2.04,10.9,1.95z"/>
		<path class="st0" d="M9.51,2.31c0.03,0.04,0.11,0.04,0.05,0.02C9.55,2.29,9.45,2.31,9.51,2.31z"/>
		<path class="st0" d="M10.32,2.77c-0.05-0.01-0.07,0.11-0.07,0.16C10.27,2.89,10.37,2.81,10.32,2.77z"/>
		<path class="st0" d="M10.25,2.96c0,0,0-0.01,0-0.02C10.25,2.94,10.25,2.95,10.25,2.96z"/>
		<path class="st0" d="M9.19,4.37c0,0,0,0.01,0,0.02C9.19,4.38,9.19,4.38,9.19,4.37z"/>
		<path class="st0" d="M9.2,4.32c0.03-0.01,0.05-0.07,0.02-0.11C9.2,4.26,9.18,4.3,9.19,4.37C9.2,4.35,9.24,4.36,9.2,4.32z"/>
		<path class="st0" d="M8.89,4.59C8.89,4.55,8.92,4.54,8.88,4.52C8.86,4.51,8.86,4.58,8.89,4.59z"/>
		<path class="st0" d="M5.98,5.51C5.94,5.52,5.93,5.55,5.99,5.59C6.02,5.56,5.97,5.55,5.98,5.51z"/>
		<polygon class="st0" points="5.97,5.64 5.94,5.62 5.88,5.6 		"/>
		<path class="st0" d="M5.7,5.75C5.7,5.74,5.69,5.73,5.69,5.72C5.69,5.74,5.69,5.75,5.7,5.75z"/>
		<path class="st0" d="M5.7,5.71C5.7,5.71,5.69,5.72,5.7,5.71C5.7,5.72,5.7,5.71,5.7,5.71z"/>
		<path class="st0" d="M5.72,5.71L5.7,5.69c0,0.01,0,0.02,0,0.03C5.7,5.7,5.71,5.7,5.72,5.71z"/>
		<path class="st0" d="M5.64,5.8l0.11,0.04c0-0.07-0.08,0-0.13-0.11L5.64,5.8z"/>
		<path class="st0" d="M5.54,5.95c-0.06,0.01,0.01,0.18-0.1,0.11C5.39,6.2,5.61,6.18,5.53,6.33C5.68,6.27,5.41,6.1,5.56,6.06
			C5.45,6.05,5.54,5.98,5.54,5.95z"/>
		<path class="st0" d="M5.7,6.08C5.66,6.03,5.62,6.07,5.63,6.11C5.65,6.11,5.73,6.15,5.7,6.08z"/>
		<polygon class="st0" points="5.39,6.18 5.32,6.17 5.34,6.21 		"/>
		<path class="st0" d="M5.25,6.27L5.23,6.19C5.24,6.22,5.19,6.26,5.25,6.27z"/>
		<path class="st0" d="M5.03,6.36C4.99,6.37,5.08,6.52,5.11,6.43L5.1,6.44C5.08,6.42,5.01,6.41,5.03,6.36z"/>
		<path class="st0" d="M4.86,6.92c0.02-0.02,0.03-0.05,0-0.07L4.83,6.92L4.86,6.92z"/>
		<path class="st0" d="M5.16,7.2c0.09,0.06,0.04-0.05,0.1-0.06C5.21,7.16,5.2,7.15,5.16,7.2z"/>
		<path class="st0" d="M4.7,6.87C4.68,6.83,4.72,6.82,4.74,6.82C4.69,6.78,4.67,6.83,4.7,6.87z"/>
		<path class="st0" d="M4.64,6.98C4.59,6.96,4.6,6.93,4.57,6.93c-0.07,0-0.1,0.05-0.08,0.11c0.04,0.02,0.14,0.09,0.16,0.14
			C4.68,7.09,4.57,6.93,4.7,7L4.62,6.83C4.56,6.85,4.68,6.95,4.64,6.98z"/>
		<path class="st0" d="M5,7.1L4.92,7.09c0.05,0.04,0.03,0.07,0.03,0.1C5.05,7.27,4.99,7.13,5,7.1z"/>
		<polygon class="st0" points="4.38,7.35 4.33,7.44 4.36,7.42 		"/>
		<polygon class="st0" points="4.3,7.36 4.28,7.34 4.27,7.44 		"/>
		<polygon class="st0" points="4.2,7.4 4.22,7.4 4.23,7.34 		"/>
		<path class="st0" d="M4.05,7.52L4.1,7.55c0.01-0.03,0.08-0.02,0.03-0.07C4.13,7.51,4.09,7.54,4.05,7.52z"/>
		<path class="st0" d="M4.6,8.97C4.58,8.93,4.55,8.92,4.52,8.9l0.05,0.09C4.57,8.98,4.58,8.96,4.6,8.97z"/>
		<path class="st0" d="M4.41,8.94l0.03,0.12C4.5,9.02,4.45,8.95,4.49,8.89c-0.04,0-0.02,0.08-0.07,0.09L4.41,8.94z"/>
		<path class="st0" d="M3.38,9.85C3.33,9.8,3.33,9.82,3.33,9.75C3.32,9.83,3.26,9.86,3.21,9.92c0.04,0.02,0.05,0.12,0.06,0.08
			l0.03-0.09l0.02,0.04C3.41,9.95,3.3,9.87,3.38,9.85z"/>
		<path class="st0" d="M0.32,11.87c-0.02-0.03-0.05-0.04-0.08-0.06C0.23,11.88,0.32,11.86,0.32,11.87z"/>
	</g>
</g>
</svg>
