<?xml version="1.0" encoding="utf-8"?>
<!-- Generator: Adobe Illustrator 25.0.0, SVG Export Plug-In . SVG Version: 6.00 Build 0)  -->
<svg version="1.1" id="Layer_1" xmlns="http://www.w3.org/2000/svg" xmlns:xlink="http://www.w3.org/1999/xlink" x="0px" y="0px"
	 viewBox="0 0 69.76 11.39" enable-background="new 0 0 69.76 11.39" xml:space="preserve">
<g>
	<path fill="#C04D3E" d="M0,9.86V7.74h6.91V3.74H0V1.63h9.24v8.67H6.91V9.86H0z"/>
	<path fill="#C04D3E" d="M17.87,11.05h-2.34V5.67c-1.57,0.85-2.32,1.24-3.33,1.62c-0.33-0.6-0.9-1.37-1.52-1.93
		c2.58-0.6,6.42-2.93,8.17-5.3l1.9,1.39c0.1,0.07,0.13,0.12,0.13,0.19c0,0.22-0.26,0.2-0.46,0.18c-0.31,0.37-0.88,1.03-2.54,2.31
		V11.05z"/>
	<path fill="#C04D3E" d="M23.81,0.62c1.08,0.54,2.33,1.28,3.06,1.96c-0.55,0.62-1.07,1.44-1.29,1.83c-0.88-0.8-1.97-1.5-3.03-1.99
		L23.81,0.62z M22.75,8.77c3.55-0.72,7.15-3.47,8.9-6.52c0.62,1.03,0.91,1.44,1.32,1.92c-1.73,2.77-4.94,5.34-8.62,6.66
		c-0.01,0.13-0.04,0.31-0.22,0.31c-0.12,0-0.17-0.1-0.22-0.19L22.75,8.77z"/>
	<path fill="#C04D3E" d="M37,11.24h-2.03V6.06c-0.14,0.19-0.19,0.24-0.32,0.38c-0.18-0.5-0.64-1.33-1.02-1.75
		c0.98-1.21,2.08-3.56,2.25-4.58l1.88,0.68c0.07,0.02,0.19,0.07,0.19,0.2s-0.08,0.16-0.32,0.23c-0.25,0.62-0.58,1.36-0.68,1.56
		c0.24,0.08,0.32,0.11,0.32,0.24c0,0.12-0.23,0.22-0.28,0.23v6.07c0.53-0.35,1.43-0.96,2.19-1.98H37.3V5.58h3v-0.7h-2.29V0.46h6.64
		v4.43h-2.13c0.04,0.04,0.05,0.06,0.05,0.08c0,0.13-0.23,0.18-0.37,0.22v0.4h2.91v1.76h-1.99c0.74,0.89,1.28,1.31,2.4,2.01
		c-0.5,0.41-1.08,1.19-1.26,1.57c-0.98-0.78-1.46-1.28-2.06-2.11v2.42h-1.9V8.83c-0.56,0.71-1.39,1.55-2.11,2.1
		C38,10.64,37.77,10.31,37,9.71V11.24z M39.99,2.18v1h2.66v-1H39.99z"/>
	<path fill="#C04D3E" d="M52.38,0.22c0.08,0.01,0.24,0.02,0.24,0.18c0,0.13-0.17,0.19-0.29,0.23c-0.1,0.3-0.13,0.43-0.2,0.64h5.23
		v1.71h-5.92c-0.19,0.37-0.28,0.5-0.37,0.66h5.07v6.03c0,1.22-0.52,1.69-2.97,1.61c-0.02-0.58-0.12-0.95-0.55-1.86
		c0.17,0.02,0.92,0.17,1.08,0.17c0.46,0,0.46-0.17,0.46-0.4V8.78h-3.42v2.5h-1.98V6.42C48.12,6.99,47.8,7.2,47.49,7.4
		c-0.53-0.65-0.96-1.03-1.51-1.42c1.44-0.78,2.49-1.69,3.25-3.01h-2.89V1.26h3.62c0.2-0.58,0.26-0.96,0.32-1.26L52.38,0.22z
		 M54.15,5.62V5.17h-3.42v0.46H54.15z M50.73,6.96v0.5h3.42v-0.5H50.73z"/>
	<path fill="#C04D3E" d="M69.1,3.67c-0.06,1.02-0.26,2.9-1.07,4.45c0.4,0.56,0.83,1.03,1.73,1.67c-0.48,0.49-0.89,1.01-1.27,1.61
		c-0.8-0.58-1.52-1.49-1.61-1.6c-0.8,0.9-1.56,1.38-1.83,1.56c-0.41-0.47-0.86-0.91-1.43-1.26c-0.49,0.46-0.73,0.74-1.01,1.1
		c-0.38-0.46-0.75-0.79-0.88-0.9c-1,0.66-1.69,0.88-2.34,1.01c-0.14-0.4-0.52-1.07-0.91-1.38c1.04-0.1,1.8-0.54,2-0.66
		c-0.13-0.1-0.18-0.14-0.28-0.19c-0.07,0.11-0.13,0.18-0.2,0.29c-0.42-0.34-1.02-0.52-1.5-0.58c0.2-0.28,0.43-0.58,0.82-1.22h-0.92
		V6.12h1.68c0.18-0.41,0.25-0.61,0.31-0.78l0.11,0.01V4.59c-0.55,0.64-0.98,1.02-1.33,1.32c-0.23-0.29-0.71-0.85-1.16-1.16
		c0.36-0.18,0.95-0.5,1.61-1.24h-1.21V2.13h0.56c-0.2-0.48-0.46-0.96-0.74-1.37l1.37-0.62c0.36,0.46,0.76,1.21,0.9,1.49
		c-0.16,0.06-0.92,0.38-1.19,0.5h1.22V0.18l1.83,0.08c0.08,0,0.18,0.04,0.18,0.14c0,0.08-0.19,0.2-0.31,0.24v1.49h1.02
		c-0.48-0.26-0.73-0.33-0.98-0.42c0.3-0.38,0.64-1.01,0.83-1.54l1.49,0.53c0.06,0.02,0.1,0.07,0.1,0.16c0,0.16-0.22,0.18-0.35,0.19
		l-0.6,1.08h0.55v1.38h-1.27c0.33,0.3,0.95,0.85,1.01,0.91c-0.14,0.13-0.91,0.98-1.06,1.18c-0.31-0.32-0.54-0.59-0.77-0.91v0.83
		h-0.75l0.71,0.12c0.06,0.01,0.18,0.05,0.18,0.12c0,0.12-0.08,0.14-0.34,0.2l-0.07,0.16h2.3c-0.17-0.13-0.42-0.28-0.88-0.53
		C64.8,3.56,65.05,1,65.1,0.17l2.03,0.25c0.08,0.01,0.17,0.07,0.17,0.14c0,0.13-0.07,0.18-0.35,0.28c-0.02,0.19-0.06,0.48-0.19,1.1
		h2.67v1.73H69.1z M61.09,7.57c-0.02,0.06-0.17,0.31-0.19,0.37c0.26,0.14,0.6,0.33,0.72,0.41c0.24-0.28,0.38-0.47,0.54-0.78H61.09z
		 M64.33,7.57h-0.26c0.01,0.13-0.07,0.17-0.28,0.2c-0.23,0.55-0.47,0.95-0.82,1.38c0.4,0.28,0.67,0.52,0.8,0.68
		c1-0.58,1.65-1.33,1.99-1.75c-0.32-0.66-0.58-1.44-0.67-1.85c-0.13,0.19-0.2,0.28-0.31,0.41c-0.13-0.16-0.25-0.28-0.46-0.44V7.57z
		 M66.32,3.67c-0.07,0.22-0.08,0.24-0.11,0.3c0.12,0.56,0.31,1.43,0.65,2.29c0.28-0.8,0.46-1.77,0.5-2.59H66.32z"/>
</g>
</svg>
