<?xml version="1.0" encoding="utf-8"?>
<!-- Generator: Adobe Illustrator 25.0.0, SVG Export Plug-In . SVG Version: 6.00 Build 0)  -->
<svg version="1.1" id="Layer_1" xmlns="http://www.w3.org/2000/svg" xmlns:xlink="http://www.w3.org/1999/xlink" x="0px" y="0px"
	 viewBox="0 0 42.31 8.85" enable-background="new 0 0 42.31 8.85" xml:space="preserve">
<g>
	<path fill="#9E5C4C" d="M0.33,0.65c0.02,0.01,0.06,0.02,0.08,0.02c0.03,0,0.05,0.01,0.07,0.03C0.5,0.73,0.5,0.75,0.52,0.76
		c0.02,0.01,0.04,0.03,0.05,0.05c0.01,0.02,0.01,0.03,0.02,0.03c0.02,0,0.06,0.05,0.05,0.08c0,0.01,0,0.03,0.03,0.07
		c0.04,0.05,0.04,0.07,0.04,0.1c0,0.04,0,0.06,0.01,0.06S0.74,1.16,0.73,1.2c0,0.04-0.01,0.06,0,0.07S0.75,1.3,0.74,1.32
		c0,0.03,0.02,0.06,0.04,0.07c0,0.01,0.01,0.03,0.02,0.04c0.02,0.02,0.02,0.02,0,0.05C0.79,1.5,0.79,1.52,0.79,1.53
		C0.8,1.54,0.8,1.56,0.81,1.56s0.01,0.02,0.01,0.05c0,0.04-0.01,0.05,0,0.05c0.01,0,0.02,0.01,0.01,0.02c0,0.01,0,0.05,0.01,0.09
		c0.02,0.05,0.02,0.07,0.01,0.07c-0.02,0-0.01,0.03,0.01,0.04c0.01,0,0.01,0-0.01,0.02c-0.01,0.02-0.01,0.07,0,0.07
		s0.01,0.01,0.01,0.02s0,0.04,0.01,0.07c0.02,0.05,0.02,0.06,0.01,0.07s-0.01,0.02,0,0.02S0.9,2.16,0.9,2.17s0.01,0.06,0.03,0.11
		c0.02,0.07-0.01,0.11-0.01,0.13c0,0.02,0,0.04,0.01,0.05c0,0.02,0.02,0.07,0.03,0.19c0,0.03,0,0.06,0.01,0.07
		c0.02,0.01,0.05,0.16,0.05,0.2c0,0.02,0,0.06,0.01,0.08c0.02,0.09,0.03,0.19,0.02,0.25C1.04,3.3,1.08,3.51,1.07,3.55
		c0.01,0.01,0.01,0.04,0,0.07l0.02,0.16C1.1,3.84,1.1,3.93,1.1,3.96s0.01,0.07,0.02,0.08c0.01,0.01,0.01,0.05,0.01,0.09
		s0,0.12,0.01,0.19c0.01,0.07,0.02,0.16,0.02,0.2s0,0.09,0.01,0.12c0.01,0.03,0.02,0.07,0.02,0.09C1.19,4.9,1.21,5,1.22,5.04
		c0.01,0.03,0.01,0.05,0,0.06C1.18,5.15,1.29,5.13,1.35,5.08c0.02-0.02,0.03-0.03,0.04-0.03c0.01,0,0.02-0.01,0.03-0.02
		c0.01-0.01,0.02-0.01,0.03-0.01s0.06-0.03,0.12-0.07C1.63,4.92,1.7,4.88,1.71,4.88s0.04-0.02,0.06-0.03
		c0.02-0.02,0.04-0.04,0.05-0.04c0.02,0,0.04-0.02,0.04-0.03s0.03-0.02,0.09-0.04c0.11-0.03,0.14-0.05,0.2-0.12
		c0.04-0.04,0.07-0.06,0.09-0.06c0.04,0,0.05,0.02,0.05,0.07c0,0.06,0.03,0.12,0.06,0.15C2.37,4.79,2.38,4.8,2.38,4.81
		S2.4,4.84,2.41,4.86c0.01,0.02,0.02,0.05,0.02,0.07c0,0.01,0,0.03,0.01,0.04C2.46,5,2.47,5.05,2.46,5.08c0,0.01,0,0.03,0.01,0.05
		C2.48,5.14,2.49,5.15,2.5,5.15c0.01-0.01,0.04,0.04,0.04,0.07c0,0.01,0,0.02,0.01,0.02s0.02,0.04,0.03,0.08
		c0,0.04,0.02,0.07,0.03,0.08c0.02,0.01,0.04,0.03,0.04,0.17v0.06L2.61,5.66c-0.02,0.01-0.07,0.05-0.1,0.07
		C2.48,5.75,2.45,5.78,2.43,5.79C2.42,5.8,2.4,5.81,2.4,5.82C2.37,5.81,2.31,5.84,2.32,5.86c0,0.01-0.01,0.01-0.03,0.02
		C2.25,5.9,2.1,6.02,2.1,6.04c0,0.01-0.01,0.03-0.02,0.03C2,6.1,2,6.13,1.98,6.16C1.97,6.18,1.95,6.19,1.94,6.19
		c-0.01,0-0.01,0.01-0.02,0.02c0,0.01-0.02,0.02-0.04,0.03C1.86,6.25,1.85,6.27,1.85,6.29c0,0.01-0.02,0.03-0.05,0.05
		C1.77,6.35,1.76,6.37,1.75,6.39C1.74,6.41,1.71,6.43,1.69,6.45C1.66,6.47,1.65,6.49,1.65,6.5c0,0.01-0.02,0.06-0.06,0.12
		c-0.07,0.13-0.1,0.21-0.1,0.28c0,0.03,0,0.06-0.01,0.07C1.47,6.98,1.46,7.01,1.46,7.04C1.45,7.1,1.42,7.18,1.41,7.2
		c-0.01,0.01,0,0.03,0,0.05c0,0.01-0.03,0.06-0.04,0.16C1.36,7.46,1.34,7.55,1.34,7.56c0,0.01,0.01,0.05-0.01,0.07V7.7
		c0.01,0.03-0.02,0.13-0.04,0.19C1.28,7.91,1.28,7.94,1.28,7.95c0,0.05-0.12,0.23-0.17,0.24c-0.02,0-0.08,0.03-0.12,0.05
		C0.9,8.28,0.85,8.28,0.75,8.25c-0.04-0.01-0.09-0.02-0.1-0.02c-0.01,0-0.04-0.01-0.05-0.02C0.59,8.2,0.57,8.2,0.56,8.2
		S0.54,8.18,0.52,8.17C0.5,8.16,0.48,8.15,0.47,8.15c-0.05,0-0.19-0.11-0.18-0.14c0-0.01-0.01-0.04-0.04-0.07
		C0.23,7.9,0.21,7.86,0.2,7.85c0-0.01-0.02-0.05-0.03-0.07C0.13,7.7,0.12,7.66,0.13,7.63c0.02-0.02,0.02-0.04,0.01-0.05
		c0-0.01-0.01-0.04-0.02-0.08S0.1,7.42,0.09,7.41C0.08,7.39,0.07,7.37,0.07,7.32c0-0.06,0.01-0.08,0.03-0.1
		c0.01-0.01,0.02-0.04,0.02-0.05s0-0.02,0.01-0.02s0.01-0.01,0.01-0.02c0-0.01-0.03-0.15,0-0.2c0.02-0.07,0.04-0.1,0.03-0.14
		c0-0.03,0-0.07,0.01-0.11C0.19,6.64,0.2,6.62,0.19,6.61c0-0.01,0-0.02,0.01-0.04c0.01-0.02,0-0.03,0-0.04s-0.01-0.03,0-0.05
		c0.01-0.02,0.01-0.04,0-0.07c0-0.02,0.01-0.05,0.02-0.08c0.01-0.05,0.02-0.36,0.01-0.39c0-0.01-0.01-0.05-0.01-0.08
		c0.01-0.04,0.02-0.12,0.02-0.19s0.02-0.13,0.01-0.16C0.23,5.52,0.23,5.52,0.22,5.45C0.21,5.4,0.23,5.27,0.25,5.24
		c0.01-0.01,0.01-0.01,0.02,0.01l0.01,0.02l0.01-0.02c0-0.01-0.02-0.09-0.02-0.17s-0.01-0.18,0-0.22c0.01-0.04,0.01-0.14,0.02-0.22
		l0.02-0.11c0-0.01,0.01-0.05,0-0.1C0.3,4.36,0.29,4.33,0.3,4.32c0.01-0.01,0.01-0.02,0-0.03C0.29,4.28,0.29,4.26,0.29,4.2
		C0.3,4.15,0.31,4.11,0.3,4.11s0-0.09,0-0.22c0-0.18,0-0.22-0.01-0.26c0-0.03-0.01-0.05,0-0.06c0.02-0.03,0.04-0.08,0.03-0.12
		C0.31,3.43,0.31,3.34,0.3,3.26C0.29,3.18,0.32,3.08,0.32,3.07c0-0.04,0-0.04,0.01-0.06c0.02-0.02,0.02-0.02,0-0.04
		C0.31,2.95,0.3,2.91,0.32,2.89C0.31,2.88,0.31,2.85,0.31,2.83c0-0.02,0-0.05-0.01-0.05c0.01-0.02-0.03-0.23-0.06-0.32
		C0.23,2.4,0.25,2.27,0.26,2.22c0-0.01-0.02-0.07-0.04-0.1V2.08C0.22,2.07,0.21,2.03,0.2,2S0.18,1.91,0.18,1.88
		C0.17,1.84,0.16,1.81,0.15,1.79C0.13,1.77,0.13,1.75,0.13,1.72C0.14,1.67,0.14,1.62,0.1,1.6C0.08,1.59,0.07,1.58,0.08,1.56
		c0.01-0.04,0.02-0.08,0-0.09C0.07,1.46,0.07,1.44,0.07,1.42c0-0.03,0-0.04-0.02-0.06C0.03,1.33,0.04,1.31,0.04,1.27
		c0-0.05,0-0.06-0.02-0.06C0,1.21,0,1.2,0,1.17C0,1.15,0.03,1.12,0.04,1.1l0.02-0.03L0.04,1.04L0.02,1l0.04-0.07
		C0.08,0.89,0.1,0.85,0.11,0.84c0.01-0.01,0.01-0.03,0-0.06c0-0.04,0.01-0.05,0.02-0.05s0.03-0.01,0.06-0.04
		c0.04-0.04,0.05-0.05,0.07-0.04c0.02,0,0.03,0.01,0.03,0C0.3,0.64,0.31,0.64,0.33,0.65z M4.59,0.38c0.02,0,0.04,0.02,0.06,0.03
		c0.02,0.01,0.06,0.03,0.1,0.04c0.07,0.01,0.09,0.02,0.11,0.03c0.02,0.03,0.04,0.03,0.04,0c0-0.01,0.07-0.01,0.08,0.01
		C4.99,0.51,5,0.51,5.01,0.5c0.01-0.01,0.01-0.01,0.03,0.01C5.06,0.53,5.1,0.55,5.09,0.52C5.07,0.52,5.08,0.5,5.1,0.5
		c0.01,0,0.03-0.01,0.03-0.02c0.01-0.03,0.03-0.01,0.04,0.06c0.01,0.03,0.02,0.07,0.02,0.08C5.2,0.63,5.2,0.66,5.2,0.68
		c0,0.02,0.01,0.06,0.01,0.09C5.22,0.8,5.23,0.85,5.23,0.88c0.01,0.1,0.02,0.21,0.03,0.23c0.01,0.01,0.02,0.07,0.03,0.12
		C5.3,1.29,5.32,1.35,5.33,1.37c0.01,0.02,0,0.04,0,0.05c0,0.01,0.02,0.09,0.06,0.24c0.03,0.1,0.07,0.26,0.09,0.28
		C5.5,1.96,5.55,1.97,5.57,1.95c0.01-0.01,0.02-0.01,0.03,0c0.01,0.01,0.01,0,0.03-0.01c0.01-0.01,0.02-0.01,0.03,0
		c0.01,0.01,0.03,0.01,0.07,0c0.03-0.01,0.08-0.01,0.1-0.01c0.02,0,0.05-0.01,0.07-0.01c0.03-0.02,0.03-0.02,0.05,0
		c0.02,0,0.05,0.01,0.06,0.02c0.01,0.01,0.04,0.02,0.06,0.02c0.02,0,0.06,0.01,0.1,0.04c0.04,0.02,0.08,0.05,0.09,0.04
		s0.01,0.01,0.02,0.02C6.31,2.09,6.34,2.1,6.37,2.1c0.02,0,0.02,0,0.02,0.01c0,0.01,0.01,0.02,0.03,0.03
		c0.03,0.01,0.06,0.02,0.07,0.04c0.01,0,0.02,0,0.03,0.01C6.53,2.2,6.55,2.21,6.56,2.21s0.03,0,0.03,0.01S6.6,2.25,6.62,2.25
		c0.04,0.01,0.2,0.07,0.23,0.09c0.01,0.01,0.02,0.02,0.03,0.02c0.01,0,0.03,0.01,0.07,0.04c0.08,0.04,0.13,0.1,0.2,0.22
		C7.2,2.68,7.21,2.71,7.2,2.73v0.09c0,0.01,0.01,0.06,0.02,0.1c0.02,0.06,0.02,0.14,0.01,0.2c0,0.01-0.09,0.11-0.1,0.11
		s-0.01,0-0.03,0.01C7.06,3.26,6.89,3.27,6.73,3.26c-0.24-0.01-0.48,0-0.69-0.02h-0.1c0.02,0.07,0.03,0.13,0.04,0.14
		c0.01,0.01,0.01,0.03,0.01,0.05C5.99,3.45,6,3.5,6.02,3.54c0.02,0.03,0.05,0.07,0.05,0.09c0,0.01,0.01,0.03,0.02,0.04
		c0.02,0.01,0.02,0.02,0.02,0.04c0,0.01-0.01,0.07,0,0.08C6.12,3.82,6.15,3.9,6.16,3.97c0,0.03,0.01,0.05,0.02,0.05
		c0.02,0,0.02,0.02,0.01,0.04c0,0.01,0.01,0.03,0.02,0.04c0.01,0.01,0.01,0.02,0.01,0.04c0,0.02,0,0.03,0.02,0.04
		c0.01,0,0.01,0.01,0.01,0.02c0,0.01,0.01,0.02,0.02,0.03c0.01,0.01,0.01,0.02,0.01,0.03S6.29,4.29,6.31,4.3
		c0.02,0.02,0.03,0.03,0.03,0.04s0.01,0.03,0.02,0.04C6.38,4.4,6.42,4.43,6.51,4.41c0.06-0.01,0.14,0,0.14,0.01
		C6.67,4.44,6.68,4.45,6.7,4.43c0.02-0.01,0.07-0.01,0.04,0c-0.01,0,0.12,0.01,0.13,0c0.02-0.01,0.2-0.01,0.21,0
		s0.03,0.02,0.06,0.02c0.03,0,0.05,0.01,0.05,0.02s0.02,0.01,0.03,0.01c0.01,0,0.04,0.01,0.06,0.03c0.03,0.02,0.06,0.03,0.07,0.03
		c0.02-0.01,0.14,0.03,0.14,0.05c0,0.01,0.01,0.01,0.02,0C7.53,4.58,7.54,4.58,7.55,4.6C7.56,4.64,7.6,4.68,7.64,4.7
		c0.04,0.02,0.15,0.15,0.18,0.2c0.02,0.03,0.02,0.04,0.01,0.06c-0.01,0.01,0,0.02,0,0.03c0.01,0.02-0.02,0.07-0.08,0.13
		C7.72,5.16,7.69,5.2,7.69,5.21c0,0.01-0.01,0.03-0.03,0.04C7.64,5.26,7.61,5.29,7.59,5.31C7.56,5.34,7.52,5.36,7.46,5.38
		C7.41,5.4,7.37,5.41,7.35,5.41c-0.02,0-0.03,0-0.03,0.02c0,0.02-0.01,0.03-0.03,0.04C7.27,5.48,7.24,5.51,7.23,5.51
		C7.21,5.52,7.18,5.53,7.17,5.53S7.14,5.54,7.11,5.55C7.08,5.56,7.05,5.58,7.04,5.58S7.01,5.59,7,5.6C6.99,5.61,6.97,5.62,6.96,5.62
		S6.79,5.63,6.77,5.64C6.74,5.65,6.72,5.65,6.69,5.65C6.65,5.64,6.57,5.68,6.57,5.7c0,0.01-0.01,0.02-0.02,0.03
		C6.54,5.74,6.53,5.75,6.53,5.76s0,0.02-0.01,0.03S6.5,5.84,6.5,5.88c0,0.05-0.01,0.07-0.03,0.09C6.45,5.99,6.44,6,6.43,6.04
		C6.42,6.07,6.41,6.18,6.38,6.26C6.35,6.35,6.33,6.45,6.32,6.48C6.31,6.5,6.31,6.54,6.3,6.55C6.29,6.56,6.28,6.6,6.27,6.64
		s-0.02,0.09-0.03,0.1c0,0.01-0.01,0.04-0.01,0.05c0,0.01-0.01,0.03-0.02,0.05C6.2,6.86,6.19,6.89,6.19,6.91
		c0,0.02,0,0.05-0.01,0.05C6.17,6.97,6.17,7,6.17,7.02c0,0.02,0,0.06-0.01,0.09C6.15,7.14,6.15,7.17,6.14,7.19
		C6.13,7.22,6.1,7.31,6.07,7.37C6.06,7.4,6.05,7.43,6.05,7.44C6.03,7.45,6.08,7.55,6.01,7.69c-0.06,0.12-0.06,0.18-0.07,0.2
		C5.93,7.91,5.92,7.92,5.92,7.93c0,0.06-0.04,0.19-0.07,0.24C5.83,8.21,5.81,8.23,5.81,8.24c0,0.01-0.04,0.04-0.1,0.09
		C5.69,8.34,5.68,8.35,5.67,8.35S5.65,8.36,5.64,8.37c0,0.01-0.02,0.02-0.04,0.03c-0.02,0-0.08,0.03-0.09,0.04
		C5.49,8.46,5.47,8.47,5.45,8.47c-0.01,0-0.06,0.01-0.11,0.02C5.27,8.51,5.22,8.52,5.15,8.52c-0.06,0-0.12,0-0.12-0.01
		c-0.01-0.01-0.01,0-0.02,0c-0.01,0-0.02,0-0.05-0.02C4.89,8.44,4.82,8.41,4.81,8.4c-0.06,0-0.1-0.03-0.09-0.05
		c0.01-0.01-0.06-0.04-0.1-0.04c-0.02,0-0.05-0.01-0.07-0.02C4.53,8.28,4.51,8.26,4.5,8.26c-0.01,0-0.01,0-0.02-0.01
		c-0.01,0-0.06-0.01-0.08-0.02C4.38,8.22,4.34,8.2,4.3,8.16C4.23,8.1,4.05,7.85,4.05,7.84S4.01,7.77,3.97,7.7
		C3.89,7.52,3.85,7.45,3.84,7.43C3.81,7.41,3.81,7.4,3.8,7.39c0-0.01-0.02-0.05-0.04-0.1C3.74,7.24,3.73,7.2,3.72,7.2
		c0-0.01-0.01-0.03-0.02-0.05c-0.01-0.02-0.03-0.1-0.06-0.18C3.6,6.89,3.59,6.79,3.57,6.72C3.55,6.65,3.53,6.53,3.51,6.47
		C3.49,6.4,3.48,6.34,3.48,6.32c0-0.02,0-0.04-0.01-0.05V6.23c0-0.01,0-0.06-0.01-0.1s0-0.12,0-0.14c0-0.02-0.01-0.07-0.01-0.08
		c-0.01-0.08-0.01-0.17,0-0.21c0-0.01,0-0.02-0.01-0.03c-0.01-0.01,0-0.03,0.01-0.05C3.46,5.6,3.47,5.55,3.48,5.51
		c0.02-0.1,0.03-0.12,0.05-0.14c0-0.01,0.01-0.03,0.01-0.04s-0.01-0.01,0-0.02c0.01,0,0.02-0.03,0.03-0.05
		C3.58,5.23,3.59,5.2,3.6,5.19c0.01-0.01,0.04-0.03,0.05-0.05c0.01-0.02,0.04-0.06,0.07-0.09C3.75,5.03,3.77,5,3.77,4.99
		s0.02-0.01,0.05-0.02c0.04-0.01,0.06-0.03,0.09-0.06c0.02-0.03,0.04-0.05,0.04-0.06s0.01-0.01,0.02-0.02
		C3.98,4.82,3.99,4.81,3.99,4.8c0-0.02,0.02-0.04,0.08-0.06C4.1,4.73,4.13,4.71,4.13,4.7c0-0.01,0.03-0.03,0.08-0.06
		c0.04-0.02,0.11-0.05,0.14-0.07C4.5,4.55,4.52,4.54,4.53,4.55c0.01,0.01,0.01,0.01,0.02,0c0.02,0.01,0.04,0.01,0.04,0
		c0-0.02,0.1-0.04,0.2-0.03c0.06,0.01,0.06,0.01,0.05-0.01c0-0.02,0-0.02,0.02-0.02c0.01,0,0.03-0.01,0.03,0
		c0,0.01,0.02,0.02,0.04,0.01c0.01,0,0.01-0.01,0.01-0.02s0.01-0.02,0.02-0.03C4.99,4.43,4.98,4.4,4.94,4.38
		C4.91,4.37,4.92,4.36,4.93,4.35c0.01-0.01,0.01-0.02,0-0.03C4.92,4.31,4.91,4.29,4.9,4.29c-0.01-0.01-0.01-0.02,0-0.04
		c0.01-0.02,0.01-0.04,0-0.04c0-0.01-0.02-0.03-0.02-0.06c0-0.03-0.01-0.07-0.02-0.07C4.85,4.07,4.84,4.04,4.84,4.02
		c0-0.03,0-0.05-0.01-0.06C4.82,3.94,4.81,3.9,4.81,3.86c0-0.01,0-0.02,0.01-0.03S4.81,3.77,4.81,3.75C4.79,3.73,4.8,3.72,4.79,3.71
		C4.78,3.7,4.77,3.68,4.77,3.66c0-0.02,0-0.04-0.01-0.05c-0.02-0.05-0.01-0.07,0-0.08c0.01-0.01,0.01-0.01,0-0.03
		C4.75,3.49,4.74,3.45,4.73,3.44C4.72,3.42,4.72,3.4,4.71,3.38C4.7,3.37,4.7,3.33,4.7,3.28H4.66c-0.03,0-0.03-0.01-0.03-0.02
		c0-0.02-0.01-0.02-0.06-0.02c-0.03,0-0.07-0.01-0.1-0.02c-0.01,0-0.22-0.02-0.28-0.03C4.1,3.18,4.05,3.18,4.04,3.17
		c-0.02-0.03-0.1-0.06-0.18-0.06c-0.09,0-0.21-0.01-0.37-0.12C3.42,2.94,3.38,2.96,3.35,2.95C3.32,2.94,3.29,2.94,3.28,2.92
		c-0.01,0-0.02,0-0.03-0.01C3.24,2.9,3.21,2.88,3.17,2.86C3.13,2.84,3.08,2.8,3.05,2.78C3.03,2.76,3,2.74,2.99,2.74
		S2.95,2.72,2.91,2.69C2.87,2.66,2.82,2.61,2.79,2.58C2.75,2.55,2.72,2.51,2.71,2.49C2.7,2.46,2.68,2.42,2.66,2.41
		C2.64,2.4,2.63,2.4,2.63,2.39S2.62,2.37,2.61,2.36C2.59,2.34,2.55,2.24,2.54,2.21c0-0.02,0-0.02,0.03-0.01
		c0.02,0,0.04,0.01,0.05,0.01c0.01,0,0.02,0.01,0.02,0S2.65,2.19,2.68,2.2c0.02,0,0.03,0,0.03-0.01c0-0.01,0.01-0.01,0.03,0
		C2.78,2.21,2.81,2.2,2.8,2.18c0-0.02,0-0.02,0.01-0.02c0.02,0,0.05,0.01,0.08,0.02C2.94,2.2,3.01,2.22,3.01,2.21S3,2.19,2.99,2.18
		C2.97,2.15,2.98,2.15,3.03,2.17c0.03,0.02,0.08,0.02,0.09,0.01c0-0.01,0.02,0,0.03,0c0.02,0,0.02,0,0.05-0.03l0.04-0.04l0.07,0.01
		c0.14,0.02,0.21,0.03,0.25-0.04c0.02-0.04,0.05-0.01,0.07,0c0.02,0.01,0.04,0,0.11-0.01c0.06-0.01,0.1-0.01,0.12,0
		c0.02,0,0.06,0.01,0.09,0.01c0.03,0,0.06,0.02,0.06,0.03c0.01,0,0.1,0.01,0.25,0.02c0.11,0,0.17,0.01,0.19,0
		c0.03-0.01,0.03-0.02,0.03-0.07c0-0.03-0.01-0.11-0.02-0.17C4.45,1.77,4.42,1.71,4.42,1.62c0-0.1,0.02-0.15,0.01-0.16
		c-0.01,0,0-0.05,0.01-0.1c0.02-0.09,0.01-0.11-0.01-0.15c-0.01-0.02-0.01-0.04,0-0.24c0.02-0.33,0.04-0.4,0.1-0.54
		C4.55,0.38,4.56,0.37,4.59,0.38z M4.81,5.64C4.76,5.65,4.73,5.66,4.73,5.68C4.71,5.7,4.67,5.69,4.6,5.69
		c-0.08,0-0.14-0.01-0.21,0.01C4.35,5.71,4.3,5.74,4.27,5.74c-0.02,0-0.04,0-0.04,0.01S4.19,5.77,4.18,5.78
		C4.17,5.8,4.13,5.84,4.13,5.86v0.13c0,0.03-0.01,0.08-0.01,0.09c0,0.04,0,0.07,0.02,0.11C4.12,6.23,4.17,6.28,4.18,6.31
		S4.2,6.39,4.22,6.42c0.02,0.03,0.03,0.06,0.03,0.07c0,0.02,0.01,0.05,0.02,0.07c0.01,0.02,0,0.03,0,0.04
		C4.26,6.61,4.3,6.72,4.36,6.77c0.02,0.02,0.02,0.06,0.02,0.09c0.02,0.07,0.06,0.08,0.1,0.1c0.04,0.02,0.08,0.01,0.1,0.01
		c0.02,0.01,0.05,0,0.07,0.01c0.01,0.01,0.02,0,0.04-0.01c0.03-0.01,0.04-0.03,0.04-0.05c0.01-0.03,0.02-0.07,0.03-0.09
		c0.01-0.02,0.02-0.04,0.02-0.05S4.8,6.76,4.82,6.74C4.84,6.72,4.86,6.7,4.86,6.67c0.01-0.03,0.01-0.04,0.02-0.04
		c0.03,0,0.04-0.02,0.02-0.06c-0.01-0.03-0.01-0.04,0-0.06C4.91,6.5,4.93,6.47,4.94,6.44s0.02-0.1,0.03-0.14
		C4.99,6.24,5,6.22,5,6.19c0-0.03,0-0.04,0.01-0.05C5.02,6.13,5.02,6.12,5,6.1C4.98,6.08,4.98,6.07,5,6.05
		C5.01,6.04,5.03,6.02,5.04,6c0.02-0.03,0.02-0.04,0.01-0.15c-0.01-0.13-0.03-0.17-0.08-0.2C4.92,5.63,4.89,5.63,4.81,5.64z"/>
	<path fill="#9E5C4C" d="M11.03,0.36h0.02c0-0.01,0.01-0.01,0.02,0c0.01,0,0.04,0.01,0.07,0.02c0.04,0.01,0.05,0.02,0.05,0.03
		s0.01,0.02,0.02,0.03c0.02,0.01,0.03,0,0.04-0.01c0.01-0.02,0.01-0.02,0.02,0.01c0.01,0.02,0.03,0.04,0.03,0.05
		c0,0.01,0.02,0.03,0.06,0.06s0.07,0.06,0.08,0.08c0.01,0.02,0.03,0.04,0.04,0.05s0.03,0.05,0.04,0.09c0.02,0.04,0.05,0.08,0.06,0.1
		c0.02,0.03,0.02,0.05,0.01,0.07c-0.01,0.03,0,0.07,0.03,0.1c0.01,0.01,0.02,0.03,0.02,0.04c0,0.01,0.02,0.04,0.03,0.06
		c0.04,0.05,0.04,0.08,0.03,0.11c-0.01,0.02-0.01,0.03,0,0.04c0.03,0.03,0.05,0.1,0.05,0.14c0,0.03,0.01,0.05,0.02,0.06
		s0.02,0.03,0.02,0.04c0,0.02,0.03,0.07,0.05,0.09c0.01,0.01,0.01,0.06,0.01,0.16s0,0.13,0.01,0.14c0.02,0.01,0.02,0.17,0,0.19
		c-0.01,0.01-0.01,0.05,0.01,0.12c0.01,0.03,0.01,0.04,0,0.05c-0.01,0-0.01,0.02-0.01,0.03c0,0.01,0,0.02-0.01,0.03
		c-0.01,0.01-0.01,0.05-0.01,0.07c0,0.02-0.02,0.05-0.03,0.06c-0.01,0.01-0.02,0.04-0.02,0.05s-0.04,0.08-0.06,0.09
		c-0.02,0.01-0.07,0.1-0.07,0.12c0,0.01,0,0.02-0.01,0.02s-0.05,0.02-0.09,0.06c-0.04,0.04-0.09,0.08-0.1,0.08
		c-0.01,0-0.03,0.01-0.04,0.04C11.41,2.95,11.38,2.98,11.35,3c-0.03,0.01-0.07,0.05-0.08,0.07c-0.02,0.02-0.04,0.04-0.05,0.04
		s-0.01,0.01-0.01,0.02c0.01,0.01,0,0.03-0.04,0.06c-0.03,0.03-0.06,0.05-0.07,0.07c-0.01,0.02-0.02,0.04-0.03,0.04
		c-0.01,0-0.06,0.06-0.07,0.09c0,0.01-0.03,0.03-0.05,0.05L10.9,3.48c-0.01,0.01-0.03,0.03-0.05,0.04
		c-0.03,0.01-0.05,0.03-0.06,0.05c0,0.02-0.01,0.04-0.03,0.05c-0.02,0.01-0.03,0.02-0.03,0.03v0.07c-0.01,0.04-0.01,0.04,0.01,0.05
		c0.03,0.01,0.04,0.02,0.02,0.05c-0.01,0.02-0.01,0.03,0.01,0.07c0.01,0.02,0.02,0.05,0.02,0.06s0,0.02,0.01,0.03
		c0.02,0.01,0.02,0.03,0.02,0.05c0,0.01,0.01,0.06,0.03,0.1c0.02,0.04,0.04,0.08,0.04,0.09s0.01,0.04,0.03,0.07
		c0.02,0.03,0.04,0.06,0.04,0.08c0.01,0.02,0.01,0.04,0.03,0.04c0.01,0,0.03,0,0.03,0.01s0.01,0.01,0.03,0.01
		c0.02,0,0.03,0,0.03,0.01s0.01,0.01,0.03,0.01c0.06,0,0.16-0.01,0.18-0.02c0.02-0.01,0.04-0.02,0.05-0.01
		c0.01,0.01,0.01,0,0.02-0.01c0.01-0.01,0.03-0.02,0.05-0.02h0.05c0.01,0,0.04,0.01,0.07,0.01c0.1,0.01,0.11,0.03,0.06,0.13
		c-0.02,0.05-0.03,0.06-0.05,0.06c-0.02,0-0.05,0.04-0.05,0.06c0,0.02-0.02,0.01-0.04-0.01c-0.01-0.01-0.02-0.01-0.03,0
		c-0.01,0.01-0.04,0.02-0.07,0.02s-0.06,0.01-0.08,0.02c-0.02,0.01-0.04,0.02-0.05,0.02c-0.02-0.01-0.08,0.02-0.09,0.04
		c-0.01,0.01,0,0.02,0,0.03s-0.01,0.03-0.02,0.05c-0.02,0.03-0.02,0.04-0.01,0.07c0.01,0.02,0.01,0.03,0,0.04
		c-0.01,0.02-0.01,0.04-0.01,0.1c0.02,0.13-0.01,0.25-0.07,0.31c-0.07,0.06-0.16,0.1-0.21,0.11c-0.02,0-0.05,0.01-0.05,0.02
		c0,0.01-0.02,0.01-0.07,0.01c-0.06,0-0.08,0-0.11,0.01c-0.03,0.02-0.03,0.02-0.09-0.01c-0.08-0.04-0.18-0.14-0.18-0.17
		c0.01-0.02-0.07-0.16-0.09-0.17c-0.01,0-0.01-0.02-0.02-0.04c-0.02-0.05-0.06-0.12-0.08-0.14c-0.01-0.01-0.04-0.05-0.06-0.11
		C10.03,4.79,10.01,4.73,10,4.73C9.99,4.72,9.99,4.71,9.99,4.69c0-0.01-0.01-0.03-0.03-0.06C9.94,4.61,9.93,4.59,9.94,4.58
		c0.01-0.01,0-0.03-0.02-0.03c-0.01,0-0.01-0.01-0.01-0.02c0-0.01,0-0.02-0.01-0.02S9.88,4.5,9.88,4.49c0-0.01-0.01-0.04-0.03-0.05
		c-0.01,0-0.02-0.02-0.02-0.03c0-0.01,0-0.01-0.01-0.02C9.8,4.37,9.79,4.35,9.78,4.29C9.77,4.23,9.73,4.14,9.71,4.11
		C9.7,4.1,9.69,4.06,9.68,4.02S9.67,3.96,9.66,3.95C9.65,3.94,9.64,3.94,9.65,3.93C9.66,3.92,9.64,3.9,9.63,3.86
		c-0.01-0.04-0.02-0.09-0.02-0.1c0-0.01-0.01-0.03-0.01-0.04c0-0.02-0.01-0.04,0-0.06c0.01-0.02,0.01-0.05,0.01-0.14
		c-0.01-0.2,0-0.24,0.02-0.26c0.01-0.01,0.02-0.02,0.01-0.02c-0.01-0.01-0.01-0.03,0-0.05c0.01-0.02,0.02-0.03,0.01-0.04
		c0-0.01,0.01-0.03,0.02-0.06c0.01-0.03,0.02-0.08,0.03-0.1c0.01-0.03,0.02-0.07,0.03-0.07c0.02-0.01,0.03-0.05,0.03-0.09
		c0-0.02,0.01-0.04,0.02-0.05c0.01-0.01,0.01-0.03,0.01-0.04c0-0.01,0.01-0.03,0.02-0.03c-0.01-0.01,0-0.02,0.02-0.04
		c0.03-0.03,0.04-0.08,0.04-0.13c0-0.02,0.01-0.04,0.02-0.06C9.9,2.46,9.91,2.45,9.91,2.44c0-0.01,0-0.02,0.01-0.03
		C9.93,2.4,9.94,2.39,9.94,2.37c0-0.02,0.01-0.04,0.02-0.05c0.01-0.01,0.02-0.03,0.02-0.04c0-0.01,0.04-0.11,0.06-0.13
		c0.03-0.03,0.05-0.11,0.05-0.14c0-0.03,0.05-0.17,0.05-0.14c0,0.01,0.03-0.06,0.03-0.07c0-0.01,0.01-0.02,0.02-0.03
		c0.01-0.01,0.02-0.02,0.02-0.04c0-0.02,0-0.03,0.01-0.03c0.01,0,0.01-0.01,0.01-0.03c0-0.02,0-0.04,0.01-0.04s0.02-0.02,0.02-0.04
		c0-0.02,0.01-0.05,0.02-0.06c0.03-0.04,0.04-0.09,0.04-0.12c0-0.02,0.01-0.04,0.03-0.05c0.01-0.01,0.02-0.03,0.02-0.04
		s0.01-0.02,0.02-0.03c0.01-0.01,0.02-0.04,0.02-0.06s0.01-0.04,0.02-0.05c0.01-0.01,0.01-0.03,0.01-0.04c0-0.02,0-0.04,0.01-0.05
		c0.02-0.01,0.02-0.01,0.02-0.03V1.02c0.01-0.01,0.02-0.04,0.02-0.08c0.01-0.04,0.02-0.08,0.03-0.09c0.01-0.01,0.01-0.02,0.01-0.04
		c0-0.02,0-0.04,0.01-0.05c0.01-0.02,0.01-0.03,0.01-0.04c-0.01-0.02-0.01-0.08,0-0.09c0.01,0,0.01-0.02,0.01-0.03
		c0-0.04,0.03-0.12,0.05-0.12c0.01,0,0.02,0.01,0.02,0.02s0,0.02,0.01,0.02c0.01,0,0.05-0.05,0.05-0.07c0-0.02,0.01-0.02,0.03-0.02
		c0.02,0,0.03-0.01,0.04-0.01c0.01-0.01,0.02,0,0.03,0.01c0,0.01,0.01,0,0.04-0.04c0.01-0.01,0.02-0.01,0.03-0.01
		c0.01,0,0.02,0,0.03-0.01s0.04-0.01,0.05-0.01C10.98,0.35,11.02,0.35,11.03,0.36z M13.82,0.79c0.02,0.05,0.05,0.08,0.06,0.08
		c0.02,0,0.02,0.02,0.02,0.05c0,0.01,0.01,0.03,0.02,0.04c0.01,0.01,0.01,0.02,0.01,0.03c0,0.01,0,0.05,0.02,0.09
		c0.04,0.09,0.12,0.26,0.16,0.37c0.02,0.05,0.03,0.08,0.03,0.09c0.01,0.02,0.05,0.13,0.06,0.18c0.01,0.03,0.04,0.12,0.06,0.19
		l0.05,0.21c0.01,0.03,0.02,0.06,0.02,0.07c0,0.01,0.01,0.03,0.01,0.05c0.01,0.06,0.01,0.1,0.02,0.14c0.01,0.02,0.02,0.08,0.02,0.12
		s0,0.09,0.01,0.11c0.02,0.06,0.02,0.35,0.01,0.42c-0.01,0.03-0.01,0.18-0.02,0.33c-0.01,0.16-0.02,0.3-0.03,0.31
		c-0.01,0.01-0.02,0.08-0.03,0.15c-0.01,0.08-0.01,0.14-0.01,0.15S14.3,4,14.29,4.02c-0.01,0.02-0.01,0.03-0.01,0.05
		c0,0.02-0.01,0.05-0.02,0.07c-0.01,0.02-0.02,0.06-0.02,0.07s0,0.04-0.01,0.07c-0.01,0.02-0.01,0.06-0.01,0.07S14.2,4.4,14.19,4.43
		c-0.01,0.03-0.02,0.1-0.04,0.16c-0.02,0.06-0.04,0.15-0.06,0.19l-0.06,0.16C14.02,4.97,14.01,5,14,5.02
		c-0.01,0-0.01,0.01-0.01,0.02c0,0.01-0.01,0.03-0.03,0.06c-0.02,0.02-0.03,0.08-0.05,0.12c-0.02,0.03-0.05,0.11-0.07,0.15
		c-0.02,0.04-0.04,0.08-0.04,0.09s-0.01,0.02-0.02,0.03c-0.01,0-0.02,0.02-0.02,0.04c0,0.01-0.02,0.06-0.05,0.11
		c-0.02,0.05-0.22,0.48-0.23,0.5c-0.01,0.02-0.01,0.05-0.02,0.06c-0.03,0.05-0.05,0.09-0.05,0.11c0,0.01,0,0.03-0.01,0.04
		s-0.03,0.07-0.05,0.13c-0.02,0.06-0.03,0.12-0.04,0.12s-0.02,0.05-0.02,0.06c0,0.01,0,0.02-0.01,0.03s-0.02,0.05-0.02,0.07
		c0,0.02-0.01,0.05-0.01,0.06c-0.02,0.02-0.06,0.35-0.05,0.38c0,0.01,0,0.03-0.01,0.04s-0.01,0.03,0,0.05c0,0.01,0,0.05-0.01,0.13
		c-0.01,0.07,0,0.14,0,0.17v0.14c0,0.04,0,0.09,0.01,0.11c0.01,0.02,0.01,0.09,0.01,0.15c0,0.1,0,0.11-0.02,0.13
		c-0.01,0.01-0.02,0.04-0.02,0.05c0,0.03-0.08,0.15-0.14,0.21c-0.03,0.03-0.07,0.06-0.1,0.07c-0.03,0.01-0.05,0.02-0.06,0.03
		c-0.01,0.01-0.03,0.03-0.07,0.04c-0.05,0.01-0.08,0.01-0.13,0.01c-0.07,0-0.23-0.05-0.29-0.08c-0.02-0.01-0.05-0.02-0.06-0.02
		c-0.02,0-0.05-0.02-0.06-0.03s-0.04-0.03-0.07-0.04c-0.03-0.01-0.08-0.03-0.11-0.05C12,8.28,11.88,8.1,11.85,8.01
		c-0.01-0.03-0.02-0.06-0.02-0.07c-0.02-0.03-0.04-0.1-0.04-0.17c0-0.04-0.01-0.1-0.02-0.14c0-0.01-0.02-0.1-0.03-0.16
		c0-0.06-0.02-0.13-0.02-0.15V7.24c0-0.02,0.01-0.06,0-0.09C11.71,7.12,11.71,7.06,11.71,7c0-0.17,0-0.2,0.02-0.17
		c0.01,0,0.02-0.02,0.01-0.04c-0.02-0.06-0.02-0.09,0.01-0.13c0.02-0.03,0.02-0.05,0.02-0.06s0.01-0.07,0.03-0.08
		c0.02-0.02,0.03-0.03,0.03-0.04s0.01-0.04,0.03-0.07c0.02-0.03,0.04-0.05,0.04-0.06s0.02-0.04,0.04-0.06
		c0.02-0.02,0.04-0.04,0.05-0.06c0.01-0.02,0.03-0.06,0.06-0.09c0.02-0.03,0.04-0.06,0.04-0.07c0-0.01,0.05-0.05,0.06-0.09
		c0.03-0.09,0.05-0.14,0.1-0.26c0-0.01,0.01-0.03,0.02-0.04c0.01-0.01,0.02-0.02,0.02-0.04c0-0.04,0.08-0.19,0.11-0.23
		c0.01-0.02,0.04-0.06,0.08-0.11c0.04-0.05,0.03-0.08,0.04-0.1c0.01-0.01,0.02-0.04,0.03-0.06c0.01-0.02,0.03-0.05,0.04-0.06
		s0.02-0.04,0.03-0.06c0.01-0.01,0.05-0.07,0.05-0.08c0.02-0.03,0.05-0.09,0.07-0.14c0.03-0.04,0.06-0.1,0.07-0.11
		s0.02-0.03,0.02-0.04s0.01-0.02,0.02-0.04c0.01-0.02,0.05-0.08,0.07-0.11c0.02-0.05,0.05-0.09,0.06-0.11
		c0.02-0.02,0.05-0.08,0.08-0.13c0.03-0.06,0.07-0.13,0.09-0.16c0.02-0.03,0.04-0.05,0.03-0.05c0-0.01,0-0.03,0.01-0.05
		c0.01-0.02,0.02-0.05,0.03-0.07c0.01-0.02,0.02-0.04,0.03-0.05c0.01-0.01,0.01-0.03,0.01-0.04c0.01-0.03,0.04-0.08,0.05-0.09
		c0.01,0,0.01-0.02,0.01-0.03c0-0.01,0.01-0.03,0.02-0.05c0.03-0.06,0.03-0.07,0.03-0.1c0-0.01,0-0.01,0.01-0.02
		c0.02-0.01,0.06-0.13,0.06-0.16c0-0.01,0-0.02,0.01-0.02s0.01-0.01,0.02-0.04c0.03-0.12,0.17-0.69,0.17-0.7s0-0.03,0.01-0.06
		c0.01-0.04,0.01-0.16,0.02-0.26c0.01-0.18,0.01-0.23,0-0.4c-0.01-0.1-0.02-0.19-0.03-0.19c-0.01,0,0-0.01,0-0.02
		c0.02-0.04-0.02-0.35-0.05-0.47c-0.01-0.03-0.02-0.06-0.02-0.1c-0.01-0.08-0.04-0.22-0.07-0.34c-0.01-0.05-0.03-0.09-0.02-0.1
		c0.01,0,0.01,0.01,0.02,0.04c0.02,0.05,0.03,0.06,0.04,0.04c0.01-0.02,0.04,0.01,0.07,0.08c0.02,0.03,0.03,0.07,0.04,0.06
		c0.01-0.01-0.02-0.17-0.03-0.21c0-0.01,0-0.01,0.02,0.01c0.04,0.03,0.1,0.07,0.11,0.06s0-0.02-0.01-0.05s-0.02-0.04-0.02-0.05
		C13.72,0.65,13.79,0.72,13.82,0.79z"/>
	<path fill="#9E5C4C" d="M20.57,0.29c0.01,0.01,0.01,0.02,0.03,0.02c0.02,0,0.07,0.03,0.11,0.07c0.1,0.11,0.16,0.23,0.13,0.32
		c-0.01,0.03-0.01,0.08,0,0.09c0.01,0.01,0.01,0.02,0,0.04C20.83,0.86,20.88,0.99,20.91,1c0.02,0.01,0.02,0.02,0.02,0.03
		c-0.01,0.02-0.01,0.09,0.01,0.1c0,0.01,0.01,0.02,0.02,0.03c0.01,0.01,0.02,0.01,0.03,0c0.02-0.02,0.03-0.02,0.11,0.04
		c0.04,0.03,0.07,0.05,0.08,0.04c0.01-0.01,0.03,0,0.04,0.01c0.01,0.01,0.03,0.02,0.04,0.02c0.01,0,0.01,0,0.03,0.01
		c0.02,0.01,0.07,0.02,0.1,0.03l0.12,0.03c0.07,0.03,0.11,0.03,0.65,0.16c0.04,0.01,0.1,0.04,0.16,0.08l0.14,0.06
		c0.03,0.02,0.11,0.1,0.13,0.15c0.01,0.02,0.02,0.03,0.02,0.06c0,0.04,0,0.05-0.05,0.1s-0.05,0.06-0.05,0.11
		c0,0.03,0,0.04-0.02,0.05c-0.02,0.01-0.02,0.02-0.02,0.06c0,0.06,0,0.09-0.05,0.12C22.4,2.3,22.39,2.3,22.38,2.3
		c-0.01,0-0.01,0.02,0,0.04c0.01,0.03,0.02,0.03,0,0.04c-0.01,0-0.02,0.02-0.03,0.05c-0.01,0.04-0.02,0.06-0.05,0.07
		c-0.03,0.01-0.06,0.01-0.07,0.01c-0.02,0-0.08,0-0.15,0.01c-0.13,0.02-0.2,0.02-0.19-0.01c0-0.01,0-0.02-0.01-0.02
		s-0.03,0-0.03-0.01c0-0.01-0.01-0.01-0.03-0.01c-0.01,0-0.03-0.01-0.06-0.03c-0.02-0.03-0.04-0.04-0.08-0.03
		c-0.02,0-0.04,0.01-0.04,0c0-0.01-0.07-0.03-0.14-0.04c-0.08-0.02-0.21-0.04-0.28-0.06c-0.17-0.04-0.18-0.04-0.17,0.04
		c0,0.03,0,0.06-0.01,0.07s0,0.02,0,0.03c0.01,0.01,0,0.04,0,0.08c0,0.03,0,0.06,0.01,0.06c0.01,0,0.02,0.03,0.02,0.1
		c0,0.17,0.01,0.38,0.03,0.4c0.02,0.02,0.04,0.03,0.09,0.03c0.04,0,0.1,0,0.13-0.01c0.03-0.01,0.2-0.02,0.38-0.02
		c0.3,0,0.57-0.01,0.65-0.03c0.02-0.01,0.04-0.02,0.05-0.01c0.01,0,0.02,0.01,0.04,0c0.02-0.01,0.03-0.01,0.06,0
		c0.02,0,0.12,0.01,0.21,0.01c0.19,0,0.27,0.03,0.29,0.06c0.01,0.01,0.02,0.04,0.04,0.07c0.03,0.05,0.03,0.07,0.01,0.1
		c-0.1,0.03-0.01,0.02,0,0.04c0.01,0,0.02,0.02,0.02,0.03s0,0.02,0.01,0.04c0.01,0.01,0.02,0.05,0.02,0.09s0.01,0.08,0.01,0.1
		c0.01,0.04,0,0.06-0.01,0.07c-0.01,0.01-0.01,0.03-0.01,0.04s0,0.03-0.01,0.05c-0.01,0.02-0.02,0.03-0.01,0.03
		c0.03,0.02-0.04,0.11-0.1,0.13c-0.03,0.01-0.05,0.01-0.1,0c-0.04-0.01-0.09-0.02-0.11-0.02c-0.02,0-0.06-0.01-0.09-0.02
		c-0.04-0.01-0.08-0.01-0.11-0.01s-0.05,0.01-0.05,0c0-0.01-0.02-0.01-0.04,0c-0.03,0.01-0.04,0.01-0.05,0
		c-0.01-0.01-0.01-0.01-0.04,0c-0.02,0.01-0.05,0.01-0.07,0.01c-0.02,0-0.05,0.01-0.07,0.01c-0.01,0-0.03,0-0.03-0.01
		s-0.01-0.01-0.03,0c-0.02,0-0.05,0.01-0.07,0.01c-0.04,0.01-0.04,0.01-0.04-0.01c0.01-0.02,0-0.02-0.05-0.02
		c-0.03,0-0.05,0-0.06,0.01c-0.01,0.01-0.08,0.02-0.08,0c-0.01,0.02-0.03,0.02-0.04,0.01s-0.01-0.01-0.02,0.01
		c-0.01,0.03-0.04,0.03-0.04,0c0-0.02-0.01-0.02-0.02-0.02s-0.02,0.01-0.05,0.01c-0.04,0-0.05,0-0.05,0.02
		c0,0.01-0.02,0.02-0.04,0.02h-0.07c-0.03,0-0.04,0-0.04-0.01c0-0.01-0.01-0.01-0.03-0.01c-0.03,0-0.04,0-0.04,0.02
		c0,0.01-0.01,0.02-0.02,0.02s-0.03,0.01-0.04,0.01s-0.02,0-0.02-0.01c0-0.01,0.01-0.02,0.02-0.02c-0.02-0.03-0.1-0.01-0.11,0.03
		c0,0.01-0.01,0.02-0.02,0.02s-0.01-0.01-0.01-0.02c0.01-0.03-0.02-0.01-0.05,0.03C21.16,4,21.16,4.01,21.17,4.03
		c0.01,0.01,0.01,0.02,0,0.02c-0.01,0.01-0.01,0.01,0,0.03c0.02,0.02,0.02,0.06,0,0.07c-0.01,0-0.01,0.01,0,0.03
		c0.01,0.01,0.02,0.04,0.02,0.06c0,0.02,0.01,0.08,0.02,0.13c0.01,0.05,0.03,0.15,0.03,0.21c0,0.07,0.01,0.22,0.01,0.25l0.01,0.03
		l0.23,0.09c0.13,0.05,0.26,0.08,0.3,0.09c0.04,0.01,0.09,0.02,0.1,0.03s0.05,0.01,0.07,0.01c0.07,0.01,0.11,0.02,0.12,0.04
		c0,0.01,0.02,0.02,0.04,0.02c0.03,0.01,0.05,0.04,0.05,0.09s0.01,0.06,0.05,0.06c0.01,0,0.03,0.01,0.07,0.03
		c0.03,0.02,0.07,0.06,0.1,0.08l0.05,0.04l-0.02,0.03c-0.01,0.02-0.01,0.03,0,0.04c0.01,0.01,0.03,0.1,0.03,0.15
		c0,0.02,0,0.04-0.02,0.06c-0.02,0.02-0.03,0.04-0.03,0.09c0,0.04,0,0.07-0.01,0.07c-0.01,0.01-0.03,0.01-0.05,0.01
		c-0.02,0-0.05,0.01-0.07,0.02c-0.04,0.02-0.09,0.04-0.15,0.02c-0.03-0.01-0.06-0.02-0.07-0.01c-0.02,0.01-0.11,0-0.12-0.03h-0.05
		c-0.01,0-0.03,0.01-0.04,0.01c-0.03,0.01-0.31,0.01-0.43,0c-0.07-0.01-0.13-0.02-0.14-0.01c0,0.01-0.01,0.18,0,0.21v0.05
		c-0.01,0.01-0.02,0.17-0.02,0.29c0,0.05-0.01,0.07-0.02,0.07c-0.01,0-0.01,0.02-0.01,0.04c0,0.02-0.01,0.07-0.02,0.11
		c-0.01,0.04-0.02,0.12-0.04,0.19C21.15,6.92,21.13,6.99,21.12,7c-0.01,0-0.02,0.03-0.03,0.06c-0.01,0.03-0.02,0.06-0.03,0.07
		c-0.01,0.01,0,0.03,0,0.04c0.01,0.02-0.09,0.36-0.13,0.42c-0.01,0.02-0.02,0.05-0.02,0.06c0,0.01-0.01,0.03-0.02,0.04
		c-0.01,0.01-0.02,0.03-0.02,0.04c0,0.01,0,0.03-0.01,0.04c-0.02,0.01-0.1,0.19-0.1,0.2s-0.01,0.02-0.02,0.02s-0.03,0.02-0.04,0.04
		c-0.02,0.05-0.13,0.17-0.15,0.17c-0.02,0.01-0.07,0.02-0.1,0.04c-0.06,0.03-0.13,0.05-0.23,0.07l-0.16,0.04
		c-0.05,0.01-0.11,0.02-0.13,0.02c-0.02,0-0.08,0.01-0.12,0.03c-0.05,0.02-0.12,0.04-0.15,0.04s-0.11,0.01-0.2,0.03
		c-0.12,0.04-0.16,0.04-0.25,0.04c-0.14,0-0.19,0-0.28-0.03c-0.04-0.01-0.11-0.03-0.16-0.04c-0.05-0.02-0.1-0.05-0.13-0.07
		c-0.01-0.02-0.05-0.03-0.06-0.03c-0.03-0.01-0.14-0.12-0.17-0.15c-0.01-0.02-0.01-0.03-0.02-0.03c-0.01,0-0.05-0.04-0.09-0.08
		c-0.04-0.04-0.09-0.09-0.11-0.1c-0.03-0.02-0.18-0.19-0.17-0.19c0.01,0-0.02-0.03-0.05-0.06c-0.03-0.02-0.06-0.09-0.08-0.14
		c-0.02-0.05-0.04-0.08-0.05-0.09c-0.01-0.01-0.02-0.02-0.02-0.03c0-0.02-0.02-0.07-0.04-0.11s-0.04-0.09-0.04-0.11
		c0-0.01-0.02-0.05-0.04-0.09c-0.04-0.11-0.06-0.21-0.06-0.37c0-0.19,0.01-0.25,0.07-0.37c0.03-0.06,0.07-0.13,0.08-0.14
		c0.01-0.02,0.02-0.04,0.03-0.04s0.03-0.03,0.05-0.06c0.02-0.03,0.05-0.07,0.06-0.08c0.02-0.01,0.07-0.07,0.12-0.14
		c0.1-0.12,0.19-0.21,0.34-0.36c0.05-0.04,0.08-0.07,0.08-0.08c0-0.01,0.02-0.02,0.03-0.03s0.05-0.06,0.07-0.09
		c0.03-0.04,0.06-0.08,0.09-0.09c0.03-0.02,0.06-0.03,0.06-0.04c0-0.01,0.01-0.01,0.03-0.02c0.02-0.01,0.08-0.05,0.13-0.09
		c0.07-0.05,0.13-0.08,0.14-0.08c0.04,0,0.1-0.02,0.11-0.03c0.01-0.01,0.03-0.01,0.07-0.01c0.03,0,0.13-0.01,0.2-0.02
		c0.09-0.01,0.19-0.03,0.29-0.03h0.17c0.01,0,0.02-0.01,0.01-0.04V4.79c0-0.08,0-0.22-0.01-0.25c-0.01-0.02-0.01-0.08-0.01-0.13
		c0-0.06-0.01-0.12-0.02-0.21c0-0.03,0-0.03-0.03-0.02c-0.02,0.01-0.04,0.01-0.05,0.02h-0.03c-0.01,0-0.03,0-0.05,0.01
		c-0.05,0.02-0.22,0.08-0.25,0.08c-0.01,0-0.03,0.01-0.04,0.02s-0.02,0.01-0.03,0c-0.03-0.02-0.18,0.02-0.24,0.05
		c-0.01,0-0.03,0.01-0.04,0.01s-0.02,0-0.03,0.01c-0.01,0.01-0.03,0.02-0.07,0.02c-0.03,0-0.08,0.01-0.1,0.01h-0.05
		c-0.01,0-0.03,0.01-0.05,0.02s-0.06,0.01-0.15,0.01s-0.13,0-0.13,0.01c0,0.01,0,0.01-0.02,0c-0.01-0.01-0.04-0.01-0.05-0.01
		s-0.04,0.01-0.08,0.01s-0.07,0-0.07,0.01c0,0.01,0,0.01-0.01,0.02s-0.01,0.01-0.06-0.01c-0.05-0.02-0.06-0.02-0.07-0.01
		c-0.02,0.02-0.06,0.02-0.06,0c0-0.01-0.01-0.01-0.02,0c-0.01,0.01-0.02,0.01-0.03,0c-0.01-0.01-0.02-0.01-0.05,0
		c-0.02,0-0.06,0.01-0.09,0c-0.03-0.01-0.05,0-0.06,0c-0.01,0.01-0.07,0.01-0.13,0.01c-0.01,0-0.02,0-0.02,0.01s0,0-0.02,0
		c-0.02-0.01-0.03,0-0.03,0.01c-0.01,0.02-0.1,0.03-0.12,0.02c-0.01-0.01-0.02-0.01-0.04,0c-0.01,0-0.03,0-0.14-0.03
		c-0.17-0.06-0.17-0.06-0.16-0.07c0.01-0.01-0.01-0.02-0.04-0.03c-0.06-0.02-0.07-0.03-0.04-0.03c0.01,0,0.03-0.01,0.04-0.01
		c0.01-0.01,0-0.01-0.02-0.01c-0.02,0-0.02,0-0.03-0.01c0.02-0.01,0-0.03-0.04-0.03C17,4.28,16.99,4.27,16.99,4.26
		c0-0.02-0.02-0.04-0.03-0.05l0.03-0.02c0.03-0.01,0.06-0.02,0.07-0.02s0.01-0.01,0-0.02c-0.02-0.02,0-0.03,0.06-0.05
		c0.05-0.02,0.05-0.02,0.02-0.02h-0.03l0.02-0.02c0.01-0.01,0.03-0.01,0.02-0.02c-0.02-0.02,0.28-0.09,0.37-0.09
		c0.02,0,0.05-0.01,0.07-0.02c0.06-0.02,0.13-0.02,0.14-0.01c0.01-0.01,0.04-0.01,0.06-0.01c0.01,0,0.06-0.02,0.08-0.03
		c0.03-0.01,0.04-0.01,0.05,0c0.01,0.01,0.03,0,0.05-0.01c0.02-0.01,0.06-0.01,0.1-0.02c0.04-0.01,0.07-0.02,0.08-0.03
		c0.02-0.01,0.04-0.01,0.05,0c0.01,0.01,0.11,0,0.13-0.01c0.01-0.01,0.03-0.01,0.05-0.01c0.01,0,0.03-0.01,0.04-0.02
		c0.02-0.02,0.04-0.03,0.07-0.03c0.02,0,0.07-0.02,0.09-0.03c0.03-0.01,0.04-0.02,0.05-0.02c0.02,0.01,0.13-0.02,0.17-0.04
		c0.02-0.01,0.05-0.02,0.07-0.01c0.02,0,0.02,0,0.03-0.02c0.01-0.01,0.02-0.02,0.03-0.02c0.01,0,0.05,0,0.08-0.01
		c0.03-0.01,0.08-0.03,0.1-0.03c0.01,0,0.05-0.01,0.07-0.02c0.02-0.01,0.1-0.04,0.16-0.06c0.05-0.02,0.12-0.05,0.14-0.06
		c0.02-0.01,0.05-0.03,0.06-0.03s0.05-0.01,0.1-0.04c0.05-0.03,0.11-0.05,0.14-0.06c0.05-0.02,0.05-0.03,0.04-0.05
		c-0.01-0.01-0.01-0.02,0-0.02c0.01-0.01,0.01-0.02,0.01-0.06V3c0.01-0.04,0.01-0.1,0-0.17V2.68c0.01-0.04,0.01-0.06,0-0.07V2.54
		c0-0.06,0-0.08-0.01-0.09c-0.02-0.02-0.11-0.01-0.16,0.02c-0.02,0.01-0.05,0.02-0.06,0.02c-0.01,0-0.02,0.01-0.04,0.02
		c-0.02,0.01-0.03,0.02-0.04,0.02c-0.02,0-0.33,0.16-0.39,0.2c-0.02,0.02-0.11,0.07-0.2,0.12c-0.12,0.07-0.15,0.07-0.18,0.07
		c-0.02,0-0.07,0-0.11,0.01c-0.03,0.01-0.08,0.02-0.1,0.02c-0.02,0-0.05-0.01-0.06,0c-0.03,0.01-0.17,0.02-0.29,0.02
		c-0.06,0-0.09,0-0.13-0.02C18.04,2.94,18,2.93,17.98,2.93c-0.02,0-0.04-0.02-0.07-0.05c-0.01-0.02-0.06-0.05-0.08-0.06
		c-0.02-0.01-0.04-0.04-0.05-0.05c-0.01-0.02-0.02-0.03-0.04-0.03c-0.01,0-0.03-0.01-0.04-0.02S17.68,2.7,17.67,2.7
		c-0.01,0-0.01-0.01-0.01-0.02c0-0.04-0.01-0.04-0.03-0.04c-0.03,0.01-0.09-0.02-0.09-0.05c0-0.01-0.02-0.02-0.06-0.03
		s-0.05-0.01-0.05-0.03c-0.01,0-0.03-0.01-0.04-0.02s-0.03-0.02-0.04-0.02s-0.01-0.01-0.01-0.02s0-0.03-0.01-0.04
		c-0.01-0.01-0.02-0.03-0.02-0.04s0-0.01-0.02-0.01c-0.02,0-0.03,0-0.03-0.01c0-0.02-0.07-0.07-0.09-0.07
		c-0.02,0-0.08-0.06-0.11-0.12c-0.01-0.02-0.01-0.03,0-0.04c0.02-0.01,0-0.03-0.05-0.05c-0.02,0-0.04-0.03-0.06-0.05
		C16.94,2.01,16.93,2,16.91,2c-0.02,0-0.03-0.01-0.05-0.05c-0.01-0.03-0.02-0.06-0.03-0.08c-0.02-0.03-0.02-0.04,0.01-0.04
		c0.02,0,0.01-0.01-0.03-0.07c-0.04-0.07-0.04-0.08-0.03-0.1c0.01-0.01,0.01-0.02,0.02-0.02c0.03,0,0.04-0.06,0.01-0.08
		c-0.02-0.02-0.03-0.04-0.01-0.04c0.01,0,0.02-0.02,0.01-0.05c-0.01-0.04-0.01-0.05,0.01-0.06c0.01-0.01,0.03-0.02,0.03-0.03
		c0-0.01,0.02-0.02,0.03-0.02c0.02,0,0.02-0.01,0.02-0.02c0-0.01,0.01-0.01,0.02-0.01c0.02,0,0.03-0.02,0.04-0.05
		c0.02-0.04,0.02-0.04,0.04-0.03c0.02,0,0.03,0,0.03-0.01s0.01-0.01,0.02-0.01s0.02-0.01,0.03-0.02c0.01-0.01,0.04-0.02,0.05-0.02
		s0.05-0.02,0.06-0.04c0.05-0.04,0.06-0.04,0.07-0.02c0.01,0.01,0.02,0,0.04-0.01c0.02-0.01,0.03-0.01,0.05,0
		c0.02,0.01,0.02,0.01,0.04,0c0.01-0.01,0.02-0.02,0.03-0.01c0.01,0.01,0.07,0.04,0.07,0.03s0.03-0.01,0.05-0.01
		c0.03,0,0.05-0.01,0.06-0.02s0.02-0.01,0.03-0.01h0.02c0.01-0.01,0.02-0.02,0.04-0.02c0.04-0.01,0.19,0.02,0.21,0.04
		c0.01,0.01,0.02,0.01,0.03,0.01c0.02-0.01,0.08,0.03,0.08,0.05c0,0.02,0.04,0.02,0.06,0.01c0.02-0.01,0.03-0.01,0.04,0
		s0.01,0.01,0.02,0s0.02,0,0.04,0.01c0.03,0.02,0.14,0.01,0.18-0.01c0.02-0.01,0.03,0,0.02,0.02c-0.01,0.03,0.02,0.05,0.05,0.03
		c0.02-0.01,0.03-0.01,0.05,0.01l0.02,0.02l0.04-0.04c0.04-0.05,0.06-0.05,0.06-0.01v0.02l0.06-0.01c0.06-0.01,0.07,0,0.08,0.02
		c0,0.01,0.01,0.01,0.04-0.02c0.03-0.03,0.04-0.03,0.04-0.02c0.01,0.01,0.02,0.01,0.03,0.01c0.03-0.01,0.06-0.01,0.06,0
		c0,0.02,0.02,0.02,0.08,0c0.04-0.02,0.05-0.02,0.06-0.01c0.01,0.01,0.02,0.01,0.05,0c0.02-0.01,0.03-0.01,0.05,0
		c0.01,0.01,0.03,0.01,0.05,0c0.02-0.01,0.05-0.01,0.07-0.01c0.06,0,0.19-0.02,0.23-0.04c0.02-0.01,0.04-0.01,0.05-0.01
		c0.02,0.01,0.1,0.03,0.11,0.02c0.01,0,0.02-0.02,0.04-0.02c0.02,0,0.04,0,0.05-0.01c0.01-0.01,0.02-0.01,0.03,0
		c0.01,0.01,0.01,0.01,0.03,0c0.02-0.01,0.03-0.01,0.03,0c0,0.02,0.02,0.01,0.03-0.03c0.02-0.03,0.02-0.03,0.05-0.01h0.04
		c0.02,0,0.02-0.01,0.02-0.02c-0.01-0.02,0-0.03,0.02-0.04c0.02-0.01,0.02-0.02,0.02-0.07c0-0.04,0.01-0.05,0.04-0.08
		c0.02-0.02,0.04-0.04,0.05-0.07c0.02-0.03,0.04-0.06,0.04-0.07c0.01-0.05,0-0.06-0.01-0.1c-0.01-0.03-0.01-0.04,0-0.05
		s0.01-0.02,0.01-0.03c0-0.02,0.01-0.03,0.04-0.03c0.04,0,0.07-0.02,0.11-0.09c0.02-0.03,0.03-0.05,0.04-0.05
		c0.01,0,0.02,0.02,0.03,0.02s0.01-0.01,0.01-0.03c0-0.02,0.01-0.04,0.02-0.04s0.03,0,0.03-0.01c0.01-0.02,0.02-0.02,0.06-0.02
		c0.04,0,0.06,0,0.07-0.02C20.56,0.28,20.56,0.28,20.57,0.29z M19.59,5.96C19.55,5.98,19.48,5.99,19.44,6s-0.08,0.02-0.09,0.03
		c0,0.01-0.03,0.01-0.05,0.01c-0.02,0-0.08,0.01-0.15,0.02c-0.09,0.02-0.13,0.03-0.19,0.07c-0.13,0.08-0.16,0.11-0.16,0.18v0.11
		c0,0.07,0,0.08,0.04,0.15c0.05,0.13,0.18,0.3,0.23,0.35c0.04,0.04,0.04,0.04,0.11,0.04c0.07,0,0.07,0,0.15-0.05
		c0.04-0.03,0.09-0.06,0.11-0.07c0.06-0.03,0.19-0.18,0.19-0.21c0-0.01,0.01-0.03,0.03-0.05c0.02-0.03,0.03-0.05,0.03-0.07
		c0-0.05,0.02-0.1,0.04-0.13c0.02-0.02,0.06-0.15,0.09-0.29c0.01-0.05,0.01-0.08,0.01-0.1c0.01-0.02,0.01-0.04,0-0.05
		c0.01-0.01,0.03-0.03,0.03-0.05C19.86,5.88,19.71,5.92,19.59,5.96z M21.17,3.84c0.01,0,0.02,0.01,0.03,0
		C21.21,3.83,21.18,3.83,21.17,3.84z M21.28,3.81c-0.01,0.01,0,0.01,0.02,0.01c0.02,0,0.03,0,0.04-0.01H21.28z M21.38,3.8
		c-0.01,0-0.02,0-0.02,0.01C21.36,3.82,21.37,3.82,21.38,3.8c0.02,0.01,0.03,0.01,0.03,0H21.38z"/>
	<path fill="#9E5C4C" d="M26.63,0.66c0.02,0,0.06,0.04,0.07,0.06c0,0.01,0.02,0.02,0.03,0.02c0.01,0,0.01,0.02,0.02,0.04
		c0.01,0.02,0.02,0.04,0.03,0.04s0.03,0.02,0.04,0.04c0.01,0.01,0.04,0.06,0.06,0.1c0.02,0.05,0.03,0.07,0.03,0.1s0,0.05,0.03,0.09
		c0.02,0.03,0.06,0.09,0.08,0.14c0.02,0.05,0.06,0.09,0.07,0.11s0.05,0.1,0.09,0.19c0.04,0.08,0.09,0.17,0.1,0.18
		c0.01,0.01,0.02,0.05,0.03,0.07c0.01,0.03,0.04,0.09,0.06,0.13l0.05,0.11c0.01,0.02,0.03,0.06,0.05,0.08
		c0.02,0.02,0.04,0.06,0.05,0.08c0.01,0.02,0.03,0.05,0.04,0.06s0.02,0.02,0.02,0.03s0.01,0.03,0.02,0.04
		c0.01,0.01,0.01,0.03,0.01,0.04c0,0.01,0,0.01,0.01,0.02c0.01,0,0.03,0.03,0.04,0.06c0.02,0.03,0.04,0.06,0.05,0.08
		c0.03,0.04,0.06,0.1,0.06,0.12c0,0.01,0.02,0.03,0.04,0.06l0.04,0.04h0.03c0.02-0.01,0.09-0.03,0.14-0.04
		c0.11-0.03,0.17-0.06,0.2-0.08c0.01-0.01,0.04-0.02,0.06-0.02c0.02,0,0.14-0.04,0.28-0.09l0.25-0.08V2.44c0-0.03,0-0.05-0.01-0.06
		s-0.01-0.03-0.01-0.05c0-0.02,0-0.06-0.01-0.1c-0.01-0.07-0.01-0.09,0-0.1c0.02-0.03,0.02-0.08-0.01-0.09
		C28.75,2.03,28.74,2,28.75,1.98c0.01-0.01,0.01-0.02,0-0.03c-0.01-0.01-0.02-0.03-0.02-0.05c0-0.04-0.02-0.07-0.05-0.1
		c-0.02-0.02-0.27-0.11-0.3-0.11c-0.01,0-0.02-0.01-0.03-0.01c-0.01-0.01-0.01-0.01-0.03,0c-0.01,0.01-0.03,0.01-0.06-0.01
		c-0.03-0.02-0.03-0.02-0.05-0.01c-0.02,0.02-0.11,0.01-0.12-0.01c0-0.01-0.01-0.01-0.03-0.01c-0.02,0-0.09-0.02-0.09-0.03
		s0-0.02-0.01-0.04c-0.01-0.03-0.01-0.07-0.01-0.08c0.01-0.02,0.09-0.07,0.11-0.06c0.01,0,0.02,0,0.02-0.01
		c0.01-0.02,0.04-0.03,0.06-0.01c0.01,0.01,0.02,0.02,0.03,0.02c0.01,0.04,0.2,0.06,0.26,0.03c0.01-0.01,0.05-0.02,0.07-0.02
		c0.03,0,0.06-0.01,0.11-0.03c0.04-0.02,0.09-0.05,0.11-0.06c-0.01-0.01-0.01-0.02,0.01-0.02c0.02,0,0.06-0.05,0.07-0.08
		c0-0.02,0.08-0.08,0.11-0.08c0.01,0,0.04-0.01,0.05-0.02c0.02-0.01,0.07-0.03,0.11-0.04c0.05,0,0.1-0.01,0.11-0.02
		c0.02-0.01,0.06-0.01,0.11,0.02h0.03c0.01-0.02,0.14,0.01,0.19,0.06c0.03,0.03,0.04,0.08,0.04,0.13c0,0.04,0.01,0.05,0.02,0.05
		c0.01,0.01,0.02,0.03,0.02,0.04c-0.01,0.02,0.02,0.11,0.05,0.14c0.01,0.01,0.03,0.06,0.04,0.08c0.02,0.06,0.06,0.13,0.08,0.15V1.8
		c0,0.01,0.02,0.03,0.04,0.04c0.03,0.02,0.03,0.03,0.03,0.06c0,0.03,0.01,0.07,0.04,0.12c0.02,0.04,0.04,0.09,0.04,0.1
		c0,0.02,0,0.02,0.05,0.02c0.03,0,0.04,0,0.05-0.01s0.27,0,0.3,0.01c0.02,0.01,0.04,0.01,0.06,0.01c0.02,0,0.04,0,0.05,0.01
		c0.01,0.01,0.04,0.02,0.06,0.03c0.03,0.01,0.06,0.01,0.07,0.02c0.01,0.01,0.02,0,0.03,0s0.03,0,0.04,0.01s0.13,0.05,0.26,0.09
		C31,2.35,31.11,2.39,31.12,2.4c0.01,0.01,0.03,0.03,0.05,0.03s0.05,0.03,0.1,0.05c0.05,0.02,0.09,0.04,0.1,0.04
		c0.02,0,0.13,0.05,0.14,0.06c0.01,0.01,0.03,0.01,0.06,0.02c0.03,0.01,0.06,0.03,0.07,0.04s0.04,0.02,0.06,0.03
		c0.02,0.01,0.07,0.04,0.11,0.06l0.12,0.06c0.03,0.01,0.06,0.03,0.06,0.04c0,0.01,0.03,0.03,0.05,0.04
		c0.02,0.01,0.07,0.05,0.11,0.08c0.03,0.03,0.08,0.06,0.1,0.08c0.06,0.03,0.21,0.21,0.26,0.27c0.05,0.08,0.1,0.17,0.1,0.19
		c0,0.01,0.01,0.03,0.02,0.05c0.01,0.05,0.01,0.19,0,0.29c-0.01,0.08-0.05,0.23-0.06,0.26c-0.01,0.01-0.02,0.05-0.03,0.09
		s-0.03,0.08-0.05,0.11c-0.01,0.03-0.03,0.05-0.03,0.06s-0.03,0.08-0.06,0.16c-0.02,0.09-0.06,0.19-0.07,0.22
		C32.31,4.81,32.23,5,32.18,5.1c-0.03,0.07-0.07,0.18-0.07,0.21c0,0.01,0,0.02-0.01,0.02c-0.01,0.01-0.01,0.03-0.02,0.06
		c-0.01,0.03-0.03,0.05-0.04,0.07c-0.01,0.02-0.01,0.03-0.01,0.04s-0.01,0.03-0.02,0.05C32,5.57,31.99,5.58,31.99,5.59
		s-0.01,0.03-0.03,0.05c-0.02,0.02-0.04,0.04-0.05,0.06c-0.04,0.07-0.16,0.15-0.25,0.18c-0.24,0.05-0.31,0.06-0.54,0.08
		c-0.24,0.02-0.32,0.02-0.4-0.01c-0.02-0.01-0.08-0.04-0.13-0.04c-0.05-0.01-0.11-0.03-0.12-0.05c-0.02-0.02-0.04-0.03-0.05-0.03
		c-0.03,0-0.12-0.07-0.12-0.1c0-0.01-0.01-0.02-0.03-0.04c-0.02-0.02-0.03-0.05-0.03-0.1c-0.01-0.08-0.02-0.12-0.04-0.14
		c-0.02-0.02-0.03-0.17-0.01-0.21c0.02-0.04,0-0.05-0.02-0.05c-0.01,0,0-0.02,0-0.03s0-0.03-0.01-0.03c-0.01,0-0.02-0.02-0.02-0.04
		c0-0.03-0.02-0.06-0.06-0.1c-0.04-0.04-0.04-0.04-0.02-0.04s0.02,0,0-0.07c-0.02-0.06-0.04-0.08-0.07-0.11
		c-0.03-0.02-0.05-0.05-0.06-0.06c-0.02-0.05-0.01-0.17,0.02-0.23C29.98,4.44,30,4.4,30.01,4.41c0.01,0,0.02-0.01,0.04-0.02
		c0.02-0.01,0.07-0.04,0.11-0.06c0.04-0.02,0.07-0.04,0.08-0.05c0-0.01,0.03-0.01,0.05-0.02c0.03-0.01,0.06-0.02,0.09-0.04
		l0.09-0.09l-0.01-0.08c-0.02-0.17-0.09-0.31-0.22-0.45l-0.05-0.07h0.03c0.04,0.01,0.1,0.04,0.14,0.08
		c0.07,0.07,0.15,0.21,0.24,0.37c0.1,0.17,0.15,0.25,0.17,0.26c0,0.01,0.01,0.02,0.02,0.03s0.04,0.05,0.06,0.09
		c0.02,0.04,0.05,0.07,0.06,0.08c0.01,0,0.03,0.02,0.04,0.03c0.02,0.04,0.13,0.05,0.22,0.02c0.09-0.02,0.11-0.04,0.18-0.18
		c0.03-0.07,0.07-0.14,0.08-0.18s0.01-0.07,0.01-0.08s0.02-0.06,0.03-0.13c0.04-0.25,0.04-0.33-0.02-0.37
		c-0.01-0.01-0.04-0.04-0.06-0.05c-0.02-0.02-0.08-0.05-0.13-0.07c-0.05-0.02-0.15-0.07-0.23-0.11c-0.07-0.04-0.14-0.07-0.15-0.06
		c-0.01,0.01-0.03,0-0.05-0.01c-0.08-0.04-0.36-0.16-0.38-0.16c-0.01,0-0.03-0.01-0.05-0.02l-0.14-0.06
		c-0.05-0.03-0.12-0.05-0.14-0.06c-0.02-0.01-0.08-0.04-0.14-0.06l-0.12-0.04l-0.03,0.02c-0.04,0.02-0.16,0.16-0.16,0.17
		c0,0.01-0.02,0.01-0.04,0.02c-0.02,0.01-0.04,0.03-0.06,0.04c-0.01,0.01-0.04,0.02-0.05,0.02c-0.01,0-0.01,0-0.02,0.01
		c-0.01,0.01-0.05,0.02-0.15,0.03c-0.12,0.01-0.13,0.01-0.18-0.01C29.11,3.12,29.04,3.07,29,3.02l-0.03-0.05L28.88,3
		c-0.05,0.01-0.08,0.03-0.09,0.03c-0.01,0.01-0.03,0.01-0.06,0H28.7l0.03-0.01C28.75,3.01,28.79,3,28.8,2.99
		c0.03-0.01,0.07-0.02,0.09-0.03c0.02-0.01,0.03-0.01,0.04-0.01c0.01,0,0.01-0.01,0-0.02c-0.01-0.01-0.04-0.01-0.11,0.02
		C28.73,3,28.67,3,28.67,2.99s-0.02,0-0.04,0.02c-0.02,0.01-0.06,0.02-0.09,0.03c-0.04,0.01-0.09,0.03-0.1,0.04
		c-0.01,0.01-0.08,0.04-0.15,0.08c-0.15,0.07-0.2,0.1-0.17,0.1c0.01,0,0.04-0.01,0.06-0.02c0.02-0.01,0.04-0.02,0.05-0.02
		s0.04-0.01,0.08-0.03c0.03-0.02,0.1-0.05,0.15-0.06c0.07-0.02,0.1-0.03,0.1-0.04c0.01-0.02,0.03-0.02,0.03,0
		c0,0.01-0.18,0.09-0.19,0.08c-0.01-0.01-0.03,0.01-0.05,0.03c-0.02,0.02-0.04,0.05-0.06,0.05c-0.01,0-0.03,0-0.04,0.01
		c-0.01,0-0.04,0.01-0.07,0.03c-0.07,0.04-0.09,0.05-0.06,0.11c0.01,0.03,0.05,0.11,0.08,0.19c0.03,0.08,0.08,0.18,0.11,0.24
		c0.02,0.06,0.05,0.11,0.04,0.12s0,0.04,0.02,0.07c0.02,0.05,0.03,0.11,0.03,0.16s0.01,0.08,0.02,0.1c0.01,0.02,0.02,0.06,0.02,0.1
		c0.02,0.2,0.02,0.37,0.03,0.47c0.01,0.1,0.01,0.11,0.04,0.17c0.02,0.04,0.04,0.09,0.04,0.12c0,0.03,0.01,0.07,0.02,0.1
		c0.02,0.03,0.03,0.08,0.04,0.11c0.01,0.03,0.02,0.07,0.03,0.08c0.01,0,0.02,0.04,0.03,0.08c0.01,0.04,0.03,0.09,0.04,0.11
		c0,0.01,0.02,0.06,0.03,0.1c0.02,0.08,0.04,0.12,0.08,0.17c0.03,0.02,0.03,0.03,0.03,0.06c0,0.02-0.01,0.04,0,0.04
		c0.02-0.01,0.06,0.04,0.06,0.07c0,0.01,0.02,0.04,0.03,0.06c0.02,0.02,0.02,0.03,0.02,0.05c0,0.01,0.03,0.07,0.06,0.13
		c0.08,0.16,0.11,0.22,0.1,0.24c-0.01,0.01-0.01,0.03,0.01,0.07c0.01,0.02,0.02,0.05,0.02,0.06c0,0.01,0.01,0.03,0.02,0.04
		c0.01,0.01,0.03,0.04,0.03,0.06c0,0.02,0.01,0.03,0.02,0.03c0.01,0,0.02,0.05,0.02,0.1c0,0.02,0,0.05,0.01,0.07
		c0.02,0.04,0.08,0.23,0.07,0.25c0,0.01,0,0.02,0.01,0.03c0.03,0.03,0.07,0.21,0.06,0.24c-0.01,0.02-0.01,0.02,0,0.03
		c0.01,0.01,0.01,0.07,0.01,0.12c0,0.11-0.01,0.13-0.02,0.14l-0.03,0.03l0.02,0.04c0.01,0.05,0.01,0.05,0,0.07
		c-0.01,0.01-0.02,0.03-0.02,0.04s-0.01,0.05-0.02,0.09c-0.01,0.03-0.02,0.07-0.02,0.08c0,0.01,0.01,0.03-0.01,0.04
		c-0.01,0.01-0.02,0.03-0.02,0.04c0,0.01-0.01,0.03-0.02,0.03c-0.04,0.01-0.08,0.05-0.07,0.06c0.02,0.01,0.01,0.02-0.01,0.03
		c-0.01,0-0.05,0.04-0.09,0.07S29.03,8.46,29,8.47c-0.02,0.01-0.04,0.02-0.05,0.03c-0.01,0.01-0.02,0.01-0.03,0
		c-0.01-0.01-0.03,0-0.06,0c-0.1,0.02-0.31-0.01-0.37-0.06c-0.03-0.02-0.11-0.08-0.16-0.11l-0.02-0.02c0-0.01-0.01-0.01-0.03-0.02
		c-0.04-0.02-0.09-0.07-0.1-0.12c-0.01-0.02-0.01-0.04-0.02-0.04c-0.01,0-0.02-0.02-0.03-0.04c-0.01-0.02-0.03-0.07-0.05-0.11
		c-0.03-0.04-0.05-0.08-0.05-0.09s-0.01-0.02-0.02-0.03C28.01,7.85,28,7.83,27.99,7.81c-0.01-0.02-0.02-0.05-0.03-0.07
		c-0.02-0.04-0.05-0.13-0.05-0.16c0-0.01,0-0.04-0.01-0.07s-0.02-0.05-0.01-0.06c0-0.01-0.01-0.02-0.02-0.03
		c-0.01-0.01-0.02-0.04-0.02-0.07c0-0.03-0.02-0.07-0.03-0.08c-0.01-0.01-0.02-0.05-0.03-0.07c-0.01-0.04-0.09-0.22-0.13-0.31
		c-0.01-0.02-0.02-0.03-0.02-0.05c0-0.01-0.03-0.06-0.04-0.09c-0.02-0.04-0.04-0.08-0.04-0.09c0-0.07,0.01-0.14,0.04-0.18
		c0.01-0.03,0.02-0.06,0.02-0.07c0-0.01,0-0.02,0.01-0.02c0.01-0.01,0.01-0.02,0-0.03s-0.01-0.03-0.01-0.05
		c0-0.02-0.01-0.06-0.01-0.08c-0.01-0.02-0.02-0.05-0.02-0.06s0-0.02-0.01-0.02c-0.01-0.01-0.02-0.03-0.03-0.06
		c0-0.03-0.02-0.07-0.03-0.09c-0.01-0.02-0.02-0.08-0.03-0.11c-0.04-0.13-0.15-0.48-0.16-0.48s-0.02-0.02-0.02-0.05
		s-0.02-0.09-0.04-0.15c-0.02-0.05-0.03-0.1-0.03-0.11c0-0.01-0.01-0.03-0.02-0.06c-0.01-0.03-0.03-0.09-0.04-0.13
		c-0.01-0.05-0.03-0.1-0.04-0.12c-0.01-0.02-0.02-0.08-0.04-0.21c-0.02-0.11-0.03-0.2-0.04-0.22c-0.01-0.02-0.01-0.07-0.01-0.1
		s0-0.09-0.01-0.14l-0.01-0.09l-0.05,0.03c-0.02,0.02-0.07,0.04-0.09,0.06c-0.01,0.02-0.05,0.05-0.08,0.07
		c-0.09,0.05-0.16,0.11-0.19,0.18c-0.02,0.03-0.05,0.09-0.07,0.1c-0.02,0.02-0.04,0.05-0.04,0.07c-0.01,0.02-0.02,0.04-0.03,0.05
		s-0.02,0.02-0.02,0.03c0,0.01,0.01,0.03,0,0.03c-0.01,0.01-0.01,0.01-0.01,0.02c0,0.01,0,0.03-0.01,0.03s-0.02,0.01-0.02,0.03
		C26.41,4.78,26.21,4.97,26.14,5c-0.02,0.01-0.04,0.02-0.04,0.03s-0.04,0.02-0.07,0.03C26,5.07,25.97,5.07,25.96,5.08
		c-0.01,0.01-0.17,0.04-0.24,0.04c-0.02,0-0.03-0.01-0.05-0.02c-0.01-0.01-0.03-0.02-0.04-0.02S25.58,5.04,25.54,5
		c-0.05-0.05-0.08-0.06-0.1-0.06c0-0.01-0.03-0.02-0.06-0.04s-0.06-0.05-0.07-0.06c-0.01-0.01-0.03-0.02-0.04-0.02
		c-0.01,0-0.03-0.05-0.06-0.11c-0.02-0.05-0.05-0.11-0.06-0.12c-0.01-0.01-0.02-0.04-0.02-0.07c0-0.04-0.02-0.05-0.03-0.05
		c-0.01,0-0.02-0.01-0.02-0.02c0-0.01-0.01-0.04-0.03-0.05c-0.01-0.01-0.02-0.03-0.03-0.06C25.01,4.25,25,4.23,24.96,4.18
		c-0.03-0.03-0.06-0.07-0.07-0.07c-0.01,0-0.02-0.02-0.02-0.03c0-0.05-0.03-0.1-0.05-0.11C24.8,3.96,24.8,3.95,24.8,3.93
		c0-0.02-0.01-0.05-0.03-0.08c-0.02-0.03-0.03-0.06-0.03-0.07s0-0.03-0.01-0.04c-0.01-0.04-0.01-0.11,0-0.13
		c0.01-0.01,0.01-0.04,0.01-0.05c0-0.01,0.02-0.04,0.03-0.06c0.02-0.04,0.02-0.06,0.01-0.07c-0.01-0.01,0-0.02,0.01-0.03
		s0.02-0.02,0.02-0.04c0-0.02,0-0.04,0.01-0.04c0.01-0.01,0.03-0.02,0.04-0.04c0.01-0.01,0.03-0.05,0.05-0.07
		c0.02-0.02,0.05-0.06,0.06-0.09c0.02-0.07,0.04-0.09,0.08-0.08c0.04,0.01,0.07,0,0.1-0.05c0.02-0.04,0.02-0.04,0.04-0.04
		c0.02,0,0.03-0.01,0.05-0.02l0.03-0.02l0.05,0.02c0.03,0.01,0.08,0.04,0.09,0.05c0.02,0.01,0.03,0.01,0.04,0.01
		c0.02,0,0.03,0.01,0.04,0.02c0.01,0.01,0.04,0.02,0.09,0.02c0.04,0.01,0.08,0.03,0.09,0.04c0.02,0.02,0.05,0.04,0.11,0.06
		c0.02,0.01,0.06,0.01,0.07,0.02c0.01,0,0.07,0.01,0.11,0.01c0.07,0,0.09,0.01,0.11,0.02c0.01,0.01,0.02,0.01,0.03,0
		c0.01-0.01,0.02-0.01,0.06,0c0.02,0,0.05,0,0.07-0.01c0.02-0.01,0.03-0.02,0.04-0.01s0.03,0.01,0.08,0
		c0.04-0.01,0.06-0.01,0.07-0.01c0.01,0.01,0.12,0,0.16-0.02c0.02-0.01,0.04,0,0.06,0c0.01,0,0.03,0,0.05-0.01
		c0.01-0.01,0.03-0.02,0.05-0.02c0.04,0,0.08-0.02,0.08-0.04c-0.01-0.05-0.03-0.17-0.04-0.18c-0.01-0.01-0.02-0.05-0.03-0.09
		c-0.02-0.13-0.1-0.39-0.1-0.4c-0.01-0.01,0-0.02,0-0.04c0-0.02,0-0.05-0.02-0.09c-0.01-0.04-0.03-0.11-0.04-0.16
		c0-0.04-0.01-0.09-0.02-0.1s-0.01-0.04-0.01-0.06c0-0.02-0.01-0.06-0.02-0.1c-0.01-0.03-0.02-0.07-0.02-0.08
		c0-0.01,0-0.04-0.01-0.07c-0.03-0.1-0.07-0.28-0.09-0.45c-0.02-0.19-0.03-0.23-0.03-0.26c0.02,0,0.02-0.01,0.03-0.03
		c0.01-0.02,0.02-0.03,0.03-0.03s0.02,0,0.01-0.03c0-0.02-0.02-0.04-0.02-0.05c0-0.02,0-0.03,0.02-0.02c0.02,0,0.02,0.01,0.03-0.01
		c0.01-0.01,0.04-0.06,0.07-0.09C26.59,0.68,26.62,0.66,26.63,0.66z M28.88,2.85c-0.07,0.01-0.37,0.13-0.41,0.16
		c-0.03,0.02-0.01,0.03,0.03,0.02c0-0.01,0-0.02,0.05-0.03c0.02-0.01,0.06-0.03,0.08-0.03c0.02,0,0.06-0.02,0.08-0.03
		c0.02-0.01,0.05-0.02,0.09-0.03c0.08-0.02,0.09-0.03,0.09-0.04C28.88,2.86,28.88,2.85,28.88,2.85z"/>
	<path fill="#9E5C4C" d="M35.71,0.64c0.03,0,0.08,0.03,0.1,0.06c0.02,0.02,0.04,0.05,0.05,0.07c0.02,0.01,0.05,0.06,0.06,0.1
		c0.02,0.04,0.02,0.07,0.03,0.08c0.01,0.01,0.01,0.01,0.01,0.02S35.97,1,35.98,1.02c0.01,0.01,0.01,0.04,0.01,0.05
		c0,0.04,0.04,0.13,0.06,0.17c0.01,0.02,0.02,0.05,0.02,0.06c0,0.01,0.01,0.04,0.02,0.07c0.01,0.03,0.02,0.08,0.02,0.1
		c0,0.02,0,0.03,0.01,0.04c0.01,0.01,0.02,0.04,0.03,0.08c0.01,0.03,0.03,0.09,0.04,0.11c0.01,0.02,0.02,0.06,0.02,0.08
		c0,0.06,0.02,0.09,0.06,0.08c0.01,0,0.07,0.05,0.14,0.11c0.17,0.15,0.32,0.28,0.33,0.28c0.01,0,0.02,0.01,0.03,0.03
		c0.01,0.02,0.05,0.06,0.08,0.1c0.06,0.07,0.13,0.19,0.13,0.23c0,0.01,0.01,0.03,0.02,0.04c0.01,0.01,0.03,0.04,0.04,0.07
		c0.02,0.04,0.02,0.05,0.01,0.11c-0.01,0.07-0.02,0.11-0.04,0.12C37,2.96,36.98,2.98,36.98,3.01c-0.01,0.1-0.1,0.28-0.14,0.29
		c-0.01,0-0.03,0.01-0.03,0.02s-0.02,0.05-0.05,0.07c-0.03,0.02-0.07,0.06-0.09,0.09c-0.02,0.03-0.05,0.05-0.05,0.06
		c-0.01,0.01-0.03,0-0.06-0.01C36.5,3.51,36.3,3.5,36.25,3.51c-0.02,0.01-0.03,0.02-0.04,0.05c0,0.02-0.02,0.04-0.02,0.05v0.03
		c0,0.01,0,0.05-0.01,0.09c-0.01,0.04-0.02,0.09-0.02,0.11c0,0.02-0.01,0.09-0.02,0.14C36.12,4.1,36.1,4.3,36.1,4.48
		c0,0.12,0,0.13,0.02,0.13c0.01,0,0.03,0,0.03,0.01c0,0.01,0.02,0.01,0.05,0.01c0.07,0,0.18,0.03,0.19,0.05
		c0,0.01,0.02,0.03,0.04,0.04c0.02,0.01,0.06,0.05,0.09,0.08c0.03,0.03,0.08,0.07,0.11,0.09c0.1,0.07,0.15,0.15,0.18,0.22
		c0.05,0.13,0.05,0.15,0.04,0.21c-0.01,0.03-0.02,0.08-0.03,0.09c-0.02,0.03-0.02,0.02-0.05,0.08c-0.02,0.03-0.04,0.05-0.05,0.05
		c-0.02,0-0.07,0.02-0.09,0.03c-0.05,0.03-0.14,0.03-0.18,0.01c-0.01-0.01-0.03-0.01-0.04-0.01c-0.01,0.01-0.04-0.01-0.09-0.02
		c-0.1-0.03-0.2-0.04-0.28-0.02c-0.05,0.01-0.07,0.02-0.08,0.04c-0.04,0.06-0.13,0.47-0.14,0.63c0,0.06-0.01,0.15-0.02,0.19
		c0,0.04-0.01,0.2-0.01,0.36c0,0.23,0,0.3,0.01,0.37c0.01,0.08,0.03,0.17,0.04,0.24c0,0.04,0.01,0.07,0.02,0.08
		c0.01,0.01,0.01,0.02,0,0.03s-0.01,0.02,0,0.04c0.01,0.01,0.01,0.04,0.01,0.06c0,0.02,0.01,0.04,0.02,0.05
		c0.01,0.01,0.01,0.03,0.01,0.06c0,0.07,0.02,0.31,0.03,0.39c0.01,0.04,0.02,0.1,0.03,0.13c0.03,0.09,0.04,0.24,0,0.32
		c-0.01,0.04-0.03,0.08-0.04,0.11c-0.01,0.07-0.05,0.1-0.15,0.15c-0.06,0.03-0.09,0.04-0.14,0.04c-0.03,0-0.08,0.01-0.11,0.02
		c-0.05,0.01-0.12,0.01-0.24-0.03c-0.1-0.03-0.13-0.08-0.15-0.16c-0.01-0.04-0.02-0.05-0.04-0.06c-0.01-0.01-0.02-0.02-0.03-0.05
		c-0.01-0.02-0.02-0.06-0.03-0.08C35.01,8.42,35,8.37,34.98,8.09C34.97,8,34.97,7.9,34.96,7.87V7.79c0-0.02,0-0.09-0.01-0.15
		c-0.01-0.08-0.01-0.12,0-0.15c0.01-0.02,0.01-0.04,0-0.05c-0.01-0.01,0-0.03,0.01-0.06s0.01-0.1,0.01-0.16
		c0-0.08,0.01-0.12,0.02-0.16c0.01-0.03,0.02-0.08,0.02-0.1c0-0.02,0.01-0.06,0.02-0.07c0.03-0.05,0.05-0.84,0.03-0.84
		c-0.01,0-0.03,0.01-0.05,0.03c-0.02,0.02-0.05,0.03-0.07,0.03c-0.02,0-0.04,0.01-0.06,0.03c-0.02,0.02-0.04,0.02-0.06,0.02
		c-0.01,0-0.04,0-0.05,0.01c-0.01,0.01-0.04,0.02-0.07,0.03c-0.03,0.01-0.05,0.02-0.05,0.03s-0.01,0.01-0.02,0.01
		c-0.04,0-0.11,0.02-0.16,0.04l-0.08,0.04c-0.02,0.01-0.06,0.02-0.07,0.03c-0.04,0.03-0.1,0.02-0.19,0
		c-0.05-0.01-0.09-0.03-0.1-0.04s-0.04-0.03-0.06-0.04c-0.02-0.01-0.05-0.04-0.06-0.05s-0.04-0.06-0.08-0.1s-0.07-0.08-0.07-0.09
		c0-0.01-0.04-0.03-0.07-0.07c-0.07-0.07-0.15-0.13-0.22-0.14c-0.04-0.01-0.18-0.09-0.18-0.11c0-0.01,0.03-0.02,0.07-0.03
		c0.07-0.02,0.12-0.04,0.12-0.07c0-0.01,0.01-0.02,0.02-0.02c0.01,0,0.08-0.03,0.16-0.05c0.18-0.05,0.28-0.08,0.31-0.11
		c0.04-0.04,0.1-0.08,0.1-0.06c0,0.01,0.01,0.01,0.02,0c0.01-0.01,0.04-0.04,0.07-0.05c0.03-0.02,0.07-0.03,0.08-0.04
		s0.05-0.04,0.09-0.06c0.04-0.02,0.08-0.04,0.09-0.05c0.01-0.01,0.02-0.03,0.03-0.03s0.04-0.02,0.06-0.04
		c0.02-0.02,0.04-0.04,0.06-0.05c0-0.01,0-0.01,0.02-0.02c0.02-0.01,0.03-0.01,0.03-0.02c0-0.01,0-0.03,0.01-0.03
		s0.03-0.02,0.04-0.04c0.03-0.04,0.1-0.12,0.11-0.12c0.01,0,0.13-0.17,0.14-0.21c0.01-0.01,0.01-0.03,0.02-0.03
		c0.01,0,0.03-0.03,0.04-0.06c0.01-0.03,0.03-0.07,0.06-0.1c0.04-0.05,0.05-0.07,0.06-0.19c0-0.04,0-0.06,0.01-0.06
		c0.01,0,0.02-0.01,0.02-0.05V4.01c0-0.06,0-0.07-0.03-0.08c-0.02-0.01-0.03-0.01-0.05,0C35.03,3.94,35.01,3.94,35,3.94
		s-0.02,0.01-0.04,0.03c-0.06,0.06-0.12,0.1-0.15,0.09c-0.02,0-0.03-0.01-0.03,0c0,0.01-0.01,0.02-0.02,0.02s-0.04,0.01-0.06,0.03
		c-0.05,0.03-0.06,0.03-0.11-0.01c-0.01-0.01-0.02-0.01-0.05,0c-0.02,0.01-0.08,0.01-0.19,0.01c-0.15-0.01-0.17-0.02-0.2-0.04
		c-0.04-0.03-0.11-0.14-0.12-0.18c0-0.02-0.02-0.06-0.04-0.09c-0.02-0.03-0.04-0.07-0.04-0.08c0-0.03-0.02-0.07-0.07-0.12
		c-0.03-0.03-0.06-0.07-0.07-0.11s-0.02-0.07-0.03-0.07c-0.01-0.01-0.03-0.02-0.04-0.03c-0.01-0.01-0.03-0.06-0.06-0.09
		c-0.02-0.03-0.05-0.08-0.06-0.1c-0.01-0.02-0.01-0.04-0.02-0.05s-0.02-0.03-0.02-0.05c0-0.02-0.01-0.03-0.02-0.03
		S33.51,3,33.51,2.99s0-0.02-0.01-0.02c-0.01,0-0.02-0.02-0.02-0.04c0-0.02-0.04-0.09-0.07-0.16c-0.03-0.07-0.07-0.14-0.07-0.16
		c0-0.02-0.01-0.04-0.02-0.05c-0.01-0.01-0.01-0.04-0.01-0.09s0.02-0.07,0.04-0.09c0.02-0.02,0.03-0.03,0.02-0.04
		C33.36,2.33,33.4,2.3,33.42,2.3c0.02,0,0.04-0.04,0.03-0.06c-0.01-0.02,0.08-0.08,0.11-0.08c0.01,0,0.03-0.01,0.03-0.02
		c0-0.01,0-0.02,0.01-0.02s0.03-0.01,0.05-0.03c0.03-0.03,0.03-0.03,0.04-0.02c0.01,0.01,0.03,0.01,0.08-0.01
		c0.03-0.02,0.07-0.04,0.1-0.06c0.03-0.02,0.07-0.04,0.09-0.04c0.02,0,0.05-0.02,0.08-0.03l0.05-0.02l0.02,0.03
		c0.02,0.02,0.02,0.02,0.04,0.01c0.03-0.01,0.04-0.01,0.1,0.03c0.07,0.04,0.12,0.06,0.15,0.05c0.01,0,0.03,0,0.04,0.01
		c0.01,0.01,0.03,0,0.06,0s0.07-0.01,0.09-0.01c0.02,0,0.06-0.01,0.09-0.02c0.05-0.02,0.07-0.02,0.09-0.01
		c0.03,0.02,0.1,0.01,0.13-0.02c0.01-0.01,0.03-0.01,0.05-0.01c0.02,0,0.07-0.01,0.12-0.02l0.09-0.02V1.85
		c0-0.04,0.01-0.13,0.02-0.19s0.02-0.15,0.02-0.2c0-0.05,0.01-0.11,0.01-0.13c0.01-0.02,0-0.06,0-0.09c0-0.04,0-0.06,0.01-0.07
		c0.01-0.01,0.01-0.03,0.01-0.07c0-0.03,0.01-0.08,0.01-0.12s0-0.08-0.01-0.09c-0.01-0.02,0-0.04,0.01-0.05
		c0.01-0.01,0.01-0.04,0.02-0.07c0.01-0.07,0.03-0.09,0.05-0.07c0.02,0.02,0.09,0.01,0.12-0.01c0.01-0.01,0.02-0.02,0.02-0.01
		s0.01,0.01,0.03,0c0.03-0.02,0.03-0.02,0.05,0.01c0.02,0.03,0.03,0.04,0.04,0.02c0.01-0.01,0.02-0.02,0.03-0.02
		s0.02-0.01,0.02-0.02c0-0.02,0-0.03,0.03,0c0.04,0.04,0.06,0.04,0.06,0C35.71,0.65,35.7,0.64,35.71,0.64z M39.51,0
		c0.04,0,0.06,0.01,0.11,0.05c0.03,0.02,0.06,0.05,0.07,0.06s0.02,0.02,0.02,0.04c0,0.02,0.03,0.05,0.05,0.07
		c0.02,0.02,0.03,0.03,0.02,0.04c0,0.01,0,0.02,0.01,0.03c0.02,0.04,0.03,0.17,0.03,0.36c0,0.17,0,0.17-0.04,0.26
		c-0.02,0.05-0.03,0.1-0.03,0.12c0,0.02-0.01,0.04-0.02,0.05c-0.01,0.01-0.01,0.02-0.01,0.03c0,0.05,0,0.07-0.02,0.08
		c-0.02,0-0.04,0.05-0.07,0.1c-0.02,0.04-0.17,0.18-0.21,0.2c-0.02,0.01-0.04,0.04-0.05,0.05c-0.02,0.03-0.01,0.09,0.01,0.13
		c0.03,0.05,0.13,0.1,0.15,0.07c0-0.01,0.02-0.02,0.05-0.02c0.08-0.01,0.23-0.05,0.41-0.11c0.1-0.03,0.2-0.06,0.24-0.07
		c0.04-0.01,0.08-0.02,0.09-0.03c0.02-0.01,0.04-0.02,0.06-0.02c0.02,0,0.04-0.01,0.04-0.02c0-0.01,0.01-0.02,0.02-0.02
		c0.01,0,0.03-0.01,0.05-0.03c0.02-0.02,0.05-0.04,0.07-0.04c0.05-0.01,0.11-0.05,0.11-0.07c0-0.01,0.02-0.02,0.04-0.02
		c0.02,0,0.05-0.01,0.06-0.01h0.04c0.02,0,0.05-0.01,0.07-0.02c0.04-0.02,0.04-0.02,0.07,0c0.02,0.01,0.06,0.02,0.1,0.03
		c0.01,0,0.07,0.03,0.09,0.04c0.02,0.01,0.05,0.02,0.07,0.02c0.02,0,0.03,0.01,0.04,0.02c0.01,0.01,0.02,0.01,0.03,0.01
		s0.05,0.01,0.08,0.03c0.03,0.02,0.07,0.03,0.08,0.03s0.03,0,0.05,0.01c0.02,0.01,0.06,0.02,0.08,0.03
		c0.04,0.01,0.07,0.03,0.14,0.11c0.05,0.05,0.11,0.11,0.15,0.14c0.04,0.02,0.07,0.04,0.07,0.05s0.01,0.03,0.02,0.06
		c0.02,0.05,0.02,0.05,0.01,0.12c-0.01,0.04-0.01,0.08-0.01,0.1c0,0.03-0.02,0.11-0.05,0.14c-0.01,0.01-0.02,0.04-0.03,0.07
		c-0.02,0.07-0.05,0.08-0.09,0.07c-0.01-0.01-0.04-0.01-0.05-0.01c-0.07,0.02-0.13,0.02-0.2-0.02c-0.05-0.02-0.08-0.03-0.1-0.03
		c-0.01,0-0.03,0-0.05-0.01c-0.01-0.01-0.05-0.02-0.08-0.03c-0.03-0.01-0.07-0.02-0.07-0.03S41.21,2.2,41.17,2.2
		c-0.11,0.01-0.21,0.03-0.23,0.04c-0.01,0.01,0.08,0.1,0.26,0.28c0.12,0.12,0.17,0.17,0.22,0.19c0.03,0.01,0.06,0.04,0.06,0.05
		c0.01,0.01,0.03,0.02,0.04,0.03c0.03,0.01,0.16,0.15,0.21,0.22c0.02,0.03,0.04,0.04,0.06,0.04c0.02-0.01,0.03,0,0.06,0.04
		c0.02,0.03,0.06,0.06,0.08,0.09c0.04,0.03,0.06,0.06,0.06,0.09c0,0.02,0.01,0.05,0.02,0.07c0.02,0.02,0.03,0.03,0.03,0.12
		c0.01,0.18-0.02,0.24-0.15,0.27c-0.15,0.04-0.22,0.02-0.36-0.07c-0.05-0.03-0.08-0.06-0.09-0.08c0-0.02-0.03-0.04-0.05-0.06
		c-0.03-0.02-0.05-0.04-0.05-0.05c0-0.01-0.02-0.04-0.05-0.07c-0.04-0.04-0.05-0.06-0.05-0.08c0-0.03-0.03-0.05-0.08-0.08
		c-0.02-0.01-0.03-0.03-0.03-0.05c0-0.02-0.01-0.03-0.03-0.04c-0.02-0.01-0.03-0.01-0.03-0.02c0-0.01-0.01-0.02-0.02-0.04
		c-0.01-0.02-0.02-0.04-0.02-0.07c0-0.05-0.06-0.16-0.09-0.17c-0.01-0.01-0.02-0.02-0.02-0.04c0-0.02-0.01-0.04-0.02-0.04
		c-0.02-0.01-0.07-0.07-0.09-0.11c-0.01-0.02-0.01-0.03-0.02-0.03c-0.01,0-0.02-0.01-0.04-0.03c-0.02-0.02-0.05-0.06-0.08-0.09
		c-0.03-0.03-0.07-0.08-0.09-0.11c-0.03-0.06-0.03-0.06-0.07-0.06c-0.07,0-0.2,0.02-0.28,0.05c-0.04,0.01-0.08,0.02-0.09,0.02
		c-0.01,0-0.02,0-0.04,0.01c-0.02,0.01-0.07,0.01-0.09,0.01c-0.02,0-0.05,0-0.07,0.01c-0.02,0.01-0.03,0.01-0.04,0
		c-0.01-0.01-0.02-0.01-0.05,0c-0.02,0.01-0.07,0.02-0.11,0.03c-0.11,0.03-0.14,0.05-0.13,0.08c0.03,0.15,0.03,0.2,0.01,0.39
		c-0.02,0.13-0.03,0.18-0.04,0.18c-0.02,0-0.01,0.12,0.01,0.19c0.01,0.03,0.03,0.08,0.05,0.12l0.03,0.07l0.06-0.04
		c0.03-0.02,0.13-0.11,0.22-0.18c0.2-0.17,0.33-0.26,0.37-0.28c0.02-0.01,0.05-0.02,0.05-0.03s0.01-0.01,0.02-0.01s0.03,0.01,0.04,0
		c0.01-0.01,0.05-0.01,0.07-0.01c0.04,0,0.05,0,0.13,0.07c0.05,0.04,0.08,0.07,0.08,0.08s0.01,0.03,0.03,0.05
		c0.02,0.02,0.05,0.06,0.07,0.09s0.05,0.05,0.06,0.05c0.01,0,0.03,0.03,0.04,0.05c0.01,0.02,0.02,0.04,0.03,0.04
		s0.02,0.02,0.03,0.04c0.01,0.02,0.04,0.07,0.06,0.11c0.08,0.13,0.08,0.21,0.02,0.3c-0.02,0.03-0.02,0.06-0.03,0.1
		c0,0.03-0.01,0.06-0.02,0.07c-0.01,0.01-0.01,0.03-0.01,0.06c0,0.02,0,0.05-0.01,0.06c-0.02,0.02-0.04,0.1-0.05,0.17
		c0,0.04-0.01,0.07-0.01,0.08c-0.01,0.03-0.01,0.19,0,0.21c0.01,0.02,0,0.09-0.04,0.13c-0.02,0.02-0.07,0.06-0.12,0.09
		c-0.09,0.06-0.17,0.08-0.29,0.09c-0.03,0-0.06,0.01-0.07,0.02c-0.02,0.01-0.07,0.01-0.2,0.01c-0.33,0-0.62,0-0.64,0.02
		c-0.01,0.01-0.03,0.01-0.04,0s-0.03,0-0.07,0.01c-0.06,0.02-0.08,0.01-0.09-0.05c-0.01-0.03-0.01-0.05-0.03-0.06
		c-0.03-0.03-0.07-0.1-0.07-0.14c0-0.02,0-0.04-0.01-0.04c-0.01-0.01-0.03-0.04-0.06-0.09c-0.05-0.08-0.05-0.09-0.04-0.1
		c0.02-0.02,0.03-0.03,0.01-0.03c-0.02,0-0.03-0.07-0.02-0.08c0.01-0.01,0-0.03-0.01-0.05c-0.02-0.03-0.02-0.04-0.01-0.13
		c0.01-0.08,0-0.11-0.01-0.14c-0.01-0.02-0.02-0.07-0.02-0.11c0-0.06,0-0.07-0.02-0.07c-0.01,0-0.03,0.01-0.04,0.03
		c-0.01,0.01-0.04,0.05-0.06,0.08C38.95,4,38.92,4.03,38.91,4.05c-0.01,0.01-0.07,0.06-0.13,0.1c-0.13,0.08-0.16,0.09-0.23,0.06
		c-0.03-0.02-0.05-0.02-0.06-0.01c-0.01,0.01-0.03,0-0.07-0.02c-0.03-0.02-0.09-0.04-0.13-0.05S38.21,4.11,38.2,4.1
		c-0.01-0.01-0.04-0.02-0.07-0.02c-0.1-0.02-0.22-0.07-0.24-0.1c-0.01-0.02-0.03-0.04-0.06-0.05c-0.02-0.01-0.05-0.01-0.04-0.02
		c-0.02-0.01-0.09-0.07-0.15-0.13c-0.03-0.03-0.19-0.08-0.25-0.08c-0.03,0-0.09,0-0.14,0.01c-0.07,0-0.09,0-0.14-0.02
		c-0.07-0.04-0.07-0.04-0.02-0.09c0.03-0.02,0.05-0.05,0.05-0.06c0-0.02,0.07-0.09,0.11-0.11c0.01-0.01,0.03-0.01,0.02-0.02
		s0.06-0.06,0.13-0.1c0.12-0.06,0.24-0.12,0.27-0.13l0.12-0.06c0.02-0.01,0.04-0.02,0.05-0.02c0.01,0,0.04-0.02,0.07-0.04
		c0.01-0.01,0.03-0.01,0.05-0.01c0.02,0,0.04-0.02,0.07-0.04c0.03-0.02,0.05-0.03,0.06-0.03c0.02,0,0.17-0.13,0.21-0.18
		c0.02-0.03,0.04-0.05,0.05-0.05c0.01,0,0.02-0.04,0.03-0.07c0-0.01,0.01-0.02,0.02-0.03c0.01-0.01,0-0.02-0.06-0.04
		c-0.04-0.01-0.08-0.02-0.1-0.02c-0.02,0-0.05-0.01-0.07-0.02c-0.02-0.01-0.08-0.04-0.14-0.05c-0.06-0.02-0.12-0.03-0.13-0.04
		c-0.01-0.01-0.04-0.02-0.07-0.02c-0.02,0-0.06-0.01-0.07-0.02c-0.01-0.01-0.04-0.03-0.06-0.04c-0.03-0.02-0.03-0.04-0.03-0.06
		c0-0.04,0.03-0.07,0.08-0.09c0.03-0.01,0.03-0.02,0.02-0.04c0-0.01,0.01-0.02,0.05-0.04c0.07-0.03,0.2-0.07,0.27-0.08
		c0.03,0,0.08-0.01,0.11-0.02c0.05-0.02,0.15-0.04,0.25-0.05c0.03,0,0.07-0.01,0.09-0.02c0.02-0.01,0.05-0.01,0.06-0.01
		s0.02,0,0.03-0.01c0.01-0.01,0.03-0.03,0.06-0.04c0.04-0.02,0.04-0.03,0.05-0.05c0.01,0,0.01-0.01,0.01-0.05V1.75
		c0.01-0.05-0.03-0.15-0.07-0.16c-0.01,0-0.04-0.02-0.07-0.04c-0.02-0.02-0.06-0.04-0.08-0.04c-0.02-0.01-0.05-0.01-0.06-0.02
		s-0.03-0.02-0.05-0.02s-0.06-0.03-0.08-0.04c-0.02-0.01-0.05-0.02-0.06-0.02c-0.01,0-0.02-0.02-0.03-0.04
		c-0.01-0.02-0.03-0.04-0.04-0.05c-0.02-0.01-0.04-0.03-0.07-0.08c0-0.01-0.02-0.04-0.04-0.07c-0.02-0.04-0.06-0.1-0.1-0.14
		s-0.08-0.09-0.09-0.11c-0.01-0.02-0.02-0.03-0.03-0.03c-0.01,0-0.02-0.01-0.04-0.03c-0.04-0.03-0.07-0.05-0.15-0.09
		c-0.04-0.02-0.08-0.03-0.09-0.04c-0.01-0.01-0.02-0.01-0.03-0.01s-0.03,0-0.07-0.01c-0.03-0.01-0.07-0.02-0.08-0.02
		c-0.01,0-0.03,0-0.04-0.02c-0.01-0.03-0.01-0.05,0.01-0.06c0.03-0.03,0.11-0.04,0.15-0.03c0.02,0,0.04-0.01,0.05-0.01
		c0.01,0,0.06-0.01,0.1-0.01c0.09,0,0.32-0.06,0.35-0.09c0.01-0.01,0.02-0.01,0.03-0.01s0.05,0,0.1-0.01
		c0.13-0.02,0.37-0.03,0.38-0.02s0.14-0.01,0.21-0.03c0.08-0.02,0.25-0.09,0.27-0.11c0.01-0.01,0.03-0.02,0.05-0.02
		c0.05,0,0.11-0.04,0.17-0.11c0.03-0.04,0.08-0.07,0.09-0.08c0.02-0.01,0.03-0.03,0.04-0.04c0.01-0.01,0.03-0.03,0.04-0.03
		C39.44,0.01,39.48,0,39.51,0z M37.64,5.1c0.01,0,0.03,0.02,0.06,0.05c0.05,0.05,0.09,0.12,0.11,0.18c0,0.01,0.01,0.04,0.02,0.05
		c0.01,0.01,0.05,0.08,0.08,0.15c0.06,0.13,0.1,0.18,0.13,0.17c0.01,0,0.05-0.01,0.1-0.01c0.05-0.01,0.1-0.01,0.11-0.02
		c0.02-0.01,0.03-0.02,0.04-0.01s0.04,0,0.09-0.01c0.04-0.01,0.24-0.05,0.43-0.09l0.44-0.09l0.19-0.04
		c0.05-0.01,0.11-0.01,0.14-0.02s0.06-0.02,0.08-0.02c0.02,0,0.06-0.02,0.1-0.03s0.12-0.03,0.18-0.04l0.32-0.05
		c0.12-0.02,0.22-0.03,0.23-0.03c0.02,0,0.04,0,0.05-0.01c0.01-0.01,0.03-0.02,0.04-0.02c0.08,0,0.2-0.01,0.2-0.02
		c0-0.02-0.03-0.03-0.06-0.02c-0.03,0.01-0.05,0-0.04-0.01c0-0.01,0.03-0.01,0.07-0.01c0.07,0,0.09,0.01,0.14,0.04
		c0.03,0.02,0.08,0.04,0.11,0.05c0.03,0.01,0.06,0.03,0.06,0.04c0.01,0.01,0.03,0.03,0.06,0.04c0.03,0.01,0.05,0.02,0.05,0.03
		c0,0.01,0.02,0.02,0.04,0.04c0.03,0.02,0.08,0.06,0.09,0.07c0.03,0.02,0.06,0.05,0.07,0.06c0.02,0.01,0.07,0.05,0.11,0.09
		s0.08,0.08,0.09,0.08s0.01,0.01,0.02,0.02c0.01,0.02,0.03,0.03,0.04,0.03s0.02,0.01,0.03,0.03c0.01,0.01,0.04,0.04,0.06,0.05
		c0.02,0.01,0.05,0.03,0.05,0.04c0.01,0.01,0.02,0.02,0.03,0.02c0.02,0,0.16,0.13,0.17,0.15c0,0.01,0.02,0.01,0.03,0.02
		s0.02,0.03,0.02,0.04s0.01,0.02,0.02,0.03c0.01,0.01,0.02,0.02,0.03,0.04c0.01,0.02,0.04,0.05,0.07,0.07
		c0.03,0.02,0.05,0.06,0.06,0.08c0.01,0.02,0.03,0.04,0.04,0.06c0.01,0.02,0.02,0.04,0.02,0.05c0,0.01,0.02,0.04,0.03,0.07
		l0.02,0.06l-0.02,0.07c-0.02,0.07-0.03,0.08-0.12,0.14c-0.06,0.04-0.07,0.09-0.08,0.23c0,0.08-0.01,0.13,0,0.17s0.01,0.06,0,0.07
		c-0.01,0.01-0.01,0.02,0,0.04c0,0.01,0.01,0.2,0.01,0.43c0,0.54,0.01,0.74,0.02,0.8c0.01,0.07,0.01,0.19,0,0.22
		c-0.01,0.02-0.06,0.05-0.1,0.05c-0.01,0-0.03,0.01-0.03,0.02c-0.01,0.03-0.09,0.04-0.15,0.02c-0.02-0.01-0.02-0.01-0.03,0
		c0,0.01-0.03,0.01-0.04,0.01c-0.01,0-0.03,0-0.04,0.01c-0.01,0.01-0.01,0.01-0.02,0s-0.03-0.01-0.06-0.01
		c-0.03,0-0.07-0.01-0.08-0.02c-0.01-0.01-0.08-0.04-0.14-0.07c-0.12-0.05-0.14-0.06-0.19-0.14l-0.07-0.07
		c-0.02-0.02-0.04-0.04-0.04-0.05c0-0.02-0.14-0.18-0.15-0.17c-0.01,0.01-0.18-0.29-0.21-0.36c-0.01-0.03-0.05-0.08-0.1-0.13
		c-0.08-0.08-0.12-0.1-0.12-0.07c-0.04-0.03-0.05,0-0.04,0.18c0.01,0.21,0.02,0.31,0.05,0.37c0.01,0.03,0.02,0.06,0.02,0.1
		c0,0.03,0,0.09,0.01,0.12c0.01,0.05,0,0.07-0.01,0.08c-0.01,0.01-0.03,0.02-0.03,0.03s-0.01,0.01-0.02,0.02
		c-0.01,0.01-0.04,0.03-0.06,0.04c-0.02,0.02-0.04,0.03-0.05,0.03s-0.03,0.02-0.06,0.03c-0.03,0.01-0.05,0.02-0.06,0.01
		s-0.02,0.01-0.03,0.02c-0.03,0.03-0.06,0.04-0.11,0.04c-0.02,0-0.05,0-0.05,0.01s-0.02,0.01-0.04,0.01c-0.02,0-0.04,0-0.06,0.01
		c-0.06,0.03-0.17,0.02-0.24-0.01c-0.05-0.02-0.05-0.02-0.13-0.01c-0.13,0.02-0.33,0.02-0.38,0.01c-0.02-0.01-0.05-0.02-0.07-0.04
		c-0.01-0.02-0.05-0.06-0.07-0.08c-0.04-0.05-0.1-0.15-0.1-0.19c0-0.01-0.01-0.03-0.02-0.05c-0.02-0.03-0.02-0.05-0.02-0.13
		c0-0.12-0.01-0.19-0.06-0.23c-0.07-0.07-0.1-0.17-0.09-0.34c0.01-0.06,0.01-0.12,0-0.15c-0.01-0.04-0.02-0.13-0.01-0.43
		c0-0.05,0.01-0.09,0.02-0.1c0.01-0.01,0.03-0.08,0.03-0.13c0.01-0.08,0.03-0.17,0.04-0.2c0.01-0.02,0.02-0.05,0.02-0.06
		c0-0.03,0.03-0.12,0.05-0.14c0.01-0.01,0.02-0.03,0.03-0.05c0.02-0.04,0.06-0.06,0.08-0.04c0.03,0.03,0.07,0.03,0.08,0.01
		c0.01-0.02,0.01-0.02,0.03,0c0.02,0.02,0.03,0.02,0.05,0.01c0.01-0.01,0.02-0.01,0.03-0.01s0.03,0.03,0.06,0.07
		c0.03,0.04,0.05,0.07,0.06,0.07c0.02,0,0.08-0.04,0.13-0.09c0.07-0.07,0.21-0.2,0.29-0.26c0.05-0.04,0.09-0.04,0.16-0.04
		c0.02,0,0.03,0,0.03-0.01s0.01-0.02,0.02-0.03c0.03-0.02,0.01-0.05-0.04-0.04c0.03-0.04,0.17,0.01,0.19,0.06
		c0.01,0.01,0.04,0.06,0.08,0.1s0.07,0.08,0.08,0.1c0.01,0.02,0.01,0.04,0.02,0.03c0.01,0,0.02,0,0.03,0.01
		c0.01,0.01,0.01,0.02,0.02,0.02c0.02,0,0.1,0.08,0.11,0.11c0.01,0.02,0.02,0.04,0.03,0.05c0.02,0.01,0.05,0.1,0.05,0.15
		c0,0.04-0.02,0.07-0.04,0.08c-0.01,0-0.03,0.03-0.05,0.06l-0.03,0.04v0.28c0,0.15,0,0.26,0.01,0.27c0.01,0.01,0.19-0.03,0.22-0.05
		c0.02-0.01,0.05-0.01,0.06-0.01s0.04,0,0.05-0.01c0.02-0.01,0.07-0.02,0.12-0.03s0.11-0.03,0.14-0.04
		c0.03-0.01,0.07-0.01,0.08-0.01s0.03-0.01,0.05-0.03c0.02-0.02,0.04-0.03,0.05-0.03c0.01,0,0.01-0.01,0.01-0.02
		s0.01-0.03,0.02-0.04c0.01-0.02,0.01-0.03,0.01-0.05c0-0.02,0-0.05,0.01-0.07c0.01-0.02,0.01-0.11,0.02-0.19
		c0.01-0.08,0.01-0.24,0.02-0.34c0.02-0.25,0.02-0.28-0.06-0.37c-0.03-0.04-0.08-0.08-0.11-0.09c-0.03-0.02-0.05-0.03-0.05-0.04
		S41.06,6.04,41,5.99c-0.06-0.05-0.13-0.11-0.15-0.13c-0.02-0.02-0.04-0.04-0.05-0.04s-0.02-0.01-0.03-0.03
		c-0.01-0.02-0.04-0.05-0.07-0.06c-0.04-0.02-0.06-0.02-0.11-0.01c-0.09,0.02-0.18,0.05-0.38,0.08c-0.24,0.04-0.38,0.07-0.41,0.08
		c-0.02,0.01-0.2,0.05-0.35,0.08C39.4,5.97,39.33,5.99,39.3,6c-0.03,0.01-0.08,0.02-0.12,0.03c-0.04,0.01-0.07,0.02-0.08,0.02
		s-0.07,0.02-0.12,0.03c-0.05,0.01-0.12,0.04-0.16,0.06c-0.1,0.05-0.25,0.15-0.35,0.24c-0.05,0.05-0.1,0.09-0.11,0.09
		c-0.03,0.01-0.08,0.1-0.08,0.15c0,0.02-0.01,0.03-0.03,0.05c-0.02,0.01-0.05,0.05-0.08,0.08c-0.05,0.06-0.06,0.09-0.04,0.17
		c0,0.02,0.02,0.14,0.03,0.25c0.01,0.11,0.03,0.22,0.03,0.25c0.01,0.02,0,0.06,0,0.08v0.09c0,0.03,0.02,0.11,0.02,0.17
		c0.01,0.06,0.02,0.16,0.03,0.23c0.01,0.07,0.01,0.18,0.01,0.25v0.14c0,0.01,0.02,0.01,0.01,0.02c0,0.01-0.01,0.06-0.02,0.13
		c-0.01,0.15-0.02,0.2-0.05,0.2c-0.01,0-0.03,0.01-0.04,0.02c-0.04,0.04-0.11,0.07-0.2,0.08c-0.11,0.01-0.19-0.01-0.25-0.05
		c-0.08-0.06-0.09-0.09-0.11-0.15c-0.02-0.07-0.03-0.08-0.06-0.07h-0.05c-0.01,0-0.02-0.01-0.03-0.07l-0.01-0.07l-0.02,0.02
		c-0.01,0.01-0.04,0.01-0.06,0.01c-0.03,0-0.03,0-0.06-0.08c-0.02-0.07-0.03-0.11-0.03-0.19c0-0.06,0.01-0.13,0.01-0.18
		c0.01-0.07,0-0.08-0.02-0.1c-0.01-0.02-0.01-0.03-0.01-0.08c0-0.1,0-0.26,0.01-0.27c0.01-0.02,0.02-0.15,0.01-0.16
		c-0.01-0.01,0-0.01,0-0.02c0.01-0.01,0-0.07,0-0.13v-0.5c0-0.31,0.03-0.73,0.05-0.77c0.01-0.01,0.01-0.05,0.01-0.08
		c0-0.03,0-0.09,0.01-0.13c0.01-0.04,0.02-0.1,0.02-0.14c0-0.1,0.01-0.15,0.04-0.19c0.01-0.02,0.03-0.06,0.04-0.09
		c0.01-0.03,0.03-0.09,0.06-0.14c0.05-0.09,0.05-0.09,0.09-0.09C37.61,5.11,37.63,5.1,37.64,5.1z M39.98,6.56l-0.03-0.02l-0.04,0.05
		c-0.02,0.03-0.08,0.1-0.13,0.15c-0.12,0.12-0.16,0.19-0.19,0.25c-0.02,0.05-0.02,0.08,0,0.08c0.03,0-0.01,0.1-0.09,0.25l-0.05,0.09
		v0.11c0,0.11,0,0.11,0.03,0.12c0.05,0.02,0.09,0.01,0.18-0.03c0.12-0.05,0.17-0.09,0.19-0.15c0.01-0.03,0.03-0.07,0.04-0.09
		c0.01-0.03,0.03-0.07,0.03-0.09c0.01-0.11,0.02-0.2,0.04-0.31c0.01-0.07,0.02-0.13,0.02-0.15s0-0.03,0.01-0.04
		C40,6.78,40,6.73,40,6.68C40,6.59,40,6.58,39.98,6.56z M40.36,3.33c-0.01,0-0.1,0.1-0.24,0.26c-0.06,0.07-0.15,0.17-0.19,0.21
		s-0.08,0.07-0.08,0.08s-0.02,0.04-0.05,0.06c-0.02,0.02-0.05,0.05-0.06,0.07l-0.02,0.03h0.11c0.09-0.01,0.4-0.06,0.49-0.09
		c0.03-0.01,0.12-0.14,0.12-0.17c0-0.02,0.02-0.08,0.03-0.13c0.02-0.07,0.02-0.11,0.02-0.15c0-0.06-0.01-0.07-0.06-0.12
		C40.4,3.35,40.37,3.33,40.36,3.33z"/>
</g>
</svg>
