<?xml version="1.0" encoding="utf-8"?>
<!-- Generator: Adobe Illustrator 25.0.0, SVG Export Plug-In . SVG Version: 6.00 Build 0)  -->
<svg version="1.1" id="Layer_1" xmlns="http://www.w3.org/2000/svg" xmlns:xlink="http://www.w3.org/1999/xlink" x="0px" y="0px"
	 viewBox="0 0 27.33 8.99" enable-background="new 0 0 27.33 8.99" xml:space="preserve">
<g>
	<path fill="#9E5C4C" d="M6.07,3.77c0.12,0,0.17,0.01,0.31,0.04c0.1,0.02,0.19,0.04,0.22,0.04c0.03,0,0.05,0.01,0.05,0.02
		S6.68,3.89,6.72,3.9c0.03,0.01,0.1,0.04,0.16,0.06c0.05,0.02,0.1,0.05,0.11,0.05c0.01,0,0.05,0.02,0.09,0.04
		c0.12,0.06,0.26,0.1,0.29,0.11c0.01,0,0.07,0.03,0.11,0.05C7.52,4.23,7.57,4.26,7.6,4.27C7.63,4.28,7.68,4.3,7.71,4.32
		c0.01,0,0.07,0.04,0.11,0.06c0.09,0.03,0.15,0.07,0.17,0.1C8,4.49,8.03,4.51,8.05,4.52c0.07,0.04,0.14,0.1,0.16,0.17
		c0.02,0.05,0.02,0.07,0.01,0.13L8.19,4.95C8.18,4.99,8.15,5.02,8.15,5.04c0,0.02-0.03,0.07-0.06,0.12C8.07,5.2,8.05,5.25,8.05,5.26
		S8.04,5.28,8.03,5.29C8,5.31,7.97,5.39,7.94,5.49C7.92,5.55,7.9,5.6,7.89,5.61C7.88,5.62,7.87,5.64,7.87,5.65S7.85,5.71,7.83,5.76
		C7.81,5.81,7.8,5.85,7.8,5.86s0,0.04-0.01,0.05c-0.02,0.03-0.03,0.18-0.02,0.2c0.01,0.01,0.02,0.03,0.02,0.07
		c0,0.05,0,0.07-0.02,0.12C7.76,6.33,7.74,6.36,7.73,6.36S7.71,6.37,7.69,6.38C7.68,6.4,7.67,6.4,7.63,6.4c-0.03,0-0.07,0-0.1,0.01
		C7.5,6.42,7.46,6.43,7.42,6.43c-0.03,0-0.06,0-0.07,0.01C7.33,6.45,7.3,6.45,7.21,6.43C7.05,6.39,7,6.35,6.96,6.3
		C6.91,6.24,6.9,6.18,6.91,6.11V6c0-0.04,0-0.1,0.01-0.15c0.01-0.07,0.01-0.1,0-0.11C6.91,5.72,6.89,5.71,6.85,5.65
		C6.84,5.63,6.82,5.61,6.8,5.6C6.79,5.59,6.77,5.58,6.76,5.57S6.7,5.55,6.68,5.54C6.66,5.53,6.64,5.53,6.64,5.52S6.61,5.5,6.57,5.5
		s-0.06,0-0.07-0.01c0-0.01-0.03-0.02-0.07-0.02C6.34,5.46,6.34,5.46,6.34,5.43V5.4h0.11c0.05,0,0.16,0.01,0.22,0.02
		c0.14,0.02,0.21,0.02,0.31,0.01c0.09-0.01,0.16-0.04,0.16-0.07c0-0.01,0.02-0.05,0.04-0.08C7.21,5.24,7.24,5.2,7.25,5.15
		c0.01-0.04,0.02-0.08,0.04-0.1C7.3,5.03,7.31,4.99,7.32,4.96c0.01-0.03,0.02-0.08,0.03-0.1c0.01-0.02,0.01-0.07,0.01-0.09
		c0-0.04,0-0.04-0.06-0.07C7.26,4.68,7.23,4.65,7.22,4.64c-0.01-0.02-0.18-0.1-0.2-0.1C7.01,4.54,7,4.53,7,4.52
		c0-0.01-0.02-0.01-0.03-0.01s-0.02,0-0.03-0.01C6.93,4.49,6.8,4.43,6.78,4.43c-0.01,0-0.03-0.01-0.05-0.02
		C6.7,4.4,6.67,4.38,6.64,4.37C6.61,4.36,6.54,4.33,6.47,4.3C6.39,4.27,6.32,4.24,6.3,4.24c-0.02,0-0.04,0-0.06-0.01
		C6.22,4.22,6.15,4.22,6.09,4.21C6.02,4.2,5.91,4.17,5.85,4.16C5.7,4.13,5.52,4.13,5.37,4.15C5.32,4.16,5.22,4.18,5.17,4.19L5,4.22
		C4.94,4.23,4.84,4.26,4.73,4.29C4.51,4.35,4.26,4.44,3.81,4.62C3.69,4.67,3.46,4.76,3.38,4.79C3.27,4.83,3.14,4.88,3.11,4.9
		C3.03,4.94,3.02,4.94,2.92,4.99C2.88,5.01,2.73,5.1,2.61,5.17L2.34,5.34C2.31,5.36,2.24,5.39,2.2,5.41
		C2.16,5.43,2.13,5.45,2.12,5.45C2.11,5.45,2,5.51,1.96,5.54C1.94,5.55,1.93,5.56,1.93,5.55c0-0.01-0.01,0-0.02,0.01
		C1.9,5.57,1.89,5.58,1.88,5.58c-0.01,0-0.03,0.01-0.04,0.02C1.83,5.61,1.81,5.62,1.79,5.62S1.73,5.63,1.71,5.65
		C1.69,5.67,1.65,5.7,1.6,5.73c-0.18,0.09-0.31,0.2-0.34,0.28C1.24,6.06,1.24,6.09,1.25,6.23c0,0.09,0,0.1-0.03,0.18L1.19,6.49
		l-0.1,0.07C1.04,6.6,0.96,6.63,0.94,6.64S0.89,6.66,0.89,6.67S0.88,6.69,0.87,6.69c-0.04,0-0.08,0.01-0.12,0.03
		C0.73,6.73,0.71,6.73,0.7,6.73c-0.01,0-0.02,0-0.03,0.01c-0.03,0.02-0.08,0.03-0.1,0.01C0.56,6.74,0.54,6.73,0.51,6.73
		C0.48,6.72,0.46,6.71,0.45,6.7C0.44,6.69,0.43,6.68,0.42,6.68c-0.01,0-0.03-0.01-0.03-0.02c0-0.01-0.02-0.01-0.03-0.01
		c-0.02,0-0.05-0.01-0.06-0.03C0.29,6.6,0.28,6.59,0.27,6.59c-0.01,0-0.03-0.03-0.04-0.06C0.22,6.5,0.2,6.47,0.19,6.46
		C0.17,6.45,0.16,6.42,0.15,6.39C0.14,6.36,0.14,6.32,0.13,6.31C0.12,6.3,0.12,6.29,0.12,6.27c0-0.01,0.01-0.03,0-0.04
		c0-0.01-0.01-0.05-0.02-0.09c0-0.04-0.01-0.08-0.02-0.09S0.07,6.02,0.07,6.01c0-0.01,0-0.03-0.01-0.05
		C0.05,5.94,0.05,5.87,0.05,5.77c0-0.14-0.01-0.17-0.02-0.18C0.02,5.58,0.01,5.55,0.01,5.51C0,5.42,0,5.39,0.01,5.34
		c0.02-0.08,0.05-0.13,0.07-0.12s0.13-0.11,0.13-0.13c0-0.02,0.02-0.05,0.05-0.07C0.28,5,0.29,4.99,0.29,4.95
		c0-0.07,0.02-0.12,0.05-0.13c0.02-0.01,0.08-0.1,0.08-0.12c0-0.01,0.01-0.04,0.02-0.05C0.45,4.63,0.45,4.61,0.45,4.6
		c0-0.01,0-0.02,0.01-0.02c0.01,0,0.03-0.03,0.05-0.05C0.53,4.5,0.54,4.48,0.53,4.47C0.52,4.46,0.52,4.44,0.54,4.44
		c0.01,0,0.02-0.01,0.02-0.02s0.01-0.03,0.02-0.03c0.01,0,0.04-0.01,0.04-0.02s0.01-0.02,0.02-0.02c0.01,0,0.06-0.03,0.11-0.05
		c0.07-0.03,0.09-0.05,0.09-0.06s0.01-0.02,0.02-0.03C0.91,4.18,0.92,4.18,0.95,4.2c0.02,0.01,0.03,0.03,0.04,0.05
		C1,4.26,1.02,4.29,1.04,4.3c0.01,0.01,0.02,0.02,0.02,0.03c0,0.02,0.02,0.08,0.04,0.11c0.01,0.01,0.01,0.03,0.02,0.04
		c0.01,0.01,0.02,0.03,0.03,0.03c0.01,0,0.01,0.02,0.01,0.05c0,0.03,0,0.05,0.01,0.05c0.01,0,0.01,0.01,0.01,0.03
		c0,0.01,0.01,0.04,0.02,0.05c0.02,0.03,0.04,0.08,0.04,0.14c0,0.03,0.01,0.06,0.02,0.08c0.01,0.01,0.01,0.04,0.01,0.05
		c0,0.02,0,0.01,0.04,0.01c0.03,0,0.06-0.01,0.08-0.01c0.02-0.01,0.07-0.01,0.1-0.01c0.02,0,0.08-0.02,0.11-0.03
		c0.03-0.01,0.11-0.03,0.18-0.04c0.06-0.01,0.17-0.03,0.23-0.05c0.06-0.02,0.14-0.05,0.18-0.06c0.16-0.04,0.31-0.08,0.36-0.1
		c0.03-0.01,0.07-0.02,0.08-0.02c0.02,0,0.03-0.01,0.04-0.02c0.01-0.01,0.05-0.01,0.08-0.02C2.78,4.6,2.83,4.58,2.88,4.56
		c0.06-0.02,0.09-0.03,0.1-0.02s0.03,0,0.06-0.01c0.03-0.01,0.11-0.05,0.18-0.07c0.06-0.02,0.12-0.04,0.14-0.05
		c0.02-0.01,0.03-0.01,0.03,0s0.02,0,0.04-0.01c0.02-0.01,0.07-0.03,0.1-0.03c0.02,0,0.05,0,0.06-0.01
		c0.02-0.01,0.07-0.03,0.13-0.04C3.78,4.31,3.91,4.28,4,4.26c0.17-0.05,0.3-0.09,0.32-0.09L4.28,4.21C4.26,4.23,4.24,4.24,4.25,4.24
		s0.2-0.05,0.43-0.11C4.9,4.06,5.14,3.99,5.19,3.98c0.06-0.02,0.11-0.03,0.09-0.03C5.26,3.94,5.1,3.98,5.05,4
		C5.02,4.01,4.98,4.02,4.97,4.02S4.93,4.03,4.89,4.04C4.87,4.05,4.85,4.06,4.85,4.05c0-0.01-0.09,0-0.11,0.02
		C4.72,4.08,4.7,4.09,4.68,4.1C4.66,4.11,4.6,4.11,4.58,4.12C4.56,4.13,4.55,4.13,4.54,4.13c0.02-0.02,0.12-0.06,0.23-0.09
		c0.07-0.01,0.21-0.06,0.31-0.09c0.34-0.12,0.56-0.15,0.8-0.17C5.89,3.78,5.97,3.77,6.07,3.77z M4.55,0.02
		C4.6,0.03,4.6,0.04,4.68,0.12c0.07,0.07,0.08,0.09,0.09,0.13c0,0.03,0.03,0.04,0.06,0.08C4.87,0.36,4.88,0.38,4.88,0.4
		c0,0.04,0.01,0.06,0.03,0.06c0.01,0,0.03,0.01,0.04,0.02c0.03,0.04,0.1,0.05,0.21,0.05c0.06,0,0.1,0,0.1,0.01s0.03,0.01,0.07,0.01
		C5.4,0.56,5.48,0.59,5.53,0.63c0.02,0.02,0.03,0.03,0.04,0.02c0.01-0.01,0.24,0.12,0.29,0.16c0.02,0.01,0.05,0.03,0.08,0.03
		C6,0.85,6.03,0.87,6.11,0.95C6.25,1.09,6.25,1.1,6.24,1.32C6.23,1.46,6.22,1.5,6.21,1.52C6.2,1.54,6.18,1.58,6.18,1.6
		s0,0.04-0.01,0.05S6.16,1.66,6.16,1.67c0,0.04-0.03,0.1-0.1,0.18C6.01,1.91,5.97,1.93,5.9,1.96L5.82,2L5.56,1.99
		c-0.15-0.01-0.3-0.01-0.33-0.01c-0.04,0-0.06,0-0.08,0.03C5.14,2.03,5.11,2.09,5.1,2.14c-0.04,0.07-0.06,0.1-0.09,0.14
		C4.97,2.31,4.96,2.33,4.96,2.34c0,0.01-0.01,0.03-0.02,0.04S4.93,2.41,4.93,2.42s0,0.03-0.01,0.03c-0.01,0-0.02,0.01-0.02,0.02
		c0,0.01,0,0.03-0.01,0.05L4.87,2.56l0.03,0.01c0.02,0.01,0.05,0.02,0.06,0.02c0.01,0,0.05,0.01,0.08,0.03
		C5.06,2.63,5.1,2.64,5.11,2.64c0.01,0,0.03,0,0.04,0.01c0.01,0.01,0.04,0,0.07,0c0.05-0.01,0.07,0,0.11,0.04
		C5.35,2.7,5.36,2.71,5.37,2.71c0.01,0,0.02,0,0.03,0.01s0.05,0.04,0.09,0.07c0.12,0.07,0.14,0.09,0.18,0.22
		C5.69,3.07,5.7,3.12,5.69,3.13c0,0.01-0.02,0.05-0.03,0.09c-0.01,0.04-0.02,0.09-0.03,0.1C5.62,3.33,5.62,3.34,5.62,3.35
		c0.01,0.04-0.08,0.09-0.15,0.09c-0.03,0-0.06,0-0.08,0.01H5.35c-0.01-0.01-0.03-0.01-0.06,0C5.2,3.46,5.1,3.46,5.1,3.45
		c-0.01-0.01-0.01-0.01-0.04,0c-0.01,0-0.07,0.01-0.11,0.02s-0.13,0.02-0.2,0.04C4.68,3.53,4.59,3.55,4.56,3.55
		c-0.02,0-0.11,0.03-0.19,0.04C4.29,3.6,4.18,3.61,4.12,3.62C4.06,3.63,4,3.64,3.96,3.66c-0.03,0.01-0.08,0.03-0.1,0.03
		c-0.03,0-0.04,0-0.04,0.01s0,0.02-0.03,0.03c-0.03,0.01-0.05,0-0.06,0C3.72,3.72,3.72,3.74,3.71,3.76C3.69,3.79,3.68,3.8,3.67,3.78
		c0-0.01-0.03,0-0.05,0.01C3.59,3.81,3.57,3.82,3.55,3.81c-0.02-0.01-0.02-0.01-0.04,0C3.5,3.82,3.48,3.83,3.47,3.83
		c-0.01,0-0.07,0-0.11,0.01C3.3,3.85,3.28,3.86,3.24,3.9C3.22,3.92,3.19,3.94,3.18,3.94S3.16,3.95,3.15,3.96
		C3.14,3.97,3.11,3.98,3.08,4C3.02,4.03,3,4.03,2.89,4.03C2.8,4.03,2.78,4.02,2.74,4C2.7,3.98,2.69,3.97,2.68,3.95
		c0-0.02-0.02-0.05-0.04-0.07C2.62,3.86,2.6,3.83,2.59,3.81C2.57,3.79,2.55,3.78,2.54,3.77C2.53,3.76,2.51,3.74,2.51,3.73
		s0-0.02-0.01-0.03C2.49,3.69,2.48,3.67,2.48,3.64c0-0.05-0.02-0.07-0.08-0.12C2.38,3.5,2.37,3.48,2.37,3.46
		c0-0.01-0.01-0.04-0.02-0.05C2.32,3.39,2.32,3.38,2.32,3.32c0-0.04,0-0.07-0.01-0.08C2.3,3.23,2.3,3.18,2.33,3.12
		c0.05-0.09,0.06-0.1,0.08-0.08c0.01,0.01,0.03,0.01,0.04-0.02c0.03-0.06,0.15-0.13,0.18-0.1c0.01,0.01,0.03,0.01,0.03,0
		c0.02,0.01,0.03,0,0.06-0.01C2.74,2.9,2.76,2.89,2.77,2.9c0.01,0,0.03,0.01,0.04,0.01c0.02,0,0.04,0,0.04,0.01
		c0.01,0.01,0.01,0.01,0.02,0c0.01-0.01,0.02-0.01,0.06,0.01C2.96,2.94,3,2.97,3.01,2.98C3.03,3.01,3.06,3.02,3.09,3
		c0.05-0.03,0.15-0.05,0.15-0.04s0.04,0.01,0.05,0C3.3,2.95,3.35,2.95,3.43,2.95c0.07,0,0.13,0,0.15-0.01
		C3.6,2.93,3.64,2.93,3.66,2.93c0.03,0,0.07-0.02,0.1-0.03c0.05-0.02,0.06-0.02,0.07-0.01c0.02,0.01,0.03,0,0.05-0.01
		C3.9,2.87,3.91,2.86,3.92,2.87s0.01-0.02,0.02-0.05c0.01-0.03,0.02-0.1,0.03-0.14C3.98,2.64,3.99,2.61,3.98,2.6
		C3.97,2.59,3.99,2.54,4,2.49c0.01-0.06,0-0.12,0-0.14C4,2.32,4,2.3,4.01,2.29c0.01-0.01,0.02-0.01,0.01-0.02
		c0-0.01-0.01-0.02,0-0.03c0.02-0.03,0.02-0.22,0-0.25C4.01,1.97,4.01,1.97,4,1.98S3.98,1.99,3.97,1.99c-0.01,0-0.03,0-0.05,0.01
		C3.9,2.01,3.74,2.06,3.59,2.11c-0.15,0.05-0.31,0.1-0.32,0.1c-0.01,0.01-0.02,0-0.03,0c-0.01,0-0.02,0.01-0.04,0.02
		C3.19,2.24,3.15,2.26,3.11,2.28c-0.04,0.02-0.14,0.06-0.2,0.1C2.85,2.42,2.78,2.46,2.76,2.47C2.74,2.48,2.72,2.5,2.72,2.51
		c0,0.01-0.02,0.02-0.03,0.02c-0.02,0-0.12,0.04-0.13,0.05c0,0.01-0.04,0.02-0.08,0.02c-0.04,0-0.08-0.01-0.2-0.04
		C2.21,2.54,2.14,2.52,2.13,2.51C2.1,2.48,1.97,2.43,1.96,2.43c-0.01,0-0.06-0.02-0.11-0.05C1.8,2.35,1.74,2.33,1.73,2.33
		c-0.01,0-0.05-0.02-0.09-0.03C1.56,2.27,1.49,2.26,1.31,2.25C1.19,2.24,1.1,2.23,0.99,2.2C0.95,2.19,0.87,2.17,0.84,2.17
		C0.77,2.16,0.56,2.1,0.55,2.08C0.54,2.07,0.47,2.04,0.36,2C0.33,1.99,0.3,1.98,0.3,1.97c0-0.01,0.01-0.01,0.03-0.02
		C0.39,1.92,0.4,1.91,0.39,1.89c-0.01-0.02,0-0.03,0.01-0.08c0.01-0.03,0.02-0.07,0.02-0.08c0.01-0.01,0.02-0.04,0.03-0.07
		C0.46,1.63,0.48,1.61,0.5,1.61c0.01,0,0-0.02,0-0.03c0-0.02,0.01-0.03,0.03-0.04L0.57,1.5C0.58,1.49,0.6,1.48,0.61,1.48
		c0.01,0,0.03-0.01,0.03-0.02c0-0.01,0.01-0.01,0.02-0.01c0.01,0,0.03-0.01,0.04-0.03C0.72,1.4,0.75,1.38,0.77,1.37
		c0.04-0.01,0.24-0.16,0.24-0.19c0-0.01,0.01-0.02,0.03-0.02s0.04-0.02,0.07-0.04C1.14,1.1,1.17,1.08,1.18,1.08
		c0.01,0,0.05-0.02,0.1-0.03C1.34,1.04,1.39,1.03,1.4,1.03c0.01,0,0.02,0,0.03-0.01C1.44,1.01,1.47,1,1.51,1s0.13-0.03,0.2-0.05
		c0.08-0.02,0.14-0.03,0.15-0.03c0.01,0,0.05-0.01,0.1-0.02l0.41-0.09c0.17-0.04,0.38-0.07,0.44-0.09C2.87,0.7,2.95,0.68,2.98,0.68
		c0.04,0,0.09-0.01,0.1-0.02c0.01-0.01,0.05-0.01,0.09-0.02c0.04-0.01,0.16-0.03,0.28-0.05c0.11-0.02,0.21-0.04,0.23-0.04
		c0.02,0,0.04,0,0.05-0.01S3.8,0.51,3.86,0.5c0.05-0.01,0.11-0.01,0.13-0.02c0.04-0.01,0.06-0.04,0.06-0.07c0-0.01,0-0.03,0.01-0.05
		C4.07,0.34,4.07,0.32,4.07,0.3c0-0.01,0.01-0.05,0.02-0.1s0.02-0.12,0.02-0.14c0-0.05,0.01-0.06,0.04-0.02
		C4.2,0.11,4.21,0.11,4.22,0.1c0.01-0.01,0.04-0.03,0.05-0.02c0.01,0,0.02-0.01,0.03-0.02c0.03-0.03,0.08-0.05,0.11-0.04
		c0.01,0,0.03,0.01,0.03,0C4.45,0.01,4.49,0,4.55,0.02z M5.06,4.94C5.07,4.95,5.09,4.97,5.1,4.99C5.1,4.99,5.1,5,5.1,5.01
		s0.01,0.02,0.02,0.03c0.01,0.01,0.02,0.03,0.02,0.05c0,0.01,0,0.03,0.01,0.04c0.01,0.01,0.02,0.03,0.02,0.05
		c0,0.02,0.03,0.08,0.05,0.12c0.02,0.04,0.03,0.06,0.02,0.07c-0.01,0.01-0.01,0.02,0,0.03c0.01,0.01,0.01,0.03,0,0.05
		c0,0.02-0.01,0.03,0,0.03c0.01,0,0.01,0.02,0.01,0.05c0,0.01,0.02,0.06,0.03,0.08c0.03,0.02,0.03,0.03,0.02,0.05
		c0,0.01-0.02,0.03-0.02,0.04s0,0.03-0.01,0.03s0,0.01,0,0.02c0.03,0.02,0.03,0.12,0.01,0.13C5.27,5.89,5.27,5.91,5.27,5.94
		c0,0.05-0.01,0.13-0.02,0.15v0.04c0,0.01,0,0.02-0.01,0.03S5.22,6.19,5.22,6.2c0.01,0.01,0,0.02-0.01,0.02
		C5.2,6.22,5.2,6.24,5.2,6.25s0,0.02-0.01,0.03c-0.02,0-0.02,0.01-0.02,0.02s0,0.02-0.01,0.03C5.15,6.34,5.15,6.35,5.15,6.36
		C5.17,6.38,5.1,6.44,5.07,6.45c0,0.01-0.01,0.02-0.02,0.02S5.02,6.48,5.02,6.5C5.01,6.53,5,6.54,4.97,6.54
		c-0.03,0.01-0.1,0.05-0.16,0.1C4.8,6.65,4.79,6.65,4.77,6.65c-0.03,0-0.08,0.03-0.1,0.06C4.66,6.73,4.66,6.72,4.63,6.72
		c-0.02,0-0.07,0-0.11,0.01C4.47,6.74,4.45,6.75,4.43,6.74c-0.01-0.01-0.01,0-0.02,0.01C4.41,6.76,4.39,6.76,4.38,6.76
		C4.35,6.75,4.3,6.74,4.24,6.74c-0.03,0-0.05-0.02-0.06-0.03c-0.02-0.02-0.03-0.01-0.04,0c-0.02,0.01-0.04,0-0.06-0.02
		c0-0.01-0.02-0.01-0.04-0.01C4.02,6.68,4,6.69,4,6.68c-0.02,0.01-0.03,0-0.06-0.01C3.92,6.66,3.91,6.65,3.9,6.66H3.85
		C3.84,6.65,3.81,6.65,3.8,6.65c-0.01,0-0.04,0-0.06-0.01C3.69,6.62,3.69,6.62,3.69,6.66c0,0.02,0,0.04-0.01,0.05
		C3.67,6.72,3.67,6.78,3.67,6.83c0,0.1-0.01,0.14-0.04,0.18C3.62,7.03,3.61,7.05,3.61,7.08c0,0.06,0.01,0.1,0.02,0.09
		c0.01-0.01,0.06,0.05,0.06,0.06S3.7,7.24,3.71,7.24c0.01,0,0.03,0,0.03,0.01c0,0.01,0.02,0.02,0.04,0.02
		c0.09,0.02,1.21-0.01,1.26-0.03C5.06,7.23,5.1,7.23,5.11,7.23c0.03,0,0.05-0.01,0.08-0.02C5.22,7.2,5.28,7.17,5.36,7.13
		c0.07-0.04,0.14-0.08,0.15-0.09C5.54,7,5.62,6.82,5.62,6.75c0-0.03,0.01-0.08,0.02-0.1c0.01-0.02,0.05-0.11,0.08-0.21
		C5.78,6.27,5.85,6.11,5.87,6.1c0.01-0.01,0.01,0,0,0.02c-0.02,0.03-0.01,0.04,0.04,0s0.08-0.08,0.07-0.1c0-0.01-0.01-0.01-0.02,0
		c-0.02,0.02-0.02-0.01,0-0.03c0.01-0.01,0.02-0.02,0.02-0.03s0.03-0.02,0.06-0.03C6.06,5.92,6.09,5.9,6.1,5.88
		c0.03-0.05,0.15-0.11,0.18-0.09C6.29,5.8,6.31,5.8,6.32,5.8s0.01,0.01,0.01,0.03v0.06c0.01,0.02,0.01,0.04,0,0.05
		c-0.01,0.01-0.01,0.03,0,0.05c0.01,0.02,0.01,0.03,0,0.05C6.32,6.05,6.31,6.06,6.31,6.08c0,0.02-0.01,0.04-0.02,0.05
		S6.27,6.15,6.27,6.16S6.26,6.19,6.25,6.2S6.23,6.23,6.23,6.32c-0.01,0.26,0,0.36,0.04,0.4C6.28,6.73,6.3,6.77,6.31,6.8
		c0.02,0.08,0.05,0.15,0.15,0.3C6.5,7.17,6.54,7.24,6.54,7.25c0,0.03,0.03,0.13,0.05,0.16C6.6,7.43,6.6,7.46,6.6,7.48
		c-0.01,0.03-0.01,0.05,0,0.06c0.02,0.03-0.02,0.28-0.05,0.31C6.54,7.86,6.52,7.91,6.5,7.95L6.43,8.06C6.42,8.08,6.4,8.11,6.4,8.12
		s0,0.02-0.01,0.02C6.38,8.15,6.36,8.19,6.34,8.23C6.32,8.27,6.29,8.32,6.27,8.34C6.26,8.36,6.24,8.38,6.23,8.4
		C6.22,8.42,6.2,8.44,6.19,8.45C6.18,8.46,6.17,8.47,6.17,8.48S6.15,8.51,6.14,8.52C6.13,8.53,6.1,8.56,6.07,8.58
		C6.04,8.61,5.98,8.64,5.96,8.65c-0.05,0.03-0.13,0.02-0.21,0C5.68,8.62,5.41,8.6,5.31,8.61C5.04,8.63,4.98,8.64,4.81,8.68
		C4.7,8.71,4.63,8.74,4.62,8.75c0,0.01-0.32,0.1-0.46,0.14C4.1,8.91,4.04,8.91,3.93,8.91c-0.13,0-0.14,0-0.16-0.02
		C3.76,8.88,3.73,8.87,3.71,8.86C3.69,8.85,3.68,8.83,3.67,8.82C3.66,8.81,3.65,8.8,3.63,8.8c-0.02,0-0.05-0.02-0.13-0.09
		C3.45,8.66,3.41,8.6,3.4,8.59S3.39,8.57,3.38,8.57c-0.01,0-0.02-0.01-0.02-0.03c0-0.02-0.01-0.05-0.05-0.09
		C3.28,8.42,3.26,8.4,3.26,8.39S3.24,8.36,3.21,8.34C3.18,8.32,3.15,8.28,3.14,8.27C3.13,8.26,3.12,8.26,3.11,8.26
		c-0.02,0-0.02-0.01-0.02-0.02c0-0.01-0.03-0.06-0.08-0.1C2.93,8.06,2.89,8.03,2.85,8.01C2.83,8,2.81,7.98,2.8,7.98
		C2.79,7.97,2.78,7.96,2.76,7.96S2.71,7.93,2.67,7.9c-0.05-0.04-0.06-0.06-0.1-0.14C2.51,7.64,2.49,7.59,2.5,7.53V7.07
		c0.01-0.03,0-0.04-0.01-0.05S2.49,7,2.5,6.97C2.51,6.95,2.51,6.92,2.51,6.9c0-0.05,0.02-0.15,0.03-0.18c0.01-0.01,0.01-0.02,0-0.03
		c-0.01-0.01,0-0.02,0.01-0.04c0.01-0.02,0.01-0.03,0.01-0.04c0-0.01,0.01-0.03,0.02-0.04C2.59,6.55,2.6,6.53,2.6,6.52
		c0-0.01,0-0.02,0.01-0.04c0.02-0.04,0.02-0.14,0-0.17c-0.01-0.02-0.01-0.03,0-0.05c0.01-0.01,0.02-0.07,0.02-0.13
		c0-0.06,0-0.11,0.01-0.12c0.01-0.02,0.01-0.02,0-0.05C2.63,5.94,2.62,5.91,2.63,5.9c0.01-0.02,0.03-0.11,0.03-0.13
		c0-0.01,0-0.03,0.01-0.04c0.01-0.01,0.04-0.04,0.04-0.06V5.63h0.06c0.05,0,0.06-0.01,0.06-0.03c0-0.01,0.01-0.02,0.02-0.02
		c0.01,0,0.02,0,0.02-0.01s0.02-0.01,0.04-0.01c0.02,0,0.04-0.01,0.06-0.02c0.03-0.01,0.04-0.01,0.07,0
		c0.05,0.02,0.1,0.04,0.13,0.08c0.01,0.02,0.02,0.03,0.04,0.04c0.01,0,0.04,0.05,0.07,0.1C3.3,5.8,3.32,5.84,3.33,5.85
		c0.01,0.01,0.02,0.02,0.02,0.03c0.02,0.01,0.02,0.03,0.02,0.05c0,0.04,0.04,0.11,0.07,0.11c0.01,0,0,0.01,0,0.02
		c0,0.01,0,0.01,0.02,0c0.01,0,0.02,0,0.03-0.01c0-0.01,0.01-0.01,0.02-0.01c0.03,0,0.04-0.01,0.05-0.03
		c0.01-0.02,0.02-0.04,0.03-0.04c0.03,0,0.05-0.02,0.06-0.05c0-0.01,0.03-0.02,0.04-0.03c0.02-0.01,0.05-0.04,0.07-0.07
		c0.03-0.03,0.07-0.07,0.09-0.08C3.89,5.73,3.9,5.72,3.9,5.7c0-0.01,0.01-0.02,0.04-0.03C3.97,5.66,3.99,5.66,4,5.66
		s0.02-0.02,0.03-0.04C4.04,5.6,4.06,5.59,4.08,5.58s0.04-0.03,0.05-0.04c0.01-0.01,0.02-0.02,0.03-0.02s0.02-0.01,0.03-0.03
		C4.2,5.47,4.2,5.45,4.21,5.46c0.01,0,0.01-0.01,0.02-0.02c0.01-0.03,0.07-0.06,0.1-0.05c0.02,0.01,0.02,0,0.02-0.02
		c0-0.02,0-0.03,0.03-0.03c0.02,0,0.03,0,0.03-0.01c0-0.01,0.01-0.02,0.01-0.03c0.01-0.01,0-0.02,0-0.03c0-0.03,0.02-0.05,0.04-0.04
		c0.02,0,0.03-0.01,0.02-0.02C4.47,5.19,4.51,5.15,4.52,5.17C4.53,5.18,4.6,5.12,4.6,5.11C4.6,5.09,4.62,5.06,4.64,5.06
		c0.01,0,0.04-0.02,0.05-0.03C4.7,5.02,4.72,5.01,4.73,5.01c0.01,0,0.02-0.01,0.03-0.03C4.79,4.96,4.8,4.95,4.81,4.95
		c0.02,0,0.11-0.04,0.12-0.06C4.93,4.88,5.04,4.91,5.06,4.94z M3.29,4.48c0.01,0,0.02,0,0.02-0.01C3.31,4.45,3.29,4.45,3.29,4.48z
		 M3.47,4.43H3.43c-0.03,0-0.09,0.03-0.09,0.04s0.07-0.02,0.1-0.03L3.47,4.43z M3.79,4.35c-0.03,0.01-0.08,0.01-0.1,0.01
		c-0.02,0-0.05,0-0.07,0.01C3.6,4.38,3.57,4.39,3.56,4.39S3.53,4.4,3.51,4.41L3.48,4.44l0.1-0.02c0.13-0.03,0.27-0.07,0.29-0.08
		C3.86,4.33,3.82,4.34,3.79,4.35z M4.03,4.29C4.04,4.3,4.05,4.3,4.06,4.3C4.07,4.28,4.04,4.28,4.03,4.29z M4.14,4.26
		C4.11,4.28,4.1,4.29,4.11,4.29c0.03,0,0.07-0.02,0.08-0.04C4.2,4.23,4.2,4.23,4.14,4.26z M4.56,4.21C4.54,4.22,4.49,4.24,4.43,4.25
		C4.39,4.26,4.33,4.27,4.32,4.28C4.3,4.3,4.31,4.3,4.34,4.3c0.04,0,0.07-0.01,0.08-0.02S4.46,4.26,4.5,4.25
		c0.08-0.01,0.21-0.07,0.21-0.08C4.68,4.16,4.62,4.19,4.56,4.21z M4.83,4.13C4.73,4.16,4.71,4.18,4.76,4.17
		c0.09-0.02,0.21-0.04,0.2-0.05C4.94,4.1,4.89,4.11,4.83,4.13z M5.06,4.08C5.05,4.09,5.04,4.1,5.05,4.1S5.09,4.09,5.1,4.08
		C5.11,4.06,5.1,4.06,5.06,4.08z"/>
	<path fill="#9E5C4C" d="M14.23,0.02c0.01,0.01,0.02,0.01,0.03,0.01c0.01,0,0.02,0,0.04,0.02c0.02,0.02,0.04,0.03,0.06,0.03
		c0.04,0,0.09,0.03,0.12,0.07c0.01,0.02,0.04,0.04,0.06,0.06c0.02,0.02,0.04,0.05,0.09,0.13c0.01,0.02,0.03,0.04,0.04,0.06
		c0.02,0.02,0.02,0.03,0.01,0.05c-0.01,0.01-0.01,0.02,0,0.02c0.01,0,0.04,0.01,0.06,0.03c0.06,0.04,0.09,0.09,0.07,0.16
		c0,0.01,0,0.04,0.01,0.07c0.01,0.02,0.01,0.03,0,0.06c-0.01,0.02,0,0.07,0,0.12c0.01,0.06,0,0.08-0.01,0.08
		C14.8,0.99,14.8,1,14.8,1.01s0.01,0.03,0,0.06c-0.01,0.03-0.02,0.06-0.02,0.08c0,0.03,0,0.04-0.03,0.06
		c-0.03,0.02-0.03,0.02-0.03,0.04c0.01,0.02,0,0.03-0.03,0.05c-0.02,0.01-0.04,0.04-0.06,0.07c-0.03,0.05-0.09,0.1-0.11,0.09
		c-0.01-0.01-0.02,0-0.03,0.01s-0.03,0.02-0.04,0.02s-0.03,0.02-0.04,0.05c-0.02,0.04-0.02,0.04-0.06,0.05h-0.06
		c-0.01,0-0.02,0-0.02,0.01s-0.01,0.02-0.04,0s-0.03-0.02-0.06,0c-0.02,0.01-0.04,0.03-0.05,0.04c-0.01,0.01-0.03,0.01-0.05,0.01
		c-0.02,0-0.06,0.01-0.08,0.02c-0.02,0.01-0.04,0.02-0.05,0.02c-0.02,0-0.08,0.03-0.1,0.05c-0.01,0.01-0.02,0.01-0.03,0
		s-0.03,0-0.06,0.01c-0.02,0.01-0.05,0.02-0.06,0.02c-0.02,0.01-0.02,0.02,0,0.06c0.01,0.03,0.05,0.06,0.07,0.09
		c0.02,0.02,0.04,0.06,0.04,0.07s0.03,0.06,0.04,0.12c0.01,0.05,0.03,0.12,0.04,0.14c0.01,0.02,0.02,0.04,0.02,0.05
		c0,0.01,0.02,0.04,0.05,0.07c0.06,0.06,0.07,0.06,0.28,0.04l0.17-0.02c0.01-0.01,0.03-0.01,0.06-0.01c0.19,0,0.38-0.03,0.45-0.06
		C14.95,2.3,14.97,2.3,15,2.3c0.04,0,0.21-0.04,0.23-0.06c0.01,0,0.03-0.01,0.04-0.03c0.02-0.03,0.03-0.03,0.05-0.02
		c0.02,0.01,0.02,0.01,0.03,0c0.01-0.02,0.06-0.03,0.09-0.03c0.03,0,0.07,0.01,0.11,0.02c0.03,0.01,0.05,0,0.06,0
		c0.01-0.01,0.03-0.01,0.05-0.01c0.03,0,0.06-0.01,0.09-0.02c0.03-0.01,0.03-0.01,0.09,0.02c0.06,0.03,0.09,0.04,0.22,0.04
		c0.01,0,0.06,0.01,0.1,0.03c0.04,0.02,0.08,0.04,0.09,0.04c0.01,0,0.03,0.01,0.05,0.03c0.05,0.05,0.08,0.07,0.13,0.07
		c0.04,0,0.06,0,0.11,0.04c0.03,0.02,0.06,0.05,0.07,0.05s0.02,0,0.02,0.01c0,0.01,0.01,0.01,0.02,0.01c0.01,0,0.02,0.02,0.02,0.03
		c0,0.01,0.01,0.01,0.02,0.01c0.01,0,0.04,0.01,0.05,0.02s0.03,0.02,0.04,0.02s0.04,0.02,0.06,0.04c0.03,0.02,0.06,0.04,0.08,0.05
		c0.02,0.01,0.06,0.01,0.06,0.02c0.01,0.01,0.02,0.02,0.04,0.03c0.02,0.01,0.03,0.03,0.04,0.05c0.01,0.01,0.04,0.05,0.07,0.08
		c0.04,0.04,0.06,0.08,0.07,0.13C17.2,3,17.22,3.04,17.23,3.06c0.04,0.05,0.05,0.09,0.05,0.17c0,0.04-0.01,0.07-0.03,0.11
		c-0.01,0.02-0.03,0.06-0.04,0.07c-0.01,0.01-0.03,0.04-0.05,0.06c-0.02,0.02-0.05,0.04-0.07,0.06c-0.06,0.05-0.13,0.08-0.25,0.1
		c-0.09,0.01-0.12,0.01-0.16,0c-0.04-0.01-0.05-0.01-0.06,0c-0.01,0.01-0.09,0-0.26,0c-0.31-0.01-1.15,0-1.42,0.01
		c-0.21,0.01-0.36,0.04-0.41,0.07c-0.03,0.02-0.08,0.13-0.08,0.17c0,0.02,0.02,0.03,0.11,0.07c0.06,0.02,0.1,0.04,0.11,0.05
		c0.01,0.01,0.03,0.01,0.05,0.01c0.02,0,0.04,0.01,0.04,0.02s0.02,0.01,0.03,0.01c0.02,0,0.03,0,0.04,0.01
		c0.01,0,0.05,0.02,0.09,0.04c0.04,0.02,0.09,0.05,0.11,0.06s0.03,0.02,0.04,0.01c0.01,0,0.02,0,0.03,0.01
		c0.03,0.02,0.32,0.08,0.37,0.08c0.02,0,0.05-0.01,0.07-0.02c0.03-0.01,0.05-0.01,0.06,0c0.01,0.01,0.02,0.01,0.03,0
		c0.01-0.01,0.02-0.01,0.03,0c0.02,0.01,0.02,0.02,0.03,0.01c0.01-0.01,0.02-0.01,0.03-0.01c0.02,0.01,0.03,0.01,0.05-0.02
		c0.02-0.03,0.03-0.03,0.07-0.03c0.06,0,0.16,0.03,0.16,0.05c0,0.01,0.02,0.01,0.09,0.01c0.07,0,0.09,0,0.09,0.01
		s0.01,0.02,0.02,0.02c0.01,0,0.03,0.01,0.05,0.02c0.03,0.02,0.08,0.04,0.06,0.01c0.01,0,0.01-0.01,0.02-0.01
		c0.01,0,0.03,0.01,0.04,0.04c0.03,0.06,0.1,0.13,0.15,0.15c0.03,0.01,0.06,0.03,0.07,0.05c0.01,0.02,0.05,0.04,0.08,0.06
		c0.03,0.02,0.05,0.05,0.06,0.06c0.01,0.01,0.04,0.04,0.07,0.05c0.03,0.01,0.05,0.03,0.05,0.04c0,0.01,0.02,0.03,0.04,0.05
		c0.02,0.02,0.07,0.08,0.1,0.11c0.06,0.06,0.13,0.18,0.13,0.21c0,0.01,0.01,0.02,0.02,0.03c0.02,0.02,0.03,0.04,0.03,0.11
		c0.01,0.16-0.02,0.22-0.15,0.28c-0.08,0.04-0.2,0.06-0.27,0.03c-0.01,0-0.08-0.02-0.13-0.03s-0.1-0.02-0.14-0.04
		c-0.03-0.02-0.06-0.03-0.07-0.03c-0.01,0-0.03,0-0.03-0.01s-0.03-0.02-0.05-0.03c-0.02-0.01-0.04-0.02-0.05-0.03
		c-0.01-0.01-0.02-0.01-0.03-0.01c-0.01,0-0.03-0.01-0.03-0.02s-0.02-0.02-0.05-0.04c-0.03-0.02-0.06-0.05-0.08-0.07
		c-0.02-0.02-0.04-0.04-0.08-0.05c-0.03-0.01-0.07-0.03-0.08-0.04c-0.01-0.01-0.02-0.02-0.02-0.01c-0.01,0.02-0.07-0.02-0.1-0.06
		c-0.01-0.02-0.02-0.02-0.04-0.01c-0.02,0.01-0.02,0.01-0.03,0c-0.01-0.01-0.02-0.02-0.02-0.03c0-0.02-0.07-0.07-0.1-0.08
		c-0.01,0-0.03-0.01-0.04-0.02c-0.02-0.03-0.19-0.1-0.29-0.12c-0.05-0.01-0.13-0.04-0.19-0.07c-0.06-0.03-0.12-0.06-0.13-0.06
		c-0.01,0-0.12-0.05-0.24-0.11s-0.22-0.1-0.23-0.1c-0.01,0.01-0.02,0-0.03-0.01c-0.03-0.03-0.18-0.08-0.19-0.07
		c-0.01,0.02-0.03,0.13-0.03,0.17c0,0.02,0.01,0.03,0,0.04c-0.02,0.01-0.03,0.51-0.02,0.59c0.01,0.04,0,0.04,0.02,0.04
		c0.01,0,0.05,0.01,0.07,0.02c0.02,0.01,0.05,0.03,0.06,0.03s0.09,0.01,0.17,0.03c0.08,0.02,0.16,0.03,0.17,0.03
		c0.01,0,0.04,0.01,0.05,0.02c0.02,0.01,0.04,0.01,0.06,0.01c0.05,0,0.12,0.03,0.16,0.06c0.02,0.01,0.05,0.03,0.06,0.03
		c0.04,0.01,0.11,0.04,0.12,0.06c0,0.01,0.02,0.02,0.04,0.03c0.02,0.01,0.05,0.03,0.06,0.04c0.01,0.01,0.02,0.01,0.03,0.01
		c0.01,0,0.03,0,0.05,0.01c0.03,0.01,0.1,0.05,0.16,0.07c0.07,0.02,0.13,0.04,0.14,0.06c0.01,0.01,0.02,0.02,0.03,0.02
		c0.02,0,0.13,0.09,0.2,0.16c0.05,0.05,0.09,0.17,0.07,0.19c-0.01,0.01-0.01,0.01-0.01,0.02c0,0.01-0.01,0.04-0.03,0.07
		c-0.02,0.03-0.03,0.06-0.03,0.07s-0.01,0.04-0.02,0.06c-0.01,0.02-0.02,0.06-0.02,0.07s-0.01,0.07-0.03,0.12
		c-0.02,0.05-0.03,0.11-0.03,0.13c0,0.02-0.01,0.05-0.02,0.08c-0.01,0.03-0.03,0.13-0.04,0.22s-0.04,0.22-0.05,0.3
		c-0.02,0.12-0.03,0.18-0.03,0.37c0,0.12,0.01,0.25,0.01,0.29c0.01,0.09,0,0.17-0.03,0.19c-0.03,0.03-0.09,0.1-0.09,0.12
		c0,0.03-0.02,0.09-0.05,0.15c-0.01,0.03-0.02,0.06-0.02,0.07s-0.01,0.07-0.03,0.13c-0.05,0.15-0.1,0.21-0.18,0.24
		c-0.02,0.01-0.08,0.03-0.11,0.04c-0.03,0.01-0.07,0.02-0.09,0.02c-0.02,0-0.07,0.01-0.1,0.02c-0.03,0.01-0.08,0.02-0.1,0.02
		c-0.02,0-0.06,0.01-0.09,0.02c-0.03,0.01-0.06,0.02-0.08,0.02c-0.02,0-0.05,0-0.07,0.01c-0.03,0.01-0.06,0.01-0.17-0.01
		c-0.11-0.02-0.15-0.02-0.22-0.02c-0.05,0-0.09,0-0.1,0.01c-0.01,0.01-0.05,0.01-0.11,0.01c-0.05,0-0.13-0.01-0.16,0
		c-0.05,0.01-0.08,0.01-0.19-0.01c-0.14-0.03-0.24-0.04-0.25-0.02s-0.18,0.01-0.34-0.02c-0.07-0.01-0.16-0.02-0.2-0.02
		c-0.11,0-0.32-0.03-0.36-0.05c-0.02-0.01-0.03-0.02-0.04-0.02c-0.02,0-0.11-0.04-0.16-0.07c-0.04-0.03-0.06-0.04-0.13-0.04
		c-0.08,0-0.11-0.01-0.14-0.07c-0.01-0.01-0.02-0.04-0.04-0.06C12,8.57,11.99,8.55,11.98,8.43c0-0.06-0.01-0.15-0.01-0.19
		s0-0.08-0.01-0.08s0-0.01,0.01-0.02c0.02-0.03,0.02-0.16,0-0.18c-0.01-0.01-0.02-0.03-0.01-0.08c0.01-0.07,0-0.13-0.02-0.15
		c-0.01-0.01-0.01-0.03-0.01-0.04c0-0.04-0.06-0.17-0.09-0.21c-0.02-0.02-0.04-0.06-0.05-0.08c-0.02-0.06-0.04-0.09-0.09-0.09
		c-0.02,0-0.04,0-0.04,0.01c-0.01,0.02-0.09,0.01-0.12-0.01c-0.04-0.02-0.05-0.04-0.06-0.13c-0.01-0.04-0.03-0.1-0.03-0.11
		c-0.01-0.02-0.03-0.04-0.02-0.05c0-0.01,0.01-0.04,0-0.07c-0.01-0.04-0.02-0.1-0.02-0.22c0-0.16,0-0.26-0.01-0.31l-0.01-0.03
		l-0.05,0.03c-0.05,0.03-0.16,0.07-0.39,0.14c-0.08,0.02-0.14,0.05-0.16,0.07c-0.02,0.02-0.06,0.04-0.1,0.06
		c-0.04,0.01-0.08,0.03-0.11,0.04c-0.03,0.01-0.08,0.04-0.12,0.05c-0.04,0.01-0.1,0.03-0.15,0.05c-0.05,0.02-0.1,0.03-0.12,0.03
		c-0.04,0-0.08,0.02-0.15,0.07C9.95,7,9.83,7.01,9.71,6.95c-0.05-0.03-0.2-0.19-0.2-0.22c0-0.01,0-0.03-0.01-0.05
		C9.48,6.63,9.45,6.34,9.44,6.17c0-0.08-0.02-0.16-0.02-0.19C9.41,5.89,9.41,5.84,9.43,5.81c0.02-0.02,0.02-0.04,0-0.06
		c-0.01-0.02-0.01-0.03,0-0.04c0.01-0.01,0.01-0.02,0-0.03c0-0.01-0.01-0.04-0.01-0.07c0-0.05-0.01-0.07-0.04-0.1
		C9.35,5.48,9.33,5.45,9.33,5.44S9.32,5.4,9.3,5.38C9.28,5.36,9.27,5.34,9.27,5.32c0-0.06,0.01-0.07,0.15-0.08
		c0.25-0.02,0.36-0.02,0.44-0.01c0.06,0.01,0.12,0.02,0.18,0.02c0.06,0,0.1-0.01,0.11,0c0.02,0.01,0.06,0,0.12-0.02
		c0.01-0.01,0.02,0,0.02,0.01c0,0.01,0.01,0.02,0.02,0.02s0.02-0.01,0.04,0c0.02,0,0.04,0,0.11-0.03c0.05-0.02,0.1-0.05,0.12-0.05
		c0.02,0,0.03,0,0.03-0.01c0-0.01,0.01-0.02,0.03-0.02c0.02,0,0.08-0.01,0.13-0.03c0.05-0.02,0.1-0.03,0.11-0.03
		c0.01,0,0.02,0,0.02-0.01c0-0.01,0-0.02,0.03-0.02c0.03,0,0.05-0.01,0.08-0.03c0.02-0.02,0.06-0.03,0.08-0.04l0.1-0.05
		c0.04-0.02,0.1-0.05,0.15-0.07c0.05-0.02,0.11-0.06,0.13-0.08c0.03-0.02,0.05-0.04,0.06-0.04c0.01,0,0.12-0.11,0.17-0.17
		c0.02-0.03,0.07-0.09,0.11-0.13s0.08-0.1,0.11-0.13c0.03-0.03,0.11-0.13,0.19-0.21c0.16-0.17,0.23-0.26,0.2-0.26
		c-0.01,0-0.06-0.02-0.12-0.03c-0.06-0.01-0.16-0.03-0.17-0.03c-0.08-0.01-0.19-0.03-0.21-0.04c-0.01,0-0.04-0.01-0.08-0.01
		c-0.1-0.01-0.19-0.03-0.2-0.04c-0.01-0.01-0.02-0.01-0.04-0.01c-0.02,0-0.07,0-0.12-0.01c-0.15-0.03-0.26-0.04-0.28-0.04
		c-0.01,0-0.04-0.01-0.06-0.02c-0.02-0.01-0.06-0.01-0.1-0.02s-0.06-0.02-0.07-0.02c0-0.01-0.03-0.02-0.05-0.02
		c-0.02,0-0.04-0.01-0.05-0.01c-0.01,0-0.06-0.02-0.11-0.03c-0.11-0.02-0.13-0.03-0.17-0.07c-0.03-0.04-0.04-0.05-0.11-0.06
		c-0.04-0.01-0.09-0.02-0.11-0.03c-0.01-0.01-0.03-0.02-0.04-0.02c-0.03,0-0.15-0.06-0.18-0.09C10.02,3.23,10,3.22,9.99,3.22
		c-0.01,0-0.06-0.05-0.08-0.1C9.9,3.1,9.89,3.06,9.89,3.04c0-0.03,0-0.05-0.01-0.06C9.86,2.97,9.87,2.91,9.89,2.89
		C9.9,2.88,9.9,2.86,9.9,2.85c0-0.04,0.02-0.09,0.03-0.09s0.04,0.01,0.09,0.02l0.09,0.03l0.17-0.02c0.64-0.08,0.78-0.08,0.94-0.06
		c0.04,0.01,0.07,0.02,0.08,0.01c0.01-0.01-0.02-0.09-0.04-0.11c-0.01-0.01-0.01-0.02-0.01-0.03c0-0.01-0.01-0.05-0.03-0.07
		c-0.02-0.03-0.03-0.06-0.03-0.07c0-0.02-0.01-0.04-0.03-0.06c-0.02-0.02-0.03-0.03-0.03-0.04s0-0.03-0.01-0.04S11.1,2.28,11.1,2.26
		c0-0.02-0.01-0.04-0.02-0.06c-0.02-0.05-0.02-0.16,0-0.2l0.02-0.03l0.03,0.02c0.04,0.04,0.07,0.03,0.07-0.03
		c0-0.03,0.01-0.04,0.03-0.04c0.01,0,0.05,0,0.07,0.01c0.03,0.01,0.04,0.01,0.05,0c0.01-0.01,0.02-0.01,0.03-0.01s0.03,0.01,0.05,0
		c0.02-0.01,0.02-0.01,0.04,0.01c0.01,0.01,0.05,0.03,0.07,0.04c0.03,0.01,0.07,0.05,0.1,0.07c0.03,0.02,0.06,0.04,0.07,0.04
		s0.03,0.01,0.04,0.02c0.08,0.08,0.16,0.14,0.21,0.15c0.02,0,0.09,0.02,0.16,0.02c0.11,0,0.14,0.01,0.16,0.03
		c0.06,0.04,0.04,0.09-0.04,0.13c-0.04,0.02-0.05,0.03-0.06,0.05c0,0.02-0.01,0.03-0.03,0.03c-0.02,0-0.02,0-0.02,0.06
		c0,0.03,0.01,0.08,0.02,0.09s0.02,0.02,0.02,0.03c-0.01,0.02,0.01,0.04,0.04,0.04c0.02,0,0.04,0,0.05,0.01
		c0.01,0.01,0.05,0,0.13-0.01c0.07-0.01,0.16-0.02,0.21-0.02c0.05-0.01,0.11-0.01,0.12-0.02c0.01-0.01,0.04-0.01,0.06-0.01
		c0.03,0,0.05-0.01,0.06-0.02c0.01-0.01,0.03-0.02,0.04-0.02c0.04-0.01,0.07-0.03,0.07-0.05c0.02-0.08,0.03-0.2,0.03-0.27
		c0-0.05,0-0.09,0.01-0.1c0-0.01,0-0.03-0.01-0.05c-0.01-0.02-0.02-0.04-0.01-0.12l0.01-0.09h-0.03c-0.02,0-0.05,0.01-0.06,0.02
		c-0.08,0.03-0.24,0.01-0.43-0.07c-0.06-0.02-0.12-0.04-0.13-0.04c-0.01,0-0.02-0.01-0.03-0.02c-0.02-0.02-0.25-0.1-0.32-0.11
		c-0.05-0.01-0.06-0.02-0.1-0.09l-0.02-0.06h-0.09c-0.05,0-0.11-0.01-0.15-0.01s-0.11-0.01-0.14-0.02
		c-0.03-0.01-0.07-0.02-0.08-0.02c-0.03,0-0.1-0.08-0.11-0.13c-0.02-0.09-0.09-0.18-0.15-0.21c-0.01-0.01-0.03-0.02-0.04-0.04
		c-0.02-0.05-0.16-0.18-0.19-0.18c-0.05,0-0.06-0.01-0.07-0.04c0-0.02-0.03-0.05-0.06-0.08c-0.03-0.03-0.05-0.06-0.06-0.08
		c-0.01-0.04-0.01-0.05,0-0.08c0.02-0.05,0.04-0.07,0.06-0.07c0.01,0,0.03-0.01,0.03-0.02c0.01-0.02,0.03-0.04,0.05-0.03
		c0.01,0,0.02,0,0.04-0.01c0.02-0.01,0.05-0.02,0.08-0.02s0.05-0.02,0.05-0.03c0-0.01,0.01-0.02,0.02-0.01
		c0.01,0,0.04-0.01,0.07-0.02c0.08-0.04,0.21-0.07,0.35-0.09c0.14-0.02,0.31-0.04,0.4-0.05c0.09-0.01,0.7-0.02,0.87-0.01
		c0.07,0.01,0.18,0.01,0.25,0.01s0.15-0.01,0.17-0.01c0.03,0,0.06-0.01,0.09-0.03c0.04-0.02,0.06-0.02,0.08-0.02
		c0.03,0,0.06,0,0.07-0.01c0.03-0.02,0.05-0.03,0.1-0.03c0.07,0,0.08-0.01,0.09-0.03C13.6,0.2,13.6,0.2,13.61,0.21
		c0.01,0.01,0.02,0,0.04-0.01c0.02-0.01,0.04-0.01,0.06-0.01c0.03,0,0.04,0,0.04-0.01c0-0.01,0.01-0.02,0.02-0.02
		c0.01,0,0.03-0.02,0.03-0.03c0.01-0.02,0.02-0.02,0.1-0.02h0.09l0.02-0.03c0.02-0.03,0.03-0.04,0.07-0.04c0.01,0,0.03,0,0.05-0.01
		C14.17,0.01,14.21,0,14.23,0.02z M12.95,4.85c-0.01,0-0.02,0.01-0.04,0.02c-0.02,0.01-0.04,0.03-0.05,0.03s-0.01,0.01-0.02,0.02
		c-0.01,0.01-0.03,0.01-0.04,0.01c-0.01,0-0.03,0.01-0.05,0.03c-0.04,0.04-0.09,0.07-0.18,0.1c-0.24,0.08-0.27,0.1-0.35,0.2
		c-0.03,0.04-0.07,0.08-0.09,0.1c-0.06,0.06-0.18,0.23-0.2,0.28c-0.01,0.02-0.03,0.05-0.05,0.07c-0.04,0.05-0.04,0.1,0,0.13
		c0.02,0.01,0.04,0.03,0.05,0.02c0.02-0.01,0.1,0.03,0.12,0.06c0.03,0.03,0.17,0.26,0.19,0.3c0.01,0.02,0.04,0.06,0.06,0.09
		l0.03,0.06l0.04-0.03c0.09-0.07,0.19-0.16,0.19-0.17c0.03-0.01,0.13-0.1,0.26-0.23c0.06-0.06,0.14-0.12,0.17-0.14
		c0.03-0.02,0.07-0.05,0.09-0.07c0.02-0.02,0.1-0.08,0.17-0.14c0.17-0.12,0.17-0.13,0.15-0.18c-0.01-0.03-0.03-0.05-0.06-0.06
		c-0.02-0.01-0.05-0.03-0.05-0.04s-0.02-0.04-0.05-0.07l-0.07-0.07c-0.01-0.02-0.01-0.03-0.02-0.03c-0.01,0-0.02-0.02-0.03-0.05
		c-0.03-0.07-0.13-0.22-0.15-0.23C12.96,4.86,12.96,4.85,12.95,4.85z M12.69,6.91c-0.05,0.06-0.1,0.12-0.1,0.14
		c0,0.01-0.01,0.02-0.02,0.03c-0.01,0.01-0.02,0.03-0.02,0.04c0,0.01-0.01,0.02-0.02,0.03s-0.02,0.03-0.02,0.06
		c0,0.02,0,0.1-0.01,0.18c-0.01,0.1-0.01,0.16-0.01,0.17c0.02,0.03,0.05,0.02,0.05-0.01c0-0.02,0.01-0.01,0.02-0.01
		s0.01,0,0.01-0.02c0-0.02,0.01-0.02,0.02-0.02c0.01,0,0.01,0.01,0.01,0.02c-0.01,0.02,0,0.02,0.04,0c0.03-0.02,0.04-0.02,0.05,0
		c0.01,0.02,0.01,0.02,0.09,0.01c0.07-0.01,0.09-0.02,0.09-0.03c0-0.02,0.01-0.02,0.02-0.02c0.01,0,0.03,0.01,0.04,0.01
		c0.01,0,0.01,0.01,0.02,0c0-0.01,0.01,0,0.02,0c0.01,0,0.03-0.01,0.05-0.02c0.02-0.01,0.04-0.01,0.05,0c0.01,0.01,0.04,0,0.11-0.01
		c0.11-0.02,0.16-0.02,0.26,0c0.04,0.01,0.08,0.01,0.09,0.01c0.01,0,0.03-0.01,0.04,0c0.01-0.01,0.03-0.12,0.04-0.24l0.02-0.25V6.96
		L13.5,6.97h-0.21c-0.09,0-0.29-0.03-0.31-0.05c-0.01-0.01-0.02,0-0.03,0S12.9,6.91,12.86,6.9C12.75,6.87,12.73,6.87,12.69,6.91z
		 M13.98,5.66c-0.02,0-0.06,0.02-0.08,0.03h-0.04c-0.02,0-0.27,0.22-0.38,0.33c-0.03,0.04-0.08,0.09-0.1,0.13
		c-0.02,0.03-0.05,0.07-0.07,0.09c-0.02,0.01-0.03,0.03-0.03,0.04c0,0.01-0.05,0.06-0.12,0.13c-0.07,0.07-0.13,0.12-0.12,0.13
		s0.11,0,0.22-0.01c0.2-0.01,0.35-0.03,0.42-0.05l0.04-0.01l0.01-0.08c0.01-0.06,0-0.09-0.01-0.1s-0.01-0.04-0.01-0.09V6.12
		l0.03,0.01c0.02,0,0.03,0,0.04-0.02c0.01-0.02,0.01-0.02,0-0.04C13.76,6.04,13.75,6,13.77,6c0.01,0,0.03,0.01,0.05,0.03
		c0.02,0.02,0.04,0.03,0.06,0.03c0.02,0,0.04,0.01,0.05,0.02s0.02,0.02,0.03,0.02c0.01,0,0.02,0.01,0.02,0.02S14,6.14,14.03,6.16
		c0.04,0.03,0.05,0.05,0.07,0.12l0.03,0.07h0.04c0.04,0,0.51-0.09,0.52-0.1s0-0.06-0.01-0.14c-0.01-0.08-0.02-0.16-0.02-0.2
		c0-0.08-0.02-0.13-0.08-0.15c-0.02-0.01-0.05-0.02-0.06-0.03c-0.01-0.01-0.04-0.01-0.07-0.01c-0.09,0-0.26-0.02-0.32-0.04
		c-0.04-0.01-0.05-0.01-0.06,0c-0.01,0.01-0.03,0.01-0.05,0C14,5.67,13.99,5.66,13.98,5.66z M14.62,6.75
		c-0.01,0.01-0.04,0.02-0.08,0.02c-0.03,0-0.07,0.02-0.08,0.03c-0.01,0.01-0.04,0.02-0.06,0.02s-0.06,0-0.07,0.01
		c-0.01,0.01-0.05,0.01-0.09,0.02c-0.04,0.01-0.07,0.02-0.08,0.03c-0.01,0.01-0.02,0.05-0.03,0.1c-0.01,0.09-0.05,0.44-0.04,0.45
		c0.01,0.01,0.1,0,0.22,0h0.21l0.02-0.04c0.03-0.06,0.05-0.13,0.07-0.24c0.01-0.08,0.04-0.33,0.04-0.39
		C14.65,6.74,14.64,6.73,14.62,6.75z M15.52,1.07c0.03,0.03,0.06,0.06,0.07,0.06s0.02,0.01,0.02,0.02c0,0.01,0.01,0.04,0.03,0.06
		c0.02,0.02,0.04,0.03,0.04,0.04s0.01,0.04,0.03,0.08c0.04,0.08,0.06,0.2,0.06,0.3c0,0.1-0.04,0.2-0.14,0.3
		c-0.04,0.04-0.09,0.08-0.1,0.1c-0.03,0.03-0.07,0.04-0.09,0.01c-0.01-0.01-0.02-0.01-0.03-0.01s-0.02-0.01-0.04-0.02
		C15.35,2,15.34,2,15.33,2.01c-0.01,0.01-0.02,0.01-0.05-0.02c-0.04-0.03-0.06-0.04-0.1-0.04c-0.08,0-0.12-0.03-0.16-0.09
		C15,1.82,15,1.81,15,1.76c0-0.03,0-0.08-0.01-0.08c0-0.01-0.04-0.02-0.08-0.04c-0.04-0.02-0.07-0.04-0.08-0.06
		c-0.01,0-0.01-0.01,0-0.04c0.02-0.05,0.08-0.08,0.18-0.09c0.06-0.01,0.07-0.02,0.07-0.03s0.02-0.03,0.03-0.04
		c0.04-0.02,0.09-0.14,0.1-0.23c0.02-0.1,0.03-0.12,0.05-0.12c0.01,0,0.03,0,0.04-0.01C15.31,1.01,15.33,1,15.34,1
		c0.02,0,0.03-0.01,0.03-0.02C15.37,0.94,15.45,0.99,15.52,1.07z"/>
	<path fill="#9E5C4C" d="M20.36,3.71c0.02-0.01,0.03-0.01,0.05,0.01c0.01,0.01,0.03,0.01,0.04,0.01c0.01,0,0.03,0,0.04,0.01
		c0.02,0.02,0.02,0.02,0.02,0c0-0.03,0.03-0.05,0.06-0.03c0.03,0.01,0.06,0.07,0.06,0.12c0,0.01,0,0.03,0.01,0.05
		c0.02,0.05,0.04,0.27,0.02,0.33c-0.01,0.03-0.03,0.1-0.04,0.15c-0.01,0.05-0.04,0.13-0.06,0.17c-0.04,0.1-0.13,0.24-0.18,0.29
		c-0.02,0.02-0.07,0.08-0.11,0.13C20.23,5,20.14,5.1,20.07,5.16c-0.06,0.06-0.12,0.12-0.13,0.14c-0.01,0.02-0.04,0.07-0.08,0.12
		c-0.04,0.05-0.07,0.09-0.07,0.1s-0.01,0.02-0.03,0.03c-0.02,0.01-0.04,0.01-0.04,0.02s-0.01,0.01-0.01,0.02
		c0,0.01,0,0.01,0.02,0.01h0.03l-0.03,0.01l-0.02,0.02l0.03,0.04c0.04,0.07,0.07,0.19,0.08,0.28c0.01,0.05,0.01,0.08,0.02,0.08
		s0,0.02,0,0.04c0,0.03,0,0.05,0.01,0.07c0.01,0.01,0.01,0.03,0.01,0.05c0,0.01,0,0.02,0.01,0.03c0.01,0,0.02,0.03,0.02,0.06
		c0,0.03,0.01,0.06,0.02,0.07c0.01,0.01,0.02,0.03,0.01,0.04s0,0.03,0.01,0.07c0.01,0.03,0.02,0.07,0.02,0.08s0.01,0.03,0.02,0.05
		c0.03,0.04,0.09,0.26,0.1,0.34c0,0.03,0.01,0.08,0.02,0.1c0.02,0.07,0.03,0.34,0.02,0.66c-0.01,0.22-0.01,0.31,0,0.33
		c0,0.01,0,0.07-0.02,0.22c-0.02,0.11-0.03,0.21-0.03,0.23c0,0.03-0.01,0.04-0.02,0.05c-0.01,0.01-0.02,0.03-0.03,0.06
		c-0.03,0.09-0.07,0.13-0.16,0.18c-0.07,0.04-0.08,0.04-0.1,0.03c-0.03-0.02-0.06-0.02-0.14-0.02c-0.05,0-0.07-0.01-0.11-0.04
		c-0.01,0-0.05-0.03-0.07-0.04c-0.02-0.01-0.04-0.04-0.06-0.06c-0.04-0.06-0.11-0.12-0.17-0.16c-0.03-0.02-0.05-0.04-0.06-0.06
		c-0.01-0.02-0.03-0.04-0.04-0.06c-0.01-0.01-0.02-0.05-0.03-0.07c-0.02-0.07-0.03-0.24-0.03-0.42c0-0.13-0.01-0.19-0.02-0.22
		c-0.01-0.03-0.02-0.04-0.01-0.05c0.01-0.02,0.01-0.11-0.01-0.17C19,7.39,19,7.36,19.01,7.35c0.01-0.01,0.02-0.09,0.02-0.18
		c0-0.09,0.01-0.17,0.01-0.18c0.01-0.01,0.03-0.19,0.03-0.24s-0.04-0.27-0.05-0.29C19,6.44,18.95,6.42,18.9,6.42
		c-0.03,0-0.18-0.1-0.21-0.14c-0.01-0.02-0.02-0.02-0.03-0.02c-0.01,0.01-0.05-0.01-0.05-0.02c0-0.01-0.02-0.04-0.03-0.04
		s-0.02-0.01-0.03-0.03c-0.01-0.02-0.04-0.05-0.08-0.08L18.4,6.04l-0.07,0.02c-0.08,0.02-0.15,0.01-0.23-0.02
		c-0.04-0.02-0.06-0.03-0.07-0.06C18.02,5.95,18.01,5.93,18,5.93c-0.01-0.01,0-0.12,0.01-0.14c0-0.01,0.01-0.01,0.02-0.01
		c0.02,0,0.18-0.15,0.21-0.2c0.01-0.02,0.04-0.07,0.07-0.1c0.03-0.03,0.06-0.08,0.08-0.1c0.02-0.03,0.05-0.05,0.06-0.06
		c0.04-0.02,0.1-0.08,0.1-0.09s0.01-0.01,0.03-0.02c0.04-0.02,0.09-0.05,0.1-0.07c0-0.01,0.01-0.02,0.02-0.03s0.07-0.04,0.11-0.08
		c0.05-0.04,0.11-0.09,0.13-0.11c0.02-0.02,0.07-0.05,0.1-0.08s0.06-0.05,0.07-0.05c0.02,0,0.29-0.19,0.34-0.23
		c0.03-0.02,0.06-0.04,0.07-0.05c0.04-0.02,0.33-0.29,0.35-0.32c0.01-0.01,0.02-0.02,0.03-0.02c0.01-0.02,0.1-0.12,0.17-0.19
		l0.05-0.05c0.02-0.04,0.13-0.15,0.16-0.16c0.01,0,0.04-0.01,0.05-0.02L20.36,3.71z M19.81,0.41c0.06,0.01,0.08,0.02,0.12,0.06
		c0.03,0.02,0.06,0.05,0.07,0.05c0.02,0,0.04,0.01,0.05,0.05c0.01,0.03,0.03,0.06,0.05,0.08c0.02,0.01,0.03,0.04,0.03,0.05
		c0,0.02,0,0.02,0.02,0.02c0.02,0,0.03,0.01,0.03,0.03c0,0.02,0.01,0.03,0.02,0.03c0.01,0.02,0.03,0.04,0.05,0.06
		c0.02,0.02,0.03,0.04,0.03,0.05c0,0.01,0.04,0.08,0.07,0.13c0.02,0.02,0.03,0.06,0.04,0.08c0.01,0.02,0.01,0.03,0.02,0.02
		c0.01,0.02,0.02,0.03,0.03,0.04c0.01,0.01,0.01,0.02,0.01,0.04c0,0.01-0.01,0.04,0,0.04c0.02,0.01,0.06,0.1,0.06,0.14
		c0,0.02,0.01,0.06,0.02,0.09s0.03,0.12,0.05,0.2c0.02,0.08,0.04,0.17,0.05,0.2c0.02,0.07,0.01,0.29-0.01,0.37
		c-0.01,0.03-0.02,0.08-0.03,0.11c-0.04,0.13-0.06,0.22-0.08,0.24c-0.01,0.01-0.04,0.05-0.06,0.1c-0.02,0.05-0.05,0.1-0.06,0.12
		c-0.01,0.02-0.02,0.04-0.02,0.05c0,0.01-0.01,0.01-0.03,0.03c-0.02,0.02-0.03,0.04-0.03,0.05c0,0.02-0.19,0.21-0.21,0.21
		c-0.01,0-0.02,0.01-0.04,0.03C20.03,3.2,20.01,3.21,20,3.21c-0.01,0-0.03,0-0.03,0.01s-0.01,0.02-0.02,0.02
		c-0.01,0-0.02,0.01-0.03,0.02c-0.01,0.01-0.03,0.02-0.05,0.03c-0.06,0.02-0.12,0.05-0.17,0.1c-0.02,0.02-0.08,0.05-0.11,0.06
		c-0.03,0.01-0.07,0.04-0.08,0.05c-0.01,0.01-0.03,0.02-0.04,0.02s-0.03,0.01-0.05,0.02c-0.02,0.01-0.05,0.01-0.06,0.01
		c-0.01,0-0.02,0-0.03,0.01s-0.03-0.01-0.08-0.04c-0.09-0.06-0.14-0.1-0.16-0.14c-0.01-0.02-0.03-0.05-0.04-0.06
		c-0.01-0.01-0.03-0.03-0.04-0.05C19,3.25,18.97,3.24,18.96,3.24c-0.01,0-0.02-0.01-0.05-0.06c-0.02-0.03-0.06-0.08-0.09-0.11
		c-0.04-0.04-0.07-0.09-0.1-0.15c-0.04-0.08-0.05-0.11-0.05-0.15c0-0.03,0-0.1,0.01-0.13c0.01-0.03,0.01-0.07,0.01-0.08
		c0-0.01,0-0.01,0.01-0.02s0.01-0.01,0-0.02c-0.01-0.01-0.01-0.01,0-0.02s0.01-0.03,0.01-0.06c0-0.04,0-0.06-0.02-0.06
		c-0.01,0-0.02-0.02-0.02-0.03c0-0.02,0-0.02-0.02-0.03c-0.01-0.01-0.03-0.02-0.03-0.03c-0.01-0.04-0.06-0.08-0.12-0.1
		c-0.03-0.01-0.06-0.03-0.07-0.04c-0.01-0.01-0.02,0-0.03,0c-0.02,0-0.03,0-0.03-0.01c0-0.01-0.02-0.03-0.03-0.03
		c-0.03-0.01-0.06-0.06-0.07-0.12c0-0.03,0-0.06,0.02-0.09l0.03-0.04l0.06-0.01c0.04,0,0.08,0,0.09,0.01
		c0.01,0.01,0.04,0.02,0.07,0.02s0.05,0.02,0.06,0.03c0.01,0.02,0.03,0.02,0.06,0.02c0.02,0,0.05-0.01,0.07,0
		c0.09,0.03,0.32,0,0.42-0.05c0.02-0.01,0.04-0.01,0.05-0.01s0.03-0.01,0.04-0.02s0.03-0.02,0.04-0.02c0.01,0,0.02-0.01,0.03-0.03
		c0.01-0.02,0.03-0.04,0.05-0.06c0.02-0.02,0.03-0.05,0.03-0.06s0-0.02,0.01-0.02c0.01,0,0.03-0.09,0.03-0.13
		c0-0.02,0-0.03-0.01-0.03c-0.02,0-0.02,0-0.01-0.05c0.01-0.02,0.01-0.05,0.01-0.06s-0.02-0.03-0.02-0.06c0-0.03,0-0.09-0.01-0.13
		c-0.01-0.05-0.02-0.1-0.02-0.13c0-0.03,0.01-0.05,0-0.05s0-0.04,0-0.11c0-0.07,0-0.13-0.01-0.16c-0.01-0.04-0.01-0.05,0-0.06
		c0.01-0.01,0.03-0.03,0.03-0.05c0.01-0.05,0.05-0.1,0.11-0.14c0.03-0.02,0.05-0.04,0.05-0.05s0.04-0.04,0.05-0.03
		c0.01,0,0.03,0,0.04-0.01C19.67,0.39,19.68,0.38,19.81,0.41z M22.34,0.01c0.03,0.04,0.05,0.14,0.08,0.29
		c0.03,0.18,0.06,0.24,0.09,0.29c0.01,0.02,0.02,0.05,0.02,0.06c0,0.01,0,0.02,0.01,0.03c0.01,0.01,0.03,0.05,0.05,0.08
		c0.02,0.03,0.05,0.06,0.06,0.08c0.01,0.01,0.03,0.05,0.03,0.07c0.01,0.03,0.01,0.03,0.03,0.03c0.02-0.01,0.02-0.01,0.02,0.01
		c0,0.01,0.01,0.03,0.02,0.04c0.01,0.01,0.04,0.06,0.06,0.12c0.03,0.06,0.05,0.11,0.06,0.12c0.01,0.01,0.01,0.02,0.01,0.03
		s0.01,0.03,0.02,0.05c0.01,0.02,0.02,0.07,0.03,0.1c0.01,0.03,0.03,0.06,0.04,0.08c0.02,0.02,0.04,0.06,0.05,0.1
		c0,0.01,0.02,0.04,0.03,0.06c0.01,0.02,0.03,0.03,0.07,0.04c0.02,0,0.05,0.02,0.08,0.05c0.02,0.02,0.05,0.05,0.08,0.06
		c0.03,0.01,0.05,0.02,0.05,0.03c0,0.02,0.07,0.08,0.1,0.08c0.02,0,0.04,0.01,0.04,0.02c0,0.01,0.01,0.02,0.03,0.02
		c0.02,0,0.03,0.01,0.03,0.02c0,0.01,0.01,0.02,0.02,0.03c0.01,0.01,0.02,0.01,0.02,0.02s0.01,0.02,0.03,0.03
		c0.02,0.01,0.06,0.02,0.09,0.05c0.03,0.02,0.06,0.06,0.07,0.06s0.04,0.01,0.05,0.03c0.02,0.01,0.04,0.03,0.05,0.03
		c0.04,0.01,0.04,0.07,0.03,0.18c-0.01,0.07-0.01,0.09,0,0.13c0.01,0.05,0,0.12-0.03,0.2c-0.01,0.02-0.01,0.05-0.01,0.09
		c0,0.05,0,0.07-0.02,0.1c-0.02,0.03-0.03,0.04-0.05,0.04c-0.02,0-0.03,0.01-0.06,0.06c-0.04,0.05-0.05,0.05-0.07,0.05
		c-0.01,0-0.03,0.01-0.06,0.04c-0.03,0.03-0.04,0.04-0.06,0.04c-0.02,0-0.05,0.01-0.07,0.02c-0.02,0.01-0.06,0.03-0.07,0.04
		c-0.01,0.01-0.04,0.03-0.07,0.05c-0.04,0.03-0.05,0.04-0.04,0.06c0,0.01,0.01,0.07,0.01,0.12c0.01,0.17,0.02,0.17,0.04,0.17
		c0.02,0,0.04-0.01,0.06-0.02c0.02-0.01,0.05-0.03,0.07-0.03c0.02,0,0.05-0.01,0.06-0.02c0.01-0.01,0.03-0.01,0.05-0.01
		c0.02,0,0.05,0,0.1-0.02c0.08-0.03,0.09-0.03,0.12-0.01c0.02,0.01,0.05,0.04,0.08,0.08c0.05,0.06,0.07,0.08,0.25,0.17
		c0.03,0.01,0.06,0.03,0.07,0.06c0.01,0.02,0.04,0.06,0.06,0.09c0.02,0.03,0.04,0.06,0.05,0.09c0.01,0.03,0.03,0.05,0.05,0.06
		c0.03,0.01,0.03,0.01,0.03,0.05s0,0.05-0.04,0.08c-0.02,0.02-0.07,0.06-0.1,0.07s-0.05,0.02-0.05,0.03S24.17,4.3,24.16,4.3
		c-0.02,0-0.1,0.04-0.1,0.05c0,0.01-0.03,0.01-0.06,0.02c-0.03,0.01-0.07,0.03-0.09,0.05c-0.04,0.03-0.07,0.04-0.17,0.04
		c-0.09,0-0.14,0.01-0.18,0.02c-0.04,0.01-0.05,0.02-0.07,0.01c-0.01-0.01-0.03-0.01-0.04,0c-0.01,0-0.03,0.01-0.04,0.01
		c-0.01,0-0.03,0.01-0.04,0.02c-0.01,0.01-0.03,0.01-0.05,0.01h-0.04c-0.01,0-0.01,0,0,0.03c0.01,0.02,0.03,0.05,0.05,0.07
		c0.02,0.02,0.04,0.07,0.07,0.16c0.01,0.02,0.03,0.05,0.04,0.08c0.01,0.02,0.02,0.06,0.02,0.09c0,0.03,0.01,0.08,0.02,0.11
		c0.01,0.05,0.01,0.05,0.04,0.05c0.02,0,0.03,0,0.04-0.01c0-0.01,0.02,0,0.04,0.01c0.02,0.01,0.07,0.01,0.11,0.02
		c0.08,0.01,0.13,0.05,0.14,0.12c0,0.02,0.01,0.05,0.02,0.05c0.01,0,0.01,0.02,0.01,0.03c0,0.01,0.03,0.06,0.05,0.09
		c0.05,0.08,0.08,0.17,0.08,0.25c0,0.03,0,0.06,0.01,0.06s0.02,0.04,0.03,0.08c0.01,0.04,0.03,0.09,0.04,0.1
		c0.01,0.02,0.01,0.02,0,0.06C24.08,6,24.07,6.03,24.06,6.04s-0.05,0.01-0.09,0.01s-0.08-0.01-0.11-0.02
		c-0.03-0.02-0.03-0.02-0.05-0.01c-0.02,0.01-0.03,0.01-0.04,0C23.76,6.01,23.74,6,23.69,6.01c-0.07,0.01-0.18,0.04-0.21,0.05
		c-0.03,0.01-0.05,0.09-0.07,0.23c-0.01,0.07-0.02,0.14-0.03,0.15c-0.02,0.03-0.06,0.19-0.05,0.21c0.01,0.03,0.05,0.05,0.08,0.02
		c0.02-0.02,0.03-0.02,0.04-0.02c0.03,0.01,0.08-0.01,0.11-0.03c0.03-0.02,0.07-0.02,0.13,0c0.04,0.02,0.04,0.02,0.05,0.05
		c0.01,0.04,0,0.09-0.03,0.19c-0.02,0.06-0.02,0.07-0.01,0.13c0.01,0.04,0.03,0.08,0.03,0.09c0.04,0.05,0.03,0.13-0.02,0.18
		c-0.01,0.01-0.05,0.03-0.08,0.04c-0.08,0.02-0.21,0.08-0.3,0.15l-0.15,0.08l-0.1,0.05c-0.02,0.01-0.04,0.02-0.05,0.03
		c-0.02,0.01-0.09,0.03-0.11,0.03c-0.01,0-0.02,0-0.02,0.01c-0.01,0.01-0.03,0.01-0.06,0.02c-0.03,0.01-0.06,0.03-0.07,0.04
		c-0.01,0.01-0.05,0.02-0.08,0.03s-0.09,0.03-0.1,0.04c-0.06,0.03-0.13,0.04-0.33,0.04c-0.16,0-0.24-0.01-0.26-0.03
		c-0.01-0.01-0.03-0.01-0.05-0.01c-0.01,0-0.05-0.02-0.09-0.04c-0.03-0.02-0.06-0.03-0.08-0.03c-0.01,0-0.03-0.01-0.04-0.02
		c-0.01-0.01-0.01-0.01-0.02-0.01s-0.06-0.03-0.11-0.05c-0.08-0.04-0.11-0.04-0.13-0.04c-0.03,0-0.04,0.01-0.05,0
		c-0.01-0.01-0.03-0.02-0.05-0.02c-0.06-0.01-0.17-0.05-0.23-0.07c-0.05-0.02-0.07-0.05-0.05-0.06c0.01,0,0.01-0.01,0.01-0.02
		c0-0.02,0.01-0.03,0.14-0.08c-0.01,0-0.04-0.01-0.07-0.02c-0.03-0.01-0.06-0.02-0.07-0.03c-0.01-0.01-0.01-0.02,0.08-0.05
		c0.05-0.02,0.17-0.04,0.26-0.07l0.17-0.05h0.3c0.17,0,0.31,0.01,0.31,0c0-0.01,0.01-0.01,0.03-0.01c0.08-0.02,0.14-0.08,0.13-0.15
		c0-0.02,0-0.05,0.01-0.07c0.02-0.02,0.03-0.04,0.03-0.09c0-0.04,0-0.08,0.01-0.09c0.01-0.02,0.02-0.05,0.02-0.14
		c0-0.02,0.01-0.04,0.02-0.05c0.01-0.01,0.01-0.03,0.01-0.05c0-0.02,0.01-0.05,0.02-0.07c0.04-0.08,0.01-0.11-0.09-0.08
		c-0.03,0.01-0.09,0.03-0.13,0.03c-0.16,0.01-0.2,0.02-0.24,0.04C22.03,6.4,22,6.4,21.99,6.4c-0.01,0-0.02,0.01-0.03,0.03
		c-0.01,0.02-0.03,0.03-0.08,0.05c-0.04,0.01-0.07,0.03-0.08,0.03s-0.03,0-0.05,0.01c-0.02,0.01-0.07,0.02-0.1,0.02L21.6,6.55
		L21.56,6.5c-0.04-0.04-0.05-0.05-0.05-0.08c0-0.04-0.02-0.1-0.04-0.11c-0.01-0.01-0.01-0.02-0.01-0.06s-0.01-0.06-0.03-0.08
		c-0.01-0.01-0.02-0.04-0.02-0.05s-0.01-0.05-0.03-0.07C21.35,6,21.33,5.95,21.33,5.9c0-0.02,0-0.06-0.01-0.07
		c-0.01-0.02-0.03-0.07-0.04-0.12s-0.02-0.11-0.03-0.12c-0.01-0.01-0.01-0.02-0.01-0.03s0.01-0.03,0.02-0.06c0-0.03,0-0.06-0.01-0.1
		s-0.01-0.06,0-0.11c0.01-0.03,0.01-0.07,0.01-0.08c-0.01-0.04,0.12-0.15,0.18-0.15c0.02,0,0.03,0,0.04-0.01
		c0.01-0.01,0.08,0.03,0.09,0.06c0,0.01,0.01,0.02,0.02,0.02s0.03,0,0.04,0.01s0.03,0.03,0.05,0.03c0.02,0,0.04,0.01,0.05,0.02
		c0.02,0.02,0.14,0.07,0.18,0.07c0.02,0,0.03,0.01,0.03,0.02s0.01,0.01,0.07,0.01c0.05,0,0.08,0,0.1,0.01
		c0.02,0.01,0.04,0.01,0.06,0.01c0.02,0,0.11-0.01,0.2-0.01c0.14,0,0.17-0.01,0.2-0.02c0.07-0.04,0.1-0.07,0.1-0.22V5.02
		c0-0.01,0.02-0.1,0.02-0.21c0-0.14,0.01-0.2,0.02-0.22c0.02-0.04,0-0.09-0.02-0.07c-0.01,0.01-0.05,0.01-0.1,0.01
		c-0.09,0-0.13,0.02-0.19,0.06c-0.01,0.01-0.03,0.02-0.05-0.01c0,0.01-0.01,0.01-0.03,0.01c-0.02,0-0.04,0-0.05,0.01
		c-0.01,0.01-0.05,0.01-0.07,0.01c-0.02,0-0.05,0.01-0.07,0.02c-0.02,0.01-0.04,0.01-0.04,0s-0.01,0-0.04,0.01
		c-0.02,0.01-0.06,0.01-0.1,0.01c-0.08,0.01-0.13,0.03-0.15,0.05c-0.01,0.01-0.02,0-0.04,0c-0.02,0-0.04,0-0.06,0.01
		c-0.04,0.02-0.31,0.06-0.43,0.05c-0.09,0-0.11-0.01-0.14-0.03c-0.02-0.02-0.05-0.04-0.06-0.04c-0.04-0.01-0.14-0.1-0.16-0.14
		c-0.01-0.03-0.01-0.04,0-0.08c0.02-0.04,0.02-0.04,0-0.07c-0.01-0.02-0.01-0.03,0.01-0.04c0.04-0.03,0.18-0.1,0.22-0.1
		c0.02,0,0.05-0.01,0.06-0.02s0.05-0.02,0.1-0.03s0.15-0.04,0.23-0.07c0.08-0.03,0.15-0.06,0.16-0.05c0.01,0.01,0.01,0,0.02-0.01
		s0.04-0.01,0.05-0.01c0.03,0,0.05-0.04,0.05-0.07c0-0.01-0.01-0.05-0.02-0.08c-0.02-0.05-0.02-0.05-0.01-0.06
		c0.02-0.01,0.03-0.05,0.01-0.04c-0.03,0.01-0.06-0.08-0.04-0.12c0.01-0.03,0.01-0.05,0.01-0.06c-0.01-0.02-0.01-0.03,0-0.03
		s0-0.02-0.01-0.07c-0.02-0.06-0.02-0.08-0.01-0.09c0.01-0.01,0.02-0.03,0.02-0.05V3.32c0.01-0.03,0.01-0.03,0-0.03
		c-0.02,0-0.02-0.01-0.02-0.11c0-0.02-0.01-0.03-0.01-0.04c-0.01-0.02-0.06-0.04-0.14-0.06c-0.04-0.01-0.09-0.03-0.11-0.04
		c-0.02-0.01-0.06-0.02-0.08-0.03C21.35,3,21.29,2.96,21.2,2.87c-0.03-0.03-0.08-0.07-0.1-0.08c-0.03-0.01-0.04-0.02-0.04-0.03
		s0-0.02-0.01-0.02c-0.01,0-0.02,0-0.02-0.01c0-0.02-0.04-0.07-0.06-0.07c-0.01,0-0.02-0.02-0.03-0.09
		c-0.01-0.1-0.01-0.11,0.04-0.23c0.03-0.08,0.04-0.09,0.06-0.1c0.03-0.01,0.05-0.04,0.05-0.07c0-0.03,0.11-0.13,0.14-0.13
		c0.01,0,0.01,0,0.02-0.01s0.04-0.01,0.07-0.01c0.09-0.01,0.28-0.09,0.33-0.14c0.07-0.06,0.07-0.07,0.05-0.09
		c-0.01-0.01-0.01-0.02,0.01-0.03c-0.01-0.01-0.01-0.01,0-0.05c0.01-0.02,0.01-0.06,0.02-0.06c0.01-0.01,0.02-0.17,0.01-0.17
		c-0.01,0-0.01-0.03-0.01-0.07c0-0.05,0.02-0.06,0.04-0.1c0.03-0.04,0.02-0.05,0.01-0.06c-0.01-0.01,0-0.03,0.02-0.09
		c0.02-0.06,0.04-0.07,0.05-0.07c0.02,0,0.01,0-0.01-0.02c-0.03-0.03-0.03-0.05,0.02-0.08c0.04-0.02,0.06-0.07,0.05-0.13
		c0-0.01,0.01-0.03,0.02-0.04c0.01-0.01,0.03-0.04,0.04-0.06c0.01-0.02,0.01-0.04,0.02-0.04C22,0.72,22,0.71,22,0.7
		c0-0.02,0.04-0.11,0.06-0.12c0.01-0.01,0.02-0.03,0.02-0.06c0-0.03,0.02-0.1,0.04-0.17c0.02-0.07,0.04-0.14,0.04-0.17
		c0-0.03,0-0.04,0.01-0.05c0.01,0.02,0.02,0.02,0.03,0.01c0-0.01,0.01-0.02,0.01-0.03s0.01-0.02,0.02-0.02
		c0.04,0,0.09-0.04,0.09-0.07S22.33-0.01,22.34,0.01z M24.97,1.17c0.03,0.02,0.05,0.02,0.07,0.02c0.03-0.01,0.08,0.02,0.1,0.05
		c0.01,0.01,0.02,0.01,0.04,0.01c0.03-0.01,0.12,0.03,0.19,0.07c0.01,0.01,0.04,0.01,0.06,0.01c0.04,0,0.06,0,0.07,0.02
		c0.01,0.01,0.03,0.03,0.04,0.03c0.01,0,0.03,0.02,0.05,0.04c0.02,0.02,0.05,0.04,0.06,0.05s0.04,0.04,0.05,0.06
		c0.02,0.04,0.06,0.06,0.09,0.06c0.01,0,0.03,0.02,0.05,0.04c0.01,0.01,0.07,0.04,0.11,0.06c0.08,0.03,0.1,0.06,0.1,0.08
		c0,0.03,0.03,0.04,0.05,0.03c0.02-0.02,0.05,0,0.1,0.06c0.03,0.03,0.06,0.06,0.07,0.06c0.04,0.01,0.07,0.04,0.1,0.12
		c0.01,0.02,0.02,0.06,0.03,0.09c0.01,0.02,0.02,0.05,0.02,0.06s0,0.03,0.01,0.04c0.01,0.01,0.01,0.02,0.01,0.03V2.4
		c0,0.09,0,0.11-0.02,0.14C26.41,2.56,26.4,2.59,26.4,2.6c0,0.01-0.02,0.04-0.05,0.07C26.32,2.7,26.3,2.72,26.3,2.73
		c0,0.01-0.03,0.04-0.07,0.08c-0.09,0.08-0.11,0.09-0.25,0.07c-0.05-0.01-0.1-0.02-0.12-0.02c-0.02,0-0.05-0.01-0.07-0.02
		l-0.03-0.02L25.7,2.85c-0.07,0.04-0.09,0.05-0.11,0.03c-0.01-0.01-0.02-0.01-0.06-0.01s-0.06,0-0.1-0.02
		c-0.03-0.01-0.07-0.03-0.08-0.03s-0.03-0.02-0.06-0.04c-0.02-0.02-0.05-0.03-0.06-0.03c-0.01,0.01-0.01,0-0.02,0
		c-0.01-0.01-0.07-0.04-0.13-0.07c-0.06-0.03-0.13-0.07-0.16-0.09c-0.03-0.02-0.06-0.05-0.07-0.05c-0.01,0-0.02-0.02-0.03-0.04
		c-0.01-0.03-0.07-0.09-0.1-0.11c-0.01-0.01-0.02-0.02-0.03-0.04c-0.01-0.02-0.02-0.04-0.03-0.04c-0.01-0.01-0.01-0.02-0.01-0.03
		S24.63,2.23,24.6,2.2c-0.03-0.03-0.05-0.07-0.05-0.08c0-0.02-0.02-0.05-0.04-0.08C24.49,2,24.48,1.96,24.48,1.95
		s-0.01-0.05-0.02-0.09c-0.02-0.05-0.02-0.08-0.02-0.12c0-0.03-0.01-0.13-0.01-0.2c0-0.11,0-0.13,0.01-0.14
		c0.01-0.01,0.02-0.02,0.02-0.03c0-0.01,0.02-0.04,0.04-0.07c0.02-0.03,0.05-0.06,0.05-0.07c0.01-0.01,0.03-0.03,0.04-0.03
		c0.01,0,0.04-0.01,0.05-0.02c0.01-0.01,0.06-0.02,0.1-0.03C24.86,1.13,24.93,1.14,24.97,1.17z M26.34,3.44
		c0.01,0.01,0.02,0.01,0.04,0c0.03-0.01,0.04-0.01,0.07,0c0.04,0.01,0.05,0.01,0.06,0c0.01-0.01,0.02,0,0.08,0.03
		c0.04,0.02,0.07,0.03,0.07,0.04c0,0.01,0.02,0,0.04,0c0.02,0,0.04,0,0.05,0.01s0.02,0.02,0.03,0.02c0.01,0,0.02,0,0.03,0.01
		c0.01,0,0.03,0.01,0.05,0.01c0.02,0,0.05,0.03,0.08,0.05c0.03,0.02,0.07,0.04,0.09,0.04c0.02,0,0.06,0.02,0.09,0.04
		c0.03,0.02,0.06,0.04,0.07,0.04c0.02,0,0.08,0.07,0.08,0.09c0,0.01,0.01,0.04,0.02,0.06c0.01,0.02,0.02,0.03,0.01,0.04
		c-0.01,0.01-0.01,0.12-0.01,0.24c0,0.03,0,0.07,0.01,0.08c0.02,0.04,0.04,0.16,0.03,0.19c0,0.02-0.02,0.04-0.06,0.06
		c-0.09,0.05-0.15,0.1-0.18,0.16C27.07,4.7,27.06,4.71,27,4.74c-0.08,0.04-0.18,0.06-0.21,0.03c-0.01-0.01-0.03-0.01-0.04-0.01
		s-0.02,0-0.02-0.01s-0.01-0.01-0.04,0c-0.03,0.01-0.04,0.01-0.04,0s-0.03-0.01-0.11,0.01c-0.05,0.01-0.07,0.01-0.08,0
		s-0.02-0.01-0.03,0c0,0.01-0.02,0.01-0.06,0.01c-0.05-0.01-0.07,0-0.09,0.01c-0.03,0.02-0.03,0.06,0,0.1
		c0.01,0.02,0.02,0.04,0.02,0.05c0,0.03,0.05,0.22,0.06,0.25c0.01,0.01,0.02,0.03,0.03,0.04c0.01,0.01,0.02,0.04,0.02,0.07
		c0.01,0.06,0.01,0.08,0.04,0.25c0.02,0.1,0.02,0.16,0.02,0.34c0,0.19-0.01,0.23-0.03,0.3c-0.01,0.04-0.02,0.11-0.03,0.14
		c-0.04,0.27-0.06,0.37-0.13,0.64c-0.03,0.11-0.04,0.16-0.03,0.17c0.01,0.02,0.01,0.07,0.01,0.21v0.09c0,0.01,0.01,0.03,0,0.05v0.07
		c0.01,0.02,0.01,0.04,0,0.05v0.39c0,0.05,0.02,0.14,0.02,0.19c0.01,0.06,0,0.1-0.01,0.14c-0.01,0.03-0.02,0.11-0.03,0.16
		c-0.02,0.11-0.03,0.16-0.06,0.17c-0.01,0-0.02,0.01-0.02,0.02c0,0.02-0.05,0.07-0.09,0.08c-0.01,0-0.05,0.02-0.08,0.03
		C25.95,8.8,25.93,8.8,25.87,8.8c-0.09-0.01-0.28-0.09-0.29-0.12c-0.01-0.02-0.03-0.03-0.04-0.01c0,0.01-0.03,0-0.05-0.01
		c-0.03-0.02-0.04-0.02-0.06-0.01c-0.02,0.01-0.02,0.01-0.08-0.02c-0.11-0.05-0.19-0.13-0.23-0.26c-0.01-0.04-0.03-0.07-0.04-0.08
		c-0.02-0.02-0.06-0.15-0.07-0.23c0-0.04-0.01-0.08-0.03-0.1c-0.01-0.02-0.02-0.03-0.02-0.04s0.01-0.02,0-0.03
		c0-0.01-0.01-0.03,0-0.04c0-0.01,0-0.03-0.01-0.05c-0.01-0.02,0-0.03,0-0.06s0-0.04-0.01-0.05c-0.01-0.01,0-0.14,0.02-0.27
		c0.01-0.03,0-0.05-0.02-0.07c-0.01-0.02-0.03-0.04-0.03-0.06c0-0.03,0-0.03-0.04-0.03c-0.05-0.01-0.07-0.02-0.07-0.04
		c0-0.02,0-0.03-0.02-0.02c-0.01,0-0.03,0-0.04-0.01c-0.09-0.08-0.1-0.1-0.13-0.18l-0.03-0.08l0.03-0.04l0.04-0.04h0.09
		c0.06,0,0.11,0.01,0.12,0c0.01-0.01,0.01-0.01,0.02,0c0.02,0.02,0.19,0.02,0.22,0c0.01-0.01,0.02-0.01,0.03,0s0.03,0.01,0.04,0
		s0.04-0.01,0.07-0.01c0.03,0,0.07-0.02,0.09-0.03c0.02-0.01,0.03-0.02,0.04-0.02c0.02,0,0.07-0.06,0.12-0.14
		c0.02-0.04,0.04-0.07,0.05-0.07c0.01,0,0.03-0.04,0.03-0.07c0.01-0.07,0.03-0.15,0.04-0.18c0.02-0.03,0.04-0.08,0.04-0.1
		c0-0.02,0.01-0.05,0.02-0.06c0.01-0.02,0.04-0.13,0.04-0.16c0-0.01-0.01-0.02-0.01-0.04c0-0.02,0-0.03,0.02-0.05
		c0.02-0.02,0.03-0.03,0.03-0.12c0.01-0.12-0.01-0.16-0.07-0.28c-0.05-0.1-0.07-0.13-0.12-0.18c-0.02-0.02-0.02-0.04-0.02-0.05
		c0-0.01-0.03-0.04-0.07-0.08c-0.07-0.07-0.12-0.14-0.12-0.18c0-0.02-0.04-0.08-0.05-0.08s-0.05-0.02-0.09-0.04
		c-0.04-0.02-0.09-0.03-0.1-0.03c-0.01,0-0.02-0.01-0.02-0.02c0-0.01-0.01-0.01-0.02-0.01c-0.03,0-0.07-0.04-0.08-0.06
		c0-0.01-0.02-0.02-0.03-0.02s-0.02-0.01-0.03-0.03c-0.02-0.03-0.08-0.09-0.12-0.11c-0.01-0.01-0.02-0.02-0.02-0.03
		c0-0.02-0.01-0.04-0.05-0.06c-0.03-0.02-0.05-0.03-0.05-0.04s0-0.03-0.01-0.04c-0.01-0.02-0.02-0.05-0.03-0.07
		c-0.03-0.07-0.04-0.09-0.08-0.14c-0.05-0.08-0.07-0.17-0.04-0.27c0.02-0.08,0.07-0.17,0.11-0.21l0.04-0.04h0.09
		c0.15,0,0.24,0.01,0.26-0.01c0.03-0.02,0.1-0.02,0.13,0c0.02,0.01,0.03,0.01,0.06,0c0.02-0.01,0.05-0.01,0.06-0.02
		c0.02-0.01,0.13-0.04,0.16-0.03c0.02,0,0.03,0,0.04-0.01c0.01-0.02,0.07-0.05,0.12-0.05c0.05-0.01,0.14-0.02,0.14-0.03
		c0-0.01,0.02-0.01,0.05-0.01c0.04,0,0.05,0,0.06-0.01c0.01-0.02,0.02-0.02,0.03-0.01c0.01,0.01,0.02,0,0.04-0.01
		c0.03-0.01,0.04-0.01,0.05,0.01c0.02-0.02,0.03-0.03,0.04-0.02c0.01,0,0.01,0,0.02-0.01c0.01-0.02,0.02-0.03,0.05-0.03
		c0.02,0,0.05-0.01,0.07-0.02c0.03-0.02,0.04-0.02,0.04-0.01c0.01,0.02,0.03,0.03,0.08,0C26.32,3.43,26.33,3.43,26.34,3.44z"/>
</g>
</svg>
