<?xml version="1.0" encoding="utf-8"?>
<!-- Generator: Adobe Illustrator 25.0.0, SVG Export Plug-In . SVG Version: 6.00 Build 0)  -->
<svg version="1.1" id="Layer_1" xmlns="http://www.w3.org/2000/svg" xmlns:xlink="http://www.w3.org/1999/xlink" x="0px" y="0px"
	 viewBox="0 0 27.58 17.77" enable-background="new 0 0 27.58 17.77" xml:space="preserve">
<g>
	<path fill="#9E5C4C" d="M4.83,0.01c0.01,0.01,0.05,0.02,0.09,0.02c0.07,0,0.08,0,0.11,0.04c0.02,0.02,0.04,0.05,0.05,0.06
		C5.09,0.14,5.1,0.15,5.11,0.15c0.03,0,0.07,0.05,0.07,0.08c0,0.01,0.02,0.02,0.04,0.04c0.02,0.02,0.05,0.07,0.05,0.09
		C5.28,0.39,5.29,0.4,5.31,0.41c0.01,0.01,0.02,0.01,0.02,0.02s0.01,0,0.02,0c0.01,0,0.02,0,0.02,0.01c0,0.02,0.01,0.09,0.02,0.1
		c0.02,0.01,0.09,0.12,0.09,0.14c0,0.01,0.01,0.02,0.02,0.02c0.01,0,0.01,0.01,0.02,0.02c0.01,0.01,0.02,0.02,0.03,0.02
		c0.01,0,0.04,0.04,0.06,0.07s0.05,0.08,0.06,0.1c0.01,0.02,0.02,0.04,0.02,0.06c0,0.02,0.01,0.07,0.03,0.12
		c0.05,0.13,0.06,0.24,0.05,0.3C5.76,1.43,5.73,1.5,5.69,1.54C5.66,1.57,5.68,1.61,5.72,1.61c0.05,0,0.12,0.01,0.15,0.02
		c0.02,0.01,0.06,0.01,0.1,0.01s0.14,0.01,0.24,0.02s0.24,0.02,0.32,0.03c0.08,0,0.17,0.01,0.21,0.02c0.04,0,0.14,0,0.22,0.01
		L7.1,1.73L7.09,1.71c-0.02-0.03-0.02-0.07,0-0.09C7.1,1.61,7.11,1.6,7.11,1.59s0.01-0.02,0.02-0.03C7.15,1.54,7.15,1.54,7.15,1.5
		c0-0.01,0.02-0.04,0.05-0.05c0.04-0.02,0.06-0.02,0.13-0.02c0.05,0,0.11,0.02,0.14,0.03C7.5,1.47,7.54,1.47,7.56,1.47
		c0.03,0,0.03,0,0.05,0.02C7.63,1.51,7.64,1.5,7.67,1.5c0.02,0,0.03,0,0.04,0.02c0.01,0.01,0.01,0.01,0.01,0.03
		c0.02-0.02,0.12,0.01,0.15,0.03C7.89,1.59,7.9,1.6,7.91,1.6c0.01,0,0.02,0.01,0.03,0.02c0.01,0.01,0.02,0.02,0.03,0.02
		c0.01,0,0.02,0,0.02,0.01C8,1.66,8.02,1.67,8.05,1.67c0.05,0,0.05,0,0.06,0.03c0.01,0.02,0.02,0.04,0.04,0.05s0.03,0.02,0.03,0.03
		c0,0.01,0.02,0.02,0.04,0.02c0.03,0,0.03,0,0.03,0.01c0,0.01,0.01,0.03,0.03,0.03s0.04,0.01,0.05,0.03
		c0.01,0.02,0.03,0.04,0.05,0.05s0.03,0.01,0.04,0.02c0.01,0.01,0.01,0.07,0.02,0.15c0.01,0.13,0.01,0.13-0.01,0.16
		C8.41,2.27,8.41,2.29,8.41,2.34c0,0.03,0,0.06-0.01,0.06c0.01,0.03,0,0.16-0.01,0.18c-0.01,0.01-0.01,0.02,0,0.03
		c0.01,0.01-0.02,0.1-0.04,0.1C8.34,2.74,8.23,2.83,8.19,2.85c-0.02,0.01-0.03,0.01-0.03,0c0-0.01-0.01-0.01-0.04,0
		c-0.03,0.01-0.05,0-0.07-0.01c0,0.01-0.02,0.01-0.02,0c0-0.01-0.03-0.01-0.05-0.01S7.93,2.82,7.92,2.81
		C7.91,2.8,7.89,2.79,7.88,2.79c-0.01,0-0.03,0-0.04-0.01C7.83,2.77,7.77,2.76,7.72,2.75c-0.05-0.01-0.1-0.02-0.11-0.02
		C7.6,2.72,7.58,2.72,7.56,2.72c-0.01,0-0.04-0.01-0.06-0.02S7.44,2.68,7.41,2.68C7.32,2.67,7.22,2.65,7.16,2.63
		C7.13,2.62,7.08,2.62,7.05,2.62c-0.03,0-0.06,0-0.09-0.01C6.9,2.6,6.64,2.59,6.34,2.59h-0.9c-0.05,0-0.11-0.01-0.14-0.01H4.97
		c-0.09,0-0.15,0-0.22-0.01c-0.04-0.01-0.09-0.01-0.1,0c-0.02,0-0.03,0-0.05-0.01S4.56,2.55,4.55,2.55c-0.01,0-0.01,0.01-0.02,0
		c-0.01-0.01-0.09-0.01-0.3-0.01c-0.13,0-0.17,0-0.25,0.02c-0.23,0.06-0.36,0.09-0.37,0.1C3.6,2.67,3.54,2.7,3.47,2.72
		C3.38,2.75,3.33,2.78,3.3,2.8C3.28,2.82,3.24,2.84,3.21,2.86C3.19,2.88,3.14,2.91,3.12,2.93C3.1,2.95,3.08,2.97,3.07,2.97
		c-0.01-0.01-0.02,0-0.03,0.01C3.03,2.99,3,3.02,2.97,3.04C2.92,3.07,2.91,3.09,2.93,3.11c0.01,0.01-0.01,0.04-0.08,0.08
		C2.82,3.21,2.79,3.23,2.79,3.24C2.78,3.26,2.71,3.36,2.68,3.39C2.66,3.41,2.66,3.42,2.66,3.44c0.01,0.03-0.02,0.1-0.04,0.1
		c-0.01,0-0.02,0.01-0.03,0.03C2.58,3.59,2.58,3.6,2.57,3.6c-0.01,0-0.01,0.01-0.01,0.03c0.01,0.04-0.02,0.09-0.04,0.09
		c0,0.03-0.06,0.16-0.1,0.19C2.4,3.92,2.38,3.94,2.38,3.95c0,0.01-0.01,0.02-0.02,0.02c-0.01,0-0.02,0.02-0.02,0.04
		c0,0.01-0.01,0.03-0.03,0.05C2.29,4.07,2.28,4.1,2.26,4.12c-0.02,0.02-0.15,0.13-0.2,0.17C2.03,4.31,2.01,4.33,1.99,4.33
		s-0.03,0-0.03,0.01C1.95,4.36,1.9,4.37,1.8,4.36C1.72,4.35,1.69,4.34,1.67,4.33C1.65,4.31,1.63,4.31,1.62,4.32s-0.03,0-0.04-0.01
		C1.57,4.3,1.55,4.3,1.5,4.31c-0.05,0.01-0.07,0-0.07-0.01c0-0.03-0.07-0.08-0.11-0.08c-0.02,0-0.04,0-0.06-0.01L1.2,4.18
		C1.19,4.17,1.17,4.16,1.17,4.15S1.16,4.14,1.15,4.14S1.13,4.12,1.12,4.1C1.11,4.07,1.11,4.07,1.08,4.08C1.05,4.09,0.99,4.05,1,4.03
		c0-0.01,0-0.02-0.03-0.02C0.93,4,0.91,3.99,0.91,3.96C0.89,3.89,0.87,3.85,0.84,3.84C0.82,3.83,0.8,3.82,0.79,3.8
		C0.78,3.78,0.77,3.76,0.76,3.76c-0.01,0-0.02-0.01-0.04-0.03C0.7,3.71,0.67,3.7,0.66,3.7c-0.03,0-0.05-0.04-0.04-0.07
		c0-0.01-0.01-0.03-0.04-0.04C0.55,3.58,0.53,3.56,0.51,3.53c-0.02-0.05-0.07-0.09-0.1-0.1c-0.01,0-0.02-0.03-0.02-0.04
		c0-0.02-0.02-0.02-0.03-0.02c-0.02,0-0.08-0.07-0.08-0.08V3.23c0-0.03-0.02-0.06-0.03-0.06c-0.01,0-0.02-0.02-0.02-0.03
		c0-0.01,0-0.03-0.01-0.03c-0.01,0-0.01-0.01-0.01-0.02c0-0.01-0.01-0.02-0.02-0.03C0.18,3.05,0.18,3.02,0.17,2.95
		c0-0.05-0.01-0.1-0.02-0.12c-0.01-0.03-0.01-0.05,0-0.08c0.01-0.04,0.02-0.08,0.02-0.16c0-0.02,0.01-0.04,0.02-0.04
		c0.01,0,0.01-0.02,0.02-0.03C0.22,2.5,0.23,2.5,0.22,2.48C0.21,2.46,0.21,2.46,0.23,2.44C0.24,2.43,0.25,2.41,0.25,2.4
		s0.01-0.02,0.02-0.02c0.01,0,0.03-0.02,0.03-0.05C0.31,2.3,0.31,2.29,0.32,2.29c0.01,0,0.04-0.03,0.07-0.05
		C0.43,2.2,0.45,2.2,0.48,2.2c0.03,0,0.04-0.01,0.03-0.02C0.5,2.15,0.52,2.13,0.55,2.13c0.02,0,0.05-0.01,0.06-0.02
		C0.63,2.09,0.63,2.09,0.65,2.1c0.02,0.01,0.03,0,0.07-0.04s0.04-0.04,0.04-0.02c0,0.02,0.01,0.01,0.05,0.01s0.06,0,0.08,0.02
		c0.02,0.01,0.03,0.02,0.03,0.01c0.02,0.01,0.03,0,0.05-0.01c0.01,0,0.02,0,0.05,0.04c0.03,0.05,0.05,0.05,0.06,0.01
		C1.09,2.1,1.1,2.09,1.13,2.08c0.06-0.02,0.09-0.02,0.14,0.01c0.04,0.02,0.08,0.04,0.09,0.02c0-0.01,0.04-0.02,0.07-0.02
		s0.05,0,0.06-0.01c0-0.01,0.02-0.01,0.03-0.01c0.02,0,0.05,0,0.07-0.01s0.09-0.02,0.14-0.03c0.06-0.01,0.1-0.01,0.11-0.02
		C1.85,2,1.89,2,1.93,2C2,2,2.01,1.99,2.03,1.97s0.02-0.02,0.03-0.01c0.01,0.01,0.03,0.01,0.04,0c0.01-0.01,0.03-0.02,0.04-0.02
		c0.01,0,0.04-0.01,0.06-0.02S2.25,1.9,2.26,1.9s0.02,0,0.02-0.01S2.3,1.87,2.32,1.87S2.4,1.86,2.45,1.84
		c0.12-0.04,0.31-0.1,0.32-0.09c0.01,0.01,0.04,0,0.07-0.01C2.87,1.73,2.9,1.72,2.91,1.72c0.01,0,0.03,0,0.05-0.01S3,1.69,3.02,1.69
		c0.09-0.01,0.13-0.02,0.14-0.02c0.01-0.01,0.02-0.02,0.03-0.01c0.01,0.01,0.01,0,0.02-0.01C3.24,1.62,3.3,1.6,3.31,1.61
		C3.33,1.63,3.42,1.62,3.46,1.6C3.48,1.59,3.5,1.58,3.51,1.58c0.01,0,0.03-0.01,0.05-0.03C3.59,1.52,3.6,1.51,3.61,1.52
		c0.01,0,0.03,0.01,0.04,0.01c0.01,0,0.03,0,0.04,0.01c0.02,0.01,0.03,0.01,0.04,0c0.01-0.01,0.02-0.01,0.04-0.01
		s0.05-0.01,0.08-0.02C3.9,1.49,3.91,1.49,3.96,1.5c0.06,0.01,0.21,0.01,0.38-0.01C4.4,1.48,4.47,1.48,4.52,1.48
		c0.08,0,0.18-0.01,0.19-0.03c0-0.01-0.01-0.04-0.02-0.08C4.66,1.29,4.62,1.25,4.56,1.22C4.54,1.21,4.53,1.21,4.53,1.2
		S4.5,1.15,4.47,1.12C4.43,1.08,4.4,1.05,4.35,1.03L4.28,1L4.14,1.01C4.06,1.02,3.99,1.02,3.98,1.02c-0.01,0-0.06,0.02-0.11,0.02
		c-0.08,0-0.11,0.01-0.18,0.04C3.58,1.12,3.56,1.13,3.55,1.14c-0.01,0.01-0.02,0.01-0.04,0L3.49,1.12l0.03-0.04
		c0.02-0.02,0.06-0.05,0.09-0.06C3.64,1,3.72,0.96,3.79,0.92l0.16-0.09l0.07-0.04C4.04,0.78,4.1,0.74,4.15,0.72
		c0.05-0.03,0.1-0.06,0.12-0.08c0.02-0.02,0.05-0.02,0.06-0.02c0.01,0,0.04-0.02,0.09-0.07c0.06-0.06,0.07-0.07,0.06-0.08
		c-0.01-0.02-0.01-0.1,0.01-0.13C4.5,0.33,4.51,0.3,4.52,0.27C4.55,0.21,4.57,0.19,4.6,0.18c0.01,0,0.03-0.04,0.05-0.06
		c0.01-0.02,0.07-0.06,0.1-0.08C4.82-0.01,4.81,0,4.83,0.01z M2.67,6.55c0.04,0,0.12,0.05,0.14,0.08c0.01,0.01,0.01,0.03,0.02,0.04
		C2.84,6.68,2.86,6.7,2.87,6.72c0.02,0.02,0.06,0.07,0.1,0.12c0.05,0.06,0.06,0.09,0.06,0.1s0,0.03,0.01,0.04
		c0.01,0.01,0.02,0.03,0.02,0.04c0,0.01,0.01,0.04,0.03,0.06c0.04,0.05,0.06,0.14,0.07,0.31c0.01,0.07,0,0.09-0.01,0.11
		C3.14,7.51,3.13,7.54,3.13,7.58S3.11,7.66,3.1,7.68C3.09,7.7,3.07,7.75,3.06,7.79c-0.01,0.04-0.03,0.09-0.04,0.1
		C3.01,7.9,3,7.91,3,7.92c0,0.01-0.01,0.03-0.02,0.05C2.97,7.99,2.95,8.01,2.95,8.02S2.94,8.06,2.92,8.08
		C2.9,8.1,2.88,8.12,2.88,8.13c0,0.02-0.08,0.07-0.11,0.07c-0.01,0-0.03,0-0.04,0.01C2.72,8.22,2.7,8.23,2.69,8.23
		c-0.01,0-0.03,0.01-0.04,0.02C2.64,8.27,2.63,8.27,2.61,8.26C2.59,8.25,2.49,8.24,2.47,8.25H2.45c-0.01,0-0.02,0.01-0.03,0.02
		c-0.01,0.02-0.01,0.02-0.03,0C2.38,8.26,2.37,8.26,2.35,8.28c-0.01,0.01-0.03,0.01-0.05,0s-0.1-0.01-0.13,0
		c-0.01,0-0.03,0-0.04-0.01C2.12,8.26,2.11,8.25,2.1,8.26c-0.01,0-0.03,0.01-0.06,0.01H1.92c-0.06,0-0.17,0-0.18,0.01
		c-0.01,0-0.02,0-0.04-0.01C1.69,8.26,1.66,8.25,1.65,8.25c-0.01,0-0.02-0.01-0.04-0.04C1.6,8.19,1.59,8.17,1.58,8.17
		c-0.02,0-0.13-0.09-0.13-0.11c0-0.01-0.02-0.03-0.04-0.05C1.39,7.99,1.35,7.97,1.34,7.95C1.33,7.93,1.31,7.91,1.3,7.9
		S1.26,7.87,1.24,7.84S1.2,7.78,1.19,7.77c-0.02-0.02-0.01-0.16,0.02-0.2c0.02-0.02,0.01-0.05,0.02-0.14
		c0.01-0.08,0.02-0.11,0.03-0.12c0.01,0,0.01-0.02-0.01-0.07C1.24,7.2,1.23,7.18,1.21,7.18c-0.01,0-0.02-0.01-0.02-0.02
		c-0.02,0-0.03,0-0.04-0.01C1.14,7.14,1.11,7.12,1.08,7.11L1,7.07C0.98,7.06,0.94,7.03,0.92,7.02C0.89,7.01,0.89,7,0.9,6.99
		c0.01-0.01,0.03-0.01,0.04-0.01c0.01,0,0.03-0.01,0.04-0.02s0.03-0.01,0.07,0c0.03,0.01,0.06,0,0.07,0c0.01,0,0.03,0,0.03,0.01
		c0.01,0.01,0.01,0.01,0.02,0.01c0.01,0,0.02,0,0.02,0.01S1.2,7,1.23,7c0.03,0,0.06,0.01,0.08,0.02c0.03,0.02,0.05,0.02,0.17,0.02
		c0.14,0,0.3,0.02,0.32,0.05C1.81,7.11,1.99,7.1,2.08,7.07c0.04-0.02,0.09-0.04,0.1-0.04c0.05-0.01,0.15-0.06,0.17-0.09
		C2.38,6.9,2.4,6.86,2.41,6.8c0-0.03,0.01-0.04,0.02-0.04S2.46,6.73,2.48,6.7s0.05-0.06,0.06-0.06c0.01,0,0.02-0.01,0.02-0.02
		s0.01-0.01,0.02-0.01S2.61,6.6,2.62,6.58C2.64,6.56,2.65,6.55,2.67,6.55z M5.23,2.97H5.3c0.02,0,0.03,0.01,0.04,0.02
		C5.35,3,5.37,3,5.38,3c0.01,0,0.03,0,0.04,0.01c0.01,0.01,0.03,0.02,0.05,0.02c0.02,0,0.03,0,0.03,0.01s0.01,0.01,0.03,0.01
		C5.57,3.06,5.62,3.1,5.7,3.17C5.74,3.2,5.77,3.22,5.78,3.22s0.03,0.01,0.04,0.02c0.01,0.01,0.03,0.02,0.05,0.03
		c0.02,0.01,0.04,0.01,0.05,0.02C5.93,3.3,5.94,3.31,5.95,3.31c0.01,0,0.03,0.01,0.05,0.02s0.04,0.02,0.05,0.02
		c0.01,0,0.02,0,0.03,0.01c0.01,0.01,0.03,0.02,0.04,0.02c0.01,0,0.04,0.01,0.05,0.02c0.02,0.01,0.05,0.04,0.08,0.05
		c0.07,0.02,0.14,0.06,0.24,0.17c0.04,0.05,0.1,0.1,0.13,0.12c0.03,0.02,0.05,0.03,0.05,0.04c0,0.01,0.01,0.03,0.02,0.04
		c0.02,0.02,0.05,0.12,0.08,0.25c0.01,0.03,0.02,0.08,0.02,0.1c0,0.05-0.05,0.29-0.07,0.31C6.7,4.5,6.68,4.55,6.67,4.59
		c0,0.02-0.02,0.04-0.03,0.05C6.63,4.65,6.62,4.65,6.62,4.66c0,0.02-0.09,0.21-0.11,0.23c-0.02,0.02-0.08,0.19-0.1,0.3
		C6.39,5.29,6.4,5.42,6.42,5.46C6.43,5.49,6.43,5.5,6.43,5.52c0,0.02,0,0.09,0.01,0.15C6.45,5.73,6.45,5.8,6.45,5.84
		s0.01,0.09,0.01,0.13c0,0.05,0,0.08-0.02,0.13c-0.03,0.07-0.1,0.17-0.13,0.17c-0.02,0-0.06,0.01-0.06,0.03
		c0,0.01-0.02,0.03-0.05,0.04C6.17,6.35,6.14,6.36,6.14,6.37C6.13,6.39,6.02,6.48,6,6.48c-0.01,0-0.01,0.01-0.02,0.02
		C5.97,6.51,5.96,6.51,5.9,6.51H5.81C5.8,6.5,5.79,6.5,5.74,6.59C5.72,6.63,5.7,6.67,5.7,6.68c0,0.01-0.02,0.06-0.04,0.11
		S5.62,6.88,5.62,6.9c0,0.01-0.01,0.04-0.02,0.06C5.59,6.98,5.58,7,5.58,7.01c0,0.01,0,0.03-0.01,0.05
		C5.56,7.08,5.54,7.14,5.53,7.21C5.52,7.28,5.51,7.33,5.5,7.34L5.48,7.51C5.47,7.6,5.46,7.68,5.45,7.69c0,0.01-0.01,0.04-0.01,0.07
		S5.43,7.82,5.42,7.83C5.41,7.84,5.41,7.87,5.4,7.92c0,0.04-0.01,0.09-0.02,0.1c-0.01,0.02-0.01,0.03,0,0.04
		c0.01,0.01,0.01,0.02,0,0.05c-0.01,0.03-0.01,0.05,0,0.07C5.39,8.2,5.39,8.25,5.39,8.3c0,0.09,0.02,0.12,0.05,0.16
		C5.45,8.47,5.47,8.5,5.47,8.51c0,0.01,0.02,0.03,0.03,0.04c0.02,0.02,0.02,0.04,0.02,0.08c0,0.05,0,0.05,0.02,0.06
		C5.57,8.7,5.64,8.77,5.65,8.8c0,0.01,0.01,0.03,0.02,0.04c0.02,0.03,0.01,0.12-0.02,0.22C5.61,9.18,5.59,9.22,5.56,9.23
		C5.51,9.25,5.4,9.33,5.37,9.37C5.34,9.4,5.32,9.4,5.31,9.4c-0.02,0-0.02-0.01-0.03,0c-0.01,0.01-0.04,0-0.07,0
		c-0.03,0-0.09-0.01-0.14-0.01c-0.05,0-0.1,0-0.11-0.01c-0.01,0-0.02-0.01-0.03-0.01c-0.01,0-0.03-0.01-0.06-0.04L4.81,9.27
		C4.78,9.24,4.7,9.15,4.69,9.13C4.68,9.12,4.68,9.1,4.68,9.09S4.67,9.06,4.66,9.04C4.65,9.02,4.64,9,4.64,8.99S4.62,8.96,4.6,8.93
		C4.58,8.9,4.55,8.87,4.55,8.85c0-0.01-0.01-0.03-0.02-0.04C4.52,8.8,4.52,8.77,4.52,8.74c0-0.02-0.01-0.05-0.02-0.06
		C4.49,8.67,4.48,8.63,4.48,8.6C4.47,8.51,4.43,8.4,4.41,8.37C4.38,8.33,4.38,8.24,4.4,8.16c0.01-0.04,0.01-0.08,0.01-0.1
		S4.37,8,4.31,7.95C4.26,7.9,4.22,7.86,4.21,7.86c-0.01,0-0.05-0.03-0.1-0.06C4.05,7.76,4.02,7.73,4.02,7.72s0-0.02,0.02-0.02
		c0.04,0,0.21,0.03,0.3,0.06C4.49,7.8,4.5,7.8,4.52,7.79c0.03-0.03,0.07-0.1,0.08-0.14c0.01-0.02,0.02-0.07,0.03-0.1
		c0.01-0.03,0.02-0.06,0.02-0.07c0-0.01,0.01-0.03,0.02-0.04c0.01-0.01,0.01-0.06,0.02-0.16C4.7,7.2,4.71,7.1,4.72,7.04
		c0.02-0.13,0.02-0.31,0-0.35c-0.01-0.03-0.01-0.03,0-0.06c0.01-0.03,0.01-0.04,0-0.05C4.71,6.57,4.71,6.57,4.7,6.57
		c-0.01,0-0.04-0.03-0.08-0.07C4.59,6.46,4.55,6.43,4.54,6.43c-0.03,0-0.08-0.02-0.09-0.04c0-0.01-0.02-0.02-0.07-0.03
		C4.32,6.35,4.3,6.34,4.27,6.31C4.22,6.26,4.2,6.25,4.15,6.27C4.12,6.28,4.09,6.28,4.07,6.28c-0.02-0.01-0.04,0-0.05,0
		C4.01,6.29,3.98,6.26,3.94,6.23C3.88,6.19,3.86,6.18,3.82,6.18c-0.03,0-0.06,0-0.08-0.02C3.73,6.15,3.7,6.13,3.67,6.13
		C3.61,6.1,3.52,6.03,3.5,5.99C3.49,5.97,3.48,5.96,3.47,5.96c-0.01,0-0.01-0.02-0.01-0.03c0-0.02-0.03-0.06-0.05-0.06
		C3.4,5.88,3.4,5.85,3.4,5.84S3.38,5.8,3.36,5.77C3.34,5.75,3.33,5.71,3.33,5.71c0-0.01,0-0.03-0.01-0.04
		C3.29,5.63,3.22,5.49,3.2,5.41C3.19,5.35,3.17,5.29,3.16,5.25C3.15,5.21,3.14,5.13,3.14,5.09S3.13,5,3.12,4.99
		C3.11,4.96,3.1,4.92,3.09,4.88C3.08,4.83,3.06,4.75,3.05,4.74C3,4.64,3,4.62,3.01,4.57c0.01-0.07,0.01-0.11,0.02-0.2
		c0-0.05,0.01-0.09,0.01-0.1c0.01-0.01,0-0.02,0-0.04s0-0.05,0.02-0.09C3.07,4.1,3.09,4.07,3.09,4.06s0-0.02,0.01-0.02
		c0.01,0,0.02-0.01,0.02-0.03c0-0.02,0.01-0.03,0.02-0.04c0.01-0.01,0.02-0.03,0.02-0.04V3.88c0-0.02,0-0.05,0.01-0.06
		C3.18,3.8,3.2,3.68,3.2,3.62c0-0.02,0.01-0.04,0.01-0.05c0.01-0.02,0.05-0.18,0.05-0.22c0-0.03,0.01-0.05,0.03-0.07
		c0.03-0.03,0.03-0.03,0.08-0.02C3.44,3.28,3.46,3.3,3.59,3.43c0.06,0.06,0.12,0.12,0.13,0.12c0.01,0,0.03,0,0.03,0.01
		c0.01,0.02,0.08,0.05,0.11,0.05c0.01,0,0.03-0.01,0.05-0.02s0.04-0.01,0.05-0.01c0.01,0,0.02,0.01,0.03,0
		C4,3.57,4.04,3.55,4.08,3.53c0.04-0.02,0.08-0.04,0.11-0.06c0.03-0.02,0.06-0.03,0.07-0.03c0.01,0,0.05-0.02,0.06-0.03
		C4.34,3.4,4.36,3.39,4.37,3.39c0.02,0,0.03-0.01,0.03-0.02s0.01-0.01,0.02-0.01c0.01,0,0.03-0.02,0.05-0.03S4.5,3.31,4.51,3.31
		c0.01-0.02,0.04-0.03,0.06-0.04c0.02-0.01,0.09-0.04,0.16-0.08c0.2-0.12,0.35-0.2,0.42-0.22C5.17,2.96,5.21,2.97,5.23,2.97z
		 M5.09,3.63C5.07,3.61,5.06,3.61,5.04,3.62c-0.02,0-0.03,0.01-0.03,0.02S4.95,3.7,4.93,3.7c-0.01,0-0.06,0.05-0.13,0.15
		C4.76,3.9,4.71,3.97,4.69,4C4.66,4.03,4.65,4.05,4.65,4.07c0,0.02-0.01,0.04-0.04,0.07C4.59,4.16,4.57,4.18,4.57,4.19
		S4.55,4.23,4.53,4.25C4.48,4.31,4.44,4.36,4.41,4.41C4.39,4.45,4.36,4.5,4.35,4.51C4.33,4.53,4.32,4.55,4.32,4.63s0,0.12,0.03,0.23
		C4.37,4.92,4.38,5,4.39,5C4.4,5.01,4.41,5.04,4.41,5.07c0,0.05,0.03,0.06,0.06,0.04c0.01-0.01,0.02-0.01,0.04-0.01
		c0.02,0,0.04,0,0.05-0.01C4.57,5.08,4.59,5.08,4.6,5.08c0.01,0,0.04-0.01,0.07-0.02c0.05-0.02,0.07-0.02,0.09-0.01
		c0.01,0.01,0.03,0.01,0.08,0c0.04-0.01,0.08-0.02,0.09-0.02c0.01,0,0.03,0,0.03-0.01C4.96,5,4.98,5,5,5c0.02,0,0.04-0.02,0.05-0.03
		c0.01-0.01,0.02-0.01,0.04-0.01c0.06,0,0.32-0.09,0.36-0.12c0.01-0.01,0.02-0.02,0.03-0.02c0.01,0,0.05-0.03,0.09-0.07
		c0.06-0.06,0.06-0.06,0.06-0.09c0-0.02,0.01-0.04,0.02-0.04c0.02,0,0.16-0.31,0.19-0.38c0.01-0.03,0.03-0.09,0.05-0.12
		C5.93,4.05,5.95,4,5.94,3.96C5.93,3.92,5.91,3.9,5.88,3.9c-0.01,0-0.04-0.01-0.07-0.02C5.78,3.86,5.74,3.85,5.69,3.85
		c-0.06,0-0.07-0.01-0.08-0.02c-0.01-0.01-0.01-0.01-0.02,0c-0.01,0.01-0.08,0.01-0.1-0.01C5.48,3.81,5.44,3.8,5.4,3.79
		C5.36,3.78,5.32,3.77,5.31,3.76C5.3,3.75,5.26,3.71,5.21,3.68C5.15,3.64,5.13,3.63,5.12,3.64C5.11,3.65,5.1,3.64,5.09,3.63z
		 M6.95,6.9C6.97,6.89,6.98,6.89,7,6.91c0.02,0.02,0.03,0.02,0.06,0.01c0.03-0.01,0.04-0.01,0.05,0c0.03,0.01,0.18,0.01,0.23,0
		c0.04-0.01,0.05-0.01,0.07,0c0.1,0.05,0.14,0.06,0.19,0.06c0.03,0,0.06,0,0.07,0.01C7.69,7,7.7,7,7.71,6.99
		c0.01-0.01,0.01-0.01,0.03,0C7.77,7,7.8,6.99,7.82,6.97c0.01-0.01,0.02-0.01,0.04-0.02c0.01,0,0.03,0,0.04,0.01
		c0.01,0.01,0.01,0.01,0.02,0c0.01-0.01,0.03-0.01,0.09-0.01c0.06,0,0.07,0,0.07-0.01S8.1,6.92,8.13,6.91
		C8.17,6.89,8.18,6.89,8.21,6.9c0.02,0.01,0.05,0.01,0.07,0.01s0.06,0.01,0.1,0.02C8.44,6.95,8.46,6.96,8.49,7
		c0.02,0.03,0.04,0.07,0.04,0.08S8.54,7.1,8.55,7.11c0.02,0.01,0.03,0.06,0.03,0.14c0,0.02,0,0.03,0.01,0.03
		c0.01,0,0.01,0.06,0.01,0.13c0,0.11-0.01,0.15-0.03,0.23c-0.01,0.05-0.03,0.1-0.03,0.13C8.53,7.83,8.52,7.86,8.46,7.95
		C8.43,7.99,8.41,8.03,8.41,8.04c0,0.01-0.01,0.01-0.03,0.02c-0.01,0-0.03,0.02-0.04,0.03C8.33,8.1,8.33,8.11,8.32,8.11
		c-0.01,0-0.03,0.01-0.04,0.03C8.27,8.16,8.25,8.18,8.23,8.19S8.19,8.22,8.19,8.23c-0.01,0.03-0.03,0.06-0.1,0.1L8.03,8.36
		L7.98,8.34C7.94,8.32,7.93,8.32,7.91,8.33c-0.01,0-0.03,0-0.1-0.03C7.77,8.28,7.71,8.27,7.7,8.27S7.66,8.26,7.64,8.25
		C7.62,8.24,7.59,8.23,7.57,8.23S7.54,8.22,7.53,8.2c-0.01,0-0.02,0-0.03-0.01C7.49,8.18,7.48,8.18,7.47,8.18
		C7.45,8.19,7.35,8.13,7.34,8.11C7.33,8.09,7.24,8.05,7.2,8.05c-0.02,0-0.04,0-0.04-0.02H7.1c-0.03,0-0.05,0.01-0.07,0.03
		C7.01,8.07,6.97,8.09,6.96,8.09c-0.02,0-0.06,0.02-0.08,0.03c-0.02,0.01-0.04,0.01-0.04,0c0-0.02-0.03-0.03-0.05-0.02
		c-0.01,0.01-0.02,0-0.03-0.02c0-0.01-0.01-0.03-0.01-0.04c0-0.01-0.01-0.04-0.02-0.05C6.71,7.97,6.71,7.97,6.72,7.92
		c0.01-0.03,0.01-0.06,0-0.07c-0.01-0.01-0.01-0.03,0-0.05c0.01-0.03,0.01-0.04,0-0.05c-0.01-0.01,0-0.01,0.02-0.03l0.02-0.03
		L6.74,7.65C6.73,7.63,6.71,7.59,6.69,7.57C6.67,7.55,6.65,7.53,6.65,7.51c0-0.02,0-0.06-0.01-0.09C6.62,7.33,6.62,7.29,6.63,7.27
		C6.64,7.26,6.65,7.23,6.65,7.2C6.66,7.1,6.73,7,6.82,6.93C6.85,6.91,6.87,6.9,6.89,6.9H6.95z"/>
	<path fill="#9E5C4C" d="M12.22,0.88c0.07,0,0.07,0,0.07,0.02c0,0.02,0.02,0.03,0.03,0.02c0.01-0.01,0.03,0,0.07,0.03
		c0.03,0.02,0.07,0.04,0.08,0.05c0.01-0.01,0.02,0.02,0.03,0.04c0.02,0.04,0.23,0.27,0.25,0.27c0.01,0,0.01,0.01,0.02,0.03
		c0.01,0.02,0.03,0.04,0.04,0.04c0.02,0,0.03,0.01,0.03,0.02c0,0.02,0.11,0.12,0.25,0.26c0.01,0.01,0.09,0.08,0.16,0.16
		C13.33,1.9,13.43,2,13.48,2.04c0.05,0.04,0.11,0.09,0.14,0.12c0.08,0.08,0.12,0.12,0.13,0.12c0.01,0.01,0.04,0.02,0.06,0.04
		l0.04,0.03l0.02-0.02c0.01-0.01,0.03-0.02,0.05-0.02s0.06-0.01,0.09-0.02c0.03-0.01,0.06-0.01,0.07-0.01c0.01,0,0.02,0,0.03-0.01
		c0.01-0.01,0.01-0.01,0.02,0c0.01,0.01,0.02,0,0.03-0.01c0.01-0.01,0.06-0.01,0.11-0.02c0.05-0.01,0.09-0.03,0.09-0.04
		c0.01-0.01,0.02-0.01,0.03-0.01c0.01,0,0.1-0.03,0.21-0.06c0.11-0.03,0.21-0.06,0.22-0.06c0.05-0.01,0.2-0.04,0.22-0.05
		c0.06-0.03,0.19-0.07,0.32-0.1c0.08-0.02,0.23-0.05,0.33-0.07c0.14-0.03,0.2-0.04,0.37-0.05c0.23-0.01,0.4-0.01,0.72-0.01
		c0.29,0,0.36,0.01,0.44,0.03c0.14,0.03,0.18,0.04,0.24,0.1c0.02,0.02,0.08,0.06,0.11,0.08c0.03,0.01,0.07,0.03,0.07,0.04
		c0,0.01,0.02,0.02,0.05,0.03c0.03,0.01,0.06,0.03,0.07,0.04c0.01,0.01,0.01,0.02,0.02,0.02s0.05,0.02,0.09,0.06
		c0.01,0.01,0.08,0.05,0.13,0.09c0.17,0.11,0.3,0.25,0.33,0.37c0.01,0.03,0.04,0.08,0.06,0.12c0.02,0.04,0.04,0.09,0.05,0.11
		c0.02,0.04,0.03,0.12,0.01,0.13c-0.01,0-0.02,0.01-0.02,0.02s-0.01,0.02-0.02,0.03c-0.01,0.01-0.02,0.02-0.02,0.03
		c0,0.01,0,0.05-0.01,0.08c-0.01,0.05-0.02,0.07-0.04,0.07c-0.02,0-0.05,0.03-0.08,0.05c-0.03,0.03-0.07,0.03-0.08,0.03
		c-0.01,0-0.03,0.01-0.05,0.03c-0.02,0.01-0.04,0.02-0.17,0.02c-0.1,0-0.13,0-0.15-0.01c0,0.01-0.02,0.01-0.04,0
		c-0.01-0.01-0.04-0.01-0.07-0.01c-0.03,0-0.06,0-0.08-0.01c-0.01-0.01-0.06-0.02-0.11-0.02s-0.12-0.01-0.16-0.02
		c-0.09-0.02-0.25-0.02-0.52-0.02c-0.15,0-0.23,0-0.24,0.01c-0.02,0.02-0.01,0.07,0.01,0.08c0.01,0,0.02,0.01,0.02,0.02
		c0,0.01,0.02,0.05,0.04,0.09s0.04,0.09,0.04,0.1s0,0.03,0.01,0.03c0.01,0,0.01,0.02,0.01,0.04c0,0.02,0.03,0.09,0.05,0.15
		c0.04,0.1,0.07,0.19,0.08,0.31c0,0.03,0.01,0.05,0.01,0.06c0.01,0,0.01,0.04,0.02,0.07c0.01,0.03,0.01,0.06,0.02,0.07
		c0.02,0.02,0,0.24-0.02,0.27c0,0.01-0.02,0.05-0.03,0.1c-0.01,0.05-0.01,0.1-0.02,0.12c-0.01,0.02-0.01,0.06-0.02,0.09
		c-0.01,0.02-0.03,0.13-0.07,0.24c-0.04,0.12-0.06,0.19-0.06,0.21c0,0.01-0.01,0.07-0.02,0.12c-0.01,0.05-0.02,0.1-0.02,0.12
		c0,0.01,0,0.07-0.01,0.13C16.6,5.85,16.6,6.11,16.6,6.42c0,0.11-0.01,0.21-0.01,0.22c0,0.01-0.01,0.2-0.01,0.43
		c0,0.31-0.01,0.44,0,0.49c0.01,0.04,0.02,0.1,0.02,0.14c0,0.04,0.01,0.06,0,0.06c0.01,0,0.01,0.04,0.01,0.08
		c0,0.05,0.01,0.09,0.02,0.1c0.01,0.01,0.01,0.03,0,0.05c-0.01,0.02-0.01,0.04,0.01,0.08c0.01,0.03,0.02,0.05,0.01,0.06
		c-0.01,0,0,0.01,0.01,0.02c0.02,0.02,0.01,0.2-0.01,0.24c-0.01,0.02-0.02,0.07-0.02,0.21c0,0.1,0,0.2-0.01,0.22
		c-0.01,0.04-0.04,0.07-0.07,0.07c-0.01,0-0.02,0.01-0.03,0.02c-0.01,0.01-0.03,0.02-0.04,0.02c-0.01,0-0.02,0.01-0.03,0.02
		c-0.01,0.01-0.03,0.01-0.04,0.01c-0.01,0-0.03,0.01-0.04,0.01c-0.02,0.01-0.17,0.04-0.21,0.04c-0.01,0-0.03,0.01-0.04,0.02
		c-0.01,0.02-0.03,0.01-0.13,0c-0.06-0.01-0.12,0-0.13,0C15.84,9.04,15.68,9.02,15.65,9c-0.01-0.01-0.02-0.02-0.03-0.02
		c-0.01,0-0.03-0.01-0.05-0.02s-0.05-0.02-0.06-0.02c-0.04,0-0.1-0.07-0.13-0.13c-0.02-0.03-0.04-0.07-0.05-0.08
		c-0.01-0.01-0.02-0.03-0.02-0.05c0-0.02-0.02-0.06-0.04-0.09c-0.02-0.03-0.03-0.05-0.02-0.06c0-0.01,0.01-0.02,0-0.03
		c-0.02-0.03-0.04-0.11-0.04-0.21c0-0.03-0.01-0.05-0.01-0.06s-0.01-0.01,0-0.02c0.01-0.01,0.01-0.04-0.01-0.08
		c-0.01-0.03-0.02-0.09-0.02-0.12c0-0.04-0.01-0.07-0.02-0.08c-0.01-0.01-0.01-0.03-0.01-0.04c0.01-0.03-0.06-0.18-0.11-0.24
		c-0.04-0.05-0.06-0.08-0.06-0.13c0-0.02-0.01-0.05-0.02-0.06c-0.01-0.02-0.02-0.07-0.04-0.25c0-0.03-0.01-0.06-0.02-0.07
		c-0.01-0.01-0.02-0.02-0.02-0.03c-0.01-0.1-0.04-0.19-0.09-0.25c-0.02-0.02-0.03-0.05-0.03-0.06c0-0.01,0-0.02-0.01-0.03
		c-0.02-0.02-0.02-0.03,0-0.05c0.02-0.02,0.1,0,0.15,0.03c0.02,0.01,0.07,0.03,0.13,0.04c0.06,0.01,0.11,0.01,0.12,0.02
		c0.01,0.01,0.02,0.01,0.02,0c0-0.01,0.01-0.02,0.05-0.01c0.02,0,0.06,0,0.1-0.01c0.03-0.01,0.06-0.02,0.08-0.02s0.04,0,0.04-0.01
		c0.01-0.01,0.02-0.02,0.04-0.02c0.03,0,0.04-0.01,0.04-0.06c0-0.03,0.01-0.04,0.03-0.05c0.03-0.02,0.05-0.06,0.04-0.08
		c0-0.01,0.01-0.02,0.02-0.04c0.02-0.02,0.02-0.04,0.02-0.07s0-0.06,0.01-0.07c0.01-0.01,0.02-0.01,0.01-0.02
		c-0.01-0.01,0-0.03,0.01-0.07c0.02-0.06,0.02-0.11,0.02-0.27c0-0.11,0-0.31,0.01-0.44c0.01-0.18,0.01-0.27,0-0.34
		C15.67,5.18,15.67,5.08,15.66,5c-0.02-0.17-0.03-0.25-0.04-0.53c0-0.13,0-0.22-0.01-0.23c-0.01-0.01,0-0.06,0-0.12
		c0-0.09-0.01-0.11-0.03-0.14c-0.01-0.02-0.02-0.05-0.02-0.06s-0.02-0.05-0.04-0.09c-0.05-0.1-0.08-0.2-0.15-0.38
		c-0.03-0.08-0.04-0.13-0.05-0.14c-0.01-0.01-0.06-0.02-0.13-0.03c-0.12-0.02-0.14-0.02-0.45-0.02c-0.25,0-0.33,0-0.35-0.01
		c-0.01-0.01-0.02-0.01-0.03,0c-0.01,0.01-0.22-0.08-0.26-0.11c-0.02-0.01-0.04-0.02-0.05-0.02S14,3.1,13.96,3.08
		c-0.04-0.03-0.07-0.04-0.08-0.04c-0.01,0-0.05,0.05-0.07,0.09c-0.01,0.02-0.02,0.06-0.02,0.08c0,0.02,0,0.06-0.01,0.07
		c-0.01,0.01-0.02,0.07-0.03,0.14c-0.01,0.07-0.02,0.13-0.03,0.14c0,0.01-0.01,0.05-0.01,0.08s-0.03,0.13-0.04,0.2
		c-0.01,0.09-0.02,0.18-0.03,0.44c-0.01,0.32-0.02,0.53-0.04,0.64C13.59,4.96,13.59,5,13.62,5.15c0.02,0.09,0.03,0.18,0.03,0.21
		c0,0.03,0.01,0.13,0.02,0.22c0.02,0.23,0,0.32-0.06,0.35l-0.03,0.03c-0.01,0.01-0.01,0.02-0.02,0.03s-0.01,0.03-0.03,0.05
		c-0.02,0.02-0.04,0.04-0.05,0.04c-0.01,0-0.02,0-0.03,0.01c-0.01,0.01-0.02,0.02-0.03,0.02c-0.03,0-0.11,0.02-0.16,0.04
		s-0.12,0.03-0.14,0.02c-0.02-0.01-0.11-0.02-0.21,0c-0.06,0.01-0.12,0.02-0.13,0.02c-0.05,0-0.22,0-0.23,0.01
		c-0.01,0.01-0.04,0-0.07,0c-0.03,0-0.09,0-0.13,0.01c-0.09,0.02-0.23,0.04-0.43,0.05c-0.22,0.01-0.52,0.01-0.56-0.01
		c-0.02-0.01-0.13-0.02-0.38-0.02c-0.45-0.01-0.51-0.02-0.6-0.04c-0.04-0.02-0.09-0.03-0.11-0.03c-0.03,0-0.13-0.03-0.14-0.04
		C10.12,6.1,10.11,6.1,10.1,6.1c-0.01,0-0.04-0.02-0.07-0.03C9.96,6.05,9.87,5.96,9.84,5.89C9.83,5.86,9.81,5.8,9.79,5.77
		C9.77,5.75,9.76,5.68,9.76,5.66C9.75,5.59,9.74,5.59,9.71,5.56C9.68,5.55,9.68,5.55,9.69,5.51c0-0.02,0.01-0.05,0.02-0.06
		c0.04-0.06,0.04-0.21,0.01-0.27C9.71,5.17,9.71,5.13,9.74,5.05C9.77,4.99,9.79,4.9,9.8,4.83c0.01-0.05,0.08-0.22,0.12-0.27
		L9.97,4.5L9.96,4.33c-0.01-0.1-0.01-0.19-0.01-0.2c0-0.01,0-0.02,0.01-0.02c0.01,0-0.01-0.03-0.05-0.07C9.87,4,9.83,3.95,9.81,3.93
		C9.79,3.9,9.78,3.88,9.77,3.88c-0.01,0-0.01-0.02-0.01-0.03c0-0.02-0.02-0.07-0.03-0.1c0-0.01-0.01-0.03-0.01-0.04
		s0-0.03-0.01-0.03C9.7,3.67,9.7,3.67,9.7,3.65c0-0.02,0-0.05-0.01-0.06C9.67,3.56,9.63,3.42,9.62,3.32c0-0.04-0.01-0.08-0.02-0.09
		c-0.02-0.03-0.02-0.06,0-0.08c0.01-0.02,0.01-0.04,0-0.12c-0.01-0.05-0.03-0.09-0.03-0.1c0-0.01-0.01-0.05-0.01-0.1
		c-0.01-0.14,0-0.22-0.01-0.24c0-0.01-0.01-0.02,0-0.02c0.01,0,0.01-0.06,0.02-0.12c0.01-0.09,0.01-0.13,0-0.16
		C9.56,2.25,9.56,2.24,9.58,2.23c0.02-0.01,0.02-0.01,0-0.03c-0.02-0.02-0.01-0.02,0-0.11c0.02-0.11,0.02-0.16,0-0.21
		C9.57,1.86,9.56,1.84,9.57,1.83c0.01,0,0.01-0.01,0.01-0.03c0-0.02-0.01-0.04-0.02-0.04c-0.02-0.01-0.02-0.01,0-0.02
		c0.01,0,0.01-0.02,0.01-0.04c0-0.01-0.01-0.03,0-0.04c0.01-0.02,0.01-0.03-0.01-0.04c-0.01,0-0.01-0.02,0.05-0.19
		c0.06-0.18,0.07-0.2,0.1-0.22c0.06-0.05,0.07-0.05,0.1-0.02c0.02,0.02,0.03,0.03,0.05,0.02S9.89,1.2,9.92,1.23
		c0.02,0.02,0.04,0.03,0.05,0.03c0.01,0,0.02,0.02,0.03,0.03c0.01,0.01,0.05,0.03,0.07,0.04c0.02,0.01,0.04,0.02,0.04,0.03
		c0,0.01,0.01,0.02,0.02,0.02c0.01,0,0.03,0.02,0.03,0.03c0.01,0.02,0.04,0.04,0.06,0.03c0.01,0,0.03,0,0.05,0.01
		c0.04,0.02,0.12,0.02,0.14,0c0.01-0.01,0.02-0.01,0.03-0.01c0.01,0,0.05,0,0.07-0.01c0.2-0.06,0.38-0.13,0.41-0.14
		c0.02-0.01,0.06-0.02,0.08-0.03c0.03-0.01,0.12-0.04,0.2-0.07c0.08-0.03,0.2-0.07,0.26-0.09c0.25-0.07,0.29-0.09,0.35-0.12
		c0.03-0.02,0.08-0.03,0.1-0.03s0.05-0.01,0.08-0.02c0.03-0.01,0.05-0.02,0.06-0.02c0.01,0,0.04,0,0.06-0.01
		C12.14,0.88,12.17,0.88,12.22,0.88z M11.39,1.8c-0.02,0.01-0.13,0.07-0.23,0.12c-0.21,0.1-0.35,0.19-0.43,0.27
		c-0.07,0.07-0.2,0.25-0.19,0.28c0,0.01,0.01,0.03-0.01,0.05c-0.02,0.02-0.02,0.02-0.01,0.14c0.01,0.06,0.01,0.11,0.01,0.12
		c0.01,0.01,0.01,0,0.03,0s0.03-0.01,0.04-0.02c0.01-0.02,0.02-0.02,0.05-0.02h0.05c0.04-0.02,0.13-0.04,0.14-0.04
		c0.01,0,0.03,0,0.06-0.01c0.03-0.01,0.06-0.02,0.07-0.01c0.01,0,0.03,0.01,0.04,0c0.01-0.01,0.03-0.01,0.04-0.01
		c0.01,0,0.03,0,0.04-0.01c0.01-0.01,0.04-0.03,0.07-0.04c0.03-0.01,0.08-0.03,0.09-0.04c0.01-0.01,0.02-0.03,0.03-0.02
		c0.01,0,0.02,0.01,0.03,0c0.02-0.01,0.01-0.04,0.02-0.13c0-0.06,0.02-0.12,0.02-0.13s0-0.02-0.01-0.03c-0.01-0.02-0.01-0.03,0-0.04
		s0.02-0.05,0.02-0.11c0.01-0.1,0.04-0.24,0.07-0.27c0.01-0.01,0.02-0.02,0.02-0.04C11.46,1.78,11.45,1.77,11.39,1.8z M10.75,3.37
		c-0.06-0.01-0.06-0.01-0.09,0.01L10.63,3.4l-0.01,0.19c-0.01,0.17-0.01,0.31-0.03,0.38c0,0.02,0,0.03,0.01,0.03
		c0.01,0,0.02,0,0.03,0.01c0.01,0.01,0.04,0.06,0.08,0.12c0.1,0.16,0.15,0.19,0.22,0.16c0.03-0.01,0.04-0.01,0.06,0
		c0.02,0.01,0.03,0.01,0.06,0c0.01,0,0.1-0.02,0.17-0.03c0.16-0.02,0.17-0.04,0.17-0.07c0-0.05-0.02-0.09-0.04-0.12
		c-0.02-0.04-0.05-0.16-0.05-0.21c0-0.03,0-0.06-0.01-0.06c-0.01,0-0.01-0.01-0.01-0.02c0-0.01,0-0.05-0.01-0.09
		c-0.01-0.05-0.02-0.11-0.02-0.16c0-0.05,0-0.1-0.01-0.12l-0.01-0.03l-0.02,0.03c-0.01,0.02-0.03,0.03-0.04,0.03s-0.02-0.01-0.04,0
		c-0.04,0.02-0.07,0.02-0.07,0c0-0.02-0.01-0.02-0.07-0.02c-0.04,0-0.06-0.02-0.08-0.04c-0.02-0.03-0.06-0.03-0.08-0.01
		C10.82,3.38,10.79,3.38,10.75,3.37z M12.1,1.51c-0.23,0.08-0.38,0.15-0.44,0.18L11.63,1.7l0.04,0.09c0.02,0.05,0.05,0.1,0.05,0.13
		s0.02,0.07,0.03,0.09c0.01,0.02,0.02,0.05,0.03,0.07c0.01,0.02,0.02,0.07,0.04,0.11c0.03,0.07,0.03,0.08,0.02,0.09
		c-0.01,0.01-0.01,0.01,0.01,0.05c0.01,0.02,0.02,0.04,0.03,0.05c0.01,0.01,0.21-0.01,0.22-0.02c0.01,0,0.03-0.01,0.04-0.01
		c0.06-0.01,0.16-0.01,0.19-0.01c0.05,0,0.16,0.01,0.17,0.02c0.02,0.01,0.11,0.04,0.15,0.04c0.01,0,0.03,0,0.04,0.01
		c0.01,0.01,0.05,0.03,0.09,0.04c0.04,0.01,0.09,0.03,0.11,0.05c0.02,0.01,0.08,0.05,0.11,0.07c0.03,0.02,0.06,0.04,0.06,0.05
		s0.03,0.04,0.05,0.07s0.05,0.07,0.06,0.09c0.01,0.02,0.02,0.05,0.03,0.06c0.02,0.02,0.02,0.02,0.02-0.01
		c0-0.02,0.01-0.04,0.02-0.05c0.01-0.01,0.01-0.02,0-0.05c-0.01-0.02,0-0.07,0-0.11c0.01-0.1-0.01-0.17-0.07-0.23
		c-0.02-0.02-0.07-0.07-0.11-0.12c-0.15-0.19-0.2-0.25-0.22-0.26c-0.01,0-0.03-0.02-0.04-0.04c-0.01-0.02-0.03-0.04-0.04-0.05
		c-0.01-0.01-0.02-0.02-0.02-0.03s-0.01-0.02-0.02-0.02c-0.01,0-0.03-0.02-0.04-0.04c-0.04-0.06-0.18-0.21-0.2-0.21
		c-0.01,0-0.03-0.01-0.03-0.02c0-0.01-0.04-0.03-0.1-0.06C12.23,1.48,12.2,1.47,12.1,1.51z M13.19,3.03c0-0.02-0.01-0.03-0.01-0.02
		c0,0.02-0.03,0.06-0.1,0.09c-0.05,0.02-0.07,0.02-0.16,0.02c-0.07,0-0.13,0.02-0.19,0.03c-0.05,0.01-0.08,0.01-0.09,0.01
		c-0.01-0.01-0.03,0.01-0.06,0.03c-0.03,0.02-0.1,0.04-0.15,0.06c-0.08,0.03-0.1,0.03-0.11,0.03c-0.02-0.01-0.03-0.02-0.04-0.01
		c-0.01,0.01-0.04,0.03-0.08,0.05c-0.06,0.03-0.06,0.03-0.08,0.09C12.11,3.44,12.1,3.5,12.1,3.54s0,0.06-0.01,0.08
		c-0.01,0.01-0.02,0.08-0.03,0.14c-0.01,0.06-0.02,0.12-0.03,0.14c-0.04,0.15-0.06,0.27-0.05,0.27c0.02,0,0.33-0.05,0.4-0.06
		c0.12-0.02,0.31-0.06,0.39-0.09s0.15-0.08,0.17-0.14c0.01-0.02,0.02-0.06,0.03-0.08c0.03-0.04,0.11-0.25,0.12-0.32
		c0-0.03,0.01-0.07,0.01-0.08c0-0.01,0.02-0.05,0.03-0.1c0.01-0.05,0.03-0.12,0.04-0.16C13.18,3.1,13.19,3.05,13.19,3.03z"/>
	<path fill="#9E5C4C" d="M20.88,3.81c0,0.02,0.01,0.02,0.02,0.02c0.02,0,0.05-0.01,0.06-0.02C20.98,3.79,20.98,3.79,21,3.8
		c0.01,0.01,0.06,0.02,0.1,0.02s0.08,0.02,0.09,0.03c0.02,0.01,0.04,0.01,0.05,0.01s0.02,0.01,0.03,0.02
		c0.01,0.01,0.07,0.05,0.13,0.08c0.07,0.03,0.14,0.07,0.16,0.09c0.02,0.02,0.04,0.04,0.05,0.04c0.02,0,0.11,0.11,0.14,0.17
		c0.07,0.14,0.1,0.29,0.11,0.53c0,0.09,0,0.15-0.01,0.21c-0.03,0.14-0.11,0.23-0.2,0.27c-0.03,0.01-0.06,0.02-0.07,0.02
		s-0.03,0.02-0.05,0.04c-0.02,0.02-0.03,0.04-0.05,0.04c0,0.01-0.01,0.01-0.02,0.01s-0.03,0.01-0.06,0.03
		c-0.1,0.08-0.25,0.15-0.39,0.18c-0.15,0.03-0.4,0-0.47-0.05C20.53,5.52,20.5,5.5,20.48,5.5c-0.02-0.01-0.06-0.04-0.08-0.06
		c-0.08-0.09-0.15-0.18-0.17-0.22c-0.01-0.02-0.03-0.05-0.04-0.06c-0.02-0.02-0.12-0.23-0.11-0.25c0-0.01,0-0.03-0.01-0.04
		l-0.02-0.16c-0.02-0.15-0.01-0.28,0.01-0.35c0.02-0.04,0.22-0.25,0.29-0.3c0.04-0.03,0.12-0.07,0.17-0.1
		c0.05-0.03,0.1-0.06,0.12-0.07c0.03-0.02,0.15-0.08,0.2-0.09C20.88,3.79,20.89,3.79,20.88,3.81z"/>
	<path fill="#9E5C4C" d="M3,8.65c0.01,0.01,0.02,0.01,0.04,0.01c0.08,0,0.12,0.04,0.19,0.19c0.03,0.07,0.05,0.11,0.09,0.14
		c0.03,0.02,0.06,0.06,0.07,0.08l0.04,0.08c0.02,0.02,0.04,0.04,0.04,0.06c0,0.02,0.02,0.04,0.03,0.05C3.51,9.27,3.52,9.29,3.52,9.3
		s0.01,0.04,0.02,0.06C3.56,9.38,3.57,9.4,3.57,9.41c0,0.01,0.01,0.03,0.02,0.06C3.61,9.51,3.61,9.52,3.6,9.56
		c-0.01,0.06-0.02,0.18,0,0.22l0.02,0.04L3.58,9.83C3.53,9.85,3.47,9.9,3.47,9.92c0,0.01-0.01,0.02-0.02,0.03
		C3.44,9.96,3.43,9.97,3.43,9.98c0,0.02,0.07,0.03,0.1,0.01c0-0.01,0.02-0.01,0.03-0.01c0.06,0,0.19,0.07,0.19,0.1
		c0,0.02,0.09,0.09,0.14,0.1c0.02,0,0.05,0.01,0.06,0.02c0.01,0.01,0.05,0.03,0.08,0.04s0.08,0.03,0.09,0.05
		c0.06,0.08,0.11,0.12,0.12,0.12c0.01,0,0.02,0.01,0.03,0.03c0.01,0.02,0.04,0.05,0.06,0.07c0.06,0.08,0.09,0.17,0.11,0.35
		c0,0.02,0,0.04-0.01,0.05c-0.01,0.01-0.02,0.07-0.02,0.13c0,0.13-0.01,0.19-0.04,0.27c-0.01,0.04-0.02,0.09-0.02,0.12
		c0,0.03,0,0.06-0.01,0.07c-0.01,0.02-0.01,0.02-0.12,0.02c-0.07,0-0.16-0.02-0.2-0.02H3.95l-0.02,0.03
		c-0.01,0.02-0.02,0.05-0.02,0.06c0,0.01-0.01,0.03-0.02,0.05c-0.01,0.03-0.01,0.06-0.01,0.18c0.01,0.15,0,0.22-0.03,0.4
		c-0.01,0.06,0,0.11,0,0.17c0.01,0.06,0,0.09-0.01,0.1c-0.01,0.01-0.02,0.01-0.01,0.02c0.01,0.01,0.05,0.01,0.1,0.02
		c0.05,0.01,0.1,0.02,0.12,0.03c0.02,0.01,0.04,0.02,0.05,0.02c0.01,0,0.04,0.01,0.07,0.02c0.04,0.01,0.06,0.02,0.06,0.01
		c0.01,0.01,0.05,0.01,0.08,0.02c0.06,0.01,0.23,0.1,0.26,0.13c0.04,0.04,0.1,0.19,0.12,0.28c0.01,0.02,0.02,0.05,0.02,0.06
		c0.02,0.02,0.01,0.06-0.03,0.15c-0.03,0.06-0.03,0.08-0.03,0.12c0.01,0.08-0.01,0.1-0.09,0.13c-0.06,0.02-0.18,0.03-0.46,0.04
		c-0.11,0-0.2,0.01-0.21,0.01c-0.01,0-0.02,0.01-0.03,0.01s-0.11-0.01-0.24-0.01c-0.11,0-0.23-0.01-0.24-0.01
		c-0.03-0.01-0.44,0-0.46,0.01c-0.03,0.01-0.02,0.04,0.01,0.08c0.02,0.02,0.03,0.04,0.03,0.05c0,0.01,0.02,0.04,0.05,0.07
		c0.05,0.06,0.13,0.2,0.15,0.27c0.01,0.03,0.02,0.04,0.15,0.06c0.07,0.01,0.11,0.02,0.11,0.01s0.01-0.01,0.02,0
		c0.01,0.01,0.05,0.02,0.08,0.02c0.07,0.01,0.16,0.06,0.23,0.13c0.03,0.03,0.07,0.06,0.08,0.06c0.01,0,0.02,0.01,0.03,0.02
		c0.01,0.01,0.02,0.03,0.03,0.03c0.01,0,0.02,0.02,0.03,0.05c0.01,0.03,0.05,0.07,0.07,0.1c0.06,0.06,0.08,0.11,0.06,0.25
		c-0.02,0.18-0.02,0.18-0.04,0.19c-0.03,0.01-0.18,0-0.2-0.01c-0.01-0.01-0.04-0.01-0.08-0.01c-0.08,0-0.15,0-0.17-0.02
		c-0.01-0.01-0.24-0.01-0.27,0c-0.02,0.01-0.04,0.11-0.04,0.28v0.17l0.08,0.03c0.05,0.02,0.11,0.03,0.15,0.03
		c0.13,0.01,0.2,0.03,0.22,0.04c0.01,0.01,0.05,0.02,0.08,0.03c0.06,0.01,0.13,0.06,0.17,0.14c0.01,0.02,0.03,0.04,0.04,0.04
		c0.01,0,0.02,0.03,0.02,0.05c0,0.02,0.01,0.05,0.02,0.06c0.02,0.03-0.01,0.17-0.04,0.22c-0.01,0.02-0.02,0.04-0.02,0.06
		c0,0.04,0,0.05-0.08,0.11c-0.07,0.05-0.12,0.06-0.15,0.03c-0.01-0.01-0.02-0.01-0.04-0.01c-0.02,0-0.05-0.01-0.07-0.02
		c-0.02-0.01-0.05-0.02-0.06-0.02c-0.01,0-0.02-0.01-0.03-0.02c-0.01-0.01-0.01-0.01-0.02-0.01c-0.01,0-0.04-0.01-0.06-0.03
		c-0.02-0.02-0.05-0.03-0.06-0.03c-0.01,0-0.02,0-0.04-0.01c-0.02-0.01-0.06-0.03-0.07-0.03H3.25v0.04c0,0.02,0.02,0.13,0.02,0.25
		c0,0.13,0,0.27,0.01,0.31c0.01,0.04,0.01,0.14,0.01,0.21c0,0.15,0,0.16-0.02,0.2c-0.01,0.02-0.02,0.06-0.02,0.09
		c0,0.04,0,0.06-0.02,0.06c-0.01,0-0.02,0-0.02,0.01c0,0.01-0.03,0.07-0.09,0.14c-0.02,0.02-0.22,0.06-0.3,0.06
		c-0.04,0-0.07,0-0.07-0.01s-0.01-0.01-0.02-0.01c-0.05-0.01-0.25-0.2-0.25-0.24c0-0.01-0.01-0.03-0.03-0.05S2.42,17.02,2.42,17
		c0-0.02-0.01-0.04-0.02-0.05c-0.01-0.01-0.02-0.04-0.02-0.06c0-0.02-0.01-0.05-0.02-0.09c-0.01-0.04-0.02-0.08-0.02-0.1
		c0-0.02,0-0.03-0.02-0.04c-0.04-0.01-0.31-0.01-0.38,0.01c-0.02,0.01-0.16,0.05-0.3,0.1s-0.26,0.09-0.27,0.09
		c-0.01,0-0.02,0-0.03,0.01c-0.01,0.01-0.02,0.02-0.03,0.02c-0.01,0-0.05,0.01-0.08,0.02c-0.03,0.01-0.06,0.02-0.08,0.02
		c-0.03,0-0.12-0.04-0.15-0.07c-0.01-0.01-0.02-0.02-0.03-0.02c-0.01,0-0.01-0.01-0.01-0.02s-0.01-0.04-0.03-0.06
		c-0.02-0.02-0.04-0.06-0.05-0.09c-0.01-0.03-0.04-0.09-0.06-0.15l-0.05-0.11v-0.17c0-0.11-0.01-0.19-0.02-0.22
		c-0.01-0.03,0-0.06,0-0.07c0.01-0.03-0.03-0.12-0.06-0.18c-0.01-0.02-0.02-0.05-0.02-0.06s-0.01-0.05-0.03-0.09L0.6,15.55
		l0.08,0.09c0.08,0.08,0.13,0.11,0.11,0.07c-0.04-0.1-0.04-0.11,0.03-0.07c0.05,0.04,0.11,0.06,0.11,0.05
		c0-0.01,0.06,0.03,0.19,0.12c0.14,0.11,0.17,0.12,0.23,0.09c0.02-0.01,0.05-0.02,0.07-0.02s0.06-0.01,0.08-0.02
		c0.05-0.02,0.23-0.12,0.26-0.14c0.01-0.01,0.03-0.02,0.04-0.03c0.13-0.07,0.19-0.11,0.21-0.13c0.04-0.03,0.15-0.18,0.16-0.22
		c0.01-0.02,0.03-0.07,0.05-0.11s0.04-0.08,0.04-0.09s0.01-0.02,0.02-0.03c0.02-0.01,0.04-0.1,0.04-0.16c0-0.03,0-0.04-0.03-0.03
		c-0.02,0-0.11,0.01-0.38,0.02c-0.12,0-0.22,0.01-0.23,0.02c-0.01,0.01-0.02,0.01-0.03,0c-0.01-0.01-0.05-0.01-0.1-0.01
		c-0.06,0-0.1-0.01-0.12-0.02s-0.04-0.01-0.06-0.02c0-0.01-0.02-0.01-0.03-0.01c-0.05-0.01-0.14-0.09-0.16-0.14l-0.03-0.04
		l0.03-0.05c0.03-0.07,0.07-0.1,0.11-0.1c0.02,0,0.04-0.01,0.06-0.03c0.02-0.02,0.05-0.03,0.06-0.03c0.01,0,0.04-0.01,0.06-0.02
		c0.06-0.03,0.12-0.05,0.13-0.03c0.01-0.01,0.02-0.02,0.03-0.02c0.01,0,0.02,0,0.03-0.01c0.01-0.01,0.15-0.04,0.19-0.04
		s0.21-0.05,0.25-0.07l0.16-0.07c0.07-0.03,0.12-0.06,0.13-0.07c0.01-0.01,0.02-0.03,0.02-0.07c0-0.03,0.02-0.09,0.02-0.12
		c0-0.04,0-0.06-0.01-0.06c-0.01,0-0.01-0.05-0.01-0.09c0-0.08-0.01-0.16-0.02-0.17c-0.01-0.01-0.03,0.01-0.06,0.02
		C2.3,13.7,2.2,13.71,2.11,13.73c-0.09,0.02-0.18,0.03-0.21,0.04c-0.03,0.02-0.09,0.03-0.13,0.03s-0.13,0.02-0.21,0.03
		s-0.2,0.01-0.27,0.01c-0.07,0-0.15,0.01-0.21,0.02s-0.13,0.01-0.18,0.01c-0.11-0.01-0.34-0.06-0.4-0.08
		c-0.03-0.02-0.07-0.03-0.1-0.04c-0.03-0.01-0.06-0.03-0.08-0.04s-0.05-0.02-0.08-0.03c-0.03-0.01-0.05-0.02-0.06-0.03
		c-0.01-0.01-0.04-0.03-0.06-0.04c-0.06-0.04-0.09-0.06-0.09-0.09c0-0.01-0.01-0.04-0.02-0.05c-0.02-0.03-0.02-0.05,0.01-0.05
		c-0.01-0.02-0.01-0.04,0.11-0.1c0.07-0.04,0.17-0.09,0.21-0.1c0.03-0.01,0.07-0.03,0.08-0.03c0.01-0.01,0.02-0.01,0.03-0.01
		c0.01,0,0.05-0.02,0.09-0.04c0.05-0.03,0.09-0.04,0.12-0.04c0.02,0,0.06-0.01,0.08-0.02c0.02-0.01,0.06-0.03,0.08-0.03
		c0.04-0.01,0.16-0.04,0.19-0.05h0.02c0.01,0,0.03-0.01,0.06-0.02c0.03-0.01,0.06-0.02,0.07-0.02c0.01,0,0.02,0,0.03-0.01
		c0.01-0.01,0.03-0.02,0.06-0.02c0.01,0,0.06-0.03,0.08-0.04l0.03-0.01l-0.01-0.1c-0.01-0.13-0.01-0.27,0.01-0.37
		c0.01-0.06,0.01-0.11,0.01-0.13c-0.01-0.03-0.01-0.07-0.01-0.09c0-0.02-0.01-0.15-0.01-0.29c-0.01-0.21-0.02-0.26-0.04-0.31
		C1.3,11.56,1.3,11.53,1.3,11.52s-0.01-0.03-0.03-0.05c-0.02-0.02-0.03-0.03-0.03-0.05c0-0.02-0.02-0.06-0.04-0.09
		c-0.02-0.04-0.03-0.08-0.04-0.12c-0.01-0.08-0.03-0.14-0.08-0.19C1.06,11,1.05,10.99,1.05,10.98S1.02,10.92,1,10.9
		c-0.01-0.01-0.02-0.03-0.02-0.05c0-0.02,0-0.04-0.01-0.04c-0.01,0-0.01-0.01-0.01-0.02s-0.01-0.04-0.03-0.06
		C0.9,10.7,0.9,10.7,0.91,10.68c0.01-0.02,0.01-0.02-0.02-0.04c-0.02-0.02-0.03-0.03-0.03-0.05c0-0.01,0.01-0.03-0.01-0.04
		c-0.02-0.02-0.02-0.03-0.02-0.06c0-0.03-0.02-0.05-0.04-0.09c-0.02-0.03-0.03-0.07-0.03-0.09c0-0.01-0.01-0.05-0.02-0.08
		c-0.03-0.08-0.03-0.1,0.01-0.11c0.02-0.01,0.03-0.02,0.03-0.03c0-0.03,0.03-0.07,0.04-0.06c0.01,0,0.03-0.01,0.04-0.02
		C0.87,10,0.88,9.98,0.89,9.98c0.01,0.01,0.03,0,0.05-0.01C0.97,9.95,0.99,9.95,1,9.95c0.03,0,0.03,0,0.03-0.02
		c0-0.04,0.02-0.07,0.04-0.06c0.01,0,0.02,0,0.03-0.01c0-0.01,0.04-0.02,0.09-0.03C1.24,9.82,1.28,9.81,1.3,9.8
		c0.03-0.02,0.03-0.02,0.05,0c0.01,0.01,0.02,0.01,0.03,0c0.01-0.01,0.02,0,0.03,0.01C1.43,9.83,1.48,9.85,1.5,9.84
		c0.01,0,0.02,0.01,0.03,0.03C1.55,9.9,1.56,9.91,1.59,9.91c0.02,0,0.04,0,0.05,0.01c0.01,0.01,0.04,0.03,0.07,0.05
		c0.05,0.03,0.08,0.04,0.12,0.04h0.08c0.01,0,0.03,0.01,0.06,0.01c0.04,0,0.06,0.01,0.06,0.02c0,0.03,0.02,0.02,0.07-0.01
		c0.05-0.04,0.05-0.04,0.09-0.02c0.04,0.02,0.15,0.03,0.24,0.03c0.03,0,0.06,0,0.06,0.01c0.01,0.01,0.12,0.01,0.14,0
		c0.02-0.01,0.03-0.01,0.04,0c0.02,0.01,0.07,0.02,0.09,0.01c0.01,0,0.04-0.01,0.06,0c0.05,0.01,0.07,0.01,0.04-0.02
		c-0.01-0.01-0.03-0.05-0.04-0.07C2.81,9.95,2.78,9.91,2.76,9.89C2.74,9.86,2.73,9.82,2.72,9.78L2.68,9.62
		c-0.02-0.06-0.03-0.1-0.03-0.2c0-0.14-0.01-0.18-0.07-0.22C2.56,9.18,2.53,9.16,2.52,9.16c-0.01,0-0.04-0.02-0.05-0.03
		C2.46,9.12,2.44,9.1,2.42,9.1c-0.02,0-0.04-0.01-0.05-0.02C2.36,9.07,2.33,9.06,2.29,9.06c-0.04,0-0.05,0-0.05-0.01
		S2.23,9.03,2.22,9.03C2.18,9.01,2.17,8.99,2.19,8.96C2.2,8.94,2.2,8.94,2.21,8.93c0-0.01,0.07-0.01,0.16-0.01s0.18-0.01,0.19-0.01
		C2.6,8.9,2.71,8.83,2.72,8.81c0-0.01,0.01-0.03,0.02-0.03c0.02,0,0.04-0.01,0.04-0.03C2.79,8.73,2.8,8.73,2.81,8.73
		c0.03,0,0.05,0,0.09-0.04C2.95,8.64,2.99,8.63,3,8.65z M3.25,11.6c-0.05,0-0.07,0.01-0.1,0.03c-0.02,0.01-0.04,0.02-0.05,0.02
		c-0.02,0-0.23,0.08-0.26,0.1c-0.01,0.01-0.04,0.02-0.05,0.02c-0.01,0-0.04,0.02-0.06,0.03c-0.03,0.01-0.12,0.05-0.14,0.05
		c-0.09,0.03-0.22,0.1-0.24,0.13c-0.02,0.03-0.03,0.31-0.02,0.33c0.01,0.01,0.01,0.02,0,0.06c-0.01,0.04-0.01,0.06,0,0.12
		c0.01,0.05,0.02,0.06,0.04,0.07h0.04c0.01-0.01,0.02-0.01,0.03,0c0.01,0.01,0.03,0,0.07-0.01s0.11-0.02,0.15-0.03
		c0.11-0.02,0.33-0.02,0.36-0.01h0.05c0.02-0.01,0.04-0.01,0.05,0c0.01,0.01,0.2,0,0.23-0.01c0.02-0.01,0.02-0.02,0.02-0.05v-0.06
		c0.01-0.01,0-0.02-0.01-0.04c-0.02-0.02-0.03-0.04-0.02-0.08c0-0.03,0.02-0.08,0.02-0.1c0-0.03,0.01-0.05,0.02-0.06
		C3.4,12.1,3.4,12.08,3.4,11.96c0-0.13-0.01-0.2-0.05-0.24c-0.01-0.01-0.03-0.04-0.04-0.07C3.29,11.6,3.28,11.6,3.25,11.6z
		 M6.56,8.7C6.57,8.71,6.6,8.73,6.62,8.74s0.04,0.02,0.04,0.03c0,0.02,0.04,0.07,0.06,0.07s0.03,0.01,0.05,0.05
		C6.79,8.92,6.8,8.96,6.8,8.97s0.01,0.04,0.02,0.06c0.01,0.02,0.03,0.04,0.03,0.05c0,0.01,0.03,0.02,0.04,0.02
		c0.04,0,0.05,0.04,0.03,0.08C6.9,9.21,6.91,9.26,6.94,9.27C6.93,9.28,6.95,9.29,6.97,9.31C7.02,9.35,7.04,9.4,7.02,9.44
		c-0.01,0.03-0.01,0.04,0,0.05C7.03,9.5,7.03,9.52,7.03,9.57c0,0.04,0,0.06,0.01,0.06c0.01,0,0.01,0.03,0.01,0.08
		c0,0.04,0.01,0.08,0.02,0.09c0.02,0.03,0.03,0.06,0,0.08C7.05,9.9,7.05,9.9,7.06,9.92c0.01,0.01,0.01,0.04,0.01,0.05
		c0,0.01,0,0.02,0.01,0.02c0.01,0,0.01,0.02,0,0.05c-0.01,0.05-0.01,0.2,0.01,0.25c0.01,0.01,0,0.05,0,0.06
		c0,0.01-0.01,0.03-0.02,0.06c-0.01,0.04-0.01,0.04,0.02,0.07c0.03,0.03,0.04,0.06,0.02,0.06c-0.01,0,0,0.01,0,0.04
		c0,0.02,0.01,0.07,0.01,0.1c0,0.03,0,0.06-0.01,0.07c-0.01,0.02,0,0.09,0.01,0.1c0.01,0.01,0,0.02,0,0.04c0,0.02,0,0.03,0.01,0.04
		c0.01,0.01,0.01,0.03,0,0.06c-0.01,0.04-0.01,0.29,0,0.3c0.01,0.01,0,0.11-0.01,0.11c-0.01,0-0.01,0.02-0.01,0.05
		c0,0.03,0,0.05-0.01,0.06c0.02,0.01,0.02,0.03-0.02,0.11c-0.02,0.04-0.04,0.08-0.04,0.09c0,0.01-0.01,0.04-0.02,0.06
		C7.01,11.8,7,11.81,6.98,11.81s-0.02,0.01-0.02,0.02c0,0.02-0.06,0.07-0.09,0.07c-0.03,0-0.07,0.04-0.08,0.07
		c0,0.02-0.01,0.03-0.02,0.03c-0.01,0-0.04,0.03-0.08,0.08c-0.04,0.04-0.09,0.07-0.1,0.07c-0.01,0-0.03,0.01-0.05,0.03
		c-0.02,0.02-0.05,0.04-0.07,0.05c-0.05,0.02-0.06,0.04-0.08,0.1l-0.02,0.04l0.04,0.04c0.04,0.03,0.04,0.04,0.02,0.05
		c-0.02,0.02-0.02,0.02,0.02,0.04c0.02,0.01,0.05,0.02,0.05,0.03c0.01,0.01,0.24,0,0.26-0.01l0.19-0.02
		c0.23-0.02,0.53-0.06,0.68-0.09c-0.02,0.01-0.02,0.02,0.04,0.02c0.03,0,0.07,0,0.08,0.01c0.02,0.01,0.04,0.01,0.11-0.01
		c0.05-0.02,0.09-0.03,0.1-0.03c0.01,0,0.03,0.01,0.04,0.01l0.02,0.01c0-0.03,0.01-0.04,0.02-0.05c0.01-0.02,0.03-0.01,0.06-0.01
		c0.03,0,0.05,0,0.06-0.01c0.02-0.01,0.01-0.02-0.03-0.03c-0.05-0.01-0.05-0.02-0.01-0.02c0.02,0,0.06,0,0.08-0.01
		c0.04-0.02,0.05-0.02,0.07-0.01c0.01,0.01,0.02,0.01,0.03,0c0.02,0.02,0.04,0.03,0.05,0.03c0.01,0,0.02,0,0.03,0.01
		c0.01,0.01,0.02,0.01,0.03,0.01c0.01,0,0.03,0,0.04,0.01c0.01,0.01,0.04,0.03,0.07,0.04c0.03,0.01,0.06,0.03,0.07,0.04
		c0.01,0.01,0.03,0.02,0.04,0.02c0.05,0,0.19,0.05,0.24,0.09c0.03,0.02,0.06,0.04,0.07,0.04c0.01,0,0.03,0.01,0.05,0.04
		c0.02,0.02,0.05,0.04,0.06,0.05c0.04,0.02,0.1,0.1,0.09,0.13c0,0.01,0,0.03,0.03,0.06c0.04,0.04,0.04,0.04,0.04,0.13
		c0,0.06,0,0.09-0.01,0.1c-0.01,0.01-0.01,0.03-0.01,0.06s-0.01,0.06-0.03,0.08c-0.01,0.02-0.03,0.03-0.03,0.05
		c-0.01,0.03-0.08,0.1-0.11,0.1c-0.01,0-0.02,0-0.03,0.01c-0.02,0.03-0.11,0.08-0.13,0.08c-0.01,0-0.03,0-0.05,0.01
		c-0.03,0.01-0.06,0-0.11,0c-0.1-0.01-0.26-0.01-0.28,0h-0.1c-0.04,0-0.07,0.01-0.08,0.02c-0.01,0.01-0.03,0-0.06,0
		c-0.03,0-0.07,0-0.08,0.01c-0.02,0.01-0.02,0.02-0.02,0.05c0,0.02,0.01,0.06,0.02,0.07c0.02,0.03,0.05,0.13,0.05,0.19
		c0,0.02,0,0.04,0.01,0.05c0.01,0.01,0.01,0.04,0.01,0.08v0.14c0.01,0.06,0.01,0.1-0.01,0.18c-0.06,0.28-0.07,0.34-0.08,0.42
		c-0.01,0.08-0.02,0.17-0.02,0.23c0,0.02,0,0.04-0.01,0.05c-0.01,0.01-0.02,0.19-0.02,0.44c0,0.36,0,0.43,0.01,0.45
		c0.01,0.01,0.01,0.03,0.01,0.04c0,0.01,0.01,0.02,0.02,0.03c0.01,0.01,0.02,0.03,0.02,0.09c0,0.05,0.02,0.09,0.03,0.11
		c0.02,0.02,0.02,0.05,0.02,0.12c0,0.05,0.02,0.14,0.03,0.18c0.02,0.1,0.01,0.3-0.01,0.36c-0.01,0.02-0.01,0.07-0.01,0.09
		c0,0.02,0,0.04-0.01,0.04c-0.01,0,0,0.01,0,0.02c0,0.01,0,0.04-0.01,0.06c-0.01,0.03-0.02,0.03-0.01,0.04
		c0.02,0.01,0.03,0.05,0.04,0.15c0,0.03,0.01,0.05,0.01,0.07c0.02,0.03-0.04,0.23-0.08,0.26c-0.01,0.01-0.02,0.02-0.02,0.03
		c0,0.02-0.08,0.07-0.14,0.08c-0.03,0-0.05,0.01-0.06,0.01c-0.01,0.01-0.09,0-0.16-0.01c-0.02,0-0.14-0.06-0.15-0.07
		c-0.01-0.01-0.03-0.01-0.05-0.02s-0.03-0.03-0.03-0.04s0-0.02-0.02-0.02c-0.01,0-0.02,0.01-0.02,0c0-0.01,0-0.02-0.01-0.02
		c-0.01,0-0.02-0.01-0.02-0.02c0-0.01-0.04-0.05-0.08-0.1c-0.06-0.07-0.07-0.11-0.07-0.13c0-0.02,0-0.04-0.04-0.07
		c-0.02-0.02-0.05-0.04-0.06-0.04c-0.01,0-0.04-0.07-0.04-0.11c0-0.02,0-0.03-0.01-0.04c-0.01-0.01-0.02-0.03-0.02-0.04
		c0-0.02-0.01-0.04-0.03-0.06c-0.02-0.03-0.03-0.05-0.03-0.06c0-0.02,0.01-0.04,0-0.05C7.01,16.71,7,16.64,7.02,16.62
		c0.01-0.01,0-0.02-0.02-0.03c-0.03-0.02-0.06-0.08-0.04-0.1c0.01-0.01,0.01-0.04-0.02-0.1c-0.02-0.05-0.04-0.1-0.04-0.11
		c0-0.01-0.01-0.06-0.02-0.1c-0.03-0.12-0.02-0.22,0.02-0.21c0.02,0.01,0.02,0.02,0.03-0.13c0.01-0.14,0.03-0.18,0.05-0.12
		C7,15.76,7.01,15.75,7.01,15.7c0-0.03,0.01-0.04,0.02-0.04c0.01,0,0.03-0.06,0.02-0.09c0-0.01,0-0.03,0.01-0.04
		s0.03-0.07,0.04-0.11c0.01-0.04,0.02-0.06,0.03-0.07c0.01-0.01,0-0.03,0-0.04c0-0.02,0-0.03,0.01-0.04
		c0.01-0.01,0.02-0.03,0.02-0.04s0-0.04,0.01-0.06c0.01-0.03,0.01-0.05,0-0.06c-0.01-0.01-0.01-0.01,0-0.02
		c0.01-0.01,0.02-0.03,0.01-0.06v-0.05c0.01-0.01,0.05-0.42,0.05-0.53c0-0.04,0-0.09,0.01-0.11c0.01-0.02,0.02-0.06,0.02-0.11
		c0.01-0.13,0.04-0.3,0.05-0.35c0.01-0.03,0.02-0.05,0.01-0.06c-0.01-0.01-0.03,0.01-0.05,0.02c-0.02,0.01-0.11,0.03-0.2,0.05
		c-0.08,0.02-0.17,0.05-0.19,0.06c-0.01,0-0.07,0.02-0.11,0.03C6.73,13.99,6.69,13.99,6.66,14H6.59c-0.02,0-0.03,0.01-0.04,0.02
		c-0.01,0.02-0.03,0.19-0.04,0.26c0,0.01-0.01,0.04-0.02,0.06c-0.01,0.02-0.01,0.07-0.01,0.1c0,0.03-0.01,0.07-0.02,0.1
		c-0.01,0.03-0.02,0.08-0.03,0.12c-0.01,0.03-0.02,0.06-0.03,0.07c-0.01,0.01-0.01,0.05-0.02,0.08c-0.01,0.03-0.01,0.05-0.02,0.06
		c-0.01,0.01-0.01,0.02-0.01,0.03s-0.01,0.04-0.03,0.08c-0.05,0.1-0.11,0.23-0.11,0.25c0,0.01-0.01,0.03-0.02,0.06
		c-0.01,0.02-0.04,0.07-0.05,0.1c-0.01,0.03-0.02,0.06-0.03,0.06c-0.01,0.02-0.07,0.16-0.1,0.21C6,15.68,5.97,15.72,5.96,15.75
		c-0.01,0.03-0.03,0.06-0.04,0.08c-0.02,0.02-0.03,0.03-0.03,0.04s-0.14,0.15-0.15,0.15c-0.01,0-0.05-0.02-0.09-0.03
		c-0.07-0.02-0.08-0.02-0.13-0.01c-0.03,0.01-0.11,0.01-0.18,0.01c-0.1,0-0.11,0-0.18-0.04c-0.04-0.02-0.06-0.05-0.07-0.06
		c-0.01-0.01-0.05-0.06-0.1-0.11c-0.07-0.07-0.1-0.11-0.15-0.2c-0.03-0.06-0.06-0.14-0.06-0.15c0-0.01,0-0.03-0.01-0.04
		c-0.01-0.02-0.03-0.07-0.04-0.11c-0.01-0.04-0.02-0.08-0.03-0.09c-0.01-0.01-0.01-0.03-0.01-0.04s-0.01-0.06-0.02-0.12
		c-0.02-0.1-0.02-0.12-0.01-0.13c0.01-0.01,0.02-0.03,0.02-0.04s0-0.01,0.01-0.02c0.03-0.02,0.03-0.21,0.01-0.27
		c-0.01-0.02-0.02-0.05-0.02-0.06s-0.01-0.04-0.02-0.07c-0.01-0.03-0.04-0.07-0.05-0.08c-0.01-0.01-0.02-0.03-0.02-0.04
		c0-0.01-0.01-0.03-0.02-0.05c-0.01-0.02-0.02-0.06-0.02-0.09c0-0.03,0-0.07-0.02-0.1c-0.01-0.03-0.03-0.05-0.03-0.06
		c0-0.01-0.01-0.03-0.02-0.05c-0.03-0.05-0.03-0.06,0.01-0.04c0.03,0.02,0.07,0.02,0.07,0c0-0.01,0-0.02-0.01-0.02
		c0.01-0.02,0.05-0.01,0.1,0.03c0.02,0.02,0.06,0.03,0.08,0.04c0.02,0,0.05,0.02,0.06,0.03c0.01,0.01,0.08,0.04,0.14,0.06
		c0.11,0.04,0.11,0.04,0.19,0.03c0.06,0,0.09-0.01,0.1,0c0.01,0.01,0.03,0.02,0.06,0.01c0.02,0,0.04-0.03,0.05-0.05
		c0.01-0.02,0.02-0.04,0.04-0.06s0.03-0.04,0.03-0.05s0.01-0.03,0.02-0.04c0.02-0.02,0.02-0.02,0.02-0.05c0-0.02-0.01-0.05,0-0.07
		c0.01-0.03,0.02-0.08,0.02-0.12s0.01-0.07,0.01-0.08c0.01-0.02-0.01-0.17-0.03-0.21c-0.01-0.02,0-0.05,0-0.08
		c0-0.03,0-0.05-0.01-0.07c-0.01-0.01-0.01-0.03-0.01-0.05c0-0.03,0-0.05-0.04-0.12c-0.03-0.05-0.06-0.11-0.07-0.15
		c-0.01-0.03-0.04-0.08-0.06-0.1c-0.04-0.04-0.1-0.16-0.13-0.28c-0.02-0.05-0.03-0.09-0.04-0.09c-0.01,0-0.01-0.01-0.01-0.02
		s0-0.02-0.01-0.02c-0.01,0-0.01-0.02-0.01-0.03s-0.03-0.03-0.07-0.05c-0.04-0.02-0.05-0.03-0.06-0.05c0-0.02,0-0.03-0.01-0.03
		c-0.01,0-0.01-0.02-0.01-0.03s-0.01-0.06-0.03-0.11c-0.02-0.06-0.03-0.11-0.03-0.12c0-0.01,0-0.03-0.01-0.03
		c-0.01-0.02-0.02-0.04-0.03-0.07c-0.01-0.03-0.03-0.09-0.03-0.11c0-0.03-0.01-0.08-0.02-0.11c-0.01-0.03-0.02-0.08-0.02-0.09
		s-0.01-0.03-0.03-0.05c-0.03-0.03-0.03-0.05-0.03-0.12s0-0.08,0.02-0.09c0.01-0.01,0.03-0.03,0.03-0.05c0-0.02,0.02-0.05,0.04-0.08
		l0.06-0.06c0.01-0.02,0.02-0.02,0.03-0.02c0.01,0,0.03-0.01,0.05-0.03c0.02-0.02,0.04-0.03,0.05-0.03c0.01,0,0.03-0.01,0.05-0.02
		l0.07-0.04c0.02-0.01,0.04-0.03,0.04-0.04c0-0.02,0.01-0.02,0.04-0.02c0.02,0,0.04-0.01,0.06-0.02c0.02-0.01,0.04-0.01,0.05-0.01
		c0.01,0,0.02-0.01,0.03-0.03c0.01-0.02,0.02-0.03,0.03-0.03c0.01,0,0.02-0.02,0.03-0.04c0.02-0.03,0.03-0.03,0.05-0.02
		c0.03,0.01,0.09-0.01,0.11-0.04c0.01-0.02,0.02-0.03,0.03-0.02c0.01,0.01,0.05,0,0.11-0.02c0.07-0.02,0.09-0.03,0.1-0.05
		c0.01-0.03,0.03-0.05,0.08-0.06c0.04-0.01,0.04-0.01,0.05-0.04l0.04-0.07c0.02-0.02,0.04-0.03,0.03-0.04c0-0.01,0-0.01,0.01-0.02
		C5.97,10.4,5.99,10.38,6,10.36c0.01-0.02,0.02-0.05,0.03-0.05c0.01,0,0.02-0.06,0.02-0.11c0-0.04,0-0.06,0.02-0.06
		c0.01,0,0.02-0.01,0.02-0.02s0-0.03,0.01-0.04s0.01-0.02,0-0.06c-0.02-0.07-0.02-0.09,0-0.11c0.02-0.02,0.02-0.03,0.01-0.05
		C6.09,9.83,6.1,9.77,6.12,9.74c0.01-0.02,0.01-0.03,0-0.03C6.1,9.7,6.09,9.68,6.1,9.67c0-0.01,0.02-0.04,0.02-0.06
		c0-0.02,0.01-0.04,0.01-0.05c0.01-0.01,0.01-0.02,0-0.05c-0.01-0.04-0.01-0.07,0-0.09c0.01-0.02,0-0.06,0-0.08
		c0-0.03,0-0.05,0.01-0.05c0.02-0.01,0.03-0.02,0.01-0.04C6.14,9.24,6.14,9.23,6.16,9.19C6.18,9.16,6.18,9.12,6.18,9.1
		c0-0.05,0.02-0.14,0.03-0.15c0.01-0.01,0.01-0.04,0.01-0.06c0-0.03,0-0.04,0.02-0.04c0.01,0,0.03-0.02,0.04-0.04
		c0.01-0.02,0.03-0.04,0.04-0.04c0.01,0,0.03-0.01,0.04-0.02c0.02-0.01,0.06-0.03,0.09-0.04C6.48,8.7,6.51,8.7,6.52,8.69
		C6.53,8.68,6.54,8.68,6.56,8.7z"/>
	<path fill="#9E5C4C" d="M14.02,8.37c0.01,0.01,0.05,0.02,0.09,0.02c0.07,0,0.08,0,0.11,0.04c0.02,0.02,0.04,0.05,0.05,0.06
		c0.01,0.01,0.02,0.02,0.03,0.02c0.03,0,0.07,0.05,0.07,0.08c0,0.01,0.02,0.02,0.04,0.04c0.02,0.02,0.05,0.07,0.05,0.09
		c0.01,0.03,0.02,0.04,0.04,0.05c0.01,0.01,0.02,0.01,0.02,0.02s0.01,0,0.02,0c0.01,0,0.02,0,0.02,0.01c0,0.02,0.01,0.09,0.02,0.1
		c0.02,0.01,0.09,0.12,0.09,0.14c0,0.01,0.01,0.02,0.02,0.02c0.01,0,0.01,0.01,0.02,0.02c0.01,0.01,0.02,0.02,0.03,0.02
		c0.01,0,0.04,0.04,0.06,0.07s0.05,0.08,0.06,0.1c0.01,0.02,0.02,0.04,0.02,0.06c0,0.02,0.01,0.07,0.03,0.12
		c0.05,0.13,0.06,0.24,0.05,0.3c-0.01,0.04-0.04,0.11-0.08,0.15c-0.03,0.03-0.01,0.07,0.03,0.07c0.05,0,0.12,0.01,0.15,0.02
		C15.08,10,15.12,10,15.16,10s0.14,0.01,0.24,0.02s0.24,0.02,0.32,0.03c0.08,0,0.17,0.01,0.21,0.02c0.04,0,0.14,0,0.22,0.01
		l0.14,0.01l-0.01-0.02c-0.02-0.03-0.02-0.07,0-0.09c0.01-0.01,0.02-0.02,0.02-0.03s0.01-0.02,0.02-0.03
		c0.02-0.02,0.02-0.02,0.02-0.06c0-0.01,0.02-0.04,0.05-0.05c0.04-0.02,0.06-0.02,0.13-0.02c0.05,0,0.11,0.02,0.14,0.03
		c0.03,0.01,0.07,0.01,0.09,0.01c0.03,0,0.03,0,0.05,0.02c0.02,0.02,0.03,0.01,0.06,0.01c0.02,0,0.03,0,0.04,0.02
		c0.01,0.01,0.01,0.01,0.01,0.03c0.02-0.02,0.12,0.01,0.15,0.03c0.02,0.01,0.03,0.02,0.04,0.02c0.01,0,0.02,0.01,0.03,0.02
		C17.14,9.99,17.15,10,17.16,10c0.01,0,0.02,0,0.02,0.01c0.01,0.01,0.03,0.02,0.06,0.02c0.05,0,0.05,0,0.06,0.03
		c0.01,0.02,0.02,0.04,0.04,0.05s0.03,0.02,0.03,0.03c0,0.01,0.02,0.02,0.04,0.02c0.03,0,0.03,0,0.03,0.01s0.01,0.03,0.03,0.03
		s0.04,0.01,0.05,0.03c0.01,0.02,0.03,0.04,0.05,0.05c0.02,0.01,0.03,0.01,0.04,0.02c0.01,0.01,0.01,0.07,0.02,0.15
		c0.01,0.13,0.01,0.13-0.01,0.16c-0.02,0.02-0.02,0.04-0.02,0.09c0,0.03,0,0.06-0.01,0.06c0.01,0.03,0,0.16-0.01,0.18
		c-0.01,0.01-0.01,0.02,0,0.03c0.01,0.01-0.02,0.1-0.04,0.1c-0.01,0.03-0.12,0.12-0.16,0.14c-0.02,0.01-0.03,0.01-0.03,0
		c0-0.01-0.01-0.01-0.04,0c-0.03,0.01-0.05,0-0.07-0.01c0,0.01-0.02,0.01-0.02,0c0-0.01-0.03-0.01-0.05-0.01s-0.05-0.01-0.06-0.02
		c-0.01-0.01-0.03-0.02-0.04-0.02c-0.01,0-0.03,0-0.04-0.01c-0.01-0.01-0.07-0.02-0.12-0.03c-0.05-0.01-0.1-0.02-0.11-0.02
		c-0.01-0.01-0.03-0.01-0.05-0.01c-0.01,0-0.04-0.01-0.06-0.02s-0.06-0.02-0.09-0.02c-0.09-0.01-0.19-0.03-0.25-0.05
		c-0.03-0.01-0.08-0.01-0.11-0.01c-0.03,0-0.06,0-0.09-0.01c-0.06-0.01-0.32-0.02-0.62-0.02h-0.9c-0.05,0-0.11-0.01-0.14-0.01h-0.33
		c-0.09,0-0.15,0-0.22-0.01c-0.04-0.01-0.09-0.01-0.1,0c-0.02,0-0.03,0-0.05-0.01s-0.04-0.01-0.05-0.01c-0.01,0-0.01,0.01-0.02,0
		c-0.01-0.01-0.09-0.01-0.3-0.01c-0.13,0-0.17,0-0.25,0.02c-0.23,0.06-0.36,0.09-0.37,0.1c-0.01,0.01-0.07,0.04-0.14,0.06
		c-0.09,0.03-0.14,0.06-0.17,0.08c-0.02,0.02-0.06,0.04-0.09,0.06c-0.02,0.02-0.07,0.05-0.09,0.07c-0.02,0.02-0.04,0.04-0.05,0.04
		c-0.01-0.01-0.02,0-0.03,0.01c-0.01,0.01-0.04,0.04-0.07,0.06c-0.05,0.03-0.06,0.05-0.04,0.07c0.01,0.01-0.01,0.04-0.08,0.08
		c-0.03,0.02-0.06,0.04-0.06,0.05c-0.01,0.02-0.08,0.12-0.11,0.15c-0.02,0.02-0.02,0.03-0.02,0.05c0.01,0.03-0.02,0.1-0.04,0.1
		c-0.01,0-0.02,0.01-0.03,0.03c-0.01,0.02-0.01,0.03-0.02,0.03c-0.01,0-0.01,0.01-0.01,0.03c0.01,0.04-0.02,0.09-0.04,0.09
		c0,0.03-0.06,0.16-0.1,0.19c-0.02,0.01-0.04,0.03-0.04,0.04c0,0.01-0.01,0.02-0.02,0.02c-0.01,0-0.02,0.02-0.02,0.04
		c0,0.01-0.01,0.03-0.03,0.05c-0.02,0.01-0.03,0.04-0.05,0.06c-0.02,0.02-0.15,0.13-0.2,0.17c-0.03,0.02-0.05,0.04-0.07,0.04
		s-0.03,0-0.03,0.01c-0.01,0.02-0.06,0.03-0.16,0.02c-0.08-0.01-0.11-0.02-0.13-0.03c-0.02-0.02-0.04-0.02-0.05-0.01
		s-0.03,0-0.04-0.01c-0.01-0.01-0.03-0.01-0.08,0c-0.05,0.01-0.07,0-0.07-0.01c0-0.03-0.07-0.08-0.11-0.08c-0.02,0-0.04,0-0.06-0.01
		l-0.06-0.03c-0.01-0.01-0.03-0.02-0.03-0.03s-0.01-0.01-0.02-0.01c-0.01,0-0.02-0.02-0.03-0.04c-0.01-0.03-0.01-0.03-0.04-0.02
		c-0.03,0.01-0.09-0.03-0.08-0.05c0-0.01,0-0.02-0.03-0.02c-0.04-0.01-0.06-0.02-0.06-0.05c-0.02-0.07-0.04-0.11-0.07-0.12
		c-0.02-0.01-0.04-0.02-0.05-0.04c-0.01-0.02-0.02-0.04-0.03-0.04c-0.01,0-0.02-0.01-0.04-0.03c-0.02-0.02-0.05-0.03-0.06-0.03
		c-0.03,0-0.05-0.04-0.04-0.07c0-0.01-0.01-0.03-0.04-0.04c-0.03-0.01-0.05-0.03-0.07-0.06c-0.02-0.05-0.07-0.09-0.1-0.1
		c-0.01,0-0.02-0.03-0.02-0.04c0-0.02-0.02-0.02-0.03-0.02c-0.02,0-0.08-0.07-0.08-0.08v-0.06c0-0.03-0.02-0.06-0.03-0.06
		c-0.01,0-0.02-0.02-0.02-0.03c0-0.01,0-0.03-0.01-0.03c-0.01,0-0.01-0.01-0.01-0.02s-0.01-0.02-0.02-0.03
		c-0.01-0.01-0.01-0.04-0.02-0.11c0-0.05-0.01-0.1-0.02-0.12c-0.01-0.03-0.01-0.05,0-0.08c0.01-0.04,0.02-0.08,0.02-0.16
		c0-0.02,0.01-0.04,0.02-0.04s0.01-0.02,0.02-0.03c0.01-0.02,0.02-0.02,0.01-0.04C9.4,10.82,9.4,10.82,9.42,10.8
		c0.01-0.01,0.02-0.03,0.02-0.04s0.01-0.02,0.02-0.02c0.01,0,0.03-0.02,0.03-0.05c0.01-0.03,0.01-0.04,0.02-0.04
		c0.01,0,0.04-0.03,0.07-0.05c0.04-0.04,0.06-0.04,0.09-0.04c0.03,0,0.04-0.01,0.03-0.02c-0.01-0.03,0.01-0.05,0.04-0.05
		c0.02,0,0.05-0.01,0.06-0.02c0.02-0.02,0.02-0.02,0.04-0.01c0.02,0.01,0.03,0,0.07-0.04s0.04-0.04,0.04-0.02
		c0,0.02,0.01,0.01,0.05,0.01s0.06,0,0.08,0.02c0.02,0.01,0.03,0.02,0.03,0.01c0.02,0.01,0.03,0,0.05-0.01c0.01,0,0.02,0,0.05,0.04
		c0.03,0.05,0.05,0.05,0.06,0.01c0.01-0.02,0.02-0.03,0.05-0.04c0.06-0.02,0.09-0.02,0.14,0.01c0.04,0.02,0.08,0.04,0.09,0.02
		c0-0.01,0.04-0.02,0.07-0.02c0.03,0,0.05,0,0.06-0.01c0-0.01,0.02-0.01,0.03-0.01c0.02,0,0.05,0,0.07-0.01s0.09-0.02,0.14-0.03
		c0.06-0.01,0.1-0.01,0.11-0.02c0.01-0.01,0.05-0.01,0.09-0.01c0.07,0,0.08-0.01,0.1-0.03s0.02-0.02,0.03-0.01
		c0.01,0.01,0.03,0.01,0.04,0c0.01-0.01,0.03-0.02,0.04-0.02c0.01,0,0.04-0.01,0.06-0.02s0.05-0.02,0.06-0.02s0.02,0,0.02-0.01
		s0.02-0.02,0.04-0.02s0.08-0.01,0.13-0.03c0.12-0.04,0.31-0.1,0.32-0.09c0.01,0.01,0.04,0,0.07-0.01c0.03-0.01,0.06-0.02,0.07-0.02
		c0.01,0,0.03,0,0.05-0.01s0.04-0.02,0.06-0.02c0.09-0.01,0.13-0.02,0.14-0.02c0.01-0.01,0.02-0.02,0.03-0.01
		c0.01,0.01,0.01,0,0.02-0.01c0.03-0.03,0.09-0.05,0.1-0.04c0.02,0.02,0.11,0.01,0.15-0.01c0.02-0.01,0.04-0.02,0.05-0.02
		c0.01,0,0.03-0.01,0.05-0.03c0.03-0.03,0.04-0.04,0.05-0.03c0.01,0,0.03,0.01,0.04,0.01c0.01,0,0.03,0,0.04,0.01
		c0.02,0.01,0.03,0.01,0.04,0c0.01-0.01,0.02-0.01,0.04-0.01s0.05-0.01,0.08-0.02c0.05-0.02,0.06-0.02,0.11-0.01
		c0.06,0.01,0.21,0.01,0.38-0.01c0.06-0.01,0.13-0.01,0.18-0.01c0.08,0,0.18-0.01,0.19-0.03c0-0.01-0.01-0.04-0.02-0.08
		c-0.03-0.08-0.07-0.12-0.13-0.15c-0.02-0.01-0.03-0.01-0.03-0.02s-0.03-0.05-0.06-0.08c-0.04-0.04-0.07-0.07-0.12-0.09l-0.07-0.03
		l-0.14,0.01c-0.08,0.01-0.15,0.01-0.16,0.01c-0.01,0-0.06,0.02-0.11,0.02c-0.08,0-0.11,0.01-0.18,0.04
		c-0.11,0.04-0.13,0.05-0.14,0.06c-0.01,0.01-0.02,0.01-0.04,0l-0.02-0.02l0.03-0.04c0.02-0.02,0.06-0.05,0.09-0.06
		c0.03-0.02,0.11-0.06,0.18-0.1l0.16-0.09l0.07-0.04c0.02-0.01,0.08-0.05,0.13-0.07c0.05-0.03,0.1-0.06,0.12-0.08
		c0.02-0.02,0.05-0.02,0.06-0.02s0.04-0.02,0.09-0.07c0.06-0.06,0.07-0.07,0.06-0.08c-0.01-0.02-0.01-0.1,0.01-0.13
		c0.01-0.01,0.02-0.04,0.03-0.07c0.03-0.06,0.05-0.08,0.08-0.09c0.01,0,0.03-0.04,0.05-0.06c0.01-0.02,0.07-0.06,0.1-0.08
		C14.01,8.35,14,8.36,14.02,8.37z M11.86,14.92c0.04,0,0.12,0.05,0.14,0.08c0.01,0.01,0.01,0.03,0.02,0.04
		c0.01,0.01,0.03,0.03,0.04,0.05c0.02,0.02,0.06,0.07,0.1,0.12c0.05,0.06,0.06,0.09,0.06,0.1c0,0.01,0,0.03,0.01,0.04
		c0.01,0.01,0.02,0.03,0.02,0.04c0,0.01,0.01,0.04,0.03,0.06c0.04,0.05,0.06,0.14,0.07,0.31c0.01,0.07,0,0.09-0.01,0.11
		c-0.01,0.01-0.02,0.04-0.02,0.08s-0.02,0.08-0.03,0.1c-0.01,0.02-0.03,0.07-0.04,0.11c-0.01,0.04-0.03,0.09-0.04,0.1
		c-0.01,0.01-0.02,0.02-0.02,0.03c0,0.01-0.01,0.03-0.02,0.05c-0.01,0.02-0.03,0.04-0.03,0.05s-0.01,0.04-0.03,0.06
		c-0.02,0.02-0.04,0.04-0.04,0.05c0,0.02-0.08,0.07-0.11,0.07c-0.01,0-0.03,0-0.04,0.01c-0.01,0.01-0.03,0.02-0.04,0.02
		c-0.01,0-0.03,0.01-0.04,0.02c-0.01,0.02-0.02,0.02-0.04,0.01c-0.02-0.01-0.12-0.02-0.14-0.01h-0.02c-0.01,0-0.02,0.01-0.03,0.02
		c-0.01,0.02-0.01,0.02-0.03,0c-0.01-0.01-0.02-0.01-0.04,0.01c-0.01,0.01-0.03,0.01-0.05,0s-0.1-0.01-0.13,0
		c-0.01,0-0.03,0-0.04-0.01c-0.01-0.01-0.02-0.02-0.03-0.01c-0.01,0-0.03,0.01-0.06,0.01h-0.12c-0.06,0-0.17,0-0.18,0.01
		c-0.01,0-0.02,0-0.04-0.01c-0.01-0.01-0.04-0.02-0.05-0.02c-0.01,0-0.02-0.01-0.04-0.04c-0.01-0.02-0.02-0.04-0.03-0.04
		c-0.02,0-0.13-0.09-0.13-0.11c0-0.01-0.02-0.03-0.04-0.05c-0.02-0.02-0.06-0.04-0.07-0.06c-0.01-0.02-0.03-0.04-0.04-0.05
		s-0.04-0.03-0.06-0.06c-0.02-0.03-0.04-0.06-0.05-0.07c-0.02-0.02-0.01-0.16,0.02-0.2c0.02-0.02,0.01-0.05,0.02-0.14
		c0.01-0.08,0.02-0.11,0.03-0.12c0.01,0,0.01-0.02-0.01-0.07c-0.01-0.04-0.02-0.06-0.04-0.06c-0.01,0-0.02-0.01-0.02-0.02
		c-0.02,0-0.03,0-0.04-0.01c-0.01-0.01-0.04-0.03-0.07-0.04l-0.08-0.04c-0.02-0.01-0.06-0.04-0.08-0.05
		c-0.03-0.01-0.03-0.02-0.02-0.03c0.01-0.01,0.03-0.01,0.04-0.01c0.01,0,0.03-0.01,0.04-0.02c0.01-0.01,0.03-0.01,0.07,0
		c0.03,0.01,0.06,0,0.07,0c0.01,0,0.03,0,0.03,0.01c0.01,0.01,0.01,0.01,0.02,0.01c0.01,0,0.02,0,0.02,0.01s0.01,0.01,0.04,0.01
		c0.03,0,0.06,0.01,0.08,0.02c0.03,0.02,0.05,0.02,0.17,0.02c0.14,0,0.3,0.02,0.32,0.05c0.01,0.02,0.19,0.01,0.28-0.02
		c0.04-0.02,0.09-0.04,0.1-0.04c0.05-0.01,0.15-0.06,0.17-0.09c0.03-0.04,0.05-0.08,0.06-0.14c0-0.03,0.01-0.04,0.02-0.04
		c0.01,0,0.03-0.03,0.05-0.06s0.05-0.06,0.06-0.06c0.01,0,0.02-0.01,0.02-0.02s0.01-0.01,0.02-0.01s0.03-0.01,0.04-0.03
		C11.83,14.93,11.84,14.92,11.86,14.92z M14.42,11.33h0.07c0.02,0,0.03,0.01,0.04,0.02c0.01,0.01,0.03,0.01,0.04,0.01
		c0.01,0,0.03,0,0.04,0.01c0.01,0.01,0.03,0.02,0.05,0.02c0.02,0,0.03,0,0.03,0.01s0.01,0.01,0.03,0.01
		c0.04,0.01,0.09,0.05,0.17,0.12c0.04,0.03,0.07,0.05,0.08,0.05s0.03,0.01,0.04,0.02c0.01,0.01,0.03,0.02,0.05,0.03
		c0.02,0.01,0.04,0.01,0.05,0.02c0.01,0.01,0.02,0.02,0.03,0.02s0.03,0.01,0.05,0.02s0.04,0.02,0.05,0.02c0.01,0,0.02,0,0.03,0.01
		c0.01,0.01,0.03,0.02,0.04,0.02c0.01,0,0.04,0.01,0.05,0.02c0.02,0.01,0.05,0.04,0.08,0.05c0.07,0.02,0.14,0.06,0.24,0.17
		c0.04,0.05,0.1,0.1,0.13,0.12c0.03,0.02,0.05,0.03,0.05,0.04c0,0.01,0.01,0.03,0.02,0.04c0.02,0.02,0.05,0.12,0.08,0.25
		c0.01,0.03,0.02,0.08,0.02,0.1c0,0.05-0.05,0.29-0.07,0.31c-0.02,0.02-0.04,0.07-0.05,0.11c0,0.02-0.02,0.04-0.03,0.05
		c-0.01,0.01-0.02,0.01-0.02,0.02c0,0.02-0.09,0.21-0.11,0.23c-0.02,0.02-0.08,0.19-0.1,0.3c-0.02,0.1-0.01,0.23,0.01,0.28
		c0.01,0.02,0.01,0.04,0.01,0.06c0,0.02,0,0.09,0.01,0.15c0.01,0.06,0.01,0.13,0.01,0.17s0.01,0.09,0.01,0.13
		c0,0.05,0,0.08-0.02,0.13c-0.03,0.07-0.1,0.17-0.13,0.17c-0.02,0-0.06,0.01-0.06,0.03c0,0.01-0.02,0.03-0.05,0.04
		c-0.03,0.01-0.06,0.02-0.06,0.03c-0.01,0.02-0.12,0.11-0.14,0.11c-0.01,0-0.01,0.01-0.02,0.02c-0.01,0.01-0.02,0.01-0.08,0.01H15
		c-0.01-0.01-0.02-0.01-0.07,0.08c-0.02,0.04-0.04,0.08-0.04,0.09c0,0.01-0.02,0.06-0.04,0.11s-0.04,0.09-0.04,0.11
		c0,0.01-0.01,0.04-0.02,0.06c-0.01,0.02-0.02,0.04-0.02,0.05c0,0.01,0,0.03-0.01,0.05c-0.01,0.02-0.03,0.08-0.04,0.15
		c-0.01,0.07-0.02,0.12-0.03,0.13l-0.02,0.17c-0.01,0.09-0.02,0.17-0.03,0.18c0,0.01-0.01,0.04-0.01,0.07s-0.01,0.06-0.02,0.07
		c-0.01,0.01-0.01,0.04-0.02,0.09c0,0.04-0.01,0.09-0.02,0.1c-0.01,0.02-0.01,0.03,0,0.04c0.01,0.01,0.01,0.02,0,0.05
		c-0.01,0.03-0.01,0.05,0,0.07c0.01,0.02,0.01,0.07,0.01,0.12c0,0.09,0.02,0.12,0.05,0.16c0.01,0.01,0.03,0.04,0.03,0.05
		c0,0.01,0.02,0.03,0.03,0.04c0.02,0.02,0.02,0.04,0.02,0.08c0,0.05,0,0.05,0.02,0.06c0.03,0.01,0.1,0.08,0.11,0.11
		c0,0.01,0.01,0.03,0.02,0.04c0.02,0.03,0.01,0.12-0.02,0.22c-0.04,0.12-0.06,0.16-0.09,0.17c-0.05,0.02-0.16,0.1-0.19,0.14
		c-0.03,0.03-0.05,0.03-0.06,0.03c-0.02,0-0.02-0.01-0.03,0c-0.01,0.01-0.04,0-0.07,0c-0.03,0-0.09-0.01-0.14-0.01
		c-0.05,0-0.1,0-0.11-0.01c-0.01,0-0.02-0.01-0.03-0.01c-0.01,0-0.03-0.01-0.06-0.04L14,17.64c-0.03-0.03-0.11-0.12-0.12-0.14
		c-0.01-0.01-0.01-0.03-0.01-0.04s-0.01-0.03-0.02-0.05c-0.01-0.02-0.02-0.04-0.02-0.05s-0.02-0.03-0.04-0.06
		c-0.02-0.03-0.05-0.06-0.05-0.08c0-0.01-0.01-0.03-0.02-0.04c-0.01-0.01-0.01-0.04-0.01-0.07c0-0.02-0.01-0.05-0.02-0.06
		c-0.01-0.01-0.02-0.05-0.02-0.08c-0.01-0.09-0.05-0.2-0.07-0.23c-0.03-0.04-0.03-0.13-0.01-0.21c0.01-0.04,0.01-0.08,0.01-0.1
		s-0.04-0.06-0.1-0.11c-0.05-0.05-0.09-0.09-0.1-0.09c-0.01,0-0.05-0.03-0.1-0.06c-0.06-0.04-0.09-0.07-0.09-0.08s0-0.02,0.02-0.02
		c0.04,0,0.21,0.03,0.3,0.06c0.15,0.04,0.16,0.04,0.18,0.03c0.03-0.03,0.07-0.1,0.08-0.14c0.01-0.02,0.02-0.07,0.03-0.1
		c0.01-0.03,0.02-0.06,0.02-0.07c0-0.01,0.01-0.03,0.02-0.04c0.01-0.01,0.01-0.06,0.02-0.16c0.01-0.08,0.02-0.18,0.03-0.24
		c0.02-0.13,0.02-0.31,0-0.35c-0.01-0.03-0.01-0.03,0-0.06c0.01-0.03,0.01-0.04,0-0.05c-0.01-0.01-0.01-0.01-0.02-0.01
		c-0.01,0-0.04-0.03-0.08-0.07c-0.03-0.04-0.07-0.07-0.08-0.07c-0.03,0-0.08-0.02-0.09-0.04c0-0.01-0.02-0.02-0.07-0.03
		c-0.06-0.01-0.08-0.02-0.11-0.05c-0.05-0.05-0.07-0.06-0.12-0.04c-0.03,0.01-0.06,0.01-0.08,0.01c-0.02-0.01-0.04,0-0.05,0
		c-0.01,0.01-0.04-0.02-0.08-0.05c-0.06-0.04-0.08-0.05-0.12-0.05c-0.03,0-0.06,0-0.08-0.02c-0.01-0.01-0.04-0.03-0.07-0.04
		c-0.06-0.02-0.15-0.09-0.17-0.13c-0.01-0.02-0.02-0.03-0.03-0.03c-0.01,0-0.01-0.02-0.01-0.03c0-0.02-0.03-0.06-0.05-0.06
		c-0.01,0-0.01-0.02-0.01-0.03s-0.02-0.04-0.04-0.07c-0.02-0.03-0.03-0.06-0.03-0.07c0-0.01,0-0.03-0.01-0.04
		c-0.03-0.04-0.1-0.18-0.12-0.26c-0.01-0.05-0.03-0.12-0.04-0.16c-0.01-0.04-0.02-0.11-0.02-0.15s-0.01-0.09-0.02-0.11
		c-0.01-0.02-0.02-0.06-0.03-0.11c-0.01-0.05-0.03-0.12-0.04-0.14c-0.05-0.1-0.05-0.12-0.04-0.17c0.01-0.07,0.01-0.11,0.02-0.2
		c0-0.05,0.01-0.09,0.01-0.1c0.01-0.01,0-0.02,0-0.04s0-0.05,0.02-0.09c0.01-0.04,0.03-0.07,0.03-0.08s0-0.02,0.01-0.02
		c0.01,0,0.02-0.01,0.02-0.03c0-0.02,0.01-0.03,0.02-0.04c0.01-0.01,0.02-0.03,0.02-0.04v-0.05c0-0.02,0-0.05,0.01-0.06
		c0.01-0.02,0.03-0.14,0.03-0.2c0-0.02,0.01-0.04,0.01-0.05c0.01-0.02,0.05-0.18,0.05-0.22c0-0.03,0.01-0.05,0.03-0.07
		c0.03-0.03,0.03-0.03,0.08-0.02c0.07,0.02,0.09,0.04,0.22,0.17c0.06,0.06,0.12,0.12,0.13,0.12c0.01,0,0.03,0,0.03,0.01
		c0.01,0.02,0.08,0.05,0.11,0.05c0.01,0,0.03-0.01,0.05-0.02s0.04-0.01,0.05-0.01c0.01,0,0.02,0.01,0.03,0
		c0.01-0.01,0.05-0.03,0.09-0.05c0.04-0.02,0.08-0.04,0.11-0.06c0.03-0.02,0.06-0.03,0.07-0.03c0.01,0,0.05-0.02,0.06-0.03
		c0.02-0.01,0.04-0.02,0.05-0.02c0.02,0,0.03-0.01,0.03-0.02s0.01-0.01,0.02-0.01c0.01,0,0.03-0.02,0.05-0.03s0.03-0.02,0.04-0.02
		c0.01-0.02,0.04-0.03,0.06-0.04c0.02-0.01,0.09-0.04,0.16-0.08c0.2-0.12,0.35-0.2,0.42-0.22C14.36,11.32,14.4,11.33,14.42,11.33z
		 M14.28,11.99c-0.02-0.02-0.03-0.02-0.05-0.01c-0.02,0-0.03,0.01-0.03,0.02s-0.06,0.06-0.08,0.06c-0.01,0-0.06,0.05-0.13,0.15
		c-0.04,0.05-0.09,0.12-0.11,0.15c-0.03,0.03-0.04,0.05-0.04,0.07c0,0.02-0.01,0.04-0.04,0.07c-0.02,0.02-0.04,0.04-0.04,0.05
		s-0.02,0.04-0.04,0.06c-0.05,0.06-0.09,0.11-0.12,0.16c-0.02,0.04-0.05,0.09-0.06,0.1c-0.02,0.02-0.03,0.04-0.03,0.12
		s0,0.12,0.03,0.23c0.02,0.07,0.03,0.14,0.04,0.15c0.01,0.01,0.02,0.03,0.02,0.06c0,0.05,0.03,0.06,0.06,0.04
		c0.01-0.01,0.02-0.01,0.04-0.01c0.02,0,0.04,0,0.05-0.01c0.01-0.01,0.03-0.01,0.04-0.01c0.01,0,0.04-0.01,0.07-0.02
		c0.05-0.02,0.07-0.02,0.09-0.01c0.01,0.01,0.03,0.01,0.08,0c0.04-0.01,0.08-0.02,0.09-0.02c0.01,0,0.03,0,0.03-0.01
		c0-0.01,0.02-0.02,0.04-0.02s0.04-0.02,0.05-0.03c0.01-0.01,0.02-0.01,0.04-0.01c0.06,0,0.32-0.09,0.36-0.12
		c0.01-0.01,0.02-0.02,0.03-0.02c0.01,0,0.05-0.03,0.09-0.07c0.06-0.06,0.06-0.06,0.06-0.09c0-0.02,0.01-0.04,0.02-0.04
		c0.02,0,0.16-0.31,0.19-0.38c0.01-0.03,0.03-0.09,0.05-0.12c0.04-0.07,0.06-0.12,0.05-0.16c-0.01-0.04-0.03-0.06-0.06-0.06
		c-0.01,0-0.04-0.01-0.07-0.02c-0.03-0.02-0.07-0.03-0.12-0.03c-0.06,0-0.07-0.01-0.08-0.02c-0.01-0.01-0.01-0.01-0.02,0
		c-0.01,0.01-0.08,0.01-0.1-0.01c-0.01-0.01-0.05-0.02-0.09-0.03c-0.04-0.01-0.08-0.02-0.09-0.03s-0.05-0.05-0.1-0.08
		C14.34,12,14.32,11.99,14.31,12C14.3,12.01,14.29,12,14.28,11.99z M16.14,15.27c0.02-0.01,0.03-0.01,0.05,0.01s0.03,0.02,0.06,0.01
		s0.04-0.01,0.05,0c0.03,0.01,0.18,0.01,0.23,0c0.04-0.01,0.05-0.01,0.07,0c0.1,0.05,0.14,0.06,0.19,0.06c0.03,0,0.06,0,0.07,0.01
		c0.02,0.01,0.03,0.01,0.04,0c0.01-0.01,0.01-0.01,0.03,0c0.03,0.01,0.06,0,0.08-0.02c0.01-0.01,0.02-0.01,0.04-0.02
		c0.01,0,0.03,0,0.04,0.01c0.01,0.01,0.01,0.01,0.02,0c0.01-0.01,0.03-0.01,0.09-0.01c0.06,0,0.07,0,0.07-0.01
		c0-0.01,0.02-0.02,0.05-0.03c0.04-0.02,0.05-0.02,0.08-0.01c0.02,0.01,0.05,0.01,0.07,0.01s0.06,0.01,0.1,0.02
		c0.06,0.02,0.08,0.03,0.11,0.07c0.02,0.03,0.04,0.07,0.04,0.08s0.01,0.02,0.02,0.03c0.02,0.01,0.03,0.06,0.03,0.14
		c0,0.02,0,0.03,0.01,0.03s0.01,0.06,0.01,0.13c0,0.11-0.01,0.15-0.03,0.23c-0.01,0.05-0.03,0.1-0.03,0.13
		c-0.01,0.06-0.02,0.09-0.08,0.18c-0.03,0.04-0.05,0.08-0.05,0.09c0,0.01-0.01,0.01-0.03,0.02c-0.01,0-0.03,0.02-0.04,0.03
		c-0.01,0.01-0.01,0.02-0.02,0.02s-0.03,0.01-0.04,0.03c-0.01,0.02-0.03,0.04-0.05,0.05s-0.04,0.03-0.04,0.04
		c-0.01,0.03-0.03,0.06-0.1,0.1l-0.06,0.03l-0.05-0.02c-0.04-0.02-0.05-0.02-0.07-0.01c-0.01,0-0.03,0-0.1-0.03
		c-0.04-0.02-0.1-0.03-0.11-0.03s-0.04-0.01-0.06-0.02c-0.02-0.01-0.05-0.02-0.07-0.02s-0.03-0.01-0.04-0.03
		c-0.01,0-0.02,0-0.03-0.01c-0.01-0.01-0.02-0.01-0.03-0.01c-0.02,0.01-0.12-0.05-0.13-0.07c-0.01-0.02-0.1-0.06-0.14-0.06
		c-0.02,0-0.04,0-0.04-0.02h-0.06c-0.03,0-0.05,0.01-0.07,0.03c-0.02,0.01-0.06,0.03-0.07,0.03c-0.02,0-0.06,0.02-0.08,0.03
		c-0.02,0.01-0.04,0.01-0.04,0c0-0.02-0.03-0.03-0.05-0.02c-0.01,0.01-0.02,0-0.03-0.02c0-0.01-0.01-0.03-0.01-0.04
		c0-0.01-0.01-0.04-0.02-0.05c-0.02-0.02-0.02-0.02-0.01-0.07c0.01-0.03,0.01-0.06,0-0.07c-0.01-0.01-0.01-0.03,0-0.05
		c0.01-0.03,0.01-0.04,0-0.05c-0.01-0.01,0-0.01,0.02-0.03l0.02-0.03l-0.02-0.04c-0.01-0.02-0.03-0.06-0.05-0.08
		c-0.02-0.02-0.04-0.04-0.04-0.06c0-0.02,0-0.06-0.01-0.09c-0.02-0.09-0.02-0.13-0.01-0.15c0.01-0.01,0.02-0.04,0.02-0.07
		c0.01-0.1,0.08-0.2,0.17-0.27c0.03-0.02,0.05-0.03,0.07-0.03H16.14z"/>
	<path fill="#9E5C4C" d="M20.98,9.27c0.03,0,0.08,0.03,0.1,0.06c0.02,0.02,0.04,0.05,0.05,0.07c0.02,0.01,0.05,0.06,0.06,0.1
		c0.02,0.04,0.02,0.07,0.03,0.08c0.01,0.01,0.01,0.01,0.01,0.02s0.01,0.03,0.02,0.05c0.01,0.01,0.01,0.04,0.01,0.05
		c0,0.04,0.04,0.13,0.06,0.17c0.01,0.02,0.02,0.05,0.02,0.06c0,0.01,0.01,0.04,0.02,0.07c0.01,0.03,0.02,0.08,0.02,0.1
		c0,0.02,0,0.03,0.01,0.04c0.01,0.01,0.02,0.04,0.03,0.08c0.01,0.03,0.03,0.09,0.04,0.11s0.02,0.06,0.02,0.08
		c0,0.06,0.02,0.09,0.06,0.08c0.01,0,0.07,0.05,0.14,0.11c0.17,0.15,0.32,0.28,0.33,0.28s0.02,0.01,0.03,0.03
		c0.01,0.02,0.05,0.06,0.08,0.1c0.06,0.07,0.13,0.19,0.13,0.23c0,0.01,0.01,0.03,0.02,0.04c0.01,0.01,0.03,0.04,0.04,0.07
		c0.02,0.04,0.02,0.05,0.01,0.11c-0.01,0.07-0.02,0.11-0.04,0.12c-0.01,0.01-0.03,0.03-0.03,0.06c-0.01,0.1-0.1,0.28-0.14,0.29
		c-0.01,0-0.03,0.01-0.03,0.02s-0.02,0.05-0.05,0.07c-0.03,0.02-0.07,0.06-0.09,0.09c-0.02,0.03-0.05,0.05-0.05,0.06
		c-0.01,0.01-0.03,0-0.06-0.01c-0.06-0.02-0.26-0.03-0.31-0.02c-0.02,0.01-0.03,0.02-0.04,0.05c0,0.02-0.02,0.04-0.02,0.05v0.03
		c0,0.01,0,0.05-0.01,0.09s-0.02,0.09-0.02,0.11c0,0.02-0.01,0.09-0.02,0.14c-0.02,0.12-0.04,0.32-0.04,0.5c0,0.12,0,0.13,0.02,0.13
		c0.01,0,0.03,0,0.03,0.01c0,0.01,0.02,0.01,0.05,0.01c0.07,0,0.18,0.03,0.19,0.05c0,0.01,0.02,0.03,0.04,0.04
		c0.02,0.01,0.06,0.05,0.09,0.08c0.03,0.03,0.08,0.07,0.11,0.09c0.1,0.07,0.15,0.15,0.18,0.22c0.05,0.13,0.05,0.15,0.04,0.21
		c-0.01,0.03-0.02,0.08-0.03,0.09c-0.02,0.03-0.02,0.02-0.05,0.08c-0.02,0.03-0.04,0.05-0.05,0.05c-0.02,0-0.07,0.02-0.09,0.03
		c-0.05,0.03-0.14,0.03-0.18,0.01c-0.01-0.01-0.03-0.01-0.04-0.01c-0.01,0.01-0.04-0.01-0.09-0.02c-0.1-0.03-0.2-0.04-0.28-0.02
		c-0.05,0.01-0.07,0.02-0.08,0.04c-0.04,0.06-0.13,0.47-0.14,0.63c0,0.06-0.01,0.15-0.02,0.19c0,0.04-0.01,0.2-0.01,0.36
		c0,0.23,0,0.3,0.01,0.37c0.01,0.08,0.03,0.17,0.04,0.24c0,0.04,0.01,0.07,0.02,0.08c0.01,0.01,0.01,0.02,0,0.03
		c-0.01,0.01-0.01,0.02,0,0.04c0.01,0.01,0.01,0.04,0.01,0.06c0,0.02,0.01,0.04,0.02,0.05s0.01,0.03,0.01,0.06
		c0,0.07,0.02,0.31,0.03,0.39c0.01,0.04,0.02,0.1,0.03,0.13c0.03,0.09,0.04,0.24,0,0.32c-0.01,0.04-0.03,0.08-0.04,0.11
		c-0.01,0.07-0.05,0.1-0.15,0.15c-0.06,0.03-0.09,0.04-0.14,0.04c-0.03,0-0.08,0.01-0.11,0.02c-0.05,0.01-0.12,0.01-0.24-0.03
		c-0.1-0.03-0.13-0.08-0.15-0.16c-0.01-0.04-0.02-0.05-0.04-0.06c-0.01-0.01-0.02-0.02-0.03-0.05c-0.01-0.02-0.02-0.06-0.03-0.08
		c-0.02-0.04-0.03-0.09-0.05-0.37c-0.01-0.09-0.01-0.19-0.02-0.22v-0.08c0-0.02,0-0.09-0.01-0.15c-0.01-0.08-0.01-0.12,0-0.15
		c0.01-0.02,0.01-0.04,0-0.05c-0.01-0.01,0-0.03,0.01-0.06c0.01-0.03,0.01-0.1,0.01-0.16c0-0.08,0.01-0.12,0.02-0.16
		c0.01-0.03,0.02-0.08,0.02-0.1c0-0.02,0.01-0.06,0.02-0.07c0.03-0.05,0.05-0.84,0.03-0.84c-0.01,0-0.03,0.01-0.05,0.03
		c-0.02,0.02-0.05,0.03-0.07,0.03c-0.02,0-0.04,0.01-0.06,0.03c-0.02,0.02-0.04,0.02-0.06,0.02c-0.01,0-0.04,0-0.05,0.01
		s-0.04,0.02-0.07,0.03c-0.03,0.01-0.05,0.02-0.05,0.03s-0.01,0.01-0.02,0.01c-0.04,0-0.11,0.02-0.16,0.04l-0.08,0.04
		c-0.02,0.01-0.06,0.02-0.07,0.03c-0.04,0.03-0.1,0.02-0.19,0c-0.05-0.01-0.09-0.03-0.1-0.04s-0.04-0.03-0.06-0.04
		c-0.02-0.01-0.05-0.04-0.06-0.05s-0.04-0.06-0.08-0.1s-0.07-0.08-0.07-0.09c0-0.01-0.04-0.03-0.07-0.07
		c-0.07-0.07-0.15-0.13-0.22-0.14c-0.04-0.01-0.18-0.09-0.18-0.11c0-0.01,0.03-0.02,0.07-0.03c0.07-0.02,0.12-0.04,0.12-0.07
		c0-0.01,0.01-0.02,0.02-0.02c0.01,0,0.08-0.03,0.16-0.05c0.18-0.05,0.28-0.08,0.31-0.11c0.04-0.04,0.1-0.08,0.1-0.06
		c0,0.01,0.01,0.01,0.02,0s0.04-0.04,0.07-0.05c0.03-0.02,0.07-0.03,0.08-0.04s0.05-0.04,0.09-0.06c0.04-0.02,0.08-0.04,0.09-0.05
		c0.01-0.01,0.02-0.03,0.03-0.03c0.01,0,0.04-0.02,0.06-0.04c0.02-0.02,0.04-0.04,0.06-0.05c0-0.01,0-0.01,0.02-0.02
		c0.02-0.01,0.03-0.01,0.03-0.02c0-0.01,0-0.03,0.01-0.03c0.01,0,0.03-0.02,0.04-0.04c0.03-0.04,0.1-0.12,0.11-0.12
		c0.01,0,0.13-0.17,0.14-0.21c0.01-0.01,0.01-0.03,0.02-0.03s0.03-0.03,0.04-0.06s0.03-0.07,0.06-0.1c0.04-0.05,0.05-0.07,0.06-0.19
		c0-0.04,0-0.06,0.01-0.06s0.02-0.01,0.02-0.05v-0.11c0-0.06,0-0.07-0.03-0.08c-0.02-0.01-0.03-0.01-0.05,0
		c-0.02,0.01-0.04,0.01-0.05,0.01c-0.01,0-0.02,0.01-0.04,0.03c-0.06,0.06-0.12,0.1-0.15,0.09c-0.02,0-0.03-0.01-0.03,0
		c0,0.01-0.01,0.02-0.02,0.02c-0.01,0-0.04,0.01-0.06,0.03c-0.05,0.03-0.06,0.03-0.11-0.01c-0.01-0.01-0.02-0.01-0.05,0
		c-0.02,0.01-0.08,0.01-0.19,0.01c-0.15-0.01-0.17-0.02-0.2-0.04c-0.04-0.03-0.11-0.14-0.12-0.18c0-0.02-0.02-0.06-0.04-0.09
		c-0.02-0.03-0.04-0.07-0.04-0.08c0-0.03-0.02-0.07-0.07-0.12c-0.03-0.03-0.06-0.07-0.07-0.11c-0.01-0.04-0.02-0.07-0.03-0.07
		c-0.01-0.01-0.03-0.02-0.04-0.03c-0.01-0.01-0.03-0.06-0.06-0.09c-0.02-0.03-0.05-0.08-0.06-0.1c-0.01-0.02-0.01-0.04-0.02-0.05
		s-0.02-0.03-0.02-0.05c0-0.02-0.01-0.03-0.02-0.03s-0.05-0.07-0.05-0.08s0-0.02-0.01-0.02c-0.01,0-0.02-0.02-0.02-0.04
		c0-0.02-0.04-0.09-0.07-0.16c-0.03-0.07-0.07-0.14-0.07-0.16c0-0.02-0.01-0.04-0.02-0.05s-0.01-0.04-0.01-0.09s0.02-0.07,0.04-0.09
		c0.02-0.02,0.03-0.03,0.02-0.04c-0.01-0.01,0.03-0.04,0.05-0.04c0.02,0,0.04-0.04,0.03-0.06c-0.01-0.02,0.08-0.08,0.11-0.08
		c0.01,0,0.03-0.01,0.03-0.02c0-0.01,0-0.02,0.01-0.02s0.03-0.01,0.05-0.03c0.03-0.03,0.03-0.03,0.04-0.02
		c0.01,0.01,0.03,0.01,0.08-0.01c0.03-0.02,0.07-0.04,0.1-0.06c0.03-0.02,0.07-0.04,0.09-0.04c0.02,0,0.05-0.02,0.08-0.03l0.05-0.02
		l0.02,0.03c0.02,0.02,0.02,0.02,0.04,0.01c0.03-0.01,0.04-0.01,0.1,0.03c0.07,0.04,0.12,0.06,0.15,0.05c0.01,0,0.03,0,0.04,0.01
		s0.03,0,0.06,0c0.03,0,0.07-0.01,0.09-0.01c0.02,0,0.06-0.01,0.09-0.02c0.05-0.02,0.07-0.02,0.09-0.01
		c0.03,0.02,0.1,0.01,0.13-0.02c0.01-0.01,0.03-0.01,0.05-0.01c0.02,0,0.07-0.01,0.12-0.02l0.09-0.02v-0.08
		c0-0.04,0.01-0.13,0.02-0.19c0.01-0.06,0.02-0.15,0.02-0.2c0-0.05,0.01-0.11,0.01-0.13c0.01-0.02,0-0.06,0-0.09
		c0-0.04,0-0.06,0.01-0.07c0.01-0.01,0.01-0.03,0.01-0.07c0-0.03,0.01-0.08,0.01-0.12s0-0.08-0.01-0.09c-0.01-0.02,0-0.04,0.01-0.05
		s0.01-0.04,0.02-0.07c0.01-0.07,0.03-0.09,0.05-0.07c0.02,0.02,0.09,0.01,0.12-0.01c0.01-0.01,0.02-0.02,0.02-0.01
		s0.01,0.01,0.03,0c0.03-0.02,0.03-0.02,0.05,0.01c0.02,0.03,0.03,0.04,0.04,0.02c0.01-0.01,0.02-0.02,0.03-0.02
		c0.01,0,0.02-0.01,0.02-0.02c0-0.02,0-0.03,0.03,0c0.04,0.04,0.06,0.04,0.06,0C20.98,9.28,20.97,9.27,20.98,9.27z M24.78,8.63
		c0.04,0,0.06,0.01,0.11,0.05c0.03,0.02,0.06,0.05,0.07,0.06s0.02,0.02,0.02,0.04c0,0.02,0.03,0.05,0.05,0.07
		c0.02,0.02,0.03,0.03,0.02,0.04c0,0.01,0,0.02,0.01,0.03c0.02,0.04,0.03,0.17,0.03,0.36c0,0.17,0,0.17-0.04,0.26
		c-0.02,0.05-0.03,0.1-0.03,0.12c0,0.02-0.01,0.04-0.02,0.05c-0.01,0.01-0.01,0.02-0.01,0.03c0,0.05,0,0.07-0.02,0.08
		c-0.02,0-0.04,0.05-0.07,0.1c-0.02,0.04-0.17,0.18-0.21,0.2c-0.02,0.01-0.04,0.04-0.05,0.05c-0.02,0.03-0.01,0.09,0.01,0.13
		c0.03,0.05,0.13,0.1,0.15,0.07c0-0.01,0.02-0.02,0.05-0.02c0.08-0.01,0.23-0.05,0.41-0.11c0.1-0.03,0.2-0.06,0.24-0.07
		s0.08-0.02,0.09-0.03c0.02-0.01,0.04-0.02,0.06-0.02c0.02,0,0.04-0.01,0.04-0.02c0-0.01,0.01-0.02,0.02-0.02s0.03-0.01,0.05-0.03
		c0.02-0.02,0.05-0.04,0.07-0.04c0.05-0.01,0.11-0.05,0.11-0.07c0-0.01,0.02-0.02,0.04-0.02c0.02,0,0.05-0.01,0.06-0.01h0.04
		c0.02,0,0.05-0.01,0.07-0.02c0.04-0.02,0.04-0.02,0.07,0c0.02,0.01,0.06,0.02,0.1,0.03c0.01,0,0.07,0.03,0.09,0.04
		c0.02,0.01,0.05,0.02,0.07,0.02c0.02,0,0.03,0.01,0.04,0.02c0.01,0.01,0.02,0.01,0.03,0.01c0.01,0,0.05,0.01,0.08,0.03
		c0.03,0.02,0.07,0.03,0.08,0.03s0.03,0,0.05,0.01c0.02,0.01,0.06,0.02,0.08,0.03c0.04,0.01,0.07,0.03,0.14,0.11
		c0.05,0.05,0.11,0.11,0.15,0.14c0.04,0.02,0.07,0.04,0.07,0.05s0.01,0.03,0.02,0.06c0.02,0.05,0.02,0.05,0.01,0.12
		c-0.01,0.04-0.01,0.08-0.01,0.1c0,0.03-0.02,0.11-0.05,0.14c-0.01,0.01-0.02,0.04-0.03,0.07c-0.02,0.07-0.05,0.08-0.09,0.07
		c-0.01-0.01-0.04-0.01-0.05-0.01c-0.07,0.02-0.13,0.02-0.2-0.02c-0.05-0.02-0.08-0.03-0.1-0.03c-0.01,0-0.03,0-0.05-0.01
		c-0.01-0.01-0.05-0.02-0.08-0.03c-0.03-0.01-0.07-0.02-0.07-0.03s-0.02-0.01-0.06-0.01c-0.11,0.01-0.21,0.03-0.23,0.04
		c-0.01,0.01,0.08,0.1,0.26,0.28c0.12,0.12,0.17,0.17,0.22,0.19c0.03,0.01,0.06,0.04,0.06,0.05c0.01,0.01,0.03,0.02,0.04,0.03
		c0.03,0.01,0.16,0.15,0.21,0.22c0.02,0.03,0.04,0.04,0.06,0.04c0.02-0.01,0.03,0,0.06,0.04c0.02,0.03,0.06,0.06,0.08,0.09
		c0.04,0.03,0.06,0.06,0.06,0.09c0,0.02,0.01,0.05,0.02,0.07c0.02,0.02,0.03,0.03,0.03,0.12c0.01,0.18-0.02,0.24-0.15,0.27
		c-0.15,0.04-0.22,0.02-0.36-0.07c-0.05-0.03-0.08-0.06-0.09-0.08c0-0.02-0.03-0.04-0.05-0.06c-0.03-0.02-0.05-0.04-0.05-0.05
		c0-0.01-0.02-0.04-0.05-0.07c-0.04-0.04-0.05-0.06-0.05-0.08c0-0.03-0.03-0.05-0.08-0.08c-0.02-0.01-0.03-0.03-0.03-0.05
		c0-0.02-0.01-0.03-0.03-0.04c-0.02-0.01-0.03-0.01-0.03-0.02c0-0.01-0.01-0.02-0.02-0.04c-0.01-0.02-0.02-0.04-0.02-0.07
		c0-0.05-0.06-0.16-0.09-0.17c-0.01-0.01-0.02-0.02-0.02-0.04s-0.01-0.04-0.02-0.04c-0.02-0.01-0.07-0.07-0.09-0.11
		c-0.01-0.02-0.01-0.03-0.02-0.03s-0.02-0.01-0.04-0.03c-0.02-0.02-0.05-0.06-0.08-0.09c-0.03-0.03-0.07-0.08-0.09-0.11
		c-0.03-0.06-0.03-0.06-0.07-0.06c-0.07,0-0.2,0.02-0.28,0.05c-0.04,0.01-0.08,0.02-0.09,0.02s-0.02,0-0.04,0.01
		c-0.02,0.01-0.07,0.01-0.09,0.01c-0.02,0-0.05,0-0.07,0.01c-0.02,0.01-0.03,0.01-0.04,0c-0.01-0.01-0.02-0.01-0.05,0
		c-0.02,0.01-0.07,0.02-0.11,0.03c-0.11,0.03-0.14,0.05-0.13,0.08c0.03,0.15,0.03,0.2,0.01,0.39c-0.02,0.13-0.03,0.18-0.04,0.18
		c-0.02,0-0.01,0.12,0.01,0.19c0.01,0.03,0.03,0.08,0.05,0.12l0.03,0.07L25,12.09c0.03-0.02,0.13-0.11,0.22-0.18
		c0.2-0.17,0.33-0.26,0.37-0.28c0.02-0.01,0.05-0.02,0.05-0.03s0.01-0.01,0.02-0.01c0.01,0,0.03,0.01,0.04,0
		c0.01-0.01,0.05-0.01,0.07-0.01c0.04,0,0.05,0,0.13,0.07c0.05,0.04,0.08,0.07,0.08,0.08s0.01,0.03,0.03,0.05
		c0.02,0.02,0.05,0.06,0.07,0.09c0.02,0.03,0.05,0.05,0.06,0.05s0.03,0.03,0.04,0.05c0.01,0.02,0.02,0.04,0.03,0.04
		c0.01,0,0.02,0.02,0.03,0.04c0.01,0.02,0.04,0.07,0.06,0.11c0.08,0.13,0.08,0.21,0.02,0.3c-0.02,0.03-0.02,0.06-0.03,0.1
		c0,0.03-0.01,0.06-0.02,0.07s-0.01,0.03-0.01,0.06c0,0.02,0,0.05-0.01,0.06c-0.02,0.02-0.04,0.1-0.05,0.17
		c0,0.04-0.01,0.07-0.01,0.08c-0.01,0.03-0.01,0.19,0,0.21c0.01,0.02,0,0.09-0.04,0.13c-0.02,0.02-0.07,0.06-0.12,0.09
		c-0.09,0.06-0.17,0.08-0.29,0.09c-0.03,0-0.06,0.01-0.07,0.02c-0.02,0.01-0.07,0.01-0.2,0.01c-0.33,0-0.62,0-0.64,0.02
		c-0.01,0.01-0.03,0.01-0.04,0s-0.03,0-0.07,0.01c-0.06,0.02-0.08,0.01-0.09-0.05c-0.01-0.03-0.01-0.05-0.03-0.06
		c-0.03-0.03-0.07-0.1-0.07-0.14c0-0.02,0-0.04-0.01-0.04c-0.01-0.01-0.03-0.04-0.06-0.09c-0.05-0.08-0.05-0.09-0.04-0.1
		c0.02-0.02,0.03-0.03,0.01-0.03c-0.02,0-0.03-0.07-0.02-0.08c0.01-0.01,0-0.03-0.01-0.05c-0.02-0.03-0.02-0.04-0.01-0.13
		c0.01-0.08,0-0.11-0.01-0.14c-0.01-0.02-0.02-0.07-0.02-0.11c0-0.06,0-0.07-0.02-0.07c-0.01,0-0.03,0.01-0.04,0.03
		c-0.01,0.01-0.04,0.05-0.06,0.08c-0.02,0.03-0.05,0.06-0.06,0.08c-0.01,0.01-0.07,0.06-0.13,0.1c-0.13,0.08-0.16,0.09-0.23,0.06
		c-0.03-0.02-0.05-0.02-0.06-0.01c-0.01,0.01-0.03,0-0.07-0.02c-0.03-0.02-0.09-0.04-0.13-0.05s-0.08-0.02-0.09-0.03
		c-0.01-0.01-0.04-0.02-0.07-0.02c-0.1-0.02-0.22-0.07-0.24-0.1c-0.01-0.02-0.03-0.04-0.06-0.05c-0.02-0.01-0.05-0.01-0.04-0.02
		c-0.02-0.01-0.09-0.07-0.15-0.13c-0.03-0.03-0.19-0.08-0.25-0.08c-0.03,0-0.09,0-0.14,0.01c-0.07,0-0.09,0-0.14-0.02
		c-0.07-0.04-0.07-0.04-0.02-0.09c0.03-0.02,0.05-0.05,0.05-0.06c0-0.02,0.07-0.09,0.11-0.11c0.01-0.01,0.03-0.01,0.02-0.02
		c-0.01-0.01,0.06-0.06,0.13-0.1c0.12-0.06,0.24-0.12,0.27-0.13l0.12-0.06c0.02-0.01,0.04-0.02,0.05-0.02s0.04-0.02,0.07-0.04
		c0.01-0.01,0.03-0.01,0.05-0.01c0.02,0,0.04-0.02,0.07-0.04c0.03-0.02,0.05-0.03,0.06-0.03c0.02,0,0.17-0.13,0.21-0.18
		c0.02-0.03,0.04-0.05,0.05-0.05s0.02-0.04,0.03-0.07c0-0.01,0.01-0.02,0.02-0.03c0.01-0.01,0-0.02-0.06-0.04
		c-0.04-0.01-0.08-0.02-0.1-0.02c-0.02,0-0.05-0.01-0.07-0.02c-0.02-0.01-0.08-0.04-0.14-0.05c-0.06-0.02-0.12-0.03-0.13-0.04
		c-0.01-0.01-0.04-0.02-0.07-0.02c-0.02,0-0.06-0.01-0.07-0.02c-0.01-0.01-0.04-0.03-0.06-0.04c-0.03-0.02-0.03-0.04-0.03-0.06
		c0-0.04,0.03-0.07,0.08-0.09c0.03-0.01,0.03-0.02,0.02-0.04c0-0.01,0.01-0.02,0.05-0.04c0.07-0.03,0.2-0.07,0.27-0.08
		c0.03,0,0.08-0.01,0.11-0.02c0.05-0.02,0.15-0.04,0.25-0.05c0.03,0,0.07-0.01,0.09-0.02c0.02-0.01,0.05-0.01,0.06-0.01
		c0.01,0,0.02,0,0.03-0.01c0.01-0.01,0.03-0.03,0.06-0.04c0.04-0.02,0.04-0.03,0.05-0.05c0.01,0,0.01-0.01,0.01-0.05v-0.09
		c0.01-0.05-0.03-0.15-0.07-0.16c-0.01,0-0.04-0.02-0.07-0.04c-0.02-0.02-0.06-0.04-0.08-0.04c-0.02-0.01-0.05-0.01-0.06-0.02
		c-0.01-0.01-0.03-0.02-0.05-0.02c-0.02,0-0.06-0.03-0.08-0.04c-0.02-0.01-0.05-0.02-0.06-0.02s-0.02-0.02-0.03-0.04
		c-0.01-0.02-0.03-0.04-0.04-0.05c-0.02-0.01-0.04-0.03-0.07-0.08c0-0.01-0.02-0.04-0.04-0.07c-0.02-0.04-0.06-0.1-0.1-0.14
		s-0.08-0.09-0.09-0.11c-0.01-0.02-0.02-0.03-0.03-0.03s-0.02-0.01-0.04-0.03c-0.04-0.03-0.07-0.05-0.15-0.09
		c-0.04-0.02-0.08-0.03-0.09-0.04c-0.01-0.01-0.02-0.01-0.03-0.01c-0.01,0-0.03,0-0.07-0.01c-0.03-0.01-0.07-0.02-0.08-0.02
		s-0.03,0-0.04-0.02c-0.01-0.03-0.01-0.05,0.01-0.06c0.03-0.03,0.11-0.04,0.15-0.03c0.02,0,0.04-0.01,0.05-0.01s0.06-0.01,0.1-0.01
		c0.09,0,0.32-0.06,0.35-0.09c0.01-0.01,0.02-0.01,0.03-0.01c0.01,0,0.05,0,0.1-0.01c0.13-0.02,0.37-0.03,0.38-0.02
		c0.01,0.01,0.14-0.01,0.21-0.03c0.08-0.02,0.25-0.09,0.27-0.11c0.01-0.01,0.03-0.02,0.05-0.02c0.05,0,0.11-0.04,0.17-0.11
		c0.03-0.04,0.08-0.07,0.09-0.08c0.02-0.01,0.03-0.03,0.04-0.04s0.03-0.03,0.04-0.03C24.71,8.64,24.75,8.63,24.78,8.63z
		 M22.91,13.73c0.01,0,0.03,0.02,0.06,0.05c0.05,0.05,0.09,0.12,0.11,0.18c0,0.01,0.01,0.04,0.02,0.05
		c0.01,0.01,0.05,0.08,0.08,0.15c0.06,0.13,0.1,0.18,0.13,0.17c0.01,0,0.05-0.01,0.1-0.01c0.05-0.01,0.1-0.01,0.11-0.02
		c0.02-0.01,0.03-0.02,0.04-0.01c0.01,0.01,0.04,0,0.09-0.01c0.04-0.01,0.24-0.05,0.43-0.09l0.44-0.09l0.19-0.04
		c0.05-0.01,0.11-0.01,0.14-0.02c0.03-0.01,0.06-0.02,0.08-0.02c0.02,0,0.06-0.02,0.1-0.03s0.12-0.03,0.18-0.04l0.32-0.05
		c0.12-0.02,0.22-0.03,0.23-0.03c0.02,0,0.04,0,0.05-0.01s0.03-0.02,0.04-0.02c0.08,0,0.2-0.01,0.2-0.02c0-0.02-0.03-0.03-0.06-0.02
		c-0.03,0.01-0.05,0-0.04-0.01c0-0.01,0.03-0.01,0.07-0.01c0.07,0,0.09,0.01,0.14,0.04c0.03,0.02,0.08,0.04,0.11,0.05
		s0.06,0.03,0.06,0.04c0.01,0.01,0.03,0.03,0.06,0.04c0.03,0.01,0.05,0.02,0.05,0.03c0,0.01,0.02,0.02,0.04,0.04
		c0.03,0.02,0.08,0.06,0.09,0.07c0.03,0.02,0.06,0.05,0.07,0.06c0.02,0.01,0.07,0.05,0.11,0.09s0.08,0.08,0.09,0.08
		c0.01,0,0.01,0.01,0.02,0.02c0.01,0.02,0.03,0.03,0.04,0.03c0.01,0,0.02,0.01,0.03,0.03c0.01,0.01,0.04,0.04,0.06,0.05
		c0.02,0.01,0.05,0.03,0.05,0.04c0.01,0.01,0.02,0.02,0.03,0.02c0.02,0,0.16,0.13,0.17,0.15c0,0.01,0.02,0.01,0.03,0.02
		c0.01,0.01,0.02,0.03,0.02,0.04s0.01,0.02,0.02,0.03c0.01,0.01,0.02,0.02,0.03,0.04c0.01,0.02,0.04,0.05,0.07,0.07
		c0.03,0.02,0.05,0.06,0.06,0.08c0.01,0.02,0.03,0.04,0.04,0.06c0.01,0.02,0.02,0.04,0.02,0.05c0,0.01,0.02,0.04,0.03,0.07
		l0.02,0.06l-0.02,0.07c-0.02,0.07-0.03,0.08-0.12,0.14c-0.06,0.04-0.07,0.09-0.08,0.23c0,0.08-0.01,0.13,0,0.17
		c0.01,0.04,0.01,0.06,0,0.07c-0.01,0.01-0.01,0.02,0,0.04c0,0.01,0.01,0.2,0.01,0.43c0,0.54,0.01,0.74,0.02,0.8
		c0.01,0.07,0.01,0.19,0,0.22c-0.01,0.02-0.06,0.05-0.1,0.05c-0.01,0-0.03,0.01-0.03,0.02c-0.01,0.03-0.09,0.04-0.15,0.02
		c-0.02-0.01-0.02-0.01-0.03,0c0,0.01-0.03,0.01-0.04,0.01s-0.03,0-0.04,0.01s-0.01,0.01-0.02,0c-0.01-0.01-0.03-0.01-0.06-0.01
		s-0.07-0.01-0.08-0.02c-0.01-0.01-0.08-0.04-0.14-0.07c-0.12-0.05-0.14-0.06-0.19-0.14l-0.07-0.07c-0.02-0.02-0.04-0.04-0.04-0.05
		c0-0.02-0.14-0.18-0.15-0.17c-0.01,0.01-0.18-0.29-0.21-0.36c-0.01-0.03-0.05-0.08-0.1-0.13c-0.08-0.08-0.12-0.1-0.12-0.07
		c-0.04-0.03-0.05,0-0.04,0.18c0.01,0.21,0.02,0.31,0.05,0.37c0.01,0.03,0.02,0.06,0.02,0.1c0,0.03,0,0.09,0.01,0.12
		c0.01,0.05,0,0.07-0.01,0.08c-0.01,0.01-0.03,0.02-0.03,0.03s-0.01,0.01-0.02,0.02c-0.01,0.01-0.04,0.03-0.06,0.04
		c-0.02,0.02-0.04,0.03-0.05,0.03c-0.01,0-0.03,0.02-0.06,0.03s-0.05,0.02-0.06,0.01c-0.01-0.01-0.02,0.01-0.03,0.02
		c-0.03,0.03-0.06,0.04-0.11,0.04c-0.02,0-0.05,0-0.05,0.01s-0.02,0.01-0.04,0.01c-0.02,0-0.04,0-0.06,0.01
		c-0.06,0.03-0.17,0.02-0.24-0.01c-0.05-0.02-0.05-0.02-0.13-0.01c-0.13,0.02-0.33,0.02-0.38,0.01c-0.02-0.01-0.05-0.02-0.07-0.04
		c-0.01-0.02-0.05-0.06-0.07-0.08c-0.04-0.05-0.1-0.15-0.1-0.19c0-0.01-0.01-0.03-0.02-0.05c-0.02-0.03-0.02-0.05-0.02-0.13
		c0-0.12-0.01-0.19-0.06-0.23c-0.07-0.07-0.1-0.17-0.09-0.34c0.01-0.06,0.01-0.12,0-0.15c-0.01-0.04-0.02-0.13-0.01-0.43
		c0-0.05,0.01-0.09,0.02-0.1c0.01-0.01,0.03-0.08,0.03-0.13c0.01-0.08,0.03-0.17,0.04-0.2c0.01-0.02,0.02-0.05,0.02-0.06
		c0-0.03,0.03-0.12,0.05-0.14c0.01-0.01,0.02-0.03,0.03-0.05c0.02-0.04,0.06-0.06,0.08-0.04c0.03,0.03,0.07,0.03,0.08,0.01
		c0.01-0.02,0.01-0.02,0.03,0c0.02,0.02,0.03,0.02,0.05,0.01c0.01-0.01,0.02-0.01,0.03-0.01c0.01,0,0.03,0.03,0.06,0.07
		s0.05,0.07,0.06,0.07c0.02,0,0.08-0.04,0.13-0.09c0.07-0.07,0.21-0.2,0.29-0.26c0.05-0.04,0.09-0.04,0.16-0.04
		c0.02,0,0.03,0,0.03-0.01s0.01-0.02,0.02-0.03c0.03-0.02,0.01-0.05-0.04-0.04c0.03-0.04,0.17,0.01,0.19,0.06
		c0.01,0.01,0.04,0.06,0.08,0.1s0.07,0.08,0.08,0.1c0.01,0.02,0.01,0.04,0.02,0.03c0.01,0,0.02,0,0.03,0.01
		c0.01,0.01,0.01,0.02,0.02,0.02c0.02,0,0.1,0.08,0.11,0.11c0.01,0.02,0.02,0.04,0.03,0.05c0.02,0.01,0.05,0.1,0.05,0.15
		c0,0.04-0.02,0.07-0.04,0.08c-0.01,0-0.03,0.03-0.05,0.06l-0.03,0.04v0.28c0,0.15,0,0.26,0.01,0.27s0.19-0.03,0.22-0.05
		c0.02-0.01,0.05-0.01,0.06-0.01c0.01,0,0.04,0,0.05-0.01c0.02-0.01,0.07-0.02,0.12-0.03c0.05-0.01,0.11-0.03,0.14-0.04
		s0.07-0.01,0.08-0.01c0.01,0,0.03-0.01,0.05-0.03c0.02-0.02,0.04-0.03,0.05-0.03s0.01-0.01,0.01-0.02s0.01-0.03,0.02-0.04
		c0.01-0.02,0.01-0.03,0.01-0.05c0-0.02,0-0.05,0.01-0.07c0.01-0.02,0.01-0.11,0.02-0.19c0.01-0.08,0.01-0.24,0.02-0.34
		c0.02-0.25,0.02-0.28-0.06-0.37c-0.03-0.04-0.08-0.08-0.11-0.09c-0.03-0.02-0.05-0.03-0.05-0.04s-0.07-0.05-0.13-0.1
		c-0.06-0.05-0.13-0.11-0.15-0.13c-0.02-0.02-0.04-0.04-0.05-0.04s-0.02-0.01-0.03-0.03c-0.01-0.02-0.04-0.05-0.07-0.06
		c-0.04-0.02-0.06-0.02-0.11-0.01c-0.09,0.02-0.18,0.05-0.38,0.08c-0.24,0.04-0.38,0.07-0.41,0.08c-0.02,0.01-0.2,0.05-0.35,0.08
		c-0.05,0.01-0.12,0.03-0.15,0.04s-0.08,0.02-0.12,0.03c-0.04,0.01-0.07,0.02-0.08,0.02c-0.01,0-0.07,0.02-0.12,0.03
		c-0.05,0.01-0.12,0.04-0.16,0.06c-0.1,0.05-0.25,0.15-0.35,0.24c-0.05,0.05-0.1,0.09-0.11,0.09c-0.03,0.01-0.08,0.1-0.08,0.15
		c0,0.02-0.01,0.03-0.03,0.05c-0.02,0.01-0.05,0.05-0.08,0.08c-0.05,0.06-0.06,0.09-0.04,0.17c0,0.02,0.02,0.14,0.03,0.25
		c0.01,0.11,0.03,0.22,0.03,0.25c0.01,0.02,0,0.06,0,0.08v0.09c0,0.03,0.02,0.11,0.02,0.17c0.01,0.06,0.02,0.16,0.03,0.23
		c0.01,0.07,0.01,0.18,0.01,0.25v0.14c0,0.01,0.02,0.01,0.01,0.02c0,0.01-0.01,0.06-0.02,0.13c-0.01,0.15-0.02,0.2-0.05,0.2
		c-0.01,0-0.03,0.01-0.04,0.02c-0.04,0.04-0.11,0.07-0.2,0.08c-0.11,0.01-0.19-0.01-0.25-0.05c-0.08-0.06-0.09-0.09-0.11-0.15
		c-0.02-0.07-0.03-0.08-0.06-0.07h-0.05c-0.01,0-0.02-0.01-0.03-0.07l-0.01-0.07l-0.02,0.02c-0.01,0.01-0.04,0.01-0.06,0.01
		c-0.03,0-0.03,0-0.06-0.08c-0.02-0.07-0.03-0.11-0.03-0.19c0-0.06,0.01-0.13,0.01-0.18c0.01-0.07,0-0.08-0.02-0.1
		c-0.01-0.02-0.01-0.03-0.01-0.08c0-0.1,0-0.26,0.01-0.27c0.01-0.02,0.02-0.15,0.01-0.16c-0.01-0.01,0-0.01,0-0.02
		c0.01-0.01,0-0.07,0-0.13v-0.5c0-0.31,0.03-0.73,0.05-0.77c0.01-0.01,0.01-0.05,0.01-0.08c0-0.03,0-0.09,0.01-0.13
		s0.02-0.1,0.02-0.14c0-0.1,0.01-0.15,0.04-0.19c0.01-0.02,0.03-0.06,0.04-0.09c0.01-0.03,0.03-0.09,0.06-0.14
		c0.05-0.09,0.05-0.09,0.09-0.09C22.88,13.74,22.9,13.73,22.91,13.73z M25.25,15.19l-0.03-0.02l-0.04,0.05
		c-0.02,0.03-0.08,0.1-0.13,0.15c-0.12,0.12-0.16,0.19-0.19,0.25c-0.02,0.05-0.02,0.08,0,0.08c0.03,0-0.01,0.1-0.09,0.25l-0.05,0.09
		v0.11c0,0.11,0,0.11,0.03,0.12c0.05,0.02,0.09,0.01,0.18-0.03c0.12-0.05,0.17-0.09,0.19-0.15c0.01-0.03,0.03-0.07,0.04-0.09
		c0.01-0.03,0.03-0.07,0.03-0.09c0.01-0.11,0.02-0.2,0.04-0.31c0.01-0.07,0.02-0.13,0.02-0.15s0-0.03,0.01-0.04
		c0.01,0,0.01-0.05,0.01-0.1C25.27,15.22,25.27,15.21,25.25,15.19z M25.63,11.96c-0.01,0-0.1,0.1-0.24,0.26
		c-0.06,0.07-0.15,0.17-0.19,0.21s-0.08,0.07-0.08,0.08s-0.02,0.04-0.05,0.06c-0.02,0.02-0.05,0.05-0.06,0.07l-0.02,0.03h0.11
		c0.09-0.01,0.4-0.06,0.49-0.09c0.03-0.01,0.12-0.14,0.12-0.17c0-0.02,0.02-0.08,0.03-0.13c0.02-0.07,0.02-0.11,0.02-0.15
		c0-0.06-0.01-0.07-0.06-0.12C25.67,11.98,25.64,11.96,25.63,11.96z"/>
</g>
</svg>
