<?xml version="1.0" encoding="utf-8"?>
<!-- Generator: Adobe Illustrator 25.0.0, SVG Export Plug-In . SVG Version: 6.00 Build 0)  -->
<svg version="1.1" id="Layer_1" xmlns="http://www.w3.org/2000/svg" xmlns:xlink="http://www.w3.org/1999/xlink" x="0px" y="0px"
	 viewBox="0 0 16.18 8.28" enable-background="new 0 0 16.18 8.28" xml:space="preserve">
<g>
	<path fill="#9E5C4C" d="M4.42,0.17c0.05,0.01,0.17,0.02,0.19,0.01s0.06,0,0.11,0.02c0.03,0.01,0.17,0.03,0.2,0.02
		c0.01,0,0.05,0,0.08,0.01c0.03,0.01,0.07,0.02,0.09,0.02c0.06,0,0.08,0.01,0.09,0.02c0.01,0,0.04,0.01,0.08,0.02
		c0.04,0,0.07,0.02,0.08,0.02c0.01,0,0.04,0.01,0.06,0.01c0.06,0,0.11,0.01,0.21,0.03c0.05,0.01,0.16,0.03,0.2,0.03
		c0.12,0.01,0.14,0,0.16,0.01C5.98,0.39,5.99,0.4,6,0.4c0.01,0,0.03,0,0.04,0.01c0.01,0.01,0.05,0.01,0.08,0.01
		c0.03,0,0.11,0,0.16,0.01C6.33,0.44,6.4,0.45,6.44,0.45s0.07,0,0.08,0.01c0.01,0.01,0.05,0,0.11,0c0.08,0,0.12,0,0.15,0.01
		c0.03,0.01,0.06,0.01,0.13,0.01c0.06,0,0.09,0,0.11,0.01C7.04,0.5,7.07,0.51,7.1,0.51c0.04,0,0.06,0,0.09,0.02
		c0.02,0.01,0.05,0.03,0.06,0.03c0.01,0,0.03,0.01,0.03,0.02C7.29,0.59,7.3,0.59,7.32,0.6S7.37,0.63,7.4,0.65
		c0.03,0.02,0.07,0.04,0.08,0.04c0.01,0,0.02,0,0.02,0.01s0.01,0.02,0.02,0.02c0.03,0,0.1,0.04,0.14,0.07
		C7.68,0.8,7.69,0.82,7.7,0.82c0.02,0,0.17,0.09,0.18,0.11c0,0.01,0.02,0.03,0.05,0.05C7.96,1,7.98,1.02,8,1.04
		c0.02,0.01,0.06,0.05,0.08,0.07c0.03,0.02,0.05,0.05,0.06,0.07c0.09,0.16,0.14,0.25,0.14,0.27c0,0.01,0.01,0.05,0.03,0.08
		C8.32,1.56,8.33,1.6,8.33,1.7v0.13c0,0.02,0.01,0.07,0.01,0.11v0.08L8.29,2.06C8.26,2.08,8.23,2.1,8.21,2.11
		C8.16,2.13,8.06,2.12,8.02,2.1C8,2.09,7.98,2.09,7.97,2.09c-0.01,0-0.04,0-0.05-0.01c-0.01-0.01-0.05-0.02-0.1-0.03
		c-0.05-0.01-0.1-0.02-0.13-0.02C7.66,2.02,7.61,2.01,7.57,2.01S7.42,1.99,7.32,1.98c-0.14-0.02-0.2-0.02-0.29-0.02
		c-0.15,0-0.41-0.01-0.59-0.04C6.37,1.91,6.29,1.9,6.27,1.9S6.22,1.89,6.21,1.89C6.2,1.88,6.19,1.88,6.18,1.88H6.15
		C6.14,1.87,6.08,1.86,6.03,1.85C5.98,1.84,5.91,1.83,5.89,1.82C5.83,1.8,5.71,1.79,5.61,1.8C5.49,1.82,5.27,1.82,4.99,1.82
		c-0.15,0-0.23,0-0.24,0.01c-0.01,0-0.03,0.01-0.04,0.01c-0.08,0-0.18,0.01-0.24,0.01C4.4,1.86,4.34,1.87,4.33,1.87
		c-0.02,0-0.01,0.03,0.02,0.06c0.02,0.02,0.03,0.04,0.03,0.05S4.4,2.05,4.43,2.12C4.46,2.19,4.49,2.27,4.49,2.3
		c0,0.03,0.01,0.06,0.01,0.07c0,0.01,0.01,0.02,0.01,0.03s0.01,0.06,0.02,0.1c0.01,0.04,0.01,0.13,0.01,0.18
		c0,0.08,0.01,0.1,0.03,0.14c0.01,0.02,0.02,0.05,0.02,0.06C4.58,2.91,4.61,2.94,4.66,2.95c0.02,0.01,0.05,0.01,0.05,0.02
		c0,0.01,0.03,0.01,0.06,0.01c0.03,0,0.07,0,0.08,0.01C4.87,2.99,5.22,3,5.4,3c0.16,0,0.49-0.01,0.56-0.02
		c0.03,0,0.06-0.01,0.07-0.02c0.01-0.01,0.03-0.01,0.04-0.01c0.01,0,0.05,0.05,0.09,0.1c0.08,0.1,0.09,0.12,0.11,0.28
		C6.28,3.41,6.3,3.49,6.31,3.5c0.01,0,0.01,0.02,0.01,0.03s0.02,0.05,0.03,0.08C6.37,3.67,6.39,3.7,6.4,3.75
		c0.01,0.02,0.03,0.08,0.05,0.12s0.03,0.11,0.04,0.14C6.5,4.04,6.53,4.09,6.54,4.12c0.02,0.03,0.04,0.1,0.05,0.16
		c0.02,0.06,0.04,0.14,0.05,0.16l0.04,0.07c0.01,0.02,0.03,0.06,0.03,0.08c0,0.02,0,0.04,0.01,0.05c0.01,0,0.01,0.01,0.01,0.02
		c0,0.01,0,0.02,0.01,0.02c0.02,0,0.05,0.05,0.05,0.08c0,0.01,0.02,0.03,0.03,0.05c0.02,0.02,0.03,0.05,0.04,0.08
		C6.87,4.92,6.9,4.95,6.91,4.97c0.01,0.02,0.02,0.05,0.03,0.1c0.03,0.12,0.03,0.16-0.02,0.26C6.9,5.38,6.88,5.43,6.88,5.46
		c0,0.02-0.01,0.06-0.02,0.09C6.85,5.58,6.82,5.66,6.8,5.73C6.78,5.8,6.74,5.93,6.71,6.01C6.68,6.09,6.66,6.16,6.66,6.18
		c0,0.02-0.01,0.07-0.02,0.1c-0.03,0.1-0.07,0.3-0.06,0.31c0.01,0,0,0.03,0,0.05c0,0.02,0,0.1,0.01,0.18C6.6,6.9,6.6,6.97,6.6,6.98
		c0,0.01,0,0.03,0.01,0.04c0.01,0.01,0,0.02,0,0.03c0,0.01,0,0.02,0.01,0.03C6.64,7.1,6.65,7.16,6.63,7.19
		c-0.01,0.03-0.01,0.04,0,0.06c0.03,0.04,0.05,0.11,0.06,0.22c0,0.04,0.01,0.1,0.02,0.13c0.01,0.03,0.01,0.07,0.01,0.1
		c0,0.02,0,0.08,0.01,0.12c0,0.04,0,0.07-0.01,0.09C6.71,7.93,6.71,7.95,6.71,7.96c0,0.02-0.06,0.17-0.08,0.2
		C6.62,8.17,6.61,8.2,6.6,8.21C6.59,8.22,6.56,8.24,6.53,8.25C6.48,8.27,6.45,8.27,6.37,8.27H6.26c-0.01,0.01-0.01,0-0.02-0.01
		C6.23,8.25,6.21,8.24,6.18,8.24c-0.03,0-0.05-0.01-0.06-0.02c0-0.01-0.03-0.02-0.06-0.03S6.01,8.17,6.01,8.16
		c-0.01-0.01-0.03,0-0.05,0c-0.03,0.01-0.04,0-0.04-0.02c0-0.01-0.01-0.02-0.05-0.03C5.84,8.1,5.81,8.08,5.79,8.07
		C5.78,8.06,5.76,8.04,5.75,8.04C5.74,8.04,5.71,8.02,5.68,8C5.65,7.98,5.63,7.96,5.62,7.96c-0.01,0-0.06-0.05-0.11-0.1
		C5.5,7.85,5.49,7.82,5.49,7.8c0-0.02-0.02-0.03-0.03-0.04C5.45,7.75,5.45,7.74,5.45,7.73s0-0.03-0.01-0.04
		C5.43,7.68,5.42,7.66,5.42,7.65c0-0.01-0.01-0.04-0.02-0.05C5.37,7.56,5.35,7.49,5.34,7.44c0-0.03-0.01-0.09-0.03-0.14
		C5.3,7.25,5.29,7.19,5.29,7.17c0-0.02-0.01-0.08-0.02-0.12c-0.01-0.08,0-0.15,0.01-0.16c0.01-0.01,0-0.09-0.01-0.1V6.74
		c0-0.02,0-0.07-0.01-0.1C5.25,6.59,5.24,6.58,5.21,6.55C5.15,6.5,5.09,6.4,5.09,6.36c0-0.02,0-0.04-0.01-0.05
		C5.06,6.28,5.04,6.19,5.05,6.17c0.01-0.01,0.02-0.02,0.03-0.02c0.02,0.01,0.02-0.01,0-0.05C5.07,6.08,5.06,6.07,5.06,6.06
		c0-0.02,0.04-0.03,0.1-0.04c0.05-0.01,0.06-0.01,0.08,0.01c0.01,0.01,0.05,0.02,0.08,0.03c0.03,0.01,0.09,0.02,0.12,0.03
		c0.09,0.02,0.2,0.03,0.31,0.02c0.14-0.02,0.18-0.04,0.2-0.1c0.01-0.03,0.02-0.06,0.03-0.08C5.99,5.91,6,5.89,6,5.86
		c0-0.03,0.02-0.1,0.03-0.17c0.01-0.07,0.02-0.17,0.03-0.22c0.01-0.05,0.02-0.12,0.02-0.15c0.01-0.03,0-0.08,0-0.11
		c0-0.04,0-0.06,0.01-0.07c0.01-0.01,0.01-0.04,0-0.09c-0.01-0.04,0-0.08,0-0.1c0.01-0.04,0-0.19-0.01-0.21
		C6.07,4.73,6.06,4.67,6.06,4.63c0-0.01-0.01-0.03-0.02-0.04C6.03,4.58,6,4.41,6,4.37c0-0.03-0.05-0.15-0.07-0.18
		c-0.01-0.01-0.01-0.02,0-0.03c0-0.01,0-0.01-0.01-0.02C5.91,4.13,5.9,4.1,5.89,4.08C5.88,4.02,5.84,3.93,5.82,3.92
		C5.81,3.91,5.8,3.89,5.8,3.88c0-0.03-0.06-0.09-0.06-0.07c0,0.01-0.01,0-0.03-0.02L5.67,3.76L5.58,3.78
		C5.53,3.79,5.47,3.83,5.44,3.83S5.36,3.84,5.33,3.84c-0.1,0-0.32,0.03-0.35,0.04c-0.02,0-0.06,0.01-0.09,0.02
		C4.86,3.91,4.81,3.92,4.78,3.93c-0.04,0.01-0.06,0.02-0.1,0.08C4.65,4.05,4.62,4.09,4.62,4.1S4.6,4.14,4.58,4.16
		C4.56,4.18,4.55,4.2,4.55,4.21c0,0.03-0.03,0.12-0.07,0.17C4.46,4.41,4.43,4.44,4.42,4.46C4.41,4.48,4.4,4.5,4.39,4.5
		C4.38,4.51,4.38,4.52,4.38,4.53S4.37,4.57,4.34,4.61C4.32,4.65,4.29,4.68,4.29,4.69S4.27,4.75,4.24,4.82
		C4.21,4.89,4.18,4.94,4.18,4.95s0,0.01-0.01,0.02c-0.01,0.01-0.1,0.17-0.1,0.19c0,0.01-0.02,0.05-0.13,0.28
		c-0.05,0.09-0.1,0.21-0.12,0.25S3.78,5.78,3.77,5.8C3.76,5.81,3.76,5.83,3.76,5.84S3.75,5.87,3.74,5.89
		C3.73,5.91,3.71,5.95,3.7,5.99C3.69,6.03,3.67,6.08,3.66,6.1C3.65,6.12,3.64,6.14,3.64,6.15s0,0.02-0.01,0.04l-0.05,0.1
		c-0.04,0.08-0.06,0.1-0.1,0.1c-0.02,0-0.04,0-0.06,0.03C3.41,6.44,3.38,6.46,3.37,6.47C3.36,6.48,3.34,6.49,3.33,6.5
		c-0.02,0.02-0.1,0.03-0.22,0.04C3.1,6.54,3.03,6.56,3,6.57C2.97,6.58,2.92,6.59,2.91,6.59c-0.01,0-0.03,0.01-0.04,0.02
		C2.86,6.62,2.84,6.63,2.83,6.63c-0.02,0-0.08,0.03-0.12,0.06S2.55,6.8,2.54,6.8c-0.01,0-0.04,0.01-0.07,0.04
		C2.44,6.86,2.4,6.9,2.38,6.91s-0.06,0.05-0.1,0.08S2.2,7.06,2.18,7.07S2.13,7.1,2.1,7.12C2.07,7.14,1.98,7.2,1.91,7.24
		C1.84,7.28,1.76,7.33,1.74,7.35C1.72,7.37,1.68,7.39,1.67,7.39c-0.01,0-0.02,0.02-0.02,0.03C1.63,7.43,1.59,7.46,1.56,7.49
		C1.53,7.52,1.5,7.55,1.48,7.56C1.46,7.57,1.45,7.58,1.45,7.59S1.43,7.61,1.4,7.61c-0.02,0-0.05,0.01-0.06,0.01
		c-0.01,0-0.03,0-0.04-0.01C1.29,7.6,1.28,7.59,1.27,7.59c-0.01,0-0.01-0.01-0.02-0.03C1.24,7.54,1.22,7.53,1.19,7.52
		C1.17,7.51,1.11,7.5,1.08,7.48C1.05,7.46,1.01,7.44,0.99,7.44S0.95,7.43,0.93,7.42C0.92,7.41,0.89,7.41,0.88,7.41
		c-0.01,0-0.04-0.02-0.07-0.04C0.78,7.35,0.75,7.33,0.73,7.32C0.71,7.31,0.69,7.28,0.67,7.25C0.66,7.22,0.64,7.19,0.63,7.18
		C0.62,7.17,0.6,7.13,0.59,7.11C0.58,7.08,0.55,7.06,0.51,7.04C0.45,7,0.44,6.98,0.4,6.85C0.39,6.82,0.39,6.8,0.38,6.79
		c-0.01-0.01,0-0.02,0-0.03c0-0.02,0-0.04-0.01-0.05C0.36,6.7,0.35,6.68,0.35,6.66c0-0.02-0.01-0.05-0.02-0.05
		c-0.01-0.01-0.01-0.01,0-0.02c0.01-0.01,0.02-0.03,0.01-0.03C0.33,6.55,0.31,6.48,0.3,6.41c0-0.07-0.03-0.12-0.07-0.17
		C0.21,6.22,0.2,6.19,0.2,6.18S0.19,6.14,0.17,6.12C0.15,6.1,0.13,6.08,0.13,6.07c0-0.02-0.06-0.08-0.09-0.09S0.01,5.97,0.03,5.96
		c0.02-0.01,0.02-0.02,0-0.04C0.02,5.91,0.01,5.89,0,5.89c0.03-0.01,0.05-0.02,0.06-0.05c0.01-0.01,0.05-0.03,0.09-0.05
		c0.1-0.04,0.13-0.06,0.13-0.08c0-0.02,0.05-0.03,0.2-0.04c0.19-0.01,0.49-0.08,0.56-0.13c0.01-0.01,0.03-0.01,0.04-0.01
		c0.01,0,0.03-0.02,0.05-0.03s0.03-0.02,0.04-0.02c0.02,0,0.36-0.17,0.46-0.23C1.68,5.22,1.72,5.2,1.72,5.19
		c0-0.01,0.06-0.05,0.13-0.09C2.02,5,2.24,4.84,2.28,4.78c0.02-0.03,0.06-0.07,0.09-0.1C2.4,4.65,2.44,4.62,2.45,4.61
		c0.02-0.03,0.14-0.13,0.22-0.17C2.7,4.42,2.74,4.39,2.76,4.38c0.02-0.02,0.05-0.03,0.06-0.04C2.83,4.33,2.84,4.32,2.85,4.3
		c0.01-0.02,0.02-0.03,0.03-0.03S2.89,4.25,2.9,4.23c0.01-0.02,0.02-0.04,0.03-0.04c0.01-0.01,0.02-0.03,0.03-0.05
		c0.01-0.02,0.01-0.05,0.02-0.06c0.01-0.01,0.04-0.09,0.08-0.19c0.04-0.1,0.1-0.26,0.11-0.28C3.21,3.5,3.25,3.42,3.26,3.37
		c0-0.02,0.03-0.08,0.05-0.13c0.02-0.06,0.04-0.12,0.04-0.14c0.01-0.02,0.02-0.06,0.03-0.09C3.39,2.99,3.4,2.94,3.4,2.91
		s0.02-0.08,0.03-0.12L3.45,2.7L3.43,2.66C3.42,2.62,3.41,2.59,3.41,2.57c0-0.03-0.02-0.05-0.03-0.07C3.37,2.48,3.36,2.46,3.36,2.43
		c0-0.07-0.02-0.2-0.04-0.22C3.31,2.2,3.31,2.19,3.31,2.18S3.3,2.16,3.29,2.15C3.27,2.12,3.22,2.03,3.22,2.01
		C3.22,2,3.21,1.96,3.2,1.93C3.18,1.88,3.17,1.87,3.16,1.87c-0.01,0-0.04-0.01-0.07-0.01H3.02C3,1.86,2.95,1.85,2.9,1.84
		c-0.04-0.01-0.08-0.01-0.09,0H2.77c-0.01,0-0.02,0-0.03,0.01C2.72,1.87,2.71,1.88,2.69,1.86C2.68,1.85,2.65,1.85,2.54,1.85
		c-0.08,0-0.15,0-0.16,0.01c-0.01,0.01-0.02,0-0.03,0c-0.01,0-0.03,0-0.05,0.01C2.28,1.88,2.27,1.89,2.26,1.88
		C2.25,1.87,2.24,1.87,2.23,1.87c-0.01,0-0.01,0.01-0.02,0c-0.01-0.01-0.03-0.01-0.05,0c-0.01,0.01-0.04,0-0.06,0
		c-0.03-0.01-0.04,0-0.06,0.02c-0.01,0.01-0.03,0.01-0.03,0S1.99,1.88,1.98,1.88c0,0.02-0.04,0.02-0.07,0.02
		c-0.03,0-0.06,0.01-0.07,0.02c-0.02,0.01-0.1,0.01-0.14,0c-0.02,0-0.03,0-0.03,0.01s-0.02,0-0.04,0s-0.06,0-0.07,0.01
		c-0.01,0.01-0.03,0-0.07-0.01s-0.06-0.01-0.08,0C1.38,1.94,1.34,1.94,1.33,1.92c-0.01-0.02-0.02-0.02-0.02,0
		c0,0.01,0,0.01-0.02,0.01c-0.01,0-0.02-0.01-0.02-0.02c0-0.02-0.02-0.01-0.03,0.02c-0.02,0.03-0.07,0.04-0.1,0.01
		C1.13,1.93,1.12,1.92,1.11,1.93c-0.01,0.01-0.01,0.01-0.02,0C1.05,1.9,0.98,1.89,0.95,1.91c-0.02,0.01-0.03,0.01-0.04,0
		C0.9,1.9,0.89,1.9,0.88,1.91c-0.03,0.03-0.05,0.03-0.08,0c-0.03-0.03-0.06-0.03-0.06,0c0,0.01,0,0.01-0.03,0.01
		C0.64,1.91,0.64,1.91,0.62,1.88S0.51,1.81,0.5,1.83c0,0.01-0.01,0.01-0.03-0.01C0.44,1.79,0.43,1.78,0.43,1.8S0.4,1.82,0.39,1.79
		C0.38,1.76,0.37,1.76,0.36,1.78C0.35,1.8,0.28,1.77,0.25,1.74C0.24,1.73,0.19,1.7,0.14,1.69c-0.05-0.02-0.1-0.05-0.11-0.05
		C0,1.61,0,1.61,0.02,1.6c0.01,0,0.02,0,0.02-0.01S0.12,1.5,0.17,1.47c0.02-0.01,0.05-0.04,0.06-0.05c0.01-0.01,0.03-0.03,0.05-0.03
		C0.3,1.38,0.32,1.36,0.32,1.35c0-0.01,0.01-0.02,0.02-0.02C0.36,1.32,0.4,1.3,0.41,1.28c0.01-0.01,0.01-0.01,0.02-0.01
		c0.01,0,0.02,0.01,0.02,0c0-0.01,0.02-0.03,0.03-0.04C0.5,1.21,0.53,1.2,0.59,1.2s0.07,0,0.09-0.02c0.01-0.01,0.03-0.02,0.04-0.02
		c0.01,0,0.03-0.02,0.04-0.03c0.02-0.02,0.03-0.02,0.07-0.02c0.03,0,0.05,0,0.05-0.01c0-0.01,0.05-0.02,0.09-0.03
		c0.04-0.01,0.16-0.05,0.25-0.08l0.23-0.08C1.48,0.9,1.51,0.9,1.51,0.89c0-0.01,0.01-0.01,0.02-0.01c0.01,0,0.04-0.01,0.06-0.02
		c0.01,0,0.08-0.02,0.13-0.03c0.12-0.02,0.23-0.05,0.27-0.07c0.02-0.01,0.04-0.02,0.05-0.02c0.03,0,0.1-0.02,0.12-0.03
		C2.17,0.7,2.19,0.7,2.21,0.7s0.03,0.01,0.04,0c0-0.01,0.03-0.01,0.06-0.02c0.03-0.01,0.14-0.03,0.25-0.06
		c0.11-0.03,0.2-0.05,0.22-0.05c0.03,0,0.2-0.04,0.21-0.05c0.01,0,0.02-0.01,0.04-0.01S3.08,0.5,3.11,0.49
		c0.03-0.01,0.06-0.01,0.08-0.02s0.04-0.02,0.05-0.02c0.03,0,0.14-0.05,0.15-0.06c0.01-0.01,0.02,0,0.04,0s0.04-0.01,0.06-0.02
		c0.02-0.01,0.05-0.02,0.07-0.02s0.04,0,0.06-0.01s0.06-0.02,0.09-0.02S3.8,0.31,3.83,0.29c0.05-0.02,0.1-0.04,0.15-0.04
		c0.05,0,0.09-0.01,0.1-0.01c0.01,0,0.02-0.01,0.03-0.01C4.2,0.22,4.27,0.21,4.29,0.2C4.3,0.19,4.31,0.18,4.32,0.19
		c0.01,0.01,0.03,0,0.05-0.01S4.41,0.17,4.42,0.17z"/>
	<path fill="#9E5C4C" d="M12.8,0.05c0.02,0.02,0.04,0.04,0.05,0.04c0.01,0,0.01,0.01,0.01,0.02c0,0.01,0.01,0.04,0.02,0.05
		c0.01,0.01,0.02,0.03,0.02,0.04c0,0.01,0.01,0.03,0.02,0.04c0.02,0.02,0.02,0.03,0.02,0.06c0,0.02,0.01,0.06,0.02,0.09
		c0.01,0.03,0.01,0.06,0.01,0.07c0,0.01,0.01,0.04,0.02,0.06S13.01,0.56,13,0.57c-0.01,0.01,0,0.04,0.01,0.08
		c0.01,0.05,0.02,0.12,0.02,0.18c0,0.05,0,0.12,0.01,0.16c0.01,0.05,0.01,0.1,0,0.19c-0.01,0.06-0.01,0.13-0.01,0.15
		S13.01,1.41,13,1.46c-0.01,0.05-0.02,0.13-0.02,0.18s-0.02,0.15-0.04,0.25c-0.02,0.09-0.04,0.18-0.04,0.19
		c0,0.01,0.09,0.02,0.22,0.02c0.26,0.01,0.99-0.04,1.02-0.07c0.03-0.02,0.09-0.04,0.12-0.03c0.03,0.01,0.04,0.01,0.06,0
		c0.03-0.02,0.08-0.04,0.14-0.04h0.08c0.02,0,0.09-0.01,0.15-0.02c0.11-0.01,0.12-0.01,0.13,0.01c0.01,0.01,0.01,0.01,0.02,0
		c0-0.01,0.03,0,0.07,0h0.07l0.06,0.06c0.06,0.06,0.06,0.06,0.15,0.26c0.01,0.02,0.02,0.08,0.03,0.12c0.01,0.04,0.02,0.1,0.03,0.12
		c0.01,0.02,0.02,0.05,0.02,0.07c0,0.02,0.02,0.07,0.03,0.11c0.01,0.04,0.02,0.08,0.02,0.1c0,0.02,0,0.03,0.01,0.04
		c0.01,0,0.01,0.02,0.01,0.03s0,0.02,0.01,0.03c0.01,0,0.01,0.02,0.01,0.04c0,0.02,0.01,0.04,0.01,0.05
		c0.01,0.01,0.01,0.04,0.02,0.07c0.01,0.05,0.04,0.11,0.08,0.18c0.01,0.01,0.03,0.06,0.05,0.1s0.03,0.08,0.04,0.08
		c0.01,0,0.02,0.01,0.02,0.02s0.01,0.04,0.03,0.07s0.04,0.07,0.05,0.08c0.03,0.05,0.07,0.11,0.11,0.15
		c0.02,0.02,0.04,0.04,0.04,0.05c0,0.01,0.03,0.03,0.06,0.06s0.05,0.06,0.05,0.07c0,0.01,0.01,0.01,0.03,0.03
		c0.02,0.01,0.03,0.04,0.03,0.05C15.98,3.99,15.99,4,16,4c0.02,0,0.09,0.1,0.09,0.12c0,0.01,0.01,0.02,0.02,0.03
		c0.02,0.01,0.03,0.03,0.03,0.06c0,0.02,0.01,0.05,0.02,0.05c0.02,0.01,0.03,0.14,0.02,0.18c-0.01,0.02-0.02,0.04-0.07,0.06
		c-0.03,0.02-0.07,0.04-0.09,0.06C16,4.57,15.97,4.59,15.96,4.59c-0.01,0-0.03,0.01-0.05,0.02s-0.04,0.02-0.05,0.02
		c-0.02,0-0.33,0.13-0.41,0.17c-0.03,0.01-0.06,0.03-0.08,0.05c-0.02,0.02-0.06,0.05-0.09,0.08c-0.03,0.03-0.09,0.08-0.12,0.11
		c-0.03,0.03-0.08,0.06-0.09,0.06c-0.01,0-0.03,0.02-0.04,0.04C15.02,5.16,15.01,5.17,15,5.17c-0.01,0-0.07,0.06-0.14,0.13
		c-0.12,0.13-0.14,0.16-0.15,0.2c-0.01,0.05-0.03,0.09-0.05,0.11c-0.02,0.02-0.04,0.06-0.06,0.09c-0.01,0.02-0.05,0.08-0.08,0.12
		c-0.03,0.03-0.05,0.06-0.05,0.07s-0.01,0.02-0.02,0.03c-0.01,0.01-0.02,0.03-0.03,0.05c-0.02,0.05-0.11,0.25-0.12,0.26
		c-0.01,0.01-0.04,0.07-0.05,0.13c-0.01,0.04-0.02,0.1-0.02,0.22c0,0.15,0.01,0.19,0.07,0.26c0.07,0.08,0.1,0.13,0.1,0.14
		c0,0.01,0.01,0.02,0.03,0.04c0.02,0.02,0.03,0.04,0.03,0.05s0.01,0.03,0.03,0.05c0.02,0.02,0.04,0.08,0.05,0.12
		c0.01,0.04,0.02,0.08,0.03,0.09s0.01,0.02,0,0.05c0,0.02,0,0.04,0.03,0.11c0.02,0.04,0.03,0.09,0.03,0.11
		c0,0.02,0.01,0.04,0.01,0.05c0.01,0.01,0.01,0.03,0,0.04c0,0.01-0.01,0.03-0.01,0.05c0,0.02-0.02,0.07-0.04,0.1
		s-0.04,0.06-0.04,0.07c0,0.02-0.15,0.14-0.18,0.13c0,0.01-0.01,0.01-0.02,0.01c-0.01,0-0.03,0-0.04,0.01
		c-0.02,0.01-0.36,0.03-0.37,0.02c-0.01-0.01-0.04-0.02-0.07-0.03c-0.04-0.01-0.08-0.04-0.12-0.08c-0.03-0.03-0.06-0.05-0.07-0.05
		c-0.01,0-0.03-0.02-0.06-0.05c-0.03-0.02-0.06-0.05-0.07-0.05c-0.01-0.01-0.02-0.03-0.04-0.06c0-0.01-0.05-0.06-0.06-0.07
		c-0.08-0.08-0.12-0.14-0.12-0.16c0-0.01-0.01-0.03-0.02-0.03c-0.04-0.02-0.1-0.09-0.13-0.14c-0.02-0.03-0.04-0.06-0.05-0.07
		c-0.01-0.01-0.02-0.02-0.02-0.03s0-0.01-0.01-0.02c-0.03-0.03-0.08-0.12-0.08-0.14c0-0.01,0-0.03-0.01-0.03
		C13,7.07,13,7.06,13,7.05c0-0.01,0.01-0.02,0-0.02c-0.02-0.01-0.07-0.09-0.07-0.1c0-0.01-0.05-0.05-0.06-0.05
		c-0.01,0-0.01-0.01-0.01-0.02s0-0.03-0.01-0.04c-0.02-0.02-0.13-0.23-0.13-0.26c0-0.01-0.01-0.03-0.02-0.04
		c-0.01-0.01-0.03-0.04-0.05-0.08s-0.03-0.07-0.04-0.08c-0.01-0.01-0.02-0.03-0.02-0.04s-0.01-0.05-0.02-0.07
		c-0.06-0.19-0.09-0.29-0.09-0.42c0-0.18,0-0.19,0.09-0.28c0.05-0.05,0.06-0.06,0.07-0.05c0.02,0.02,0.1-0.01,0.11-0.03
		c0.01-0.03,0.03-0.04,0.07-0.05c0.03-0.01,0.04-0.02,0.04-0.03c0.01-0.04,0.02-0.03,0.06,0.01c0.02,0.02,0.04,0.04,0.05,0.04
		c0.01,0,0.05,0.03,0.07,0.07c0.08,0.11,0.09,0.13,0.12,0.15c0.02,0.01,0.05,0.04,0.07,0.06c0.02,0.02,0.04,0.05,0.05,0.06
		c0.01,0.01,0.03,0.02,0.04,0.03c0.01,0.01,0.03,0.01,0.04,0.01c0.01,0,0.01,0,0.02,0.01c0.01,0.01,0.01,0.02,0.02,0.02
		c0.01,0,0.04-0.06,0.04-0.08c0-0.01,0.01-0.02,0.02-0.03c0.01-0.01,0.02-0.03,0.02-0.04c0-0.01,0.04-0.03,0.06-0.05
		c0.03-0.02,0.04-0.03,0.04-0.04c0.03-0.01,0.13-0.12,0.15-0.16c0.01-0.02,0.03-0.03,0.04-0.03c0.01-0.02,0.08-0.13,0.1-0.15
		c0.01-0.01,0.02-0.01,0.02-0.02s0.1-0.16,0.11-0.17c0.01-0.01,0.02-0.01,0.02-0.02c0.03-0.04,0.09-0.13,0.13-0.19
		c0.03-0.03,0.06-0.07,0.07-0.09c0.01-0.02,0.03-0.05,0.05-0.07c0.02-0.02,0.03-0.04,0.03-0.05c0-0.02,0.08-0.13,0.14-0.2l0.1-0.14
		l0.11-0.14c0.03-0.04,0.06-0.08,0.08-0.11c0.02-0.03,0.04-0.05,0.05-0.05c0.01,0,0.02-0.01,0.02-0.02s0.02-0.04,0.04-0.07
		c0.05-0.06,0.07-0.12,0.08-0.17c0-0.03-0.03-0.14-0.05-0.16c-0.01-0.01-0.01-0.03-0.01-0.04c0-0.01-0.01-0.04-0.02-0.05
		c-0.02-0.03-0.07-0.15-0.07-0.17c0-0.02-0.05-0.14-0.07-0.15c-0.01-0.01-0.01-0.01-0.01-0.03c0-0.02-0.01-0.05-0.03-0.08
		c-0.02-0.03-0.03-0.07-0.04-0.09c-0.01-0.03-0.03-0.07-0.05-0.1l-0.04-0.05l-0.05,0.02c-0.03,0.01-0.13,0.05-0.22,0.07
		C14.17,2.95,14.08,2.99,14.05,3c-0.03,0.02-0.07,0.03-0.08,0.02c-0.01,0.01-0.03,0.01-0.06,0.01c-0.06,0.01-0.12,0.03-0.23,0.08
		c-0.05,0.02-0.1,0.04-0.12,0.04s-0.04,0.02-0.05,0.03c-0.02,0.02-0.34,0.14-0.44,0.17c-0.09,0.02-0.22,0.04-0.32,0.04
		c-0.04,0-0.09,0-0.12,0.01c-0.05,0.02-0.06,0.02-0.11,0.02c-0.03,0-0.05,0.01-0.08,0.03c-0.02,0.02-0.06,0.04-0.07,0.04
		c-0.02,0-0.03,0.02-0.04,0.05c-0.01,0.02-0.02,0.05-0.03,0.05c-0.02,0.01-0.06,0.07-0.07,0.12c0,0.02-0.02,0.06-0.03,0.08
		c-0.01,0.02-0.02,0.04-0.02,0.06c0,0.02,0,0.05-0.01,0.06c-0.01,0.01-0.03,0.06-0.05,0.1c-0.03,0.06-0.05,0.08-0.11,0.14
		c-0.04,0.03-0.13,0.09-0.14,0.1c-0.04,0.02-0.08,0.05-0.09,0.07c0,0.01-0.04,0.03-0.06,0.04c-0.04,0.02-0.24,0.17-0.32,0.25
		c-0.01,0.01-0.04,0.03-0.05,0.03c-0.02,0.01-0.04,0.03-0.11,0.09c-0.02,0.02-0.06,0.05-0.09,0.07c-0.03,0.02-0.06,0.06-0.09,0.09
		C11.03,4.92,11.01,4.94,11,4.94c-0.02,0-0.1,0.08-0.12,0.11c-0.01,0.02-0.02,0.03-0.03,0.03c-0.01,0-0.04,0.02-0.06,0.04
		l-0.04,0.04h-0.07c-0.04,0-0.09-0.02-0.11-0.03c-0.03-0.01-0.07-0.02-0.2-0.02h-0.22c-0.02,0-0.05-0.01-0.07-0.02
		c-0.02-0.01-0.04-0.01-0.06-0.01S9.98,5.07,9.97,5.07c0-0.01-0.04-0.02-0.09-0.03c-0.07-0.02-0.09-0.01-0.11,0
		c-0.01,0-0.05,0-0.12-0.01C9.6,5.02,9.52,5.01,9.47,5.01s-0.09,0-0.1-0.01C9.36,4.99,9.34,5,9.28,5.02c-0.06,0.02-0.07,0.02-0.09,0
		c-0.05-0.04-0.14-0.1-0.18-0.11C8.99,4.9,8.98,4.89,8.96,4.89C8.96,4.88,8.94,4.88,8.9,4.88C8.83,4.87,8.81,4.86,8.81,4.84
		c0-0.01,0-0.02-0.01-0.03C8.79,4.8,8.79,4.79,8.79,4.77c0.01-0.04,0.05-0.09,0.07-0.09s0.11-0.08,0.12-0.1
		c0-0.01,0.02-0.05,0.04-0.07c0.02-0.02,0.03-0.05,0.03-0.06c0-0.01,0.03-0.04,0.05-0.06c0.03-0.03,0.04-0.05,0.04-0.06
		c0-0.01,0.02-0.02,0.03-0.03c0.01-0.01,0.02-0.03,0.02-0.04s0.02-0.02,0.03-0.03C9.23,4.22,9.24,4.21,9.24,4.2
		c0-0.01,0.02-0.03,0.04-0.04C9.3,4.14,9.31,4.13,9.31,4.12c0-0.01,0.02-0.03,0.05-0.05c0.03-0.02,0.05-0.04,0.05-0.05
		c0-0.02,0.03-0.05,0.05-0.05c0.01,0,0.02-0.01,0.02-0.02c0-0.01,0.02-0.02,0.03-0.03C9.55,3.9,9.65,3.79,9.65,3.78
		c0-0.01,0.01-0.01,0.02-0.01c0.01,0,0.02-0.02,0.02-0.03C9.7,3.74,9.7,3.72,9.71,3.72c0.01,0,0.07-0.06,0.15-0.14l0.11-0.11
		c0.02-0.02,0.08-0.08,0.13-0.12c0.05-0.04,0.12-0.11,0.15-0.14c0.07-0.07,0.16-0.15,0.22-0.2c0.07-0.05,0.13-0.12,0.14-0.14
		c0-0.01,0.01-0.03,0.02-0.03c0.01,0,0.03-0.01,0.05-0.03c0.04-0.04,0.13-0.12,0.19-0.16c0.03-0.02,0.07-0.05,0.09-0.07
		c0.02-0.02,0.05-0.04,0.06-0.04c0.01,0,0.01-0.01,0.01-0.02s0.02-0.02,0.04-0.04c0.03-0.02,0.05-0.04,0.05-0.05
		s0.03-0.02,0.04-0.03c0.01-0.01,0.02-0.02,0.02-0.03c0-0.01,0.02-0.01,0.04-0.02s0.03-0.01,0.03-0.02c0-0.01,0.09-0.1,0.12-0.12
		c0.01-0.01,0.02-0.01,0.02-0.02c0-0.01,0.03-0.04,0.06-0.08c0.09-0.09,0.17-0.21,0.31-0.44c0.13-0.21,0.15-0.26,0.15-0.27
		s0-0.02,0.01-0.03c0.01-0.01,0.03-0.03,0.04-0.06c0.01-0.03,0.05-0.09,0.07-0.13c0.01-0.02,0.08-0.15,0.13-0.25s0.1-0.19,0.11-0.2
		c0.01-0.01,0.02-0.03,0.02-0.04s0.01-0.03,0.02-0.03c0.02-0.01,0.11-0.2,0.11-0.22c0-0.01,0.01-0.02,0.02-0.03
		c0.01-0.01,0.02-0.03,0.02-0.04c0-0.02,0.01-0.03,0.03-0.04c0.03-0.02,0.05-0.06,0.07-0.14c0.01-0.03,0.02-0.07,0.03-0.07
		c0.01,0,0.02-0.02,0.03-0.04c0.01-0.02,0.02-0.03,0.02-0.02c0,0.01,0.02,0.01,0.06-0.02c0.03-0.03,0.03-0.03,0.02-0.01
		c0.01,0,0.02-0.01,0.02-0.02C12.74-0.01,12.76,0,12.8,0.05z"/>
</g>
</svg>
