<?xml version="1.0" encoding="utf-8"?>
<!-- Generator: Adobe Illustrator 25.0.0, SVG Export Plug-In . SVG Version: 6.00 Build 0)  -->
<svg version="1.1" id="Layer_1" xmlns="http://www.w3.org/2000/svg" xmlns:xlink="http://www.w3.org/1999/xlink" x="0px" y="0px"
	 viewBox="0 0 10.53 10.9" style="enable-background:new 0 0 10.53 10.9;" xml:space="preserve">
<style type="text/css">
	.st0{fill:#68424B;}
</style>
<g>
	<path class="st0" d="M9.99,4.65c0.02,0.06-0.05,0.12-0.08,0.1c0.11,0.11,0.01,0.13,0.19,0.12c0.09,0.08-0.02,0.17-0.1,0.09
		l0.12,0.23l0.02-0.14c0.15,0.03-0.03,0.23,0.14,0.27l-0.03-0.26l0.05,0.01c-0.06-0.06-0.04-0.18-0.02-0.22c0.03,0,0.07,0,0.07,0.04
		c-0.03-0.33-0.27-0.06-0.36-0.3C10,4.6,10,4.62,9.99,4.65z"/>
	<path class="st0" d="M10.31,4.32L10.1,4.25l0-0.19c-0.06,0.02-0.15-0.1-0.18,0.01c0.01,0.01,0.04,0.04,0.04,0.07
		C9.82,4.15,9.83,3.93,9.7,4.02c0.08,0.12,0.05,0.15,0.18,0.2C9.9,4.35,9.9,4.45,9.86,4.52c0.03,0.03,0.11,0.02,0.14,0.07L9.98,4.55
		l0.21-0.04c-0.05-0.03-0.03-0.08-0.05-0.12c0.1,0.05,0.19,0.11,0.28,0.18c0.19-0.11,0.03-0.32,0.08-0.42
		C10.36,4.29,10.4,4.08,10.31,4.32z"/>
	<path class="st0" d="M9.99,4.58L9.99,4.58L9.99,4.58z"/>
	<path class="st0" d="M3.13,7.13c0.02,0.02,0.07,0,0.09-0.01C3.14,7.03,3.09,6.92,3.03,6.83C2.98,6.86,2.98,6.99,2.91,6.94
		C2.88,7,2.97,7.06,3.04,7.03L2.96,7.05c0.13,0.01-0.01,0.18-0.1,0.17l0.01,0.01C3.03,7.22,3.19,7.2,3.35,7.17
		C3.32,7.09,3.2,7.21,3.13,7.13z"/>
	<path class="st0" d="M8.98,5.88c0.01,0.05,0.03,0.06,0.05,0.06C9.02,5.92,9.01,5.9,8.98,5.88z"/>
	<path class="st0" d="M3.45,7.15L3.6,7.11C3.55,7.11,3.5,7.13,3.45,7.15z"/>
	<path class="st0" d="M1.46,7.78c-0.01,0-0.01,0.01-0.02,0.01L1.53,7.8l0,0L1.46,7.78z"/>
	<path class="st0" d="M4.84,7.55c0.01,0,0.01,0,0.02,0C4.85,7.55,4.84,7.55,4.84,7.55z"/>
	<path class="st0" d="M0.18,6.52l0.19,0.25C0.3,6.75,0.35,6.88,0.27,6.84c0.01,0.02,0.06,0.11,0.09,0.08L0.34,6.86
		c0.21,0.09,0.24-0.01,0.45,0.17c0.05-0.17-0.06-0.2-0.15-0.25C0.61,6.75,0.6,6.73,0.59,6.72L0.3,6.55L0.18,6.52z"/>
	<path class="st0" d="M8.45,8.67l0.01,0.01C8.46,8.67,8.45,8.67,8.45,8.67z"/>
	<path class="st0" d="M8.49,8.73L8.46,8.68C8.47,8.71,8.45,8.76,8.49,8.73z"/>
	<path class="st0" d="M3.35,7.2c0.03-0.02,0.06-0.04,0.1-0.05L3.35,7.17C3.35,7.18,3.35,7.19,3.35,7.2z"/>
	<path class="st0" d="M2.97,7.33l-0.11-0.1l-0.1,0C2.82,7.27,2.88,7.3,2.97,7.33z"/>
	<path class="st0" d="M4.73,7.4c0.2,0.07-0.13,0.16-0.06,0.25c0.07,0.01,0.13-0.08,0.17-0.1c-0.19,0.02,0.14-0.28-0.02-0.3
		C4.9,7.1,4.98,7.11,5.01,7.17C5,7.35,4.92,7.27,4.85,7.43c0.07,0,0.07-0.04,0.13-0.12c0.08,0.08,0.24-0.15,0.23,0.1
		c0.07-0.02,0.09-0.1,0.14-0.19c0.04-0.18-0.07-0.11-0.06-0.26c0,0.02,0,0.05-0.01,0.07L5.25,6.99c0.03,0.07-0.05,0.17-0.08,0.18
		c-0.02,0-0.06,0-0.04-0.05l0.04-0.03c-0.02-0.06-0.12,0.1-0.13-0.01c0.01-0.04,0.03-0.05,0.04-0.08C5,7.11,4.95,7.09,4.86,7.14
		l0.11-0.15C4.84,7.15,4.74,7.04,4.73,6.91c-0.01,0.03,0,0.06-0.03,0.08C4.63,7,4.66,6.88,4.74,6.81c-0.13,0.1-0.06-0.2-0.23-0.09
		C4.23,6.89,3.93,7.02,3.6,7.11c0.03,0,0.05,0,0.07,0.01C3.58,7.25,3.61,7.26,3.45,7.3c0.11,0,0.19-0.11,0.26-0.04
		C3.63,7.29,3.48,7.41,3.55,7.5c0.32,0.08,0.72-0.18,1-0.28C4.49,7.33,4.64,7.38,4.69,7.43C4.61,7.53,4.54,7.54,4.47,7.54
		C4.5,7.56,4.56,7.59,4.6,7.62L4.73,7.4z"/>
	<path class="st0" d="M4.08,7.48c0,0.01,0,0.02,0,0.03C4.08,7.5,4.08,7.49,4.08,7.48z"/>
	<polygon class="st0" points="4.46,7.52 4.45,7.53 4.47,7.54 	"/>
	<path class="st0" d="M3.18,7.42C3.14,7.43,3.13,7.43,3.09,7.44l0.05,0.01C3.16,7.45,3.17,7.44,3.18,7.42z"/>
	<path class="st0" d="M3.31,7.24l0.04-0.02c0-0.01,0-0.01,0-0.02C3.33,7.21,3.31,7.23,3.31,7.24z"/>
	<path class="st0" d="M5.37,8.7l0.03-0.03C5.39,8.68,5.38,8.69,5.37,8.7z"/>
	<path class="st0" d="M4.87,7.68C4.8,7.66,4.8,7.85,4.69,7.81l0.03,0.02C4.61,7.88,4.49,7.77,4.39,7.74
		c0.04-0.06-0.01-0.11,0.06-0.2C4.38,7.52,4.31,7.51,4.22,7.59C4.2,7.54,4.09,7.58,4.08,7.51c-0.02,0.07-0.2,0.14-0.04,0.15
		C4.02,7.67,4.02,7.68,4,7.68C4.02,7.82,4.15,7.7,4.21,7.74c0.01,0.08-0.12,0.05-0.1,0.1c0.11,0,0.24,0.23,0.35,0
		C4.53,7.85,4.51,7.9,4.51,7.95c0.2-0.2,0.35,0.26,0.45-0.08C4.93,7.88,4.87,7.85,4.79,7.9L4.87,7.68z"/>
	<path class="st0" d="M3.31,7.54c0,0.01,0.01,0.01,0.01,0.02L3.31,7.54z"/>
	<path class="st0" d="M3.58,6.11L3.8,6.06c0.11,0.11,0.07,0.19,0.15,0.3C3.92,6.38,3.9,6.38,3.89,6.38C3.95,6.45,4,6.59,4.12,6.58
		C4.13,6.6,4.14,6.7,4.07,6.73c0.03,0,0.05,0,0.06,0.01C4.07,6.8,4.08,6.73,4.03,6.77c0.01,0.01,0,0.03,0.02,0.01
		c-0.07,0.03-0.19,0.2-0.27,0.11C3.9,6.74,3.85,6.94,4,6.79C3.97,6.76,3.91,6.81,3.89,6.83c-0.03-0.04,0.02-0.07,0.05-0.1
		C3.88,6.75,3.92,6.65,3.82,6.69C3.75,6.62,3.95,6.6,3.92,6.55l-0.2,0.09L3.7,6.53c-0.15-0.1-0.3,0.21-0.51,0.09
		C3.3,6.6,3.43,6.44,3.44,6.35C3.47,6.39,3.62,6.41,3.6,6.49c0.1-0.16,0.08,0.09,0.22-0.04C3.73,6.46,3.67,6.41,3.7,6.34l0.02,0.01
		c0-0.06-0.22-0.01-0.18-0.12C3.52,6.19,3.58,6.18,3.62,6.16C3.58,6.14,3.54,6.13,3.58,6.11z M3.65,6.18l0,0.06
		C3.68,6.21,3.67,6.19,3.65,6.18z"/>
	<path class="st0" d="M9.71,2.89l0,0.04C9.72,2.92,9.71,2.9,9.71,2.89z"/>
	<path class="st0" d="M1.5,3.01l0.04-0.05C1.52,2.98,1.51,3,1.5,3.01z"/>
	<path class="st0" d="M1.91,1.35l0.05-0.11C1.93,1.27,1.92,1.31,1.91,1.35z"/>
	<polygon class="st0" points="9.27,2.26 9.27,2.26 9.25,2.25 	"/>
	<path class="st0" d="M4.97,0.39C4.99,0.41,5,0.42,5.03,0.43C5.02,0.41,5,0.4,4.97,0.39z"/>
	<polygon class="st0" points="1.9,1.37 1.91,1.37 1.91,1.35 	"/>
	<path class="st0" d="M0.65,3.38c0,0.02,0,0.03,0,0.05C0.66,3.41,0.66,3.39,0.65,3.38z"/>
	<path class="st0" d="M1.24,3.51c0,0.02,0,0.03,0.01,0.05L1.24,3.51z"/>
	<path class="st0" d="M0.49,5.76l0.04,0.09C0.52,5.81,0.51,5.78,0.49,5.76z"/>
	<path class="st0" d="M1.03,3.68L1.05,3.7C1.05,3.69,1.04,3.68,1.03,3.68z"/>
	<polygon class="st0" points="9.39,3.64 9.39,3.63 9.37,3.64 	"/>
	<path class="st0" d="M9.75,3.69l0.04,0.06C9.78,3.72,9.77,3.7,9.75,3.69z"/>
	<path class="st0" d="M6.25,0.71c0.02,0.03,0.07,0.08,0.04,0.11C6.34,0.78,6.35,0.68,6.25,0.71z"/>
	<path class="st0" d="M8.07,3.97C8.1,3.96,8.13,3.96,8.15,3.96C8.11,3.96,8.08,3.96,8.07,3.97z"/>
	<path class="st0" d="M8.15,3.96l0.06,0C8.19,3.96,8.17,3.96,8.15,3.96z"/>
	<path class="st0" d="M5.68,2.43c0-0.01-0.01-0.03-0.02-0.03C5.67,2.43,5.67,2.44,5.68,2.43z"/>
	<path class="st0" d="M9.78,3.82c0.05-0.01,0.26,0.26,0.2,0c0.15-0.04,0.13,0.14,0.18,0.2c0.02-0.06,0.1,0,0.15-0.03
		c-0.03-0.03-0.08-0.06-0.09-0.12c0.06-0.05,0.14,0.03,0.13,0.11c0.06-0.11,0.15,0.08,0.18-0.07c-0.14-0.26-0.26-0.43-0.55-0.51
		c0.11,0.12,0.2,0.27,0.19,0.41l-0.15,0c0.06-0.17-0.04-0.23-0.09-0.35c0.03,0.1,0.03,0.21,0.05,0.31c-0.06,0.17-0.12,0.09-0.18,0
		C9.8,3.78,9.8,3.8,9.78,3.82z"/>
	<polygon class="st0" points="8.61,4.09 8.61,4.1 8.62,4.1 	"/>
	<path class="st0" d="M3.24,5.52l0.05,0.01C3.26,5.52,3.25,5.52,3.24,5.52z"/>
	<path class="st0" d="M9.15,3.7L9.15,3.7L9.15,3.7z"/>
	<path class="st0" d="M3.24,5.17l0.01,0L3.24,5.17z"/>
	<path class="st0" d="M0.33,4.79l-0.02,0C0.32,4.81,0.32,4.8,0.33,4.79z"/>
	<path class="st0" d="M3.23,5.17l0.01,0L3.23,5.17z"/>
	<path class="st0" d="M3.53,3.3c0,0-0.02-0.01-0.04-0.02C3.49,3.29,3.5,3.3,3.53,3.3z"/>
	<path class="st0" d="M3.11,3.49l-0.02,0L3.11,3.49z"/>
	<path class="st0" d="M6.16,0.09c-0.04,0-0.06,0-0.08,0C6.1,0.09,6.13,0.09,6.16,0.09z"/>
	<path class="st0" d="M3.26,5.18C3.27,5.18,3.28,5.19,3.3,5.19C3.28,5.18,3.27,5.18,3.26,5.18z"/>
	<polygon class="st0" points="3.6,2.33 3.6,2.35 3.61,2.35 	"/>
	<path class="st0" d="M3.87,2.28c0,0.02,0.01,0.03,0.01,0.05C3.93,2.23,4.1,2.2,4.06,2.07C4.03,2.08,3.84,2.08,3.83,2
		c-0.04,0.07-0.18,0.03-0.2,0.07c0.14,0.01,0.07,0.1,0.04,0.18c-0.08,0-0.05-0.1-0.12-0.1L3.43,2.26l0.12-0.07L3.6,2.33l0-0.02
		C3.76,2.13,3.73,2.47,3.87,2.28z"/>
	<path class="st0" d="M3.88,2.32C3.87,2.34,3.87,2.35,3.87,2.37C3.89,2.36,3.88,2.34,3.88,2.32z"/>
	<path class="st0" d="M4.74,2.19c0.01-0.01,0.02-0.02,0.03-0.03C4.76,2.17,4.75,2.18,4.74,2.19z"/>
	<path class="st0" d="M2.73,7.13C2.76,7.1,2.77,6.96,2.68,7.01l0.03,0.11L2.73,7.13z"/>
	<path class="st0" d="M7.15,1.71C7.14,1.71,7.12,1.7,7.11,1.7L7.1,1.71C7.1,1.73,7.13,1.72,7.15,1.71z"/>
	<path class="st0" d="M3.84,1.93C3.82,1.96,3.82,1.98,3.83,2C3.84,1.98,3.84,1.96,3.84,1.93z"/>
	<path class="st0" d="M7.06,1.95c0.01,0.03,0.01,0.09,0,0.13C7.1,2.09,7.14,2.05,7.18,2.05C7.14,2.05,7.1,2.01,7.06,1.95z"/>
	<path class="st0" d="M7.19,2.05L7.19,2.05L7.19,2.05z"/>
	<path class="st0" d="M2.73,7.22l0.04,0.02l-0.03,0l0.02,0.09c0.01,0,0.02,0.01,0.04,0.02c-0.01,0-0.02,0-0.03,0.01l0.01,0.03
		c0.13-0.01,0.29,0.08,0.37,0.07C3.21,7.46,3.28,7.5,3.31,7.54C3.28,7.51,3.22,7.48,3.19,7.53C3.2,7.63,3.1,7.81,3.33,7.8L3.26,7.74
		C3.36,7.73,3.47,7.72,3.57,7.7C3.55,7.83,3.42,7.73,3.34,7.77C3.53,7.79,3.43,8.12,3.62,8C3.55,8.1,3.45,8.28,3.55,8.34
		C3.56,8.17,3.65,8.3,3.68,8.14c0.07-0.03,0.07,0.11,0.13,0.03L3.78,8.21c0.06,0.26,0.27,0.04,0.37-0.02
		c0.21,0.04,0.26,0.16,0.43,0.2C4.55,8.47,4.53,8.7,4.6,8.71c0.07-0.09,0.24-0.1,0.28-0.24c-0.1-0.09-0.13,0.09-0.21,0.1
		C4.66,8.42,4.71,8.44,4.66,8.33c0.04,0.09,0.3,0,0.34,0.16L4.97,8.5c0.09,0.11,0.06,0.45,0.3,0.28L5.37,8.7
		c0,0.01-0.01,0.03-0.01,0.04c0.16,0.02,0.11,0.18,0.29,0.06C5.64,8.81,5.65,8.83,5.63,8.84c0.1,0.09,0.21-0.09,0.28-0.12
		c0.05,0.12,0,0.12-0.03,0.2c0.19,0.04,0.37-0.2,0.44-0.35C6.36,8.59,6.4,8.6,6.44,8.61c-0.05,0.07-0.11,0.2-0.08,0.27
		C6.42,8.85,6.4,8.79,6.49,8.79c0,0.08-0.02,0.16-0.05,0.26c0.23,0.07-0.02-0.27,0.17-0.08c0.06-0.01,0.07-0.13,0.05-0.22
		c0.05,0.03,0.09,0.06,0.14,0.08c-0.02-0.12,0.1-0.17,0.17-0.21C6.97,8.57,6.87,8.53,6.86,8.58C6.83,8.5,6.9,8.43,6.95,8.41
		c0.12,0.22,0.32-0.19,0.39,0.1c0.2-0.19,0.49-0.43,0.55-0.62c0.08,0.01,0.17-0.06,0.2,0.07c0.17-0.14,0.05-0.4,0.23-0.51
		c0.04,0.01-0.06,0.07,0.01,0.12c0.01-0.16,0.24-0.13,0.3-0.35C8.62,7.25,8.66,7.29,8.67,7.31C8.64,7.29,8.65,7.18,8.64,7.12
		c0.03-0.02,0,0.05,0.04,0.05c0.32-0.31,0.15-0.74,0.24-1.1C8.89,6.18,9.03,6.26,9.1,6.28l0.03-0.11C9.06,6.11,9.09,6.03,9.04,5.94
		c0.03,0,0.07-0.03,0.1,0.01c0.2-0.21-0.25-0.38-0.15-0.63c0.1,0.11,0.21,0.22,0.31,0.35l0.12-0.08c0.05,0.06,0.1,0.11,0.13,0.17
		c0.1-0.09-0.1-0.19,0.02-0.19C9.6,5.6,9.58,5.65,9.65,5.65C9.7,5.56,9.61,5.55,9.59,5.48c0.25,0.2,0.19,0.6,0.2,0.82
		C9.8,6.33,9.74,6.25,9.72,6.24C9.7,6.32,9.62,6.35,9.63,6.47c0.08,0.09,0.09-0.03,0.11-0.08c0.09,0.03,0.07,0.06,0.07,0.12
		C9.7,6.49,9.67,6.81,9.5,6.83C9.42,7.14,9.82,6.91,9.64,7.18L9.47,7.2c0.02,0.21-0.03,0.47-0.18,0.64L9.32,7.8
		C9.29,7.74,9.23,7.76,9.19,7.76C9.05,7.85,9.1,8.07,8.93,8.06c0,0.23-0.14,0.54-0.26,0.74c-0.16-0.1,0.11-0.3,0.09-0.45
		C8.71,8.39,8.66,8.43,8.61,8.47C8.7,8.39,8.68,8.31,8.65,8.19C8.52,8.28,8.59,8.43,8.5,8.57C8.48,8.52,8.44,8.51,8.39,8.56
		l0.06,0.11c-0.01-0.01-0.02-0.01-0.04,0L8.23,8.89C8.31,8.9,8.38,8.99,8.44,8.94C8.37,8.9,8.42,8.85,8.48,8.81
		c0,0.1,0.1,0.01,0.14,0.06C8.49,8.96,8.35,9.08,8.29,9.17L8.2,9.1C8.06,9.15,7.96,9.28,7.86,9.3l0-0.07
		C7.69,9.29,7.56,9.42,7.38,9.39C7.29,9.56,7.14,9.73,7.05,9.9c-0.04,0.16-0.5-0.05-0.65,0.16c-0.01-0.01,0.11-0.13,0.16-0.19
		c-0.12,0-0.19,0.19-0.25,0.04c0.27,0.01-0.03-0.12,0.08-0.18C6.28,9.75,6.15,9.8,6.1,9.86c0.2-0.02-0.05,0.22,0.15,0.13
		c-0.14,0.15-0.37,0.21-0.57,0.17c0-0.07-0.02-0.1-0.09-0.13l-0.06,0.09c-0.09-0.02,0.18-0.11,0-0.15c-0.2,0.16-0.54-0.14-0.67,0.14
		c-0.12-0.14,0.29-0.08,0.1-0.26c0.14-0.09,0.28,0.06,0.34-0.09C5.17,9.8,5.26,9.63,5.19,9.62L5.05,9.7l0.03,0.01
		c-0.24,0.12-0.57-0.03-0.84-0.1c-0.27,0.07-0.53,0.2-0.8,0.05C3.56,9.62,3.26,9.47,3.5,9.41C3.42,9.28,3.27,9.29,3.23,9.34
		c0.09,0.08,0.03,0.04,0.1,0.12C3.23,9.5,3.09,9.41,3.06,9.33c0.02,0.02,0.02,0,0.04-0.02C3.01,9.19,3,9.35,2.89,9.31
		C2.93,9.2,2.72,9.14,2.68,9.04L2.47,9.07c0.13-0.03-0.08-0.12-0.03-0.21C2.32,8.85,2.15,8.89,2.07,8.75
		c0.08,0.01-0.04-0.16,0.04-0.23c-0.1-0.25-0.5-0.16-0.53-0.46c0.03-0.01,0.11,0,0.09-0.08C1.61,7.94,1.57,7.84,1.53,7.8l0,0l0,0
		C1.51,7.77,1.48,7.76,1.46,7.78c-0.15-0.04-0.27-0.04-0.44-0.2c-0.1,0.07,0.02,0.22,0.1,0.27l0.14,0C1.13,8,1.39,8.01,1.36,8.08
		c-0.26,0-0.41-0.37-0.62-0.53C0.64,7.75,0.77,8.07,0.94,8.3l0-0.15l0.08,0.13l0.04-0.19c0.05,0.13,0.14,0.22,0.21,0.32
		C1.17,8.29,1.29,8.15,1.31,8.24C1.3,8.43,1.47,8.33,1.54,8.43C1.5,8.36,1.46,8.29,1.55,8.3C1.57,8.57,1.68,8.57,1.7,8.83
		c0.13-0.15,0.2,0.19,0.34,0.09L1.99,8.84C2.07,8.86,2.14,8.89,2.22,8.9c0.03,0.25-0.24,0-0.11,0.29c0.19,0.2,0.32,0.04,0.5,0.15
		C2.49,9.4,2.28,9.37,2.16,9.25L2.2,9.36C2.11,9.38,1.93,9.2,1.85,9.1c0.24,0.05-0.04-0.1-0.02-0.24c-0.1,0.07,0,0.15-0.17,0.1
		c0.1,0.11,0.12,0.12,0.22,0.28C1.65,8.92,1.33,9.25,1.17,8.9C1.31,9,1.26,8.75,1.29,8.7c-0.06-0.05-0.18-0.17-0.24-0.2l-0.1,0.14
		c-0.19-0.14,0.08-0.4-0.2-0.52C0.65,8.14,0.84,8.33,0.8,8.3C0.53,8.06,0.72,7.81,0.71,7.5c-0.05,0-0.15,0.05-0.27-0.01
		c0.11-0.01,0.12-0.1,0.24-0.02c0-0.11-0.11-0.19-0.17-0.25c0.02,0.21-0.17-0.03-0.24-0.05c-0.02-0.11,0.11,0,0.16,0.05
		c0-0.09,0.1-0.23-0.06-0.23c0.1-0.03,0.34,0.14,0.42,0.26l-0.02-0.1c0.08,0.05,0.06,0.06,0.08,0.16C0.9,7.19,0.98,7.16,1.06,7.16
		c-0.01,0.02-0.03,0-0.04,0.02c0,0.08,0.05,0.13,0.1,0.09c0.16,0.01,0.04-0.13,0.09-0.21l-0.07-0.1C0.96,6.89,0.77,6.81,0.59,6.72
		C0.5,6.55,0.58,6.45,0.62,6.3L0.5,6.29c-0.01-0.16,0-0.31,0.17-0.23C0.63,6.07,0.64,6.09,0.64,6.12c0.02,0,0.03,0.01,0.04,0.02
		l0.02,0C0.64,5.99,0.6,5.9,0.59,5.88c0.22,0.25,0.22-0.01,0.45,0.01C1,5.81,0.98,5.72,0.95,5.64C0.89,5.8,0.84,5.65,0.81,5.59
		c0.12-0.02-0.01-0.21,0.01-0.31l0.02,0.01c0.05-0.09,0.04-0.23,0.01-0.34c-0.04,0-0.24-0.15-0.34-0.24
		C0.44,4.9,0.41,4.78,0.33,4.79c0.01-0.02,0.02-0.06,0-0.06C0.3,4.69,0.28,4.76,0.24,4.76C0.28,4.99,0.29,5.21,0.45,5.3
		c0.08-0.06-0.07-0.11-0.01-0.18c0.11,0.11,0.08,0.24,0.09,0.41l-0.1,0.06l0.07,0.17C0.44,5.69,0.33,5.74,0.3,5.56
		C0.2,5.58,0.33,5.74,0.31,5.86l0.14,0.04C0.37,5.89,0.39,6.14,0.26,5.98C0.21,5.88,0.17,5.79,0.13,5.69L0.04,5.78L0,5.53l0.07,0.06
		c-0.11-0.41,0.26-0.12,0.11-0.52C0.03,4.93,0.01,4.78,0.09,4.54C0.1,4.72,0.2,4.57,0.29,4.65C0.38,4.48,0.26,4.4,0.21,4.29
		C0.3,4.26,0.38,4.25,0.34,4.4c0.18,0.05,0-0.21,0.19-0.19C0.65,3.72,0.04,3.62,0.5,3.09l0.06,0.05c0.08-0.41,0.27-0.58,0.43-0.93
		c0.11-0.05,0.22-0.09,0.33-0.13c-0.02,0.07,0,0.29,0.13,0.28c-0.24,0-0.26,0.16-0.42,0.24c0.04,0.04,0.1,0,0.14,0
		C1.11,2.68,1.01,2.67,0.98,2.79C1.02,2.81,1.12,2.72,1.1,2.82L0.92,2.9C0.88,3.12,1.13,3.12,0.98,3.32C0.9,3.24,0.8,3.09,0.82,2.98
		c-0.07,0.1,0.01-0.17-0.09-0.1c0.07,0.22-0.09,0.24-0.07,0.49C0.64,3.34,0.61,3.32,0.62,3.27L0.45,3.56
		c0.11-0.05,0.01,0.29,0.16,0.3c0.15-0.31,0.05-0.24,0.25-0.57C0.85,3.4,0.93,3.58,1.03,3.68c-0.01,0-0.01,0-0.02,0.01
		c0.11,0.1,0.16,0.06,0.39,0.14c-0.1-0.2,0.05-0.25,0.05-0.45c-0.1-0.09-0.2,0.03-0.2,0.13C1.23,3.44,1.23,3.38,1.23,3.32l0.04,0.05
		C1.35,3.25,1.42,3.13,1.5,3.01c-0.03,0.07,0.02,0.13,0.06,0.2C1.58,3.16,1.63,3.13,1.7,3.1C1.58,3.05,1.51,3,1.54,2.96
		C1.7,2.74,1.88,2.68,2.05,2.69l0.01-0.03C1.93,2.62,1.99,2.38,1.94,2.22c0.1,0.09,0.15-0.05,0.26-0.07
		C2.11,2.03,1.92,1.92,1.76,1.92C1.73,2.16,1.79,2.09,1.89,2.29L1.82,2.6L1.76,2.48c-0.14,0.09-0.08,0.3-0.2,0.2
		C1.51,2.56,1.64,2.48,1.6,2.36L1.49,2.41C1.48,2.17,1.67,2.42,1.71,2.18c-0.15-0.02,0-0.02-0.01-0.15c-0.12,0-0.21,0.34-0.35,0.15
		C1.35,2.01,1.8,2.02,1.74,1.77l0.01,0.02c0.18-0.15,0.14-0.3,0.15-0.42C2.03,1.35,2.07,1.18,2.15,1.1l0.04,0.05
		c0.03-0.04,0.07-0.08,0.1-0.12c0.01,0.14-0.14,0.11-0.23,0.22l0.09,0.08C1.94,1.33,2.01,1.56,2.01,1.71
		c0.04-0.19,0.36-0.29,0.23-0.5l0.16,0.03l0.01-0.07c0.12,0.03,0.14,0.19,0.05,0.3C2.43,1.47,2.41,1.46,2.4,1.44
		c-0.02,0.09,0,0.2-0.13,0.28l0.02-0.11c-0.16,0.13-0.25,0.3-0.2,0.43c0.27-0.22,0.45-0.36,0.63-0.51C2.61,1.27,2.6,1.08,2.49,0.85
		c0.13-0.16,0.36-0.33,0.55-0.34l0.01,0.05C3.13,0.54,3.2,0.5,3.24,0.44C3.35,0.47,3.25,0.59,3.32,0.6l0.21-0.2
		c0.03,0.11-0.18,0.21-0.27,0.27C3.28,0.65,3.3,0.62,3.28,0.61C3.14,0.62,3.04,0.92,2.91,0.8C2.87,0.86,2.95,0.63,2.76,0.73
		C2.6,0.75,2.65,0.91,2.67,0.96C2.7,1.01,2.9,0.91,2.88,1.02c0.09-0.06,0.08-0.16,0.23-0.17C3.02,0.91,2.97,1.1,2.87,1.04
		C2.76,1.26,2.98,1.5,3.06,1.46C2.98,1.39,3.29,1.17,3,1.2c0.03-0.16,0.22-0.29,0.33-0.43l0,0.03L3.5,0.68
		c-0.01,0.04-0.05,0.1-0.02,0.16l0.17-0.28c-0.1,0.17,0.12,0.04,0.21,0.06c-0.01-0.1,0.07-0.21-0.05-0.23
		C3.67,0.37,3.76,0.47,3.67,0.51l0.09-0.2l0.02,0.01l0.04-0.16c0.21-0.07,0.01,0.32,0.23,0.1L3.95,0.11
		c0.32-0.08,0.76,0.03,0.97-0.08C4.87,0.14,4.88,0.31,4.97,0.39C4.87,0.38,4.69,0.4,4.57,0.46C4.54,0.43,4.69,0.21,4.84,0.23
		c-0.13-0.28-0.32,0.24-0.4-0.04c-0.4,0-0.19,0.34-0.54,0.28c0.04,0.13-0.06,0.09-0.03,0.2c0.16,0.17,0.37-0.15,0.59-0.12
		C4.44,0.57,4.41,0.6,4.41,0.62c0.14,0,0.19-0.04,0.27-0.11L4.67,0.5c0.14-0.16,0.12,0.08,0.23,0.12c0.03-0.03,0.17-0.01,0.14-0.1
		l0.19,0.1L5.2,0.48c0.1-0.01,0.13,0.08,0.21-0.01l0-0.13L5.15,0.3c0.13-0.05,0.02-0.13,0.17-0.17C5.16,0.29,5.44,0.2,5.46,0.32
		l0.1-0.08L5.54,0.28c0.08,0.07,0.1-0.06,0.2-0.04c-0.11-0.08-0.2-0.16-0.34-0.06c0.1-0.08,0.32-0.17,0.38-0.17
		c0.12-0.05,0.2,0.05,0.3,0.07c-0.21,0.04,0.04,0.4-0.35,0.29c0.01-0.02,0.04-0.02,0.05,0C5.73,0.2,5.54,0.39,5.46,0.46
		c0.03,0.1-0.06,0.12,0.09,0.17C5.5,0.57,5.67,0.4,5.81,0.49L5.78,0.7l0.19,0.03L5.96,0.74c0.06,0.14,0.21-0.02,0.33,0.08
		c0.11-0.06,0.46,0.06,0.35-0.18C6.73,0.8,6.87,0.66,7.01,0.67L6.87,0.55c0.24-0.09,0.16-0.02,0.39-0.19c0,0.06,0.02,0.12-0.03,0.16
		c0.27,0.1,0.61,0.31,0.84,0.24c0.18,0.1,0.08,0.34,0.37,0.4C8.5,1.17,8.51,0.97,8.63,1.13c0,0.02-0.23,0.02-0.06,0.13
		c0.21-0.04,0.23,0.27,0.45,0.3C9.06,1.66,9.2,1.76,9.09,1.83C9,1.7,8.81,1.57,8.75,1.6c0.07-0.05-0.04-0.12,0.09-0.1
		C8.7,1.28,8.66,1.47,8.53,1.29C8.49,1.32,8.54,1.47,8.6,1.46c-0.1,0.13-0.38-0.17-0.35,0.1C8.41,1.7,8.69,1.45,8.72,1.71
		C8.6,1.74,8.56,1.6,8.38,1.69l0.08,0.14l0.16-0.03L8.59,1.82c0.09,0.3,0.3,0.03,0.54,0.14C9.12,1.77,9.37,1.78,9.35,1.65
		c0.14,0.12,0.21,0.23,0.08,0.35C9.11,1.85,9.28,2.1,8.96,2.01C8.95,2.09,8.74,2.14,8.84,2.27C9.05,2.32,8.9,2.13,9.07,2.23
		c0,0.02-0.01,0.04-0.03,0.05c0.12,0,0.04,0.09,0.19,0.11l-0.04,0c0,0.16,0.18,0.04,0.16,0.19c0.08-0.11,0.13,0,0.23,0.01
		C9.54,2.47,9.65,2.3,9.5,2.12C9.4,2.17,9.37,2.22,9.27,2.18l0.11,0.1c-0.03-0.01-0.07-0.01-0.1-0.02L9.22,2.12
		c0.18,0.09,0.2-0.05,0.33-0.06c0.08,0.16,0.11,0.1,0.15,0.2c-0.12,0.08,0,0.41,0,0.63C9.7,2.86,9.68,2.83,9.67,2.81
		C9.52,2.75,9.61,2.96,9.58,2.98l0.11,0.05C9.67,3.02,9.63,3.01,9.63,3.06c0.09,0.1,0.22,0.02,0.3,0.13c-0.07,0.04-0.23,0-0.23,0.09
		C9.65,3.34,9.52,3.5,9.65,3.62c0.03,0,0.07,0.03,0.1,0.07c-0.01,0-0.01-0.01-0.02-0.01L9.69,3.81c-0.16-0.03,0-0.2-0.17-0.23
		L9.39,3.63c-0.03-0.06-0.12-0.12-0.2-0.13c0.02,0.1,0.06,0.1,0.14,0.2c-0.07,0.05-0.16,0-0.17,0l0.08-0.02
		c0.04-0.17-0.19-0.13-0.26-0.27C8.96,3.39,8.98,3.4,9,3.39C8.83,3.35,8.91,3.14,8.69,3.14l0.08-0.01c-0.1-0.04-0.3-0.1-0.5-0.12
		L8.24,3.04C8.22,3.07,8.19,3.03,8.18,2.99l0,0C8.09,2.98,8,2.97,7.92,2.96C7.92,3,7.91,3.03,7.93,3.06c0.06-0.03,0.11,0.11,0.2,0
		c-0.02,0.1,0.14,0.1,0.13,0.17C8.27,3.1,8.39,3.18,8.46,3.15c-0.05,0.08,0.08,0.1-0.02,0.16C8.43,3.35,8.48,3.23,8.4,3.25
		c-0.14,0,0.02,0.19-0.13,0.16c0.15,0.06,0.21,0.24,0.38,0.3l0-0.09c0.02,0.06,0.11,0.19,0.07,0.23c-0.03-0.04-0.05-0.09-0.1-0.13
		c-0.11,0.06,0.06,0.13,0,0.17l0.28,0.07L8.86,3.88c0.1,0.01,0.07,0.21,0.09,0.33c-0.2,0-0.06-0.18-0.19-0.26
		c-0.1-0.05-0.13,0.12-0.21,0.06c-0.03,0.04,0,0.08,0.05,0.09L8.59,4.14C8.41,4.14,8.37,3.98,8.21,3.96c0.02,0,0.04,0,0.06-0.01
		c0.02-0.1-0.03-0.17-0.1-0.21C8.14,3.8,8.17,3.8,8.2,3.81C8.17,3.83,8.12,3.78,8.07,3.78C8.06,3.87,7.99,3.84,7.99,3.89
		c-0.06-0.01-0.06-0.05-0.08-0.1C7.95,3.73,8,3.76,8.06,3.71C7.99,3.69,8.13,3.56,8,3.55c0.04,0.11-0.16,0.08-0.22,0.09l0.01,0.02
		C7.69,3.69,7.68,3.67,7.73,3.6c0.06,0,0.06,0.06,0.13-0.01C7.84,3.56,7.81,3.54,7.77,3.54l0.07-0.02L7.73,3.42
		C7.65,3.46,7.54,3.52,7.44,3.6c0.03-0.08-0.05-0.06-0.09-0.06l0.03-0.02C7.39,3.43,7.26,3.38,7.2,3.44c0-0.09,0.54-0.16,0.26-0.32
		C7.36,3.05,7.25,3.27,7.15,3.3c0,0,0.02-0.02,0.02-0.03C7.14,3.22,7.09,3.29,7.03,3.3c0,0.04,0.03,0.07,0.06,0.05
		C7.03,3.42,7.03,3.29,6.95,3.34c0.12-0.11-0.05-0.1,0.03-0.15C6.95,3.05,6.79,3.11,6.7,3.2c0.03-0.2-0.11-0.03-0.17-0.14
		C6.55,3.07,6.59,3.05,6.6,3.08c0.1-0.09-0.08-0.1,0.05-0.17c-0.03,0.01-0.03,0.06,0,0.05c0.04,0,0.09-0.03,0.11-0.09
		C6.74,2.82,6.73,2.77,6.71,2.73l0.04-0.02L6.67,2.52C6.65,2.54,6.66,2.58,6.66,2.59C6.52,2.47,6.3,2.5,6.15,2.46
		C6.07,2.79,5.77,2.57,5.66,2.79c0.03-0.1,0.05-0.28,0.03-0.35c0.03-0.01,0.09-0.15,0.15-0.12C5.84,2.37,5.92,2.44,5.86,2.5
		c0.17-0.03-0.01-0.15,0.05-0.28C5.7,2.24,5.58,2.45,5.48,2.54L5.47,2.5L5.39,2.58C5.46,2.6,5.47,2.79,5.38,2.74l0.01-0.01
		C5.33,2.65,5.24,2.77,5.17,2.76L5.14,2.89c-0.07,0.01-0.13-0.2-0.19-0.32C4.82,2.58,4.8,2.79,4.76,2.91
		C4.69,2.83,4.51,2.89,4.55,2.75C4.48,2.88,4.73,3.3,4.44,3.14l0-0.1C4.29,3.15,4.2,3.43,4.08,3.41c-0.15-0.29-0.39-0.1-0.64-0.28
		C3.5,3.17,3.46,3.25,3.48,3.28C3.45,3.27,3.4,3.26,3.43,3.33c0.1-0.02,0.21,0.26,0.21,0.07C3.75,3.6,3.82,3.76,3.73,3.87l-0.1-0.08
		l0.1-0.07C3.64,3.67,3.69,3.63,3.67,3.58c-0.2,0.13-0.22-0.23-0.36-0.02C3.37,3.63,3.35,3.6,3.34,3.67
		c0.01-0.03-0.06-0.08-0.09-0.05l0.06,0.1c-0.23-0.05-0.03-0.2-0.2-0.23c-0.02-0.14,0.05-0.33-0.1-0.41
		C2.84,3.2,3.16,3.41,2.99,3.51L2.92,3.49c0.01,0.08,0.1,0.15,0.14,0.22c-0.04-0.02-0.07-0.02-0.1,0.01
		c0.09,0.17,0.09,0.25,0.22,0.41C3.15,3.85,3.38,4.02,3.4,3.75c0.02,0.06-0.02,0.22,0.13,0.32L3.41,4C3.43,4.1,3.46,4.19,3.39,4.25
		L3.34,4.17c0.03,0.14-0.27,0.11-0.1,0.28c0.02-0.03,0.03-0.05,0.02-0.08c0.04,0.08-0.01,0.14-0.05,0.2l0.18,0.19
		c-0.06-0.02-0.09,0.06-0.18,0C3.08,4.82,3.28,4.91,3.3,4.96C3.15,5.04,3.26,4.87,3.08,4.83c-0.08,0.13-0.05,0.3,0.07,0.38
		C3.18,5.18,3.2,5.17,3.23,5.17c-0.04,0-0.03,0.06-0.04,0.09l0.08,0.02c-0.06,0.05-0.11,0.04-0.17,0C3.08,5.33,3.26,5.38,3.14,5.44
		C3.02,5.36,3.12,5.24,3.06,5.2C3.13,5.38,2.8,5.39,2.92,5.63C2.88,5.64,2.79,5.6,2.8,5.65c0.05,0.11,0.18,0.01,0.28,0.03
		C3.01,5.61,3.06,5.56,3.17,5.51l0.07,0.01C3.2,5.53,3.2,5.58,3.17,5.59l0.14,0c-0.16,0.01-0.26,0.1-0.2,0.16
		c0.1-0.08,0.1-0.06,0.27-0.1c0.18,0.05-0.15,0.12,0.04,0.17C3.38,5.82,3.33,5.75,3.3,5.82c0.01,0.06,0.13,0.02,0.17,0.05
		C3.34,5.86,3.24,5.9,3.08,5.88C3.04,5.78,3.07,5.84,3,5.74l-0.1,0.11C2.87,5.76,2.75,5.8,2.7,5.8C2.59,6.01,2.91,5.9,2.91,6.01
		c0.1,0.03-0.01-0.1,0.1-0.05c0.01,0.1,0.09,0,0.17,0.09l-0.06,0C3.05,6.11,3.15,6.11,3.18,6.14C3.23,6.17,3.6,5.97,3.65,6.1
		C3.62,6.1,3.59,6.11,3.58,6.11C3.22,6.2,2.85,6.26,2.48,6.3c0.07,0.21,0.13,0.45,0.2,0.71C2.52,7.18,2.43,6.93,2.35,6.98L2.34,6.85
		C2.43,6.82,2.48,7.08,2.57,6.9C2.42,6.74,2.48,6.61,2.23,6.48C2.06,6.61,2.36,6.73,2.27,6.92c-0.01-0.06-0.06-0.09-0.1-0.13
		C2.2,6.92,2.23,7.07,2.28,7.22l0.06,0C2.31,7.12,2.3,7.05,2.3,7.04c0.04,0.14,0.21,0.17,0.35,0.1L2.64,7.11l0.07,0.01L2.73,7.22z
		 M9.13,6.17C9.15,6.19,9.16,6.2,9.18,6.21C9.16,6.2,9.15,6.2,9.13,6.17z M1.68,4.78c-0.06,0.19-0.1,0.38-0.12,0.57
		c0.32-0.34,0.57-0.5,0.54-0.01l0.02,0.03C2.15,5.31,2.17,5.2,2.15,5.09c-0.12-0.08-0.47-0.43-0.5-0.44
		C1.56,4.67,1.64,4.74,1.61,4.79L1.68,4.78z M2.22,4.73C2.27,4.64,2.2,4.65,2.14,4.62l0.01,0.11C2.16,4.72,2.18,4.72,2.22,4.73z
		 M2.08,4.62c0,0.01-0.01,0.02-0.02,0.02L2.08,4.62z M2.14,6.56L2.14,6.56l0,0.07C2.15,6.61,2.15,6.59,2.14,6.56z M2.22,6.32
		L2.11,6.33l0,0.07C2.16,6.38,2.2,6.36,2.22,6.32z M2.47,5.66C2.33,5.64,2.32,5.51,2.16,5.51C2.12,5.5,2.11,5.53,2.1,5.56
		c0,0.04,0,0.07-0.01,0.11c0.02,0,0.04,0.01,0.07,0.02c0.02-0.04,0.05-0.07,0.15-0.06C2.1,5.75,2.47,5.7,2.43,5.81
		C2.54,5.82,2.52,5.68,2.47,5.66z M7.98,2.49C7.98,2.51,7.96,2.54,7.95,2.58L7.84,2.6C7.75,2.5,7.79,2.23,7.58,2.33
		c-0.02-0.07,0-0.18,0.02-0.27c0.02,0.02,0.04,0.04,0.06,0.07C8.12,2.1,7.64,2.49,7.98,2.49z M6.61,1.52
		c0.02-0.01,0.03-0.03,0.03-0.03C6.25,1.69,6,1.75,5.83,1.74C5.86,1.85,6,1.94,6.06,2L5.99,2.12l-0.03-0.1L5.85,2.13
		C5.88,2.22,5.96,2.21,6,2.28c0-0.02,0.19-0.15,0.25-0.22L6.12,1.95c0.03,0.04,0.22,0.04,0.3,0.02c0.02-0.07-0.1-0.19-0.14-0.05
		c0-0.1,0.16-0.08,0.08-0.19c0.14-0.08,0.31,0.06,0.38,0.12L6.71,2.01c0.07,0.09,0.12-0.16,0.2-0.04C6.77,1.96,6.87,2.15,6.77,2.12
		c0.01,0.07-0.05,0.16,0.04,0.19C6.97,2.14,6.86,2.47,7,2.33c0.02,0.08-0.1,0.09-0.02,0.17c0.15-0.05,0.18-0.13,0.26-0.26
		C7.15,2.14,7.04,2.35,6.97,2.28c0.09-0.06,0.19-0.11,0.28-0.16C7.24,2.07,7.21,2.05,7.19,2.05c0.04,0,0.09-0.02,0.14-0.05
		c0.03-0.02,0.06-0.04,0.08-0.05C7.3,1.9,7.21,1.85,7.22,1.78l0.05-0.06C7.25,1.63,7.16,1.66,7.11,1.7C7,1.66,6.87,1.73,6.87,1.63
		l0.06-0.05C6.8,1.55,6.78,1.56,6.61,1.52z M2.47,2.8c0.27,0.1,0.51,0.2,0.72-0.09L3.18,2.74C3.43,2.75,3.29,2.33,3.6,2.35
		C3.58,2.5,3.57,2.49,3.63,2.75l0.04-0.13c0.07,0.14,0.1,0.01,0.17-0.03l0.05,0.19C3.82,2.77,3.72,2.82,3.75,2.85
		c0.01-0.04-0.27-0.08-0.3,0.03C3.54,2.96,3.65,2.79,3.71,3c0-0.12,0.09-0.02,0.13-0.11c-0.01,0.11,0.09,0.14,0.1,0.25l0.07-0.1
		C4.04,3.07,3.93,3.21,4.1,3.27c0-0.08,0.14-0.09,0.07-0.2l0.02,0.03c0.09-0.02-0.07-0.18,0.07-0.17c-0.03-0.06-0.08-0.09-0.1-0.05
		C4.14,2.93,4.18,3.01,4.14,3.06C4.05,2.99,4.21,3.02,4.08,2.91C4.01,2.85,3.97,3.08,3.9,2.89l0.09-0.04
		C3.91,2.74,3.98,2.71,3.92,2.62c0.03-0.07,0.16,0.02,0.15-0.11c-0.02-0.09-0.14-0.2-0.01-0.2C4.24,2.45,4.43,2.3,4.52,2.25
		l0.05-0.11C4.53,2.07,4.42,2.21,4.43,2.09l0.12-0.08l0.01,0.05c0.05,0,0.07-0.07,0.1-0.11c-0.01,0.1-0.11,0.1-0.05,0.22
		c0.07,0.01,0.09,0.05,0.13,0.01C4.73,2.2,4.73,2.22,4.73,2.23C4.86,2.26,4.8,2.06,4.82,2.01c0.08-0.21-0.17-0.13-0.2-0.27
		c0.12-0.05,0.25-0.13,0.38-0.17c-0.03,0.05-0.05,0.1-0.03,0.15C5.09,1.77,5,1.83,5.13,1.8C5.1,1.62,5.29,1.65,5.38,1.54
		c0.05,0.07,0.06,0.09-0.04,0.1c0.02,0.12,0.15,0.07,0.2,0.08c0.03-0.03,0.07-0.05,0.1-0.08C5.6,1.58,5.61,1.5,5.7,1.45l0.01-0.03
		c-0.15-0.03-0.4-0.15-0.48-0.01l0.02-0.06c-0.2-0.08-0.34,0.27-0.46,0.07C4.77,1.32,4.74,1.4,4.71,1.27L4.61,1.41l0.01-0.06
		C4.55,1.37,4.48,1.39,4.41,1.43l0-0.03C4.34,1.56,4.3,1.68,4.27,1.77C4.29,1.83,4.3,1.84,4.29,1.89C4.27,1.93,4.25,1.94,4.23,1.94
		l0,0l0,0C4.17,1.95,4.11,1.89,4.04,1.89l0.17-0.1c-0.02-0.1-0.08-0.19-0.2-0.2c0.04-0.02,0.02-0.1-0.03-0.09
		c0,0.03-0.1,0.12-0.02,0.17C3.8,1.78,3.37,1.72,3.23,2.06c0.11-0.22-0.22,0-0.05-0.18c-0.24-0.02-0.03,0.21-0.18,0.3
		C2.96,2.15,3.09,2.13,3.05,2.02C2.77,2.17,2.85,2.53,2.64,2.7l-0.1-0.07C2.51,2.68,2.49,2.74,2.47,2.8z M2.29,3.33L2.25,3.49
		l0.01-0.01l0.02,0.18C2.36,3.59,2.5,3.61,2.51,3.74C2.47,3.71,2.39,3.72,2.39,3.67c-0.1,0.04-0.25,0.19-0.06,0.21
		c-0.09-0.22,0.23,0.06,0.17-0.1C2.57,3.89,2.5,3.92,2.52,4C2.45,3.9,2.31,3.92,2.23,4c0.01,0.05-0.05,0.15-0.03,0.24
		c0.12,0.01,0.16,0.09,0.22-0.01c0.01,0.05,0.02,0.11-0.06,0.16C2.35,4.36,2.35,4.31,2.31,4.3C2.2,4.31,2.19,4.37,2.14,4.39l0,0.08
		c0.01,0,0.03-0.01,0.04-0.01l0.08,0.1C2.23,4.44,2.32,4.52,2.38,4.54C2.25,4.51,2.35,4.6,2.34,4.63L2.5,4.59
		c0.06,0.05-0.13,0.1,0.01,0.11c0.09-0.14,0.08-0.2,0.07-0.34L2.47,4.38C2.44,4.2,2.68,4.34,2.73,4.18
		c-0.07-0.11,0.1-0.24-0.08-0.33C2.7,3.9,2.85,3.83,2.8,3.74C2.68,3.59,2.77,3.39,2.67,3.4C2.64,3.45,2.68,3.57,2.55,3.55l0.03-0.12
		L2.46,3.45C2.51,3.43,2.42,3.39,2.29,3.33z M0.73,6.31L0.73,6.31L0.73,6.31L0.73,6.31z"/>
	<path class="st0" d="M9.41,3.71c0.06,0.02,0.08,0.11,0.17,0.06C9.48,3.81,9.5,3.62,9.41,3.71z"/>
	<path class="st0" d="M9.35,3.86c0.03,0,0.06-0.02,0.08,0.01l-0.06-0.1L9.35,3.86z"/>
	<path class="st0" d="M8.71,4.22C8.8,4.23,8.85,4.25,8.87,4.32c-0.24,0.1-0.11-0.09-0.35-0.04c0.02,0.13,0.25,0.09,0.3,0.2
		C8.92,4.4,8.9,4.15,8.71,4.22z"/>
	<polygon class="st0" points="8.38,4.28 8.46,4.32 8.47,4.31 8.39,4.27 	"/>
	<path class="st0" d="M8.97,1.35C9.01,1.28,8.9,1.3,8.86,1.29C8.88,1.31,8.9,1.36,8.97,1.35z"/>
	<path class="st0" d="M9.44,8.97c0.2-0.24,0.37-0.5,0.53-0.77C9.83,8.43,9.69,8.64,9.44,8.97z"/>
	<path class="st0" d="M6.12,0.72c0.23-0.05,0.35-0.17,0.6-0.16C6.43,0.35,6.27,0.74,6.03,0.56L6.12,0.72z"/>
	<path class="st0" d="M6.27,0.09c0.02,0.15-0.21,0.16-0.18,0.28c0.16-0.03,0.09-0.14,0.24-0.11L6.27,0.09z"/>
	<polygon class="st0" points="6.57,2.73 6.51,2.79 6.55,2.78 	"/>
	<polygon class="st0" points="5.13,0.22 5.15,0.18 5.02,0.15 	"/>
	<path class="st0" d="M5.18,0.15L5.15,0.18L5.18,0.15z"/>
	<polygon class="st0" points="6.42,3.03 6.46,3.08 6.51,3.02 	"/>
	<path class="st0" d="M6.07,2.12l0.07-0.04C6.12,2.08,6.05,2.01,6.07,2.12z"/>
	<polygon class="st0" points="4.37,0.3 4.26,0.39 4.28,0.4 4.38,0.31 	"/>
	<path class="st0" d="M5.59,2.52c0.04,0.12-0.11,0.04-0.03,0.14C5.63,2.63,5.6,2.57,5.59,2.52z"/>
	<path class="st0" d="M4.55,1.9c-0.01,0-0.02,0.01-0.03,0.03C4.54,1.92,4.55,1.91,4.55,1.9z"/>
	<path class="st0" d="M4.55,1.9c0.04-0.01,0.08,0.02,0.1-0.02C4.59,1.84,4.58,1.87,4.55,1.9z"/>
	<path class="st0" d="M4.17,2.08L4.2,2.08c-0.01,0.07,0,0.05,0.01,0C4.25,2.05,4.23,2.02,4.22,2l0-0.05c0,0.02-0.01,0.04-0.01,0.05
		C4.16,2.02,4.14,2.04,4.17,2.08z"/>
	<path class="st0" d="M1.41,1.77C1.57,1.65,1.62,1.63,1.68,1.7c0.14-0.11,0.01-0.2,0.06-0.3C1.61,1.56,1.55,1.56,1.41,1.77z"/>
	<path class="st0" d="M1.74,1.39c0.01-0.02,0.03-0.03,0.05-0.05C1.76,1.36,1.75,1.37,1.74,1.39z"/>
	<polygon class="st0" points="4.92,2.86 4.92,3.01 4.93,2.98 	"/>
	<path class="st0" d="M1.2,1.96c0.03-0.03,0.06-0.07,0.1-0.08C1.24,1.82,1.18,1.99,1.2,1.96z"/>
	<path class="st0" d="M2.96,2.65C3.01,2.68,3.05,2.6,3.09,2.59C3.05,2.61,2.89,2.52,2.96,2.65z"/>
	<path class="st0" d="M1.21,2.62c0.02-0.03,0.1-0.04,0.15,0.02C1.35,2.58,1.25,2.43,1.21,2.62z"/>
	<polygon class="st0" points="2.79,2.82 2.82,2.82 2.84,2.72 	"/>
	<path class="st0" d="M3.95,3.55C3.93,3.42,3.68,3.43,3.71,3.29c-0.2,0.04,0.11,0.1,0.02,0.17C3.8,3.43,3.93,3.51,3.95,3.55z"/>
	<path class="st0" d="M3.73,3.46c-0.01,0-0.02,0.01-0.03,0.02C3.72,3.47,3.72,3.46,3.73,3.46z"/>
	<path class="st0" d="M2.54,4.04C2.54,4.02,2.53,4.01,2.52,4C2.53,4.01,2.53,4.03,2.54,4.04z"/>
	<path class="st0" d="M3.56,3.8L3.5,3.62c0.04,0.13-0.07,0.26,0.08,0.35C3.63,3.93,3.64,3.86,3.6,3.8L3.56,3.8z"/>
	<path class="st0" d="M0.2,4.41L0.15,4.3L0.11,4.42C0.14,4.39,0.25,4.47,0.2,4.41z"/>
	<path class="st0" d="M0.1,4.44l0.01-0.02C0.11,4.42,0.1,4.43,0.1,4.44z"/>
	<path class="st0" d="M2.58,3.77C2.61,3.74,2.62,3.7,2.62,3.65C2.58,3.65,2.51,3.74,2.58,3.77z"/>
	<polygon class="st0" points="0.37,5.09 0.35,4.94 0.35,5.1 	"/>
	<polygon class="st0" points="0.1,5.82 0.07,5.85 0.15,5.97 0.17,5.94 	"/>
	<path class="st0" d="M3.29,5.12c0.02-0.04-0.12-0.1-0.15-0.09c-0.01,0.03,0,0.06,0,0.1C3.27,5.11,3.14,5.1,3.17,5.05L3.29,5.12z"/>
	<path class="st0" d="M3.12,10.04c-0.08,0.05-0.25-0.11-0.21-0.18c0.04-0.01,0.16,0.02,0.12-0.07L2.77,9.88
		c-0.12-0.23,0.3-0.14,0.42-0.15c-0.17-0.14-0.31-0.05-0.5-0.19c0.05,0.06,0.05,0.13,0.06,0.19C2.67,9.85,2.52,9.66,2.38,9.57
		c0.05,0.11-0.04,0.12-0.14,0.12c-0.01-0.01-0.03,0-0.04,0l-0.03,0L2.19,9.7C2.18,9.71,2.17,9.73,2.17,9.76
		c0.14,0.05,0.16,0.22,0.24,0.28c0.06-0.25,0.3,0.13,0.44,0.13l0.13,0.05l0.04,0.03c0,0.03-0.03,0.05-0.12,0.05
		c0.08,0,0.27,0.1,0.28,0.03c0.15,0.07,0.29,0.15,0.45,0.2c0.01,0.01,0.02,0.03,0.03,0.05c0.02-0.01,0.03-0.02,0.03-0.03
		c0.67,0.25,1.39,0.37,2.1,0.35c-0.11-0.01-0.2-0.07-0.3-0.1c0.16-0.15-0.17-0.04-0.12-0.19c0.07-0.05,0.17-0.03,0.23,0.01
		c0.02-0.08-0.06-0.15-0.05-0.24c-0.24-0.11-0.3,0.26-0.55,0.17c0.02-0.09,0.11-0.16-0.05-0.17L5,10.37
		c-0.27,0.06-0.16-0.23-0.36-0.01l0.03-0.13c-0.13,0.07-0.35,0.02-0.48,0l0.01-0.02c-0.38,0.03-0.2-0.03-0.6-0.12
		c0.08-0.02,0.15-0.05,0.23-0.07c-0.1-0.1-0.19,0.03-0.28-0.02c0.02-0.02,0.04-0.12,0.13-0.1c-0.17,0-0.35,0.01-0.54,0
		C3,9.91,3.13,9.98,3.12,10.04z"/>
	<path class="st0" d="M2.69,9.54C2.67,9.52,2.65,9.5,2.62,9.48C2.65,9.51,2.67,9.52,2.69,9.54z"/>
	<path class="st0" d="M5.94,10.89L5.79,10.9C5.84,10.9,5.88,10.9,5.94,10.89z"/>
	<path class="st0" d="M1.95,9.31c0.02,0.11-0.11,0.02-0.16,0.05l0.24,0.22c0.03-0.04,0.09-0.06,0.12-0.1L1.95,9.31z"/>
	<path class="st0" d="M2.05,9.71c0.03-0.02,0.08-0.02,0.13-0.02C2.13,9.65,2.08,9.61,2.04,9.57C2.01,9.6,2,9.64,2.05,9.71z"/>
	<path class="st0" d="M3.76,7.61l0.03,0.02l0.06,0C3.82,7.62,3.79,7.62,3.76,7.61z"/>
	<path class="st0" d="M4.05,8.08C4.05,8,3.96,8.01,3.93,8.01C4,8.05,3.95,8.06,4.05,8.08z"/>
	<polygon class="st0" points="4.4,7.33 4.48,7.33 4.48,7.31 	"/>
	<path class="st0" d="M6.91,10.23c0.02-0.01,0.04-0.02,0.06-0.02C6.94,10.21,6.92,10.22,6.91,10.23z"/>
	<path class="st0" d="M5.79,10.5c0.33,0.13-0.21,0.13-0.11,0.32l0.18-0.07L5.85,10.8l0.22-0.03C6.03,10.69,5.99,10.68,6,10.59
		c0.29,0.02,0.1,0.11,0.33,0.2l0.33-0.07l-0.02,0.03c0.03-0.01,0.04-0.02,0.05-0.04c0.37-0.09,0.73-0.22,1.07-0.37
		c0.16-0.14-0.17-0.11-0.08-0.29c-0.21,0.08-0.55,0.1-0.52,0.27c0-0.03,0-0.08-0.05-0.09l-0.09,0.18l0.14,0.01
		c-0.09,0.19-0.54,0.25-0.63,0.16c0.24-0.09,0.08-0.24,0.43-0.22c-0.03-0.04-0.1-0.11-0.04-0.15C6.54,10.37,6.19,10.33,5.79,10.5z"
		/>
	<path class="st0" d="M9.3,8.92l0.01,0.01C9.3,8.92,9.3,8.92,9.3,8.92z"/>
	<path class="st0" d="M9.18,8.99L9.16,9.25l0.21-0.22l-0.07-0.1c0,0.04-0.03,0.16-0.09,0.15L9.18,8.99z"/>
	<path class="st0" d="M9.06,9.49c0.09-0.14-0.02-0.25-0.12-0.25C9,9.09,9.1,9.31,9.07,9.13C8.99,9.05,8.91,9.21,8.89,9.25L9.06,9.49
		z"/>
	<polygon class="st0" points="8.03,10.05 8.04,9.98 7.94,10.01 	"/>
	<path class="st0" d="M8.04,9.98l0.1-0.03C8.12,9.91,8.09,9.87,8.06,9.85L8.04,9.98z"/>
	<path class="st0" d="M8.41,9.84c0.05-0.01,0.09-0.03,0.15-0.06L8.41,9.84z"/>
	<path class="st0" d="M8.29,9.87L8.3,9.89l0.11-0.05C8.37,9.85,8.33,9.86,8.29,9.87z"/>
	<path class="st0" d="M8.15,9.95c0.06,0.08,0.14,0.17,0.26,0.06L8.3,9.89C8.25,9.91,8.2,9.93,8.15,9.95z"/>
	<polygon class="st0" points="4.74,7.69 4.82,7.65 4.82,7.63 4.74,7.67 	"/>
	<path class="st0" d="M5.05,7.88C5.07,7.87,5.08,7.85,5.1,7.84C5.08,7.84,5.06,7.86,5.05,7.88z"/>
	<path class="st0" d="M5.41,7.23c0.04,0.11-0.1,0.12,0,0.19c0,0.1-0.07,0.21-0.12,0.16c0.02-0.09,0.06-0.05,0.04-0.15
		c-0.05,0.1-0.05,0.03-0.07,0.16C5.19,7.67,5.16,7.76,5.1,7.84C5.19,7.8,5.35,7.96,5.47,7.8c0.07-0.16,0.05-0.39,0.07-0.63
		C5.54,7.12,5.44,7.08,5.41,7.23z"/>
	<path class="st0" d="M5.37,6.99C5.35,6.97,5.34,6.98,5.33,7C5.31,7.08,5.35,6.99,5.37,6.99z"/>
	<path class="st0" d="M6.06,8.79C6.07,8.76,6.14,8.7,6.12,8.65C6.08,8.67,6.04,8.69,6.01,8.71C6.03,8.71,6.05,8.75,6.06,8.79z"/>
	<path class="st0" d="M5.95,8.73l0.05-0.02C5.99,8.7,5.98,8.71,5.95,8.73z"/>
	<path class="st0" d="M6.07,8.81L6.06,8.79C6.06,8.8,6.06,8.81,6.07,8.81z"/>
	<path class="st0" d="M8.82,9.64c0.04,0.05,0.08-0.03,0.1-0.07C8.9,9.59,8.84,9.6,8.82,9.64z"/>
	<path class="st0" d="M10.45,7.07l0.07-0.05C10.49,7.04,10.47,7.04,10.45,7.07z"/>
	<path class="st0" d="M8.95,5.78c-0.01,0-0.02-0.01-0.03-0.01C8.92,5.77,8.93,5.77,8.95,5.78z"/>
	<path class="st0" d="M8.91,5.76C8.86,5.73,8.97,5.64,8.88,5.6l0.03,0.01L8.86,5.54C8.87,5.6,8.84,5.72,8.91,5.76z"/>
</g>
</svg>
