<?xml version="1.0" encoding="utf-8"?>
<!-- Generator: Adobe Illustrator 25.0.0, SVG Export Plug-In . SVG Version: 6.00 Build 0)  -->
<svg version="1.1" id="Layer_1" xmlns="http://www.w3.org/2000/svg" xmlns:xlink="http://www.w3.org/1999/xlink" x="0px" y="0px"
	 viewBox="0 0 18.14 8.82" style="enable-background:new 0 0 18.14 8.82;" xml:space="preserve">
<style type="text/css">
	.st0{fill:#9E5C4C;}
</style>
<g>
	<path class="st0" d="M4.7,0l0.01,0.03c0.02,0.04,0.02,0.09,0,0.11C4.7,0.15,4.69,0.16,4.7,0.17C4.71,0.18,4.71,0.2,4.69,0.23
		C4.68,0.25,4.67,0.32,4.66,0.36C4.65,0.4,4.64,0.47,4.63,0.51C4.6,0.64,4.6,0.68,4.6,0.71c0,0.01-0.02,0.02-0.03,0.03
		C4.55,0.75,4.54,0.77,4.53,0.93c-0.01,0.09-0.01,0.16,0,0.19c0.01,0.04,0.01,0.06,0,0.11c-0.01,0.05-0.01,0.07,0,0.09
		c0.01,0.01,0.01,0.03,0,0.04c0,0.01-0.01,0.05-0.01,0.1s0,0.08-0.01,0.09C4.5,1.55,4.5,1.57,4.5,1.58S4.49,1.6,4.48,1.6
		c-0.01,0-0.01,0.02-0.01,0.04c0,0.03-0.01,0.04-0.03,0.04S4.4,1.71,4.36,1.8C4.3,1.91,4.3,1.91,4.28,1.91c-0.02,0-0.03,0-0.03,0.01
		S4.23,1.95,4.11,2.07C4.09,2.09,4.08,2.11,4.08,2.12c0,0.01-0.01,0.04-0.03,0.08C4.03,2.25,4.01,2.27,3.98,2.28
		C3.94,2.3,3.86,2.38,3.86,2.41c0,0.01-0.01,0.02-0.05,0.03C3.78,2.45,3.76,2.45,3.76,2.46c0,0.02-0.04,0.09-0.05,0.09
		c-0.01,0-0.03,0.01-0.05,0.03C3.64,2.6,3.61,2.63,3.6,2.63c-0.01,0-0.04,0.02-0.06,0.04C3.52,2.69,3.51,2.7,3.5,2.7
		c-0.02,0-0.05,0.05-0.05,0.08c0,0.01,0.01,0.02,0.02,0.03c0.02,0.02,0.08,0.12,0.07,0.13c0,0.01,0.04,0.12,0.15,0.34
		C3.7,3.3,3.71,3.31,3.92,3.32c0.06,0,0.12-0.01,0.13-0.01c0.03-0.01,0.13-0.01,0.13,0c0,0.01,0.01,0,0.03,0h0.08
		c0.03,0,0.07-0.01,0.08-0.01c0.01-0.01,0.03-0.01,0.06,0c0.03,0.01,0.04,0.01,0.05,0c0.01-0.01,0.04-0.01,0.05-0.01
		c0.02,0,0.03-0.01,0.04-0.01c0.01,0,0.02,0,0.03,0.01c0.01,0.01,0.04,0.01,0.07,0c0.07-0.01,0.2-0.02,0.21-0.01
		c0.01,0.01,0.08,0.01,0.66,0c0.25,0,0.32-0.02,0.34-0.05C5.89,3.22,5.89,3.18,5.9,3.15c0.01-0.04,0.02-0.08,0.03-0.11
		c0.01-0.03,0.01-0.07,0.01-0.09c0-0.03,0-0.06,0.01-0.07c0.02-0.02,0.02-0.02,0.01-0.03c-0.01-0.01-0.02-0.02,0-0.04
		c0.01-0.02,0.02-0.04,0.02-0.07s0-0.06,0.01-0.06c0.01,0,0.02-0.02,0.02-0.03c0-0.05,0.02-0.16,0.03-0.17s0.01-0.02,0.01-0.03
		c0.01,0,0.01-0.01,0.01-0.03c0-0.02,0-0.04,0.01-0.05c0.01-0.01,0.01-0.04,0.01-0.06S6.09,2.28,6.1,2.26
		c0.01-0.02,0.01-0.04,0.01-0.05c0-0.01,0-0.04,0.01-0.05c0.01-0.01,0.04-0.15,0.04-0.21c0-0.02,0.01-0.04,0.02-0.05
		C6.19,1.89,6.2,1.88,6.2,1.87c0-0.01,0.01-0.03,0.02-0.04c0.01-0.01,0.02-0.05,0.03-0.09C6.26,1.7,6.26,1.68,6.27,1.68
		c0.01,0,0.02-0.02,0.02-0.05c0-0.06,0.05-0.18,0.08-0.19c0.01,0,0.02-0.02,0.03-0.04c0.01-0.02,0.03-0.07,0.05-0.11
		C6.49,1.23,6.5,1.22,6.53,1.22c0.02,0,0.04-0.02,0.06-0.03C6.63,1.16,6.65,1.17,6.7,1.23C6.74,1.3,6.77,1.39,6.75,1.44
		c-0.01,0.02-0.01,0.04,0,0.05C6.76,1.5,6.76,1.51,6.76,1.52c0,0.01-0.01,0.02,0,0.02c0.01,0,0.01,0.03,0.01,0.04
		s0.01,0.04,0.02,0.05c0.01,0.02,0.01,0.03,0,0.04c-0.01,0.01,0,0.02,0.01,0.05c0.01,0.02,0.01,0.05,0,0.07c0,0.02,0,0.04,0.01,0.06
		C6.83,1.89,6.84,2.08,6.83,2.1c-0.01,0.01-0.01,0.02,0,0.04s0.01,0.05,0.01,0.08v0.09c0.01,0.11,0,0.37-0.02,0.38
		c-0.01,0.01,0,0.03,0,0.06c0.01,0.06,0.01,0.16-0.01,0.22C6.8,2.99,6.8,3.05,6.8,3.11v0.11l0.05,0.01h0.11c0.05,0,0.07,0,0.09-0.01
		c0.03-0.02,0.1-0.02,0.12,0c0.01,0.01,0.02,0,0.05-0.03C7.26,3.14,7.3,3.12,7.3,3.16v0.02l0.01-0.02c0.02-0.03,0.05-0.04,0.07-0.01
		c0,0.01,0.02,0.01,0.06,0C7.47,3.14,7.49,3.13,7.5,3.13c0.02,0.01,0.04,0.01,0.07,0.02c0.06,0.01,0.08,0.03,0.07,0.06
		c0,0.01-0.01,0.02,0,0.02s0.02,0.01,0.02,0.02c0.01,0.02,0.03,0.03,0.11,0.06c0.05,0.02,0.12,0.05,0.15,0.06
		c0.03,0.01,0.06,0.02,0.07,0.02c0.01,0,0.03,0,0.04,0.01c0.01,0,0.06,0.02,0.1,0.04C8.19,3.46,8.24,3.5,8.3,3.55
		c0.08,0.06,0.1,0.08,0.11,0.12c0.01,0.02,0.02,0.06,0.03,0.08c0.01,0.02,0.02,0.06,0.02,0.09c0,0.04,0.01,0.06,0.04,0.1
		c0.07,0.07,0.07,0.14,0.01,0.21C8.49,4.17,8.47,4.2,8.46,4.22C8.45,4.24,8.45,4.26,8.44,4.27c0,0.01-0.01,0.03-0.01,0.05
		c0,0.02-0.01,0.04-0.04,0.07c-0.07,0.07-0.11,0.08-0.44,0.1c-0.1,0-0.19,0.02-0.21,0.02S7.68,4.52,7.65,4.52
		c-0.03,0-0.16,0.01-0.27,0.02C7.27,4.55,7.05,4.57,6.99,4.57c-0.1,0-0.19,0-0.2,0.01C6.78,4.59,6.77,4.76,6.77,4.81
		c0,0.02,0.01,0.23,0.01,0.26v0.07c0,0.03,0,0.06,0.01,0.07c0.02,0.02,0.01,0.11,0,0.2C6.78,5.45,6.78,5.53,6.78,5.59
		c0,0.06-0.01,0.15-0.01,0.19S6.76,5.99,6.75,6.15c-0.01,0.16-0.01,0.29-0.01,0.3v0.07c0.01,0.05,0,0.07,0,0.09
		c-0.01,0.01,0,0.03,0,0.05v0.31c0.01,0.01,0.02,0.07,0.02,0.15c0,0.1,0.01,0.14,0.02,0.16c0.01,0.01,0.01,0.04,0.01,0.08
		s0,0.06,0.01,0.07c0.01,0,0.02,0.03,0.02,0.06c0,0.03,0.01,0.09,0.02,0.13c0.01,0.04,0.03,0.09,0.03,0.12c0,0.03,0,0.06,0.01,0.07
		C6.89,7.82,6.9,7.85,6.9,7.9c0,0.04,0.01,0.1,0.02,0.12c0.01,0.02,0.01,0.05,0.01,0.06v0.07C6.94,8.2,6.94,8.24,6.9,8.25
		C6.87,8.28,6.86,8.29,6.86,8.33c0,0.02-0.01,0.07-0.02,0.12L6.82,8.54L6.73,8.62c-0.05,0.05-0.1,0.1-0.11,0.1
		c-0.01,0-0.04,0.02-0.07,0.03C6.51,8.78,6.49,8.78,6.43,8.78H6.26c-0.03,0-0.04,0-0.06-0.02C6.19,8.75,6.17,8.74,6.14,8.72
		C6.12,8.71,6.07,8.69,6.03,8.67c-0.06-0.04-0.08-0.06-0.09-0.1C5.93,8.53,5.9,8.44,5.88,8.36C5.86,8.28,5.83,8.21,5.82,8.2
		c-0.01-0.01-0.01-0.01,0-0.02c0.01-0.01,0-0.03-0.01-0.05C5.8,8.11,5.78,8.04,5.77,7.97C5.76,7.9,5.75,7.84,5.74,7.83
		C5.73,7.82,5.71,7.73,5.7,7.67c0-0.02-0.01-0.05-0.02-0.07C5.67,7.57,5.66,7.52,5.65,7.41C5.64,7.33,5.63,7.22,5.62,7.16
		c-0.02-0.1-0.01-0.12,0-0.14C5.63,7,5.63,6.99,5.63,6.98c0-0.01,0.01-0.02,0.02-0.03c0.02-0.02,0.01-0.07-0.01-0.09
		C5.63,6.85,5.62,6.84,5.63,6.83c0.01-0.01,0.03-0.05,0.04-0.09c0.02-0.05,0.02-0.08,0.01-0.11c0-0.02,0-0.06,0.01-0.1
		C5.7,6.49,5.7,6.43,5.7,6.4s0-0.07,0.01-0.09C5.72,6.29,5.73,6.25,5.73,6.2s0-0.11,0.01-0.14c0.01-0.04,0.01-0.07,0-0.08
		c-0.01-0.02-0.01-0.03,0-0.04C5.75,5.93,5.76,5.9,5.76,5.85s0.01-0.11,0.02-0.14C5.8,5.66,5.8,5.46,5.8,5.14
		c0-0.09,0-0.15,0.01-0.16c0.01-0.01,0-0.28-0.01-0.31L5.79,4.64H5.71c-0.04,0-0.18,0.02-0.31,0.03C5.26,4.68,5.12,4.69,5.08,4.69
		c-0.11,0.01-0.8,0.01-0.86,0C4.18,4.68,4.15,4.67,4.14,4.68c-0.01,0.01,0,0.07,0.01,0.13c0.01,0.06,0.02,0.13,0.02,0.15
		c0,0.02,0,0.05,0.01,0.07C4.2,5.08,4.24,5.38,4.25,5.52C4.26,5.6,4.26,5.85,4.26,6.09c0,0.34,0,0.44-0.01,0.51
		C4.23,6.71,4.2,6.8,4.17,6.81C4.16,6.82,4.15,6.83,4.15,6.84S4.13,6.87,4.12,6.88S4.09,6.93,4.07,6.96S4.04,7.01,4.03,7.01
		c-0.01,0-0.02,0.01-0.02,0.02c0,0.01,0,0.03-0.01,0.03c-0.01,0-0.02,0.02-0.03,0.04c-0.01,0.02-0.06,0.08-0.1,0.14
		C3.83,7.29,3.78,7.36,3.76,7.39C3.64,7.56,3.57,7.64,3.4,7.82C3.24,8,3.07,8.19,3.07,8.2s0.01,0.01,0.02,0.01
		C3.05,8.22,3.04,8.24,3.02,8.29C3.01,8.32,2.99,8.38,2.97,8.42S2.93,8.49,2.93,8.5S2.92,8.53,2.91,8.54
		C2.89,8.55,2.88,8.55,2.85,8.54C2.83,8.54,2.81,8.52,2.79,8.5C2.76,8.49,2.75,8.49,2.68,8.49c-0.04,0-0.12-0.01-0.17-0.02
		C2.43,8.46,2.39,8.46,2.26,8.46H2.11L2.07,8.44C2.05,8.42,2.02,8.41,1.98,8.4c-0.08-0.01-0.41,0-0.52,0.02
		C1.41,8.42,1.32,8.44,1.25,8.44c-0.11,0-0.13,0-0.15-0.01C1.09,8.42,1.05,8.41,1.03,8.41c-0.07,0-0.15-0.07-0.15-0.13
		c0-0.02-0.01-0.05-0.02-0.06C0.85,8.21,0.84,8.19,0.84,8.18c0-0.01-0.02-0.04-0.04-0.08S0.76,8.01,0.76,8
		c0-0.01-0.01-0.05-0.03-0.08C0.69,7.82,0.67,7.77,0.65,7.7C0.64,7.66,0.62,7.62,0.61,7.61c-0.01-0.02,0-0.03,0-0.04
		c0-0.01,0-0.02-0.02-0.04c0.01,0,0.01-0.01,0-0.02C0.58,7.5,0.58,7.47,0.58,7.44c0-0.03,0-0.06-0.01-0.07
		c-0.01-0.01-0.01-0.03,0-0.05c0.01-0.02,0.01-0.03,0-0.04C0.55,7.26,0.56,7.22,0.58,7.16C0.6,7.12,0.61,7.09,0.61,7.07
		c0-0.02,0.01-0.05,0.02-0.08c0.01-0.03,0.02-0.06,0.02-0.08c0-0.02,0.01-0.08,0.01-0.13c0-0.07,0-0.09-0.02-0.13
		C0.61,6.58,0.58,6.47,0.57,6.39c0-0.01-0.02-0.04-0.04-0.07C0.49,6.25,0.45,6.2,0.46,6.19C0.47,6.18,0.51,6.2,0.54,6.24
		c0.03,0.04,0.04,0.04,0.08,0.04c0.05,0,0.05,0,0.05-0.02c0-0.01,0-0.02,0.01-0.02c0.02,0,0.09,0.07,0.18,0.15
		C1,6.52,1.08,6.57,1.19,6.63C1.32,6.69,1.35,6.7,1.47,6.67C1.72,6.6,1.92,6.52,2.14,6.41c0.08-0.04,0.11-0.06,0.19-0.13
		c0.05-0.05,0.09-0.1,0.09-0.11c0-0.01,0.01-0.03,0.03-0.04C2.47,6.12,2.5,6.09,2.51,6.07c0.01-0.02,0.03-0.04,0.04-0.05
		c0.01-0.01,0.02-0.03,0.02-0.04c0-0.03,0.04-0.1,0.06-0.12C2.64,5.85,2.67,5.8,2.69,5.75c0.02-0.05,0.05-0.1,0.06-0.11
		C2.76,5.63,2.77,5.61,2.77,5.6s0-0.03,0.01-0.05C2.8,5.52,2.85,5.4,2.89,5.28C2.9,5.24,2.92,5.21,2.92,5.2
		c0.02-0.03,0.04-0.15,0.03-0.17c0-0.01,0-0.04,0.01-0.05c0.01-0.02,0.01-0.03,0-0.03c-0.02-0.01-0.02-0.05,0-0.08
		c0.02-0.02,0.01-0.03-0.01-0.05C2.94,4.81,2.93,4.8,2.86,4.8c-0.05,0-0.09,0-0.11,0.01C2.73,4.82,2.7,4.83,2.69,4.83
		s-0.07,0-0.13,0.01C2.5,4.85,2.41,4.87,2.37,4.87S2.28,4.88,2.25,4.89c-0.03,0-0.08,0.01-0.12,0.02c-0.05,0.01-0.1,0.01-0.2,0
		c-0.09-0.01-0.12-0.01-0.12,0c-0.01,0.01-0.03,0.01-0.07,0C1.71,4.9,1.65,4.9,1.6,4.9c-0.17,0-0.49,0-0.5-0.01
		c-0.01,0-0.06-0.02-0.13-0.02C0.8,4.86,0.46,4.81,0.43,4.78C0.42,4.77,0.4,4.76,0.39,4.76c-0.03-0.01-0.17-0.09-0.2-0.11
		C0.18,4.64,0.15,4.62,0.13,4.6C0.03,4.52,0,4.49,0,4.48s0.02-0.01,0.04-0.02c0.02-0.01,0.04-0.02,0.04-0.03
		c0-0.01-0.01-0.02-0.03-0.03C0.01,4.37,0.02,4.36,0.1,4.34c0.03-0.01,0.06-0.01,0.07-0.02C0.18,4.31,0.2,4.31,0.21,4.31
		c0.01,0,0.03-0.01,0.04-0.02C0.26,4.28,0.29,4.28,0.3,4.28c0.01,0,0.03,0,0.05-0.02C0.38,4.23,0.4,4.22,0.46,4.22
		c0.05,0,0.09-0.01,0.11-0.02c0.01-0.01,0.02-0.02,0.04-0.02c0.02,0,0.04,0,0.07-0.01C0.7,4.16,0.72,4.15,0.73,4.15
		c0.01,0,0.04-0.02,0.07-0.03C0.85,4.1,0.86,4.1,0.88,4.11s0.04,0,0.05,0c0.01,0,0.04-0.01,0.06-0.01s0.05-0.01,0.07-0.02
		c0.02-0.02,0.05-0.03,0.06-0.03c0.01,0,0.04-0.01,0.05-0.02C1.19,4.02,1.23,4,1.25,4c0.03-0.01,0.08-0.02,0.09-0.03
		c0.01-0.01,0.03-0.02,0.04-0.02c0.03,0,0.1-0.03,0.1-0.05c0-0.01,0-0.01,0.02-0.01s0.05-0.01,0.1-0.03
		c0.04-0.02,0.07-0.04,0.08-0.03c0.01,0.01,0.21-0.08,0.23-0.1c0.01-0.01,0.04-0.02,0.05-0.02C1.97,3.71,2,3.7,2.01,3.69
		c0.01-0.01,0.04-0.01,0.05-0.01c0.01,0,0.04-0.01,0.06-0.02c0.03-0.02,0.1-0.04,0.13-0.03c0.01,0,0.01,0,0.02-0.01
		c0-0.01,0.03-0.01,0.07-0.02c0.04-0.01,0.08-0.03,0.1-0.04c0.02-0.01,0.05-0.01,0.08-0.01c0.1-0.01,0.1-0.04,0.08-0.14
		C2.59,3.37,2.59,3.32,2.58,3.28C2.57,3.24,2.55,3.2,2.54,3.19C2.53,3.18,2.52,3.14,2.52,3.12c-0.01-0.06-0.03-0.1-0.07-0.11
		C2.42,3,2.42,3,2.4,2.94C2.39,2.9,2.38,2.86,2.37,2.86C2.36,2.85,2.36,2.85,2.36,2.83c0-0.07-0.06-0.14-0.13-0.15
		C2.12,2.67,1.84,2.57,1.81,2.54L1.74,2.5C1.72,2.49,1.7,2.48,1.7,2.47S1.68,2.42,1.65,2.39c-0.06-0.06-0.09-0.12-0.1-0.18
		c-0.02-0.1-0.09-0.2-0.15-0.23C1.38,1.97,1.36,1.95,1.36,1.94c0-0.01-0.02-0.02-0.04-0.03C1.3,1.9,1.28,1.88,1.27,1.87
		C1.26,1.86,1.24,1.85,1.23,1.84C1.22,1.83,1.2,1.78,1.18,1.73c-0.03-0.09-0.03-0.09-0.01-0.1C1.18,1.62,1.19,1.61,1.19,1.6
		c0-0.02,0.05-0.02,0.06-0.01c0.01,0,0.02-0.01,0.02-0.02c0-0.01,0.01-0.02,0.02-0.02c0.01,0,0.02-0.01,0.03-0.02
		C1.33,1.52,1.35,1.51,1.37,1.5C1.4,1.49,1.41,1.49,1.42,1.51C1.43,1.53,1.43,1.53,1.46,1.5c0.02-0.03,0.05-0.04,0.08-0.05
		c0.03,0,0.05-0.01,0.06-0.03C1.61,1.41,1.63,1.4,1.64,1.4c0.01,0,0.02-0.01,0.03-0.02c0.02-0.01,0.04-0.02,0.07-0.02
		c0.03,0,0.04-0.01,0.05-0.02C1.8,1.33,1.8,1.33,1.81,1.33c0.01,0,0.02,0,0.03-0.01C1.85,1.31,1.87,1.3,1.89,1.3
		c0.05,0,0.13-0.02,0.16-0.04c0.03-0.02,0.06-0.02,0.16-0.02c0.09,0,0.1,0,0.14-0.03C2.38,1.19,2.4,1.19,2.41,1.19
		c0.02,0,0.03,0,0.03-0.01c0-0.01,0.01-0.02,0.03-0.02s0.07-0.01,0.1-0.02c0.03-0.01,0.08-0.02,0.1-0.02c0.03,0,0.05-0.01,0.05-0.02
		c0-0.01,0.01-0.01,0.03-0.01c0.01,0,0.04-0.01,0.07-0.02S2.89,1.05,2.9,1.05c0.01,0,0.04,0,0.05-0.01c0.03-0.02,0.06-0.02,0.09,0
		c0.01,0.01,0.02,0.01,0.04-0.01C3.1,1,3.1,1,3.15,1.01C3.18,1.01,3.2,1,3.22,0.99c0.01-0.01,0.03-0.01,0.05-0.01
		c0.03,0,0.08-0.02,0.1-0.04C3.38,0.93,3.4,0.92,3.41,0.92c0.01,0,0.03-0.01,0.05-0.02S3.5,0.87,3.51,0.87
		c0.01,0,0.02-0.01,0.02-0.02s0.01-0.01,0.02-0.01C3.57,0.85,3.63,0.82,3.7,0.76c0.03-0.03,0.08-0.07,0.11-0.09
		C3.84,0.65,3.88,0.61,3.9,0.59c0.02-0.02,0.05-0.04,0.07-0.05c0.07-0.04,0.27-0.18,0.3-0.21C4.28,0.31,4.29,0.3,4.3,0.3
		c0.01,0,0.03-0.03,0.05-0.04c0.02-0.02,0.04-0.03,0.06-0.04s0.07-0.04,0.1-0.07c0.03-0.03,0.06-0.07,0.07-0.06
		C4.59,0.1,4.61,0.08,4.64,0.05L4.7,0z"/>
	<path class="st0" d="M11.68,0.65l0.06,0.03c0.05,0.03,0.07,0.04,0.16,0.04c0.08,0,0.11,0.01,0.12,0.02
		c0.01,0.01,0.03,0.01,0.08,0.01s0.11,0.01,0.21,0.03c0.08,0.02,0.16,0.03,0.19,0.03c0.03,0,0.06,0,0.06,0.01s0.01,0,0.03,0
		s0.04,0,0.04,0.01c0.01,0.01,0.01,0,0.02-0.01c0.01-0.02,0.01-0.02,0.04,0.01c0.03,0.02,0.06,0.04,0.13,0.04
		c0.08,0,0.1,0,0.12,0.04c0.02,0.02,0.04,0.03,0.08,0.03s0.07,0.01,0.1,0.02c0.03,0.01,0.05,0.01,0.06,0.01
		c0.01-0.01,0.16,0.1,0.18,0.13c0,0.02,0.01,0.02,0.02,0.02c0.01,0,0.04,0.02,0.05,0.04c0.05,0.06,0.26,0.27,0.28,0.27
		c0.01,0,0.04,0.02,0.07,0.05c0.03,0.03,0.06,0.06,0.07,0.06c0.02,0,0.15,0.16,0.16,0.2c0.01,0.02,0.04,0.09,0.06,0.14
		c0.05,0.1,0.05,0.12,0.04,0.25c0,0.03-0.02,0.06-0.07,0.12c-0.03,0.03-0.06,0.09-0.07,0.11c-0.01,0.02-0.06,0.06-0.11,0.09
		c-0.05,0.03-0.09,0.08-0.1,0.11c-0.03,0.05-0.17,0.17-0.21,0.19c-0.03,0.02-0.03,0.03-0.03,0.06c0,0.02,0,0.05,0.01,0.05
		c0.01,0,0.01,0.02,0.01,0.03c0,0.01,0,0.06,0.01,0.12c0.01,0.05,0.04,0.14,0.05,0.2c0.02,0.13,0.04,0.23,0.06,0.29
		c0.01,0.02,0.01,0.04,0,0.05c-0.01,0.01,0,0.04,0.03,0.11c0.03,0.07,0.05,0.14,0.05,0.17c0.01,0.05,0.02,0.07,0.03,0.07
		c0.02,0.01,0.02,0.01,0.02,0.06c0,0.07,0.01,0.08,0.13,0.09c0.05,0,0.11,0.01,0.12,0.01c0.01,0,0.03,0.01,0.04,0.02
		c0.01,0.01,0.03,0.01,0.06,0.02c0.03,0.01,0.05,0.03,0.06,0.04c0.01,0.02,0.02,0.04,0.03,0.04c0.03,0,0.1,0.02,0.14,0.06
		c0.02,0.02,0.03,0.03,0.04,0.03c0.05,0,0.2,0.22,0.19,0.26c0,0.01-0.01,0.02,0,0.03c0.01,0.01,0.02,0.05,0.01,0.13
		c0,0.06-0.02,0.1-0.06,0.19s-0.15,0.24-0.19,0.25c-0.01,0-0.02,0.01-0.02,0.02c0,0.01-0.01,0.02-0.03,0.04
		c-0.02,0.02-0.03,0.04-0.03,0.05c0,0.02-0.07,0.06-0.13,0.08c-0.06,0.03-0.13,0.03-0.18,0c-0.08-0.03-0.11,0-0.11,0.07
		c0,0.01,0,0.03-0.01,0.04c-0.01,0.01-0.01,0.06-0.01,0.1c0,0.05-0.01,0.09-0.02,0.1c-0.01,0.01-0.02,0.05-0.03,0.08
		c0,0.02-0.02,0.13-0.03,0.2c-0.03,0.17-0.05,0.28-0.05,0.33c0,0.04-0.01,0.13-0.02,0.2c-0.01,0.1-0.01,0.15,0,0.16
		c0.01,0.01,0.01,0.01,0,0.02c-0.01,0.02-0.02,0.09,0,0.09c0.01,0,0.01,0,0.01,0.03c-0.01,0.04-0.02,0.62-0.01,0.71
		c0.02,0.15,0.02,0.23,0,0.29c-0.01,0.04-0.01,0.07-0.01,0.13c0.01,0.09,0.01,0.1-0.03,0.17c-0.04,0.07-0.05,0.08-0.11,0.12
		c-0.06,0.03-0.1,0.05-0.14,0.05h-0.07c-0.02,0.01-0.15-0.03-0.2-0.05c-0.02-0.01-0.05-0.05-0.07-0.06
		c-0.02-0.01-0.03-0.02-0.04-0.02c-0.01,0-0.03-0.03-0.06-0.06c-0.03-0.03-0.06-0.05-0.07-0.05c-0.01-0.02-0.03-0.04-0.06-0.08
		c-0.08-0.09-0.08-0.13-0.07-0.39c0.01-0.09,0-0.13-0.01-0.14c-0.01-0.02,0-0.21,0.01-0.21c0.01,0,0.01-0.06,0.01-0.14
		c0-0.16-0.02-0.25-0.05-0.31c-0.01-0.02-0.01-0.03,0-0.05c0.01-0.02,0.02-0.07,0.03-0.11c0.01-0.05,0.02-0.1,0.03-0.11
		c0.01-0.02,0.02-0.11,0.02-0.36V5.51c0-0.14,0-0.17-0.01-0.17c-0.01,0-0.01-0.02-0.01-0.03c0.01-0.03-0.02-0.09-0.06-0.13
		c-0.03-0.03-0.04-0.04-0.1-0.04h-0.44v0.04c0,0.04,0,0.1,0.03,0.28c0.02,0.07,0.02,0.16,0.02,0.18c0,0.02-0.03,0.1-0.05,0.19
		c-0.02,0.07-0.05,0.16-0.06,0.22c-0.01,0.05-0.02,0.09-0.03,0.1c-0.01,0.01-0.01,0.04-0.01,0.06c0,0.02,0,0.04-0.01,0.04
		c-0.01,0-0.1,0.19-0.11,0.24c0,0.02-0.03,0.06-0.05,0.09s-0.05,0.05-0.05,0.07c0,0.01,0,0.03-0.01,0.03
		c-0.01,0-0.02,0.01-0.02,0.02s-0.01,0.04-0.02,0.05c-0.01,0.01-0.02,0.02-0.02,0.03s0,0.03-0.01,0.04
		c-0.01,0.01-0.02,0.01-0.02,0.02c0,0.02-0.23,0.39-0.27,0.44c-0.02,0.02-0.04,0.05-0.05,0.07c-0.01,0.02-0.02,0.04-0.03,0.05
		c-0.01,0.01-0.03,0.05-0.04,0.08c-0.01,0.02-0.04,0.06-0.05,0.07c-0.01,0.01-0.03,0.06-0.05,0.09c-0.02,0.04-0.03,0.07-0.04,0.08
		c-0.01,0.01-0.02,0.02-0.02,0.03c0,0.01-0.01,0.03-0.02,0.05c-0.01,0.02-0.03,0.05-0.03,0.06c0,0.07-0.09,0.16-0.18,0.18
		c-0.13,0.03-0.36,0.04-0.52,0C10.27,8,10.14,7.96,10.1,7.93c-0.02-0.01-0.06-0.05-0.09-0.06C9.96,7.84,9.89,7.78,9.89,7.76
		c0-0.01-0.02-0.04-0.05-0.08c-0.06-0.09-0.09-0.17-0.1-0.27c0-0.03-0.01-0.06-0.02-0.06C9.71,7.34,9.71,7.33,9.71,7.32
		c0-0.01,0-0.03-0.01-0.03C9.69,7.28,9.69,7.27,9.68,7.24C9.67,7.21,9.65,7.17,9.64,7.15C9.63,7.13,9.61,7.1,9.61,7.09
		s0-0.03-0.01-0.04C9.59,7.04,9.58,7.01,9.58,6.98c0-0.11,0-0.14-0.01-0.16c0-0.01-0.01-0.03,0-0.04c0-0.01,0-0.03-0.03-0.08
		C9.48,6.62,9.48,6.62,9.46,6.58C9.44,6.52,9.28,6.33,9.23,6.32c-0.02,0-0.04-0.01-0.05-0.03L9.17,6.25H9.2c0.02,0,0.05,0,0.08,0.01
		c0.03,0.02,0.11,0.02,0.29,0.02c0.27,0,0.37-0.02,0.44-0.06c0.03-0.01,0.09-0.04,0.14-0.06c0.05-0.02,0.1-0.04,0.11-0.05
		C10.27,6.1,10.28,6.1,10.3,6.1s0.04-0.02,0.06-0.06c0.02-0.04,0.05-0.07,0.06-0.08c0.02-0.01,0.03-0.03,0.03-0.04
		c0.03,0,0.15-0.2,0.15-0.24c0-0.01,0-0.03,0.01-0.03c0.01,0,0.02-0.02,0.03-0.03c0.01-0.01,0.03-0.04,0.04-0.07
		C10.7,5.52,10.7,5.5,10.7,5.48c0-0.03,0-0.04,0.03-0.06c0.02-0.02,0.03-0.03,0.03-0.05c0-0.02,0.02-0.07,0.03-0.11
		c0.02-0.06,0.02-0.08,0.01-0.09c-0.01-0.01-0.04-0.02-0.08-0.02c-0.12,0-0.21-0.01-0.27-0.04c-0.03-0.01-0.07-0.04-0.09-0.04
		c-0.02,0-0.04-0.01-0.04-0.02s-0.01-0.01-0.02-0.01c-0.01,0-0.04-0.01-0.06-0.03c-0.02-0.02-0.05-0.03-0.07-0.03
		s-0.03-0.01-0.04-0.03c-0.01-0.02-0.03-0.03-0.04-0.03c-0.01,0-0.05-0.01-0.1-0.03C9.93,4.87,9.91,4.84,9.91,4.83s0-0.02-0.02-0.02
		c-0.01,0-0.05-0.02-0.07-0.04C9.8,4.75,9.79,4.74,9.78,4.75c-0.01,0.01-0.01,0-0.02-0.01C9.75,4.73,9.7,4.71,9.62,4.7
		C9.45,4.67,9.35,4.63,9.31,4.55C9.29,4.51,9.3,4.5,9.32,4.5c0.01,0,0.01-0.01,0-0.02C9.31,4.45,9.31,4.43,9.33,4.44
		c0.01,0,0.03,0,0.05-0.01C9.4,4.41,9.41,4.4,9.43,4.41c0.01,0,0.04,0,0.06-0.01C9.56,4.37,9.66,4.35,9.7,4.35
		c0.02,0,0.04-0.01,0.05-0.02c0.01-0.01,0.02-0.01,0.03-0.01c0.01,0,0.04-0.01,0.05-0.02c0.02-0.01,0.04-0.01,0.08-0.01
		c0.04,0,0.08,0.01,0.12,0c0.03-0.01,0.05-0.01,0.06-0.01c0.02,0.01,0.16,0,0.17-0.02c0.01-0.01,0.02-0.01,0.02,0
		c0,0.01,0.01,0.01,0.02,0.01c0.01,0,0.01-0.01,0.02,0c0.01,0.01,0.26-0.01,0.32-0.03c0.02-0.01,0.03,0,0.04,0.01
		c0.01,0.01,0.03,0.01,0.09,0c0.05-0.01,0.06-0.02,0.07-0.05c0.01-0.06,0-0.12-0.02-0.17c-0.02-0.04-0.04-0.16-0.05-0.25
		c0-0.03,0-0.06-0.01-0.07c0-0.01-0.01-0.04-0.01-0.05c0-0.02,0-0.04-0.01-0.07c-0.01-0.03-0.01-0.06-0.01-0.07
		c0-0.01-0.01-0.04-0.02-0.09c-0.01-0.05-0.02-0.1-0.02-0.12c0-0.03,0.01-0.06,0-0.06c-0.01-0.01,0-0.03,0-0.05
		c0.01-0.04-0.03-0.12-0.08-0.22c-0.01-0.03-0.02-0.06-0.02-0.09c0-0.04-0.01-0.05-0.06-0.1c-0.03-0.04-0.08-0.08-0.1-0.09
		s-0.07-0.04-0.09-0.06c-0.02-0.02-0.04-0.03-0.05-0.03c-0.01,0-0.03-0.02-0.05-0.03c-0.02-0.01-0.05-0.02-0.06-0.02
		c-0.01,0-0.02,0-0.03-0.01c-0.01-0.02-0.02-0.02-0.03-0.02c-0.01,0-0.05-0.03-0.13-0.09c-0.12-0.1-0.17-0.16-0.16-0.17
		c0-0.01,0-0.01-0.01-0.02C9.81,2.24,9.8,2.22,9.8,2.21c0-0.01-0.01-0.03-0.02-0.05c-0.06-0.09-0.09-0.2-0.07-0.27
		c0.01-0.02,0.01-0.06,0.01-0.1s0-0.05,0.02-0.07c0.01-0.01,0.02-0.04,0.02-0.05s0.02-0.03,0.03-0.05C9.8,1.6,9.81,1.56,9.81,1.55
		s0.01-0.02,0.02-0.03c0.01-0.01,0.01-0.04,0.02-0.06c0.01-0.03,0.03-0.05,0.06-0.07c0.03-0.02,0.05-0.05,0.06-0.06
		C9.99,1.3,10,1.29,10.04,1.29c0.03,0,0.04-0.01,0.04-0.02c0-0.01,0.01-0.01,0.04-0.01c0.04,0,0.04,0,0.03-0.02
		c-0.01-0.03-0.01-0.03,0.02-0.03c0.02,0,0.04-0.01,0.04-0.03c0-0.02,0.02-0.03,0.08-0.05c0.04-0.03,0.1-0.06,0.12-0.08
		c0.02-0.02,0.05-0.03,0.06-0.03c0.01,0,0.03-0.01,0.05-0.03c0.03-0.03,0.05-0.03,0.09-0.02c0.05,0,0.05,0,0.08-0.03
		c0.02-0.02,0.04-0.03,0.1-0.04c0.04,0,0.08-0.03,0.1-0.04c0.03-0.01,0.04-0.01,0.05,0c0.01,0.01,0.03,0.01,0.04,0
		c0.01-0.01,0.03-0.01,0.04-0.01c0.01,0,0.03-0.01,0.05-0.02c0.02-0.01,0.06-0.03,0.09-0.03s0.06,0,0.07-0.01
		c0.01-0.01,0.05-0.02,0.09-0.02c0.07,0,0.08,0,0.11-0.03c0.02-0.02,0.03-0.03,0.04-0.03c0.09,0,0.17-0.02,0.19-0.04L11.68,0.65z
		 M12.48,2.62c-0.01,0.01-0.27,0.18-0.37,0.23c-0.04,0.02-0.09,0.06-0.12,0.08c-0.03,0.02-0.06,0.04-0.07,0.04
		c-0.01,0-0.02,0-0.03,0.01C11.88,3,11.74,3.07,11.68,3.09C11.66,3.1,11.62,3.1,11.6,3.1c-0.03,0-0.04,0-0.03,0.03
		c0,0.02,0.03,0.05,0.04,0.06c0.02,0.02,0.06,0.13,0.08,0.19c0.01,0.02,0.01,0.04,0.02,0.06c0.04,0.09,0.08,0.19,0.08,0.22
		c0,0.03,0.01,0.05,0.02,0.06c0.03,0.04,0.06,0.11,0.08,0.22c0.01,0.07,0.02,0.1,0.04,0.12c0.01,0.01,0.03,0.04,0.03,0.06
		c0.01,0.04,0.01,0.04,0.05,0.06c0.04,0.01,0.05,0.01,0.08,0c0.02-0.02,0.05-0.02,0.06,0c0.01,0,0.02,0,0.03-0.02
		c0.01-0.02,0.02-0.02,0.03,0c0.03,0.03,0.21,0.02,0.23-0.02c0.01-0.01,0.01-0.01,0.02,0c0.01,0.02,0.02,0.02,0.03,0
		c0.03-0.02,0.07-0.04,0.09-0.03c0.01,0.01,0.03,0.01,0.06,0c0.02-0.01,0.06-0.02,0.09-0.02c0.05,0,0.07,0,0.06-0.02
		c-0.01-0.01,0.04-0.09,0.05-0.1c0.01,0,0-0.03,0-0.04c0-0.03,0-0.05,0.01-0.06c0.01-0.01,0.02-0.04,0.02-0.06
		c0.01-0.07,0.02-0.12,0.03-0.14c0.01-0.01,0.02-0.04,0.01-0.11c0-0.05-0.01-0.09-0.02-0.1c-0.01-0.02,0-0.04,0.02-0.06
		c0.03-0.04,0.07-0.2,0.05-0.22c-0.01-0.02-0.01-0.05,0.01-0.06c0.01,0,0.01-0.02,0.01-0.05c0-0.02,0.02-0.1,0.04-0.16
		s0.03-0.13,0.03-0.16c0-0.02,0-0.04,0.01-0.06c-0.01,0-0.02,0-0.03-0.01c-0.01-0.01-0.04-0.02-0.07-0.02c-0.03,0-0.06,0-0.08-0.01
		s-0.06-0.02-0.08-0.02s-0.05,0-0.05-0.01c0-0.01-0.02-0.02-0.06-0.01c-0.03,0-0.07,0.01-0.09,0.01c-0.02,0-0.04,0-0.05,0.01
		c-0.01,0.01-0.02,0.01-0.03,0C12.5,2.61,12.49,2.6,12.48,2.62z M16.61,0.26c0.02,0.01,0.02,0.01,0.03,0
		c0.01-0.01,0.02-0.01,0.05,0.02c0.02,0.02,0.04,0.03,0.06,0.03s0.03,0.01,0.04,0.04c0.01,0.01,0.03,0.04,0.06,0.06
		c0.03,0.02,0.04,0.03,0.04,0.04c0,0.01,0.03,0.06,0.07,0.12c0.15,0.22,0.19,0.35,0.2,0.58c0.01,0.07,0.01,0.15,0.01,0.17
		c0,0.02-0.01,0.09-0.03,0.17s-0.03,0.16-0.04,0.18c-0.01,0.06-0.1,0.25-0.14,0.29c-0.02,0.02-0.03,0.06-0.04,0.08
		c-0.01,0.03-0.02,0.05-0.04,0.05c-0.01,0-0.03,0.04-0.04,0.06c-0.01,0.02-0.03,0.05-0.05,0.07c-0.02,0.02-0.05,0.07-0.08,0.11
		c-0.03,0.04-0.05,0.08-0.06,0.08c-0.01,0-0.02,0.02-0.04,0.05c-0.02,0.04-0.04,0.05-0.12,0.08c-0.05,0.02-0.1,0.05-0.12,0.05
		s-0.06-0.02-0.09-0.04c-0.06-0.03-0.06-0.03-0.18-0.04c-0.07-0.01-0.14,0-0.16,0s-0.05,0-0.06-0.01c-0.01-0.01-0.01-0.01-0.02-0.01
		c-0.01,0-0.03-0.01-0.05-0.02c-0.03-0.02-0.08-0.03-0.15-0.04c-0.05-0.01-0.12-0.03-0.13-0.03c-0.02-0.01-0.07-0.03-0.1-0.03
		c-0.05-0.01-0.07-0.02-0.08-0.03c-0.01-0.02-0.03-0.04-0.04-0.04c-0.04-0.03-0.07-0.08-0.07-0.12c0-0.02,0-0.04-0.01-0.04
		c-0.01,0-0.02-0.03-0.03-0.06C15.18,2.02,15.17,2,15.15,1.99c-0.01,0-0.02-0.02-0.02-0.06c0-0.05,0-0.05-0.05-0.11
		c-0.06-0.07-0.09-0.09-0.17-0.09c-0.05,0-0.05,0-0.05-0.03c0-0.02,0-0.03-0.02-0.03c-0.01,0-0.03,0-0.03-0.01s-0.02-0.02-0.04-0.03
		s-0.04-0.02-0.04-0.04c0-0.02-0.02-0.03-0.03-0.04c-0.03-0.02-0.03-0.05,0-0.09c0.02-0.03,0.02-0.05,0.01-0.07
		c0-0.02-0.01-0.04,0-0.07c0.01-0.04,0.02-0.04,0.05-0.04c0.03,0,0.03,0,0.07-0.04l0.05-0.04l0.04,0.02h0.07
		C15,1.21,15.02,1.2,15.03,1.2c0.01,0,0.03-0.01,0.04-0.02c0.01-0.02,0.03-0.02,0.05-0.02s0.04-0.01,0.07-0.04s0.05-0.04,0.07-0.04
		s0.08-0.02,0.16-0.07c0.06-0.03,0.1-0.05,0.21-0.07c0.15-0.03,0.36-0.1,0.38-0.12c0.01-0.01,0.03-0.03,0.04-0.03
		c0.02,0,0.06-0.02,0.1-0.05c0.04-0.03,0.09-0.06,0.1-0.06c0.01,0,0.02-0.02,0.03-0.05c0.01-0.02,0.05-0.07,0.07-0.1
		c0.05-0.07,0.09-0.13,0.09-0.16c0-0.02,0-0.02,0.01-0.02s0.02-0.01,0.03-0.02c0.01-0.01,0.02-0.02,0.04-0.03
		c0-0.01,0-0.02,0.01-0.03C16.56,0.25,16.58,0.24,16.61,0.26z M17.66,4.68c0.01,0.01,0.04,0.11,0.06,0.21
		c0.01,0.03,0.02,0.06,0.03,0.07c0.01,0.01,0.01,0.02,0,0.04c-0.01,0.02-0.01,0.03,0,0.06c0.02,0.05,0.04,0.28,0.02,0.35
		c-0.01,0.03-0.02,0.07-0.02,0.08c-0.02,0.14-0.04,0.25-0.05,0.28c-0.01,0.03-0.03,0.07-0.03,0.09c0,0.02-0.01,0.09-0.03,0.15
		c-0.02,0.05-0.03,0.13-0.03,0.15c0,0.02-0.01,0.09-0.03,0.15c-0.02,0.06-0.03,0.13-0.03,0.15c0,0.02,0,0.05-0.01,0.05
		c-0.01,0.01-0.01,0.03-0.01,0.05c0,0.02,0,0.04-0.01,0.06C17.5,6.67,17.4,7.05,17.39,7.1c0,0.03,0,0.06-0.01,0.07
		c0,0.01-0.02,0.03-0.02,0.06c0,0.02-0.01,0.07-0.02,0.1c-0.01,0.02-0.01,0.07-0.02,0.1c-0.01,0.03-0.02,0.06-0.02,0.08
		c0,0.02-0.02,0.06-0.04,0.1c-0.04,0.07-0.11,0.14-0.19,0.17C17.04,7.79,17.02,7.82,17,7.85s-0.06,0.07-0.1,0.11
		C16.87,8,16.84,8.03,16.84,8.04c0,0.03-0.28,0.32-0.34,0.35c-0.01,0.01-0.02,0.02-0.02,0.03s-0.01,0.02-0.02,0.03
		c-0.01,0.01-0.05,0.03-0.08,0.06c-0.08,0.08-0.18,0.14-0.2,0.14c-0.01,0-0.02,0.01-0.03,0.02c-0.01,0.01-0.04,0.02-0.06,0.03
		s-0.07,0.03-0.1,0.05c-0.04,0.03-0.06,0.04-0.13,0.05c-0.05,0.01-0.11,0.02-0.13,0.02c-0.12-0.02-0.14-0.03-0.17-0.06
		c-0.02-0.02-0.06-0.04-0.08-0.05c-0.02-0.01-0.03-0.03-0.04-0.04c-0.01-0.02-0.02-0.02-0.07-0.02c-0.11,0-0.23-0.05-0.32-0.15
		C15.02,8.46,15.01,8.44,15,8.4c-0.01-0.03-0.03-0.08-0.04-0.09c-0.02-0.02-0.03-0.05-0.03-0.08c0-0.02,0-0.05-0.01-0.06
		c-0.01-0.01-0.02-0.04-0.03-0.07c-0.01-0.03-0.01-0.06-0.02-0.07C14.86,8.02,14.85,8,14.86,7.98c0-0.02,0-0.05-0.03-0.2
		c-0.01-0.02-0.01-0.06-0.01-0.07c0.01-0.01,0.01-0.04,0.01-0.08c0-0.05,0.01-0.09,0.03-0.13l0.03-0.06l-0.02-0.07
		c-0.01-0.04-0.02-0.07-0.03-0.08c-0.01-0.02-0.01-0.02,0-0.06c0.01-0.03,0.01-0.05,0.02-0.06c0.01,0,0.01-0.01,0-0.02
		c-0.01-0.01-0.01-0.03,0-0.04c0.01-0.02-0.01-0.08-0.03-0.08c-0.01,0,0-0.01,0-0.02c0-0.02-0.01-0.03-0.02-0.04
		C14.8,6.96,14.8,6.94,14.8,6.93c0-0.01,0-0.02-0.01-0.02c-0.01,0-0.03-0.01-0.06-0.04c-0.04-0.04-0.05-0.06-0.05-0.09
		c0-0.05,0.04-0.08,0.07-0.07c0.05,0.02,0.08,0.04,0.08,0.05c0,0.01,0.01,0.01,0.02,0.01c0.02,0,0.04,0,0.07,0.03
		c0.03,0.02,0.06,0.05,0.07,0.05c0.01,0,0.05,0,0.08,0.02c0.07,0.03,0.24,0.05,0.28,0.04C15.37,6.9,15.4,6.9,15.42,6.9
		s0.04,0,0.06-0.01c0.02-0.02,0.03-0.02,0.04-0.01c0.01,0.01,0.03-0.01,0.06-0.03c0.03-0.02,0.05-0.03,0.06-0.03
		s0.02-0.01,0.03-0.02c0.01-0.01,0.03-0.02,0.05-0.02c0.04,0,0.06-0.01,0.19-0.11c0.03-0.03,0.07-0.05,0.08-0.05
		c0.01,0,0.02-0.02,0.02-0.03c0-0.01,0.01-0.02,0.02-0.02c0.03,0,0.1-0.05,0.13-0.1c0.02-0.02,0.06-0.07,0.09-0.1
		c0.06-0.07,0.21-0.24,0.28-0.33c0.03-0.03,0.07-0.06,0.08-0.07c0.01-0.01,0.02-0.03,0.02-0.04s0.01-0.02,0.02-0.03
		c0.01-0.01,0.03-0.04,0.04-0.06c0.01-0.03,0.04-0.07,0.07-0.11c0.03-0.04,0.05-0.08,0.06-0.1c0.01-0.02,0.02-0.03,0.03-0.03
		c0.01,0,0.02-0.01,0.03-0.03l0.06-0.12c0.03-0.04,0.05-0.08,0.05-0.09c0-0.01,0.03-0.03,0.05-0.06c0.03-0.03,0.04-0.05,0.04-0.06
		c0-0.01,0.04-0.05,0.08-0.09c0.04-0.03,0.07-0.07,0.07-0.08c0-0.02,0.04-0.07,0.15-0.17c0.06-0.06,0.12-0.11,0.12-0.12
		s0.02-0.02,0.04-0.03s0.05-0.03,0.06-0.04C17.62,4.67,17.64,4.67,17.66,4.68z M18.02,2.32c0.04-0.02,0.1,0.02,0.12,0.08
		c0.01,0.03,0.01,0.04-0.01,0.07c-0.01,0.02-0.02,0.04-0.02,0.05S17.9,2.75,17.84,2.8c-0.06,0.05-0.16,0.17-0.16,0.19
		c0,0.01,0,0.03-0.01,0.03c-0.01,0-0.03,0.04-0.05,0.08c-0.02,0.04-0.04,0.08-0.05,0.09c-0.01,0.01-0.02,0.04-0.03,0.06l-0.05,0.1
		c-0.02,0.04-0.05,0.09-0.05,0.1c0,0.02-0.01,0.05-0.02,0.07c-0.01,0.02-0.04,0.06-0.06,0.1s-0.04,0.08-0.06,0.1
		c-0.02,0.02-0.03,0.04-0.03,0.05s-0.01,0.03-0.02,0.04c-0.01,0.01-0.04,0.03-0.07,0.07c-0.03,0.04-0.07,0.08-0.08,0.09
		c-0.04,0.03-0.08,0.1-0.08,0.12c0,0.01-0.02,0.06-0.06,0.1c-0.03,0.04-0.08,0.09-0.09,0.09c-0.07,0.09-0.11,0.14-0.13,0.15
		c-0.01,0-0.03,0.02-0.04,0.04c-0.01,0.02-0.03,0.05-0.05,0.08c-0.02,0.03-0.05,0.06-0.06,0.07c-0.02,0.04-0.14,0.11-0.18,0.12
		c-0.05,0.01-0.16-0.03-0.19-0.06l-0.14-0.12C16,4.49,15.97,4.48,15.96,4.48c-0.01,0-0.03-0.01-0.05-0.03
		c-0.03-0.03-0.03-0.03-0.07-0.02c-0.03,0.01-0.05,0.01-0.07,0c-0.01-0.01-0.02,0-0.03,0c-0.02,0.01-0.13,0.03-0.14,0.02
		c0-0.01-0.04-0.02-0.08-0.04c-0.08-0.04-0.1-0.07-0.09-0.11c0-0.01,0.01-0.02,0-0.03c-0.01-0.01,0-0.02,0.01-0.03
		c0.01-0.01,0.01-0.04,0.02-0.06c0.01-0.03,0.03-0.05,0.04-0.06c0.01-0.01,0.03-0.02,0.03-0.03s0.01-0.02,0.05-0.03
		c0.03-0.01,0.07-0.03,0.08-0.04C15.67,4.01,15.69,4,15.7,4c0.03,0,0.1-0.05,0.16-0.11c0.05-0.04,0.09-0.06,0.15-0.09
		c0.05-0.02,0.13-0.06,0.18-0.1c0.05-0.04,0.14-0.09,0.18-0.11s0.09-0.03,0.1-0.04c0.01-0.01,0.06-0.03,0.11-0.06
		c0.1-0.06,0.13-0.08,0.19-0.13c0.02-0.02,0.1-0.08,0.15-0.13c0.05-0.05,0.1-0.1,0.11-0.12c0.01-0.02,0.03-0.04,0.05-0.05
		c0.03-0.01,0.05-0.04,0.07-0.07c0.04-0.05,0.19-0.2,0.2-0.2c0.01,0,0.04-0.02,0.07-0.05c0.03-0.03,0.13-0.09,0.21-0.15
		c0.16-0.1,0.23-0.16,0.28-0.23c0.03-0.04,0.04-0.05,0.07-0.04H18.02z"/>
</g>
</svg>
