<?xml version="1.0" encoding="utf-8"?>
<!-- Generator: Adobe Illustrator 25.0.0, SVG Export Plug-In . SVG Version: 6.00 Build 0)  -->
<svg version="1.1" id="Layer_1" xmlns="http://www.w3.org/2000/svg" xmlns:xlink="http://www.w3.org/1999/xlink" x="0px" y="0px"
	 viewBox="0 0 59.54 8.54" style="enable-background:new 0 0 59.54 8.54;" xml:space="preserve">
<style type="text/css">
	.st0{fill:#9E5C4C;}
</style>
<g>
	<path class="st0" d="M3.36,0.51c0.01,0.02,0.02,0.03,0.03,0.03c0.02,0,0.02,0,0.02,0.02c0,0.03,0.02,0.11,0.06,0.15
		C3.5,0.73,3.51,0.74,3.51,0.77c0,0.02,0.01,0.06,0.03,0.08c0,0.01,0.03,0.05,0.04,0.07l0.05,0.1c0.02,0.04,0.03,0.09,0.03,0.1
		s0.01,0.02,0.02,0.03S3.71,1.18,3.72,1.2c0.03,0.08,0.07,0.15,0.1,0.16c0.01,0.01,0.07,0.02,0.12,0.02C4,1.38,4.07,1.39,4.09,1.4
		c0.03,0.01,0.05,0,0.07,0c0.03-0.01,0.04,0,0.05,0.02c0.01,0.01,0.04,0.02,0.06,0.03s0.04,0.01,0.08,0
		c0.03-0.01,0.03-0.01,0.04,0.01c0.04,0.05,0.05,0.07,0.06,0.06c0.01-0.01,0-0.01-0.01-0.02C4.43,1.49,4.43,1.48,4.43,1.47
		c0-0.02,0.01-0.02,0.09,0.02c0.11,0.05,0.21,0.15,0.25,0.23L4.8,1.78L4.78,1.85C4.77,1.89,4.75,1.92,4.74,1.93
		C4.72,1.97,4.62,2.05,4.58,2.08C4.56,2.09,4.52,2.11,4.5,2.13C4.48,2.15,4.46,2.16,4.45,2.16c-0.01,0-0.02,0.01-0.04,0.03
		C4.39,2.21,4.37,2.22,4.36,2.22c-0.01,0-0.03,0.02-0.04,0.04C4.31,2.28,4.29,2.29,4.27,2.3S4.24,2.32,4.24,2.33
		c0,0.01-0.02,0.01-0.03,0.01c-0.02,0-0.03,0.02-0.06,0.05C4.1,2.44,4.08,2.48,4.09,2.51c0.01,0.01,0.01,0.02,0,0.03
		c-0.01,0.01,0,0.04,0.01,0.1c0.01,0.05,0.01,0.13,0.01,0.17s0.01,0.08,0.01,0.1c0.01,0.02,0.02,0.1,0.02,0.19
		c0,0.19,0.02,0.31,0.03,0.35l0.01,0.03l0.06-0.01c0.03,0,0.11-0.02,0.17-0.04C4.53,3.4,4.57,3.39,4.69,3.39
		C4.86,3.38,5.01,3.4,5.2,3.44c0.06,0.01,0.14,0.03,0.16,0.04C5.39,3.49,5.44,3.5,5.48,3.51s0.08,0.03,0.1,0.03
		c0.05,0,0.3,0.08,0.37,0.13C5.97,3.68,6,3.69,6.02,3.7c0.02,0.01,0.04,0.03,0.06,0.05C6.1,3.77,6.14,3.8,6.17,3.82
		C6.2,3.84,6.24,3.86,6.25,3.87C6.26,3.88,6.28,3.9,6.3,3.91c0.01,0.01,0.04,0.03,0.05,0.05C6.36,3.98,6.4,4,6.42,4.02
		c0.02,0.01,0.06,0.06,0.1,0.12c0.03,0.05,0.07,0.1,0.09,0.12C6.63,4.28,6.64,4.3,6.64,4.31S6.68,4.35,6.72,4.4
		C6.8,4.5,6.86,4.57,6.93,4.69C7.01,4.8,7.04,4.85,7.06,4.86c0.01,0,0.02,0.01,0.02,0.02s0.02,0.05,0.05,0.1
		C7.21,5.1,7.3,5.27,7.34,5.37c0.08,0.19,0.1,0.22,0.13,0.26C7.49,5.65,7.5,5.68,7.5,5.69s0.01,0.04,0.02,0.07
		c0.01,0.02,0.02,0.05,0.02,0.06c0,0.01,0.01,0.03,0.02,0.05C7.61,5.93,7.6,6.2,7.55,6.55C7.53,6.66,7.52,6.81,7.51,6.88
		C7.5,7.06,7.43,7.22,7.35,7.31C7.28,7.39,7.2,7.44,7.14,7.45c-0.03,0-0.06,0.02-0.09,0.04C7.03,7.51,7,7.54,6.97,7.55
		C6.94,7.56,6.91,7.58,6.89,7.62C6.87,7.65,6.84,7.68,6.82,7.69C6.8,7.71,6.79,7.73,6.79,7.74c0,0.02-0.01,0.03-0.04,0.04
		C6.72,7.79,6.69,7.79,6.67,7.79s-0.05,0-0.06,0.01C6.59,7.82,6.46,7.79,6.4,7.76C6.37,7.75,6.33,7.75,6.32,7.75
		c-0.02,0-0.02-0.01-0.06-0.06C6.18,7.6,6.1,7.47,6.1,7.44c0-0.01-0.01-0.04-0.02-0.06C6.06,7.33,6.04,7.29,6.04,7.23
		c0-0.05-0.04-0.17-0.06-0.2C5.97,7.02,5.96,6.98,5.95,6.96C5.93,6.88,5.91,6.84,5.84,6.74C5.81,6.69,5.76,6.63,5.75,6.61
		C5.73,6.56,5.7,6.54,5.61,6.5c-0.04-0.02-0.07-0.02-0.1-0.02c-0.04,0-0.05,0-0.06-0.01c0-0.01-0.03-0.02-0.06-0.03
		C5.36,6.43,5.34,6.43,5.34,6.42c0-0.01,0-0.02-0.01-0.03c-0.02-0.02-0.03-0.04,0-0.12C5.34,6.22,5.36,6.2,5.38,6.19
		s0.04-0.02,0.05-0.03c0.02-0.02,0.03-0.02,0.06-0.01c0.02,0.01,0.06,0.02,0.08,0.04c0.02,0.02,0.05,0.04,0.08,0.04
		c0.11,0.01,0.14,0.01,0.16,0.03c0.01,0.01,0.04,0.02,0.08,0.03c0.05,0.01,0.09,0.03,0.1,0.03c0.02,0.01,0.05,0.03,0.07,0.03
		c0.08,0.01,0.1,0.01,0.11-0.01c0.02-0.04,0.02-0.1,0-0.15C6.16,6.16,6.15,6.14,6.16,6.13C6.18,6.1,6.17,6.07,6.15,6.01
		C6.14,5.99,6.13,5.96,6.13,5.95c0-0.01-0.01-0.02-0.02-0.02C6.1,5.93,6.1,5.92,6.1,5.91c0.01-0.03-0.04-0.18-0.07-0.22
		C6.02,5.68,6.01,5.66,6,5.64C5.99,5.62,5.98,5.59,5.97,5.58C5.96,5.57,5.94,5.53,5.93,5.52C5.91,5.46,5.87,5.41,5.82,5.34
		C5.79,5.31,5.77,5.29,5.77,5.28c0-0.01-0.21-0.27-0.24-0.29C5.51,4.97,5.48,4.95,5.47,4.93C5.45,4.89,5.38,4.86,5.29,4.82
		c-0.1-0.03-0.21-0.04-0.4-0.06C4.82,4.75,4.72,4.74,4.68,4.74C4.55,4.73,4.35,4.73,4.31,4.76c-0.01,0-0.02,0.04-0.03,0.09
		C4.27,4.9,4.27,4.95,4.26,4.97c-0.01,0.02-0.01,0.07-0.02,0.1C4.23,5.11,4.21,5.16,4.2,5.19C4.19,5.22,4.19,5.25,4.19,5.26
		c0,0.02,0,0.04-0.02,0.07C4.16,5.36,4.14,5.39,4.14,5.41v0.05C4.13,5.47,4.1,5.53,4.07,5.61C4.04,5.69,4,5.76,3.99,5.77
		C3.98,5.78,3.98,5.8,3.98,5.81s0,0.05-0.02,0.09C3.92,5.99,3.79,6.37,3.79,6.42c0,0.02-0.01,0.07-0.03,0.12S3.72,6.68,3.71,6.73
		C3.7,6.79,3.68,6.86,3.67,6.89c-0.02,0.09-0.04,0.2-0.05,0.3c0,0.05-0.01,0.14-0.02,0.18c0,0.04-0.01,0.1-0.01,0.15
		c0,0.07,0,0.1-0.02,0.12C3.56,7.65,3.55,7.68,3.54,7.7C3.53,7.74,3.46,7.81,3.42,7.82c-0.01,0-0.03,0.03-0.07,0.06
		C3.28,7.93,3.11,8.01,2.99,8.06C2.94,8.08,2.9,8.1,2.89,8.11C2.88,8.12,2.85,8.13,2.83,8.14L2.77,8.16C2.76,8.17,2.72,8.19,2.7,8.2
		C2.64,8.22,2.55,8.25,2.55,8.27c0,0.01-0.03,0.01-0.04,0.01c-0.01,0-0.03,0.01-0.04,0.02C2.45,8.31,2.41,8.34,2.38,8.35
		C2.34,8.36,2.3,8.39,2.28,8.4C2.24,8.41,2.23,8.42,2.17,8.42s-0.08,0-0.12-0.02c-0.02,0-0.06-0.02-0.07-0.02
		C1.91,8.37,1.87,8.35,1.84,8.31C1.83,8.29,1.8,8.26,1.78,8.25C1.75,8.23,1.7,8.16,1.61,8.05c-0.02-0.03-0.06-0.08-0.09-0.1
		C1.5,7.93,1.46,7.9,1.43,7.87C1.4,7.84,1.32,7.79,1.27,7.76C1.21,7.72,1.13,7.68,1.1,7.66C1.07,7.63,1.03,7.6,1.01,7.59L0.95,7.53
		C0.94,7.52,0.91,7.48,0.89,7.46C0.88,7.44,0.86,7.42,0.85,7.39c0-0.02-0.1-0.09-0.13-0.15C0.7,7.19,0.67,7.13,0.67,7.11
		C0.66,7.07,0.65,7.05,0.63,7.04C0.56,7,0.52,6.92,0.53,6.84c0.01-0.05,0-0.07,0-0.12c0-0.05,0.04-0.2,0.09-0.31
		C0.64,6.36,0.65,6.3,0.66,6.27C0.68,6.22,0.74,6.15,0.8,6.05c0.07-0.1,0.13-0.18,0.14-0.17C0.95,5.89,0.99,5.84,1,5.8
		c0.01-0.02,0.02-0.02,0.03-0.02c0.03,0.01,0.05-0.01,0.05-0.03C1.1,5.76,1.17,5.68,1.2,5.61C1.21,5.58,1.23,5.52,1.25,5.5
		C1.3,5.46,1.32,5.43,1.34,5.4c0.01-0.02,0.04-0.03,0.05-0.04c0.02-0.01,0.04-0.04,0.06-0.08c0.01-0.02,0.02-0.05,0.03-0.06
		C1.49,5.21,1.49,5.2,1.49,5.19c0-0.01,0.02-0.04,0.05-0.07c0.03-0.03,0.06-0.08,0.07-0.1C1.62,5,1.63,4.98,1.64,4.98
		c0.02-0.01,0.16-0.17,0.17-0.2l0.04-0.07c0.02-0.02,0.03-0.05,0.04-0.06C1.9,4.64,1.92,4.61,1.93,4.6c0.02-0.02,0.03-0.05,0.04-0.1
		C2,4.4,2.06,4.35,2.11,4.33c0.02-0.01,0.05-0.02,0.08-0.04c0.1-0.09,0.13-0.12,0.14-0.12c0.01,0,0.05-0.02,0.1-0.05
		c0.12-0.07,0.15-0.08,0.25-0.1C2.81,4,2.84,3.98,2.82,3.91c-0.01-0.03-0.01-0.04,0-0.05c0.01-0.01,0-0.02-0.01-0.03
		C2.8,3.81,2.8,3.8,2.8,3.78c0.01-0.08,0.02-0.17,0-0.25C2.79,3.47,2.78,3.41,2.78,3.39c0-0.02,0-0.05-0.01-0.07
		c-0.02-0.05-0.03-0.15-0.03-0.3c0-0.15-0.02-0.22-0.04-0.28C2.68,2.7,2.68,2.68,2.7,2.67C2.7,2.66,2.7,2.65,2.68,2.63
		C2.66,2.6,2.66,2.59,2.68,2.58c0.01-0.01,0.01-0.01-0.01-0.03C2.66,2.54,2.64,2.52,2.64,2.51c0-0.01-0.01-0.03-0.03-0.04
		C2.58,2.45,2.56,2.45,2.53,2.45c-0.02,0-0.04,0-0.05-0.01c-0.02-0.02-0.05,0-0.11,0.05C2.36,2.51,2.3,2.56,2.24,2.59
		C2.11,2.66,2,2.78,1.96,2.87C1.94,2.9,1.92,2.94,1.9,2.96c-0.02,0.02-0.06,0.06-0.08,0.1S1.75,3.15,1.74,3.17
		C1.72,3.19,1.7,3.21,1.7,3.22c0,0.01-0.02,0.01-0.03,0.02c-0.01,0.01-0.06,0.05-0.1,0.09C1.52,3.37,1.49,3.4,1.47,3.4
		s-0.03,0-0.04,0.02S1.41,3.45,1.35,3.47C1.24,3.5,1.18,3.49,1.11,3.43C1.09,3.41,1.07,3.4,1.06,3.4c-0.01,0-0.04-0.02-0.08-0.04
		C0.94,3.35,0.91,3.34,0.9,3.34c-0.01,0-0.02,0-0.02-0.01S0.86,3.29,0.84,3.26C0.82,3.23,0.8,3.2,0.8,3.19c0-0.01,0-0.02-0.01-0.03
		c0-0.01-0.01-0.03-0.02-0.04C0.76,3.1,0.75,3.05,0.72,3.02c-0.04-0.05-0.07-0.1-0.06-0.13c0-0.01-0.02-0.01-0.04-0.03
		C0.59,2.84,0.58,2.82,0.58,2.8c0-0.02,0-0.02-0.02-0.02c-0.01,0-0.03-0.02-0.06-0.04C0.47,2.72,0.44,2.69,0.43,2.69
		C0.41,2.68,0.41,2.68,0.42,2.66c0.01-0.02,0-0.02-0.01-0.02c-0.01,0-0.02-0.03-0.03-0.05C0.37,2.56,0.36,2.55,0.35,2.55
		c-0.01,0-0.02,0-0.02-0.01c0-0.01-0.01-0.01-0.02-0.01c-0.02,0-0.04-0.01-0.09-0.05C0.19,2.45,0.16,2.43,0.15,2.43
		S0.14,2.42,0.14,2.41c0-0.01,0-0.02-0.02-0.04C0.11,2.36,0.09,2.34,0.09,2.33c-0.02-0.01-0.02-0.06-0.02-0.1
		c-0.01-0.1-0.02-0.11-0.04-0.11c-0.04,0-0.03-0.09,0-0.2c0.01-0.02,0.01-0.04,0-0.04c-0.02-0.02-0.02-0.05,0.01-0.1
		c0.01-0.02,0.03-0.06,0.03-0.09c0-0.06,0.02-0.07,0.06-0.05c0.04,0.02,0.05,0.01,0.05-0.02s0.09-0.11,0.13-0.13
		c0.02-0.01,0.05-0.05,0.04-0.06c0-0.01,0.01-0.03,0.03-0.05c0.03-0.03,0.04-0.03,0.07-0.03c0.03,0,0.04,0,0.09-0.04
		c0.07-0.06,0.15-0.09,0.22-0.09c0.03,0,0.04-0.01,0.05-0.02c0.01-0.02,0.1-0.02,0.13,0h0.08c0.04-0.01,0.05-0.01,0.06,0
		c0.01,0.01,0.12,0,0.14-0.01c0.01-0.01,0.02-0.01,0.05,0c0.02,0.01,0.03,0.01,0.05,0s0.04-0.01,0.06,0s0.04,0.01,0.05,0
		s0.03-0.01,0.04,0C1.49,1.2,1.5,1.2,1.51,1.18l0.01-0.02l0.07,0.03c0.04,0.01,0.09,0.02,0.1,0.02c0.02,0,0.04,0,0.05,0.01
		c0.01,0.01,0.01,0.01,0.02,0c0.01-0.01,0.02-0.01,0.03,0C1.8,1.23,1.84,1.23,1.87,1.23c0.03,0,0.1-0.01,0.15-0.01
		C2.14,1.21,2.15,1.21,2.15,1.2l0.01-0.03L2.19,1.2c0.03,0.03,0.03,0.03,0.04,0.01C2.24,1.19,2.24,1.19,2.26,1.2
		c0.01,0.01,0.02,0.02,0.04,0c0.01,0,0.04-0.02,0.06-0.02C2.4,1.17,2.41,1.17,2.43,1.19C2.45,1.2,2.45,1.2,2.47,1.2
		c0.03,0,0.08,0,0.13-0.01S2.64,1.18,2.68,1.2C2.7,1.22,2.7,1.23,2.7,1.24c0,0.02,0.01,0.03,0.02,0.01
		c0.01-0.01,0.02-0.01,0.03-0.02c0.03-0.02,0.07-0.09,0.09-0.18C2.84,1,2.86,0.94,2.89,0.88c0.03-0.06,0.06-0.14,0.07-0.17
		C2.99,0.65,3,0.64,3.04,0.62c0.05-0.02,0.05-0.02,0.06,0C3.11,0.63,3.11,0.63,3.13,0.6l0.01-0.02L3.16,0.6
		C3.18,0.63,3.19,0.62,3.2,0.56C3.21,0.5,3.22,0.49,3.24,0.53l0.01,0.02l0.02-0.03C3.28,0.5,3.28,0.48,3.29,0.48
		C3.31,0.46,3.35,0.48,3.36,0.51z M0.86,6.01C0.87,6.02,0.9,6.01,0.9,6C0.91,5.99,0.88,6,0.86,6.01z M2.77,4.97
		c-0.01,0-0.01-0.01-0.02,0C2.74,4.98,2.47,5.02,2.36,5.02c-0.13,0-0.23,0.02-0.26,0.03C2.09,5.06,2.07,5.08,2.04,5.1
		C1.98,5.14,1.95,5.19,1.87,5.28C1.84,5.3,1.82,5.34,1.81,5.36C1.8,5.38,1.77,5.42,1.77,5.43C1.75,5.45,1.71,5.48,1.7,5.5
		c0,0.02,0,0.04-0.01,0.05C1.66,5.58,1.52,5.83,1.51,5.9C1.5,5.94,1.5,5.97,1.49,5.97C1.48,5.98,1.47,6.05,1.45,6.1
		C1.42,6.21,1.36,6.29,1.39,6.32C1.4,6.33,1.42,6.36,1.43,6.39c0.01,0.03,0.02,0.06,0.03,0.07l0.05,0.05
		c0.03,0.04,0.04,0.05,0.08,0.05c0.03,0,0.07,0,0.08,0.01C1.7,6.59,1.78,6.6,1.85,6.58c0.03-0.01,0.04-0.01,0.05,0
		c0.03,0.02,0.28,0,0.3-0.03c0.01-0.01,0.02-0.01,0.03-0.01c0.01,0,0.02-0.01,0.02-0.02c0-0.01,0.01-0.03,0.03-0.03
		c0.02-0.01,0.06-0.03,0.1-0.08C2.41,6.36,2.45,6.3,2.47,6.28c0-0.02,0.01-0.04,0.02-0.04C2.51,6.23,2.55,6.1,2.55,6.03
		c0-0.04,0.01-0.06,0.02-0.06c0.01,0,0.03-0.01,0.03-0.02c0-0.01,0.01-0.06,0.02-0.11c0.01-0.05,0.02-0.09,0.02-0.12
		s0.02-0.05,0.03-0.06c0.01-0.01,0.01-0.03,0.01-0.05c0-0.02,0.01-0.06,0.02-0.07c0-0.01,0.01-0.04,0.01-0.09
		c0-0.04,0-0.07,0.01-0.08c0.01-0.01,0.06-0.25,0.07-0.34C2.8,4.97,2.79,4.97,2.77,4.97z M7.49,1.46c0.03,0.03,0.06,0.06,0.06,0.12
		c0,0.01,0,0.02,0.01,0.03c0.01,0,0.01,0.04,0.02,0.07c0.01,0.08,0.05,0.15,0.09,0.17C7.69,1.86,7.7,1.86,7.7,1.87
		c0,0.01,0.02,0.05,0.05,0.07c0.03,0.03,0.06,0.07,0.07,0.09c0.02,0.05,0.04,0.08,0.05,0.08c0.01,0,0.03,0.03,0.05,0.06
		c0.02,0.04,0.06,0.12,0.1,0.18C8.06,2.4,8.09,2.48,8.1,2.52C8.13,2.6,8.12,2.63,8.06,2.69C8.05,2.71,8.02,2.75,8.01,2.78
		C8,2.8,7.99,2.84,7.98,2.84c-0.01,0-0.03,0.03-0.06,0.06L7.85,2.98C7.84,2.98,7.83,3,7.82,3.01c0,0.01-0.02,0.02-0.03,0.02
		c-0.01,0-0.03,0.02-0.06,0.04C7.71,3.09,7.67,3.11,7.66,3.11c-0.01,0-0.02,0.01-0.03,0.02C7.62,3.16,7.61,3.16,7.48,3.17
		c-0.06,0-0.13,0.01-0.14,0.02c-0.04,0.02-0.08,0-0.09-0.02C7.22,3.12,7.19,3.1,7.13,3.06C7.09,3.02,7.07,2.98,7.04,2.89
		C7.03,2.87,7.01,2.83,7,2.82C6.99,2.81,6.98,2.77,6.97,2.74c-0.01-0.03-0.05-0.12-0.09-0.2c-0.05-0.12-0.06-0.16-0.06-0.2
		c0-0.07-0.03-0.17-0.05-0.19C6.76,2.14,6.74,2.12,6.71,2.11C6.69,2.1,6.65,2.09,6.63,2.08C6.62,2.07,6.6,2.06,6.59,2.06
		c-0.01,0-0.06,0-0.1-0.02C6.38,1.99,6.27,1.97,6.15,1.97c-0.09,0-0.09,0-0.1,0.02c0,0.01,0,0.03-0.01,0.03
		c-0.02,0-0.05-0.03-0.06-0.06c0-0.06,0-0.08,0.02-0.09c0.03-0.02,0.05-0.03,0.12-0.03c0.31-0.02,0.37-0.03,0.45-0.05
		C6.62,1.78,6.68,1.76,6.7,1.75c0.02-0.01,0.05-0.02,0.06-0.02c0.01,0,0.02-0.02,0.03-0.05c0-0.01,0.05-0.05,0.07-0.08
		c0.03-0.03,0.05-0.06,0.05-0.07s0.1-0.05,0.13-0.05c0.01,0,0.02-0.01,0.03-0.02c0-0.01,0.08-0.05,0.16-0.08
		C7.35,1.35,7.43,1.39,7.49,1.46z"/>
	<path class="st0" d="M11.39,1.16c0.06,0.01,0.1,0.02,0.13,0.04c0.02,0.01,0.05,0.03,0.08,0.04c0.04,0.02,0.06,0.03,0.08,0.06
		c0.02,0.02,0.05,0.07,0.09,0.11c0.1,0.1,0.14,0.15,0.19,0.27c0.09,0.2,0.12,0.26,0.13,0.34c0.01,0.04,0.02,0.09,0.03,0.12
		c0.05,0.17,0.15,0.36,0.03,0.5C12.12,2.66,12.1,2.69,12.1,2.7s-0.15,0.13-0.21,0.18c-0.03,0.01-0.07,0.05-0.1,0.08
		c-0.03,0.03-0.05,0.05-0.06,0.05c-0.02,0-0.11,0.12-0.17,0.21c-0.03,0.05-0.08,0.12-0.12,0.15c-0.08,0.08-0.16,0.2-0.17,0.23
		c-0.01,0-0.08,0.07-0.08,0.09c0,0.01,0,0.02-0.01,0.02c-0.01,0-0.02,0.01-0.02,0.02c0,0.01-0.01,0.03-0.03,0.05
		c-0.02,0.03-0.03,0.04-0.02,0.05c0,0.01,0,0.02-0.04,0.06c-0.06,0.06-0.08,0.13-0.09,0.18c-0.01,0.04-0.02,0.12-0.01,0.24
		c0,0.02,0,0.06,0.01,0.1c0.01,0.04,0.01,0.22,0.03,0.26c0.02,0.04,0.04,0.11,0.04,0.13c0,0.02,0,0.05,0.01,0.08
		c0.01,0.04,0.03,0.05,0.03,0.06c0,0.01-0.01,0.13,0.01,0.18c0.02,0.03,0.03,0.05,0.08,0.2c0.12,0.35,0.15,0.41,0.2,0.53
		c0.02,0.04,0.08,0.17,0.1,0.22c0.04,0.11,0.07,0.06,0.2,0.19c0.12,0.12,0.22,0.16,0.38,0.21c0.07,0.01,0.15,0.04,0.17,0.05
		c0.02,0.01,0.07,0.02,0.11,0.03c0.05,0.01,0.09,0.01,0.17,0.02c0.04,0.01,0.11,0.03,0.21,0c0.08-0.02,0.08-0.03,0.11-0.04
		c0.02-0.02,0.05-0.03,0.07-0.02c0.02,0.01,0.04,0,0.08-0.02c0.03-0.01,0.06-0.03,0.07-0.04c0.01-0.01,0.02-0.01,0.04-0.01
		c0.01,0,0.08-0.05,0.15-0.12s0.2-0.09,0.19-0.12c0-0.01,0.06-0.03,0.1-0.05c0.03-0.02,0.07-0.05,0.07-0.06
		c0-0.01,0.02-0.05,0.02-0.06c0-0.03,0.04-0.06,0.06-0.06c0.04-0.01,0.09-0.09,0.09-0.15c0.02-0.03,0.09-0.08,0.12-0.16
		c0.01-0.03,0.03-0.06,0.04-0.07c0.01-0.01,0.04-0.1,0.04-0.11c0-0.01,0.01-0.04,0.02-0.06c0.02-0.04,0.03-0.04,0.01-0.04
		c-0.03-0.02,0.02-0.13,0.06-0.14c0.04-0.01,0.04-0.01,0.04-0.02s0-0.01-0.01-0.02c-0.02-0.01-0.03-0.02-0.03-0.04
		c0-0.02-0.01-0.03-0.02-0.03c-0.02-0.01-0.02-0.01,0-0.03c0.01-0.01,0.01-0.02,0-0.03c-0.01-0.01,0-0.02,0.01-0.02
		c0.01-0.01,0.01-0.02,0-0.03C14.04,5.01,14.05,5,14.07,5s0.03-0.01,0.02-0.02c-0.02-0.02-0.02-0.05,0-0.05s0.02-0.01,0.01-0.05
		c0-0.02-0.01-0.26,0.01-0.42c0.01-0.15,0.01-0.22-0.02-0.29c-0.01-0.03-0.01-0.03,0.01-0.02s0.02-0.03,0.02-0.06V3.98
		c-0.01-0.02-0.02-0.03-0.01-0.03c0.01,0,0.02-0.2-0.03-0.53c-0.03-0.2,0.01-0.31,0-0.37c-0.04-0.4-0.06-0.61-0.04-0.62
		c0.01,0,0.01-0.03,0.02-0.06c0.01-0.03,0.02-0.09,0.02-0.12c0.01-0.03,0.01-0.06,0.01-0.07c0-0.02,0.08-0.13,0.12-0.15
		c0.1-0.06,0.03-0.1,0.19-0.13c0.09-0.02,0.12-0.02,0.14-0.01s0.08,0,0.15,0c0.08,0,0.15,0,0.17,0.01C14.9,1.91,15,1.93,15.04,1.93
		c0.02,0,0.04,0,0.06,0.01c0.03,0.02,0.06,0.01,0.43,0.02c0.27,0,0.4,0,0.44-0.01c0.07-0.02,0.11-0.01,0.17,0.01
		c0.03,0.01,0.07,0.01,0.1,0.01c0.03,0,0.05-0.01,0.06,0c0.01,0.01,0.02,0.01,0.03,0.01c0.01,0,0.06,0.02,0.11,0.04
		c0.05,0.02,0.1,0.04,0.11,0.04c0.01,0,0.04,0.03,0.06,0.06c0.07,0.06,0.08,0.09,0.04,0.14c-0.01,0.02-0.03,0.05-0.04,0.08
		c0,0.03-0.01,0.07-0.02,0.08c-0.01,0.02-0.01,0.04-0.01,0.05c0.01,0.01,0,0.01-0.01,0.02c-0.01,0.01-0.01,0.02,0,0.04
		c0.01,0.02,0.01,0.04,0,0.08c-0.01,0.03-0.02,0.06-0.02,0.07c0,0.03-0.17,0.17-0.18,0.15c-0.02-0.02-0.11-0.03-0.16-0.02
		c-0.04,0-0.29,0.03-0.61,0.05c-0.13,0.01-0.25,0.01-0.26,0.02c0,0.01,0,0.01,0.01,0.02s0.01,0.04,0.01,0.06
		c0,0.02,0,0.02,0.01,0.02c0.01,0,0.01,0.01,0.01,0.02v0.05c0.01,0.02,0.02,0.1,0.03,0.19c0.01,0.09,0.01,0.18,0.02,0.2
		c0.01,0.04,0.02,0.08,0.04,0.28c0.02,0.14,0.08,0.51,0.11,0.7c0.03,0.23,0.02,0.63-0.01,0.82c-0.01,0.04,0,0.06,0,0.08
		c0,0.02,0,0.03-0.01,0.03c-0.01,0.01,0,0.12,0.02,0.21c0.02,0.14,0.03,0.3,0.02,0.4c-0.01,0.04-0.01,0.09-0.01,0.1
		c0,0.03-0.02,0.15-0.04,0.19c-0.02,0.03-0.13,0.17-0.19,0.22c-0.02,0.02-0.06,0.06-0.07,0.08c-0.01,0.02-0.04,0.05-0.06,0.07
		c-0.05,0.04-0.19,0.17-0.25,0.25c-0.03,0.04-0.09,0.09-0.12,0.11c-0.02,0.03-0.05,0.07-0.06,0.09c-0.01,0.02-0.04,0.06-0.07,0.1
		s-0.07,0.07-0.08,0.1c-0.01,0.03-0.03,0.06-0.04,0.08c-0.02,0.02-0.05,0.06-0.07,0.09l-0.08,0.08c-0.02,0.02-0.06,0.07-0.08,0.1
		c-0.01,0.03-0.03,0.07-0.04,0.07c-0.01,0.01-0.02,0.02-0.02,0.03c0,0.03-0.02,0.09-0.05,0.13c-0.01,0.02-0.03,0.06-0.03,0.07
		c0,0.02-0.01,0.03-0.06,0.07c-0.06,0.05-0.09,0.06-0.15,0.07s-0.16,0.05-0.18,0.07c-0.01,0.01-0.02,0-0.05,0
		c-0.02,0-0.04,0.01-0.05,0.01c-0.01,0.01-0.04,0.01-0.08,0.01c-0.01,0-0.24,0.02-0.43,0.03c-0.57,0.03-0.67,0.06-0.96,0.02
		c-0.08-0.01-0.18-0.02-0.22-0.02c-0.03,0-0.07,0-0.08-0.01h-0.1c-0.02,0-0.1-0.02-0.14-0.03c-0.04-0.01-0.09-0.02-0.12-0.02
		c-0.03,0-0.05,0-0.05-0.01S11.56,8.1,11.55,8.1c-0.01,0-0.03,0-0.04-0.01c-0.01-0.01-0.02-0.01-0.03-0.01c-0.01,0-0.03,0-0.04-0.01
		c-0.01-0.01-0.02-0.02-0.03-0.02c-0.02,0-0.12-0.08-0.18-0.13c-0.03-0.03-0.11-0.08-0.15-0.12c-0.05-0.04-0.1-0.09-0.11-0.11
		c-0.01-0.01-0.02-0.02-0.03-0.02c-0.01,0-0.02-0.01-0.02-0.02s-0.02-0.03-0.04-0.04c-0.02-0.01-0.03-0.04-0.03-0.05
		c0-0.02-0.02-0.05-0.04-0.09c-0.02-0.03-0.04-0.06-0.04-0.07c0-0.01,0-0.02-0.01-0.02c-0.01,0-0.02-0.02-0.03-0.04
		c-0.01-0.02-0.04-0.05-0.05-0.06c-0.01-0.01-0.02-0.03-0.02-0.05c0-0.02-0.03-0.1-0.05-0.11V7.09c0-0.02-0.01-0.05-0.03-0.08
		s-0.03-0.05-0.03-0.06c0-0.02,0-0.04-0.01-0.04c-0.01,0-0.02-0.01-0.02-0.04c0-0.04-0.02-0.08-0.04-0.09
		c-0.01,0-0.01-0.03-0.01-0.05c0-0.01,0-0.03-0.01-0.03c-0.01-0.01-0.01-0.02-0.01-0.03s-0.02-0.06-0.04-0.1
		c-0.04-0.08-0.07-0.18-0.11-0.34c-0.02-0.1-0.05-0.22-0.06-0.26c-0.01-0.05-0.03-0.11-0.04-0.15c-0.01-0.04-0.01-0.09-0.02-0.12
		c-0.02-0.09-0.05-0.33-0.06-0.4c-0.01-0.13-0.03-0.51-0.02-0.63c0.03-0.35,0.03-0.39,0.06-0.49c0.08-0.23,0.11-0.3,0.15-0.32
		c0,0.02-0.02,0.06-0.03,0.09C10.26,3.99,10.26,4,10.27,4c0.01,0,0.01-0.02,0.02-0.04c0.02-0.06,0.12-0.19,0.21-0.28
		c0.02-0.02,0.11-0.11,0.15-0.17c0.05-0.06,0.12-0.14,0.13-0.15c0.02-0.03,0.05-0.07,0.05-0.08s0.02-0.02,0.02-0.03
		c0.01-0.01,0.03-0.02,0.04-0.04c0.01-0.02,0.02-0.04,0.03-0.05c0.01-0.01,0.01-0.02,0-0.02c-0.01,0-0.01-0.01,0.01-0.02
		c0.01-0.02,0.05-0.06,0.07-0.1c0.03-0.04,0.06-0.08,0.07-0.09c0.01-0.01,0.01-0.01,0.01-0.02s0.01-0.02,0.01-0.03
		c0.01-0.02,0.04-0.06,0.06-0.1s0.04-0.08,0.05-0.09c0.01-0.01,0.02-0.04,0.03-0.06c0.01-0.03,0.03-0.1,0.05-0.15
		c0.05-0.13,0.05-0.21,0.01-0.27c-0.02-0.02-0.03-0.06-0.05-0.09c-0.02-0.04-0.06-0.09-0.11-0.11c-0.03,0-0.06,0.01-0.1,0.04
		c-0.02,0.01-0.1,0.11-0.11,0.11c-0.13,0.09-0.24,0.11-0.3,0.19c-0.01,0.03-0.04,0.06-0.06,0.08c-0.05,0.01-0.07,0.04-0.08,0.06
		c-0.01,0.02-0.07,0.07-0.09,0.07c-0.02,0-0.07,0.07-0.07,0.08c-0.01,0.03-0.08,0.14-0.12,0.16c-0.02,0.01-0.06,0.03-0.07,0.03
		c-0.02,0-0.05,0.01-0.06,0.02c-0.01,0.01-0.03,0.01-0.04,0.01c-0.01,0-0.04,0-0.06,0.01c-0.03,0.01-0.04,0.01-0.08,0
		C9.8,2.85,9.66,2.72,9.61,2.62C9.59,2.58,9.59,2.55,9.59,2.54c0-0.01-0.01-0.03-0.02-0.04C9.55,2.48,9.55,2.44,9.53,2.41
		C9.53,2.39,9.53,2.35,9.51,2.34C9.51,2.33,9.49,2.31,9.49,2.29c0-0.02-0.01-0.06-0.02-0.09C9.47,2.17,9.45,2.14,9.45,2.12
		c0-0.02-0.01-0.04-0.02-0.05c-0.01-0.01-0.01-0.03,0-0.04c0.01-0.01,0-0.01-0.02-0.03C9.38,1.96,9.32,1.82,9.3,1.73
		C9.3,1.67,9.3,1.67,9.34,1.59C9.36,1.53,9.39,1.5,9.41,1.48c0.03-0.02,0.04-0.03,0.04-0.04c0-0.03,0.01-0.05,0.05-0.08
		c0.05-0.04,0.05-0.04,0.1-0.03c0.03,0,0.06,0.01,0.07,0.02c0.02,0.01,0.13,0.01,0.15,0c0.01,0,0.04-0.01,0.06,0
		c0.07,0.01,0.21-0.01,0.23-0.03c0-0.01,0.03-0.01,0.05-0.01s0.2-0.04,0.43-0.07c0.19-0.02,0.42-0.07,0.51-0.08
		C11.27,1.14,11.3,1.14,11.39,1.16z M14.14,2.15c0.02,0.01,0.07-0.06,0.07-0.08C14.21,2.04,14.17,2.08,14.14,2.15z M15.07,0.17
		c0,0.01,0.01,0.01,0.02,0.01c0.03-0.01,0.1,0.02,0.1,0.04c0,0.01,0.01,0.02,0.02,0.02c0.01,0,0.04,0.01,0.07,0.03
		c0.06,0.04,0.14,0.07,0.24,0.09c0.04,0.01,0.08,0.02,0.08,0.03s0.04,0.02,0.07,0.02c0.06,0,0.06,0,0.06,0.03
		c0,0.01,0.01,0.02,0.04,0.03c0.08,0.02,0.08,0.02,0.03,0.06c-0.06,0.04-0.13,0.1-0.13,0.11s0.01,0.02,0.03,0.04
		c0.02,0.02,0.03,0.04,0.03,0.05s0.02,0.05,0.05,0.08c0.06,0.06,0.15,0.19,0.14,0.21c-0.01,0.01-0.01,0.1,0,0.13
		c0.01,0.02,0.01,0.03-0.03,0.07c-0.02,0.02-0.07,0.05-0.1,0.06c-0.03,0.01-0.05,0.03-0.06,0.04c-0.01,0.01-0.02,0.02-0.03,0.02
		c-0.01,0-0.05,0-0.09,0.04c-0.06,0.05-0.09,0.06-0.2,0.04c-0.1-0.02-0.2-0.07-0.29-0.15c-0.04-0.04-0.08-0.08-0.08-0.09
		c0-0.01-0.01-0.02-0.02-0.03c-0.01-0.01-0.03-0.04-0.03-0.05c0-0.01-0.02-0.04-0.03-0.06C14.95,1.02,14.93,1,14.93,0.99
		s-0.01-0.03-0.02-0.04c-0.01-0.02-0.02-0.03-0.01-0.04c0.01-0.01,0-0.02-0.02-0.06c-0.02-0.03-0.04-0.06-0.03-0.07
		c0.01-0.01,0-0.02-0.01-0.04c-0.04-0.07-0.06-0.12-0.06-0.19V0.38c0-0.02,0-0.04,0.01-0.05c0.02-0.01,0.06,0,0.07,0.02
		c0,0.01,0.01,0.02,0.02,0.02c0.02,0.01,0.05-0.07,0.06-0.14c0.01-0.06,0.02-0.09,0.06-0.08c0.01,0,0.02,0,0.03-0.01
		S15.07,0.15,15.07,0.17z M16.46,0.01c0.01,0.01,0.02,0.01,0.03,0.01c0.01-0.01,0.04,0.01,0.09,0.07c0.04,0.04,0.08,0.08,0.09,0.08
		c0.01,0,0.02,0.02,0.03,0.04c0.01,0.02,0.03,0.06,0.05,0.07c0.02,0.01,0.04,0.05,0.05,0.07c0.01,0.02,0.04,0.05,0.05,0.06
		c0.02,0.01,0.03,0.02,0.03,0.03s0.04,0.05,0.08,0.1c0.1,0.1,0.13,0.14,0.15,0.23c0.03,0.09,0.03,0.11-0.04,0.18
		C17.02,1,17,1.01,16.93,1.02c-0.04,0.01-0.09,0.03-0.11,0.04c-0.06,0.04-0.17,0.05-0.24,0.02c-0.03-0.01-0.09-0.03-0.13-0.04
		c-0.1-0.03-0.13-0.06-0.16-0.13c-0.01-0.03-0.02-0.07-0.03-0.08c-0.01-0.01-0.01-0.03-0.01-0.04c0-0.01,0.01-0.05,0-0.08
		c-0.01-0.03-0.01-0.06-0.01-0.07c0-0.07,0.02-0.38,0.03-0.43c0.02-0.07,0.05-0.14,0.07-0.14h0.03c0.01,0,0.04-0.02,0.05-0.04
		C16.45-0.01,16.45-0.01,16.46,0.01z"/>
	<path class="st0" d="M23.1,0.41h0.05l0.05,0.05c0.03,0.03,0.06,0.06,0.06,0.07c0,0.01,0.03,0.04,0.06,0.07
		c0.05,0.05,0.07,0.09,0.07,0.12c0,0.01,0.01,0.02,0.02,0.03c0.01,0.01,0.02,0.03,0.02,0.04c0,0.01,0,0.03,0.01,0.04
		c0.01,0.01,0,0.03,0,0.04c0.02,0.01,0.02,0.02,0.03,0.05c0.05,0.2,0.16,0.5,0.23,0.6c0.02,0.03,0.04,0.07,0.05,0.09
		c0.01,0.03,0.01,0.06,0.02,0.07s0.02,0.02,0.04,0.03l0.04,0.1c0.01,0.03,0.02,0.08,0.02,0.1c0,0.02,0.01,0.06,0.02,0.09
		c0.01,0.03,0.05,0.07,0.06,0.11c0.03,0.07,0.04,0.09,0.06,0.09c0.02,0,0.05,0,0.08-0.01c0.02-0.01,0.07-0.01,0.09-0.01
		c0.02,0,0.04-0.01,0.06-0.03c0.02-0.02,0.02-0.02,0.08,0c0.04,0.01,0.06,0.01,0.09,0c0.03-0.01,0.04-0.01,0.05,0s0.01,0,0.02-0.01
		c0.01-0.02,0.01-0.02,0.03,0c0.01,0.01,0.02,0.01,0.04-0.01c0.02-0.02,0.03-0.02,0.05-0.02h0.05c0.01-0.01,0.03-0.01,0.04,0
		c0.02,0.01,0.04,0.01,0.07,0c0.05-0.02,0.06-0.02,0.08,0.01c0.01,0.01,0.03,0.02,0.05,0.03c0.02,0.01,0.03,0.03,0.03,0.04
		s0,0.02,0.01,0.02s0.02,0.01,0.03,0.02c0.02,0.01,0.03,0.01,0.05,0c0.03-0.01,0.04-0.01,0.05,0c0.02,0.01,0.03,0.03,0.03,0.05
		c0,0.01,0.01,0.01,0.04,0.02c0.05,0.01,0.09,0.04,0.1,0.08c0.01,0.01,0.01,0.02,0.02,0.02c0.01,0,0.03,0,0.04,0.01l0.09,0.05
		c0.05,0.02,0.09,0.05,0.1,0.06c0.03,0.04,0.12,0.14,0.15,0.15c0.04,0.01,0.09,0.09,0.09,0.12c0,0.02,0.01,0.05,0.02,0.07
		c0.01,0.02,0.01,0.03,0,0.05c-0.01,0.03,0,0.05,0.04,0.09c0.05,0.05,0.05,0.08,0.02,0.18c-0.01,0.05-0.01,0.06,0.01,0.07
		c0.03,0.03,0.04,0.1,0.02,0.15c-0.01,0.03-0.01,0.05-0.01,0.06c0.02,0.03,0.02,0.09,0,0.13c-0.01,0.02-0.02,0.05-0.02,0.07
		c0,0.02,0,0.05-0.01,0.05c-0.02,0.01-0.07-0.03-0.1-0.05c-0.01-0.01-0.05-0.03-0.09-0.04c-0.04-0.01-0.08-0.03-0.11-0.04
		c-0.05-0.03-0.12-0.04-0.16-0.02c-0.02,0.01-0.04,0.01-0.06,0.01c-0.02-0.01-0.06-0.01-0.07,0c-0.02,0.01-0.02,0-0.04-0.01
		c-0.03-0.03-0.14-0.03-0.18,0c-0.02,0.01-0.06,0.02-0.23,0.04c-0.2,0.02-0.27,0.03-0.31,0.05c-0.01,0-0.04,0.01-0.08,0.01
		c-0.05,0-0.06,0-0.08,0.03c-0.03,0.04-0.04,0.06-0.04,0.22v0.17c0,0.03,0.04,0.74,0.04,0.79v0.14c0,0.11,0.02,0.24,0.05,0.31
		c0.01,0.04,0.01,0.07,0,0.15c0,0.09-0.03,0.22-0.01,0.28c0.03,0.09,0.01,0.2,0.02,0.54c0.01,0.28-0.03,0.33-0.05,0.39
		c-0.01,0.06,0.01,0.14,0.02,0.27c0,0.05,0.01,0.1,0.01,0.12c0,0.02-0.02,0.04-0.05,0.07c-0.03,0.02-0.06,0.05-0.08,0.07
		c-0.03,0.04-0.04,0.04-0.06,0.02c-0.01-0.01-0.05-0.02-0.08-0.02c-0.02,0-0.05-0.01-0.06-0.01c-0.01-0.01-0.03-0.01-0.04,0
		c-0.01,0.01-0.04,0.02-0.08,0.02c-0.06,0.01-0.07,0.01-0.13-0.02l-0.07-0.04l-0.06-0.09c-0.06-0.09-0.08-0.14-0.12-0.16
		c-0.02-0.01-0.03-0.02-0.03-0.03s-0.01-0.02-0.02-0.03c-0.01-0.01-0.02-0.02-0.02-0.03c0-0.01-0.02-0.04-0.05-0.09
		c-0.04-0.06-0.05-0.09-0.05-0.12c0-0.02-0.01-0.04-0.02-0.05c-0.01,0-0.01-0.02-0.01-0.05c0-0.03,0.01-0.04,0-0.05
		c-0.01-0.01-0.02-0.03-0.02-0.05c0-0.02-0.02-0.03-0.03-0.04c-0.01-0.01-0.02-0.02-0.02-0.03c0-0.01-0.03-0.03-0.06-0.06
		c-0.03-0.03-0.06-0.08-0.07-0.1c-0.01-0.05-0.04-0.08-0.07-0.09C23.01,6.08,22.98,6.05,22.95,6c-0.03-0.05-0.08-0.1-0.1-0.12
		c-0.01-0.02-0.03-0.05-0.03-0.06c0-0.01-0.03-0.05-0.06-0.08C22.71,5.68,22.7,5.66,22.7,5.6l0.01-0.04h0.05
		c0.03,0,0.06,0,0.06,0.01c0.01,0.01,0.01,0.01,0.02,0c0.01-0.01,0.03-0.01,0.03,0c0,0.01,0.01,0,0.02,0
		c0.01-0.01,0.05-0.02,0.08-0.02l0.06-0.01L23.02,5.5c0-0.04-0.04-0.15-0.07-0.16c0.01-0.05-0.02-0.17-0.03-0.19
		c-0.01-0.02-0.02-0.06-0.03-0.07C22.88,5.05,22.85,5,22.84,4.96c0-0.04-0.02-0.09-0.03-0.11c-0.01-0.01-0.02-0.03-0.02-0.04
		c0-0.01,0-0.02-0.02-0.03c-0.02-0.01-0.04-0.07-0.06-0.14c-0.08-0.23-0.09-0.27-0.15-0.5c-0.03-0.13-0.09-0.19-0.15-0.15
		c-0.01-0.01-0.04-0.01-0.06,0C22.33,4,22.23,4,22.11,4c-0.18,0-0.24-0.01-0.25-0.01c-0.02-0.01-0.06-0.02-0.11-0.03
		c-0.08-0.01-0.1-0.02-0.23-0.05c-0.06-0.02-0.09-0.02-0.14-0.02c-0.04,0-0.17,0-0.29-0.01c-0.12,0-0.28,0-0.34,0.04
		c-0.06,0.04-0.1-0.01-0.11-0.02c-0.01-0.01-0.04-0.01-0.07-0.01c-0.03,0-0.08-0.01-0.11-0.02c-0.04-0.01-0.08-0.01-0.11-0.01
		c-0.03,0-0.05,0.01-0.05,0c0-0.01-0.04-0.01-0.06-0.01c-0.07,0-0.17-0.02-0.2-0.03c-0.01-0.01-0.02-0.01-0.03,0
		c-0.01,0.01-0.03,0.01-0.06,0c-0.04-0.01-0.05-0.01-0.07,0c-0.02,0.01-0.05,0.02-0.08,0.02c-0.16,0.03-0.34,0.06-0.39,0.05
		c-0.03-0.01-0.05-0.01-0.07,0c-0.04,0.02-0.09,0.02-0.11,0c-0.01-0.01-0.02-0.01-0.06,0c-0.07,0.01-0.09,0-0.2-0.06
		c-0.05-0.03-0.1-0.04-0.11-0.04c-0.02,0-0.06-0.02-0.12-0.06c-0.03-0.01-0.04-0.02-0.05-0.01c-0.02,0-0.05-0.01-0.09-0.06
		c-0.03-0.04-0.09-0.07-0.1-0.06c-0.01,0-0.03-0.01-0.05-0.02c-0.01-0.01-0.06-0.02-0.12-0.03c-0.08-0.01-0.13-0.03-0.15-0.05
		c-0.01-0.01-0.04-0.02-0.06-0.03s-0.04-0.02-0.04-0.03c0-0.01-0.01-0.02-0.02-0.02c-0.01-0.01-0.03-0.01-0.03-0.02
		c-0.02-0.01-0.02-0.03-0.03-0.04c0-0.01-0.02-0.04-0.04-0.06c-0.02-0.03-0.02-0.05-0.01-0.1c0.01-0.03,0.01-0.08,0.01-0.09
		c0-0.04,0.07-0.12,0.11-0.13c0.03-0.01,0.12-0.04,0.18-0.07C18.26,2.9,18.3,2.9,18.32,2.9c0.03,0,0.06-0.01,0.07-0.02
		c0.01-0.01,0.02-0.02,0.03-0.01c0.02,0.01,0.03,0.01,0.04,0c0.02-0.02,0.02-0.01,0.04,0c0.02,0.02,0.05,0,0.05-0.03
		c0-0.01,0.01,0,0.03,0s0.05,0,0.07-0.01s0.06-0.01,0.07-0.01c0.03,0.01,0.06-0.02,0.09-0.06c0.01-0.01,0.02-0.01,0.05,0
		c0.03,0.01,0.07,0.01,0.16,0c0.06-0.01,0.09-0.02,0.09-0.03c0.01-0.02,0.02-0.02,0.03-0.01c0.01,0.01,0.09,0,0.09-0.01
		c0-0.01,0.02-0.01,0.04-0.01c0.04,0,0.28-0.06,0.3-0.08c0.01-0.01,0.02-0.01,0.03-0.01s0.12-0.05,0.22-0.07
		c0.28-0.05,0.44-0.12,0.61-0.17c0.07-0.02,0.14-0.05,0.17-0.05c0.03-0.01,0.05-0.02,0.06-0.02c0.01,0,0.03,0,0.06-0.01
		c0.03-0.01,0.05-0.01,0.08-0.01c0.02,0,0.05-0.01,0.09-0.03c0.04-0.02,0.06-0.02,0.08-0.01c0.01,0.01,0.01,0.01,0.02-0.01
		c0.01-0.02,0.02-0.02,0.03-0.01c0.01,0.01,0.03,0.01,0.04,0s0.04,0,0.09,0.02c0.06,0.02,0.07,0.02,0.17,0.02
		c0.11,0,0.12-0.01,0.12-0.03c0-0.03,0.02-0.03,0.05,0c0.01,0.01,0.02,0.01,0.07,0c0.03-0.01,0.09-0.02,0.14-0.02
		c0.08-0.01,0.1,0,0.1-0.02c0-0.01,0-0.02,0.01-0.02c0.02,0,0.06,0.04,0.08,0.06l0.02,0.02l0.03-0.01c0.02-0.01,0.04-0.02,0.05-0.02
		S22,2.23,22,2.22c0.01-0.02,0.1-0.02,0.12,0c0.03,0.03,0.25,0,0.27-0.03c0-0.01,0.02-0.12,0.02-0.19c0.01-0.16,0.02-0.27,0.04-0.28
		c0.02-0.14,0.03-0.26,0.04-0.28V1.39c0-0.01,0-0.02,0.01-0.02s0.01-0.02,0.02-0.06c0.02-0.1,0.04-0.16,0.09-0.27
		c0.04-0.09,0.05-0.12,0.04-0.13c-0.01-0.01-0.01-0.02,0.01-0.03c0.02-0.02,0.03-0.04,0.03-0.05c0-0.01,0.07-0.11,0.12-0.21
		l0.08-0.18h0.04c0.03,0,0.07-0.01,0.09-0.02C23.04,0.41,23.06,0.41,23.1,0.41z M20.59,5.33c0.01,0,0.02,0.02,0.05,0.04
		c0.03,0.02,0.06,0.04,0.07,0.04s0.02,0,0.02,0.01c0.01,0.02,0.08,0.16,0.1,0.18c0.01,0.01,0,0.03,0,0.04s0,0.02,0.02,0.04
		c0,0.01,0.02,0.02,0.02,0.03c0,0.01,0.02,0.03,0.04,0.06c0.02,0.03,0.03,0.06,0.03,0.07s0.01,0.02,0.02,0.04
		c0.04,0.05,0.06,0.1,0.06,0.11c0,0.02,0.03,0.07,0.05,0.06c0.01,0,0.02,0.01,0.02,0.03c0.01,0.02,0.05,0.05,0.07,0.07
		c0.03,0.03,0.04,0.04,0.04,0.05s0.01,0.01,0.02,0.01s0.04,0.01,0.06,0.04l0.05,0.05c0.01,0,0.04,0.02,0.07,0.05
		c0.05,0.03,0.1,0.07,0.13,0.09c0.02,0.01,0.03,0.02,0.04,0.03c0,0.01,0.03,0.02,0.05,0.02c0.04,0.01,0.04,0.01,0.05,0.04
		c0,0.02,0.03,0.06,0.06,0.08c0.07,0.07,0.07,0.08,0.07,0.14c0,0.03,0.01,0.05,0.01,0.06c0.01,0.01,0.02,0.02,0.02,0.04
		c0,0.02,0.01,0.04,0.02,0.06c0.01,0.01,0.02,0.03,0.02,0.04c-0.01,0.02,0.03,0.09,0.07,0.12c0.01,0.01,0.05,0.06,0.08,0.11
		c0.03,0.05,0.06,0.11,0.08,0.14c0.04,0.04,0.08,0.11,0.09,0.19c0,0.01,0.02,0.06,0.03,0.07c0.02,0.02,0.03,0.03,0.02,0.09
		c0,0.04,0,0.07,0.01,0.11c0.01,0.03,0.01,0.04,0,0.09c-0.01,0.03-0.01,0.06-0.01,0.07s0.01,0.02,0,0.03c0,0.01-0.01,0.03-0.01,0.06
		c-0.01,0.05-0.05,0.11-0.18,0.24c0,0.01-0.05,0.06-0.12,0.12c-0.1,0.1-0.12,0.13-0.16,0.14c-0.05,0.01-0.05,0.01-0.07,0
		c-0.01-0.01-0.02-0.02-0.03-0.02c-0.01,0-0.06-0.01-0.1-0.03c-0.03-0.02-0.07-0.03-0.09-0.03c-0.02,0-0.04,0-0.04-0.01
		c0-0.01-0.06-0.03-0.11-0.06c-0.04-0.02-0.1-0.06-0.13-0.08c-0.03-0.01-0.05-0.03-0.06-0.03s-0.02,0-0.03-0.01
		c-0.01-0.01-0.01-0.03-0.02-0.02c0,0.01-0.01-0.01-0.04-0.04s-0.08-0.08-0.12-0.11c-0.04-0.03-0.07-0.06-0.08-0.07
		c0-0.01,0-0.02-0.01-0.02s-0.02-0.02-0.03-0.04c0-0.02-0.03-0.07-0.06-0.11c-0.03-0.04-0.06-0.1-0.07-0.14
		c-0.02-0.06-0.03-0.08-0.05-0.09c-0.02-0.01-0.02-0.02-0.02-0.04c0-0.01-0.01-0.04-0.06-0.07l-0.06-0.04l-0.01-0.06V7.33
		c0.01-0.02,0.02-0.07,0.01-0.13c0-0.06-0.01-0.12-0.01-0.14c0-0.13,0.01-0.21,0.02-0.21c0.01-0.01,0.01-0.03,0-0.07
		c-0.02-0.1-0.04-0.15-0.08-0.17c-0.02-0.02-0.04-0.02-0.04-0.03s0.02-0.04,0.03-0.08c0.02-0.04,0.02-0.09,0.02-0.11
		c0-0.02,0.01-0.04,0.02-0.05c0.01-0.01,0.01-0.02-0.01-0.04l-0.03-0.04V6.09c0-0.18,0.01-0.27,0.02-0.35
		c0.01-0.03,0.01-0.09,0.01-0.14s0-0.12,0.01-0.15c0.01-0.04,0.02-0.04,0.05-0.04c0.03,0,0.04-0.01,0.06-0.04
		C20.57,5.35,20.58,5.33,20.59,5.33z"/>
	<path class="st0" d="M29.96,0.52c0.01,0.02,0.05,0.06,0.06,0.07l0.02,0.02L30,0.65l0.03,0.01c0.03,0.01,0.03,0.01,0.02,0.03
		c-0.01,0.01,0,0.03,0.02,0.05c0.03,0.02,0.03,0.02,0.01,0.04c-0.01,0.01-0.02,0.02,0,0.03c0.02,0.01,0.02,0.01,0,0.04
		c-0.01,0.02-0.01,0.04-0.01,0.06c0.01,0.03,0.01,0.05-0.02,0.08C30.03,1,30.02,1.02,30.02,1.03S30,1.06,29.98,1.07
		c-0.03,0.02-0.04,0.04-0.02,0.04c0.01,0,0.02,0,0.02,0.01s-0.02,0.04-0.06,0.08c-0.06,0.05-0.09,0.09-0.08,0.12
		c0,0.02-0.01,0.04-0.02,0.04c-0.02,0.01-0.05,0.05-0.07,0.08c-0.02,0.03-0.04,0.04-0.06,0.05c-0.02,0.01-0.03,0.04-0.05,0.07
		c-0.03,0.05-0.07,0.07-0.07,0.04c-0.02,0.01-0.02,0.05-0.02,0.08c0.01,0.04,0.01,0.04-0.02,0.05c-0.01,0.01-0.04,0.02-0.04,0.03
		s-0.01,0.02-0.02,0.02s-0.01,0.01-0.01,0.02c0,0.03-0.02,0.06-0.03,0.05c0-0.01-0.02,0.05-0.01,0.08s-0.01,0.06-0.07,0.12
		c-0.03,0.03-0.06,0.08-0.07,0.1c-0.01,0.02-0.01,0.03-0.02,0.02c-0.01-0.01-0.07,0.07-0.07,0.1V2.3c-0.01,0-0.02,0.04-0.04,0.07
		c-0.02,0.03-0.03,0.06-0.04,0.06C29.1,2.44,29.1,2.45,29.1,2.47c0,0.05-0.03,0.14-0.07,0.17C29.02,2.65,29,2.67,29,2.68
		c0,0.01-0.01,0.02-0.02,0.03c-0.01,0.01-0.02,0.04-0.02,0.07c0,0.04-0.01,0.07-0.02,0.08s-0.01,0.02-0.01,0.03
		c0,0.01,0,0.04-0.01,0.09c-0.01,0.04-0.02,0.1-0.02,0.11c0,0.02,0,0.03-0.01,0.05c-0.01,0.02-0.03,0.05-0.04,0.11
		c-0.01,0.05-0.02,0.12-0.03,0.13c-0.01,0.02-0.01,0.02,0,0.03s0.01,0.02,0,0.05c-0.01,0.02,0,0.09,0,0.16V3.8
		c0,0.04,0,0.07,0.01,0.07c0.01,0.02-0.01,0.1-0.01,0.19c-0.01,0.13,0,0.16,0.01,0.17s0.01,0.04-0.01,0.14
		c-0.02,0.11-0.05,0.45-0.05,0.5c0,0.02,0,0.01,0.05-0.01c0.03-0.01,0.06-0.02,0.07-0.04c0.02-0.03,0.03-0.03,0.04-0.02
		c0.01,0.01,0.02,0,0.05-0.02c0.02-0.02,0.09-0.07,0.16-0.11c0.06-0.04,0.14-0.09,0.17-0.12c0.03-0.03,0.08-0.06,0.1-0.07
		c0.02-0.02,0.06-0.05,0.09-0.08s0.08-0.06,0.11-0.07c0.03-0.01,0.05-0.02,0.06-0.03c0-0.01,0.02-0.01,0.03-0.01
		c0.01,0,0.02-0.02,0.03-0.03c0.01-0.01,0.02-0.01,0.03-0.01s0.02-0.02,0.04-0.03c0.02-0.01,0.04-0.02,0.05-0.02
		s0.01-0.01,0.01-0.02s0.01-0.01,0.03-0.01c0.04,0,0.09-0.01,0.1-0.03c0.01-0.01,0.02-0.02,0.04-0.02c0.04,0,0.07-0.01,0.09-0.05
		c0.01-0.03,0.03-0.04,0.05-0.02c0.01,0.01,0.02,0.01,0.03-0.01c0.01-0.02,0.03-0.02,0.05-0.02c0.02,0,0.06-0.01,0.1-0.02
		c0.06-0.02,0.1-0.03,0.21-0.03c0.08,0,0.14,0.01,0.14,0.02C30.7,4,30.74,4,30.78,4.01c0.18,0.04,0.33,0.17,0.41,0.35
		c0.01,0.02,0.03,0.05,0.04,0.06c0.01,0.01,0.02,0.03,0.03,0.05c0.01,0.02,0.03,0.07,0.04,0.1c0.05,0.07,0.12,0.3,0.16,0.46
		c0.02,0.07,0.04,0.15,0.05,0.16c0.01,0.01,0.01,0.03,0.01,0.04c0,0.01,0.01,0.06,0.02,0.09c0.01,0.05,0.01,0.1,0.01,0.11v0.09
		c0,0.12-0.04,0.3-0.12,0.48c-0.02,0.04-0.08,0.17-0.11,0.26c-0.04,0.08-0.08,0.17-0.09,0.2c-0.01,0.02-0.02,0.04-0.02,0.05
		c-0.01,0.01-0.03,0.12-0.02,0.15c0,0.02,0,0.03-0.01,0.03c-0.01,0-0.01,0.01,0,0.03c0.01,0.01,0.02,0.04,0.03,0.06
		c0.01,0.03,0.02,0.05,0.03,0.05c0.01,0,0.03,0.01,0.03,0.02c0,0.01,0.01,0.03,0.03,0.04c0.02,0.01,0.04,0.03,0.05,0.04
		C31.36,6.95,31.51,7,31.57,7c0.02,0.01,0.04,0.01,0.05,0.02c0.01,0,0.06,0.02,0.1,0.02s0.07,0.01,0.08,0.02h0.07
		c0.04,0,0.07,0,0.08,0.01c0.03,0.01,0.07,0.02,0.11,0c0.01-0.01,0.03-0.01,0.04-0.01s0.04-0.01,0.06-0.02
		c0.02-0.01,0.04-0.01,0.05-0.01c0.01,0,0.12-0.05,0.13-0.06c0-0.01,0.01-0.01,0.03-0.01c0.02,0,0.05-0.01,0.06-0.02
		c0.01-0.01,0.05-0.03,0.07-0.04c0.01,0,0.06-0.04,0.09-0.06c0.03-0.03,0.05-0.05,0.06-0.05s0.04-0.03,0.08-0.06l0.06-0.07V6.59
		c0-0.04,0.02-0.12,0.02-0.18c0-0.07,0.01-0.12,0.02-0.13c0.01,0,0.01-0.01,0.01-0.02c0.05-0.01,0.11-0.09,0.11-0.14
		c0-0.01,0.01-0.03,0.02-0.04c0.01-0.01,0.05-0.06,0.08-0.12c0.08-0.12,0.15-0.19,0.19-0.19c0.01,0,0.03-0.01,0.05-0.02
		c0.02-0.01,0.04-0.02,0.05-0.02c0.03-0.01,0.04-0.02,0.04-0.05c0.01-0.04,0.04-0.07,0.08-0.06c0.03,0,0.05,0.01,0.05-0.01
		c0-0.04,0.02-0.05,0.05-0.03c0.03,0.02,0.04,0.04,0.04,0.07c0,0.01,0.01,0.02,0.02,0.02c0.01,0,0.03,0.01,0.03,0.02
		s0.01,0.01,0.02,0.01c0.03-0.01,0.03,0.02,0.01,0.08c-0.01,0.04-0.01,0.05,0.01,0.07c0.01,0.01,0.02,0.02,0.02,0.03
		c0,0.01,0.01,0.03,0.02,0.05c0.02,0.03,0.02,0.04,0.01,0.06c-0.03,0.04-0.02,0.08,0.01,0.12c0.02,0.02,0.03,0.04,0.03,0.05
		s0.01,0.03,0.02,0.04c0.01,0.01,0.02,0.02,0.02,0.03s0.01,0.02,0.02,0.03c0.02,0.02,0.08,0.21,0.09,0.28
		c0.01,0.06,0.11,0.29,0.15,0.34c0.02,0.02,0.04,0.04,0.04,0.05c0,0.01,0.01,0.03,0.02,0.05L34.16,7l-0.02,0.03
		c-0.02,0.03-0.02,0.03-0.01,0.08c0.01,0.05,0.01,0.05-0.01,0.08c-0.01,0.02-0.05,0.05-0.08,0.06c-0.03,0.02-0.05,0.04-0.05,0.05
		c-0.01,0.03-0.08,0.1-0.15,0.15c-0.06,0.03-0.21,0.18-0.21,0.2c0,0.01,0.01,0.01,0.02,0.01c0.02,0,0.02,0.01-0.07,0.09
		c-0.05,0.05-0.12,0.12-0.16,0.15s-0.07,0.06-0.08,0.06C33.33,7.97,33.3,8,33.27,8.02c-0.02,0.02-0.04,0.03-0.04,0.04
		c-0.02,0.01-0.11,0.09-0.2,0.18c-0.17,0.17-0.18,0.18-0.21,0.18c-0.02,0-0.04,0-0.06,0.01c-0.03,0.01-0.07,0.01-0.13,0
		c-0.05,0-0.09-0.01-0.11,0c-0.02,0-0.12,0.01-0.21,0.02c-0.1,0.01-0.2,0.03-0.22,0.03c-0.02,0.01-0.03,0.01-0.04,0
		c-0.01,0-0.09-0.01-0.19-0.01c-0.09,0-0.18,0-0.19-0.01s-0.01,0-0.02,0c-0.01,0-0.02,0-0.04-0.01c-0.02-0.01-0.05-0.01-0.09-0.02
		c-0.04-0.01-0.07-0.01-0.07-0.02S31.43,8.4,31.4,8.39c-0.03-0.01-0.08-0.03-0.15-0.06s-0.13-0.05-0.14-0.05
		c-0.02,0-0.04-0.02-0.04-0.03S31.04,8.22,31,8.2c-0.14-0.09-0.25-0.21-0.44-0.46c-0.06-0.07-0.11-0.14-0.11-0.15s0-0.02-0.01-0.03
		c0-0.01-0.02-0.04-0.03-0.07c-0.01-0.02-0.02-0.05-0.02-0.06c-0.01-0.01-0.02-0.05-0.03-0.08s-0.03-0.07-0.04-0.09
		S30.3,7.23,30.3,7.22s-0.01-0.05-0.02-0.1C30.26,7.07,30.25,7,30.25,6.97V6.78c0-0.06-0.01-0.11-0.01-0.12s0.01-0.06,0.02-0.13
		c0.01-0.06,0.02-0.17,0.03-0.22c0.01-0.07,0.02-0.09,0.03-0.1c0.04-0.03,0.07-0.07,0.07-0.08V6.1c0.01-0.01,0.02-0.04,0.03-0.06
		c0.01-0.03,0.01-0.06,0.02-0.07c-0.01,0.01-0.02,0.01,0-0.04c0.08-0.19,0.11-0.31,0.1-0.43c0-0.11-0.03-0.17-0.08-0.24
		c-0.02-0.03-0.03-0.05-0.02-0.06c0-0.01,0-0.02-0.01-0.03c-0.01-0.01-0.02-0.04-0.04-0.07c0-0.01-0.04-0.05-0.07-0.08
		c-0.04-0.04-0.06-0.05-0.07-0.05c-0.03,0.01-0.05,0.07-0.04,0.1c0,0.01-0.01,0.02-0.04,0.06c-0.02,0.03-0.04,0.05-0.04,0.06
		c0,0.02-0.14,0.14-0.27,0.27c-0.09,0.08-0.24,0.2-0.34,0.26c-0.04,0.03-0.08,0.05-0.08,0.06c0,0.01-0.01,0.02-0.04,0.04
		c-0.03,0.02-0.1,0.09-0.15,0.15c-0.05,0.06-0.08,0.09-0.09,0.1c-0.01,0-0.03,0.04-0.06,0.07l-0.15,0.15
		c-0.04,0.06-0.12,0.13-0.15,0.17c-0.03,0.04-0.08,0.09-0.1,0.13c-0.03,0.04-0.06,0.09-0.06,0.1c0,0.01-0.02,0.04-0.04,0.07
		c-0.02,0.02-0.03,0.05-0.03,0.06c0,0.01-0.03,0.04-0.05,0.06c-0.02,0.02-0.04,0.05-0.04,0.07c0,0.02-0.01,0.05-0.02,0.06
		c-0.01,0.02-0.04,0.07-0.07,0.13c-0.02,0.06-0.04,0.1-0.05,0.1c0,0.01-0.01,0.02-0.01,0.03s-0.01,0.04-0.02,0.05
		c-0.04,0.04-0.06,0.09-0.06,0.16c0,0.04,0,0.08-0.01,0.09c-0.01,0.01-0.01,0.03-0.01,0.06c0,0.05-0.04,0.22-0.06,0.24
		c-0.01,0.01-0.01,0.04-0.02,0.07C28.13,8,28.08,8.08,28.01,8.2c-0.03,0.05-0.06,0.09-0.08,0.1c-0.03,0.01-0.07,0.05-0.11,0.08
		c-0.06,0.05-0.07,0.06-0.17,0.06c-0.18,0.03-0.28,0.01-0.33-0.03c-0.01-0.01-0.04-0.03-0.05-0.04c-0.03-0.01-0.05-0.03-0.08-0.07
		c-0.02-0.03-0.04-0.05-0.05-0.06c-0.01-0.01-0.02-0.03-0.03-0.05c-0.01-0.03-0.04-0.08-0.05-0.1c-0.01-0.02-0.03-0.04-0.03-0.05
		c0-0.01-0.01-0.05-0.02-0.08c-0.01-0.04-0.02-0.1-0.03-0.13c0-0.03-0.01-0.08-0.02-0.1c-0.01-0.02-0.01-0.08-0.01-0.13
		s-0.01-0.09-0.01-0.1c0-0.01-0.02-0.16-0.02-0.2c0-0.15,0.01-0.36,0-0.43c0-0.06-0.01-0.09,0-0.1c0.01-0.01,0.01-0.02-0.01-0.04
		C26.9,6.71,26.9,6.7,26.9,6.69c0-0.01,0-0.02-0.01-0.04c-0.01-0.03-0.01-0.03,0-0.05c0.01-0.01,0.02-0.01,0.01-0.02
		s-0.03-0.14-0.03-0.19V6.34c0-0.01,0.01-0.02,0-0.03c-0.01-0.01-0.01-0.02,0-0.04c0.01-0.02,0.01-0.04,0.01-0.06
		c0-0.02,0-0.05,0.01-0.07c0.01-0.02,0.02-0.06,0.02-0.08c0-0.02,0.01-0.03,0.02-0.04c0.01-0.01,0.02-0.03,0.02-0.07
		c0-0.02,0.03-0.1,0.05-0.15c0.02-0.04,0.03-0.09,0.03-0.1V5.64c0.02-0.06,0.04-0.12,0.05-0.27c0.01-0.13,0.03-0.21,0.05-0.25
		c0.01-0.03,0.01-0.04,0-0.05c-0.01-0.02-0.01-0.02,0-0.04c0.01-0.01,0.02-0.02,0.02-0.03s0.01-0.03,0.02-0.04
		c0.01-0.01,0.02-0.06,0.03-0.11c0.01-0.04,0.02-0.11,0.03-0.14c0.01-0.03,0.04-0.11,0.06-0.19c0.05-0.16,0.07-0.19,0.11-0.31
		c0.01-0.04,0.03-0.09,0.03-0.1c0.01-0.02,0.02-0.07,0.04-0.11c0.03-0.08,0.04-0.11,0.02-0.13c-0.01-0.01,0-0.03,0.02-0.06
		c0.02-0.04,0.02-0.1,0-0.11c-0.01,0,0-0.01,0.01-0.04c0-0.01,0.03-0.11,0.05-0.2c0.02-0.08,0.04-0.2,0.06-0.25
		c0.04-0.08,0.18-0.4,0.19-0.42c0.01-0.01,0.02-0.03,0.02-0.05c0.01-0.03,0.02-0.05,0.05-0.06c0.03,0,0.03,0,0.02-0.02
		c0-0.01,0-0.03,0.03-0.07c0.02-0.03,0.04-0.05,0.05-0.07c0-0.02,0.01-0.04,0.02-0.04s0.04-0.04,0.06-0.06
		c0.02-0.03,0.05-0.05,0.06-0.06c0.02-0.01,0.02-0.02,0.02-0.04c0-0.02,0.02-0.03,0.04-0.04c0.02-0.01,0.04-0.03,0.05-0.06
		c0.02-0.02,0.04-0.05,0.05-0.06c0.01-0.01,0.02-0.02,0.02-0.03s0.01-0.02,0.02-0.02c0.01,0,0.02-0.02,0.02-0.03
		c0-0.01,0.01-0.02,0.02-0.02c0.01,0,0.01-0.01,0.01-0.02c0-0.01,0.01-0.03,0.02-0.04c0.07-0.07,0.08-0.08,0.08-0.09
		c0-0.01,0.07-0.1,0.16-0.2c0.04-0.05,0.08-0.12,0.09-0.14c0.01-0.03,0.03-0.03,0.04-0.03c0.02,0.01,0.05-0.03,0.05-0.05
		c0-0.01,0.01-0.02,0.04-0.06c0.02-0.02,0.03-0.04,0.03-0.05s0.01-0.01,0.02-0.01s0.03-0.02,0.04-0.04c0-0.02,0.04-0.06,0.08-0.09
		c0.06-0.03,0.06-0.04,0.06-0.06c0-0.01,0-0.04,0.01-0.06c0.01-0.02,0.01-0.04,0-0.04c-0.02-0.01,0-0.02,0.03-0.02
		c0.04,0,0.06-0.03,0.06-0.06c0-0.01,0.02-0.02,0.02-0.03c0-0.01,0.02-0.03,0.03-0.03s0.03-0.01,0.03-0.02
		c0-0.01,0.01-0.03,0.02-0.04c0.01-0.01,0.02-0.02,0.02-0.03c0-0.02,0.08-0.08,0.11-0.08c0.01,0,0.02-0.01,0.01-0.03
		c0-0.03,0-0.03,0.02-0.03c0.02,0,0.05-0.02,0.1-0.06c0.06-0.06,0.06-0.06,0.09-0.04l0.03,0.02V0.59c0.01-0.03,0.01-0.03,0.04-0.03
		c0.02,0,0.03-0.01,0.04-0.02c0.01-0.01,0.03-0.01,0.06-0.01s0.05-0.01,0.07-0.02C29.91,0.47,29.93,0.48,29.96,0.52z"/>
	<path class="st0" d="M38.69,1.26c0.01,0,0.04,0.01,0.05,0.01c0.02,0,0.07,0.03,0.11,0.06s0.09,0.05,0.1,0.05
		c0.01,0,0.03,0.02,0.05,0.04c0.03,0.02,0.05,0.04,0.06,0.04c0.01,0,0.03,0.01,0.05,0.02c0.08,0.05,0.21,0.09,0.46,0.16
		c0.03,0.01,0.04,0.01,0.04,0.02s0.01,0.03,0.02,0.04c0.01,0.01,0.03,0.03,0.03,0.04c0,0.01,0.22,0.08,0.33,0.11
		c0.04,0.01,0.08,0.02,0.08,0.03s0.02,0.01,0.03,0.01c0.01,0,0.02,0,0.02,0.01c0,0.02-0.04,0.02-0.11,0
		c-0.04-0.01-0.07-0.01-0.08-0.01c-0.01,0,0.05,0.03,0.17,0.07c0.1,0.03,0.19,0.06,0.2,0.06c0.02,0-0.02-0.03-0.06-0.04
		c-0.02,0-0.05,0-0.04-0.02c0.01,0,0.01,0.01,0.02,0c0-0.01-0.01-0.01-0.03-0.01c-0.03-0.01-0.06-0.04-0.05-0.05
		c0.01-0.01,0.05,0.01,0.11,0.03c0.06,0.02,0.13,0.04,0.15,0.04c0.01,0,0.03,0,0.03,0.01c0.01,0.01,0.03,0.02,0.04,0.01
		c0-0.01,0.04,0,0.09,0.01c0.08,0.02,0.11,0.04,0.13,0.06c0.01,0.01,0.03,0.02,0.06,0.02s0.08,0.01,0.11,0.02
		c0.03,0.01,0.06,0.03,0.08,0.03l0.04,0.01l-0.04-0.02c-0.02-0.01-0.05-0.03-0.05-0.04c-0.01-0.01-0.05-0.02-0.09-0.03
		C40.72,2.04,40.65,2,40.66,1.98c0.02-0.01,0-0.03-0.02-0.02c-0.01,0-0.02,0-0.03,0.02c-0.01-0.02-0.01-0.03-0.02-0.03
		c-0.02,0-0.04-0.04-0.02-0.04c0.01,0,0.04,0.01,0.07,0.02c0.02,0.01,0.04,0.01,0.06,0.01c0.02,0,0.03,0,0.04,0.01
		c0.01,0.01,0.08,0.03,0.15,0.06c0.13,0.05,0.18,0.07,0.2,0.1c0.02,0.02,0.03,0.02,0.03,0.01c0.01-0.02,0.01-0.02,0.3,0.1
		c0.11,0.04,0.2,0.09,0.22,0.1c0.05,0.01,0.06,0.03,0.04,0.04c-0.03,0.02,0.02,0.03,0.06,0.02c0.03-0.01,0.04,0,0.04,0.01
		s0.01,0.02,0.02,0.02c0.02,0,0.05-0.02,0.05-0.04c0-0.02,0.05-0.01,0.06,0.01c0.01,0.01,0.03,0.02,0.05,0.03
		c0.02,0.01,0.04,0.03,0.05,0.05c0.01,0.01,0.04,0.05,0.06,0.07c0.02,0.02,0.05,0.07,0.07,0.11c0.02,0.04,0.05,0.07,0.06,0.08
		c0.01,0.01,0.02,0.05,0.02,0.13c0.01,0.08,0.01,0.11,0.02,0.13c0.01,0.02,0.01,0.04,0.01,0.06c-0.01,0.04,0,0.15,0.01,0.15
		c0.01,0,0,0.46-0.01,0.48c-0.01,0.02-0.01,0.07-0.02,0.12c0,0.05-0.01,0.08-0.02,0.09S42.2,3.9,42.2,3.92
		c0,0.02-0.03,0.08-0.05,0.13c-0.02,0.05-0.05,0.1-0.05,0.12c0,0.02-0.01,0.04-0.02,0.06s-0.02,0.05-0.02,0.06
		c0,0.01,0,0.03-0.02,0.05c-0.01,0.02-0.03,0.03-0.03,0.04c0,0.01-0.02,0.05-0.05,0.11c-0.03,0.06-0.05,0.1-0.05,0.11
		c0,0.01-0.02,0.05-0.04,0.11c-0.02,0.06-0.04,0.1-0.04,0.11s-0.01,0.03-0.02,0.04c-0.02,0.04-0.11,0.31-0.16,0.49
		c-0.01,0.05-0.03,0.14-0.04,0.2c0,0.05,0,0.11-0.01,0.12c-0.01,0.04-0.03,0.15-0.02,0.15c0.01,0,0,0.02-0.01,0.04
		c-0.01,0.01-0.02,0.05-0.03,0.08c-0.01,0.03-0.01,0.09-0.02,0.12c-0.01,0.05-0.02,0.11-0.02,0.15c0,0.08-0.01,0.14-0.01,0.15
		c-0.02,0.03-0.02,0.04,0,0.09c0.01,0.03,0.01,0.05,0,0.08c-0.01,0.01-0.01,0.03,0,0.04c0.02,0.03,0.03,0.09,0.01,0.11
		c-0.01,0.01,0.01,0.13,0.03,0.18c0,0.01,0,0.03-0.01,0.04c-0.01,0.01,0,0.02,0.01,0.04c0.03,0.04,0.04,0.1,0.02,0.12
		c-0.01,0.01-0.01,0.03-0.01,0.06c0,0.04-0.01,0.07-0.06,0.16c-0.03,0.06-0.06,0.12-0.07,0.12c-0.01,0-0.04,0.04-0.08,0.08
		c-0.06,0.05-0.1,0.07-0.15,0.09c-0.03,0.01-0.05,0.03-0.06,0.04c-0.01,0.01-0.02,0.01-0.03,0C41.05,7.58,41.03,7.58,41,7.62
		c-0.02,0.03-0.03,0.03-0.04,0.02s-0.03-0.01-0.11,0.01c-0.07,0.01-0.14,0.02-0.16,0.02c-0.02,0-0.03,0-0.03,0.01
		c-0.01,0.01-0.02,0.01-0.05,0.01c-0.03,0-0.06,0.02-0.09,0.03c-0.04,0.02-0.05,0.02-0.07,0.01c-0.01-0.01-0.04-0.01-0.05-0.01
		c-0.02,0-0.05-0.01-0.07-0.02c-0.03-0.01-0.04-0.01-0.05,0.01c-0.01,0.01-0.02,0.02-0.04,0.02c-0.01,0-0.05,0-0.08,0.01
		c-0.06,0.01-0.07,0.01-0.1,0c-0.02,0-0.04-0.01-0.06-0.01c-0.02,0-0.03,0-0.04-0.01c0-0.01-0.02-0.01-0.03,0
		c0,0.01-0.02,0.01-0.07,0.01c-0.04,0-0.07-0.01-0.08-0.01s-0.04,0-0.07,0.01c-0.03,0.01-0.04,0.01-0.05,0l-0.03-0.02l-0.02,0.02
		c-0.02,0.01-0.02,0.01-0.03,0.01c0-0.01-0.01-0.01-0.01-0.02s-0.02-0.01-0.04-0.01c-0.02,0-0.07,0.01-0.09,0.01
		c-0.03,0-0.06,0.01-0.07,0.01c-0.01,0-0.01,0.01-0.02,0s-0.03-0.01-0.04-0.01c-0.02,0-0.04,0-0.05-0.01
		c-0.01-0.01-0.02-0.02-0.03-0.02s-0.03,0-0.05-0.01c-0.02-0.01-0.03-0.01-0.04-0.01s-0.03,0-0.05-0.01
		c-0.01-0.01-0.05-0.01-0.08-0.02s-0.07-0.02-0.1-0.04c-0.05-0.03-0.06-0.03-0.17-0.03h-0.15c-0.22,0-0.37-0.01-0.4-0.02
		c-0.04-0.02-0.18-0.04-0.29-0.04c-0.04,0-0.11-0.01-0.15-0.01c-0.08-0.02-0.13-0.02-0.27,0c-0.07,0-0.08,0.01-0.31-0.01l-0.22-0.02
		c-0.01-0.01-0.04-0.01-0.08,0s-0.08,0.01-0.12,0.01l-0.07,0.01l-0.06-0.06c-0.03-0.03-0.05-0.05-0.05-0.06c0-0.01,0-0.02-0.02-0.03
		c-0.02-0.01-0.04-0.01-0.04-0.02c0-0.03-0.07-0.13-0.11-0.17l-0.04-0.04l0.01-0.08c0-0.05,0-0.07-0.02-0.1l-0.04-0.07
		c-0.02-0.04-0.06-0.07-0.12-0.08c-0.03-0.01-0.03-0.01-0.03-0.08s0-0.07-0.04-0.11c-0.03-0.03-0.03-0.04-0.03-0.06
		c0-0.02-0.01-0.06-0.02-0.08c-0.01-0.02-0.01-0.05-0.01-0.06c0-0.02,0-0.04-0.01-0.05c-0.01-0.01-0.03-0.03-0.03-0.04
		c0-0.02,0-0.03-0.01-0.04c-0.01-0.01,0-0.11,0.02-0.16c0.01-0.02,0.02-0.05,0.04-0.07c0.03-0.05,0.06-0.11,0.03-0.14
		c-0.01-0.01-0.01-0.03-0.01-0.05c0-0.02,0-0.02-0.02-0.02c-0.02-0.01-0.03-0.02-0.04-0.05c-0.01-0.02-0.02-0.06-0.04-0.07
		c-0.02-0.01-0.04-0.04-0.05-0.07s-0.03-0.06-0.04-0.08c-0.02-0.03-0.03-0.05-0.03-0.07c0-0.02,0-0.05-0.02-0.07
		c0-0.02-0.02-0.04-0.02-0.06c0-0.01-0.02-0.05-0.04-0.07c-0.09-0.12-0.12-0.23-0.12-0.43V4.43c0-0.03-0.01-0.05-0.03-0.09
		c-0.02-0.05-0.03-0.08-0.03-0.1c0-0.02,0.01-0.05,0-0.05V4.16c0-0.02,0-0.08-0.01-0.13c-0.01-0.06-0.01-0.11-0.01-0.13
		c0-0.01,0-0.05-0.01-0.06c-0.01-0.02-0.01-0.04-0.01-0.05c0.01-0.04,0.01-0.07,0-0.08c-0.01-0.01-0.01-0.02-0.01-0.05
		c0-0.02-0.01-0.05-0.03-0.1c-0.02-0.03-0.02-0.07-0.02-0.09c0-0.02,0-0.04-0.01-0.04c0.01-0.02,0.02-0.05,0.01-0.09
		c-0.01-0.09-0.01-0.21,0-0.22c0.01-0.02,0-0.18-0.01-0.18c-0.01-0.01,0.01-0.11,0.02-0.13c0-0.01-0.01-0.02-0.02-0.04
		c-0.02-0.03-0.03-0.05-0.03-0.08c0-0.04-0.01-0.05-0.02-0.06c0.02-0.02,0.01-0.12-0.01-0.17c-0.02-0.05-0.02-0.06-0.01-0.22
		c0-0.08,0-0.16,0.02-0.17c0-0.01,0-0.03,0.02-0.05c0.04-0.04,0.05-0.03,0.07,0.03c0.01,0.03,0.02,0.03,0.04,0.03
		c0.03,0,0.04-0.02,0.04-0.04c0-0.01,0.11-0.11,0.15-0.14c0.03-0.02,0.21-0.03,0.26-0.01c0.02,0.01,0.05,0.03,0.06,0.04
		c0.05,0.04,0.08,0.05,0.1,0.05c0.01,0,0.03,0,0.05,0.02c0.02,0.02,0.05,0.03,0.06,0.03c0.02,0,0.02,0,0.02,0.02
		c0,0.01,0,0.02,0.01,0.02c0.01,0,0.01,0,0.02,0.02c0.01,0.02,0.03,0.05,0.06,0.07c0.03,0.02,0.05,0.04,0.05,0.05
		c0,0.01,0.01,0.01,0.02,0.02s0.01,0.02,0.01,0.03c-0.01,0.04,0.01,0.07,0.07,0.11c0.05,0.04,0.06,0.06,0.04,0.07
		c-0.02,0.01,0.01,0.02,0.03,0.01c0.01,0,0.03-0.01,0.03-0.02c0.01-0.01,0.02-0.02,0.04-0.02c0.02,0,0.03,0,0.03-0.01
		s0.01-0.01,0.02-0.01s0.03-0.01,0.03-0.02c0-0.01,0.01-0.01,0.02-0.01c0.01,0,0.06-0.04,0.13-0.09c0.02-0.02,0.05-0.03,0.07-0.04
		c0-0.01,0.02-0.02,0.04-0.03c0.01-0.01,0.05-0.03,0.06-0.05c0.01-0.02,0.02-0.04,0.03-0.04C37.16,2.1,37.29,2.02,37.29,2
		c0.01-0.01,0.05-0.04,0.1-0.07c0.05-0.04,0.14-0.11,0.2-0.15c0.06-0.04,0.14-0.08,0.18-0.1c0.03-0.02,0.07-0.05,0.09-0.07
		c0.02-0.02,0.03-0.03,0.04-0.02c0.02,0.02,0.03,0,0.03-0.03c0-0.02,0-0.03,0.01-0.03s0.01,0,0.01,0.02c0,0.01-0.01,0.03,0,0.03
		s0.02-0.01,0.02-0.02c0.01-0.02,0.02-0.03,0.17-0.04c0.12,0,0.16-0.01,0.16-0.02h0.03c0.01,0,0.02-0.01,0.02-0.02
		c0.01-0.02,0.01-0.02-0.01-0.02c0.01-0.02,0.04-0.03,0.09-0.03c0.07-0.01,0.08,0,0.07-0.02c-0.01-0.03-0.06-0.05-0.11-0.05
		c-0.03,0-0.05,0-0.04-0.01c0.01-0.01,0.2-0.02,0.21-0.01c0.02,0.01,0.16,0.04,0.16,0.03s-0.01-0.02-0.02-0.03
		c-0.01-0.01-0.02-0.01-0.02-0.02s0-0.02-0.01-0.03s0-0.02,0-0.03H38.69z M38.06,2.53c-0.03,0-0.06,0-0.08,0.01
		c-0.02,0.01-0.04,0.02-0.05,0.01c-0.02-0.02-0.08-0.01-0.08,0.01c0,0.01-0.03,0.04-0.05,0.06c-0.02,0.02-0.05,0.07-0.07,0.11
		c-0.03,0.05-0.06,0.1-0.07,0.1c-0.04,0.02-0.09,0.14-0.1,0.24c0,0.04-0.01,0.08-0.02,0.1c-0.01,0.01-0.01,0.02-0.01,0.03
		s-0.01,0.02-0.02,0.04c-0.01,0.02-0.04,0.07-0.06,0.11c-0.02,0.04-0.04,0.07-0.05,0.07c-0.01,0.01-0.02,0.01-0.02,0.02
		c0,0.01-0.01,0.05-0.03,0.08c-0.02,0.03-0.04,0.1-0.05,0.15c-0.03,0.2-0.1,0.37-0.18,0.47c-0.02,0.01-0.03,0.04-0.03,0.05
		c0,0.02,0,0.03-0.02,0.03l-0.02,0.01l0.02,0.02l0.02,0.03L37.06,4.3C37.02,4.35,36.98,4.43,37,4.47c0,0.01,0,0.03-0.01,0.05
		c-0.01,0.01-0.02,0.06-0.02,0.1c-0.01,0.06-0.01,0.07,0.01,0.1c0.03,0.04,0.04,0.32,0.02,0.44c-0.01,0.08-0.01,0.1,0.01,0.11
		c0.02,0.02,0.03,0.03,0.03,0.09c0,0.04,0,0.09,0.01,0.15c0.03,0.07,0.04,0.08,0.07,0.1c0.02,0.01,0.07,0.1,0.08,0.13
		c0.01,0.02,0.03,0.04,0.04,0.05c0.01,0,0.03,0.02,0.04,0.04l0.02,0.03h0.1c0.13,0,0.25-0.02,0.55-0.07
		c0.2-0.03,0.23-0.04,0.24-0.03s0.02,0.01,0.04,0c0.05-0.03,0.09-0.04,0.26-0.06c0.07-0.01,0.16-0.01,0.19-0.02
		c0.03-0.01,0.12-0.04,0.22-0.05c0.22-0.03,0.58-0.12,0.6-0.13c0.01-0.01,0.03-0.01,0.05-0.01c0.06-0.02,0.14-0.07,0.16-0.1
		c0.02-0.03,0.03-0.03,0.06-0.03c0.05,0,0.13-0.05,0.17-0.09c0.03-0.02,0.07-0.04,0.1-0.05c0.03-0.01,0.07-0.04,0.1-0.06
		c0.02-0.02,0.05-0.04,0.06-0.04c0.02,0,0.06-0.05,0.08-0.06c0.03-0.03,0.05-0.1,0.06-0.1c0.04-0.02,0.04-0.1,0.04-0.12
		c0-0.02,0.02-0.07,0.03-0.07c0.02-0.01,0.03-0.05,0.03-0.06s0.02-0.03,0.03-0.04c0.01-0.01,0.02-0.03,0.02-0.04
		c0-0.01,0.02-0.04,0.04-0.07c0.02-0.03,0.05-0.05,0.05-0.07c0-0.02,0.03-0.09,0.05-0.14c0.02-0.07,0.03-0.12,0.03-0.15
		c0-0.03,0-0.05,0.01-0.06c0.03-0.01,0.05-0.08,0.07-0.19c0.01-0.06,0.02-0.12,0.03-0.14c0.02-0.03,0.03-0.05,0.02-0.07V3.67
		c0.01-0.01,0.01-0.11,0.02-0.2c0.01-0.12,0.01-0.15,0-0.17c-0.01-0.01-0.02-0.05-0.02-0.09c-0.01-0.06-0.02-0.1-0.06-0.11
		c-0.01,0-0.04-0.02-0.07-0.04c-0.04-0.04-0.09-0.06-0.21-0.1c-0.04-0.02-0.07-0.03-0.07-0.04c0-0.01-0.02-0.01-0.03-0.01
		c-0.01,0-0.05-0.02-0.07-0.04c-0.04-0.03-0.05-0.03-0.1-0.03c-0.03,0-0.05-0.01-0.09-0.03c-0.03-0.02-0.06-0.04-0.11-0.04
		c-0.05-0.01-0.06-0.01-0.06-0.02c0-0.01-0.01-0.01-0.03-0.01c-0.02,0-0.04,0-0.06-0.01c-0.02-0.01-0.05-0.02-0.07-0.02
		c-0.02,0-0.04,0-0.06-0.01c-0.02-0.02-0.28-0.08-0.45-0.08c-0.22-0.01-0.27,0-0.31,0.02c-0.02,0.01-0.05,0.02-0.05,0.01
		s-0.04-0.01-0.12,0c-0.12,0-0.16-0.01-0.21-0.04c-0.03-0.02-0.05-0.02-0.14-0.02s-0.11,0-0.15-0.02c-0.02-0.02-0.02-0.02-0.03-0.01
		c-0.01,0.02-0.08,0.02-0.11-0.01C38.11,2.53,38.1,2.53,38.06,2.53z M40.22,2.47c0.04,0.03,0.1,0.05,0.12,0.04
		c0.01,0,0.01-0.01-0.06-0.04C40.19,2.45,40.19,2.46,40.22,2.47z M40.26,2.53c-0.01,0,0,0.02,0.02,0.04
		c0.02,0.02,0.03,0.03,0.03,0.04s0.08,0.04,0.15,0.08c0.13,0.04,0.15,0.05,0.16,0.04s0.01-0.01,0.01-0.02
		c0.01-0.02,0-0.03-0.03-0.04c-0.03-0.01-0.06-0.01-0.07,0c-0.01,0.01-0.02,0-0.05-0.01c-0.02-0.01-0.04-0.02-0.06-0.02
		c-0.01-0.01-0.01-0.02-0.08-0.06C40.3,2.55,40.27,2.53,40.26,2.53z M40.31,2.31c0,0.02,0.06,0.04,0.1,0.06
		c0.05,0.02,0.1,0.03,0.11,0.04c0.01,0.01,0.02,0.02,0.03,0.02s0.04,0.01,0.08,0.03c0.06,0.02,0.09,0.03,0.09,0.01
		c0-0.01-0.09-0.06-0.13-0.07c-0.02,0-0.04-0.01-0.04-0.02c0-0.01-0.03-0.01-0.06-0.01c-0.03,0-0.05-0.01-0.06-0.02
		c-0.01-0.01-0.02-0.02-0.05-0.03C40.35,2.31,40.32,2.31,40.31,2.31z M40.38,2.04c0,0.01,0.12,0.06,0.13,0.05s-0.02-0.02-0.05-0.03
		C40.41,2.03,40.38,2.02,40.38,2.04z M40.67,2.62L40.62,2.6l0.03,0.03c0.01,0.02,0.03,0.03,0.04,0.03c0.01,0,0.02,0,0.02,0.01
		c0.01,0.02,0.03,0.01,0.03-0.01C40.74,2.65,40.71,2.63,40.67,2.62z"/>
	<path class="st0" d="M47.83,3.73c0.01,0.01,0.02,0.01,0.03,0c0.01-0.01,0.12,0,0.29,0h0.42c0.09,0,0.16,0,0.17,0.01
		c0.02,0.01,0.03,0.01,0.04,0c0.01,0,0.03,0,0.05,0.01c0.02,0.01,0.03,0.01,0.05,0c0.02-0.01,0.03-0.01,0.05,0
		c0.04,0.01,0.36,0.01,0.37,0c0-0.01,0.01-0.01,0.02,0s0.08,0.01,0.16,0.01h0.68c0.19,0,0.2,0,0.21-0.01c0.01-0.01,0.01,0,0.02,0.01
		s0.02,0.01,0.02,0c0.01-0.01,0.05-0.01,0.11-0.01c0.08,0,0.1,0,0.11,0.01c0.01,0.01,0.03,0,0.05,0c0.02-0.01,0.05,0,0.07,0h0.14
		c0.06,0,0.12,0.01,0.13,0.02c0.01,0.01,0.05,0.01,0.07,0.01c0.03,0,0.06,0.01,0.07,0.02s0.03,0.02,0.04,0.02
		c0.06,0,0.15,0.01,0.19,0.02c0.02,0.01,0.06,0.02,0.1,0.02s0.07,0.01,0.07,0.02s0.03,0.01,0.07,0.01s0.09,0.01,0.12,0.03
		c0.03,0.01,0.05,0.02,0.06,0.02c0.02,0,0.18,0.16,0.18,0.18c0,0.01,0.01,0.03,0.02,0.04c0.04,0.05,0.06,0.12,0.06,0.17
		c0,0.03,0,0.07,0.01,0.1c0.02,0.07,0.01,0.21-0.02,0.26c-0.01,0.02-0.03,0.05-0.04,0.08C52,4.83,51.98,4.87,51.96,4.87
		c-0.01,0-0.02,0.01-0.03,0.02c-0.02,0.02-0.04,0.01-0.24,0.02c-0.26,0.01-0.3,0.02-0.32,0.02c-0.01,0-0.02,0.01-0.03,0
		c-0.01-0.01-0.03-0.01-0.04,0c-0.01,0-0.04,0-0.09-0.01c-0.04-0.01-0.07-0.01-0.08-0.01c-0.01,0.01-0.08,0-0.18,0
		c-0.06,0-0.22,0-0.23,0.01c-0.01,0-0.02,0-0.04-0.01c-0.02-0.01-0.05-0.02-0.06-0.01c-0.02,0.01-0.04,0.01-0.06,0
		c-0.01-0.01-0.02,0-0.03,0h-0.04c-0.02-0.01-0.05-0.01-0.08,0c-0.03,0.01-0.05,0.01-0.06,0.01c-0.01-0.01-0.06,0-0.12,0h-0.21
		c-0.07,0-0.09,0.01-0.11,0.02c-0.01,0.01-0.02,0.01-0.03,0.01s-0.06-0.01-0.11-0.01c-0.11,0-0.16-0.01-0.27-0.02
		c-0.05,0-0.08,0-0.08,0.01c-0.01,0.01-0.04,0-0.08,0s-0.07,0-0.08,0.01c-0.01,0.01-0.02,0.01-0.05,0
		c-0.02-0.01-0.06-0.01-0.08-0.01c-0.02,0-0.05,0.01-0.07,0c-0.02-0.01-0.03-0.01-0.05,0c-0.02,0.01-0.03,0.01-0.04,0.01
		c-0.02-0.01-0.04-0.01-0.04,0c-0.02,0.02-0.03,0.02-0.04,0c0-0.02-0.01-0.02-0.03-0.01h-0.07c-0.05-0.01-0.06,0-0.08,0.02
		c-0.02,0.02-0.03,0.02-0.04,0.01c-0.02-0.02-0.03-0.02-0.15-0.01c-0.07,0.01-0.14,0.02-0.16,0.02c-0.02,0-0.03,0-0.04,0.01
		c-0.01,0.01-0.02,0.01-0.04,0.01c-0.1,0.01-0.15,0.01-0.22,0.02c-0.07,0.01-0.22,0.03-0.33,0.04c-0.02,0-0.03,0.01-0.04,0.01h-0.06
		c-0.03-0.01-0.11-0.01-0.18-0.01h-0.19c-0.03,0-0.05,0-0.18-0.02C47,5.01,46.93,5.01,46.91,5.01h-0.09
		C46.79,5,46.76,4.99,46.74,4.99c-0.02,0-0.06,0-0.08-0.01c-0.02-0.01-0.05-0.01-0.06-0.01h-0.03c-0.01-0.01-0.09-0.01-0.17-0.01
		c-0.03,0-0.2-0.02-0.28-0.03c-0.11-0.02-0.15-0.02-0.17-0.01c-0.01,0.01-0.02,0-0.03,0c-0.03-0.02-0.14-0.02-0.17-0.01
		c-0.02,0.01-0.08-0.01-0.11-0.04c-0.02-0.03-0.04-0.02-0.05,0.01c-0.01,0.03-0.03,0.03-0.03,0c0-0.01-0.01-0.02-0.05-0.02
		c-0.09,0-0.15-0.01-0.17-0.02c-0.01-0.01-0.04,0-0.06,0c-0.02,0-0.04,0-0.05-0.01s-0.02-0.01-0.03,0s-0.01,0.01-0.03,0
		c-0.01-0.01-0.05-0.01-0.12-0.01c-0.08,0-0.09,0-0.12-0.02c-0.02-0.01-0.04-0.03-0.04-0.02s-0.24,0.02-0.26,0.01
		c-0.01,0-0.03-0.01-0.06-0.01c-0.03,0-0.07-0.01-0.09-0.02c-0.02-0.01-0.06-0.02-0.08-0.02c-0.02,0-0.03-0.01-0.04-0.01
		c-0.01-0.01-0.13-0.04-0.14-0.03c-0.01,0-0.04,0-0.16-0.01c-0.02,0-0.05,0-0.07-0.01c-0.02-0.01-0.04-0.01-0.06-0.01
		c-0.02,0-0.03-0.01-0.04-0.02c-0.02-0.02-0.07-0.05-0.09-0.04c-0.01,0-0.02,0-0.03-0.01c-0.01-0.01-0.02-0.02-0.04-0.02
		c-0.02,0-0.04-0.01-0.07-0.04c-0.02-0.02-0.04-0.04-0.05-0.04s-0.03-0.02-0.06-0.04c-0.03-0.03-0.04-0.04-0.04-0.09
		c0-0.03,0.01-0.05,0.01-0.06c0.01-0.01,0.01-0.03,0-0.04c-0.02-0.02-0.02-0.02,0-0.05c0.01-0.02,0.04-0.05,0.06-0.07
		c0.02-0.02,0.03-0.03,0.03-0.04s0.01-0.01,0.03-0.01c0.02,0,0.04-0.01,0.05-0.02c0.01-0.01,0.04-0.01,0.06-0.01
		c0.02,0,0.03-0.01,0.03-0.02c0.01-0.01,0.02-0.01,0.04-0.01c0.02,0,0.05-0.01,0.08-0.02C43.93,4.01,43.95,4,43.97,4
		c0.02,0,0.03,0,0.04-0.01c0.01-0.01,0.03-0.01,0.06-0.01c0.03,0,0.06-0.01,0.07-0.01c0.04-0.02,0.09-0.03,0.1-0.02
		c0.01,0,0.04,0,0.07-0.01c0.17-0.03,0.23-0.05,0.25-0.05c0.02-0.01,0.03-0.01,0.05,0c0.02,0.01,0.04,0.01,0.05,0
		c0.01-0.01,0.02-0.02,0.03-0.02h0.09c0.03,0,0.06-0.01,0.07-0.01c0.01-0.01,0.07-0.02,0.13-0.02h0.13
		c0.03-0.01,0.22-0.03,0.24-0.02c0-0.01,0.05-0.01,0.14-0.01c0.07,0,0.13-0.01,0.14-0.01c0.01-0.01,0.02-0.01,0.03,0h0.19
		c0.09,0,0.17-0.01,0.18,0c0.01,0,0.07,0.01,0.14,0.01h0.14c0.01,0,0.03-0.01,0.06-0.02c0.03-0.01,0.06-0.01,0.06,0
		c0.01,0.02,0.3,0.02,0.32,0c0.01-0.01,0.02-0.01,0.03,0c0.04,0.02,0.62-0.02,0.65-0.04c0.01-0.01,0.04-0.01,0.07-0.01
		c0.13,0,0.2,0,0.23-0.01C47.77,3.72,47.81,3.72,47.83,3.73z"/>
	<path class="st0" d="M55.42,0.39c0.01,0,0.01,0.01,0.01,0.02c0.01,0.01,0.02,0.01,0.03,0c0.01-0.01,0.02-0.02,0.03,0
		c0.01,0.02,0.01,0.02,0.03,0c0.03-0.02,0.1-0.02,0.1,0.01c0,0.01,0.01,0.03,0.03,0.05c0.03,0.03,0.03,0.05,0.03,0.07
		c0,0.02,0,0.03,0.03,0.07c0.03,0.03,0.04,0.05,0.03,0.08c0,0.02,0,0.04,0.01,0.05s0.01,0.03,0.01,0.05c0,0.01,0.01,0.03,0.02,0.04
		c0.01,0.01,0.01,0.04,0.02,0.12c0.01,0.11,0.01,0.11,0.04,0.14c0.02,0.02,0.03,0.05,0.02,0.06c-0.01,0-0.01,0.05,0.01,0.19
		c0.03,0.11,0.04,0.19,0.04,0.23v0.09c0,0.02,0,0.03-0.01,0.03c-0.01,0-0.01,0.01-0.01,0.03c0,0.02,0.01,0.03,0.02,0.03
		c0.02,0,0.03,0.02,0.01,0.03c-0.01,0.01-0.01,0.02-0.01,0.03c0,0.01,0,0.02-0.01,0.03c-0.01,0.01-0.01,0.01,0,0.02
		c0.01,0.01,0.02,0.01,0.01,0.02c-0.01,0.01,0.01,0.02,0.02,0.04c0.01,0.02,0.02,0.02,0.01,0.03c-0.01,0.01,0,0.02-0.01,0.04
		c-0.01,0.03-0.01,0.04,0,0.08c0.01,0.01,0.02,0.05,0.02,0.06s0.01,0.04,0.02,0.05c0.02,0.03,0.03,0.05,0.01,0.08
		c-0.02,0.03-0.02,0.04,0.01,0.07C56,2.35,56.01,2.37,56,2.37c-0.01,0.01-0.01,0.05,0,0.06c0.01,0,0.03,0.1,0.03,0.17
		c0,0.02,0.01,0.04,0.01,0.05c0.01,0.01,0.01,0.04,0.01,0.08v0.09c0,0.04,0,0.1-0.01,0.14c-0.01,0.05-0.01,0.06,0,0.07
		c0.01,0.02,0.01,0.04,0,0.06c-0.03,0.06-0.05,0.12-0.06,0.15c-0.02,0.06-0.02,0.09-0.02,0.13c0.01,0.05,0.02,0.06,0.04,0.07
		c0.02,0.01,0.04,0.03,0.04,0.04c0.01,0.02,0.01,0.02,0.04,0.02c0.02,0,0.04,0,0.06,0.02c0.02,0.02,0.04,0.04,0.06,0.05
		c0.02,0.01,0.05,0.03,0.06,0.04c0.01,0.01,0.02,0.02,0.03,0.02c0.01,0,0.04,0.01,0.06,0.03c0.03,0.02,0.07,0.04,0.09,0.04
		c0.02,0,0.05,0.02,0.07,0.04c0.02,0.01,0.04,0.02,0.07,0.03c0.03,0,0.06,0.01,0.07,0.02c0.01,0.01,0.03,0.02,0.04,0.03
		c0.01,0.01,0.03,0.01,0.04,0.02s0.03,0.02,0.04,0.03c0.01,0.01,0.03,0.01,0.05,0.01c0.01-0.01,0.02-0.01,0.03,0.01
		c0.01,0.01,0.03,0.03,0.05,0.03c0.02,0,0.04,0,0.04,0.01c0.01,0.01,0.08,0.03,0.12,0.03c0.02,0,0.03,0,0.03,0.02
		c0,0.01,0.01,0.01,0.03,0.01c0.02,0,0.06,0.01,0.08,0.02c0.03,0.01,0.05,0.01,0.06,0.01c0.01,0,0.02,0,0.02,0.01
		c0,0.01,0.01,0.02,0.02,0.03c0.02,0.01,0.05,0.02,0.05,0.03c0.01,0.01,0.03,0.02,0.05,0.02c0.03,0,0.06,0.01,0.09,0.03
		c0.03,0.02,0.04,0.03,0.05,0.03s0.04,0.02,0.07,0.04c0.03,0.02,0.06,0.03,0.07,0.03s0.03,0,0.04,0.01
		c0.01,0.01,0.04,0.01,0.06,0.01c0.02,0,0.05,0.01,0.07,0.02c0.02,0.02,0.03,0.02,0.06,0c0.02-0.01,0.03-0.01,0.06,0.02
		c0.03,0.03,0.04,0.03,0.07,0.03c0.02,0,0.04-0.01,0.04,0c0.01,0.01,0.03,0,0.04,0c0.04-0.01,0.12,0.01,0.14,0.03
		c0,0.01,0.02,0.01,0.03,0.01c0.02,0,0.05,0.02,0.05,0.04c0,0.01,0.05,0.06,0.07,0.06c0.01,0,0.02,0.01,0.02,0.02
		c0.01,0.01,0.02,0.03,0.03,0.03c0.01,0,0.03,0.01,0.04,0.03c0,0.02,0.03,0.05,0.06,0.07c0.03,0.02,0.08,0.06,0.09,0.07
		c0.02,0.02,0.03,0.03,0.04,0.03s0.04,0.01,0.05,0.03c0.02,0.02,0.03,0.04,0.04,0.04s0.07,0.07,0.07,0.08
		c0.02,0.01,0.06,0.03,0.19,0.16c0.03,0.03,0.05,0.05,0.06,0.05c0.01,0,0.03,0.03,0.04,0.06c0.01,0.03,0.02,0.05,0.03,0.04
		c0.01,0,0.01,0.01,0.02,0.01c0.01,0.01,0.02,0.03,0.03,0.03s0.03,0.03,0.05,0.06c0.02,0.03,0.03,0.05,0.04,0.05
		c0.01,0,0.06,0.1,0.06,0.12c0,0.01,0.02,0.05,0.03,0.09l0.02,0.08l-0.02,0.1c-0.02,0.1-0.03,0.15-0.05,0.18
		c-0.06,0.08-0.11,0.13-0.14,0.16c-0.04,0.02-0.07,0.03-0.17,0.03H58.9c-0.02,0-0.07,0-0.11,0.01c-0.05,0.01-0.06,0.01-0.07,0
		c-0.01-0.01-0.03,0-0.05,0c-0.02,0-0.03,0-0.03-0.01c0-0.01-0.04-0.01-0.08-0.01s-0.08-0.01-0.11-0.02c-0.04-0.01-0.07-0.01-0.08,0
		c-0.02,0.02-0.06,0-0.12-0.05c-0.05-0.03-0.07-0.05-0.07-0.07c0-0.02-0.03-0.03-0.04-0.03c-0.01-0.01-0.02-0.03-0.02-0.04
		c0-0.01-0.01-0.01-0.02-0.02s-0.02-0.04-0.03-0.08c-0.02-0.1-0.05-0.15-0.1-0.17c-0.02-0.01-0.05-0.03-0.06-0.04
		c-0.01-0.01-0.03-0.01-0.05-0.01c-0.02,0-0.02,0-0.03-0.02c-0.01-0.03-0.03-0.05-0.05-0.04c-0.01,0.01-0.02,0.01-0.02-0.01
		c0-0.02-0.07-0.09-0.09-0.09c-0.01,0-0.03-0.01-0.05-0.02c-0.02-0.01-0.06-0.05-0.08-0.06c-0.07-0.04-0.31-0.12-0.33-0.12
		c-0.01,0-0.03-0.02-0.05-0.03s-0.04-0.02-0.05-0.02s-0.03-0.01-0.04-0.02s-0.03-0.01-0.05-0.01c-0.02,0-0.04-0.01-0.05-0.03
		c-0.01-0.02-0.04-0.02-0.07-0.02s-0.05-0.02-0.06-0.03C56.83,5.02,56.82,5,56.8,5c-0.02,0-0.03,0-0.04-0.01
		c0-0.01-0.02-0.01-0.05-0.01c-0.03,0-0.05,0-0.05-0.01c0-0.01-0.03-0.02-0.06-0.02c-0.04-0.03-0.13-0.05-0.22-0.05h-0.06
		c-0.01,0-0.04-0.01-0.08,0c-0.04,0-0.14,0.01-0.2,0.01c-0.07,0-0.18-0.01-0.22,0l-0.1,0.01l0.01,0.03c0,0.01,0,0.02-0.01,0.02
		s0,0.02,0.01,0.04c0.02,0.02,0.02,0.02,0,0.05c-0.01,0.02-0.02,0.03-0.01,0.03s0,0.02,0,0.04v0.11c0,0.03,0.01,0.06,0.02,0.07
		c0.01,0.01,0.02,0.06,0.02,0.12c0,0.06,0,0.11,0.01,0.12c0.01,0,0.01,0.06,0.01,0.12c0,0.08,0.01,0.1,0.02,0.12
		c0.01,0.01,0.01,0.03,0.01,0.04c0,0.01-0.01,0.03,0,0.05c0.01,0.02,0.02,0.02,0.02,0.03c0,0.02,0.01,0.03,0.02,0.05
		c0.01,0.02,0.01,0.03,0.02,0.03c0.02-0.01,0.03,0,0.03,0.04c0,0.01,0.01,0.03,0.02,0.03s0.02,0.02,0.02,0.03
		c0,0.01,0.02,0.05,0.04,0.07c0.02,0.03,0.04,0.06,0.04,0.08c0,0.01,0.02,0.05,0.04,0.09c0.1,0.24,0.12,0.31,0.1,0.83
		c0,0.09-0.01,0.26-0.01,0.38c0,0.24-0.02,0.44-0.04,0.46c-0.01,0.02-0.16,0.08-0.21,0.09c-0.05,0.01-0.11,0.03-0.14,0.06
		c-0.01,0.01-0.03,0.03-0.05,0.04c-0.01,0.01-0.05,0.03-0.07,0.05c-0.03,0.03-0.06,0.04-0.08,0.04c-0.01,0-0.03,0-0.06,0.01
		c-0.06,0.02-0.17,0.02-0.19,0.02c-0.01,0-0.04-0.01-0.07-0.03c-0.03-0.01-0.06-0.03-0.07-0.03c-0.01,0-0.04-0.03-0.08-0.06
		c-0.04-0.03-0.08-0.06-0.1-0.07c-0.02-0.01-0.04-0.04-0.05-0.05c-0.01-0.02-0.03-0.05-0.04-0.06C54.88,8,54.84,7.94,54.79,7.85
		c-0.08-0.13-0.09-0.16-0.09-0.2c0-0.07,0-0.11-0.02-0.14c-0.01-0.01-0.02-0.03-0.02-0.05c0-0.02,0-0.05-0.01-0.08
		c-0.02-0.03-0.02-0.05-0.02-0.06c0.01-0.03,0-0.1-0.02-0.12c-0.02-0.03-0.03-0.09-0.01-0.13c0.01-0.03,0.01-0.03,0-0.06
		c-0.01-0.02-0.01-0.04,0-0.05s0.01-0.02,0-0.05c-0.01-0.04-0.01-0.06-0.01-0.17c0-0.06-0.01-0.1-0.02-0.11
		c-0.01,0-0.02-0.04-0.02-0.09s-0.01-0.09-0.02-0.1c-0.02-0.02-0.02-0.06,0-0.08c0.01-0.01,0.01-0.02,0.01-0.03
		c-0.01-0.02-0.02-0.08-0.01-0.09c0.01-0.02,0.02-0.09,0-0.12c-0.02-0.04-0.02-0.12,0-0.15c0.01-0.01,0.01-0.02,0.01-0.03
		s0-0.02,0.01-0.03c0.01-0.02,0.01-0.04,0.01-0.05s-0.01-0.02,0-0.02s0.01-0.01,0.01-0.02c-0.01-0.04-0.02-0.18-0.01-0.2
		c0.01-0.01,0-0.03-0.01-0.05c-0.01-0.01-0.01-0.02-0.01-0.03c0.01-0.03,0-0.27-0.02-0.3c-0.02-0.04-0.03-0.15-0.03-0.3
		c0-0.07,0-0.15-0.01-0.2c-0.01-0.06-0.01-0.07,0-0.07c-0.01-0.02,0-0.06,0-0.12c0-0.08,0-0.1-0.01-0.14
		c-0.02-0.05-0.01-0.12,0.01-0.14c0.01-0.01,0-0.04,0-0.06c0-0.02,0.01-0.09,0.02-0.15c0.02-0.07,0.02-0.11,0.02-0.19
		c0-0.06-0.01-0.11,0-0.12c0.01,0,0.01-0.01,0.01-0.02c0-0.02,0.01-0.03,0.02-0.04c0.01-0.01,0.01-0.02,0-0.05
		c-0.01-0.04-0.01-0.09,0-0.1s0.01-0.04,0.01-0.14c0-0.03,0-0.06,0.01-0.08c0-0.01,0.01-0.03,0.01-0.05c0.01-0.03,0-0.07,0-0.08
		c-0.01-0.02,0-0.05,0.01-0.08c0.01-0.03,0.02-0.05,0.01-0.05s-0.01-0.02,0-0.05c0.01-0.03,0.01-0.08,0.01-0.1
		c0-0.02,0-0.05,0.01-0.07c0.01-0.02,0.02-0.06,0.03-0.09c0.01-0.03,0.01-0.06,0.01-0.07c0.01-0.01,0.01-0.02,0-0.03l-0.03-0.01
		l0.03-0.09c0.01-0.06,0.02-0.09,0.01-0.1c-0.01-0.01-0.01-0.07,0-0.09c0-0.01,0.01-0.02,0.02-0.02s0.01-0.02,0.01-0.03
		s0.01-0.04,0.02-0.07c0.01-0.04,0.01-0.08,0.01-0.09c0-0.02,0-0.02,0.01-0.02c0.01-0.02-0.01-0.02-0.02-0.02S54.7,2.1,54.71,2.09
		c0-0.01,0.01-0.03,0.01-0.07c0-0.04,0.01-0.07,0.01-0.08V1.86c0-0.04,0-0.05,0.02-0.06c0.01-0.01,0.01-0.01,0.01-0.02
		c0-0.01,0.01-0.02,0.02-0.03c0.02-0.01,0.02-0.02,0.01-0.03c0-0.01-0.01-0.05-0.01-0.09s0-0.05-0.01-0.06
		c-0.01-0.01,0.01-0.03,0.02-0.06c0.02-0.05,0.03-0.13,0.02-0.16V1.32c0-0.01,0.02-0.02,0.02-0.04c0-0.02,0.01-0.04,0.03-0.06
		c0.04-0.04,0.04-0.06,0.02-0.07c-0.01,0-0.02-0.02-0.03-0.03s-0.01-0.02,0.01-0.04c0.02-0.02,0.02-0.03,0.02-0.09s0-0.07,0.02-0.08
		V0.87c0-0.01,0.01-0.01,0.04-0.02c0.04-0.01,0.04-0.02,0.04-0.04c0-0.01-0.01-0.03,0-0.03c0.01-0.01,0.04-0.06,0.04-0.08
		c0-0.01,0.01-0.02,0.02-0.03c0.01-0.01,0.02-0.02,0.02-0.03c0.02-0.01,0.04-0.02,0.06-0.05c0.02-0.03,0.03-0.06,0.04-0.06
		s0.03-0.02,0.05-0.04c0.04-0.04,0.06-0.05,0.07-0.02c0,0.02,0.01,0.01,0.02-0.01c0.01-0.03,0.02-0.03,0.05-0.03
		c0.01,0,0.03,0,0.03-0.01c0-0.01,0.01-0.02,0.02-0.02C55.41,0.4,55.41,0.39,55.42,0.39z M57.6,1.07c0.03,0.02,0.07,0.04,0.08,0.06
		c0.03,0.04,0.09,0.07,0.13,0.07c0.02,0,0.06,0.01,0.08,0.01c0.05,0.01,0.08,0.02,0.04,0.02c0.01,0.02,0.18,0.05,0.22,0.05
		c0.02,0,0.03,0,0.03,0.01c-0.01,0.01,0.01,0.03,0.05,0.03c0.03,0,0.04,0.01,0.04,0.02c0,0.02-0.02,0.03-0.06,0.03
		c-0.06,0-0.16,0.03-0.18,0.05c-0.04,0.05-0.08,0.1-0.08,0.11c0,0.02,0.04,0.11,0.05,0.12c0.01,0.01,0.02,0.08,0.02,0.1
		c0,0.01,0.01,0.03,0.02,0.04c0.01,0.01,0.02,0.04,0.03,0.06c0.01,0.02,0.03,0.05,0.04,0.08c0.02,0.02,0.04,0.06,0.04,0.08
		c0,0.02,0.01,0.04,0.01,0.05c0.01,0.02-0.01,0.19-0.03,0.22c-0.01,0.01-0.02,0.02-0.01,0.03c0.01,0.01-0.02,0.09-0.04,0.1
		c-0.01,0.01-0.02,0.03-0.02,0.04c0,0.01-0.03,0.04-0.06,0.06c-0.03,0.02-0.05,0.03-0.05,0.04c0,0.01-0.04,0.03-0.08,0.05
		c-0.04,0.02-0.1,0.05-0.13,0.07c-0.03,0.02-0.05,0.04-0.06,0.04s-0.02,0.01-0.03,0.02c-0.01,0.02-0.14,0.07-0.16,0.07
		c-0.01,0-0.02-0.01-0.04-0.02c-0.01-0.01-0.03-0.03-0.04-0.03s-0.02-0.02-0.02-0.03c0-0.01-0.01-0.03-0.03-0.05
		c-0.02-0.02-0.05-0.05-0.07-0.08c-0.01-0.03-0.04-0.06-0.07-0.08c-0.04-0.04-0.05-0.05-0.04-0.1c0.01-0.04,0.01-0.06-0.01-0.09
		c-0.01-0.02-0.02-0.05-0.02-0.07c0-0.02,0-0.04-0.01-0.04c-0.01,0-0.01-0.01,0-0.02c0.02-0.03,0.01-0.17-0.01-0.25
		c-0.02-0.08-0.01-0.13,0.01-0.2c0.01-0.03,0.02-0.05,0.01-0.06s0-0.01,0-0.02c0.01-0.01,0.01-0.05,0.02-0.09s0.02-0.07,0.03-0.08
		s0.01-0.02,0.01-0.03s0-0.04,0.01-0.07c0.01-0.03,0.01-0.06,0.01-0.08c0-0.03,0.01-0.04,0.04-0.07c0.02-0.02,0.05-0.07,0.07-0.11
		c0.03-0.06,0.04-0.07,0.08-0.08C57.51,1.03,57.55,1.03,57.6,1.07z M58.85,1.18c0,0.01,0.01,0.01,0.02,0c0.01-0.01,0.01-0.01,0.02,0
		c0.01,0.01,0.1,0.01,0.12,0c0.01,0,0.02-0.01,0.04-0.01c0.02,0,0.04,0.02,0.08,0.08c0.03,0.04,0.05,0.09,0.05,0.11
		c0,0.02,0.04,0.08,0.06,0.13c0.03,0.05,0.04,0.1,0.04,0.11c0,0.01,0.01,0.03,0.02,0.05c0.01,0.02,0.02,0.05,0.02,0.06
		s0,0.02,0.01,0.02s0.02,0.02,0.03,0.04c0.01,0.02,0.02,0.06,0.04,0.09C59.42,1.89,59.46,2,59.49,2.1l0.05,0.17l-0.02,0.04
		c-0.01,0.03-0.02,0.04-0.03,0.04c-0.01,0-0.05,0.02-0.08,0.04c-0.08,0.06-0.14,0.08-0.23,0.09c-0.04,0-0.1,0.01-0.12,0.02
		c-0.04,0.02-0.15,0.01-0.19-0.02S58.73,2.35,58.7,2.3c-0.01-0.02-0.02-0.05-0.02-0.06c0-0.01,0-0.05-0.01-0.07
		c-0.02-0.03-0.02-0.06-0.02-0.14c0-0.06,0-0.12-0.01-0.14c-0.01-0.02-0.01-0.05-0.01-0.07c0-0.07,0.01-0.19,0.02-0.2V1.48
		c0-0.1,0.01-0.12,0.02-0.13c0.01-0.01,0.03-0.03,0.03-0.04c0.01-0.02,0.02-0.04,0.05-0.05c0.03-0.01,0.05-0.03,0.05-0.04
		c0-0.01,0.01-0.03,0.02-0.04C58.83,1.17,58.85,1.17,58.85,1.18z"/>
</g>
</svg>
