<?xml version="1.0" encoding="utf-8"?>
<!-- Generator: Adobe Illustrator 25.0.0, SVG Export Plug-In . SVG Version: 6.00 Build 0)  -->
<svg version="1.1" id="Layer_1" xmlns="http://www.w3.org/2000/svg" xmlns:xlink="http://www.w3.org/1999/xlink" x="0px" y="0px"
	 viewBox="0 0 32.73 9.51" style="enable-background:new 0 0 32.73 9.51;" xml:space="preserve">
<style type="text/css">
	.st0{fill:#9E5C4C;}
</style>
<g>
	<path class="st0" d="M5.23,4.19h0.14c0.06,0,0.09,0,0.12,0.02c0.02,0.01,0.05,0.02,0.06,0.02c0.01,0,0.05,0.01,0.08,0.02
		c0.11,0.04,0.19,0.06,0.22,0.06c0.01,0,0.04,0.01,0.06,0.02S5.97,4.35,6,4.35c0.03,0,0.07,0.02,0.1,0.03
		c0.22,0.08,0.64,0.18,1.04,0.26C7.32,4.67,7.5,4.71,7.56,4.73c0.06,0.02,0.15,0.03,0.19,0.04c0.05,0.01,0.1,0.01,0.11,0.02
		c0.01,0,0.04,0.01,0.06,0.01c0.04,0,0.11,0.03,0.1,0.04s0.02,0.01,0.04,0.02C8.12,4.88,8.15,4.93,8.16,5c0,0.04,0,0.06-0.01,0.08
		C8.14,5.09,8.13,5.13,8.13,5.14c0,0.03-0.06,0.08-0.12,0.12C7.98,5.27,7.96,5.29,7.96,5.3S7.94,5.34,7.92,5.37
		C7.9,5.4,7.88,5.44,7.88,5.46c-0.01,0.07-0.05,0.17-0.07,0.2C7.8,5.67,7.79,5.7,7.79,5.71c0,0.01-0.01,0.05-0.02,0.09
		c-0.01,0.04-0.01,0.13,0,0.27c0,0.05,0,0.07-0.03,0.14C7.72,6.25,7.7,6.29,7.7,6.3S7.61,6.39,7.57,6.42
		c-0.05,0.03-0.15,0.03-0.23,0C7.29,6.4,7.27,6.38,7.24,6.34c-0.07-0.08-0.08-0.13-0.09-0.3c0-0.06,0-0.1-0.01-0.11
		C7.13,5.92,7.12,5.91,7.13,5.9c0.01-0.01,0.01-0.02,0-0.03c-0.01-0.01,0-0.03,0.01-0.04c0.05-0.05,0.01-0.12-0.08-0.16
		C7.03,5.65,6.99,5.64,6.98,5.64c-0.01,0-0.02-0.02-0.04-0.03C6.92,5.59,6.91,5.59,6.89,5.59c-0.04,0-0.07-0.01-0.05-0.02
		c0.01,0,0.07-0.01,0.15,0C7.14,5.59,7.3,5.59,7.35,5.58c0.02,0,0.03-0.01,0.04-0.02C7.42,5.53,7.5,5.41,7.5,5.39
		c0-0.01,0.01-0.05,0.02-0.09c0.01-0.04,0.02-0.09,0.02-0.11c0-0.03,0-0.04-0.03-0.05C7.46,5.12,7.19,5.06,7.17,5.07
		c-0.01,0-0.04,0-0.06-0.01C7.08,5.05,6.99,5.03,6.85,5.02C6.64,5.01,6.49,4.99,6.37,4.96c-0.03-0.01-0.1-0.02-0.15-0.03
		C6.17,4.92,6.1,4.91,6.06,4.9C5.99,4.88,5.87,4.87,5.67,4.86C5.49,4.85,5.44,4.84,5.42,4.83S5.24,4.81,5.09,4.81
		c-0.02,0-0.08,0.01-0.12,0.02s-0.1,0.03-0.13,0.03S4.73,4.88,4.67,4.89C4.42,4.93,4.42,4.94,4.46,5.06
		c0.02,0.07,0.03,0.13,0.03,0.15c0,0.04,0.06,0.28,0.07,0.29C4.56,5.51,4.9,5.45,5.03,5.42c0.16-0.04,0.2-0.05,0.21-0.07
		c0-0.01,0.03-0.03,0.07-0.04c0.06-0.02,0.07-0.02,0.15,0c0.05,0.01,0.13,0.04,0.17,0.06c0.04,0.02,0.09,0.04,0.1,0.04
		c0.02,0,0.05,0.02,0.06,0.04c0.03,0.03,0.1,0.07,0.12,0.07s0.11,0.07,0.12,0.1c0.01,0.03,0.05,0.08,0.1,0.12
		c0.02,0.01,0.03,0.03,0.03,0.04c0,0.02,0.01,0.04,0.04,0.05c0.06,0.02,0.06,0.02,0.08,0.05c0.01,0.01,0.05,0.06,0.09,0.09
		C6.41,6,6.44,6.04,6.45,6.05C6.46,6.06,6.48,6.08,6.5,6.09c0.04,0.02,0.23,0.18,0.23,0.2c0,0.01,0.02,0.04,0.04,0.07
		c0.02,0.03,0.05,0.06,0.05,0.08c0,0.02,0.01,0.05,0.02,0.07c0.02,0.04,0,0.09-0.03,0.13C6.79,6.66,6.79,6.67,6.8,6.69
		c0.01,0.02,0.01,0.03,0,0.03C6.79,6.73,6.78,6.74,6.78,6.77c0.02,0.09,0.03,0.17,0,0.27C6.76,7.13,6.76,7.15,6.77,7.17
		c0.01,0.01,0.01,0.01,0,0.04C6.76,7.23,6.75,7.25,6.76,7.27c0.01,0.02,0.01,0.04,0,0.07c-0.01,0.05,0,0.42,0.01,0.48
		c0.01,0.03,0.01,0.07,0,0.1c-0.01,0.05-0.01,0.06,0,0.22l0.01,0.14L6.74,8.33C6.71,8.38,6.7,8.39,6.67,8.39
		c-0.02,0-0.04,0-0.04,0.01c0,0.01-0.01,0.03-0.02,0.04C6.6,8.46,6.57,8.47,6.56,8.5C6.55,8.52,6.53,8.54,6.52,8.54
		c-0.01,0-0.02,0-0.02,0.01C6.49,8.55,6.38,8.55,6.35,8.54C6.34,8.52,6.3,8.52,6.28,8.52C6.26,8.52,6.22,8.5,6.2,8.5
		S6.15,8.49,6.13,8.49c-0.01,0-0.06-0.01-0.11-0.03C5.97,8.43,5.91,8.42,5.88,8.41L5.82,8.38L5.77,8.29
		C5.74,8.25,5.71,8.19,5.71,8.17C5.7,8.12,5.66,8.05,5.64,8.04c-0.01,0-0.01-0.03-0.02-0.06C5.61,7.96,5.59,7.94,5.58,7.92
		C5.57,7.92,5.57,7.9,5.57,7.88c0-0.03-0.04-0.14-0.07-0.17C5.49,7.7,5.48,7.67,5.47,7.65C5.45,7.58,5.38,7.49,5.32,7.44
		C5.3,7.42,5.28,7.4,5.28,7.39S5.27,7.38,5.26,7.38c-0.01,0-0.02-0.01-0.04-0.03C5.2,7.32,5.2,7.31,5.2,7.28
		c0.01-0.05,0.04-0.11,0.06-0.11c0.01,0,0.03,0,0.04-0.02c0.02-0.01,0.07-0.03,0.08-0.03C5.47,7.11,5.55,7.08,5.6,7.04
		C5.64,7,5.65,6.99,5.65,6.96c0-0.02,0.01-0.05,0.02-0.07c0.01-0.02,0.01-0.05,0.01-0.07V6.73c0.01-0.04,0.01-0.06,0-0.08
		c-0.01-0.02-0.02-0.06-0.02-0.1c-0.01-0.12,0-0.15-0.02-0.15c-0.01,0-0.02-0.03-0.03-0.06C5.6,6.3,5.59,6.28,5.58,6.28
		c-0.01,0-0.04-0.03-0.06-0.06C5.45,6.12,5.43,6.1,5.35,6.1c-0.06,0-0.09,0-0.18,0.03C5.11,6.15,4.98,6.19,4.88,6.21
		C4.78,6.23,4.7,6.23,4.69,6.24c-0.01,0.01,0.02,0.04,0.03,0.1C4.74,6.4,4.74,6.49,4.74,6.55c0,0.05,0.01,0.11,0.02,0.12
		c0.01,0.01,0.01,0.1,0.02,0.2c0.01,0.1,0.02,0.2,0.03,0.23c0.01,0.03,0.01,0.08,0.01,0.1c0,0.02,0.01,0.05,0.01,0.07
		c0.01,0.02,0.02,0.11,0.03,0.21C4.88,7.62,4.88,7.66,4.87,7.7c-0.01,0.03,0,0.07,0,0.1c0,0.03,0,0.09-0.01,0.13
		C4.85,7.96,4.85,8.02,4.85,8.04s0,0.14,0.01,0.26c0.01,0.12,0.01,0.24,0.01,0.25v0.21c0,0.1-0.01,0.24-0.01,0.29
		c0,0.06-0.01,0.13-0.02,0.18C4.83,9.26,4.82,9.31,4.82,9.33c0,0.03,0,0.04-0.06,0.07C4.72,9.42,4.69,9.44,4.68,9.45
		C4.67,9.46,4.6,9.48,4.51,9.49L4.36,9.51L4.25,9.48c-0.1-0.03-0.14-0.05-0.24-0.13c-0.05-0.04-0.07-0.07-0.09-0.1
		c0-0.01-0.04-0.08-0.06-0.11S3.83,9.08,3.83,9.07C3.82,9.03,3.8,8.97,3.78,8.96C3.77,8.94,3.76,8.92,3.75,8.88
		C3.74,8.86,3.74,8.82,3.73,8.8C3.72,8.79,3.71,8.75,3.71,8.72C3.69,8.62,3.67,8.55,3.67,8.54C3.66,8.52,3.65,8.49,3.65,8.26
		c0-0.08,0-0.17,0.01-0.19c0.01-0.02,0.02-0.06,0.02-0.09c0.01-0.05,0-0.06,0.02-0.06c0-0.02,0.02-0.1,0.05-0.16
		c0.04-0.09,0.06-0.18,0.06-0.41c0-0.07,0.01-0.19,0.02-0.27C3.84,7.02,3.84,6.93,3.84,6.9V6.76c0-0.07-0.01-0.26-0.02-0.27
		C3.81,6.48,3.64,6.53,3.5,6.58C3.42,6.61,3.31,6.65,3.27,6.66C3.23,6.67,3.18,6.69,3.16,6.7C3.14,6.71,3.11,6.72,3.1,6.72
		c-0.01,0-0.03,0.01-0.05,0.03C3.02,6.77,3.01,6.79,2.99,6.88C2.98,6.93,2.98,6.98,2.98,7v0.12c0,0.02,0,0.06-0.01,0.09
		c-0.01,0.04-0.01,0.07,0,0.13C2.99,7.45,2.95,7.6,2.91,7.7L2.88,7.77L2.8,7.79C2.73,7.83,2.72,7.83,2.58,7.83
		c-0.09,0-0.15-0.02-0.21-0.04C2.33,7.77,2.31,7.75,2.3,7.75C2.29,7.75,2.26,7.75,2.23,7.74C2.19,7.71,2.18,7.71,2.15,7.67
		C2.13,7.64,2.11,7.6,2.1,7.58C2.08,7.56,2.01,7.41,2,7.35c0-0.02-0.02-0.07-0.03-0.12C1.95,7.14,1.94,7.1,1.94,6.95
		c0-0.13,0.01-0.2,0.02-0.23c0.01-0.03,0.01-0.08,0.01-0.11c0-0.03,0-0.06,0.01-0.06C1.99,6.54,2,6.53,1.99,6.48
		C1.98,6.37,1.97,6.37,2,6.3c0.02-0.05,0.02-0.06,0.01-0.08C2,6.2,2,6.19,2.01,6.18c0.01-0.01,0.01-0.03,0.01-0.05
		c0-0.02,0-0.04,0.01-0.06c0.01-0.02,0.02-0.03,0.02-0.04s0-0.01,0.01-0.02C2.07,6,2.07,5.94,2.07,5.89c0-0.03,0.01-0.04,0.02-0.05
		C2.1,5.83,2.1,5.82,2.1,5.81C2.1,5.8,2.11,5.8,2.15,5.8s0.05,0,0.07-0.03l0.02-0.03l0.11,0.01c0.06,0,0.11,0,0.12,0.01
		c0.01,0,0.04,0.01,0.07,0.01c0.04,0,0.06,0.01,0.07,0.03c0.02,0.01,0.03,0.01,0.04,0c0.01-0.02,0.02-0.02,0.02,0
		c0.01,0.02,0.3,0.02,0.33,0c0.01-0.02,0.05-0.03,0.08-0.03s0.06,0,0.07-0.01c0.01,0,0.09-0.02,0.19-0.04
		c0.24-0.04,0.42-0.07,0.43-0.09c0-0.01,0.01-0.02,0.01-0.03S3.8,5.58,3.81,5.57c0.02-0.01,0.02-0.03,0.02-0.05
		c0-0.02,0.01-0.05,0.02-0.06c0.02-0.02,0.02-0.02,0.01-0.07c0-0.05,0-0.06,0.02-0.11c0.01-0.03,0.04-0.08,0.04-0.1
		c0-0.03,0.01-0.06,0.01-0.07c0.01-0.03,0-0.04-0.05-0.03c-0.03,0-0.1,0.03-0.16,0.04C3.37,5.18,3.29,5.2,3.19,5.23
		C3.13,5.25,3.03,5.29,2.96,5.31C2.89,5.33,2.82,5.34,2.79,5.35c-0.11,0.04-0.24,0.07-0.4,0.08C2.03,5.46,1.86,5.5,1.61,5.58
		C1.49,5.62,1.45,5.64,1.42,5.66C1.4,5.68,1.38,5.7,1.36,5.71c-0.05,0.03-0.09,0.07-0.09,0.1c0,0.01,0,0.02-0.01,0.03
		C1.25,5.85,1.24,5.86,1.24,5.88c0,0.02,0,0.06-0.01,0.09C1.22,6,1.21,6.03,1.21,6.06c0,0.07-0.07,0.19-0.12,0.22
		C0.9,6.39,0.77,6.43,0.69,6.4C0.68,6.39,0.65,6.39,0.63,6.39S0.59,6.38,0.58,6.37c-0.02-0.02-0.06-0.04-0.1-0.04
		c-0.05,0-0.2-0.08-0.22-0.11C0.25,6.2,0.22,6.17,0.19,6.14C0.15,6.1,0.14,6.09,0.14,6.07c0-0.02-0.01-0.04-0.03-0.06
		C0.07,5.98,0.05,5.94,0.05,5.9c0-0.01-0.01-0.04-0.02-0.05C0.01,5.83,0.01,5.82,0.02,5.78c0-0.03,0-0.05-0.01-0.07
		C0,5.68,0,5.67,0.01,5.63c0.01-0.03,0.01-0.05,0-0.07C0,5.53,0.01,5.39,0.02,5.35c0-0.02,0-0.05-0.01-0.07C0,5.24,0,5.22,0.02,5.19
		c0.01-0.03,0.02-0.07,0.02-0.08c0-0.03,0-0.08,0.01-0.11c0.01-0.04,0-0.08,0-0.12s0-0.07,0.01-0.09c0.01-0.02,0.01-0.02,0-0.03
		c-0.01-0.02-0.01-0.08,0-0.12c0.01-0.02,0.02-0.03,0.03-0.03c0.02,0,0.04-0.01,0.03-0.04c0-0.01-0.01-0.03,0-0.03
		c0.01-0.01,0.04-0.09,0.03-0.11c0-0.03,0.11-0.11,0.17-0.14c0.06-0.03,0.29-0.04,0.33-0.01C0.66,4.29,0.68,4.3,0.69,4.3
		c0.01,0,0.02,0.01,0.02,0.02s0.02,0.02,0.03,0.02c0.05,0.01,0.09,0.05,0.12,0.11c0.03,0.06,0.05,0.09,0.08,0.09
		c0.01,0,0.04,0.02,0.07,0.04c0.04,0.03,0.07,0.04,0.1,0.04c0.02,0,0.05,0.01,0.06,0.01c0.01,0.01,0.02,0,0.04-0.01
		c0.03-0.02,0.04-0.01,0.05,0c0.01,0.02,0.02,0.02,0.05,0.02c0.02,0,0.05,0,0.07,0.01c0.03,0.01,0.05,0.01,0.09,0
		c0.05-0.01,0.06-0.01,0.07,0c0.02,0.01,0.04,0.01,0.05,0.01c0.02-0.01,0.04-0.01,0.08,0c0.05,0.01,0.05,0.01,0.06,0
		c0.01-0.01,0.01-0.01,0.01-0.02c0-0.01,0.03-0.01,0.05,0c0.05,0.01,0.15,0.01,0.17-0.01c0.01-0.01,0.01-0.01,0.04,0
		c0.06,0.03,0.09,0.04,0.1,0.03s0.03-0.01,0.06-0.01C2.2,4.64,2.21,4.64,2.22,4.66c0.01,0.01,0.02,0.01,0.04,0.01
		C2.28,4.66,2.29,4.66,2.3,4.65c0-0.01,0.01-0.01,0.02,0c0.01,0.01,0.02,0.02,0.04,0.01s0.05-0.01,0.07-0.01
		c0.03,0,0.04,0,0.04-0.01c0-0.01,0.03-0.01,0.09-0.01c0.06,0,0.12-0.01,0.19-0.03c0.05-0.01,0.1-0.02,0.12-0.02s0.06,0,0.09-0.01
		c0.06-0.01,0.28-0.04,0.39-0.05c0.04,0,0.1-0.01,0.13-0.02c0.04-0.01,0.07,0,0.08,0c0.01,0,0.04,0,0.06-0.01
		c0.03-0.01,0.12-0.03,0.21-0.04c0.1-0.01,0.21-0.04,0.25-0.05c0.04-0.01,0.13-0.01,0.19-0.02s0.11-0.02,0.12-0.02
		C4.4,4.35,4.46,4.35,4.52,4.34C4.69,4.32,4.9,4.26,4.95,4.23C4.97,4.22,5,4.21,5.02,4.21S5.08,4.2,5.11,4.19
		C5.15,4.18,5.19,4.19,5.23,4.19z M4.73,0c0.02,0,0.05,0.1,0.06,0.17c0.01,0.04,0.02,0.08,0.02,0.1c0.02,0.09,0.03,0.17,0.03,0.21
		c-0.01,0.06,0,0.11,0.03,0.2C4.88,0.7,4.89,0.74,4.89,0.76c0,0.04,0.03,0.21,0.04,0.26l0.01,0.03l0.1,0.01
		c0.16,0.02,0.36,0,0.38-0.01c0.01-0.01,0.04-0.01,0.06-0.01c0.03,0,0.04-0.02,0.04-0.03c0-0.02,0.01-0.04,0.02-0.05
		c0.01-0.01,0.02-0.03,0.02-0.04s0.02-0.03,0.03-0.04c0.02-0.01,0.03-0.05,0.04-0.07c0.01-0.03,0.04-0.06,0.05-0.08
		C5.7,0.71,5.71,0.7,5.71,0.69c0-0.01,0.01-0.03,0.02-0.05l0.04-0.08C5.78,0.53,5.8,0.51,5.81,0.5c0.02-0.01,0.02-0.02,0.02-0.05
		s0-0.03,0.01-0.03c0.01,0,0.02,0.01,0.02,0C5.87,0.4,5.97,0.48,6,0.52C6.02,0.54,6.03,0.58,6.04,0.6c0.01,0.02,0.03,0.05,0.04,0.08
		C6.1,0.71,6.11,0.74,6.11,0.75S6.12,0.8,6.13,0.83c0.01,0.03,0.02,0.09,0.02,0.15c0,0.07,0,0.13,0.01,0.14
		c0.02,0.02,0.11,0.06,0.15,0.07c0.02,0,0.04,0.01,0.06,0.02s0.07,0.02,0.1,0.03C6.5,1.25,6.53,1.26,6.54,1.27
		c0.02,0.02,0.11,0.07,0.12,0.06c0.01,0,0.02-0.01,0.02,0C6.69,1.34,6.69,1.34,6.7,1.34c0.01,0,0.03,0,0.04,0.01
		s0.03,0.02,0.04,0.02c0.02,0,0.11,0.05,0.15,0.09C6.94,1.47,6.96,1.49,6.98,1.5c0.13,0.07,0.19,0.11,0.29,0.26
		C7.32,1.83,7.37,1.93,7.37,2c0,0.06,0,0.07-0.04,0.15C7.27,2.27,7.22,2.3,7.13,2.33C7.03,2.36,6.96,2.38,6.9,2.36
		C6.88,2.35,6.84,2.35,6.82,2.35s-0.06-0.01-0.1-0.02S6.63,2.31,6.61,2.31H6.44c-0.09,0-0.15-0.01-0.15,0L6.28,2.68
		c0.01,0.01,0.01,0.09,0.01,0.18c0,0.12,0,0.17,0.01,0.18c0.01,0.02,0.02,0.06,0.02,0.1s0,0.08,0.01,0.1
		c0.01,0.02,0.02,0.07,0.02,0.13c0,0.08-0.01,0.09-0.04,0.12C6.28,3.52,6.25,3.57,6.27,3.58C6.25,3.59,6.22,3.61,6.18,3.65
		C6.12,3.72,6.06,3.76,6.01,3.76c-0.02,0-0.03,0-0.04,0.02C5.96,3.8,5.95,3.8,5.88,3.8c-0.05,0-0.1,0.01-0.13,0.02
		C5.71,3.83,5.69,3.83,5.48,3.78C5.34,3.75,5.3,3.75,5.23,3.75s-0.1,0-0.15-0.01C5.02,3.71,5.03,3.72,4.61,3.75
		C4.27,3.77,4.29,3.76,4.15,3.8C4.02,3.83,3.86,3.88,3.76,3.92S3.63,3.97,3.5,3.97s-0.16,0-0.17,0.01C3.32,3.99,3.31,4,3.29,4
		C3.25,3.99,3.23,4,3.18,4.09C3.14,4.17,3.13,4.17,2.99,4.17c-0.08,0-0.1,0-0.16-0.03C2.8,4.12,2.75,4.11,2.73,4.11
		c-0.02,0-0.05-0.01-0.06-0.02C2.66,4.08,2.63,4.08,2.61,4.08S2.58,4.07,2.56,4.05C2.55,4.04,2.52,4.02,2.5,4.02s-0.03,0-0.03-0.01
		c0-0.01-0.01,0-0.02,0c0.01-0.02,0.01-0.03-0.02-0.06C2.41,3.93,2.38,3.88,2.37,3.86C2.36,3.83,2.34,3.8,2.32,3.78
		C2.31,3.76,2.29,3.75,2.29,3.74c0-0.02-0.01-0.04-0.03-0.06C2.2,3.61,2.19,3.57,2.17,3.49C2.16,3.43,2.15,3.37,2.15,3.35
		c0-0.04,0.01-0.06,0-0.06c-0.01,0,0-0.02,0-0.06c0.02-0.17,0.02-0.41,0-0.46c-0.02-0.05-0.01-0.18,0.01-0.2
		c0.01-0.02,0.01-0.11,0-0.12c0-0.01-0.01-0.03,0-0.06c0.01-0.07,0-0.12-0.02-0.13L1.82,2.24c-0.17-0.01-0.35-0.01-0.4-0.02
		C1.37,2.21,1.33,2.19,1.32,2.2c-0.01,0.01-0.03,0-0.06-0.01c-0.04-0.01-0.06-0.01-0.08,0s-0.02,0.01-0.04,0
		C1.13,2.18,1.12,2.17,1.11,2.18c-0.01,0.01-0.03,0-0.03-0.02c0-0.01,0-0.02-0.02,0C1.05,2.17,1.04,2.18,1.04,2.17
		c0-0.01-0.03-0.01-0.04,0c-0.01,0.01-0.03,0-0.06,0c-0.04-0.01-0.06,0-0.08,0.01c-0.03,0.01-0.03,0.01-0.06,0
		C0.78,2.17,0.75,2.16,0.74,2.17c-0.02,0.01-0.23-0.03-0.3-0.05C0.42,2.11,0.39,2.1,0.38,2.1c-0.01,0-0.04-0.02-0.07-0.05
		C0.28,2.02,0.26,2,0.25,2C0.23,2,0.2,1.96,0.21,1.95c0-0.01,0.02-0.01,0.03-0.01c0.02,0,0.03,0,0.04-0.02
		c0.01-0.01,0.05-0.05,0.06-0.05C0.37,1.86,0.42,1.82,0.45,1.8c0.03-0.02,0.07-0.04,0.08-0.04c0.02,0,0.05-0.02,0.1-0.06
		c0.03-0.03,0.09-0.07,0.1-0.07C0.76,1.62,0.8,1.61,0.82,1.6c0.08-0.04,0.16-0.08,0.2-0.08c0.02,0,0.07-0.01,0.09-0.02
		C1.13,1.49,1.2,1.47,1.26,1.45c0.06-0.02,0.12-0.03,0.13-0.04C1.4,1.4,1.42,1.4,1.46,1.39c0.07-0.01,0.11-0.02,0.12-0.03
		c0.01-0.01,0.04-0.02,0.07-0.03C1.68,1.32,1.75,1.31,1.8,1.3s0.12-0.03,0.16-0.04C2,1.25,2.06,1.25,2.09,1.24l0.06-0.01l0.01-0.17
		c0.01-0.1,0.01-0.18,0-0.19c0-0.01-0.01-0.01,0-0.02c0.01-0.01,0.01-0.02,0.01-0.04c0-0.02,0-0.04,0.01-0.06
		C2.19,0.73,2.2,0.68,2.2,0.63c0-0.08,0.02-0.2,0.03-0.22c0-0.01,0.01-0.03,0.01-0.05c0.01-0.15,0.01-0.15,0.03-0.15
		C2.3,0.22,2.34,0.18,2.34,0.15c0-0.02,0.01-0.03,0.02-0.02C2.37,0.1,2.38,0.1,2.39,0.1c0.01,0,0.03,0,0.04-0.02
		c0.02-0.04,0.05-0.03,0.1,0C2.55,0.09,2.56,0.1,2.57,0.1c0.01,0,0.02,0.01,0.04,0.03l0.13,0.13c0.05,0.06,0.11,0.11,0.12,0.13
		c0.01,0.02,0.05,0.05,0.07,0.06c0.04,0.02,0.23,0.22,0.23,0.24c0,0.01,0.01,0.02,0.02,0.03c0.01,0.01,0.06,0.05,0.1,0.1
		c0.08,0.1,0.1,0.11,0.22,0.12c0.17,0.01,0.21,0,0.22,0.01s0.01,0,0.02,0c0.01,0,0.04,0,0.05,0.01c0.02,0,0.03,0.01,0.05,0
		s0.03-0.01,0.05,0C3.9,0.97,3.94,0.98,3.96,0.98c0.03,0,0.06,0,0.06,0.01c0,0.02,0.02,0.02,0.03,0c0.02-0.01,0.04-0.01,0.09,0
		c0.07,0.02,0.08,0.02,0.09-0.01c0.01-0.01,0.01-0.03,0.01-0.05c0-0.02,0-0.05,0.01-0.06c0.01-0.01,0.02-0.04,0.02-0.08
		S4.27,0.71,4.27,0.7c0.01-0.01,0.01-0.04,0.01-0.06c0.01-0.09,0.03-0.12,0.08-0.17C4.38,0.45,4.4,0.43,4.38,0.41
		C4.38,0.38,4.4,0.3,4.42,0.3c0.01,0,0.06-0.07,0.05-0.08C4.46,0.2,4.5,0.08,4.53,0.06c0.01-0.01,0.03-0.02,0.06-0.02
		c0.04,0,0.05,0.01,0.06,0.03c0.01,0.02,0.02,0.02,0.03,0.01C4.69,0.07,4.7,0.05,4.71,0.03C4.72,0.01,4.72,0,4.73,0z M4.25,2.29H4.1
		c-0.09,0-0.23-0.01-0.31-0.01c-0.12-0.01-0.14,0-0.14,0.01C3.64,2.33,3.63,2.53,3.63,2.63l0.01,0.11l0.03,0.03
		C3.7,2.8,3.75,2.81,3.81,2.81c0.08,0,0.16,0,0.29,0.01c0.12,0,0.14,0,0.14-0.01c0.02-0.06,0.04-0.39,0.02-0.48V2.29z M4.89,2.28
		C4.86,2.27,4.86,2.29,4.86,2.44c0,0.07-0.01,0.15-0.02,0.19C4.83,2.67,4.83,2.72,4.83,2.76L4.82,2.83l0.06-0.01
		c0.2-0.01,0.24-0.01,0.24,0c0,0.01,0.01,0,0.02,0C5.17,2.81,5.33,2.8,5.35,2.81c0.01,0.01,0.03,0.01,0.05,0
		C5.43,2.8,5.44,2.79,5.43,2.74c0-0.03-0.01-0.06-0.02-0.08c-0.02-0.04-0.02-0.07,0-0.09c0.01-0.01,0.01-0.03,0.01-0.04
		s0-0.02,0.01-0.02c0.01,0,0.01-0.05,0.01-0.09c0-0.08,0-0.08-0.03-0.09C5.4,2.32,5.28,2.31,5.15,2.3L4.89,2.28z"/>
	<path class="st0" d="M12.79,0.35c0.01,0,0.02,0,0.03,0.01c0.01,0.01,0.03,0.02,0.04,0.02c0.01,0,0.03,0,0.04,0.01
		c0.02,0.01,0.03,0.01,0.06,0c0.05-0.02,0.12-0.01,0.17,0.01c0.05,0.02,0.16,0.02,0.18,0.01c0.01-0.01,0.02,0,0.04,0.01
		c0.03,0.01,0.03,0.01,0.05,0c0.01-0.01,0.04-0.02,0.07-0.03c0.03-0.01,0.05,0,0.07,0.01c0.01,0.01,0.02,0,0.03,0
		c0.01,0.03,0.06,0.04,0.08,0.03c0.01-0.01,0.03-0.01,0.03,0c0.01,0.01,0.03,0.01,0.05,0.01c0.05,0,0.06,0,0.09,0.03
		c0.03,0.03,0.04,0.04,0.05,0.03c0.01-0.01,0.02-0.01,0.03,0c0.04,0.03,0.12,0.07,0.13,0.06c0-0.01,0.02,0,0.05,0.01
		c0.02,0,0.04,0.01,0.05,0.01c0.01,0,0.01,0.01,0.02,0.03c0.01,0.02,0.03,0.03,0.06,0.04c0.04,0.01,0.06,0.02,0.19,0.15
		c0.02,0.03,0.04,0.06,0.04,0.07s0.03,0.02,0.05,0.03c0.03,0.01,0.04,0.01,0.04,0.02c0,0.02,0.08,0.07,0.13,0.09
		c0.05,0.02,0.07,0.04,0.1,0.09c0.03,0.04,0.05,0.06,0.06,0.06c0.02,0,0.03,0,0.03,0.01s0.03,0.03,0.05,0.04
		c0.05,0.01,0.08,0.06,0.09,0.11c0.01,0.03,0.02,0.04,0.03,0.04c0.01,0,0.02,0,0.06,0.06c0.05,0.04,0.09,0.08,0.11,0.09
		c0.03,0.02,0.05,0.03,0.05,0.04c0,0.05,0.01,0.07,0.04,0.07c0.02,0,0.03,0,0.05,0.03c0.01,0.01,0.02,0.03,0.03,0.02
		c0.02,0,0.04,0.01,0.05,0.02c0.03,0.02,0.05,0.07,0.05,0.11c0,0.03,0.03,0.06,0.04,0.06c0.01,0,0.04,0.02,0.07,0.07
		s0.06,0.08,0.1,0.1c0.03,0.02,0.15,0.17,0.2,0.25c0.03,0.04,0.12,0.23,0.12,0.25c0.01,0.05-0.01,0.12-0.05,0.15
		c-0.01,0.01-0.04,0.03-0.04,0.04c0,0.02-0.05,0.06-0.1,0.08c-0.02,0.01-0.04,0.01-0.04,0.02c0,0.01-0.03,0.03-0.07,0.06
		S15.6,2.93,15.6,2.94c0,0.01-0.01,0.02-0.02,0.02c-0.01,0-0.07,0.02-0.11,0.07c-0.05,0.05-0.11,0.09-0.12,0.09
		c-0.01,0-0.08,0.06-0.08,0.07l-0.14,0.16c-0.05,0.04-0.1,0.09-0.11,0.11C15.01,3.49,15,3.51,14.99,3.52c0.01,0.01,0.01,0.02,0,0.03
		c-0.01,0.01-0.01,0.03-0.01,0.04c0,0.01-0.01,0.03-0.02,0.05c-0.01,0.04-0.07,0.25-0.08,0.35c0,0.03,0,0.05-0.01,0.05
		c-0.01,0-0.01,0.02-0.01,0.04c0,0.17-0.11,0.27-0.26,0.24c-0.03-0.01-0.08-0.02-0.1-0.02c-0.06-0.01-0.08-0.01-0.09-0.02
		c-0.03-0.03-0.09-0.05-0.12-0.04c-0.03,0-0.03-0.01-0.05-0.02c-0.03-0.03-0.11-0.06-0.22-0.08c-0.06-0.01-0.11-0.03-0.12-0.04
		c-0.01-0.01-0.03,0-0.04,0c-0.02,0-0.05,0-0.09-0.01c-0.04-0.01-0.12-0.02-0.18-0.02c-0.06,0-0.16-0.01-0.2-0.01
		c-0.05-0.01-0.07-0.01-0.08,0h-0.03c-0.01-0.01-0.05-0.02-0.08-0.02c-0.07-0.01-0.16-0.02-0.2-0.03C12.98,4,12.95,4,12.92,4.01
		c-0.05,0.01-0.09,0.01-0.13,0.01c-0.02,0-0.08,0-0.2,0.01c-0.08,0.01-0.17,0.02-0.2,0.02h-0.06l-0.02,0.04
		c-0.01,0.02-0.01,0.08-0.02,0.13c0,0.06-0.02,0.08-0.06,0.14c-0.01,0.03-0.04,0.08-0.04,0.09c0,0.02-0.02,0.04-0.04,0.05
		c-0.03,0.02-0.03,0.03-0.03,0.06c0,0.03-0.01,0.04-0.04,0.06c-0.02,0.01-0.03,0.04-0.03,0.06c0,0.01-0.03,0.04-0.05,0.07
		s-0.05,0.08-0.06,0.11c-0.01,0.03-0.03,0.05-0.04,0.05c-0.02,0-0.09,0.12-0.13,0.22c-0.06,0.17-0.09,0.32-0.1,0.47
		c0,0.08-0.02,0.15-0.01,0.16c0.01,0.01,0.02,0.05,0.02,0.1c0.01,0.1,0,0.14,0.01,0.19c0,0.02,0,0.05,0.01,0.08
		c0.01,0.03,0.01,0.11,0.01,0.21c0,0.15,0,0.16-0.02,0.19c0,0.02-0.01,0.05-0.01,0.06s-0.02,0.03-0.03,0.04
		c-0.01,0.01-0.02,0.04-0.03,0.05c-0.01,0.02-0.02,0.04-0.03,0.05c-0.01,0.01-0.02,0.03-0.02,0.04s-0.02,0.02-0.03,0.03
		c-0.05,0.06-0.17,0.29-0.18,0.37c-0.03,0.15-0.05,0.22-0.11,0.26c-0.01,0.01-0.03,0.03-0.03,0.05c0,0.02-0.02,0.06-0.06,0.08
		l-0.04,0.05L11.06,7.6c-0.04,0-0.07,0-0.09,0.01c-0.04,0.02-0.06,0.02-0.19,0c-0.07-0.01-0.12-0.02-0.14-0.02s-0.04,0-0.08-0.02
		c-0.07-0.03-0.17-0.04-0.27-0.03c-0.09,0.01-0.11,0.01-0.26-0.1c-0.02-0.02-0.09-0.15-0.14-0.23C9.88,7.18,9.87,7.14,9.86,7.12
		C9.85,7.11,9.84,7.08,9.83,7.04C9.82,7,9.82,6.96,9.81,6.95C9.8,6.94,9.79,6.92,9.79,6.91c0-0.01-0.01-0.01-0.02-0.02
		C9.73,6.86,9.61,6.83,9.55,6.84c-0.03,0-0.04,0.01-0.04,0C9.5,6.82,9.41,6.82,9.34,6.85C9.31,6.86,9.27,6.88,9.25,6.88
		S9.21,6.89,9.19,6.9c-0.02,0-0.04,0.01-0.05,0.01c-0.01,0-0.03-0.01-0.06,0C9.07,6.92,9.05,6.92,9.04,6.92S9.02,6.92,9,6.93
		C8.97,6.95,8.97,6.95,8.94,6.92C8.92,6.9,8.9,6.9,8.9,6.89S8.88,6.88,8.87,6.88c-0.03,0-0.06-0.02-0.1-0.08
		C8.73,6.73,8.73,6.72,8.76,6.64c0.01-0.03,0.04-0.07,0.1-0.13C8.9,6.47,8.94,6.44,8.95,6.44c0.01,0,0.02-0.01,0.03-0.02
		C8.99,6.41,9.02,6.4,9.03,6.4c0.01,0,0.03,0,0.03-0.01c0.03,0,0.11-0.04,0.1-0.05c0-0.01,0.01-0.01,0.02-0.01
		c0.01,0,0.03-0.02,0.05-0.03s0.08-0.05,0.15-0.07C9.44,6.2,9.51,6.16,9.52,6.14C9.55,6.11,9.57,6.11,9.6,6.11
		c0.03,0,0.06-0.01,0.07-0.03C9.68,6.07,9.7,6.05,9.71,6.05c0.01,0,0.04-0.01,0.05-0.02C9.77,6.02,9.79,6.02,9.8,6.02
		c0.03,0,0.15-0.07,0.14-0.08c0-0.01,0.01-0.01,0.03-0.01c0.01,0,0.03-0.02,0.04-0.04c0.01-0.02,0.03-0.04,0.04-0.05
		c0-0.01,0.01-0.02,0.01-0.03c0-0.01,0.01-0.02,0.03-0.04c0.02-0.02,0.03-0.03,0.03-0.04s0.02-0.04,0.04-0.07l0.06-0.08
		c0.01,0,0.03-0.02,0.04-0.06c0.01-0.03,0.03-0.08,0.04-0.1c0.1-0.19,0.15-0.29,0.17-0.32c0-0.02,0.01-0.05,0.02-0.08
		c0.01-0.03,0.02-0.05,0.02-0.06s0.01-0.03,0.02-0.03c0.01-0.01,0.02-0.03,0.02-0.04c0-0.04,0.05-0.19,0.07-0.22
		c0.01-0.02,0.02-0.04,0.02-0.05s0-0.03,0.01-0.03c0.01-0.01,0.02-0.05,0.03-0.09c0.01-0.05,0.04-0.13,0.07-0.18
		c0.02-0.04,0.04-0.11,0.04-0.12s0.01-0.04,0.02-0.06c0.01-0.02,0.03-0.08,0.04-0.15c0.02-0.11,0.02-0.13,0.01-0.14
		c-0.01-0.01-0.02-0.01-0.01-0.04c0.01-0.03,0.01-0.04-0.01-0.1c-0.01-0.04-0.03-0.09-0.03-0.1c0-0.05-0.03-0.19-0.06-0.25
		c-0.01-0.03-0.04-0.1-0.04-0.13c0-0.04-0.01-0.07-0.03-0.11c-0.03-0.06-0.03-0.06-0.02-0.13c0.01-0.09,0.02-0.2,0-0.24
		c-0.01-0.03-0.02-0.04-0.01-0.05c0.01-0.02,0.03-0.01,0.04,0.01c0.01,0.01,0.01,0.02,0.02,0.01c0.01-0.01,0.04-0.07,0.06-0.14
		c0.03-0.1,0.04-0.12,0.06-0.12c0.01,0,0.02,0,0.02,0.01c0,0.01,0.02,0,0.02-0.02c0.01-0.05,0.05-0.05,0.1,0
		c0.05,0.03,0.13,0.09,0.22,0.16c0.03,0.02,0.06,0.05,0.08,0.07c0.03,0.02,0.08,0.08,0.13,0.13l0.11,0.11
		c0.02,0.04,0.14,0.14,0.15,0.14c0.01,0,0.02,0.01,0.03,0.03c0,0.02,0.02,0.05,0.04,0.07c0.02,0.02,0.05,0.06,0.08,0.11
		c0.06,0.09,0.08,0.1,0.13,0.1c0.02,0,0.03,0.01,0.04,0.02c0.01,0.02,0.07,0.03,0.07,0.02h0.04c0.07,0,0.09,0,0.09-0.01
		s0.01,0,0.03,0s0.02,0,0.02-0.01s0.03-0.01,0.07-0.01c0.09-0.01,0.23-0.03,0.31-0.06c0.03-0.01,0.1-0.02,0.14-0.02
		c0.03,0,0.1-0.02,0.15-0.03c0.06-0.01,0.13-0.03,0.17-0.03c0.02,0,0.1-0.02,0.15-0.03c0.04-0.01,0.1-0.02,0.12-0.02
		c0.03,0,0.11,0,0.19-0.01c0.07-0.01,0.22-0.03,0.26-0.03c0.09-0.01,0.14-0.02,0.16-0.03c0.03-0.02,0.04-0.01,0.06,0
		c0.02,0.01,0.02,0.01,0.03,0c0.01-0.01,0.01-0.02,0.02-0.02c0.02,0,0.1-0.04,0.1-0.05s0.02-0.03,0.04-0.06
		c0.02-0.02,0.04-0.06,0.05-0.08c0.01-0.02,0.04-0.07,0.06-0.1c0.02-0.03,0.03-0.05,0.03-0.06s0-0.03,0.02-0.05
		c0.03-0.03,0.03-0.04,0.03-0.1c0-0.06,0-0.07,0.02-0.09c0.04-0.06,0.02-0.16-0.05-0.2c-0.09-0.06-0.31-0.15-0.38-0.15
		c-0.03,0-0.06-0.01-0.07-0.02c-0.01-0.01-0.03-0.01-0.04-0.01c-0.01,0-0.01,0-0.03-0.01C13.81,2.1,13.78,2.1,13.7,2.1
		c-0.08,0-0.09,0.01-0.1,0c-0.01-0.01-0.02-0.02-0.03-0.02c-0.01,0-0.04,0.01-0.06,0.01c-0.03,0.01-0.04,0.01-0.04,0
		c0-0.02-0.03-0.03-0.06-0.01C13.4,2.09,13.37,2.1,13.36,2.1c-0.01,0-0.07,0.01-0.13,0.03c-0.07,0.02-0.17,0.05-0.18,0.05
		c-0.03,0-0.05,0.01-0.07,0.02c-0.01,0.02-0.04,0.02-0.06,0.02c-0.03,0-0.06,0.01-0.09,0.02c-0.03,0.01-0.05,0.03-0.06,0.03
		c-0.01,0-0.03,0.01-0.06,0.03c-0.03,0.01-0.09,0.02-0.12,0.02c-0.04,0-0.06,0.01-0.1,0.04c-0.03,0.02-0.07,0.04-0.08,0.04
		c-0.05,0-0.16,0.04-0.16,0.05s-0.02,0.02-0.06,0.02c-0.03,0-0.08,0.02-0.2,0.06l-0.13,0.06l-0.05-0.02
		c-0.05-0.02-0.12-0.04-0.13-0.02c-0.01,0.02-0.09,0.01-0.23-0.02c-0.07-0.01-0.14-0.02-0.18-0.02c-0.04,0-0.07-0.01-0.14-0.05
		c-0.05-0.03-0.11-0.05-0.14-0.05c-0.01,0-0.05-0.02-0.07-0.03c-0.02-0.01-0.03-0.02-0.04-0.02c-0.01,0-0.04-0.02-0.07-0.05
		c-0.04-0.03-0.06-0.04-0.14-0.06c-0.05-0.02-0.07-0.03-0.07-0.04c-0.02-0.01-0.05-0.03-0.08-0.05c-0.03-0.03-0.05-0.04-0.07-0.04
		c-0.01,0-0.02,0-0.02-0.01S10.42,2.1,10.4,2.1s-0.02,0-0.03-0.01c0-0.01-0.03-0.01-0.05-0.01c-0.06,0-0.08-0.01-0.06-0.04
		c0.01-0.02,0.01-0.03-0.06-0.05c-0.04-0.01-0.06-0.03-0.09-0.08c-0.06-0.08-0.06-0.1-0.02-0.12l0.03-0.01l-0.04-0.04l0.03-0.06
		c0.03-0.06,0.04-0.15,0.02-0.22c-0.01-0.04-0.01-0.05,0-0.05c0.01,0,0.03-0.01,0.04-0.02c0.03-0.01,0.05-0.01,0.07-0.01
		c0.04,0,0.09-0.05,0.1-0.1c0.01-0.03,0.01-0.03,0.03-0.03s0.03,0,0.04-0.02c0.01-0.01,0.04-0.03,0.08-0.04
		c0.03-0.01,0.06-0.02,0.07-0.03c0.01-0.01,0.03-0.01,0.04-0.01V1.12c0-0.02,0.02-0.03,0.06-0.04c0.03-0.01,0.06-0.02,0.09-0.02
		c0.02,0,0.04-0.01,0.04-0.02C10.8,1.02,10.87,1,10.89,1c0.01,0,0.03-0.01,0.04-0.03c0.03-0.03,0.11-0.05,0.14-0.04
		c0.02,0,0.07-0.02,0.1-0.05c0.01-0.01,0.02-0.01,0.03-0.01c0.01,0,0.04-0.01,0.06-0.02c0.03-0.01,0.06-0.01,0.07-0.01
		c0.01,0,0.02,0,0.02-0.01c0.01-0.02,0.02-0.02,0.03-0.01c0.01,0.01,0.02,0.01,0.03,0c0.01-0.01,0.02-0.02,0.03-0.02
		c0.01-0.02,0.03-0.02,0.08-0.04h0.06c0.03,0,0.04,0,0.06-0.02c0.01-0.01,0.03-0.03,0.04-0.03c0.01,0,0.02-0.01,0.03-0.02
		c0.02-0.01,0.03-0.01,0.06-0.01s0.06,0,0.07-0.01c0.01-0.01,0.05-0.03,0.08-0.04c0.03-0.01,0.07-0.04,0.09-0.05
		c0.05-0.02,0.13-0.04,0.16-0.03c0.02,0,0.03,0,0.03-0.02c0.01-0.02,0.01-0.01,0.03-0.01c0.01,0,0.01,0,0.02-0.01
		c0.01-0.01,0.04-0.02,0.06-0.03c0.03-0.01,0.07-0.02,0.09-0.03c0.02-0.01,0.06-0.02,0.08-0.03c0.02-0.01,0.04-0.02,0.05-0.02
		c0.01-0.01,0.01-0.01,0.02-0.01c0.01,0,0.02,0.01,0.03,0c0.01-0.01,0.04-0.03,0.08-0.03c0.03,0,0.08-0.01,0.1-0.01H12.79z
		 M15.93,4.17c0.02,0,0.06,0.02,0.08,0.04c0.03,0.01,0.05,0.03,0.07,0.03c0.03,0,0.05,0.01,0.07,0.03c0.02,0.01,0.03,0.02,0.05,0.02
		c0.01,0,0.03,0,0.03,0.01c0,0.01,0.01,0.02,0.03,0.02s0.06,0.02,0.1,0.03c0.04,0.02,0.08,0.02,0.11,0.02c0.02,0,0.04,0,0.05,0.01
		c0.01,0.01,0.04,0.01,0.06,0.01c0.01,0,0.06,0.02,0.1,0.04c0.04,0.02,0.09,0.04,0.1,0.04c0.01,0,0.02,0,0.03,0.01
		c0.01,0.01,0.03,0.02,0.05,0.03c0.07,0.05,0.07,0.13,0.02,0.26c-0.08,0.21-0.09,0.22-0.1,0.22C16.76,5,16.74,5.02,16.71,5.05
		c-0.02,0.03-0.04,0.07-0.07,0.1l-0.05,0.04h-0.12c-0.13,0-0.15,0-0.19-0.02c-0.02-0.01-0.06-0.02-0.1-0.02
		c-0.06-0.01-0.11-0.03-0.14-0.05C16.03,5.09,16,5.08,15.96,5.08c-0.05,0-0.08-0.01-0.09-0.02c-0.02-0.02-0.02-0.02-0.1,0
		c-0.12,0.02-0.25,0.01-0.28-0.02C15.45,5.01,15.23,5,15.16,5.02c-0.03,0.01-0.07,0.01-0.09,0.01S15,5.04,14.96,5.05
		c-0.03,0.01-0.07,0.02-0.09,0.02c-0.06,0-0.25,0.03-0.27,0.04h-0.06c-0.02,0-0.03,0-0.04,0.01c-0.01,0.01-0.04,0.01-0.06,0.01
		c-0.05,0-0.25,0.01-0.26,0.02h-0.12c-0.07,0-0.13,0.02-0.14,0.03c-0.02,0.01-0.03,0.02-0.05,0.06c-0.01,0.05-0.02,0.07-0.12,0.13
		c-0.07,0.04-0.12,0.09-0.12,0.1s-0.01,0.01-0.03,0.01s-0.04,0.01-0.07,0.04c-0.02,0.02-0.05,0.04-0.08,0.04
		c-0.01,0-0.05,0.03-0.08,0.05c-0.03,0.03-0.05,0.05-0.06,0.05c-0.01,0-0.02,0.02-0.03,0.04c-0.01,0.02-0.05,0.07-0.1,0.11
		c-0.04,0.05-0.08,0.11-0.09,0.13c-0.02,0.03-0.01,0.04,0,0.05C13.1,6,13.11,6,13.14,5.99c0.02-0.01,0.04-0.01,0.06-0.01
		c0.01,0,0.03,0,0.06-0.01c0.03-0.01,0.08-0.01,0.13-0.01s0.1-0.01,0.11-0.01c0.01-0.01,0.04-0.02,0.08-0.03
		c0.04-0.01,0.09-0.02,0.1-0.03c0.01-0.01,0.02-0.01,0.03-0.01c0.01,0,0.09-0.02,0.15-0.04c0.07-0.02,0.16-0.04,0.2-0.04
		s0.08-0.01,0.1-0.02s0.06-0.02,0.09-0.03c0.05-0.01,0.09-0.02,0.11-0.03c0.02-0.01,0.05-0.01,0.06-0.01c0.02,0,0.05-0.01,0.08-0.02
		c0.02-0.01,0.04-0.02,0.06-0.02c0.03,0,0.11-0.03,0.11-0.05c0-0.01,0.02-0.02,0.03-0.03c0.03-0.01,0.05-0.06,0.05-0.08
		c0-0.02,0.02-0.08,0.04-0.1c0.01-0.01,0.03-0.04,0.05-0.06c0.01-0.05,0.02-0.06,0.05-0.07c0.02-0.01,0.03-0.01,0.04-0.01
		c0.01,0.01,0.03,0,0.06-0.01c0.08-0.03,0.12-0.05,0.1-0.03c0,0.01,0,0.01,0.03,0.01c0.02,0,0.03,0,0.04,0.01
		c0.01,0,0.05,0.01,0.08,0.02c0.03,0.01,0.07,0.01,0.08,0.02c0.01,0.01,0.04,0.01,0.06,0.01c0.02-0.01,0.04,0,0.1,0.06
		c0.03,0.03,0.07,0.06,0.1,0.07c0.03,0.01,0.07,0.03,0.09,0.07c0.02,0.03,0.04,0.05,0.06,0.07c0.02,0.02,0.03,0.03,0.03,0.04
		s0.01,0.04,0.04,0.08c0.03,0.04,0.08,0.12,0.14,0.2c0.05,0.07,0.11,0.15,0.13,0.18c0.05,0.06,0.06,0.08,0.04,0.14
		c-0.02,0.05-0.06,0.1-0.11,0.12l-0.1,0.05c-0.02,0.02-0.08,0.05-0.12,0.07c-0.06,0.02-0.07,0.02-0.09,0.01
		c-0.01,0-0.02,0-0.07,0.01c-0.09,0.03-0.33,0.01-0.37-0.02c-0.01-0.01-0.04-0.04-0.06-0.05c-0.02-0.01-0.06-0.03-0.08-0.05
		c-0.03-0.02-0.04-0.03-0.07-0.03c-0.03,0-0.04,0-0.05-0.04c-0.01-0.03-0.02-0.04-0.04-0.04c-0.01-0.01-0.03-0.03-0.06-0.08
		C14.86,6.1,14.85,6.1,14.82,6.1c-0.01,0-0.04-0.01-0.07-0.03c-0.06-0.04-0.07-0.04-0.12-0.01c-0.02,0.01-0.1,0.04-0.16,0.05
		c-0.06,0.01-0.12,0.03-0.14,0.04c-0.02,0.01-0.04,0.02-0.07,0.02c-0.04,0.01-0.04,0.03,0.01,0.06c0.04,0.01,0.06,0.02,0.06,0.03
		s0.03,0.04,0.06,0.08c0.03,0.04,0.08,0.1,0.11,0.13c0.03,0.04,0.06,0.08,0.07,0.09c0.01,0.01,0.01,0.01,0.01,0.03v0.03h0.08
		c0.05,0,0.08,0,0.09,0.01c0.01,0.01,0.02,0,0.03,0c0.01,0,0.04,0.01,0.08,0.03c0.03,0.02,0.08,0.04,0.09,0.04
		c0.07,0.01,0.16,0.03,0.16,0.05c0,0.01,0.02,0.02,0.07,0.02c0.02,0,0.09,0.02,0.12,0.03c0.06,0.02,0.06,0.02,0.08,0.08
		c0.02,0.06,0.01,0.08-0.05,0.14c-0.06,0.07-0.09,0.09-0.11,0.1c-0.01,0-0.02,0.01-0.03,0.03c-0.02,0.05-0.05,0.07-0.13,0.08
		c-0.03,0.01-0.07,0.03-0.09,0.04s-0.04,0.02-0.06,0.02s-0.03,0-0.03,0.01c0,0.01-0.02,0.01-0.07,0l-0.05-0.02l-0.04,0.03
		c-0.02,0.02-0.05,0.02-0.06,0.02c-0.02,0-0.1,0.06-0.18,0.12c-0.01,0.01-0.03,0.05-0.04,0.08c0,0.02-0.02,0.05-0.03,0.07
		c-0.03,0.06-0.04,0.09-0.03,0.15v0.08c0,0.02,0.01,0.03,0.05,0.05c0.03,0.01,0.06,0.02,0.07,0.04c0.01,0,0-0.01,0-0.02
		c0-0.02,0.01-0.02,0.04-0.01c0.03,0,0.07,0.02,0.11,0.03c0.05,0.02,0.07,0.02,0.08,0.01c0.01-0.01,0.09-0.02,0.12-0.01
		c0.01,0.01,0.15-0.03,0.22-0.06c0.04-0.01,0.06-0.01,0.07-0.01c0.01,0,0.03,0,0.06-0.01c0.05-0.03,0.27-0.06,0.3-0.04
		c0.02,0.01,0.07,0.01,0.09-0.01c0.01-0.01,0.02-0.01,0.06,0.01c0.02,0.01,0.07,0.02,0.11,0.02s0.08,0.01,0.09,0.02
		c0.02,0.01,0.02,0.01,0.04-0.01c0.01-0.01,0.04-0.01,0.1,0c0.04,0.01,0.07,0.01,0.09,0.01s0.04,0.01,0.07,0.04
		c0.03,0.03,0.06,0.03,0.06,0.02c0.01-0.02,0.1,0.03,0.14,0.07c0.02,0.01,0.04,0.02,0.06,0.04l0.03,0.03v0.11
		c-0.01,0.1-0.04,0.21-0.07,0.25c-0.01,0.01-0.02,0.04-0.03,0.06c-0.01,0.02-0.02,0.05-0.06,0.09c-0.05,0.05-0.05,0.05-0.06,0.09
		c-0.01,0.08-0.02,0.1-0.04,0.1c-0.01,0-0.04,0.01-0.06,0.03c-0.04,0.03-0.04,0.03-0.15,0.04c-0.1,0.01-0.14,0-0.17-0.01
		c-0.03-0.01-0.05-0.01-0.06,0c-0.02,0.01-0.03,0-0.09-0.02c-0.08-0.03-0.13-0.04-0.15-0.02c-0.01,0.01-0.04,0.01-0.11-0.01
		c-0.1-0.02-0.22-0.03-0.24-0.02c-0.01-0.01-0.06-0.01-0.11-0.01c-0.05,0-0.11-0.01-0.15-0.02c-0.13-0.02-0.47,0-0.53,0.04
		c-0.02,0.01-0.04,0.02-0.05,0.02s-0.04,0.01-0.05,0.01c-0.01,0.01-0.02,0.01-0.03,0c-0.01-0.01-0.04-0.01-0.08,0
		c-0.04,0.01-0.07,0.01-0.08,0c-0.01-0.01-0.01-0.01-0.02,0c0,0.01-0.07,0.02-0.13,0.02s-0.1,0.01-0.13,0.02
		c-0.02,0.01-0.06,0.01-0.09,0.01c-0.04,0-0.22,0.03-0.31,0.05c-0.02,0.01-0.05,0.02-0.07,0.02l-0.06,0.03
		c-0.02,0.02-0.05,0.04-0.09,0.04c-0.03,0-0.08,0.02-0.1,0.03S13.02,9,13.01,9C13,9,12.98,9.01,12.96,9.02s-0.07,0.02-0.26,0.03
		c-0.29,0.01-0.31,0.01-0.37-0.01c-0.04-0.02-0.1-0.03-0.24-0.03C12.05,9.01,12.02,9,12.01,9C12,8.99,11.96,8.99,11.93,8.98
		c-0.03-0.01-0.06-0.03-0.07-0.04c-0.01-0.01-0.02-0.01-0.03-0.01c-0.02,0-0.06-0.02-0.11-0.04c-0.03-0.02-0.07-0.04-0.08-0.04
		c-0.01,0-0.02,0-0.02-0.01s-0.02-0.03-0.04-0.03c-0.03,0-0.04,0-0.04-0.01s-0.02-0.01-0.05-0.02c-0.06-0.02-0.16-0.11-0.19-0.15
		c-0.01-0.02-0.03-0.04-0.04-0.04s-0.01-0.03-0.02-0.08c-0.01-0.06-0.01-0.08,0-0.1c0.01-0.02,0.02-0.04,0.03-0.04
		c0.03,0,0.09-0.06,0.09-0.08c0-0.02,0.11-0.12,0.16-0.14c0.06-0.03,0.11-0.02,0.15,0.01c0.01,0.01,0.03,0.02,0.04,0.02
		c0.01,0,0.04,0,0.04,0.01s0.01,0.01,0.03,0c0.01-0.01,0.06-0.01,0.09-0.01c0.04,0,0.08-0.01,0.14-0.03
		c0.05-0.02,0.1-0.03,0.11-0.03c0.01,0,0.03,0,0.04-0.01c0.01-0.01,0.05-0.01,0.07-0.02l0.16-0.05C12.52,8,12.54,8,12.57,8
		C12.6,8.03,12.6,8.03,12.68,8c0.09-0.03,0.11-0.04,0.22-0.05h0.13c0.07,0.01,0.14-0.02,0.17-0.05c0.01-0.02,0.07-0.06,0.1-0.06
		c0.01,0,0.02,0,0.04-0.01c0.03-0.01,0.04-0.02,0.04-0.03c0-0.01,0.02-0.03,0.03-0.04c0.01-0.02,0.02-0.04,0.02-0.05
		s0.01-0.05,0.02-0.08c0.03-0.05,0.07-0.27,0.06-0.28c-0.01-0.01-0.4-0.02-0.42-0.01C13.07,7.35,13.05,7.35,13,7.33
		c-0.04,0-0.07-0.01-0.1-0.01c-0.01,0-0.06,0-0.1-0.01C12.77,7.3,12.72,7.3,12.7,7.3c-0.03,0-0.04,0-0.06-0.01
		c0-0.01-0.04-0.02-0.09-0.03c-0.04,0-0.07-0.01-0.08-0.02c-0.01-0.01-0.03-0.02-0.06-0.02c-0.05-0.01-0.07-0.02-0.08-0.05
		c-0.01-0.02-0.02-0.04-0.01-0.04c0.01,0,0-0.01-0.01-0.02l-0.02-0.02h0.02c0.02,0,0.03,0.01,0.03-0.01c0-0.02,0-0.02,0.05-0.02
		h0.05l-0.03-0.03c-0.02-0.02-0.02-0.02-0.01-0.02c0.03,0.01,0.05-0.02,0.02-0.03c-0.03-0.01-0.02-0.02,0.01-0.02
		c0.02,0,0.06-0.01,0.09-0.02c0.04-0.01,0.11-0.02,0.25-0.03c0.05,0,0.16-0.01,0.3-0.02c0.04-0.01,0.07-0.01,0.08,0
		c0.01,0.01,0.03,0,0.07-0.02c0.04-0.02,0.05-0.02,0.08-0.01c0.02,0.01,0.02,0.02,0.03,0.01c0.01-0.01,0.04-0.01,0.08-0.02
		c0.06-0.01,0.09-0.02,0.1-0.03c0.01-0.01,0.04-0.03,0.07-0.03c0.04-0.01,0.07-0.03,0.1-0.05c0.05-0.05,0.05-0.05,0.05-0.11
		c0-0.04,0.02-0.1,0.02-0.14c0.01-0.04,0-0.06-0.02-0.07c-0.01-0.01-0.01-0.03,0-0.05c0.02-0.02,0.03-0.03,0.02-0.04
		c0-0.01-0.17,0.05-0.19,0.06c-0.01,0.01-0.16,0.04-0.24,0.06c-0.02,0-0.09,0.02-0.16,0.04c-0.06,0.02-0.11,0.03-0.12,0.03
		c-0.01,0-0.04,0-0.07,0.01c-0.08,0.03-0.29,0.04-0.36,0.02c-0.09-0.03-0.17-0.11-0.18-0.21C12.42,6.27,12.4,6.2,12.4,6.19
		c-0.01-0.01-0.01-0.01,0-0.02c0.01-0.01,0.04-0.07,0.06-0.12c0.04-0.07,0.05-0.09,0.07-0.09c0.02-0.01,0.05-0.04,0.08-0.07
		c0.03-0.03,0.06-0.07,0.07-0.07c0.02-0.01,0.08-0.07,0.1-0.13c0.01-0.01,0.03-0.04,0.05-0.06c0.02-0.02,0.03-0.04,0.03-0.05
		c0-0.01,0.02-0.02,0.03-0.02c0.01,0,0.03-0.03,0.04-0.05C12.94,5.49,12.97,5.44,13,5.4c0.05-0.06,0.08-0.12,0.09-0.16
		c0-0.01,0-0.02-0.05-0.03c-0.03,0-0.09-0.01-0.14-0.01c-0.11,0-0.2-0.02-0.32-0.05c-0.05-0.01-0.09-0.02-0.1-0.02
		c-0.02,0-0.25-0.11-0.26-0.12C12.21,5,12.21,4.98,12.21,4.97s-0.01-0.03-0.02-0.04C12.16,4.91,12.16,4.9,12.2,4.9h0.03l-0.04-0.03
		c-0.03-0.02-0.03-0.03-0.02-0.04c0.02-0.01,0.13-0.03,0.16-0.02c0.01,0,0.05-0.01,0.08-0.02c0.05-0.02,0.08-0.02,0.19-0.02
		c0.08,0,0.16-0.01,0.18-0.01h0.09c0.03,0,0.06-0.01,0.06-0.02c0-0.01,0.02-0.01,0.05,0c0.04,0,0.04,0,0.05-0.01
		c0.01-0.01,0.02-0.02,0.06-0.01c0.06,0.01,0.17-0.01,0.25-0.03c0.06-0.02,0.08-0.03,0.09-0.02c0.01,0.01,0.01,0,0.02-0.01
		c0.02-0.02,0.03-0.02,0.07-0.01h0.06c0.01-0.01,0.04-0.01,0.07-0.01c0.03,0,0.05,0,0.06-0.01c0.01-0.01,0.02-0.01,0.05,0
		c0.02,0,0.05,0,0.09-0.01c0.03-0.01,0.07-0.01,0.09-0.01s0.07,0,0.09-0.01c0.03-0.01,0.07-0.02,0.16-0.03
		c0.07-0.01,0.35-0.06,0.38-0.06C14.6,4.5,14.64,4.5,14.66,4.5s0.06-0.01,0.08-0.02c0.02-0.01,0.06-0.01,0.1-0.01
		c0.03,0,0.05,0,0.06-0.01c0.01-0.01,0.09-0.03,0.17-0.03c0.04,0,0.07,0,0.08-0.01c0.01-0.01,0.04-0.03,0.05-0.03
		c0.03-0.01,0.07-0.04,0.07-0.06c0-0.02,0.02-0.04,0.07-0.05c0.02,0,0.06,0,0.07-0.01c0.01-0.01,0.03-0.02,0.04-0.02
		c0.01,0,0.02-0.01,0.03-0.03C15.49,4.2,15.5,4.19,15.5,4.2c0.04,0.02,0.05,0.02,0.08,0.01C15.6,4.2,15.62,4.2,15.63,4.2
		c0.02,0,0.05,0,0.07-0.01c0.03-0.01,0.05-0.01,0.08,0c0.03,0.01,0.04,0.01,0.05,0c0.01-0.01,0.02-0.02,0.03-0.02
		C15.88,4.16,15.88,4.16,15.93,4.17z"/>
	<path class="st0" d="M20.61,0.85c0.07,0,0.07,0,0.07,0.02c0,0.02,0.02,0.03,0.03,0.02c0.01-0.01,0.03,0,0.07,0.03
		c0.03,0.02,0.07,0.04,0.08,0.05c0.01-0.01,0.02,0.02,0.03,0.04c0.02,0.04,0.23,0.27,0.25,0.27c0.01,0,0.01,0.01,0.02,0.03
		c0.01,0.02,0.03,0.04,0.04,0.04c0.02,0,0.03,0.01,0.03,0.02c0,0.02,0.11,0.12,0.25,0.26c0.01,0.01,0.09,0.08,0.16,0.16
		c0.08,0.08,0.18,0.18,0.23,0.22c0.05,0.04,0.11,0.09,0.14,0.12c0.08,0.08,0.12,0.12,0.13,0.12c0.01,0.01,0.04,0.02,0.06,0.04
		l0.04,0.03l0.02-0.02c0.01-0.01,0.03-0.02,0.05-0.02c0.02,0,0.06-0.01,0.09-0.02c0.03-0.01,0.06-0.01,0.07-0.01
		c0.01,0,0.02,0,0.03-0.01c0.01-0.01,0.01-0.01,0.02,0s0.02,0,0.03-0.01c0.01-0.01,0.06-0.01,0.11-0.02
		c0.05-0.01,0.09-0.03,0.09-0.04c0.01-0.01,0.02-0.01,0.03-0.01s0.1-0.03,0.21-0.06c0.11-0.03,0.21-0.06,0.22-0.06
		c0.05-0.01,0.2-0.04,0.22-0.05c0.06-0.03,0.19-0.07,0.32-0.1c0.08-0.02,0.23-0.05,0.33-0.07c0.14-0.03,0.2-0.04,0.37-0.05
		c0.23-0.01,0.4-0.01,0.72-0.01c0.29,0,0.36,0.01,0.44,0.03c0.14,0.03,0.18,0.04,0.24,0.1c0.02,0.02,0.08,0.06,0.11,0.08
		c0.03,0.01,0.07,0.03,0.07,0.04c0,0.01,0.02,0.02,0.05,0.03c0.03,0.01,0.06,0.03,0.07,0.04c0.01,0.01,0.01,0.02,0.02,0.02
		c0.01,0,0.05,0.02,0.09,0.06c0.01,0.01,0.08,0.05,0.13,0.09c0.17,0.11,0.3,0.25,0.33,0.37c0.01,0.03,0.04,0.08,0.06,0.12
		c0.02,0.04,0.04,0.09,0.05,0.11c0.02,0.04,0.03,0.12,0.01,0.13c-0.01,0-0.02,0.01-0.02,0.02s-0.01,0.02-0.02,0.03
		c-0.01,0.01-0.02,0.02-0.02,0.03c0,0.01,0,0.05-0.01,0.08c-0.01,0.05-0.02,0.07-0.04,0.07c-0.02,0-0.05,0.03-0.08,0.05
		c-0.03,0.03-0.07,0.03-0.08,0.03s-0.03,0.01-0.05,0.03c-0.02,0.01-0.04,0.02-0.17,0.02c-0.1,0-0.13,0-0.15-0.01
		c0,0.01-0.02,0.01-0.04,0c-0.01-0.01-0.04-0.01-0.07-0.01c-0.03,0-0.06,0-0.08-0.01c-0.01-0.01-0.06-0.02-0.11-0.02
		s-0.12-0.01-0.16-0.02c-0.09-0.02-0.25-0.02-0.52-0.02c-0.15,0-0.23,0-0.24,0.01c-0.02,0.02-0.01,0.07,0.01,0.08
		c0.01,0,0.02,0.01,0.02,0.02c0,0.01,0.02,0.05,0.04,0.09c0.02,0.04,0.04,0.09,0.04,0.1s0,0.03,0.01,0.03
		c0.01,0,0.01,0.02,0.01,0.04c0,0.02,0.03,0.09,0.05,0.15c0.04,0.1,0.07,0.19,0.08,0.31c0,0.03,0.01,0.05,0.01,0.06
		c0.01,0,0.01,0.04,0.02,0.07c0.01,0.03,0.01,0.06,0.02,0.07c0.02,0.02,0,0.24-0.02,0.27c0,0.01-0.02,0.05-0.03,0.1
		c-0.01,0.05-0.01,0.1-0.02,0.12c-0.01,0.02-0.01,0.06-0.02,0.09c-0.01,0.02-0.03,0.13-0.07,0.24c-0.04,0.12-0.06,0.19-0.06,0.21
		c0,0.01-0.01,0.07-0.02,0.12s-0.02,0.1-0.02,0.12c0,0.01,0,0.07-0.01,0.13c-0.02,0.15-0.03,0.41-0.03,0.72
		c0,0.11-0.01,0.21-0.01,0.22c0,0.01-0.01,0.2-0.01,0.43c0,0.31-0.01,0.44,0,0.49c0.01,0.04,0.02,0.1,0.02,0.14
		c0,0.04,0.01,0.06,0,0.06c0.01,0,0.01,0.04,0.01,0.08c0,0.05,0.01,0.09,0.02,0.1c0.01,0.01,0.01,0.03,0,0.05
		C25,7.99,25,8,25.02,8.04c0.01,0.03,0.02,0.05,0.01,0.06c-0.01,0,0,0.01,0.01,0.02c0.02,0.02,0.01,0.2-0.01,0.24
		c-0.01,0.02-0.02,0.07-0.02,0.21c0,0.1,0,0.2-0.01,0.22c-0.01,0.04-0.04,0.07-0.07,0.07c-0.01,0-0.02,0.01-0.03,0.02
		S24.87,8.9,24.86,8.9s-0.02,0.01-0.03,0.02s-0.03,0.01-0.04,0.01c-0.01,0-0.03,0.01-0.04,0.01c-0.02,0.01-0.17,0.04-0.21,0.04
		c-0.01,0-0.03,0.01-0.04,0.02c-0.01,0.02-0.03,0.01-0.13,0c-0.06-0.01-0.12,0-0.13,0c-0.02,0.01-0.18-0.01-0.21-0.03
		c-0.01-0.01-0.02-0.02-0.03-0.02s-0.03-0.01-0.05-0.02c-0.02-0.01-0.05-0.02-0.06-0.02c-0.04,0-0.1-0.07-0.13-0.13
		c-0.02-0.03-0.04-0.07-0.05-0.08c-0.01-0.01-0.02-0.03-0.02-0.05c0-0.02-0.02-0.06-0.04-0.09c-0.02-0.03-0.03-0.05-0.02-0.06
		c0-0.01,0.01-0.02,0-0.03c-0.02-0.03-0.04-0.11-0.04-0.21c0-0.03-0.01-0.05-0.01-0.06s-0.01-0.01,0-0.02
		c0.01-0.01,0.01-0.04-0.01-0.08c-0.01-0.03-0.02-0.09-0.02-0.12c0-0.04-0.01-0.07-0.02-0.08s-0.01-0.03-0.01-0.04
		c0.01-0.03-0.06-0.18-0.11-0.24c-0.04-0.05-0.06-0.08-0.06-0.13c0-0.02-0.01-0.05-0.02-0.06c-0.01-0.02-0.02-0.07-0.04-0.25
		c0-0.03-0.01-0.06-0.02-0.07c-0.01-0.01-0.02-0.02-0.02-0.03c-0.01-0.1-0.04-0.19-0.09-0.25c-0.02-0.02-0.03-0.05-0.03-0.06
		c0-0.01,0-0.02-0.01-0.03c-0.02-0.02-0.02-0.03,0-0.05c0.02-0.02,0.1,0,0.15,0.03c0.02,0.01,0.07,0.03,0.13,0.04
		c0.06,0.01,0.11,0.01,0.12,0.02c0.01,0.01,0.02,0.01,0.02,0c0-0.01,0.01-0.02,0.05-0.01c0.02,0,0.06,0,0.1-0.01
		c0.03-0.01,0.06-0.02,0.08-0.02c0.02,0,0.04,0,0.04-0.01c0.01-0.01,0.02-0.02,0.04-0.02c0.03,0,0.04-0.01,0.04-0.06
		c0-0.03,0.01-0.04,0.03-0.05c0.03-0.02,0.05-0.06,0.04-0.08c0-0.01,0.01-0.02,0.02-0.04c0.02-0.02,0.02-0.04,0.02-0.07
		s0-0.06,0.01-0.07c0.01-0.01,0.02-0.01,0.01-0.02s0-0.03,0.01-0.07c0.02-0.06,0.02-0.11,0.02-0.27c0-0.11,0-0.31,0.01-0.44
		c0.01-0.18,0.01-0.27,0-0.34c-0.01-0.05-0.01-0.16-0.02-0.23c-0.02-0.17-0.03-0.25-0.04-0.53c0-0.13,0-0.22-0.01-0.23
		c-0.01-0.01,0-0.06,0-0.12c0-0.09-0.01-0.11-0.03-0.14c-0.01-0.02-0.02-0.05-0.02-0.06s-0.02-0.05-0.04-0.09
		c-0.05-0.1-0.08-0.2-0.15-0.38c-0.03-0.08-0.04-0.13-0.05-0.14c-0.01-0.01-0.06-0.02-0.13-0.03c-0.12-0.02-0.14-0.02-0.45-0.02
		c-0.25,0-0.33,0-0.35-0.01c-0.01-0.01-0.02-0.01-0.03,0s-0.22-0.08-0.26-0.11c-0.02-0.01-0.04-0.02-0.05-0.02s-0.05-0.03-0.09-0.05
		c-0.04-0.03-0.07-0.04-0.08-0.04S22.22,3.06,22.2,3.1c-0.01,0.02-0.02,0.06-0.02,0.08c0,0.02,0,0.06-0.01,0.07
		c-0.01,0.01-0.02,0.07-0.03,0.14s-0.02,0.13-0.03,0.14c0,0.01-0.01,0.05-0.01,0.08s-0.03,0.13-0.04,0.2
		c-0.01,0.09-0.02,0.18-0.03,0.44c-0.01,0.32-0.02,0.53-0.04,0.64c-0.01,0.05-0.01,0.09,0.02,0.23c0.02,0.09,0.03,0.18,0.03,0.21
		c0,0.03,0.01,0.13,0.02,0.22c0.02,0.23,0,0.32-0.06,0.35l-0.03,0.03c-0.01,0.01-0.01,0.02-0.02,0.03
		c-0.01,0.01-0.01,0.03-0.03,0.05c-0.02,0.02-0.04,0.04-0.05,0.04c-0.01,0-0.02,0-0.03,0.01c-0.01,0.01-0.02,0.02-0.03,0.02
		c-0.03,0-0.11,0.02-0.16,0.04c-0.05,0.02-0.12,0.03-0.14,0.02c-0.02-0.01-0.11-0.02-0.21,0c-0.06,0.01-0.12,0.02-0.13,0.02
		c-0.05,0-0.22,0-0.23,0.01s-0.04,0-0.07,0c-0.03,0-0.09,0-0.13,0.01c-0.09,0.02-0.23,0.04-0.43,0.05
		c-0.22,0.01-0.52,0.01-0.56-0.01c-0.02-0.01-0.13-0.02-0.38-0.02c-0.45-0.01-0.51-0.02-0.6-0.04c-0.04-0.02-0.09-0.03-0.11-0.03
		c-0.03,0-0.13-0.03-0.14-0.04c-0.01-0.01-0.02-0.01-0.03-0.01c-0.01,0-0.04-0.02-0.07-0.03c-0.07-0.03-0.16-0.11-0.19-0.18
		c-0.01-0.03-0.03-0.09-0.05-0.12c-0.02-0.03-0.03-0.09-0.03-0.12c-0.01-0.06-0.02-0.07-0.05-0.09c-0.03-0.02-0.03-0.02-0.02-0.05
		c0-0.02,0.01-0.05,0.02-0.06c0.04-0.06,0.04-0.21,0.01-0.27c-0.01-0.02-0.01-0.05,0.02-0.13c0.03-0.07,0.05-0.16,0.06-0.23
		c0.01-0.05,0.08-0.22,0.12-0.27l0.05-0.06L18.35,4.3c-0.01-0.1-0.01-0.19-0.01-0.2c0-0.01,0-0.02,0.01-0.02
		c0.01,0-0.01-0.03-0.05-0.07c-0.04-0.04-0.08-0.09-0.1-0.11c-0.02-0.03-0.03-0.05-0.04-0.05c-0.01,0-0.01-0.02-0.01-0.03
		c0-0.02-0.02-0.07-0.03-0.1c0-0.01-0.01-0.03-0.01-0.04s0-0.03-0.01-0.03c-0.01-0.01-0.01-0.01-0.01-0.03c0-0.02,0-0.05-0.01-0.06
		c-0.02-0.03-0.06-0.17-0.07-0.27c0-0.04-0.01-0.08-0.02-0.09c-0.02-0.03-0.02-0.06,0-0.08C18,3.1,18,3.08,17.99,3
		c-0.01-0.05-0.03-0.09-0.03-0.1c0-0.01-0.01-0.05-0.01-0.1c-0.01-0.14,0-0.22-0.01-0.24c0-0.01-0.01-0.02,0-0.02
		c0.01,0,0.01-0.06,0.02-0.12c0.01-0.09,0.01-0.13,0-0.16c-0.01-0.04-0.01-0.05,0.01-0.06c0.02-0.01,0.02-0.01,0-0.03
		c-0.02-0.02-0.01-0.02,0-0.11c0.02-0.11,0.02-0.16,0-0.21c-0.01-0.02-0.02-0.04-0.01-0.05c0.01,0,0.01-0.01,0.01-0.03
		c0-0.02-0.01-0.04-0.02-0.04c-0.02-0.01-0.02-0.01,0-0.02c0.01,0,0.01-0.02,0.01-0.04c0-0.01-0.01-0.03,0-0.04
		c0.01-0.02,0.01-0.03-0.01-0.04c-0.01,0-0.01-0.02,0.05-0.19c0.06-0.18,0.07-0.2,0.1-0.22c0.06-0.05,0.07-0.05,0.1-0.02
		c0.02,0.02,0.03,0.03,0.05,0.02s0.03-0.01,0.06,0.02c0.02,0.02,0.04,0.03,0.05,0.03c0.01,0,0.02,0.02,0.03,0.03
		c0.01,0.01,0.05,0.03,0.07,0.04s0.04,0.02,0.04,0.03c0,0.01,0.01,0.02,0.02,0.02c0.01,0,0.03,0.02,0.03,0.03
		c0.01,0.02,0.04,0.04,0.06,0.03c0.01,0,0.03,0,0.05,0.01c0.04,0.02,0.12,0.02,0.14,0c0.01-0.01,0.02-0.01,0.03-0.01
		c0.01,0,0.05,0,0.07-0.01c0.2-0.06,0.38-0.13,0.41-0.14c0.02-0.01,0.06-0.02,0.08-0.03c0.03-0.01,0.12-0.04,0.2-0.07
		c0.08-0.03,0.2-0.07,0.26-0.09C20.1,1,20.14,0.98,20.2,0.95c0.03-0.02,0.08-0.03,0.1-0.03c0.02,0,0.05-0.01,0.08-0.02
		c0.03-0.01,0.05-0.02,0.06-0.02s0.04,0,0.06-0.01C20.53,0.85,20.56,0.85,20.61,0.85z M19.78,1.77c-0.02,0.01-0.13,0.07-0.23,0.12
		c-0.21,0.1-0.35,0.19-0.43,0.27c-0.07,0.07-0.2,0.25-0.19,0.28c0,0.01,0.01,0.03-0.01,0.05c-0.02,0.02-0.02,0.02-0.01,0.14
		c0.01,0.06,0.01,0.11,0.01,0.12c0.01,0.01,0.01,0,0.03,0s0.03-0.01,0.04-0.02c0.01-0.02,0.02-0.02,0.05-0.02h0.05
		c0.04-0.02,0.13-0.04,0.14-0.04s0.03,0,0.06-0.01s0.06-0.02,0.07-0.01c0.01,0,0.03,0.01,0.04,0c0.01-0.01,0.03-0.01,0.04-0.01
		c0.01,0,0.03,0,0.04-0.01c0.01-0.01,0.04-0.03,0.07-0.04c0.03-0.01,0.08-0.03,0.09-0.04c0.01-0.01,0.02-0.03,0.03-0.02
		c0.01,0,0.02,0.01,0.03,0c0.02-0.01,0.01-0.04,0.02-0.13c0-0.06,0.02-0.12,0.02-0.13s0-0.02-0.01-0.03c-0.01-0.02-0.01-0.03,0-0.04
		c0.01-0.01,0.02-0.05,0.02-0.11c0.01-0.1,0.04-0.24,0.07-0.27c0.01-0.01,0.02-0.02,0.02-0.04C19.85,1.75,19.84,1.74,19.78,1.77z
		 M19.14,3.34c-0.06-0.01-0.06-0.01-0.09,0.01l-0.03,0.02l-0.01,0.19C19,3.73,19,3.87,18.98,3.94c0,0.02,0,0.03,0.01,0.03
		c0.01,0,0.02,0,0.03,0.01c0.01,0.01,0.04,0.06,0.08,0.12c0.1,0.16,0.15,0.19,0.22,0.16c0.03-0.01,0.04-0.01,0.06,0
		c0.02,0.01,0.03,0.01,0.06,0c0.01,0,0.1-0.02,0.17-0.03c0.16-0.02,0.17-0.04,0.17-0.07c0-0.05-0.02-0.09-0.04-0.12
		C19.72,4,19.69,3.88,19.69,3.83c0-0.03,0-0.06-0.01-0.06c-0.01,0-0.01-0.01-0.01-0.02c0-0.01,0-0.05-0.01-0.09
		c-0.01-0.05-0.02-0.11-0.02-0.16c0-0.05,0-0.1-0.01-0.12l-0.01-0.03L19.6,3.38c-0.01,0.02-0.03,0.03-0.04,0.03
		c-0.01,0-0.02-0.01-0.04,0c-0.04,0.02-0.07,0.02-0.07,0c0-0.02-0.01-0.02-0.07-0.02c-0.04,0-0.06-0.02-0.08-0.04
		c-0.02-0.03-0.06-0.03-0.08-0.01C19.21,3.35,19.18,3.35,19.14,3.34z M20.49,1.48c-0.23,0.08-0.38,0.15-0.44,0.18l-0.03,0.01
		l0.04,0.09c0.02,0.05,0.05,0.1,0.05,0.13s0.02,0.07,0.03,0.09c0.01,0.02,0.02,0.05,0.03,0.07c0.01,0.02,0.02,0.07,0.04,0.11
		c0.03,0.07,0.03,0.08,0.02,0.09c-0.01,0.01-0.01,0.01,0.01,0.05c0.01,0.02,0.02,0.04,0.03,0.05c0.01,0.01,0.21-0.01,0.22-0.02
		c0.01,0,0.03-0.01,0.04-0.01c0.06-0.01,0.16-0.01,0.19-0.01c0.05,0,0.16,0.01,0.17,0.02c0.02,0.01,0.11,0.04,0.15,0.04
		c0.01,0,0.03,0,0.04,0.01c0.01,0.01,0.05,0.03,0.09,0.04s0.09,0.03,0.11,0.05c0.02,0.01,0.08,0.05,0.11,0.07
		c0.03,0.02,0.06,0.04,0.06,0.05s0.03,0.04,0.05,0.07c0.02,0.03,0.05,0.07,0.06,0.09c0.01,0.02,0.02,0.05,0.03,0.06
		c0.02,0.02,0.02,0.02,0.02-0.01c0-0.02,0.01-0.04,0.02-0.05s0.01-0.02,0-0.05c-0.01-0.02,0-0.07,0-0.11
		c0.01-0.1-0.01-0.17-0.07-0.23c-0.02-0.02-0.07-0.07-0.11-0.12c-0.15-0.19-0.2-0.25-0.22-0.26c-0.01,0-0.03-0.02-0.04-0.04
		c-0.01-0.02-0.03-0.04-0.04-0.05s-0.02-0.02-0.02-0.03s-0.01-0.02-0.02-0.02s-0.03-0.02-0.04-0.04c-0.04-0.06-0.18-0.21-0.2-0.21
		c-0.01,0-0.03-0.01-0.03-0.02c0-0.01-0.04-0.03-0.1-0.06C20.62,1.45,20.59,1.44,20.49,1.48z M21.58,3c0-0.02-0.01-0.03-0.01-0.02
		c0,0.02-0.03,0.06-0.1,0.09c-0.05,0.02-0.07,0.02-0.16,0.02c-0.07,0-0.13,0.02-0.19,0.03c-0.05,0.01-0.08,0.01-0.09,0.01
		C21.02,3.12,21,3.14,20.97,3.16c-0.03,0.02-0.1,0.04-0.15,0.06c-0.08,0.03-0.1,0.03-0.11,0.03c-0.02-0.01-0.03-0.02-0.04-0.01
		c-0.01,0.01-0.04,0.03-0.08,0.05c-0.06,0.03-0.06,0.03-0.08,0.09c-0.01,0.03-0.02,0.09-0.02,0.13s0,0.06-0.01,0.08
		c-0.01,0.01-0.02,0.08-0.03,0.14c-0.01,0.06-0.02,0.12-0.03,0.14c-0.04,0.15-0.06,0.27-0.05,0.27c0.02,0,0.33-0.05,0.4-0.06
		c0.12-0.02,0.31-0.06,0.39-0.09s0.15-0.08,0.17-0.14c0.01-0.02,0.02-0.06,0.03-0.08c0.03-0.04,0.11-0.25,0.12-0.32
		c0-0.03,0.01-0.07,0.01-0.08c0-0.01,0.02-0.05,0.03-0.1c0.01-0.05,0.03-0.12,0.04-0.16C21.57,3.07,21.58,3.02,21.58,3z"/>
	<path class="st0" d="M32.73,8.38c-0.01,0.06-0.02,0.07-0.06,0.11c-0.05,0.04-0.06,0.04-0.1,0.04c-0.03,0-0.05,0.01-0.06,0.01
		s-0.02,0-0.05-0.01c-0.02-0.01-0.05-0.01-0.07-0.01c-0.02,0-0.03,0-0.04-0.01c-0.02-0.02-0.08-0.04-0.1-0.03
		c-0.01,0-0.02,0-0.03-0.02c-0.01-0.02-0.01-0.02-0.1-0.02c-0.06,0-0.1,0.01-0.11,0.01c-0.01,0-0.02,0.01-0.05,0
		c-0.03-0.01-0.12-0.02-0.3-0.01c-0.02,0-0.07,0.01-0.11,0.02c-0.04,0.01-0.09,0.01-0.11,0.01s-0.04,0.01-0.05,0.01h-0.02
		c-0.01,0-0.01-0.01-0.05,0c-0.02,0.01-0.07,0.01-0.1,0.01S31.15,8.5,31.14,8.5L31.12,8.5L31.09,8.5c-0.01,0-0.31,0.05-0.38,0.05
		c-0.04,0-0.06,0.02-0.07,0.02s-0.02,0.01-0.04,0.01c-0.02,0-0.05,0.01-0.07,0.02c-0.02,0.01-0.07,0.01-0.11,0.01
		s-0.12,0.01-0.18,0.02c-0.06,0.01-0.19,0.03-0.22,0.03c-0.64,0.02-0.89,0.01-1-0.03C29,8.62,28.97,8.62,28.96,8.62
		S28.92,8.62,28.9,8.6c-0.05-0.03-0.15-0.05-0.17-0.04l-0.04-0.01c-0.01,0-0.05-0.02-0.1-0.02s-0.08-0.01-0.1-0.02
		c-0.04-0.03-0.14-0.05-0.16-0.04c-0.01,0-0.02,0-0.06-0.01l-0.06-0.02c-0.01,0-0.02-0.01-0.04-0.01c-0.02,0-0.04-0.02-0.06-0.04
		c-0.02-0.02-0.06-0.03-0.08-0.04c-0.02-0.01-0.06-0.04-0.08-0.05c-0.02-0.02-0.04-0.04-0.06-0.05c-0.02-0.01-0.03-0.03-0.04-0.04
		L27.82,8.2c-0.01-0.01-0.02-0.01-0.02-0.03c0-0.02,0-0.03-0.03-0.04s-0.04-0.02-0.04-0.04c-0.01-0.07-0.03-0.12-0.09-0.16
		c-0.05-0.04-0.06-0.05-0.07-0.08c-0.01-0.03-0.02-0.06-0.03-0.07c-0.01-0.01-0.03-0.04-0.04-0.07c-0.01-0.03-0.04-0.05-0.04-0.06
		V7.61c0.01-0.02,0-0.02-0.01-0.02c-0.01,0-0.02-0.01-0.02-0.03c0-0.02,0-0.05-0.01-0.07c-0.01-0.02-0.02-0.05-0.02-0.07
		c0-0.02-0.01-0.03-0.01-0.04c0-0.01-0.01-0.03,0-0.05c0.01-0.03,0.01-0.04-0.01-0.05c-0.01,0-0.02-0.04-0.03-0.07
		c-0.01-0.03-0.03-0.05-0.03-0.06l-0.01-0.04V6.99c0-0.06-0.02-0.11-0.02-0.12V6.83L27.28,6.8V6.78c0-0.01,0.02-0.12,0.02-0.18
		c0-0.02,0.02-0.06,0.03-0.08c0.01-0.02,0.02-0.04,0.02-0.05l0.01-0.03l0.02-0.03c0.01-0.02,0.02-0.05,0.03-0.05
		c0.02-0.01,0.03-0.01,0.02,0.02c0,0.02-0.02,0.03-0.02,0.05v0.03l0.02-0.02l0.04-0.01l0.01-0.02c0-0.02,0.02-0.02,0.03,0
		c0.01,0.03,0.04,0.04,0.08,0.01c0.03-0.01,0.05-0.02,0.18-0.02c0.16,0,0.21-0.01,0.25-0.04c0.02-0.02,0.03-0.01,0.04-0.01
		s0.02,0,0.04-0.01l0.05-0.02l0.03-0.02l0.06-0.02c0.01-0.02,0.03-0.02,0.03,0h0.02c0.01,0,0.04-0.01,0.08-0.01
		c0.05,0,0.07,0,0.1-0.02c0.03-0.02,0.05-0.02,0.07-0.01s0.05,0,0.11-0.03l0.1-0.05c0.01,0,0.05-0.03,0.08-0.04
		c0.07-0.03,0.25-0.14,0.26-0.17c0-0.01,0.03-0.03,0.06-0.03c0.07-0.03,0.16-0.11,0.17-0.15c0-0.02,0.01-0.05,0.02-0.06
		c0.02-0.03,0.02-0.04,0.01-0.06l-0.02-0.03l0.07-0.05c0.04-0.03,0.07-0.05,0.07-0.06l0.04-0.08c0-0.01,0.01-0.01,0.03-0.02
		c0.06-0.04,0.14-0.15,0.12-0.18l0.02-0.01c0.02,0.01,0.02,0.01,0.03-0.03c0-0.02,0.02-0.06,0.02-0.07l0.01-0.03
		c0-0.06,0.06-0.17,0.08-0.15c0.01,0.02,0.06-0.02,0.07-0.06c0.01-0.04,0.02-0.04,0.04-0.01l-0.02,0.01V4.9
		c0,0.01,0.01,0.01,0.01,0.03c0,0.01-0.01,0.03-0.01,0.05c0,0.02-0.02,0.07-0.04,0.1l0.04-0.05c0.01-0.01,0.02-0.03,0.03-0.05
		c0.04-0.05,0.07-0.14,0.07-0.16l0.01-0.02c0-0.01,0.08-0.13,0.09-0.17h0.02c0.01,0,0.02,0,0.03-0.02c0.01-0.03,0.01-0.04,0-0.04
		c-0.02,0-0.01-0.05,0.02-0.12c0.02-0.05,0.02-0.06,0.01-0.08c-0.01-0.02-0.02-0.02-0.03-0.03c-0.01-0.01-0.01-0.01,0-0.04
		c0.01-0.02,0.02-0.04,0-0.04l0.02-0.05c0-0.01,0.01-0.06,0.03-0.1c0.03-0.08,0.02-0.11,0.02-0.12s-0.01-0.02,0.01-0.06
		c0.02-0.03,0.04-0.08,0.04-0.1c0-0.02,0.01-0.05,0.02-0.07c0.01-0.03,0.04-0.19,0.07-0.31l0.02-0.04c0-0.01,0.02-0.09,0.03-0.17
		c0.02-0.11,0.02-0.17,0.02-0.25c0-0.05-0.01-0.11-0.01-0.13c0-0.02-0.01-0.06-0.02-0.09c-0.01-0.03,0-0.06,0-0.07
		c0.01-0.02,0-0.04-0.02-0.06c-0.01-0.02-0.02-0.04-0.03-0.05c-0.01-0.01-0.03-0.04-0.05-0.05c-0.03-0.02-0.04-0.04-0.04-0.05
		c0-0.02,0-0.03-0.03-0.05C30.22,2.42,30.2,2.4,30.2,2.39c0-0.02,0-0.03-0.03-0.01c-0.02,0.01-0.02,0.01-0.03,0
		c-0.01-0.01-0.04-0.03-0.08-0.04c-0.04-0.01-0.09-0.04-0.12-0.06c-0.04-0.03-0.04-0.03-0.08-0.02c-0.03,0.01-0.04,0.01-0.06-0.01
		c-0.02-0.02-0.04-0.02-0.09-0.02c-0.03,0-0.09,0-0.13-0.01h-0.09l-0.03,0.02c-0.01,0.01-0.18,0-0.2-0.01c-0.01,0-0.02,0-0.04,0.01
		c-0.02,0.01-0.04,0.01-0.05,0.01s-0.04-0.01-0.12-0.01c-0.11,0-0.13,0.01-0.17,0.03c-0.03,0.02-0.07,0.03-0.11,0.03
		c-0.05,0-0.07,0.01-0.09,0.04c-0.01,0.02-0.04,0.02-0.04,0.03l-0.01,0.02c0,0.01-0.02,0.04-0.04,0.06
		c-0.02,0.02-0.03,0.04-0.03,0.05s-0.01,0.05-0.03,0.1c-0.02,0.06-0.03,0.09-0.04,0.23c-0.01,0.15,0,0.33,0.02,0.36v0.12
		c-0.01,0.09-0.02,0.11-0.04,0.15c-0.02,0.02-0.04,0.05-0.04,0.06c-0.03,0.06-0.23,0.24-0.29,0.27c-0.02,0.01-0.02,0.01-0.03,0.02
		c-0.04,0.04-0.04,0.04-0.12,0.02c-0.13-0.04-0.16-0.08-0.14-0.19c0.01-0.04,0.02-0.12,0.02-0.17s0-0.1,0.01-0.12
		c0.01-0.02,0-0.04,0-0.05s-0.01-0.08-0.01-0.13V2.68c0-0.01-0.01-0.03-0.01-0.06c0.01-0.05,0.02-0.17,0.02-0.24
		c0-0.02,0.02-0.04,0.02-0.05s0.01-0.02,0.01-0.04V2.2c0.01-0.03,0.01-0.07,0.01-0.09c0-0.07,0.02-0.13,0.04-0.16
		c0.02-0.04,0.02-0.07,0-0.1V1.82l0.02-0.04L28,1.75c0.02,0,0.02-0.01,0.02-0.03c0-0.02,0.02-0.05,0.02-0.06
		c0.01-0.02,0-0.04,0-0.05l0.01-0.02c0-0.01,0.02-0.04,0.03-0.07c0.01-0.04,0.02-0.05,0.03-0.05c0.02,0,0.02,0,0.01-0.02
		c-0.01-0.02-0.01-0.02,0.02-0.05c0.02-0.02,0.02-0.05,0.03-0.05c0.01,0,0.07-0.04,0.09-0.04c0.01,0,0.01-0.01,0.02-0.03
		c0.01-0.03,0.1-0.11,0.13-0.11c0.02,0,0.04-0.04,0.04-0.05s0-0.02,0.02-0.03c0.02-0.01,0.04-0.03,0.05-0.04l0.02-0.02l0.02-0.01
		c0.01,0,0.04-0.03,0.08-0.05c0.06-0.03,0.07-0.04,0.07-0.06c0-0.02,0-0.03,0.02-0.02h0.03l0.04-0.02c0.02,0,0.04-0.01,0.05-0.02
		l0.03-0.02c0.01-0.01,0.03-0.01,0.05-0.02c0.02-0.01,0.04-0.01,0.05-0.02c0.01-0.01,0.03-0.01,0.04-0.02
		c0.03-0.02,0.05-0.03,0.15-0.04c0.06,0,0.14-0.01,0.16-0.01h0.09l0.02,0.01h0.02c0.01,0,0.1,0.02,0.12,0.01h0.02
		c0.01,0,0.01,0.01,0.03,0.01l0.02,0.01c0.01,0,0.01,0.01,0.03,0.01c0.02,0,0.04,0.01,0.06,0.02c0.02,0.01,0.04,0,0.06,0l0.02,0.02
		l0.03,0.01l0.02,0.02c0.01,0.01,0.03,0,0.05,0.02c0.02,0.02,0.05,0.03,0.06,0.03s0.05,0.02,0.08,0.04
		c0.03,0.02,0.07,0.03,0.08,0.04c0.01,0.01,0.03,0.02,0.05,0.04c0.08,0.06,0.13,0.11,0.14,0.11s0.03,0.01,0.06,0.03
		c0.03,0.02,0.06,0.03,0.07,0.03l0.05,0.02l0.06,0.03c0.01,0,0.03,0.02,0.06,0.03s0.06,0.01,0.07,0.02
		c0.01,0.01,0.04,0.03,0.07,0.04c0.03,0.01,0.05,0.04,0.06,0.04c0.02,0.01,0.28,0.13,0.34,0.15c0.11,0.05,0.19,0.09,0.21,0.12
		c0.01,0.02,0.03,0.03,0.04,0.03c0.01,0,0.06,0.02,0.09,0.05c0.03,0.03,0.07,0.06,0.09,0.07c0.02,0.01,0.03,0.01,0.03,0.02
		s0.02,0.04,0.05,0.07c0.01,0.02,0.06,0.08,0.08,0.11C31.8,2.04,31.9,2.3,31.9,2.33c0,0.01,0.01,0.05,0.02,0.07
		c0.02,0.03,0.01,0.04-0.01,0.06c-0.01,0.01-0.02,0.03-0.03,0.3c0,0.16,0,0.31-0.01,0.34c-0.01,0.03,0,0.06,0,0.07s0.01,0.04,0,0.08
		c-0.01,0.03-0.01,0.11-0.01,0.19c0,0.09,0,0.14-0.01,0.17c-0.01,0.02-0.02,0.08-0.03,0.14c-0.02,0.11-0.11,0.38-0.15,0.45
		l-0.05,0.11c-0.01,0.04-0.03,0.08-0.04,0.1c-0.01,0.02-0.01,0.03-0.01,0.04s-0.01,0.03-0.03,0.05c-0.04,0.04-0.08,0.13-0.1,0.22
		c-0.01,0.04-0.03,0.09-0.05,0.12c-0.02,0.02-0.03,0.05-0.04,0.06c-0.01,0.01-0.02,0.03-0.04,0.04c-0.02,0.02-0.02,0.03-0.02,0.04
		S31.3,5,31.3,5.05s-0.02,0.07-0.03,0.08s-0.02,0.03-0.02,0.06s-0.02,0.07-0.03,0.08L31.2,5.3c0,0.03-0.03,0.07-0.06,0.09
		c0.02,0,0.02,0.04,0,0.06l-0.02,0.03c-0.01,0.01,0,0.03-0.01,0.05c-0.01,0.02-0.02,0.05-0.02,0.07c0,0.01,0,0.04-0.01,0.06
		c-0.03,0.1-0.04,0.18-0.05,0.44c-0.01,0.23-0.02,0.29-0.02,0.3l-0.02,0.04l-0.01,0.05c0,0.01-0.02,0.02-0.02,0.04
		c0,0.06-0.04,0.13-0.08,0.12c-0.01,0-0.03,0.01-0.06,0.04c-0.04,0.04-0.04,0.04-0.13,0.05c-0.09,0.01-0.19,0.03-0.21,0.05
		L30.44,6.8l-0.03,0.01c-0.01,0-0.04,0.03-0.08,0.05c-0.11,0.04-0.15,0.09-0.16,0.09l-0.03,0.01c-0.01,0-0.03,0.02-0.05,0.03
		c-0.1,0.06-0.34,0.18-0.36,0.18c-0.03,0-0.05,0.01-0.11,0.06c-0.03,0.02-0.08,0.04-0.14,0.06c-0.06,0.01-0.11,0.03-0.15,0.06
		c-0.04,0.02-0.08,0.04-0.1,0.04c-0.02,0-0.05,0.02-0.06,0.02l-0.04,0.02c-0.01,0-0.05,0.01-0.08,0.03C29,7.48,28.99,7.49,29,7.51
		c0.01,0.04,0.03,0.06,0.08,0.08c0.03,0.01,0.05,0.03,0.07,0.05c0.02,0.02,0.04,0.04,0.05,0.04c0.01,0,0.05,0.02,0.08,0.05
		c0.05,0.04,0.07,0.05,0.09,0.05c0.02,0,0.05,0.01,0.06,0.02l0.03,0.02c0.01,0.01,0.03,0,0.06,0.01c0.13,0.04,0.3,0.05,0.56,0.05
		c0.29,0,0.31,0,0.45-0.01c0.03,0,0.24-0.03,0.41-0.05c0.4-0.05,0.5-0.07,0.5-0.08l0.01-0.02c0.02-0.02,0.04-0.02,0.05-0.04
		c0.01-0.02,0.05-0.06,0.08-0.08l0.06-0.04l0.06-0.03c0.02-0.01,0.04-0.02,0.05-0.02s0.03,0,0.05-0.01c0.05-0.02,0.12-0.03,0.2-0.01
		h0.09c0.02-0.01,0.05-0.01,0.11-0.01c0.07,0,0.09,0.02,0.1,0.02s0.03,0.01,0.06,0.01c0.03,0,0.05,0,0.06,0.01s0.03,0.03,0.05,0.03
		c0.05,0.01,0.11,0.06,0.1,0.08c0,0.01,0.01,0.03,0.04,0.06c0.02,0.02,0.05,0.05,0.06,0.07c0.01,0.02,0.02,0.03,0.03,0.04
		c0.01,0.01,0.01,0.01,0.01,0.03v0.04c0,0.01,0.02,0.11,0,0.13l0.01,0.03c0,0.01,0.01,0.02,0.01,0.04V8.38z M29.84,4.85L29.83,4.9
		c0,0.03-0.03,0.04-0.03,0.01c0-0.01,0.01-0.03,0.02-0.05c0.01-0.02,0.03-0.05,0.03-0.04L29.84,4.85z"/>
</g>
</svg>
