<?xml version="1.0" encoding="utf-8"?>
<!-- Generator: Adobe Illustrator 25.0.0, SVG Export Plug-In . SVG Version: 6.00 Build 0)  -->
<svg version="1.1" id="Layer_1" xmlns="http://www.w3.org/2000/svg" xmlns:xlink="http://www.w3.org/1999/xlink" x="0px" y="0px"
	 viewBox="0 0 33.46 9.06" style="enable-background:new 0 0 33.46 9.06;" xml:space="preserve">
<style type="text/css">
	.st0{fill:#9E5C4C;}
</style>
<g>
	<path class="st0" d="M4.09,0.07c0.01,0,0.08,0.05,0.12,0.08c0.03,0.02,0.05,0.04,0.06,0.04c0.01,0,0.03,0.02,0.06,0.05
		C4.37,0.28,4.39,0.3,4.39,0.33c0.01,0.03,0,0.03,0.02,0.03c0.02-0.01,0.02,0.01,0.02,0.05c0,0.03,0.01,0.05,0.04,0.09
		C4.5,0.53,4.51,0.55,4.5,0.56C4.49,0.58,4.48,0.65,4.49,0.64C4.5,0.63,4.51,0.66,4.52,0.69c0.01,0.05,0.01,0.07,0,0.08
		C4.51,0.78,4.51,0.79,4.53,0.81c0.02,0.02,0.03,0.03,0.01,0.07C4.53,0.9,4.53,0.92,4.56,0.98c0.01,0.01,0,0.03,0,0.05
		c0,0.02,0,0.04,0.01,0.04c0.01,0,0,0.03,0,0.07C4.56,1.21,4.58,1.31,4.61,1.36C4.62,1.38,4.63,1.39,4.62,1.4
		C4.61,1.41,4.61,1.43,4.61,1.45c0,0.02-0.01,0.05-0.02,0.05C4.57,1.51,4.58,1.58,4.6,1.61c0.01,0.02,0.02,0.04,0.01,0.05
		c-0.02,0.02,0,0.08,0.02,0.08c0.01,0,0.02-0.01,0.03,0c0.01,0,0.1,0.01,0.2,0.01c0.15,0,0.18,0.01,0.21,0.02
		c0.02,0.01,0.05,0.02,0.07,0.02s0.05,0,0.06,0.01c0.01,0.01,0.03,0.02,0.03,0.01c0.01-0.01,0.06-0.01,0.07,0
		c0,0.01,0.02,0.01,0.03,0.01C5.36,1.81,5.48,1.83,5.5,1.84c0.01,0.01,0.02,0.01,0.2,0.03c0.05,0,0.13,0.01,0.16,0.02
		s0.08,0.02,0.11,0.02c0.03,0,0.05,0.01,0.07,0.02c0.02,0.01,0.04,0,0.05,0c0.01,0,0.04,0,0.07,0.01s0.07,0.02,0.08,0.02h0.08
		c0.01-0.01,0.03-0.01,0.04,0C6.37,1.97,6.41,1.99,6.45,2c0.04,0.01,0.08,0.02,0.1,0.03s0.07,0.01,0.11,0.01
		c0.05,0,0.08,0.01,0.1,0.02s0.06,0.02,0.09,0.02c0.03,0,0.08,0.02,0.16,0.06c0.06,0.03,0.11,0.05,0.12,0.05
		c0.01,0,0.05,0.02,0.08,0.04c0.03,0.02,0.06,0.04,0.07,0.04c0.01,0,0.04,0.03,0.07,0.06c0.03,0.03,0.06,0.06,0.07,0.06
		c0.01,0,0.05,0.03,0.09,0.07s0.07,0.07,0.08,0.07c0.01,0,0.04,0.03,0.09,0.08C7.7,2.63,7.74,2.65,7.75,2.66
		C7.78,2.67,7.94,2.88,7.94,2.9c0,0.01,0.01,0.04,0.02,0.06C7.98,3,7.99,3.02,7.98,3.12C7.98,3.19,7.99,3.3,8,3.31
		c0.01,0.01,0.01,0.02-0.01,0.04C7.98,3.36,7.96,3.39,7.96,3.41c0,0.02,0,0.05-0.01,0.06V3.5c0,0.01,0,0.02-0.01,0.02
		C7.93,3.53,7.93,3.54,7.93,3.55c0,0.01-0.01,0.03-0.03,0.06C7.88,3.65,7.87,3.66,7.85,3.66S7.83,3.67,7.83,3.69
		c0.01,0.03,0.01,0.05,0,0.06C7.82,3.76,7.81,3.77,7.81,3.78c0,0.02-0.02,0.04-0.1,0.05C7.62,3.84,7.59,3.84,7.55,3.82
		c-0.03-0.01-0.03-0.01-0.04,0c-0.01,0.01-0.04,0.01-0.11,0c-0.14-0.02-0.77-0.02-0.81,0c-0.01,0-0.02,0.01-0.03,0
		C6.54,3.81,6.5,3.81,6.35,3.83C6.15,3.86,6.11,3.86,6,3.85H5.86c-0.03,0-0.09,0-0.12-0.01C5.71,3.83,5.67,3.82,5.66,3.82
		c-0.01,0-0.03-0.01-0.05-0.02c-0.03-0.02-0.13-0.02-0.25,0c-0.04,0.01-0.1,0.01-0.11,0.01c-0.01,0-0.03,0.01-0.04,0.01
		c-0.01,0-0.02,0.01-0.03,0.02C5.16,3.86,5.16,3.87,5.16,3.96c0,0.07,0.01,0.11,0.02,0.13C5.19,4.11,5.2,4.14,5.19,4.18v0.06
		c0.01,0.01,0.02,0.05,0.03,0.1s0.04,0.11,0.06,0.14c0.06,0.11,0.12,0.2,0.13,0.21C5.42,4.7,5.43,4.71,5.43,4.72
		s0.01,0.02,0.02,0.02C5.46,4.76,5.49,4.78,5.51,4.8c0.02,0.02,0.04,0.04,0.04,0.05c0,0.02,0.09,0.12,0.11,0.13
		c0.03,0.01,0.07,0.08,0.06,0.1c0,0.01,0.01,0.03,0.03,0.05c0.02,0.01,0.06,0.06,0.09,0.11c0.03,0.04,0.07,0.1,0.1,0.13
		C5.97,5.4,6,5.43,6.01,5.45C6.02,5.47,6.04,5.5,6.06,5.51C6.08,5.52,6.1,5.54,6.1,5.55c0,0.01,0.01,0.02,0.02,0.02
		c0.01,0,0.01,0.01,0.01,0.02c0,0.01,0.01,0.02,0.02,0.02c0.01,0,0.03,0.03,0.04,0.05C6.2,5.68,6.25,5.73,6.28,5.77
		C6.31,5.8,6.34,5.83,6.34,5.84c0,0.01,0.09,0.11,0.12,0.13C6.48,5.98,6.49,5.99,6.49,6s0.05,0.06,0.12,0.13l0.26,0.26
		c0.08,0.08,0.14,0.14,0.15,0.14h0.05c0.01,0,0.04,0,0.06-0.01c0.05-0.02,0.08-0.02,0.1,0c0.02,0.01,0.02,0.01,0.03,0
		C7.27,6.51,7.3,6.51,7.35,6.51c0.05,0,0.07-0.01,0.11-0.04c0.05-0.04,0.06-0.04,0.11-0.01C7.6,6.47,7.61,6.49,7.63,6.53l0.03,0.05
		L7.64,6.66L7.61,6.74l0.04,0.08c0.02,0.04,0.06,0.09,0.08,0.11c0.02,0.02,0.04,0.05,0.04,0.08c0,0.02,0.01,0.04,0.02,0.04
		c0.02,0.01,0.06,0.07,0.06,0.1c0,0.01,0.01,0.03,0.01,0.04c0.01,0,0.02,0.03,0.03,0.06C7.9,7.28,7.92,7.32,7.93,7.33
		s0.03,0.04,0.03,0.05c0,0.01,0.02,0.03,0.03,0.05C8,7.45,8.02,7.49,8.03,7.53C8.04,7.57,8.05,7.6,8.06,7.61
		c0.01,0.01,0.02,0.03,0.02,0.04S8.09,7.69,8.1,7.71c0.01,0.02,0.02,0.05,0.02,0.06c0,0.01,0.01,0.04,0.02,0.05
		C8.18,7.86,8.2,7.91,8.2,7.98c0,0.04,0,0.09,0.01,0.13c0.01,0.04,0.02,0.07,0.02,0.08c0,0.01-0.01,0.06-0.01,0.11
		c0,0.07-0.01,0.09-0.02,0.09c-0.01,0-0.01,0.02-0.01,0.07v0.13c0,0.01,0,0.03-0.02,0.03c-0.01,0-0.04,0.04-0.08,0.07
		C8.05,8.72,8.01,8.75,8,8.76c-0.03,0.02-0.23,0.02-0.28,0C7.7,8.75,7.66,8.75,7.63,8.75c-0.06,0-0.19-0.05-0.2-0.08
		C7.42,8.65,7.35,8.61,7.32,8.61C7.31,8.61,7.3,8.6,7.3,8.59S7.28,8.57,7.27,8.57c-0.01,0-0.02-0.02-0.02-0.03
		c0-0.01-0.03-0.05-0.05-0.07S7.13,8.4,7.13,8.39s-0.04-0.07-0.06-0.1C7.05,8.26,7.03,8.24,7.03,8.23c0-0.04-0.06-0.22-0.09-0.26
		c-0.01-0.01,0-0.04,0-0.05c0.01-0.02,0-0.02-0.02-0.02S6.89,7.88,6.88,7.85C6.87,7.82,6.86,7.79,6.85,7.77
		C6.84,7.75,6.83,7.72,6.82,7.7C6.81,7.68,6.76,7.62,6.7,7.56C6.59,7.44,6.57,7.41,6.6,7.41c0.03,0,0.01-0.02-0.09-0.12
		C6.45,7.23,6.3,7.08,6.18,6.95C6.01,6.78,5.96,6.72,5.94,6.72c-0.01,0-0.04-0.02-0.07-0.05C5.85,6.64,5.81,6.6,5.78,6.58
		C5.75,6.56,5.71,6.52,5.68,6.5C5.65,6.48,5.61,6.45,5.59,6.44c-0.05-0.03-0.15-0.11-0.3-0.25C5.21,6.11,5.14,6.05,5.13,6.04
		c-0.01-0.01-0.07-0.06-0.12-0.1C4.75,5.72,4.71,5.68,4.7,5.67C4.69,5.65,4.68,5.64,4.67,5.64c-0.01,0-0.02,0.04-0.04,0.08
		C4.61,5.77,4.59,5.79,4.57,5.8c-0.01,0-0.02,0.01-0.02,0.02S4.53,5.84,4.5,5.87C4.47,5.9,4.44,5.94,4.43,5.97
		C4.4,6.02,4.33,6.12,4.3,6.16C4.28,6.18,4.26,6.21,4.26,6.22S4.23,6.27,4.21,6.29C4.19,6.31,4.15,6.36,4.13,6.4
		C4.11,6.44,4.08,6.47,4.07,6.48C4.06,6.49,4.06,6.5,4.06,6.51S4.04,6.53,4.02,6.56C4,6.58,3.98,6.61,3.98,6.62
		c0,0.01-0.01,0.02-0.02,0.04C3.95,6.68,3.93,6.71,3.93,6.72S3.92,6.74,3.91,6.75C3.87,6.78,3.79,6.9,3.7,7.05
		c-0.06,0.09-0.11,0.18-0.12,0.2C3.57,7.27,3.55,7.3,3.55,7.31S3.53,7.36,3.51,7.39C3.49,7.42,3.48,7.45,3.48,7.46
		c0,0.01-0.01,0.02-0.02,0.04C3.45,7.52,3.44,7.54,3.44,7.55c0,0.01-0.01,0.04-0.02,0.06c-0.01,0.02-0.04,0.06-0.05,0.1
		C3.35,7.77,3.34,7.79,3.31,7.8C3.26,7.82,3.24,7.84,3.24,7.87s-0.07,0.08-0.1,0.07c-0.01,0-0.03,0-0.03,0.01
		c-0.01,0.01-0.09,0.01-0.1,0C3,7.94,2.82,7.98,2.65,8.03C2.58,8.05,2.51,8.07,2.5,8.07c-0.02,0-0.2,0.06-0.23,0.08
		c-0.01,0-0.04,0.01-0.07,0.02C2.13,8.19,2.05,8.23,2.03,8.25C2.02,8.26,2.01,8.27,2,8.27c-0.02,0-0.07,0.02-0.09,0.04
		C1.9,8.32,1.89,8.33,1.88,8.33c-0.01,0-0.02,0.01-0.03,0.02C1.84,8.36,1.83,8.36,1.82,8.36c-0.01,0-0.02,0.01-0.03,0.03
		C1.78,8.41,1.77,8.42,1.76,8.42c-0.01,0-0.03,0-0.03-0.01c0-0.01-0.02,0-0.03,0C1.67,8.42,1.59,8.39,1.56,8.37
		C1.55,8.36,1.51,8.34,1.47,8.33c-0.11-0.04-0.16-0.06-0.2-0.09C1.21,8.21,1.13,8.19,1.09,8.19c-0.02,0-0.03-0.01-0.04-0.02
		C1.04,8.16,1.03,8.15,1.02,8.15c-0.02,0-0.1-0.12-0.1-0.14c0-0.02-0.03-0.06-0.06-0.09C0.84,7.9,0.83,7.88,0.82,7.86
		C0.81,7.84,0.79,7.81,0.77,7.78S0.74,7.72,0.74,7.71s0.01-0.02-0.01-0.02c-0.01,0-0.02-0.02-0.03-0.03
		C0.69,7.65,0.67,7.64,0.66,7.64c-0.01,0-0.04-0.02-0.06-0.04C0.55,7.56,0.55,7.53,0.58,7.44c0.01-0.03,0.01-0.07,0.01-0.09
		c0-0.02,0-0.05,0.01-0.07C0.61,7.25,0.61,7.03,0.6,7c0-0.01-0.01-0.03-0.01-0.04c0-0.01,0.01-0.02,0-0.03S0.57,6.89,0.57,6.85
		c-0.01-0.07-0.05-0.18-0.08-0.2C0.48,6.64,0.47,6.63,0.47,6.62c0-0.02-0.08-0.11-0.1-0.12C0.36,6.49,0.36,6.47,0.35,6.46
		c0-0.01-0.01-0.02-0.02-0.02c-0.01,0.01-0.03,0-0.07-0.01C0.23,6.42,0.17,6.4,0.16,6.4C0.04,6.38-0.05,6.24,0.03,6.19
		c0.03-0.02,0.04-0.02,0.14-0.02c0.06,0,0.12,0.01,0.11,0c-0.01-0.01,0.46-0.01,0.48,0c0.01,0,0.04,0.01,0.07,0.01
		c0.03,0,0.06,0.01,0.07,0.02c0.01,0.01,0.03,0.02,0.04,0.02c0.04,0.01,0.2,0.08,0.24,0.1C1.2,6.33,1.22,6.34,1.23,6.35
		C1.26,6.37,1.37,6.41,1.4,6.4c0.01,0,0.03,0,0.03,0.01c0.01,0.03,0.06,0.05,0.11,0.05c0.06,0,0.22-0.07,0.4-0.17
		C2,6.26,2.12,6.19,2.22,6.14c0.15-0.08,0.18-0.1,0.31-0.22c0.35-0.34,0.41-0.4,0.43-0.47c0-0.01,0.01-0.02,0.02-0.02S3,5.42,3,5.41
		C3,5.4,3.01,5.39,3.02,5.38c0.01-0.01,0.02-0.02,0.02-0.03s0.02-0.03,0.03-0.04c0.01-0.02,0.02-0.03,0.02-0.05
		c0-0.02,0.01-0.03,0.02-0.04C3.14,5.2,3.2,5.09,3.19,5.08c0-0.01,0.02-0.05,0.05-0.1c0.03-0.06,0.05-0.11,0.05-0.13
		c0-0.03,0.05-0.21,0.07-0.25c0.01-0.01,0.01-0.03,0.01-0.05V4.51C3.38,4.5,3.38,4.46,3.38,4.43c0.01-0.06,0.03-0.15,0.06-0.25
		c0.01-0.03,0.01-0.05,0-0.06c-0.01-0.01-0.01-0.02,0-0.03C3.46,4.04,3.47,3.91,3.46,3.9c-0.01-0.01-0.02-0.01-0.03,0
		C3.42,3.91,3.38,3.92,3.32,3.92c-0.05,0-0.11,0-0.13,0.01c-0.02,0.01-0.1,0.01-0.17,0.01c-0.08,0-0.13,0-0.13,0.01
		S2.86,3.97,2.75,3.97c-0.02,0-0.04,0.01-0.05,0.02C2.69,4,2.67,4,2.64,4S2.58,4,2.57,4.01c-0.02,0.01-0.02,0.01-0.03,0
		C2.53,3.99,2.49,4,2.48,4.02c0,0.01-0.02,0.01-0.04,0.01S2.39,4.04,2.38,4.05C2.37,4.06,2.36,4.06,2.33,4.03
		C2.3,4,2.29,4,2.26,4.01c-0.02,0-0.03,0.01-0.04,0C2.21,4,2.2,4.01,2.18,4.02c0-0.02,0-0.01-0.02,0.01L2.14,4.05L2.11,4.03
		L2.07,4.01L2.06,4.03C2.05,4.06,2.03,4.06,2.01,4.05C2,4.04,1.99,4.04,1.97,4.03c-0.02,0-0.04,0-0.06,0.01s-0.03,0.01-0.04,0
		C1.85,4.02,1.79,4.02,1.75,4.03s-0.05,0.01-0.05,0C1.69,4.02,1.68,4.01,1.68,3.99C1.67,3.99,1.67,4,1.66,4.01
		c-0.01,0.01-0.01,0.01-0.03,0C1.62,4,1.61,4,1.61,3.99c-0.02,0-0.03-0.01-0.04-0.02c-0.02-0.02-0.04-0.01-0.1-0.01
		c-0.05,0-0.07,0-0.08-0.01C1.38,3.94,1.37,3.94,1.36,3.94c-0.01,0-0.04-0.02-0.08-0.04C1.23,3.87,1.2,3.86,1.17,3.86
		c-0.02,0-0.04-0.01-0.05-0.02C1.11,3.82,1.06,3.81,0.95,3.79C0.91,3.78,0.86,3.77,0.83,3.76C0.8,3.75,0.76,3.74,0.74,3.74
		c-0.03-0.01-0.1-0.05-0.12-0.09C0.61,3.64,0.61,3.6,0.61,3.55c0-0.05,0-0.1-0.01-0.1C0.59,3.44,0.59,3.44,0.59,3.42
		c0-0.02,0-0.04-0.01-0.05c-0.02-0.02,0-0.05,0.03-0.07c0.02-0.01,0.03-0.03,0.03-0.04s0.01-0.02,0.03-0.03S0.7,3.22,0.7,3.21
		C0.73,3.2,0.81,3.15,0.81,3.13c0-0.01,0.01-0.02,0.02-0.02c0.01,0,0.02-0.02,0.02-0.03c0-0.02,0-0.02,0.02-0.02
		c0.01,0,0.03,0,0.03-0.01S0.94,3.02,0.99,3c0.05-0.02,0.08-0.04,0.08-0.05c0-0.01,0.02-0.01,0.05-0.02
		c0.04-0.01,0.05-0.01,0.07,0.01c0.02,0.01,0.03,0.02,0.03,0.01C1.23,2.93,1.27,2.91,1.34,2.9c0.03,0,0.07-0.01,0.08-0.02
		c0.02-0.01,0.04-0.04,0.05-0.04c0.01,0,0.05-0.01,0.08-0.03c0.03-0.02,0.08-0.03,0.09-0.03c0.01,0,0.03,0,0.04-0.01
		c0.01-0.01,0.03-0.01,0.06-0.02C1.77,2.74,1.8,2.72,1.82,2.71s0.05-0.03,0.07-0.03s0.05-0.01,0.06-0.02C1.97,2.65,2,2.64,2.03,2.63
		C2.06,2.62,2.14,2.59,2.2,2.56C2.27,2.53,2.34,2.5,2.35,2.5c0.02,0,0.04-0.01,0.05-0.02c0.01-0.01,0.03-0.01,0.04-0.01
		c0.01,0,0.05,0,0.08-0.02C2.55,2.43,2.61,2.41,2.65,2.4c0.04-0.01,0.1-0.04,0.13-0.05c0.03-0.02,0.07-0.03,0.09-0.03
		c0.03,0,0.05-0.02,0.06-0.03c0.01-0.01,0.03-0.01,0.05-0.01c0.02,0,0.05-0.01,0.08-0.03C3.09,2.23,3.15,2.21,3.2,2.2
		c0.05-0.02,0.09-0.03,0.1-0.04s0.06-0.03,0.11-0.04c0.06-0.01,0.12-0.03,0.14-0.04s0.06-0.03,0.08-0.03c0.02,0,0.03,0.01,0.04,0
		c0.01-0.01,0.01-0.04,0.02-0.09c0.01-0.07,0.01-0.08,0-0.1c-0.01-0.02,0-0.08,0.03-0.13c0.01-0.02,0.01-0.03,0-0.04
		c-0.01-0.01,0-0.03,0.01-0.05c0.01-0.03,0.01-0.04,0-0.07c-0.01-0.03-0.01-0.04,0-0.04c0.01,0,0.02-0.04,0.02-0.08
		c0-0.04,0-0.09,0.01-0.11c0.01-0.02,0.02-0.05,0.02-0.08s0-0.06,0.01-0.06C3.8,1.19,3.8,1.18,3.8,1.17s0.01-0.03,0.02-0.05
		c0.01-0.03,0.01-0.04,0-0.04c-0.01-0.01-0.01-0.01,0-0.04c0.01-0.02,0.01-0.06,0.01-0.08c0-0.03,0-0.07,0.01-0.1
		c0.01-0.03,0.01-0.07,0.01-0.08c0-0.03,0.01-0.05,0.04-0.1C3.9,0.66,3.9,0.63,3.9,0.62S3.91,0.6,3.91,0.59
		c0-0.01,0.01-0.06,0.01-0.1c0-0.07,0.01-0.09,0.03-0.12c0.01-0.02,0.02-0.04,0.02-0.05s0-0.03,0.01-0.03c0.01,0,0.01-0.02,0-0.03
		c-0.01-0.02,0-0.03,0.04-0.05c0.04-0.03,0.04-0.03,0.04-0.06c0-0.02,0-0.05,0.01-0.06C4.08,0.08,4.08,0.06,4.09,0.07z"/>
	<path class="st0" d="M11.25,0.67c0.03,0,0.08,0.03,0.1,0.06c0.02,0.02,0.04,0.05,0.05,0.07c0.02,0.01,0.05,0.06,0.06,0.1
		c0.02,0.04,0.02,0.07,0.03,0.08C11.5,0.99,11.5,0.99,11.5,1c0,0.01,0.01,0.03,0.02,0.05c0.01,0.01,0.01,0.04,0.01,0.05
		c0,0.04,0.04,0.13,0.06,0.17c0.01,0.02,0.02,0.05,0.02,0.06c0,0.01,0.01,0.04,0.02,0.07c0.01,0.03,0.02,0.08,0.02,0.1
		c0,0.02,0,0.03,0.01,0.04c0.01,0.01,0.02,0.04,0.03,0.08c0.01,0.03,0.03,0.09,0.04,0.11c0.01,0.02,0.02,0.06,0.02,0.08
		c0,0.06,0.02,0.09,0.06,0.08c0.01,0,0.07,0.05,0.14,0.11c0.17,0.15,0.32,0.28,0.33,0.28c0.01,0,0.02,0.01,0.03,0.03
		c0.01,0.02,0.05,0.06,0.08,0.1c0.06,0.07,0.13,0.19,0.13,0.23c0,0.01,0.01,0.03,0.02,0.04c0.01,0.01,0.03,0.04,0.04,0.07
		c0.02,0.04,0.02,0.05,0.01,0.11c-0.01,0.07-0.02,0.11-0.04,0.12c-0.01,0.01-0.03,0.03-0.03,0.06c-0.01,0.1-0.1,0.28-0.14,0.29
		c-0.01,0-0.03,0.01-0.03,0.02S12.33,3.4,12.3,3.42c-0.03,0.02-0.07,0.06-0.09,0.09c-0.02,0.03-0.05,0.05-0.05,0.06
		c-0.01,0.01-0.03,0-0.06-0.01c-0.06-0.02-0.26-0.03-0.31-0.02c-0.02,0.01-0.03,0.02-0.04,0.05c0,0.02-0.02,0.04-0.02,0.05v0.03
		c0,0.01,0,0.05-0.01,0.09C11.71,3.8,11.7,3.85,11.7,3.87c0,0.02-0.01,0.09-0.02,0.14c-0.02,0.12-0.04,0.32-0.04,0.5
		c0,0.12,0,0.13,0.02,0.13c0.01,0,0.03,0,0.03,0.01c0,0.01,0.02,0.01,0.05,0.01c0.07,0,0.18,0.03,0.19,0.05
		c0,0.01,0.02,0.03,0.04,0.04s0.06,0.05,0.09,0.08c0.03,0.03,0.08,0.07,0.11,0.09c0.1,0.07,0.15,0.15,0.18,0.22
		c0.05,0.13,0.05,0.15,0.04,0.21c-0.01,0.03-0.02,0.08-0.03,0.09c-0.02,0.03-0.02,0.02-0.05,0.08c-0.02,0.03-0.04,0.05-0.05,0.05
		c-0.02,0-0.07,0.02-0.09,0.03c-0.05,0.03-0.14,0.03-0.18,0.01C11.98,5.6,11.96,5.6,11.95,5.6c-0.01,0.01-0.04-0.01-0.09-0.02
		c-0.1-0.03-0.2-0.04-0.28-0.02c-0.05,0.01-0.07,0.02-0.08,0.04c-0.04,0.06-0.13,0.47-0.14,0.63c0,0.06-0.01,0.15-0.02,0.19
		c0,0.04-0.01,0.2-0.01,0.36c0,0.23,0,0.3,0.01,0.37c0.01,0.08,0.03,0.17,0.04,0.24c0,0.04,0.01,0.07,0.02,0.08
		c0.01,0.01,0.01,0.02,0,0.03c-0.01,0.01-0.01,0.02,0,0.04c0.01,0.01,0.01,0.04,0.01,0.06c0,0.02,0.01,0.04,0.02,0.05
		c0.01,0.01,0.01,0.03,0.01,0.06c0,0.07,0.02,0.31,0.03,0.39c0.01,0.04,0.02,0.1,0.03,0.13c0.03,0.09,0.04,0.24,0,0.32
		c-0.01,0.04-0.03,0.08-0.04,0.11c-0.01,0.07-0.05,0.1-0.15,0.15c-0.06,0.03-0.09,0.04-0.14,0.04c-0.03,0-0.08,0.01-0.11,0.02
		c-0.05,0.01-0.12,0.01-0.24-0.03c-0.1-0.03-0.13-0.08-0.15-0.16c-0.01-0.04-0.02-0.05-0.04-0.06c-0.01-0.01-0.02-0.02-0.03-0.05
		c-0.01-0.02-0.02-0.06-0.03-0.08c-0.02-0.04-0.03-0.09-0.05-0.37c-0.01-0.09-0.01-0.19-0.02-0.22V7.82c0-0.02,0-0.09-0.01-0.15
		c-0.01-0.08-0.01-0.12,0-0.15c0.01-0.02,0.01-0.04,0-0.05c-0.01-0.01,0-0.03,0.01-0.06c0.01-0.03,0.01-0.1,0.01-0.16
		c0-0.08,0.01-0.12,0.02-0.16c0.01-0.03,0.02-0.08,0.02-0.1c0-0.02,0.01-0.06,0.02-0.07c0.03-0.05,0.05-0.84,0.03-0.84
		c-0.01,0-0.03,0.01-0.05,0.03c-0.02,0.02-0.05,0.03-0.07,0.03s-0.04,0.01-0.06,0.03c-0.02,0.02-0.04,0.02-0.06,0.02
		c-0.01,0-0.04,0-0.05,0.01c-0.01,0.01-0.04,0.02-0.07,0.03c-0.03,0.01-0.05,0.02-0.05,0.03s-0.01,0.01-0.02,0.01
		c-0.04,0-0.11,0.02-0.16,0.04L9.93,6.35C9.91,6.36,9.87,6.37,9.86,6.38c-0.04,0.03-0.1,0.02-0.19,0c-0.05-0.01-0.09-0.03-0.1-0.04
		C9.56,6.33,9.53,6.31,9.51,6.3S9.46,6.26,9.45,6.25c-0.01-0.01-0.04-0.06-0.08-0.1S9.3,6.07,9.3,6.06c0-0.01-0.04-0.03-0.07-0.07
		C9.16,5.92,9.08,5.86,9.01,5.85C8.97,5.84,8.83,5.76,8.83,5.74c0-0.01,0.03-0.02,0.07-0.03c0.07-0.02,0.12-0.04,0.12-0.07
		c0-0.01,0.01-0.02,0.02-0.02c0.01,0,0.08-0.03,0.16-0.05c0.18-0.05,0.28-0.08,0.31-0.11c0.04-0.04,0.1-0.08,0.1-0.06
		c0,0.01,0.01,0.01,0.02,0S9.67,5.36,9.7,5.35c0.03-0.02,0.07-0.03,0.08-0.04s0.05-0.04,0.09-0.06C9.91,5.23,9.95,5.21,9.96,5.2
		c0.01-0.01,0.02-0.03,0.03-0.03c0.01,0,0.04-0.02,0.06-0.04c0.02-0.02,0.04-0.04,0.06-0.05c0-0.01,0-0.01,0.02-0.02
		s0.03-0.01,0.03-0.02c0-0.01,0-0.03,0.01-0.03c0.01,0,0.03-0.02,0.04-0.04c0.03-0.04,0.1-0.12,0.11-0.12
		c0.01,0,0.13-0.17,0.14-0.21c0.01-0.01,0.01-0.03,0.02-0.03c0.01,0,0.03-0.03,0.04-0.06c0.01-0.03,0.03-0.07,0.06-0.1
		c0.04-0.05,0.05-0.07,0.06-0.19c0-0.04,0-0.06,0.01-0.06c0.01,0,0.02-0.01,0.02-0.05V4.04c0-0.06,0-0.07-0.03-0.08
		c-0.02-0.01-0.03-0.01-0.05,0c-0.02,0.01-0.04,0.01-0.05,0.01c-0.01,0-0.02,0.01-0.04,0.03c-0.06,0.06-0.12,0.1-0.15,0.09
		c-0.02,0-0.03-0.01-0.03,0c0,0.01-0.01,0.02-0.02,0.02c-0.01,0-0.04,0.01-0.06,0.03c-0.05,0.03-0.06,0.03-0.11-0.01
		c-0.01-0.01-0.02-0.01-0.05,0C10.06,4.14,10,4.14,9.89,4.14C9.74,4.13,9.72,4.12,9.69,4.1C9.65,4.07,9.58,3.96,9.57,3.92
		c0-0.02-0.02-0.06-0.04-0.09C9.51,3.8,9.49,3.76,9.49,3.75c0-0.03-0.02-0.07-0.07-0.12C9.39,3.6,9.36,3.56,9.35,3.52
		C9.34,3.48,9.33,3.45,9.32,3.45C9.31,3.44,9.29,3.43,9.28,3.42C9.27,3.41,9.25,3.36,9.22,3.33C9.2,3.3,9.17,3.25,9.16,3.23
		C9.15,3.21,9.15,3.19,9.14,3.18S9.12,3.15,9.12,3.13c0-0.02-0.01-0.03-0.02-0.03c-0.01,0-0.05-0.07-0.05-0.08S9.05,3,9.04,3
		C9.03,3,9.02,2.98,9.02,2.96c0-0.02-0.04-0.09-0.07-0.16C8.92,2.73,8.88,2.66,8.88,2.64c0-0.02-0.01-0.04-0.02-0.05
		C8.85,2.58,8.85,2.55,8.85,2.5s0.02-0.07,0.04-0.09c0.02-0.02,0.03-0.03,0.02-0.04C8.9,2.36,8.94,2.33,8.96,2.33S9,2.29,8.99,2.27
		C8.98,2.25,9.07,2.19,9.1,2.19c0.01,0,0.03-0.01,0.03-0.02c0-0.01,0-0.02,0.01-0.02s0.03-0.01,0.05-0.03
		C9.22,2.09,9.22,2.09,9.23,2.1c0.01,0.01,0.03,0.01,0.08-0.01c0.03-0.02,0.07-0.04,0.1-0.06C9.44,2.01,9.48,1.99,9.5,1.99
		s0.05-0.02,0.08-0.03l0.05-0.02l0.02,0.03c0.02,0.02,0.02,0.02,0.04,0.01c0.03-0.01,0.04-0.01,0.1,0.03
		c0.07,0.04,0.12,0.06,0.15,0.05c0.01,0,0.03,0,0.04,0.01c0.01,0.01,0.03,0,0.06,0c0.03,0,0.07-0.01,0.09-0.01s0.06-0.01,0.09-0.02
		c0.05-0.02,0.07-0.02,0.09-0.01c0.03,0.02,0.1,0.01,0.13-0.02C10.45,2,10.47,2,10.49,2s0.07-0.01,0.12-0.02l0.09-0.02V1.88
		c0-0.04,0.01-0.13,0.02-0.19c0.01-0.06,0.02-0.15,0.02-0.2c0-0.05,0.01-0.11,0.01-0.13c0.01-0.02,0-0.06,0-0.09
		c0-0.04,0-0.06,0.01-0.07c0.01-0.01,0.01-0.03,0.01-0.07c0-0.03,0.01-0.08,0.01-0.12c0-0.04,0-0.08-0.01-0.09
		c-0.01-0.02,0-0.04,0.01-0.05c0.01-0.01,0.01-0.04,0.02-0.07c0.01-0.07,0.03-0.09,0.05-0.07c0.02,0.02,0.09,0.01,0.12-0.01
		c0.01-0.01,0.02-0.02,0.02-0.01s0.01,0.01,0.03,0c0.03-0.02,0.03-0.02,0.05,0.01c0.02,0.03,0.03,0.04,0.04,0.02
		c0.01-0.01,0.02-0.02,0.03-0.02c0.01,0,0.02-0.01,0.02-0.02c0-0.02,0-0.03,0.03,0c0.04,0.04,0.06,0.04,0.06,0
		C11.25,0.68,11.24,0.67,11.25,0.67z M15.05,0.03c0.04,0,0.06,0.01,0.11,0.05c0.03,0.02,0.06,0.05,0.07,0.06
		c0.01,0.01,0.02,0.02,0.02,0.04c0,0.02,0.03,0.05,0.05,0.07c0.02,0.02,0.03,0.03,0.02,0.04c0,0.01,0,0.02,0.01,0.03
		c0.02,0.04,0.03,0.17,0.03,0.36c0,0.17,0,0.17-0.04,0.26c-0.02,0.05-0.03,0.1-0.03,0.12c0,0.02-0.01,0.04-0.02,0.05
		c-0.01,0.01-0.01,0.02-0.01,0.03c0,0.05,0,0.07-0.02,0.08c-0.02,0-0.04,0.05-0.07,0.1C15.15,1.36,15,1.5,14.96,1.52
		c-0.02,0.01-0.04,0.04-0.05,0.05C14.89,1.6,14.9,1.66,14.92,1.7c0.03,0.05,0.13,0.1,0.15,0.07c0-0.01,0.02-0.02,0.05-0.02
		c0.08-0.01,0.23-0.05,0.41-0.11c0.1-0.03,0.2-0.06,0.24-0.07c0.04-0.01,0.08-0.02,0.09-0.03c0.02-0.01,0.04-0.02,0.06-0.02
		s0.04-0.01,0.04-0.02c0-0.01,0.01-0.02,0.02-0.02c0.01,0,0.03-0.01,0.05-0.03c0.02-0.02,0.05-0.04,0.07-0.04
		c0.05-0.01,0.11-0.05,0.11-0.07c0-0.01,0.02-0.02,0.04-0.02s0.05-0.01,0.06-0.01h0.04c0.02,0,0.05-0.01,0.07-0.02
		c0.04-0.02,0.04-0.02,0.07,0c0.02,0.01,0.06,0.02,0.1,0.03c0.01,0,0.07,0.03,0.09,0.04c0.02,0.01,0.05,0.02,0.07,0.02
		s0.03,0.01,0.04,0.02c0.01,0.01,0.02,0.01,0.03,0.01s0.05,0.01,0.08,0.03c0.03,0.02,0.07,0.03,0.08,0.03c0.01,0,0.03,0,0.05,0.01
		s0.06,0.02,0.08,0.03c0.04,0.01,0.07,0.03,0.14,0.11c0.05,0.05,0.11,0.11,0.15,0.14c0.04,0.02,0.07,0.04,0.07,0.05
		s0.01,0.03,0.02,0.06c0.02,0.05,0.02,0.05,0.01,0.12c-0.01,0.04-0.01,0.08-0.01,0.1c0,0.03-0.02,0.11-0.05,0.14
		c-0.01,0.01-0.02,0.04-0.03,0.07c-0.02,0.07-0.05,0.08-0.09,0.07c-0.01-0.01-0.04-0.01-0.05-0.01c-0.07,0.02-0.13,0.02-0.2-0.02
		c-0.05-0.02-0.08-0.03-0.1-0.03c-0.01,0-0.03,0-0.05-0.01c-0.01-0.01-0.05-0.02-0.08-0.03c-0.03-0.01-0.07-0.02-0.07-0.03
		s-0.02-0.01-0.06-0.01c-0.11,0.01-0.21,0.03-0.23,0.04c-0.01,0.01,0.08,0.1,0.26,0.28c0.12,0.12,0.17,0.17,0.22,0.19
		c0.03,0.01,0.06,0.04,0.06,0.05c0.01,0.01,0.03,0.02,0.04,0.03c0.03,0.01,0.16,0.15,0.21,0.22c0.02,0.03,0.04,0.04,0.06,0.04
		c0.02-0.01,0.03,0,0.06,0.04c0.02,0.03,0.06,0.06,0.08,0.09c0.04,0.03,0.06,0.06,0.06,0.09c0,0.02,0.01,0.05,0.02,0.07
		c0.02,0.02,0.03,0.03,0.03,0.12c0.01,0.18-0.02,0.24-0.15,0.27c-0.15,0.04-0.22,0.02-0.36-0.07c-0.05-0.03-0.08-0.06-0.09-0.08
		c0-0.02-0.03-0.04-0.05-0.06c-0.03-0.02-0.05-0.04-0.05-0.05c0-0.01-0.02-0.04-0.05-0.07c-0.04-0.04-0.05-0.06-0.05-0.08
		c0-0.03-0.03-0.05-0.08-0.08c-0.02-0.01-0.03-0.03-0.03-0.05c0-0.02-0.01-0.03-0.03-0.04s-0.03-0.01-0.03-0.02
		c0-0.01-0.01-0.02-0.02-0.04c-0.01-0.02-0.02-0.04-0.02-0.07c0-0.05-0.06-0.16-0.09-0.17c-0.01-0.01-0.02-0.02-0.02-0.04
		c0-0.02-0.01-0.04-0.02-0.04c-0.02-0.01-0.07-0.07-0.09-0.11c-0.01-0.02-0.01-0.03-0.02-0.03s-0.02-0.01-0.04-0.03
		c-0.02-0.02-0.05-0.06-0.08-0.09c-0.03-0.03-0.07-0.08-0.09-0.11c-0.03-0.06-0.03-0.06-0.07-0.06c-0.07,0-0.2,0.02-0.28,0.05
		c-0.04,0.01-0.08,0.02-0.09,0.02c-0.01,0-0.02,0-0.04,0.01s-0.07,0.01-0.09,0.01c-0.02,0-0.05,0-0.07,0.01
		c-0.02,0.01-0.03,0.01-0.04,0c-0.01-0.01-0.02-0.01-0.05,0c-0.02,0.01-0.07,0.02-0.11,0.03c-0.11,0.03-0.14,0.05-0.13,0.08
		c0.03,0.15,0.03,0.2,0.01,0.39c-0.02,0.13-0.03,0.18-0.04,0.18c-0.02,0-0.01,0.12,0.01,0.19c0.01,0.03,0.03,0.08,0.05,0.12
		l0.03,0.07l0.06-0.04c0.03-0.02,0.13-0.11,0.22-0.18c0.2-0.17,0.33-0.26,0.37-0.28c0.02-0.01,0.05-0.02,0.05-0.03
		s0.01-0.01,0.02-0.01c0.01,0,0.03,0.01,0.04,0c0.01-0.01,0.05-0.01,0.07-0.01c0.04,0,0.05,0,0.13,0.07
		c0.05,0.04,0.08,0.07,0.08,0.08s0.01,0.03,0.03,0.05s0.05,0.06,0.07,0.09s0.05,0.05,0.06,0.05c0.01,0,0.03,0.03,0.04,0.05
		c0.01,0.02,0.02,0.04,0.03,0.04c0.01,0,0.02,0.02,0.03,0.04c0.01,0.02,0.04,0.07,0.06,0.11c0.08,0.13,0.08,0.21,0.02,0.3
		c-0.02,0.03-0.02,0.06-0.03,0.1c0,0.03-0.01,0.06-0.02,0.07c-0.01,0.01-0.01,0.03-0.01,0.06c0,0.02,0,0.05-0.01,0.06
		c-0.02,0.02-0.04,0.1-0.05,0.17c0,0.04-0.01,0.07-0.01,0.08c-0.01,0.03-0.01,0.19,0,0.21c0.01,0.02,0,0.09-0.04,0.13
		C16.4,4.76,16.35,4.8,16.3,4.83c-0.09,0.06-0.17,0.08-0.29,0.09c-0.03,0-0.06,0.01-0.07,0.02c-0.02,0.01-0.07,0.01-0.2,0.01
		c-0.33,0-0.62,0-0.64,0.02c-0.01,0.01-0.03,0.01-0.04,0c-0.01-0.01-0.03,0-0.07,0.01C14.93,5,14.91,4.99,14.9,4.93
		c-0.01-0.03-0.01-0.05-0.03-0.06c-0.03-0.03-0.07-0.1-0.07-0.14c0-0.02,0-0.04-0.01-0.04c-0.01-0.01-0.03-0.04-0.06-0.09
		c-0.05-0.08-0.05-0.09-0.04-0.1c0.02-0.02,0.03-0.03,0.01-0.03s-0.03-0.07-0.02-0.08c0.01-0.01,0-0.03-0.01-0.05
		c-0.02-0.03-0.02-0.04-0.01-0.13c0.01-0.08,0-0.11-0.01-0.14C14.64,4.05,14.63,4,14.63,3.96c0-0.06,0-0.07-0.02-0.07
		c-0.01,0-0.03,0.01-0.04,0.03C14.56,3.93,14.53,3.97,14.51,4c-0.02,0.03-0.05,0.06-0.06,0.08c-0.01,0.01-0.07,0.06-0.13,0.1
		c-0.13,0.08-0.16,0.09-0.23,0.06c-0.03-0.02-0.05-0.02-0.06-0.01c-0.01,0.01-0.03,0-0.07-0.02c-0.03-0.02-0.09-0.04-0.13-0.05
		s-0.08-0.02-0.09-0.03c-0.01-0.01-0.04-0.02-0.07-0.02c-0.1-0.02-0.22-0.07-0.24-0.1c-0.01-0.02-0.03-0.04-0.06-0.05
		c-0.02-0.01-0.05-0.01-0.04-0.02c-0.02-0.01-0.09-0.07-0.15-0.13c-0.03-0.03-0.19-0.08-0.25-0.08c-0.03,0-0.09,0-0.14,0.01
		c-0.07,0-0.09,0-0.14-0.02c-0.07-0.04-0.07-0.04-0.02-0.09c0.03-0.02,0.05-0.05,0.05-0.06c0-0.02,0.07-0.09,0.11-0.11
		c0.01-0.01,0.03-0.01,0.02-0.02c-0.01-0.01,0.06-0.06,0.13-0.1c0.12-0.06,0.24-0.12,0.27-0.13l0.12-0.06
		c0.02-0.01,0.04-0.02,0.05-0.02c0.01,0,0.04-0.02,0.07-0.04c0.01-0.01,0.03-0.01,0.05-0.01s0.04-0.02,0.07-0.04
		c0.03-0.02,0.05-0.03,0.06-0.03c0.02,0,0.17-0.13,0.21-0.18c0.02-0.03,0.04-0.05,0.05-0.05c0.01,0,0.02-0.04,0.03-0.07
		c0-0.01,0.01-0.02,0.02-0.03c0.01-0.01,0-0.02-0.06-0.04c-0.04-0.01-0.08-0.02-0.1-0.02c-0.02,0-0.05-0.01-0.07-0.02
		c-0.02-0.01-0.08-0.04-0.14-0.05c-0.06-0.02-0.12-0.03-0.13-0.04c-0.01-0.01-0.04-0.02-0.07-0.02c-0.02,0-0.06-0.01-0.07-0.02
		c-0.01-0.01-0.04-0.03-0.06-0.04c-0.03-0.02-0.03-0.04-0.03-0.06c0-0.04,0.03-0.07,0.08-0.09c0.03-0.01,0.03-0.02,0.02-0.04
		c0-0.01,0.01-0.02,0.05-0.04c0.07-0.03,0.2-0.07,0.27-0.08c0.03,0,0.08-0.01,0.11-0.02c0.05-0.02,0.15-0.04,0.25-0.05
		c0.03,0,0.07-0.01,0.09-0.02s0.05-0.01,0.06-0.01c0.01,0,0.02,0,0.03-0.01C14.18,2,14.2,1.98,14.23,1.97
		c0.04-0.02,0.04-0.03,0.05-0.05c0.01,0,0.01-0.01,0.01-0.05V1.78c0.01-0.05-0.03-0.15-0.07-0.16c-0.01,0-0.04-0.02-0.07-0.04
		c-0.02-0.02-0.06-0.04-0.08-0.04c-0.02-0.01-0.05-0.01-0.06-0.02C14,1.51,13.98,1.5,13.96,1.5s-0.06-0.03-0.08-0.04
		c-0.02-0.01-0.05-0.02-0.06-0.02c-0.01,0-0.02-0.02-0.03-0.04c-0.01-0.02-0.03-0.04-0.04-0.05c-0.02-0.01-0.04-0.03-0.07-0.08
		c0-0.01-0.02-0.04-0.04-0.07c-0.02-0.04-0.06-0.1-0.1-0.14s-0.08-0.09-0.09-0.11c-0.01-0.02-0.02-0.03-0.03-0.03
		c-0.01,0-0.02-0.01-0.04-0.03c-0.04-0.03-0.07-0.05-0.15-0.09c-0.04-0.02-0.08-0.03-0.09-0.04c-0.01-0.01-0.02-0.01-0.03-0.01
		c-0.01,0-0.03,0-0.07-0.01c-0.03-0.01-0.07-0.02-0.08-0.02c-0.01,0-0.03,0-0.04-0.02c-0.01-0.03-0.01-0.05,0.01-0.06
		c0.03-0.03,0.11-0.04,0.15-0.03c0.02,0,0.04-0.01,0.05-0.01s0.06-0.01,0.1-0.01c0.09,0,0.32-0.06,0.35-0.09
		c0.01-0.01,0.02-0.01,0.03-0.01c0.01,0,0.05,0,0.1-0.01c0.13-0.02,0.37-0.03,0.38-0.02c0.01,0.01,0.14-0.01,0.21-0.03
		c0.08-0.02,0.25-0.09,0.27-0.11c0.01-0.01,0.03-0.02,0.05-0.02c0.05,0,0.11-0.04,0.17-0.11c0.03-0.04,0.08-0.07,0.09-0.08
		c0.02-0.01,0.03-0.03,0.04-0.04c0.01-0.01,0.03-0.03,0.04-0.03C14.98,0.04,15.02,0.03,15.05,0.03z M13.18,5.13
		c0.01,0,0.03,0.02,0.06,0.05c0.05,0.05,0.09,0.12,0.11,0.18c0,0.01,0.01,0.04,0.02,0.05c0.01,0.01,0.05,0.08,0.08,0.15
		c0.06,0.13,0.1,0.18,0.13,0.17c0.01,0,0.05-0.01,0.1-0.01c0.05-0.01,0.1-0.01,0.11-0.02c0.02-0.01,0.03-0.02,0.04-0.01
		c0.01,0.01,0.04,0,0.09-0.01c0.04-0.01,0.24-0.05,0.43-0.09l0.44-0.09l0.19-0.04c0.05-0.01,0.11-0.01,0.14-0.02
		c0.03-0.01,0.06-0.02,0.08-0.02s0.06-0.02,0.1-0.03s0.12-0.03,0.18-0.04L15.8,5.3c0.12-0.02,0.22-0.03,0.23-0.03
		c0.02,0,0.04,0,0.05-0.01c0.01-0.01,0.03-0.02,0.04-0.02c0.08,0,0.2-0.01,0.2-0.02c0-0.02-0.03-0.03-0.06-0.02
		c-0.03,0.01-0.05,0-0.04-0.01c0-0.01,0.03-0.01,0.07-0.01c0.07,0,0.09,0.01,0.14,0.04c0.03,0.02,0.08,0.04,0.11,0.05
		c0.03,0.01,0.06,0.03,0.06,0.04c0.01,0.01,0.03,0.03,0.06,0.04c0.03,0.01,0.05,0.02,0.05,0.03c0,0.01,0.02,0.02,0.04,0.04
		c0.03,0.02,0.08,0.06,0.09,0.07c0.03,0.02,0.06,0.05,0.07,0.06c0.02,0.01,0.07,0.05,0.11,0.09s0.08,0.08,0.09,0.08
		c0.01,0,0.01,0.01,0.02,0.02c0.01,0.02,0.03,0.03,0.04,0.03c0.01,0,0.02,0.01,0.03,0.03c0.01,0.01,0.04,0.04,0.06,0.05
		c0.02,0.01,0.05,0.03,0.05,0.04c0.01,0.01,0.02,0.02,0.03,0.02c0.02,0,0.16,0.13,0.17,0.15c0,0.01,0.02,0.01,0.03,0.02
		c0.01,0.01,0.02,0.03,0.02,0.04s0.01,0.02,0.02,0.03c0.01,0.01,0.02,0.02,0.03,0.04c0.01,0.02,0.04,0.05,0.07,0.07
		c0.03,0.02,0.05,0.06,0.06,0.08c0.01,0.02,0.03,0.04,0.04,0.06c0.01,0.02,0.02,0.04,0.02,0.05c0,0.01,0.02,0.04,0.03,0.07
		l0.02,0.06l-0.02,0.07c-0.02,0.07-0.03,0.08-0.12,0.14c-0.06,0.04-0.07,0.09-0.08,0.23c0,0.08-0.01,0.13,0,0.17
		c0.01,0.04,0.01,0.06,0,0.07c-0.01,0.01-0.01,0.02,0,0.04c0,0.01,0.01,0.2,0.01,0.43c0,0.54,0.01,0.74,0.02,0.8
		c0.01,0.07,0.01,0.19,0,0.22c-0.01,0.02-0.06,0.05-0.1,0.05c-0.01,0-0.03,0.01-0.03,0.02c-0.01,0.03-0.09,0.04-0.15,0.02
		c-0.02-0.01-0.02-0.01-0.03,0c0,0.01-0.03,0.01-0.04,0.01s-0.03,0-0.04,0.01c-0.01,0.01-0.01,0.01-0.02,0
		c-0.01-0.01-0.03-0.01-0.06-0.01c-0.03,0-0.07-0.01-0.08-0.02c-0.01-0.01-0.08-0.04-0.14-0.07c-0.12-0.05-0.14-0.06-0.19-0.14
		l-0.07-0.07c-0.02-0.02-0.04-0.04-0.04-0.05c0-0.02-0.14-0.18-0.15-0.17c-0.01,0.01-0.18-0.29-0.21-0.36
		c-0.01-0.03-0.05-0.08-0.1-0.13c-0.08-0.08-0.12-0.1-0.12-0.07c-0.04-0.03-0.05,0-0.04,0.18c0.01,0.21,0.02,0.31,0.05,0.37
		c0.01,0.03,0.02,0.06,0.02,0.1c0,0.03,0,0.09,0.01,0.12c0.01,0.05,0,0.07-0.01,0.08c-0.01,0.01-0.03,0.02-0.03,0.03
		s-0.01,0.01-0.02,0.02c-0.01,0.01-0.04,0.03-0.06,0.04c-0.02,0.02-0.04,0.03-0.05,0.03c-0.01,0-0.03,0.02-0.06,0.03
		c-0.03,0.01-0.05,0.02-0.06,0.01c-0.01-0.01-0.02,0.01-0.03,0.02c-0.03,0.03-0.06,0.04-0.11,0.04c-0.02,0-0.05,0-0.05,0.01
		s-0.02,0.01-0.04,0.01s-0.04,0-0.06,0.01c-0.06,0.03-0.17,0.02-0.24-0.01c-0.05-0.02-0.05-0.02-0.13-0.01
		c-0.13,0.02-0.33,0.02-0.38,0.01c-0.02-0.01-0.05-0.02-0.07-0.04c-0.01-0.02-0.05-0.06-0.07-0.08c-0.04-0.05-0.1-0.15-0.1-0.19
		c0-0.01-0.01-0.03-0.02-0.05c-0.02-0.03-0.02-0.05-0.02-0.13c0-0.12-0.01-0.19-0.06-0.23c-0.07-0.07-0.1-0.17-0.09-0.34
		c0.01-0.06,0.01-0.12,0-0.15c-0.01-0.04-0.02-0.13-0.01-0.43c0-0.05,0.01-0.09,0.02-0.1c0.01-0.01,0.03-0.08,0.03-0.13
		c0.01-0.08,0.03-0.17,0.04-0.2c0.01-0.02,0.02-0.05,0.02-0.06c0-0.03,0.03-0.12,0.05-0.14c0.01-0.01,0.02-0.03,0.03-0.05
		c0.02-0.04,0.06-0.06,0.08-0.04c0.03,0.03,0.07,0.03,0.08,0.01c0.01-0.02,0.01-0.02,0.03,0c0.02,0.02,0.03,0.02,0.05,0.01
		c0.01-0.01,0.02-0.01,0.03-0.01c0.01,0,0.03,0.03,0.06,0.07s0.05,0.07,0.06,0.07c0.02,0,0.08-0.04,0.13-0.09
		c0.07-0.07,0.21-0.2,0.29-0.26c0.05-0.04,0.09-0.04,0.16-0.04c0.02,0,0.03,0,0.03-0.01s0.01-0.02,0.02-0.03
		c0.03-0.02,0.01-0.05-0.04-0.04c0.03-0.04,0.17,0.01,0.19,0.06c0.01,0.01,0.04,0.06,0.08,0.1s0.07,0.08,0.08,0.1
		c0.01,0.02,0.01,0.04,0.02,0.03c0.01,0,0.02,0,0.03,0.01c0.01,0.01,0.01,0.02,0.02,0.02c0.02,0,0.1,0.08,0.11,0.11
		c0.01,0.02,0.02,0.04,0.03,0.05c0.02,0.01,0.05,0.1,0.05,0.15c0,0.04-0.02,0.07-0.04,0.08c-0.01,0-0.03,0.03-0.05,0.06l-0.03,0.04
		v0.28c0,0.15,0,0.26,0.01,0.27s0.19-0.03,0.22-0.05c0.02-0.01,0.05-0.01,0.06-0.01c0.01,0,0.04,0,0.05-0.01
		c0.02-0.01,0.07-0.02,0.12-0.03s0.11-0.03,0.14-0.04c0.03-0.01,0.07-0.01,0.08-0.01c0.01,0,0.03-0.01,0.05-0.03
		c0.02-0.02,0.04-0.03,0.05-0.03c0.01,0,0.01-0.01,0.01-0.02s0.01-0.03,0.02-0.04c0.01-0.02,0.01-0.03,0.01-0.05
		c0-0.02,0-0.05,0.01-0.07c0.01-0.02,0.01-0.11,0.02-0.19c0.01-0.08,0.01-0.24,0.02-0.34c0.02-0.25,0.02-0.28-0.06-0.37
		c-0.03-0.04-0.08-0.08-0.11-0.09c-0.03-0.02-0.05-0.03-0.05-0.04s-0.07-0.05-0.13-0.1c-0.06-0.05-0.13-0.11-0.15-0.13
		c-0.02-0.02-0.04-0.04-0.05-0.04c-0.01,0-0.02-0.01-0.03-0.03c-0.01-0.02-0.04-0.05-0.07-0.06c-0.04-0.02-0.06-0.02-0.11-0.01
		c-0.09,0.02-0.18,0.05-0.38,0.08c-0.24,0.04-0.38,0.07-0.41,0.08c-0.02,0.01-0.2,0.05-0.35,0.08C14.94,6,14.87,6.02,14.84,6.03
		c-0.03,0.01-0.08,0.02-0.12,0.03c-0.04,0.01-0.07,0.02-0.08,0.02c-0.01,0-0.07,0.02-0.12,0.03c-0.05,0.01-0.12,0.04-0.16,0.06
		c-0.1,0.05-0.25,0.15-0.35,0.24c-0.05,0.05-0.1,0.09-0.11,0.09c-0.03,0.01-0.08,0.1-0.08,0.15c0,0.02-0.01,0.03-0.03,0.05
		c-0.02,0.01-0.05,0.05-0.08,0.08c-0.05,0.06-0.06,0.09-0.04,0.17c0,0.02,0.02,0.14,0.03,0.25c0.01,0.11,0.03,0.22,0.03,0.25
		c0.01,0.02,0,0.06,0,0.08v0.09c0,0.03,0.02,0.11,0.02,0.17c0.01,0.06,0.02,0.16,0.03,0.23c0.01,0.07,0.01,0.18,0.01,0.25v0.14
		c0,0.01,0.02,0.01,0.01,0.02c0,0.01-0.01,0.06-0.02,0.13c-0.01,0.15-0.02,0.2-0.05,0.2c-0.01,0-0.03,0.01-0.04,0.02
		c-0.04,0.04-0.11,0.07-0.2,0.08c-0.11,0.01-0.19-0.01-0.25-0.05c-0.08-0.06-0.09-0.09-0.11-0.15c-0.02-0.07-0.03-0.08-0.06-0.07
		h-0.05c-0.01,0-0.02-0.01-0.03-0.07l-0.01-0.07l-0.02,0.02c-0.01,0.01-0.04,0.01-0.06,0.01c-0.03,0-0.03,0-0.06-0.08
		c-0.02-0.07-0.03-0.11-0.03-0.19c0-0.06,0.01-0.13,0.01-0.18c0.01-0.07,0-0.08-0.02-0.1c-0.01-0.02-0.01-0.03-0.01-0.08
		c0-0.1,0-0.26,0.01-0.27c0.01-0.02,0.02-0.15,0.01-0.16c-0.01-0.01,0-0.01,0-0.02c0.01-0.01,0-0.07,0-0.13v-0.5
		c0-0.31,0.03-0.73,0.05-0.77c0.01-0.01,0.01-0.05,0.01-0.08c0-0.03,0-0.09,0.01-0.13c0.01-0.04,0.02-0.1,0.02-0.14
		c0-0.1,0.01-0.15,0.04-0.19c0.01-0.02,0.03-0.06,0.04-0.09c0.01-0.03,0.03-0.09,0.06-0.14c0.05-0.09,0.05-0.09,0.09-0.09
		C13.15,5.14,13.17,5.13,13.18,5.13z M15.52,6.59l-0.03-0.02l-0.04,0.05c-0.02,0.03-0.08,0.1-0.13,0.15
		c-0.12,0.12-0.16,0.19-0.19,0.25c-0.02,0.05-0.02,0.08,0,0.08c0.03,0-0.01,0.1-0.09,0.25l-0.05,0.09v0.11c0,0.11,0,0.11,0.03,0.12
		c0.05,0.02,0.09,0.01,0.18-0.03c0.12-0.05,0.17-0.09,0.19-0.15c0.01-0.03,0.03-0.07,0.04-0.09c0.01-0.03,0.03-0.07,0.03-0.09
		C15.47,7.2,15.48,7.11,15.5,7c0.01-0.07,0.02-0.13,0.02-0.15s0-0.03,0.01-0.04c0.01,0,0.01-0.05,0.01-0.1
		C15.54,6.62,15.54,6.61,15.52,6.59z M15.9,3.36c-0.01,0-0.1,0.1-0.24,0.26c-0.06,0.07-0.15,0.17-0.19,0.21s-0.08,0.07-0.08,0.08
		s-0.02,0.04-0.05,0.06c-0.02,0.02-0.05,0.05-0.06,0.07l-0.02,0.03h0.11c0.09-0.01,0.4-0.06,0.49-0.09
		c0.03-0.01,0.12-0.14,0.12-0.17c0-0.02,0.02-0.08,0.03-0.13c0.02-0.07,0.02-0.11,0.02-0.15c0-0.06-0.01-0.07-0.06-0.12
		C15.94,3.38,15.91,3.36,15.9,3.36z"/>
	<path class="st0" d="M26.38,3.56c0,0.01,0.01,0.02,0.02,0.03c0.01,0.01,0.01,0.02,0.01,0.04c-0.01,0.06,0.02,0.13,0.06,0.19
		c0.03,0.02,0.06,0.04,0.07,0.04c0.03,0,0.11,0.05,0.15,0.09c0.02,0.02,0.02,0.03,0.03,0.03S26.74,3.99,26.75,4
		c0.03,0.02,0.03,0.03,0.02,0.1c-0.01,0.06,0,0.11,0.02,0.14c0.02,0.02,0.04,0.17,0.03,0.22s0.01,0.12,0.04,0.15
		c0.01,0.01,0.03,0.06,0.05,0.12c0.01,0.05,0.03,0.11,0.04,0.13c0.01,0.02,0.03,0.1,0.04,0.15c0.02,0.1,0.07,0.24,0.09,0.24
		c0.01,0,0.01,0.02,0.01,0.04c0,0.02,0.02,0.04,0.03,0.05c0.01,0.01,0.02,0.06,0.03,0.1l0.04,0.18c0.01,0.05,0.03,0.11,0.03,0.12
		s0.01,0.03,0.01,0.04c0.03,0.08,0.05,0.19,0.04,0.28c-0.01,0.1-0.03,0.28-0.05,0.37c-0.01,0.07-0.06,0.15-0.09,0.17
		c-0.02,0.01-0.06,0.04-0.09,0.1c-0.03,0.04-0.07,0.11-0.09,0.14c-0.05,0.07-0.55,0.58-0.57,0.58c-0.02,0-0.13,0.11-0.33,0.31
		c-0.13,0.14-0.21,0.21-0.28,0.26c-0.12,0.08-0.19,0.14-0.25,0.2c-0.03,0.03-0.07,0.05-0.1,0.07c-0.02,0.02-0.06,0.05-0.09,0.07
		c-0.05,0.04-0.12,0.11-0.18,0.15c-0.05,0.03-0.07,0.06-0.07,0.1c0,0.02-0.01,0.09-0.02,0.14c-0.02,0.08-0.03,0.1-0.05,0.11
		c-0.02,0.01-0.05,0.04-0.06,0.05c-0.04,0.04-0.06,0.05-0.12,0.05c-0.03,0-0.04,0-0.05,0.01c0,0.02-0.01,0.02-0.02,0
		c-0.01-0.01-0.01-0.01-0.02,0c0,0.02-0.06,0.04-0.09,0.04c-0.01,0-0.01,0-0.02,0.01c0,0.01-0.02,0.01-0.05,0
		c-0.03,0-0.04,0-0.06,0.01c-0.03,0.02-0.15,0.03-0.17,0.01C24.34,9,24.34,9,24.13,9c-0.09,0-0.19,0.01-0.21,0.02
		c-0.03,0.01-0.04,0.01-0.05,0s-0.04-0.01-0.06-0.01c-0.05,0-0.44,0.04-0.58,0.05c-0.03,0-0.12,0-0.21-0.01
		c-0.08-0.01-0.15,0-0.16,0c0,0.01-0.04,0-0.07,0h-0.07c-0.01,0.01-0.04,0-0.07,0h-0.26c-0.11,0-0.21,0-0.23-0.01
		c-0.03-0.01-0.04-0.01-0.05,0c-0.01,0.01-0.01,0.01-0.02,0.01c-0.01-0.01-0.03-0.01-0.05-0.01C21.82,9.02,21.77,9,21.76,9
		c-0.01-0.01-0.01,0-0.02,0.01c-0.01,0.01-0.02,0.01-0.05,0C21.67,9,21.64,9,21.62,9c-0.01,0-0.08,0.01-0.14,0
		c-0.06-0.01-0.11-0.01-0.12-0.01c-0.01,0.01-0.09,0-0.12-0.02c-0.01-0.01-0.03-0.01-0.04-0.01c-0.01,0.01-0.03,0.02-0.06,0.01
		h-0.07c-0.01,0.01-0.03,0.01-0.05,0c-0.02-0.01-0.06-0.03-0.1-0.03c-0.06,0-0.08-0.01-0.12-0.03c-0.11-0.06-0.17-0.14-0.19-0.23
		c-0.01-0.05-0.09-0.18-0.12-0.2c-0.01-0.01-0.02-0.02-0.02-0.03c0-0.01,0-0.02-0.01-0.03s-0.02-0.03-0.02-0.06
		c0-0.02,0-0.03-0.01-0.04c-0.02-0.02-0.06-0.1-0.06-0.13c0-0.03-0.02-0.15-0.04-0.17c-0.01-0.01-0.02-0.04-0.02-0.07
		s-0.02-0.08-0.04-0.11c-0.03-0.08-0.04-0.12-0.02-0.14c0.01-0.01,0.01-0.02,0-0.03s-0.01-0.05-0.01-0.1c0-0.07,0.01-0.09,0-0.09
		c-0.03,0-0.04-0.02-0.03-0.04c0.01-0.02-0.01-0.1-0.03-0.12c-0.01-0.01-0.01-0.04-0.02-0.07c-0.01-0.04-0.03-0.07-0.05-0.09
		c-0.01-0.02-0.03-0.02-0.03-0.03c0-0.02-0.1-0.13-0.21-0.25c-0.22-0.23-0.4-0.42-0.42-0.43c-0.03-0.02-0.23-0.21-0.34-0.32
		C19.06,6.07,19,6.01,18.98,6s-0.04-0.03-0.05-0.04c-0.01-0.01-0.02-0.02-0.03-0.02c-0.01,0-0.09-0.06-0.26-0.22
		c-0.03-0.04-0.08-0.08-0.09-0.1c-0.01-0.02-0.02-0.03-0.03-0.03c-0.01,0-0.03-0.02-0.05-0.05c-0.02-0.04-0.08-0.09-0.12-0.13
		s-0.07-0.07-0.07-0.08c0-0.01-0.03-0.07-0.04-0.08c-0.01-0.01-0.02-0.13-0.01-0.22c0-0.02,0.02-0.07,0.03-0.1
		c0.03-0.04,0.1-0.08,0.14-0.08c0.02,0,0.09-0.01,0.16-0.01c0.12-0.01,0.44-0.05,0.5-0.08c0.03-0.01,0.1-0.03,0.15-0.04
		c0.02,0,0.07-0.02,0.11-0.04c0.04-0.03,0.1-0.05,0.12-0.05c0.02-0.01,0.05-0.01,0.05-0.02c0.01-0.01,0.03-0.02,0.04-0.02
		c0.02,0,0.14-0.08,0.15-0.1c0.01-0.02,0.01-0.24,0-0.35c-0.01-0.09-0.01-0.09-0.01-0.26c0-0.18,0.02-0.24,0.04-0.25
		c0.01,0,0.01-0.02,0.01-0.03c0.01-0.04,0.04-0.04,0.12-0.03c0.04,0,0.07,0.01,0.08,0.02c0.01,0.01,0.02,0.01,0.03,0.01
		s0.02,0.01,0.03,0.02c0.01,0.01,0.04,0.02,0.06,0.03c0.02,0.01,0.03,0.03,0.03,0.04s0.02,0.03,0.04,0.05
		c0.02,0.02,0.04,0.05,0.05,0.08c0.01,0.02,0.02,0.04,0.03,0.05c0.08,0.06,0.19,0.2,0.21,0.27c0,0.01,0,0.02,0.01,0.03
		s0.07,0.14,0.07,0.16c0,0.01,0,0.01,0.01,0.02c0.01,0.01,0.03,0.03,0.03,0.05c0,0.02,0.01,0.05,0.02,0.07
		c0.01,0.02,0.03,0.04,0.03,0.05c0.01,0.04,0.02,0.08,0.03,0.1c0.01,0.01,0.03,0.08,0.04,0.14s0.02,0.11,0.03,0.12
		s0.02,0.05,0.03,0.1c0.02,0.1,0.04,0.19,0.05,0.21c0.01,0.03,0.04,0.15,0.04,0.21c0,0.03,0,0.04,0.01,0.05c0.01,0,0.01,0.01,0,0.02
		v0.19c-0.01,0.01-0.02,0.05-0.02,0.09c0,0.06-0.01,0.1-0.04,0.16c-0.04,0.08-0.04,0.08-0.09,0.1c-0.03,0.01-0.07,0.03-0.08,0.03
		c-0.01,0-0.03,0-0.05,0.01c-0.01,0.01-0.07,0.03-0.12,0.03c-0.07,0.02-0.09,0-0.11-0.01c-0.01-0.01-0.03-0.02-0.04-0.02
		s-0.02-0.01-0.03-0.02c-0.01-0.01-0.01-0.02-0.02-0.02s-0.05-0.03-0.09-0.06c-0.04-0.04-0.08-0.08-0.1-0.09
		c-0.02-0.01-0.04-0.03-0.06-0.08c-0.03-0.07-0.09-0.16-0.11-0.17c-0.01,0-0.06-0.04-0.11-0.1c-0.09-0.09-0.21-0.16-0.31-0.19
		c-0.03-0.01-0.09-0.04-0.13-0.07c-0.04-0.04-0.1-0.08-0.11-0.08c-0.02,0-0.03,0-0.04-0.01c-0.01-0.02-0.05-0.03-0.18-0.04
		c-0.07-0.01-0.16-0.01-0.2-0.02s-0.08-0.01-0.09-0.01c-0.01,0,0.01,0.03,0.04,0.1c0.08,0.16,0.15,0.24,0.31,0.36
		c0.03,0.02,0.09,0.06,0.12,0.09c0.04,0.03,0.08,0.07,0.1,0.08c0.02,0.01,0.07,0.05,0.12,0.09c0.05,0.03,0.13,0.1,0.2,0.15
		s0.15,0.11,0.18,0.14c0.05,0.04,0.13,0.11,0.21,0.17c0.1,0.08,0.16,0.15,0.2,0.18c0.02,0.02,0.08,0.06,0.11,0.08l0.07,0.06
		l0.03,0.03c0.02,0.01,0.05,0.05,0.07,0.07c0.01,0.01,0.07,0.05,0.1,0.07c0.03,0.02,0.07,0.04,0.09,0.06
		c0.02,0.01,0.04,0.03,0.05,0.03s0.02,0.02,0.02,0.03c0,0.01,0.03,0.02,0.05,0.03c0.02,0.01,0.05,0.05,0.07,0.08
		c0.02,0.03,0.05,0.05,0.06,0.05c0.01,0,0.02,0.01,0.03,0.02c0.01,0.01,0.02,0.02,0.02,0.01s0.01,0,0.02,0.01
		c0.01,0.01,0.01,0.03,0.01,0.04c0,0.01,0.01,0.02,0.03,0.03c0.03,0.01,0.06,0.03,0.08,0.07c0.01,0.02,0.02,0.04,0.04,0.04
		c0.04,0,0.08,0.02,0.08,0.03c0,0.01,0.02,0.02,0.04,0.03c0.01,0.01,0.03,0.02,0.03,0.03c0,0.01,0.02,0.01,0.04,0.01
		c0.04,0.01,0.13,0.05,0.13,0.06c0,0.01,0.01,0,0.02,0s0.04,0.01,0.05,0.02c0.02,0.01,0.04,0.02,0.05,0.02
		c0.02,0,0.17,0.04,0.2,0.05c0.01,0,0.02,0.02,0.03,0c0.03,0.02,0.14,0.02,0.41,0.04c0.12,0.01,0.23,0.01,0.24,0.02
		c0.04,0.02,0.58,0.02,0.76,0.01c0.15-0.01,0.23-0.01,0.26-0.01c0.02,0,0.05,0,0.08-0.01c0.03-0.01,0.06-0.01,0.07-0.01
		c0.02,0.01,0.03,0.01,0.04-0.01c0.01-0.01,0.01-0.03,0.02-0.01c0.01,0.01,0.02,0,0.03-0.02c0.01-0.01,0.04-0.02,0.06-0.02
		c0.09-0.01,0.12-0.02,0.13-0.03c0.01-0.01,0.03-0.02,0.04-0.02s0.02-0.01,0.03-0.02c0.01-0.01,0.04-0.02,0.05-0.02
		c0.03,0,0.06-0.01,0.09-0.03c0.01-0.01,0.02-0.01,0.03-0.01c0.01,0,0.03-0.02,0.05-0.03c0.05-0.03,0.18-0.09,0.25-0.13
		c0.04-0.02,0.08-0.03,0.08-0.04c0.01-0.02,0.14-0.08,0.16-0.08c0.01,0,0.02-0.01,0.03-0.02s0.01-0.01,0.02-0.01
		c0.01,0,0.01-0.01,0.02-0.02s0.02-0.01,0.03-0.01c0.01,0,0.02,0,0.03-0.01C24.79,7,24.8,6.99,24.82,6.99
		c0.02,0,0.03-0.01,0.03-0.02s0.01-0.03,0.02-0.03c0.02-0.01,0.17-0.12,0.18-0.13c0-0.01,0.01-0.01,0.02-0.01s0.03-0.01,0.04-0.02
		c0.01-0.01,0.04-0.03,0.07-0.04c0.06-0.02,0.08-0.03,0.08-0.06c0.02,0.01,0.03,0,0.04-0.03c0-0.01,0.01-0.02,0.02-0.02
		c0.02,0,0.04-0.01,0.07-0.04c0.01-0.01,0.01-0.01,0.02-0.01s0.04-0.04,0.05-0.07c0-0.01,0.01-0.02,0.02-0.02
		c0.01,0,0.03-0.02,0.03-0.03c0.01-0.02,0.06-0.08,0.08-0.1c0.03-0.01,0.12-0.08,0.18-0.14c0.02-0.02,0.03-0.03,0.05-0.04
		c0-0.01,0-0.02,0.01-0.04c0.01-0.02,0.03-0.04,0.03-0.06c0-0.01,0.01-0.04,0.02-0.06C25.9,5.99,25.9,5.97,25.9,5.9
		c0-0.05,0-0.09,0.01-0.09s0.01-0.43,0-0.47c0.01,0,0.02,0,0.02-0.03c0-0.02,0-0.05-0.01-0.07c-0.01-0.05,0.01-0.76,0.02-0.79
		c0.01-0.01,0.01-0.04,0.02-0.07c0.01-0.04,0.02-0.08,0.03-0.1C26,4.25,26,4.22,26,4.19c-0.01-0.04,0-0.04,0.01-0.04
		s0.02-0.01,0.03-0.07c0.01-0.03,0.02-0.08,0.03-0.11c0.01-0.03,0.02-0.05,0.02-0.06s0-0.03,0.01-0.04s0.02-0.04,0.03-0.09
		c0.01-0.07,0.02-0.1,0.05-0.13c0.01-0.01,0.03-0.03,0.03-0.05c0.01-0.02,0.02-0.04,0.04-0.05C26.3,3.52,26.38,3.52,26.38,3.56z
		 M19.85,0.87c0.04,0.03,0.08,0.05,0.08,0.06c0,0.02,0.02,0.03,0.03,0.03c0.01,0,0.03,0,0.03,0.01c0.01,0.02,0.04,0.04,0.18,0.09
		c0.06,0.02,0.12,0.04,0.13,0.05c0.01,0.01,0.02,0,0.03,0c0.02-0.01,0.04,0.02,0.05,0.05c0.01-0.01,0.02,0,0.03,0.02
		c0.01,0.01,0.04,0.03,0.06,0.04c0.02,0.02,0.05,0.05,0.07,0.08c0.02,0.03,0.04,0.06,0.05,0.07c0.01,0.01,0.02,0.03,0.03,0.05
		c0.02,0.03,0.05,0.2,0.05,0.24c0,0.01,0,0.02,0.01,0.02s0.02,0.17,0.01,0.22c-0.02,0.07-0.03,0.13-0.02,0.14v0.49
		c0,0.05-0.01,0.16-0.03,0.19c-0.02,0.04-0.11,0.08-0.18,0.1c-0.02,0.01-0.05,0.01-0.05,0.02s-0.01,0.01-0.02,0.01
		c-0.01,0-0.02,0-0.03,0.01c0,0.01-0.01,0.01-0.02,0.01c-0.01-0.01-0.01,0-0.02,0.01C20.3,2.9,20.1,2.91,20.06,2.89
		C20,2.86,19.93,2.84,19.89,2.84c-0.02,0-0.06,0-0.08-0.01c-0.06-0.02-0.15-0.01-0.18,0.01c-0.05,0.03-0.06,0.03-0.08,0.04
		c-0.01,0-0.03,0.01-0.04,0.02c-0.01,0.01-0.01,0.01-0.02,0.01c-0.02-0.01-0.08,0-0.09,0.02c-0.01,0.02-0.01,0.02-0.02,0
		c-0.01-0.01-0.02-0.01-0.04,0.02c-0.02,0.02-0.03,0.02-0.06,0.01c-0.04-0.03-0.07-0.1-0.07-0.17c0-0.03-0.01-0.06,0-0.06
		c0.01,0,0.07-0.09,0.06-0.11c0-0.01-0.01-0.02,0-0.03c0.03-0.02,0.06-0.16,0.04-0.2c0-0.01-0.01-0.05,0-0.07
		c0.01-0.03,0.01-0.08,0.01-0.13c0-0.06,0.01-0.08,0.02-0.09c0.01-0.01,0.01-0.03,0.01-0.05c0-0.02-0.02-0.05-0.07-0.11
		c-0.04-0.04-0.07-0.09-0.07-0.1c0-0.01-0.01-0.03-0.02-0.06c-0.01-0.02-0.03-0.07-0.04-0.11c-0.01-0.04-0.02-0.09-0.03-0.1
		c-0.01-0.01-0.01-0.03-0.01-0.04c0-0.01,0-0.03-0.01-0.04c-0.01-0.01-0.01-0.04-0.02-0.07l-0.03-0.09c-0.03-0.08,0-0.22,0.05-0.23
		c0.01,0,0.03-0.02,0.04-0.03c0.03-0.03,0.08-0.06,0.17-0.11c0.02-0.01,0.05-0.04,0.07-0.06c0.03-0.02,0.06-0.04,0.07-0.04
		c0.02,0,0.03-0.01,0.03-0.02c0.01-0.02,0.01-0.02,0.02-0.02c0.01,0,0.05,0,0.08-0.01C19.68,0.78,19.75,0.8,19.85,0.87z M21.78,0
		c0,0.01,0.01,0.01,0.02,0.01c0.01,0,0.01,0,0.02,0.01s0.03,0.02,0.05,0.03c0.02,0.01,0.04,0.02,0.05,0.03
		c0.01,0.01,0.03,0.01,0.04,0.01s0.03,0.01,0.05,0.02c0.02,0.01,0.05,0.03,0.07,0.03s0.04,0.02,0.05,0.03
		c0.01,0.01,0.03,0.02,0.07,0.02c0.03,0,0.07,0.01,0.09,0.02c0.03,0.01,0.06,0.02,0.15,0.02c0.11-0.01,0.23-0.03,0.25-0.04
		c0.01,0,0.03,0,0.04,0.01c0.02,0.01,0.04,0.01,0.13,0c0.06-0.01,0.17-0.02,0.24-0.02c0.19-0.01,0.37-0.03,0.42-0.04
		c0.09-0.02,0.33-0.06,0.36-0.06c0.02,0,0.03,0,0.04-0.01s0.02-0.01,0.05,0.01c0.02,0.01,0.05,0.02,0.06,0.02
		c0.03,0,0.11,0.04,0.12,0.05c0.01,0.01,0.01,0.01,0.02,0.01s0.03,0.01,0.05,0.03c0.02,0.02,0.03,0.03,0.04,0.03
		c0.02,0,0.05,0.07,0.05,0.09c0,0.01,0.02,0.04,0.05,0.07c0.03,0.03,0.04,0.05,0.04,0.06s0,0.02,0.01,0.03
		c0.01,0.01,0.01,0.02,0,0.03c-0.01,0.01,0,0.02,0.02,0.06c0.06,0.08,0.16,0.22,0.17,0.25c0.01,0.04,0.14,0.17,0.19,0.2
		c0.04,0.02,0.08,0.07,0.08,0.11c0,0.02,0.01,0.02,0.02,0.03c0.01,0.01,0.04,0.03,0.05,0.05c0.02,0.03,0.03,0.05,0.03,0.14
		c0.01,0.2,0.01,0.24-0.05,0.29c-0.06,0.05-0.09,0.07-0.17,0.07c-0.03,0-0.03,0-0.04,0.02c0,0.01,0,0.02-0.01,0.02
		c-0.01,0-0.03,0.01-0.05,0.03C24.63,1.79,24.61,1.8,24.6,1.8s-0.01,0.01-0.02,0.03c-0.01,0.02-0.03,0.03-0.04,0.04l-0.06,0.07
		c-0.02,0.02-0.05,0.05-0.06,0.05S24.39,2,24.38,2.01c-0.01,0.01-0.02,0.03-0.03,0.03s-0.01,0.01-0.01,0.03
		c0.01,0.02-0.01,0.04-0.03,0.06c-0.02,0.02-0.03,0.03-0.03,0.04c0,0.01,0,0.02-0.01,0.03c-0.02,0.02-0.02,0.11-0.01,0.15
		c0.01,0.03,0.01,0.06,0,0.1c-0.01,0.06,0,0.09,0.03,0.09c0.01,0,0.06,0.01,0.1,0.01c0.07,0.03,0.09,0.04,0.13,0.06
		c0.03,0.02,0.07,0.05,0.09,0.07c0.07,0.09,0.33,0.39,0.35,0.39c0.01,0,0.02,0.01,0.02,0.02c0.01,0.01,0.03,0.04,0.05,0.06
		c0.02,0.01,0.03,0.02,0.03,0.03s0.02,0.05,0.05,0.08c0.07,0.08,0.07,0.08,0.1,0.1c0.01,0.01,0.03,0.03,0.03,0.04
		s0.01,0.04,0.03,0.06c0.02,0.02,0.03,0.03,0.03,0.04c0,0.01,0.01,0.02,0.02,0.04c0.01,0.02,0.03,0.06,0.04,0.09
		c0.01,0.05,0.01,0.07-0.02,0.2c0,0.02-0.02,0.07-0.02,0.09c0,0.02,0,0.05-0.01,0.06c-0.03,0.05-0.06,0.45-0.03,0.49
		c0.01,0.01,0.01,0.18,0.01,0.48c0,0.61,0,0.64,0.02,0.64c0.01,0,0.01,0.01,0.01,0.06c0,0.08,0.04,0.33,0.07,0.39
		c0.03,0.09,0.03,0.11-0.03,0.17c-0.05,0.05-0.11,0.08-0.17,0.08c-0.01,0-0.05,0-0.08,0.01c-0.05,0.01-0.06,0.01-0.08,0
		c-0.01-0.01-0.04-0.02-0.08-0.01C24.9,6.3,24.89,6.3,24.87,6.27c-0.01-0.02-0.04-0.04-0.06-0.05c-0.05-0.03-0.1-0.1-0.11-0.19
		c-0.02-0.06-0.02-0.09-0.02-0.26c0-0.12,0-0.2,0.01-0.21c0.01-0.02,0.01-0.07,0.01-0.15c-0.01-0.09-0.02-0.11-0.09-0.15
		c-0.04-0.02-0.06-0.04-0.07-0.1c-0.01-0.03,0-0.04-0.01-0.05c0-0.01,0.1,0.01,0.13,0.02c0.05,0.03,0.08,0.02,0.1-0.03
		c0-0.01,0.01-0.03,0.02-0.04c0.02-0.03,0.05-0.21,0.05-0.36c0-0.05,0.01-0.31,0.02-0.55l0.01-0.46l-0.02-0.04
		c-0.01-0.02-0.03-0.05-0.03-0.06c0-0.04-0.18-0.23-0.27-0.27C24.52,3.31,24.5,3.31,24.5,3.3s-0.01-0.02-0.03-0.02
		s-0.03-0.01-0.04-0.02s-0.04-0.02-0.09-0.01c-0.09,0.01-0.13,0.02-0.28,0.09c-0.07,0.03-0.13,0.07-0.15,0.07
		c-0.03,0.01-0.06,0.03-0.05,0.04c0.01,0.01-0.03,0.02-0.05,0.03c-0.07,0.03-0.07,0.05-0.04,0.09c0.01,0.01,0.02,0.03,0.02,0.04
		c0,0.04,0.03,0.12,0.04,0.15c0.03,0.03,0.03,0.03,0.09,0.02c0.04,0,0.07,0,0.08-0.01c0.02-0.01,0.21-0.03,0.22-0.02
		c0.01,0.01,0.02,0.01,0.03,0.01s0.04-0.01,0.06,0c0.04,0.02,0.12,0.09,0.12,0.1c0,0.03,0.05,0.14,0.08,0.19l0.03,0.05L24.5,4.14
		c-0.03,0.03-0.04,0.04-0.09,0.05c-0.03,0.01-0.07,0.01-0.08,0.02c-0.01,0-0.03,0.01-0.04,0.01s-0.05,0.01-0.08,0.02
		s-0.07,0.03-0.09,0.03c-0.02,0-0.03,0-0.03,0.01c-0.01,0.01-0.02,0.01-0.03,0.01c-0.01,0-0.03,0.02-0.05,0.04l-0.03,0.02l0.01,0.16
		C24,4.7,24.01,4.7,24.06,4.7c0.02,0,0.04,0,0.04,0.01c0.01,0.01,0.01,0.01,0.02,0.01s0.04,0.02,0.07,0.04
		c0.03,0.02,0.07,0.04,0.08,0.04c0.01,0,0.01,0.01,0.02,0.02c0.01,0.01,0.02,0.02,0.03,0.02c0.02,0.01,0.06,0.12,0.06,0.15
		c0,0.02-0.04,0.1-0.07,0.12c-0.11,0.12-0.12,0.13-0.23,0.14h-0.03l-0.01,0.14c-0.01,0.09,0,0.23-0.01,0.34
		c-0.01,0.25-0.01,0.35,0,0.35c0.01,0,0.01,0.04,0,0.09c0,0.02-0.01,0.09-0.02,0.15c-0.01,0.12-0.04,0.26-0.07,0.3
		c-0.01,0.02-0.04,0.05-0.09,0.07c-0.03,0.02-0.08,0.04-0.09,0.05c-0.01,0.01-0.02,0.01-0.04,0.01c-0.02,0-0.05-0.01-0.07,0
		c-0.02,0.01-0.04,0-0.05,0h-0.04c-0.02,0-0.03,0-0.04-0.02c-0.01-0.01-0.02-0.04-0.03-0.04s-0.03-0.03-0.06-0.07
		c-0.02-0.03-0.06-0.07-0.09-0.1c-0.04-0.04-0.06-0.07-0.07-0.12c-0.01-0.03-0.01-0.09-0.02-0.1c-0.01-0.01-0.02-0.04-0.02-0.08
		s-0.01-0.07-0.02-0.08C23.2,6.13,23.19,6.07,23.19,6c0-0.06-0.01-0.13-0.01-0.15c0-0.02-0.01-0.07-0.01-0.09
		c0-0.03-0.01-0.05-0.01-0.06V5.6c0-0.15-0.01-0.23-0.02-0.24s-0.05-0.01-0.24,0.02c-0.1,0.01-0.16,0.01-0.18,0.01
		c-0.03-0.01-0.11-0.02-0.17-0.02h-0.12l-0.01,0.07c-0.01,0.05,0,0.08,0,0.09v0.03c0,0.01-0.02,0.08-0.02,0.16
		c-0.01,0.51-0.04,0.74-0.11,0.78c-0.01,0-0.05,0.02-0.09,0.02s-0.09,0-0.1,0.01c-0.02,0.01-0.04,0.02-0.08,0.01
		c-0.03-0.01-0.06-0.01-0.08,0c-0.02,0.01-0.03,0.01-0.03,0s-0.01-0.01-0.02-0.01c-0.02,0.01-0.1-0.05-0.22-0.17
		C21.64,6.32,21.61,6.3,21.6,6.3s-0.07-0.11-0.07-0.14c0-0.02-0.04-0.19-0.05-0.23c-0.01-0.02-0.02-0.06-0.02-0.1
		c-0.01-0.23-0.02-0.35-0.03-0.38c0-0.01-0.01-0.1-0.01-0.19v-0.2c0-0.03,0.01-0.16,0.02-0.25c0.01-0.05,0-0.07-0.01-0.08
		c-0.01-0.01,0-0.02,0-0.03c0-0.01,0.01-0.06,0.01-0.13c0.01-0.16,0.01-0.22,0.02-0.36c0.01-0.14,0.02-0.35,0.01-0.35
		c-0.01-0.01,0-0.03,0-0.05c0.02-0.08,0.03-0.23,0.02-0.24s0.02-0.24,0.04-0.3c0.01-0.03,0.02-0.1,0.02-0.16
		c0.01-0.19,0.02-0.25,0.09-0.3c0.02-0.01,0.03-0.02,0.03-0.04c0-0.02,0.04-0.07,0.06-0.07c0.01,0,0.01-0.01,0.01-0.02
		c0-0.02,0.02-0.03,0.06-0.05c0.03-0.01,0.04-0.01,0.08,0.03c0.03,0.02,0.05,0.05,0.06,0.05c0.01,0,0.03,0.01,0.05,0.03
		c0.02,0.02,0.03,0.03,0.05,0.03c0.02,0,0.03-0.01,0.03,0c0,0.02,0.02,0.03,0.06,0.03c0.02,0,0.05,0,0.06,0.01
		c0.01,0.01,0.01,0.01,0.02,0c0.02-0.02,0.05-0.01,0.06,0.01c0.01,0.01,0.02,0.01,0.1,0.01c0.11-0.01,0.12-0.01,0.19-0.01
		c0.1,0,0.49-0.04,0.49-0.05c0-0.01,0.02-0.01,0.05-0.01s0.13-0.02,0.22-0.04c0.09-0.02,0.16-0.03,0.17-0.03s-0.01-0.02-0.03-0.04
		c-0.03-0.04-0.08-0.16-0.1-0.22c-0.01-0.04-0.04-0.08-0.11-0.15l-0.05-0.1c-0.01-0.05-0.03-0.06-0.12-0.09
		C23.05,2.08,23.02,2.07,23,2.08c0-0.01-0.02-0.01-0.03-0.01h-0.04c-0.03-0.01-0.03-0.01-0.04,0c0,0.01-0.03,0.02-0.06,0.02
		c-0.03,0-0.06,0-0.08,0.01c-0.04,0.02-0.15,0.02-0.16,0.01c-0.02-0.02,0.11-0.08,0.27-0.14c0.18-0.07,0.21-0.09,0.25-0.14
		c0.02-0.02,0.04-0.05,0.06-0.06c0.02-0.01,0.03-0.02,0.03-0.03c0.03-0.01,0.04-0.08,0.03-0.1c0-0.01,0.01-0.03,0.02-0.05
		c0.01-0.02,0.03-0.03,0.02-0.04c0-0.01-0.01-0.02,0-0.02s0-0.02,0-0.03c-0.01-0.03,0.02-0.16,0.04-0.21
		c0.01-0.02,0.02-0.05,0.02-0.06c0-0.01,0.01-0.02,0.02-0.03c0.01-0.01,0.04-0.03,0.04-0.04c0.01-0.02,0.01-0.02,0.04-0.01
		c0.03,0.01,0.06,0.04,0.12,0.08c0.02,0.01,0.03,0.02,0.04,0.02c0.01,0,0.01,0.02,0.02,0.03c0.01,0.01,0.02,0.03,0.02,0.02
		c0-0.02,0.05,0.02,0.09,0.07l0.07,0.08c0.01,0.01,0.04,0.03,0.05,0.05l0.04,0.03l0.05-0.04l0.1-0.1c0.03-0.02,0.05-0.04,0.05-0.05
		s0.02-0.04,0.05-0.07c0.07-0.09,0.11-0.14,0.1-0.19c0-0.02-0.01-0.05-0.01-0.06C24.22,1.01,24.21,1,24.2,1
		c-0.01,0-0.02-0.01-0.02-0.02c0-0.01-0.01-0.02-0.02-0.03c-0.01-0.01-0.01-0.01-0.01-0.02c0.01-0.02-0.05-0.08-0.07-0.08
		c-0.01,0-0.02-0.02-0.03-0.05c-0.01-0.02-0.03-0.04-0.04-0.04s-0.02-0.01-0.03-0.03c-0.01-0.02-0.02-0.03-0.03-0.03
		c-0.01,0.01-0.02,0.01-0.09-0.03c-0.02-0.01-0.04-0.02-0.06-0.02c-0.03,0-0.21,0.06-0.22,0.07c0,0.01-0.03,0.02-0.07,0.03
		c-0.03,0.01-0.07,0.02-0.08,0.03c-0.01,0.01-0.08,0.05-0.15,0.07c-0.14,0.05-0.2,0.08-0.23,0.11c-0.01,0.01-0.03,0.02-0.04,0.02
		S22.96,1,22.91,1.03c-0.05,0.03-0.09,0.06-0.1,0.06c-0.02,0-0.18,0.08-0.19,0.09c-0.01,0.01-0.03,0.01-0.04,0.01
		c-0.01,0-0.03,0-0.03,0.01c0,0.01-0.01,0.03-0.03,0.03c-0.02,0-0.05,0.01-0.06,0.02c-0.01,0.02-0.02,0.03-0.03,0.03
		s-0.05,0.02-0.08,0.05c-0.03,0.03-0.06,0.05-0.07,0.05c-0.01,0-0.02,0.01-0.03,0.03c-0.01,0.01-0.05,0.05-0.08,0.07
		c-0.05,0.04-0.05,0.04-0.16,0.04h-0.12l-0.07-0.05c-0.04-0.03-0.07-0.05-0.09-0.08c-0.02-0.02-0.05-0.06-0.08-0.08
		c-0.03-0.03-0.05-0.06-0.04-0.06c0.01-0.01,0.01-0.01,0-0.02c-0.01-0.02-0.05-0.19-0.05-0.24c0-0.02,0-0.04-0.01-0.05
		c-0.01-0.01-0.02-0.08-0.03-0.15c-0.01-0.09-0.01-0.15-0.01-0.18c0.01-0.07,0-0.11-0.01-0.13c-0.02-0.03-0.02-0.04-0.02-0.06
		c0.01-0.02,0-0.14-0.01-0.21c0-0.03,0-0.04,0.03-0.06c0.02-0.01,0.04-0.02,0.04-0.03c0-0.01,0.01-0.02,0.02-0.03
		c0.01-0.01,0.02-0.03,0.02-0.04c0.01-0.02,0.02-0.02,0.07-0.01c0.03,0,0.05,0.01,0.06,0c0-0.01,0.01-0.02,0.03-0.03
		C21.76,0,21.78-0.01,21.78,0z M23.19,3.61c-0.01,0.01-0.02,0.01-0.04,0.01c-0.02,0-0.03,0-0.04,0.01
		c-0.01,0.01-0.04,0.01-0.07,0.02c-0.11,0.02-0.23,0.04-0.25,0.05c-0.01,0-0.06,0.01-0.1,0.03c-0.08,0.01-0.16,0.03-0.18,0.06
		c-0.01,0.01-0.02,0.02-0.03,0.02c-0.01,0-0.01,0.01-0.02,0.02s-0.03,0.05-0.05,0.06c-0.03,0.02-0.04,0.03-0.05,0.06
		c-0.01,0.04,0.01,0.14,0.02,0.18c0.01,0.03,0.01,0.03,0.08,0.03c0.04,0,0.08,0,0.1-0.01c0.03-0.01,0.14-0.04,0.21-0.05
		c0.03,0,0.06-0.01,0.07-0.02s0.03-0.01,0.04-0.01s0.03,0,0.06-0.01c0.02-0.01,0.05-0.02,0.06-0.02c0.01,0,0.06-0.03,0.1-0.04
		c0.07-0.03,0.08-0.04,0.08-0.06c0.01-0.02,0.02-0.09,0.02-0.14c0-0.05,0.01-0.12,0.01-0.15C23.22,3.6,23.21,3.58,23.19,3.61z
		 M23.14,4.49c-0.01,0-0.03,0.01-0.06,0.01c-0.02,0-0.05,0-0.06,0.01c-0.01,0-0.04,0.02-0.06,0.02c-0.03,0-0.06,0.01-0.06,0.02
		c-0.01,0.01-0.03,0.01-0.06,0.01s-0.05,0-0.06,0.01h-0.11c-0.05-0.01-0.11-0.01-0.12-0.01s-0.03,0.01-0.05,0
		c-0.05-0.02-0.08,0-0.08,0.05c0,0.32,0.01,0.39,0.01,0.4c0.01,0.02,0.08,0.03,0.12,0.01c0.02-0.01,0.04-0.01,0.05-0.01
		S22.66,5,22.69,4.99c0.06-0.02,0.2-0.05,0.27-0.06c0.03-0.01,0.07-0.01,0.1-0.02c0.08-0.02,0.08-0.02,0.09-0.09v-0.1
		c-0.01-0.03-0.01-0.04,0-0.05c0.02-0.02,0.03-0.16,0.01-0.17C23.15,4.49,23.15,4.49,23.14,4.49z"/>
	<path class="st0" d="M30.09,0.39h0.02c0-0.01,0.01-0.01,0.02,0c0.01,0,0.04,0.01,0.07,0.02c0.04,0.01,0.05,0.02,0.05,0.03
		s0.01,0.02,0.02,0.03c0.02,0.01,0.03,0,0.04-0.01c0.01-0.02,0.01-0.02,0.02,0.01c0.01,0.02,0.03,0.04,0.03,0.05
		c0,0.01,0.02,0.03,0.06,0.06s0.07,0.06,0.08,0.08c0.01,0.02,0.03,0.04,0.04,0.05s0.03,0.05,0.04,0.09c0.02,0.04,0.05,0.08,0.06,0.1
		c0.02,0.03,0.02,0.05,0.01,0.07c-0.01,0.03,0,0.07,0.03,0.1c0.01,0.01,0.02,0.03,0.02,0.04c0,0.01,0.02,0.04,0.03,0.06
		c0.04,0.05,0.04,0.08,0.03,0.11c-0.01,0.02-0.01,0.03,0,0.04c0.03,0.03,0.05,0.1,0.05,0.14c0,0.03,0.01,0.05,0.02,0.06
		c0.01,0.01,0.02,0.03,0.02,0.04c0,0.02,0.03,0.07,0.05,0.09c0.01,0.01,0.01,0.06,0.01,0.16s0,0.13,0.01,0.14
		c0.02,0.01,0.02,0.17,0,0.19c-0.01,0.01-0.01,0.05,0.01,0.12c0.01,0.03,0.01,0.04,0,0.05c-0.01,0-0.01,0.02-0.01,0.03
		c0,0.01,0,0.02-0.01,0.03C30.9,2.38,30.9,2.42,30.9,2.44c0,0.02-0.02,0.05-0.03,0.06c-0.01,0.01-0.02,0.04-0.02,0.05
		s-0.04,0.08-0.06,0.09c-0.02,0.01-0.07,0.1-0.07,0.12c0,0.01,0,0.02-0.01,0.02s-0.05,0.02-0.09,0.06s-0.09,0.08-0.1,0.08
		c-0.01,0-0.03,0.01-0.04,0.04c-0.01,0.02-0.04,0.05-0.07,0.07c-0.03,0.01-0.07,0.05-0.08,0.07c-0.02,0.02-0.04,0.04-0.05,0.04
		c-0.01,0-0.01,0.01-0.01,0.02c0.01,0.01,0,0.03-0.04,0.06c-0.03,0.03-0.06,0.05-0.07,0.07c-0.01,0.02-0.02,0.04-0.03,0.04
		s-0.06,0.06-0.07,0.09c0,0.01-0.03,0.03-0.05,0.05l-0.05,0.04c-0.01,0.01-0.03,0.03-0.05,0.04c-0.03,0.01-0.05,0.03-0.06,0.05
		c0,0.02-0.01,0.04-0.03,0.05c-0.02,0.01-0.03,0.02-0.03,0.03v0.07c-0.01,0.04-0.01,0.04,0.01,0.05c0.03,0.01,0.04,0.02,0.02,0.05
		c-0.01,0.02-0.01,0.03,0.01,0.07c0.01,0.02,0.02,0.05,0.02,0.06s0,0.02,0.01,0.03c0.02,0.01,0.02,0.03,0.02,0.05
		c0,0.01,0.01,0.06,0.03,0.1s0.04,0.08,0.04,0.09s0.01,0.04,0.03,0.07C30,4.35,30.02,4.38,30.02,4.4c0.01,0.02,0.01,0.04,0.03,0.04
		c0.01,0,0.03,0,0.03,0.01s0.01,0.01,0.03,0.01c0.02,0,0.03,0,0.03,0.01s0.01,0.01,0.03,0.01c0.06,0,0.16-0.01,0.18-0.02
		c0.02-0.01,0.04-0.02,0.05-0.01c0.01,0.01,0.01,0,0.02-0.01c0.01-0.01,0.03-0.02,0.05-0.02h0.05c0.01,0,0.04,0.01,0.07,0.01
		c0.1,0.01,0.11,0.03,0.06,0.13c-0.02,0.05-0.03,0.06-0.05,0.06c-0.02,0-0.05,0.04-0.05,0.06c0,0.02-0.02,0.01-0.04-0.01
		c-0.01-0.01-0.02-0.01-0.03,0c-0.01,0.01-0.04,0.02-0.07,0.02c-0.03,0-0.06,0.01-0.08,0.02c-0.02,0.01-0.04,0.02-0.05,0.02
		c-0.02-0.01-0.08,0.02-0.09,0.04c-0.01,0.01,0,0.02,0,0.03s-0.01,0.03-0.02,0.05c-0.02,0.03-0.02,0.04-0.01,0.07
		c0.01,0.02,0.01,0.03,0,0.04c-0.01,0.02-0.01,0.04-0.01,0.1c0.02,0.13-0.01,0.25-0.07,0.31c-0.07,0.06-0.16,0.1-0.21,0.11
		c-0.02,0-0.05,0.01-0.05,0.02c0,0.01-0.02,0.01-0.07,0.01c-0.06,0-0.08,0-0.11,0.01c-0.03,0.02-0.03,0.02-0.09-0.01
		c-0.08-0.04-0.18-0.14-0.18-0.17c0.01-0.02-0.07-0.16-0.09-0.17c-0.01,0-0.01-0.02-0.02-0.04c-0.02-0.05-0.06-0.12-0.08-0.14
		c-0.01-0.01-0.04-0.05-0.06-0.11c-0.03-0.06-0.05-0.12-0.06-0.12c-0.01-0.01-0.01-0.02-0.01-0.04c0-0.01-0.01-0.03-0.03-0.06
		C29,4.64,28.99,4.62,29,4.61c0.01-0.01,0-0.03-0.02-0.03c-0.01,0-0.01-0.01-0.01-0.02c0-0.01,0-0.02-0.01-0.02
		c-0.01,0-0.02-0.01-0.02-0.02c0-0.01-0.01-0.04-0.03-0.05c-0.01,0-0.02-0.02-0.02-0.03c0-0.01,0-0.01-0.01-0.02
		c-0.02-0.02-0.03-0.04-0.04-0.1c-0.01-0.06-0.05-0.15-0.07-0.18c-0.01-0.01-0.02-0.05-0.03-0.09c-0.01-0.04-0.01-0.06-0.02-0.07
		s-0.02-0.01-0.01-0.02c0.01-0.01-0.01-0.03-0.02-0.07c-0.01-0.04-0.02-0.09-0.02-0.1c0-0.01-0.01-0.03-0.01-0.04
		c0-0.02-0.01-0.04,0-0.06c0.01-0.02,0.01-0.05,0.01-0.14c-0.01-0.2,0-0.24,0.02-0.26c0.01-0.01,0.02-0.02,0.01-0.02
		c-0.01-0.01-0.01-0.03,0-0.05c0.01-0.02,0.02-0.03,0.01-0.04c0-0.01,0.01-0.03,0.02-0.06c0.01-0.03,0.02-0.08,0.03-0.1
		c0.01-0.03,0.02-0.07,0.03-0.07c0.02-0.01,0.03-0.05,0.03-0.09c0-0.02,0.01-0.04,0.02-0.05c0.01-0.01,0.01-0.03,0.01-0.04
		c0-0.01,0.01-0.03,0.02-0.03c-0.01-0.01,0-0.02,0.02-0.04c0.03-0.03,0.04-0.08,0.04-0.13c0-0.02,0.01-0.04,0.02-0.06
		c0.01-0.02,0.02-0.03,0.02-0.04c0-0.01,0-0.02,0.01-0.03C28.99,2.43,29,2.42,29,2.4c0-0.02,0.01-0.04,0.02-0.05
		c0.01-0.01,0.02-0.03,0.02-0.04c0-0.01,0.04-0.11,0.06-0.13c0.03-0.03,0.05-0.11,0.05-0.14c0-0.03,0.05-0.17,0.05-0.14
		c0,0.01,0.03-0.06,0.03-0.07c0-0.01,0.01-0.02,0.02-0.03c0.01-0.01,0.02-0.02,0.02-0.04c0-0.02,0-0.03,0.01-0.03
		s0.01-0.01,0.01-0.03c0-0.02,0-0.04,0.01-0.04c0.01,0,0.02-0.02,0.02-0.04c0-0.02,0.01-0.05,0.02-0.06
		c0.03-0.04,0.04-0.09,0.04-0.12c0-0.02,0.01-0.04,0.03-0.05c0.01-0.01,0.02-0.03,0.02-0.04s0.01-0.02,0.02-0.03
		c0.01-0.01,0.02-0.04,0.02-0.06s0.01-0.04,0.02-0.05s0.01-0.03,0.01-0.04c0-0.02,0-0.04,0.01-0.05c0.02-0.01,0.02-0.01,0.02-0.03
		V1.05c0.01-0.01,0.02-0.04,0.02-0.08c0.01-0.04,0.02-0.08,0.03-0.09c0.01-0.01,0.01-0.02,0.01-0.04c0-0.02,0-0.04,0.01-0.05
		c0.01-0.02,0.01-0.03,0.01-0.04c-0.01-0.02-0.01-0.08,0-0.09c0.01,0,0.01-0.02,0.01-0.03c0-0.04,0.03-0.12,0.05-0.12
		c0.01,0,0.02,0.01,0.02,0.02s0,0.02,0.01,0.02s0.05-0.05,0.05-0.07c0-0.02,0.01-0.02,0.03-0.02c0.02,0,0.03-0.01,0.04-0.01
		c0.01-0.01,0.02,0,0.03,0.01c0,0.01,0.01,0,0.04-0.04c0.01-0.01,0.02-0.01,0.03-0.01s0.02,0,0.03-0.01S29.99,0.39,30,0.39
		C30.04,0.38,30.08,0.38,30.09,0.39z M32.88,0.82c0.02,0.05,0.05,0.08,0.06,0.08c0.02,0,0.02,0.02,0.02,0.05
		c0,0.01,0.01,0.03,0.02,0.04c0.01,0.01,0.01,0.02,0.01,0.03c0,0.01,0,0.05,0.02,0.09c0.04,0.09,0.12,0.26,0.16,0.37
		c0.02,0.05,0.03,0.08,0.03,0.09c0.01,0.02,0.05,0.13,0.06,0.18c0.01,0.03,0.04,0.12,0.06,0.19l0.05,0.21
		c0.01,0.03,0.02,0.06,0.02,0.07c0,0.01,0.01,0.03,0.01,0.05c0.01,0.06,0.01,0.1,0.02,0.14c0.01,0.02,0.02,0.08,0.02,0.12
		s0,0.09,0.01,0.11c0.02,0.06,0.02,0.35,0.01,0.42c-0.01,0.03-0.01,0.18-0.02,0.33c-0.01,0.16-0.02,0.3-0.03,0.31
		s-0.02,0.08-0.03,0.15C33.37,3.93,33.37,3.99,33.37,4c0,0.01-0.01,0.03-0.02,0.05c-0.01,0.02-0.01,0.03-0.01,0.05
		c0,0.02-0.01,0.05-0.02,0.07c-0.01,0.02-0.02,0.06-0.02,0.07s0,0.04-0.01,0.07c-0.01,0.02-0.01,0.06-0.01,0.07
		s-0.02,0.05-0.03,0.08c-0.01,0.03-0.02,0.1-0.04,0.16c-0.02,0.06-0.04,0.15-0.06,0.19l-0.06,0.16C33.08,5,33.07,5.03,33.06,5.05
		c-0.01,0-0.01,0.01-0.01,0.02c0,0.01-0.01,0.03-0.03,0.06C33,5.15,32.99,5.21,32.97,5.25c-0.02,0.03-0.05,0.11-0.07,0.15
		c-0.02,0.04-0.04,0.08-0.04,0.09s-0.01,0.02-0.02,0.03c-0.01,0-0.02,0.02-0.02,0.04c0,0.01-0.02,0.06-0.05,0.11
		c-0.02,0.05-0.22,0.48-0.23,0.5c-0.01,0.02-0.01,0.05-0.02,0.06c-0.03,0.05-0.05,0.09-0.05,0.11c0,0.01,0,0.03-0.01,0.04
		s-0.03,0.07-0.05,0.13c-0.02,0.06-0.03,0.12-0.04,0.12c-0.01,0-0.02,0.05-0.02,0.06c0,0.01,0,0.02-0.01,0.03s-0.02,0.05-0.02,0.07
		c0,0.02-0.01,0.05-0.01,0.06c-0.02,0.02-0.06,0.35-0.05,0.38c0,0.01,0,0.03-0.01,0.04s-0.01,0.03,0,0.05c0,0.01,0,0.05-0.01,0.13
		c-0.01,0.07,0,0.14,0,0.17v0.14c0,0.04,0,0.09,0.01,0.11c0.01,0.02,0.01,0.09,0.01,0.15c0,0.1,0,0.11-0.02,0.13
		c-0.01,0.01-0.02,0.04-0.02,0.05c0,0.03-0.08,0.15-0.14,0.21c-0.03,0.03-0.07,0.06-0.1,0.07c-0.03,0.01-0.05,0.02-0.06,0.03
		s-0.03,0.03-0.07,0.04c-0.05,0.01-0.08,0.01-0.13,0.01c-0.07,0-0.23-0.05-0.29-0.08c-0.02-0.01-0.05-0.02-0.06-0.02
		c-0.02,0-0.05-0.02-0.06-0.03s-0.04-0.03-0.07-0.04s-0.08-0.03-0.11-0.05c-0.07-0.03-0.19-0.21-0.22-0.3
		c-0.01-0.03-0.02-0.06-0.02-0.07c-0.02-0.03-0.04-0.1-0.04-0.17c0-0.04-0.01-0.1-0.02-0.14c0-0.01-0.02-0.1-0.03-0.16
		c0-0.06-0.02-0.13-0.02-0.15V7.27c0-0.02,0.01-0.06,0-0.09c-0.01-0.03-0.01-0.09-0.01-0.15c0-0.17,0-0.2,0.02-0.17
		c0.01,0,0.02-0.02,0.01-0.04c-0.02-0.06-0.02-0.09,0.01-0.13c0.02-0.03,0.02-0.05,0.02-0.06s0.01-0.07,0.03-0.08
		c0.02-0.02,0.03-0.03,0.03-0.04s0.01-0.04,0.03-0.07c0.02-0.03,0.04-0.05,0.04-0.06S30.98,6.34,31,6.32
		c0.02-0.02,0.04-0.04,0.05-0.06c0.01-0.02,0.03-0.06,0.06-0.09c0.02-0.03,0.04-0.06,0.04-0.07c0-0.01,0.05-0.05,0.06-0.09
		c0.03-0.09,0.05-0.14,0.1-0.26c0-0.01,0.01-0.03,0.02-0.04c0.01-0.01,0.02-0.02,0.02-0.04c0-0.04,0.08-0.19,0.11-0.23
		c0.01-0.02,0.04-0.06,0.08-0.11c0.04-0.05,0.03-0.08,0.04-0.1c0.01-0.01,0.02-0.04,0.03-0.06c0.01-0.02,0.03-0.05,0.04-0.06
		s0.02-0.04,0.03-0.06c0.01-0.01,0.05-0.07,0.05-0.08c0.02-0.03,0.05-0.09,0.07-0.14c0.03-0.04,0.06-0.1,0.07-0.11
		s0.02-0.03,0.02-0.04s0.01-0.02,0.02-0.04c0.01-0.02,0.05-0.08,0.07-0.11c0.02-0.05,0.05-0.09,0.06-0.11
		c0.02-0.02,0.05-0.08,0.08-0.13c0.03-0.06,0.07-0.13,0.09-0.16c0.02-0.03,0.04-0.05,0.03-0.05c0-0.01,0-0.03,0.01-0.05
		c0.01-0.02,0.02-0.05,0.03-0.07c0.01-0.02,0.02-0.04,0.03-0.05s0.01-0.03,0.01-0.04c0.01-0.03,0.04-0.08,0.05-0.09
		c0.01,0,0.01-0.02,0.01-0.03c0-0.01,0.01-0.03,0.02-0.05c0.03-0.06,0.03-0.07,0.03-0.1c0-0.01,0-0.01,0.01-0.02
		c0.02-0.01,0.06-0.13,0.06-0.16c0-0.01,0-0.02,0.01-0.02s0.01-0.01,0.02-0.04c0.03-0.12,0.17-0.69,0.17-0.7s0-0.03,0.01-0.06
		c0.01-0.04,0.01-0.16,0.02-0.26c0.01-0.18,0.01-0.23,0-0.4c-0.01-0.1-0.02-0.19-0.03-0.19c-0.01,0,0-0.01,0-0.02
		c0.02-0.04-0.02-0.35-0.05-0.47c-0.01-0.03-0.02-0.06-0.02-0.1c-0.01-0.08-0.04-0.22-0.07-0.34c-0.01-0.05-0.03-0.09-0.02-0.1
		c0.01,0,0.01,0.01,0.02,0.04c0.02,0.05,0.03,0.06,0.04,0.04c0.01-0.02,0.04,0.01,0.07,0.08c0.02,0.03,0.03,0.07,0.04,0.06
		c0.01-0.01-0.02-0.17-0.03-0.21c0-0.01,0-0.01,0.02,0.01c0.04,0.03,0.1,0.07,0.11,0.06s0-0.02-0.01-0.05
		c-0.01-0.03-0.02-0.04-0.02-0.05C32.78,0.68,32.85,0.75,32.88,0.82z"/>
</g>
</svg>
