<?xml version="1.0" encoding="utf-8"?>
<!-- Generator: Adobe Illustrator 25.0.0, SVG Export Plug-In . SVG Version: 6.00 Build 0)  -->
<svg version="1.1" id="Layer_1" xmlns="http://www.w3.org/2000/svg" xmlns:xlink="http://www.w3.org/1999/xlink" x="0px" y="0px"
	 viewBox="0 0 34.88 8.38" enable-background="new 0 0 34.88 8.38" xml:space="preserve">
<g>
	<path fill="#9E5C4C" d="M5.15,0.26H5.2l0.05,0.05c0.03,0.03,0.06,0.06,0.06,0.07c0,0.01,0.03,0.04,0.06,0.07
		C5.42,0.5,5.44,0.54,5.44,0.57c0,0.01,0.01,0.02,0.02,0.03c0.01,0.01,0.02,0.03,0.02,0.04c0,0.01,0,0.03,0.01,0.04
		c0.01,0.01,0,0.03,0,0.04c0.02,0.01,0.02,0.02,0.03,0.05c0.05,0.2,0.16,0.5,0.23,0.6C5.77,1.4,5.79,1.44,5.8,1.46
		c0.01,0.03,0.01,0.06,0.02,0.07s0.02,0.02,0.04,0.03l0.04,0.1c0.01,0.03,0.02,0.08,0.02,0.1c0,0.02,0.01,0.06,0.02,0.09
		C5.95,1.88,5.99,1.92,6,1.96c0.03,0.07,0.04,0.09,0.06,0.09c0.02,0,0.05,0,0.08-0.01c0.02-0.01,0.07-0.01,0.09-0.01
		c0.02,0,0.04-0.01,0.06-0.03c0.02-0.02,0.02-0.02,0.08,0c0.04,0.01,0.06,0.01,0.09,0S6.5,1.99,6.51,2s0.01,0,0.02-0.01
		c0.01-0.02,0.01-0.02,0.03,0C6.57,2,6.58,2,6.6,1.98c0.02-0.02,0.03-0.02,0.05-0.02H6.7c0.01-0.01,0.03-0.01,0.04,0
		c0.02,0.01,0.04,0.01,0.07,0c0.05-0.02,0.06-0.02,0.08,0.01C6.9,1.98,6.92,1.99,6.94,2c0.02,0.01,0.03,0.03,0.03,0.04
		s0,0.02,0.01,0.02S7,2.07,7.01,2.08c0.02,0.01,0.03,0.01,0.05,0c0.03-0.01,0.04-0.01,0.05,0c0.02,0.01,0.03,0.03,0.03,0.05
		c0,0.01,0.01,0.01,0.04,0.02c0.05,0.01,0.09,0.04,0.1,0.08C7.29,2.24,7.29,2.25,7.3,2.25s0.03,0,0.04,0.01l0.09,0.05
		c0.05,0.02,0.09,0.05,0.1,0.06c0.03,0.04,0.12,0.14,0.15,0.15c0.04,0.01,0.09,0.09,0.09,0.12c0,0.02,0.01,0.05,0.02,0.07
		c0.01,0.02,0.01,0.03,0,0.05c-0.01,0.03,0,0.05,0.04,0.09C7.88,2.9,7.88,2.93,7.85,3.03C7.84,3.08,7.84,3.09,7.86,3.1
		C7.89,3.13,7.9,3.2,7.88,3.25C7.87,3.28,7.87,3.3,7.87,3.31c0.02,0.03,0.02,0.09,0,0.13C7.86,3.46,7.85,3.49,7.85,3.51
		c0,0.02,0,0.05-0.01,0.05c-0.02,0.01-0.07-0.03-0.1-0.05C7.73,3.5,7.69,3.48,7.65,3.47C7.61,3.46,7.57,3.44,7.54,3.43
		C7.49,3.4,7.42,3.39,7.38,3.41C7.36,3.42,7.34,3.42,7.32,3.42c-0.02-0.01-0.06-0.01-0.07,0c-0.02,0.01-0.02,0-0.04-0.01
		c-0.03-0.03-0.14-0.03-0.18,0C7.01,3.42,6.97,3.43,6.8,3.45C6.6,3.47,6.53,3.48,6.49,3.5c-0.01,0-0.04,0.01-0.08,0.01
		c-0.05,0-0.06,0-0.08,0.03C6.3,3.58,6.29,3.6,6.29,3.76v0.17c0,0.03,0.04,0.74,0.04,0.79v0.14c0,0.11,0.02,0.24,0.05,0.31
		c0.01,0.04,0.01,0.07,0,0.15c0,0.09-0.03,0.22-0.01,0.28C6.4,5.69,6.38,5.8,6.39,6.14C6.4,6.42,6.36,6.47,6.34,6.53
		C6.33,6.59,6.35,6.67,6.36,6.8c0,0.05,0.01,0.1,0.01,0.12c0,0.02-0.02,0.04-0.05,0.07C6.29,7.01,6.26,7.04,6.24,7.06
		C6.21,7.1,6.2,7.1,6.18,7.08C6.17,7.07,6.13,7.06,6.1,7.06c-0.02,0-0.05-0.01-0.06-0.01C6.03,7.04,6.01,7.04,6,7.05
		C5.99,7.06,5.96,7.07,5.92,7.07C5.86,7.08,5.85,7.08,5.79,7.05L5.72,7.01L5.66,6.92C5.6,6.83,5.58,6.78,5.54,6.76
		C5.52,6.75,5.51,6.74,5.51,6.73S5.5,6.71,5.49,6.7C5.48,6.69,5.47,6.68,5.47,6.67c0-0.01-0.02-0.04-0.05-0.09
		C5.38,6.52,5.37,6.49,5.37,6.46c0-0.02-0.01-0.04-0.02-0.05c-0.01,0-0.01-0.02-0.01-0.05c0-0.03,0.01-0.04,0-0.05
		C5.33,6.3,5.32,6.28,5.32,6.26c0-0.02-0.02-0.03-0.03-0.04C5.28,6.21,5.27,6.2,5.27,6.19c0-0.01-0.03-0.03-0.06-0.06
		C5.18,6.1,5.15,6.05,5.14,6.03C5.13,5.98,5.1,5.95,5.07,5.94C5.06,5.93,5.03,5.9,5,5.85C4.97,5.8,4.92,5.75,4.9,5.73
		C4.89,5.71,4.87,5.68,4.87,5.67c0-0.01-0.03-0.05-0.06-0.08C4.76,5.53,4.75,5.51,4.75,5.45l0.01-0.04h0.05c0.03,0,0.06,0,0.06,0.01
		c0.01,0.01,0.01,0.01,0.02,0c0.01-0.01,0.03-0.01,0.03,0c0,0.01,0.01,0,0.02,0C4.95,5.41,4.99,5.4,5.02,5.4l0.06-0.01L5.07,5.35
		C5.07,5.31,5.03,5.2,5,5.19C5.01,5.14,4.98,5.02,4.97,5C4.96,4.98,4.95,4.94,4.94,4.93C4.93,4.9,4.9,4.85,4.89,4.81
		c0-0.04-0.02-0.09-0.03-0.11C4.85,4.69,4.84,4.67,4.84,4.66c0-0.01,0-0.02-0.02-0.03C4.8,4.62,4.78,4.56,4.76,4.49
		c-0.08-0.23-0.09-0.27-0.15-0.5C4.58,3.86,4.52,3.8,4.46,3.84c-0.01-0.01-0.04-0.01-0.06,0C4.38,3.85,4.28,3.85,4.16,3.85
		c-0.18,0-0.24-0.01-0.25-0.01C3.89,3.83,3.85,3.82,3.8,3.81C3.72,3.8,3.7,3.79,3.57,3.76C3.51,3.74,3.48,3.74,3.43,3.74
		c-0.04,0-0.17,0-0.29-0.01c-0.12,0-0.28,0-0.34,0.04C2.75,3.81,2.71,3.76,2.7,3.75C2.68,3.74,2.66,3.74,2.63,3.74
		S2.55,3.73,2.51,3.72C2.48,3.71,2.44,3.71,2.41,3.71s-0.05,0.01-0.05,0C2.36,3.7,2.32,3.7,2.3,3.7c-0.07,0-0.17-0.02-0.2-0.03
		c-0.01-0.01-0.02-0.01-0.03,0c-0.01,0.01-0.03,0.01-0.06,0c-0.04-0.01-0.05-0.01-0.07,0C1.92,3.68,1.89,3.69,1.86,3.69
		C1.7,3.72,1.52,3.75,1.47,3.74c-0.03-0.01-0.05-0.01-0.07,0c-0.04,0.02-0.09,0.02-0.11,0c-0.01-0.01-0.02-0.01-0.06,0
		c-0.07,0.01-0.09,0-0.2-0.06c-0.05-0.03-0.1-0.04-0.11-0.04c-0.02,0-0.06-0.02-0.12-0.06C0.77,3.57,0.76,3.56,0.75,3.57
		c-0.02,0-0.05-0.01-0.09-0.06c-0.03-0.04-0.09-0.07-0.1-0.06c-0.01,0-0.03-0.01-0.05-0.02C0.5,3.42,0.45,3.41,0.39,3.4
		C0.31,3.39,0.26,3.37,0.24,3.35C0.23,3.34,0.2,3.33,0.18,3.32C0.16,3.31,0.14,3.3,0.14,3.29c0-0.01-0.01-0.02-0.02-0.02
		C0.11,3.26,0.09,3.26,0.09,3.25C0.07,3.24,0.07,3.22,0.06,3.21c0-0.01-0.02-0.04-0.04-0.06C0,3.12,0,3.1,0.01,3.05
		c0.01-0.03,0.01-0.08,0.01-0.09c0-0.04,0.07-0.12,0.11-0.13c0.03-0.01,0.12-0.04,0.18-0.07c0.01-0.01,0.04-0.01,0.06-0.01
		c0.03,0,0.06-0.01,0.07-0.02c0.01-0.01,0.02-0.02,0.03-0.01c0.02,0.01,0.03,0.01,0.04,0c0.02-0.02,0.02-0.01,0.04,0
		c0.02,0.02,0.05,0,0.05-0.03c0-0.01,0.01,0,0.03,0c0.02,0,0.05,0,0.07-0.01c0.02-0.01,0.06-0.01,0.07-0.01
		C0.8,2.68,0.83,2.65,0.86,2.61c0.01-0.01,0.02-0.01,0.05,0c0.03,0.01,0.07,0.01,0.16,0C1.13,2.6,1.16,2.59,1.16,2.58
		c0.01-0.02,0.02-0.02,0.03-0.01c0.01,0.01,0.09,0,0.09-0.01c0-0.01,0.02-0.01,0.04-0.01c0.04,0,0.28-0.06,0.3-0.08
		c0.01-0.01,0.02-0.01,0.03-0.01s0.12-0.05,0.22-0.07c0.28-0.05,0.44-0.12,0.61-0.17C2.55,2.2,2.62,2.17,2.65,2.17
		C2.68,2.16,2.7,2.15,2.71,2.15s0.03,0,0.06-0.01C2.8,2.13,2.82,2.13,2.85,2.13c0.02,0,0.05-0.01,0.09-0.03
		C2.97,2.08,3,2.08,3.01,2.09C3.02,2.1,3.02,2.1,3.04,2.08c0.01-0.02,0.02-0.02,0.03-0.01c0.01,0.01,0.03,0.01,0.04,0
		c0.01-0.01,0.04,0,0.09,0.02c0.06,0.02,0.07,0.02,0.17,0.02c0.11,0,0.12-0.01,0.12-0.03c0-0.03,0.02-0.03,0.05,0
		c0.01,0.01,0.02,0.01,0.07,0c0.03-0.01,0.09-0.02,0.14-0.02c0.08-0.01,0.1,0,0.1-0.02c0-0.01,0-0.02,0.01-0.02
		c0.02,0,0.06,0.04,0.08,0.06L3.95,2.1l0.03-0.01C4,2.08,4.02,2.07,4.03,2.07s0.02,0.01,0.02,0c0.01-0.02,0.1-0.02,0.12,0
		c0.03,0.03,0.25,0,0.27-0.03c0-0.01,0.02-0.12,0.02-0.19C4.47,1.69,4.48,1.58,4.5,1.57c0.02-0.14,0.03-0.26,0.04-0.28V1.24
		c0-0.01,0-0.02,0.01-0.02c0.01,0,0.01-0.02,0.02-0.06C4.59,1.06,4.61,1,4.66,0.89C4.7,0.8,4.71,0.77,4.7,0.76S4.69,0.74,4.71,0.73
		c0.02-0.02,0.03-0.04,0.03-0.05c0-0.01,0.07-0.11,0.12-0.21l0.08-0.18h0.04c0.03,0,0.07-0.01,0.09-0.02
		C5.09,0.26,5.11,0.26,5.15,0.26z M2.65,5.18c0.01,0,0.02,0.02,0.05,0.04c0.03,0.02,0.06,0.04,0.07,0.04c0.01,0,0.02,0,0.02,0.01
		c0.01,0.02,0.08,0.16,0.1,0.18c0.01,0.01,0,0.03,0,0.04s0,0.02,0.02,0.04c0,0.01,0.02,0.02,0.02,0.03c0,0.01,0.02,0.03,0.04,0.06
		S3,5.68,3,5.69s0.01,0.02,0.02,0.04c0.04,0.05,0.06,0.1,0.06,0.11c0,0.02,0.03,0.07,0.05,0.06c0.01,0,0.02,0.01,0.02,0.03
		C3.15,5.95,3.19,5.98,3.22,6c0.03,0.03,0.04,0.04,0.04,0.05s0.01,0.01,0.02,0.01c0.01,0,0.04,0.01,0.06,0.04l0.05,0.05
		c0.01,0,0.04,0.02,0.07,0.05c0.05,0.03,0.1,0.07,0.13,0.09C3.6,6.3,3.61,6.31,3.62,6.32c0,0.01,0.03,0.02,0.05,0.02
		c0.04,0.01,0.04,0.01,0.05,0.04c0,0.02,0.03,0.06,0.06,0.08C3.85,6.53,3.85,6.54,3.85,6.6c0,0.03,0.01,0.05,0.01,0.06
		C3.87,6.67,3.89,6.68,3.89,6.7c0,0.02,0.01,0.04,0.02,0.06C3.91,6.77,3.93,6.79,3.93,6.8C3.91,6.82,3.95,6.89,3.99,6.92
		C4,6.93,4.04,6.98,4.07,7.03s0.06,0.11,0.08,0.14c0.04,0.04,0.08,0.11,0.09,0.19c0,0.01,0.02,0.06,0.03,0.07
		C4.29,7.45,4.3,7.46,4.29,7.52c0,0.04,0,0.07,0.01,0.11c0.01,0.03,0.01,0.04,0,0.09C4.29,7.75,4.29,7.78,4.29,7.79
		s0.01,0.02,0,0.03c0,0.01-0.01,0.03-0.01,0.06C4.27,7.93,4.23,7.99,4.1,8.12c0,0.01-0.05,0.06-0.12,0.12
		c-0.1,0.1-0.12,0.13-0.16,0.14c-0.05,0.01-0.05,0.01-0.07,0C3.74,8.37,3.73,8.36,3.72,8.36s-0.06-0.01-0.1-0.03
		C3.6,8.31,3.55,8.3,3.53,8.3c-0.02,0-0.04,0-0.04-0.01c0-0.01-0.06-0.03-0.11-0.06c-0.04-0.02-0.1-0.06-0.13-0.08
		C3.22,8.14,3.21,8.12,3.19,8.12c-0.01,0-0.02,0-0.03-0.01C3.15,8.1,3.15,8.08,3.14,8.09c0,0.01-0.01-0.01-0.04-0.04
		C3.08,8.02,3.02,7.97,2.98,7.94C2.95,7.91,2.92,7.88,2.91,7.87c0-0.01,0-0.02-0.01-0.02c-0.01,0-0.02-0.02-0.03-0.04
		c0-0.02-0.03-0.07-0.06-0.11C2.78,7.66,2.75,7.6,2.74,7.56C2.72,7.5,2.71,7.48,2.68,7.47C2.67,7.46,2.67,7.45,2.67,7.43
		c0-0.01-0.01-0.04-0.06-0.07L2.55,7.32L2.54,7.26V7.18c0.01-0.02,0.02-0.07,0.01-0.13c0-0.06-0.01-0.12-0.01-0.14
		c0-0.13,0.01-0.21,0.02-0.21c0.01-0.01,0.01-0.03,0-0.07c-0.02-0.1-0.04-0.15-0.08-0.17C2.46,6.44,2.44,6.44,2.44,6.43
		s0.02-0.04,0.03-0.08c0.02-0.04,0.02-0.09,0.02-0.11c0-0.02,0.01-0.04,0.02-0.05C2.51,6.18,2.51,6.17,2.5,6.15L2.47,6.11V5.94
		c0-0.18,0.01-0.27,0.02-0.35C2.5,5.56,2.5,5.5,2.5,5.45s0-0.12,0.01-0.15c0.01-0.04,0.02-0.04,0.05-0.04
		c0.03,0,0.04-0.01,0.06-0.04C2.63,5.2,2.64,5.18,2.65,5.18z"/>
	<path fill="#9E5C4C" d="M9.92,1.96c0.02,0.01,0.04,0.02,0.05,0.03C9.99,2,10,2,10.02,2c0.02-0.01,0.04,0,0.05,0.01
		c0.01,0.02,0.01,0.02,0.04,0c0.02-0.02,0.04-0.02,0.06-0.01c0.02,0.01,0.03,0,0.05,0c0.02-0.01,0.03,0,0.03,0.01
		c0,0.02,0.06,0.06,0.07,0.05c0.01,0,0.02,0,0.04,0.01c0.02,0.01,0.05,0.02,0.07,0.02c0.02,0,0.06,0,0.08,0.01
		c0.04,0.01,0.17,0.01,0.26-0.01c0.02-0.01,0.04-0.01,0.05,0c0.02,0.01,0.23-0.01,0.25-0.02c0.01,0,0.03-0.01,0.05-0.01
		s0.07,0,0.11-0.01c0.14-0.02,0.31-0.02,0.39-0.02c0.05,0,0.13,0,0.19-0.01c0.18-0.02,0.5-0.03,0.61-0.03c0.05,0,0.1,0,0.11-0.01
		s0.01-0.01,0.03,0c0.02,0.01,0.04,0.01,0.07,0c0.03-0.01,0.06-0.01,0.08-0.01c0.01,0,0.14,0,0.28,0.01l0.26,0.01l0.07,0.03
		c0.04,0.01,0.08,0.03,0.09,0.04c0.01,0.01,0.05,0.04,0.08,0.06c0.04,0.02,0.1,0.06,0.15,0.11c0.11,0.1,0.13,0.13,0.14,0.13
		c0.01,0,0.02,0.01,0.04,0.03c0.02,0.02,0.05,0.04,0.08,0.06c0.04,0.03,0.21,0.18,0.21,0.2c0,0.01,0.03,0.05,0.05,0.1
		c0.06,0.08,0.06,0.09,0.04,0.11c-0.01,0.02-0.01,0.03,0.01,0.05c0.02,0.02,0.02,0.03,0.02,0.08c0,0.05-0.01,0.1-0.05,0.15
		c-0.01,0.01-0.02,0.04-0.02,0.05s0,0.03-0.01,0.04s-0.03,0.05-0.06,0.11c-0.03,0.06-0.06,0.12-0.07,0.13
		C14.01,3.47,14,3.49,14,3.51c0,0.02-0.01,0.04-0.03,0.05c0,0.01-0.02,0.02-0.03,0.03c-0.01,0.01-0.03,0.03-0.03,0.05
		c-0.01,0.02-0.04,0.07-0.07,0.09c-0.03,0.03-0.07,0.07-0.08,0.09c-0.01,0.02-0.12,0.1-0.17,0.17c-0.06,0.08-0.12,0.17-0.14,0.2
		c-0.02,0.01-0.05,0.05-0.06,0.06c-0.01,0.02-0.18,0.35-0.18,0.37c0,0.01-0.01,0.01-0.02,0.02c-0.01,0.01-0.02,0.02-0.02,0.03
		s-0.03,0.04-0.04,0.07c-0.02,0.03-0.04,0.06-0.04,0.07c0,0.03-0.04,0.26-0.05,0.28c-0.01,0.01-0.01,0.03-0.01,0.04
		c0,0.01,0.01,0.02,0,0.03c-0.01,0.01-0.02,0.01-0.01,0.02c0.01,0.01,0.18,0.03,0.19,0.02c0.01-0.01,0.14,0.02,0.36,0.13
		c0.11,0.06,0.16,0.08,0.17,0.1c0.01,0.01,0.02,0.02,0.04,0.03c0.02,0.01,0.05,0.03,0.07,0.05c0.02,0.02,0.04,0.04,0.05,0.03
		s0.01,0.01,0.02,0.02c0.01,0.01,0.02,0.03,0.03,0.03c0.01,0,0.04,0.02,0.06,0.04c0.03,0.01,0.06,0.04,0.08,0.05
		c0.04,0.01,0.08,0.05,0.17,0.13c0.05,0.05,0.11,0.1,0.11,0.11C14.39,5.95,14.39,5.99,14.4,6s0.02,0.03,0.02,0.05
		c0,0.01,0.01,0.05,0.02,0.06c0.02,0.05,0.02,0.15-0.01,0.28c-0.03,0.15-0.04,0.22-0.1,0.37c-0.03,0.07-0.06,0.15-0.07,0.19
		c-0.01,0.04-0.02,0.1-0.04,0.14c-0.02,0.05-0.02,0.1-0.02,0.13c0,0.04,0,0.04,0.05,0.05c0.1,0.03,0.2,0.04,0.35,0.04
		c0.18,0,0.33-0.03,0.38-0.07c0.01-0.01,0.04-0.02,0.07-0.02c0.06,0,0.11-0.02,0.18-0.07c0.05-0.03,0.07-0.04,0.15-0.04h0.11
		l0.03,0.03c0.02,0.02,0.04,0.03,0.05,0.03c0.01,0,0.02,0.01,0.03,0.02c0.02,0.01,0.06,0.03,0.09,0.04
		c0.05,0.01,0.07,0.03,0.08,0.05s0.03,0.03,0.06,0.03c0.01,0.01,0.04,0.02,0.05,0.03c0.01,0.01,0.05,0.02,0.08,0.03
		c0.03,0.01,0.06,0.02,0.06,0.03c-0.01,0.01,0.04,0.05,0.08,0.07c0.02,0.01,0.04,0.03,0.05,0.04c0.02,0.04,0.07,0.07,0.1,0.08
		c0.02,0.01,0.03,0.01,0.03,0.02s0.02,0.03,0.03,0.05c0.02,0.02,0.06,0.07,0.09,0.11l0.05,0.06l-0.01,0.06
		c0,0.03-0.01,0.08-0.02,0.09c-0.01,0.01-0.03,0.05-0.04,0.07c-0.03,0.06-0.07,0.1-0.11,0.11c-0.01,0-0.04,0.01-0.06,0.01
		c-0.11,0.02-0.13,0.03-0.14,0.04c-0.03,0.02-0.22,0.07-0.25,0.06c-0.02,0-0.07,0.01-0.12,0.02c-0.11,0.04-0.24,0.04-0.34,0.01
		c-0.03-0.01-0.07-0.01-0.09-0.01c-0.02,0-0.05,0-0.08-0.01c-0.04-0.01-0.05-0.01-0.09,0c-0.03,0.01-0.07,0.02-0.09,0.02
		c-0.02,0-0.05,0.01-0.06,0.01c-0.04,0.02-0.3,0.07-0.42,0.07c-0.24,0.01-0.38,0.01-0.4-0.01c-0.02-0.01-0.05-0.02-0.06-0.02
		S14,8.34,13.94,8.33c-0.05-0.01-0.14-0.04-0.18-0.05c-0.07-0.01-0.15-0.04-0.19-0.07c-0.01-0.01-0.03-0.01-0.04-0.02
		c-0.02-0.01-0.1-0.1-0.1-0.11c0-0.02-0.08-0.15-0.1-0.16c-0.01-0.01-0.01-0.02-0.01-0.03c0-0.01,0-0.03-0.01-0.04
		c-0.01-0.01-0.02-0.02-0.01-0.03c0.01-0.01,0.01-0.03-0.01-0.07c-0.03-0.09-0.05-0.3-0.03-0.34c0.01-0.02,0-0.06,0-0.09
		c0-0.02,0.01-0.05,0.05-0.14c0.03-0.05,0.06-0.11,0.07-0.12c0.02-0.02,0.05-0.07,0.06-0.14c0.02-0.08,0.03-0.11,0.03-0.26
		c0-0.08,0-0.16-0.01-0.19c-0.01-0.05-0.02-0.08-0.06-0.11c-0.03-0.02-0.09-0.05-0.12-0.06c-0.03-0.01-0.04-0.02-0.05-0.03
		c0-0.01-0.03-0.02-0.04-0.03c-0.02-0.01-0.05-0.04-0.08-0.06c-0.06-0.04-0.08-0.04-0.13-0.01c-0.02,0.02-0.04,0.03-0.06,0.03
		c-0.02,0-0.04,0.01-0.05,0.02s-0.03,0.02-0.04,0.02s-0.03,0-0.03,0.01s-0.02,0.03-0.05,0.04c-0.02,0.01-0.08,0.06-0.13,0.09
		c-0.05,0.04-0.11,0.08-0.15,0.1c-0.08,0.04-0.2,0.09-0.28,0.24c-0.04,0.11-0.06,0.13-0.07,0.2c-0.01,0.04-0.01,0.11-0.02,0.14
		c-0.01,0.02-0.01,0.05-0.01,0.06s0,0.06-0.02,0.12c-0.01,0.06-0.03,0.12-0.03,0.14c0,0.02-0.01,0.04-0.05,0.09
		c-0.01,0.02-0.06,0.08-0.08,0.1c-0.01,0.03-0.03,0.06-0.04,0.06c-0.01,0-0.03,0.02-0.05,0.04C11.8,7.69,11.77,7.7,11.75,7.7
		c-0.01,0-0.05,0.02-0.07,0.03c-0.03,0.03-0.14,0.04-0.37,0.04c-0.17,0-0.24-0.01-0.25-0.01l-0.08-0.04c-0.08-0.03-0.2-0.09-0.2-0.1
		s-0.02-0.03-0.03-0.05c-0.03-0.02-0.04-0.05-0.05-0.08s-0.06-0.11-0.08-0.13c-0.01-0.01-0.02-0.03-0.03-0.05
		c-0.01-0.02-0.02-0.04-0.03-0.05c-0.02-0.02-0.02-0.09-0.01-0.19c0.01-0.04,0.01-0.05,0-0.07c-0.01-0.02-0.01-0.03,0-0.04
		c0.01-0.01,0.01-0.02,0-0.04c-0.01-0.03,0-0.27,0.01-0.29c0.01-0.02,0.06-0.28,0.05-0.3c0-0.01,0-0.05,0.01-0.08
		c0.02-0.04,0.03-0.06,0.02-0.09c0-0.03,0-0.04,0.02-0.05l0.03-0.02l-0.06-0.06l0.02-0.09c0.01-0.05,0.04-0.11,0.05-0.14
		c0.02-0.04,0.02-0.05,0.01-0.06c-0.01-0.01,0.02-0.02,0.03-0.03c0.01-0.01,0.03-0.04,0.04-0.06c0-0.02,0.01-0.05,0.02-0.06
		c0.01-0.01,0.02-0.02,0.02-0.03c0-0.01,0-0.03,0.02-0.05c0.02-0.02,0.03-0.03,0.03-0.04c0-0.01,0.02-0.01,0.03-0.02
		c0.02-0.01,0.02-0.03,0.02-0.04s0.01-0.02,0.04-0.03C10.98,5.37,11,5.35,11,5.34c0-0.02,0.04-0.1,0.06-0.1
		c0.01,0,0.01-0.01,0.01-0.02s0-0.03,0.02-0.06c0.02-0.02,0.05-0.04,0.05-0.05s0.03-0.06,0.06-0.1s0.04-0.08,0.04-0.09
		c0-0.01,0.01-0.01,0.02-0.03s0.04-0.06,0.09-0.15c0.05-0.08,0.12-0.16,0.17-0.23c0.02-0.02,0.04-0.04,0.04-0.05
		s0.01-0.02,0.02-0.03c0.02,0,0.14-0.14,0.16-0.18c0.01-0.01,0.04-0.05,0.05-0.05c0.03-0.01,0.06-0.02,0.06-0.03
		s0.02-0.03,0.04-0.05c0.02-0.02,0.06-0.06,0.08-0.09c0.02-0.03,0.05-0.08,0.09-0.1c0.04-0.03,0.12-0.1,0.17-0.15
		c0.06-0.05,0.15-0.11,0.2-0.15c0.04-0.04,0.08-0.07,0.08-0.08c0-0.01,0.02-0.04,0.05-0.07c0.03-0.02,0.07-0.05,0.08-0.06
		c0.01-0.01,0.03-0.04,0.05-0.05c0.02-0.01,0.02-0.02,0.01-0.04c0-0.01,0-0.02,0.01-0.03c0.05-0.02,0.07-0.03,0.07-0.04
		s0.01-0.02,0.02-0.03c0.02,0,0.04-0.03,0.04-0.04s0.02-0.04,0.03-0.06c0.04-0.06,0.02-0.13-0.03-0.15c-0.04-0.02-0.13,0-0.31,0.01
		c-0.07,0-0.17,0.01-0.2,0.01c-0.08,0-0.3,0.04-0.36,0.06c-0.14,0.05-0.41,0.15-0.47,0.18c-0.04,0.02-0.12,0.07-0.17,0.11
		c-0.15,0.11-0.22,0.16-0.24,0.17c0,0.01-0.01,0.01-0.03,0.02c-0.02,0-0.07,0.03-0.12,0.06c-0.06,0.04-0.11,0.06-0.14,0.06
		c-0.07,0.01-0.16,0.04-0.21,0.07c-0.04,0.04-0.08,0.05-0.24,0.03c-0.07-0.01-0.11-0.02-0.15-0.04c-0.04-0.01-0.06-0.02-0.07-0.01
		c-0.01,0-0.02,0-0.05-0.02c-0.01-0.02-0.03-0.03-0.04-0.03c-0.01,0-0.03-0.02-0.05-0.04C9.93,3.53,9.89,3.49,9.87,3.5
		c-0.03,0.01-0.1-0.06-0.14-0.13C9.72,3.34,9.7,3.3,9.69,3.29C9.68,3.27,9.66,3.25,9.65,3.23C9.64,3.22,9.62,3.21,9.6,3.2
		C9.59,3.19,9.58,3.18,9.58,3.17c0-0.01-0.02-0.03-0.05-0.05C9.5,3.1,9.48,3.07,9.48,3.06S9.46,3.04,9.45,3.04S9.44,3.02,9.43,3
		C9.42,2.99,9.41,2.98,9.4,2.98c-0.01,0-0.01-0.01-0.01-0.02S9.38,2.93,9.36,2.91C9.35,2.88,9.34,2.85,9.34,2.83
		c0-0.03-0.06-0.19-0.09-0.23C9.24,2.59,9.24,2.58,9.24,2.57c0-0.01,0-0.03-0.01-0.04C9.21,2.51,9.21,2.47,9.24,2.44
		c0.01-0.01,0.01-0.02,0-0.04c-0.02-0.03-0.02-0.24,0-0.29c0.01-0.03,0.02-0.04,0.08-0.05C9.35,2.05,9.39,2.03,9.4,2.03
		c0.02-0.01,0.04-0.01,0.08,0h0.07c0.01-0.01,0.03-0.02,0.04-0.02c0.02,0,0.07-0.01,0.1-0.02c0.03-0.01,0.07-0.02,0.09-0.02
		c0.02,0,0.03,0,0.04-0.01C9.83,1.95,9.88,1.95,9.92,1.96z M13.07,0.22c0.03,0.01,0.06,0.07,0.07,0.1c0.01,0.02,0.03,0.03,0.05,0.04
		c0.03,0.02,0.06,0.05,0.08,0.11c0.01,0.03,0.03,0.05,0.04,0.05c0.01,0,0.03,0.01,0.03,0.03c0,0.01,0.03,0.04,0.05,0.08
		c0.03,0.05,0.04,0.05,0.05,0.05c0.01,0,0.02,0.01,0.04,0.03c0.01,0.02,0.03,0.04,0.03,0.05s0.01,0.01,0.02,0.01
		c0.02,0,0.05,0.03,0.05,0.06c0,0.01,0.02,0.02,0.03,0.02c0.02,0,0.02,0,0.02,0.02c0,0.01,0.01,0.03,0.03,0.04
		c0.02,0.01,0.04,0.06,0.04,0.1c0,0.02,0,0.04,0.02,0.06c0.01,0,0.02,0.03,0.02,0.04c0,0.01,0.01,0.03,0.02,0.04
		c0.01,0.01,0.02,0.03,0.02,0.04c0,0.01,0,0.02,0.01,0.04c0.01,0.02,0.03,0.07,0.04,0.11c0.01,0.07,0.01,0.09,0,0.11
		c-0.01,0.02-0.06,0.06-0.1,0.09c-0.06,0.04-0.07,0.05-0.1,0.05c-0.02,0-0.06,0-0.08,0.01c-0.02,0.01-0.05,0.02-0.07,0.02
		c-0.01,0-0.05,0-0.06,0.01c-0.01,0-0.08,0.02-0.13,0.03c-0.05,0.01-0.1,0.02-0.11,0.03c-0.02,0.01-0.04,0.01-0.05,0
		s-0.06-0.03-0.11-0.04c-0.05-0.01-0.09-0.03-0.1-0.04s-0.03-0.02-0.04-0.02s-0.02-0.02-0.03-0.04c-0.01-0.01-0.03-0.03-0.04-0.03
		c-0.01,0-0.01-0.01-0.01-0.02c0-0.01-0.01-0.03-0.03-0.05c-0.01-0.02-0.05-0.06-0.06-0.1c-0.02-0.04-0.05-0.07-0.07-0.09
		c-0.02-0.02-0.03-0.04-0.03-0.05s-0.01-0.03-0.03-0.05c-0.02-0.02-0.05-0.07-0.07-0.1C12.48,1,12.47,0.99,12.45,0.98
		c-0.03-0.01-0.04-0.02-0.06-0.05c-0.03-0.06-0.19-0.15-0.25-0.16c-0.01,0-0.05-0.01-0.09-0.02c-0.07-0.02-0.18-0.02-0.23,0.01
		c-0.04,0.02-0.06,0.02-0.08,0.01c-0.04-0.02-0.07-0.11-0.07-0.14c0-0.02,0.01-0.03,0.03-0.04c0.02-0.01,0.04-0.01,0.05-0.02
		c0.01-0.01,0.04-0.01,0.07-0.01c0.03,0,0.08,0,0.12-0.01c0.04-0.01,0.08-0.01,0.1-0.01c0.02,0,0.04-0.01,0.05-0.02
		c0.01-0.01,0.04-0.02,0.07-0.03c0.06-0.02,0.1-0.05,0.11-0.07c0-0.01,0.02-0.02,0.03-0.02c0.02,0,0.02-0.02,0.02-0.03
		c0-0.02,0.03-0.05,0.06-0.06c0.01,0,0.05-0.01,0.09-0.01c0.1-0.06,0.12-0.02,0.14-0.06c0.03-0.05,0.05-0.05,0.12-0.01l0.06,0.02
		l0.04-0.02c0.02-0.01,0.04-0.03,0.06-0.03C12.94,0.19,13.02,0.2,13.07,0.22z"/>
	<path fill="#9E5C4C" d="M21.02,0.37c0.01,0.02,0.05,0.06,0.06,0.07l0.02,0.02L21.06,0.5l0.03,0.01c0.03,0.01,0.03,0.01,0.02,0.03
		c-0.01,0.01,0,0.03,0.02,0.05c0.03,0.02,0.03,0.02,0.01,0.04c-0.01,0.01-0.02,0.02,0,0.03s0.02,0.01,0,0.04
		c-0.01,0.02-0.01,0.04-0.01,0.06c0.01,0.03,0.01,0.05-0.02,0.08c-0.02,0.01-0.03,0.03-0.03,0.04s-0.02,0.03-0.04,0.04
		C21.01,0.94,21,0.96,21.02,0.96c0.01,0,0.02,0,0.02,0.01s-0.02,0.04-0.06,0.08c-0.06,0.05-0.09,0.09-0.08,0.12
		c0,0.02-0.01,0.04-0.02,0.04c-0.02,0.01-0.05,0.05-0.07,0.08c-0.02,0.03-0.04,0.04-0.06,0.05c-0.02,0.01-0.03,0.04-0.05,0.07
		c-0.03,0.05-0.07,0.07-0.07,0.04c-0.02,0.01-0.02,0.05-0.02,0.08c0.01,0.04,0.01,0.04-0.02,0.05c-0.01,0.01-0.04,0.02-0.04,0.03
		s-0.01,0.02-0.02,0.02c-0.01,0-0.01,0.01-0.01,0.02c0,0.03-0.02,0.06-0.03,0.05c0-0.01-0.02,0.05-0.01,0.08
		c0.01,0.03-0.01,0.06-0.07,0.12c-0.03,0.03-0.06,0.08-0.07,0.1c-0.01,0.02-0.01,0.03-0.02,0.02c-0.01-0.01-0.07,0.07-0.07,0.1v0.03
		c-0.01,0-0.02,0.04-0.04,0.07c-0.02,0.03-0.03,0.06-0.04,0.06c-0.01,0.01-0.01,0.02-0.01,0.04c0,0.05-0.03,0.14-0.07,0.17
		c-0.01,0.01-0.03,0.03-0.03,0.04c0,0.01-0.01,0.02-0.02,0.03c-0.01,0.01-0.02,0.04-0.02,0.07c0,0.04-0.01,0.07-0.02,0.08
		c-0.01,0.01-0.01,0.02-0.01,0.03c0,0.01,0,0.04-0.01,0.09c-0.01,0.04-0.02,0.1-0.02,0.11c0,0.02,0,0.03-0.01,0.05
		c-0.01,0.02-0.03,0.05-0.04,0.11c-0.01,0.05-0.02,0.12-0.03,0.13c-0.01,0.02-0.01,0.02,0,0.03c0.01,0.01,0.01,0.02,0,0.05
		c-0.01,0.02,0,0.09,0,0.16v0.18c0,0.04,0,0.07,0.01,0.07c0.01,0.02-0.01,0.1-0.01,0.19c-0.01,0.13,0,0.16,0.01,0.17
		c0.01,0.01,0.01,0.04-0.01,0.14c-0.02,0.11-0.05,0.45-0.05,0.5c0,0.02,0,0.01,0.05-0.01c0.03-0.01,0.06-0.02,0.07-0.04
		c0.02-0.03,0.03-0.03,0.04-0.02c0.01,0.01,0.02,0,0.05-0.02c0.02-0.02,0.09-0.07,0.16-0.11c0.06-0.04,0.14-0.09,0.17-0.12
		c0.03-0.03,0.08-0.06,0.1-0.07c0.02-0.02,0.06-0.05,0.09-0.08c0.03-0.03,0.08-0.06,0.11-0.07c0.03-0.01,0.05-0.02,0.06-0.03
		c0-0.01,0.02-0.01,0.03-0.01s0.02-0.02,0.03-0.03C20.8,4.1,20.81,4.1,20.82,4.1c0.01,0,0.02-0.02,0.04-0.03
		c0.02-0.01,0.04-0.02,0.05-0.02c0.01,0,0.01-0.01,0.01-0.02s0.01-0.01,0.03-0.01c0.04,0,0.09-0.01,0.1-0.03
		c0.01-0.01,0.02-0.02,0.04-0.02c0.04,0,0.07-0.01,0.09-0.05c0.01-0.03,0.03-0.04,0.05-0.02c0.01,0.01,0.02,0.01,0.03-0.01
		c0.01-0.02,0.03-0.02,0.05-0.02s0.06-0.01,0.1-0.02c0.06-0.02,0.1-0.03,0.21-0.03c0.08,0,0.14,0.01,0.14,0.02
		c0,0.01,0.04,0.01,0.08,0.02c0.18,0.04,0.33,0.17,0.41,0.35c0.01,0.02,0.03,0.05,0.04,0.06c0.01,0.01,0.02,0.03,0.03,0.05
		c0.01,0.02,0.03,0.07,0.04,0.1c0.05,0.07,0.12,0.3,0.16,0.46c0.02,0.07,0.04,0.15,0.05,0.16c0.01,0.01,0.01,0.03,0.01,0.04
		c0,0.01,0.01,0.06,0.02,0.09c0.01,0.05,0.01,0.1,0.01,0.11v0.09c0,0.12-0.04,0.3-0.12,0.48c-0.02,0.04-0.08,0.17-0.11,0.26
		c-0.04,0.08-0.08,0.17-0.09,0.2c-0.01,0.02-0.02,0.04-0.02,0.05c-0.01,0.01-0.03,0.12-0.02,0.15c0,0.02,0,0.03-0.01,0.03
		c-0.01,0-0.01,0.01,0,0.03c0.01,0.01,0.02,0.04,0.03,0.06c0.01,0.03,0.02,0.05,0.03,0.05s0.03,0.01,0.03,0.02
		c0,0.01,0.01,0.03,0.03,0.04c0.02,0.01,0.04,0.03,0.05,0.04c0.01,0.02,0.16,0.07,0.22,0.07c0.02,0.01,0.04,0.01,0.05,0.02
		c0.01,0,0.06,0.02,0.1,0.02c0.04,0,0.07,0.01,0.08,0.02h0.07c0.04,0,0.07,0,0.08,0.01c0.03,0.01,0.07,0.02,0.11,0
		c0.01-0.01,0.03-0.01,0.04-0.01c0.01,0,0.04-0.01,0.06-0.02c0.02-0.01,0.04-0.01,0.05-0.01s0.12-0.05,0.13-0.06
		c0-0.01,0.01-0.01,0.03-0.01c0.02,0,0.05-0.01,0.06-0.02c0.01-0.01,0.05-0.03,0.07-0.04c0.01,0,0.06-0.04,0.09-0.06
		c0.03-0.03,0.05-0.05,0.06-0.05s0.04-0.03,0.08-0.06l0.06-0.07V6.44c0-0.04,0.02-0.12,0.02-0.18c0-0.07,0.01-0.12,0.02-0.13
		c0.01,0,0.01-0.01,0.01-0.02c0.05-0.01,0.11-0.09,0.11-0.14c0-0.01,0.01-0.03,0.02-0.04c0.01-0.01,0.05-0.06,0.08-0.12
		c0.08-0.12,0.15-0.19,0.19-0.19c0.01,0,0.03-0.01,0.05-0.02c0.02-0.01,0.04-0.02,0.05-0.02c0.03-0.01,0.04-0.02,0.04-0.05
		c0.01-0.04,0.04-0.07,0.08-0.06c0.03,0,0.05,0.01,0.05-0.01c0-0.04,0.02-0.05,0.05-0.03c0.03,0.02,0.04,0.04,0.04,0.07
		c0,0.01,0.01,0.02,0.02,0.02s0.03,0.01,0.03,0.02s0.01,0.01,0.02,0.01c0.03-0.01,0.03,0.02,0.01,0.08
		c-0.01,0.04-0.01,0.05,0.01,0.07c0.01,0.01,0.02,0.02,0.02,0.03c0,0.01,0.01,0.03,0.02,0.05c0.02,0.03,0.02,0.04,0.01,0.06
		c-0.03,0.04-0.02,0.08,0.01,0.12c0.02,0.02,0.03,0.04,0.03,0.05s0.01,0.03,0.02,0.04s0.02,0.02,0.02,0.03s0.01,0.02,0.02,0.03
		c0.02,0.02,0.08,0.21,0.09,0.28C25,6.45,25.1,6.68,25.14,6.73c0.02,0.02,0.04,0.04,0.04,0.05c0,0.01,0.01,0.03,0.02,0.05l0.02,0.02
		L25.2,6.88c-0.02,0.03-0.02,0.03-0.01,0.08c0.01,0.05,0.01,0.05-0.01,0.08c-0.01,0.02-0.05,0.05-0.08,0.06
		c-0.03,0.02-0.05,0.04-0.05,0.05c-0.01,0.03-0.08,0.1-0.15,0.15c-0.06,0.03-0.21,0.18-0.21,0.2c0,0.01,0.01,0.01,0.02,0.01
		c0.02,0,0.02,0.01-0.07,0.09c-0.05,0.05-0.12,0.12-0.16,0.15s-0.07,0.06-0.08,0.06c-0.01,0.01-0.04,0.04-0.07,0.06
		c-0.02,0.02-0.04,0.03-0.04,0.04c-0.02,0.01-0.11,0.09-0.2,0.18c-0.17,0.17-0.18,0.18-0.21,0.18c-0.02,0-0.04,0-0.06,0.01
		c-0.03,0.01-0.07,0.01-0.13,0c-0.05,0-0.09-0.01-0.11,0c-0.02,0-0.12,0.01-0.21,0.02c-0.1,0.01-0.2,0.03-0.22,0.03
		c-0.02,0.01-0.03,0.01-0.04,0c-0.01,0-0.09-0.01-0.19-0.01c-0.09,0-0.18,0-0.19-0.01c-0.01-0.01-0.01,0-0.02,0s-0.02,0-0.04-0.01
		c-0.02-0.01-0.05-0.01-0.09-0.02c-0.04-0.01-0.07-0.01-0.07-0.02s-0.02-0.01-0.05-0.02c-0.03-0.01-0.08-0.03-0.15-0.06
		c-0.07-0.03-0.13-0.05-0.14-0.05c-0.02,0-0.04-0.02-0.04-0.03s-0.03-0.03-0.07-0.05c-0.14-0.09-0.25-0.21-0.44-0.46
		c-0.06-0.07-0.11-0.14-0.11-0.15s0-0.02-0.01-0.03c0-0.01-0.02-0.04-0.03-0.07c-0.01-0.02-0.02-0.05-0.02-0.06
		c-0.01-0.01-0.02-0.05-0.03-0.08c-0.01-0.03-0.03-0.07-0.04-0.09c-0.01-0.02-0.02-0.03-0.02-0.04s-0.01-0.05-0.02-0.1
		c-0.02-0.05-0.03-0.12-0.03-0.15V6.63c0-0.06-0.01-0.11-0.01-0.12s0.01-0.06,0.02-0.13c0.01-0.06,0.02-0.17,0.03-0.22
		c0.01-0.07,0.02-0.09,0.03-0.1c0.04-0.03,0.07-0.07,0.07-0.08V5.95c0.01-0.01,0.02-0.04,0.03-0.06c0.01-0.03,0.01-0.06,0.02-0.07
		c-0.01,0.01-0.02,0.01,0-0.04c0.08-0.19,0.11-0.31,0.1-0.43c0-0.11-0.03-0.17-0.08-0.24c-0.02-0.03-0.03-0.05-0.02-0.06
		c0-0.01,0-0.02-0.01-0.03c-0.01-0.01-0.02-0.04-0.04-0.07c0-0.01-0.04-0.05-0.07-0.08c-0.04-0.04-0.06-0.05-0.07-0.05
		c-0.03,0.01-0.05,0.07-0.04,0.1c0,0.01-0.01,0.02-0.04,0.06c-0.02,0.03-0.04,0.05-0.04,0.06c0,0.02-0.14,0.14-0.27,0.27
		c-0.09,0.08-0.24,0.2-0.34,0.26C20.54,5.6,20.5,5.62,20.5,5.63c0,0.01-0.01,0.02-0.04,0.04c-0.03,0.02-0.1,0.09-0.15,0.15
		c-0.05,0.06-0.08,0.09-0.09,0.1c-0.01,0-0.03,0.04-0.06,0.07l-0.15,0.15c-0.04,0.06-0.12,0.13-0.15,0.17s-0.08,0.09-0.1,0.13
		c-0.03,0.04-0.06,0.09-0.06,0.1c0,0.01-0.02,0.04-0.04,0.07c-0.02,0.02-0.03,0.05-0.03,0.06c0,0.01-0.03,0.04-0.05,0.06
		c-0.02,0.02-0.04,0.05-0.04,0.07c0,0.02-0.01,0.05-0.02,0.06c-0.01,0.02-0.04,0.07-0.07,0.13c-0.02,0.06-0.04,0.1-0.05,0.1
		c0,0.01-0.01,0.02-0.01,0.03s-0.01,0.04-0.02,0.05c-0.04,0.04-0.06,0.09-0.06,0.16c0,0.04,0,0.08-0.01,0.09
		c-0.01,0.01-0.01,0.03-0.01,0.06c0,0.05-0.04,0.22-0.06,0.24c-0.01,0.01-0.01,0.04-0.02,0.07c-0.02,0.06-0.07,0.14-0.14,0.26
		c-0.03,0.05-0.06,0.09-0.08,0.1c-0.03,0.01-0.07,0.05-0.11,0.08c-0.06,0.05-0.07,0.06-0.17,0.06c-0.18,0.03-0.28,0.01-0.33-0.03
		c-0.01-0.01-0.04-0.03-0.05-0.04c-0.03-0.01-0.05-0.03-0.08-0.07c-0.02-0.03-0.04-0.05-0.05-0.06s-0.02-0.03-0.03-0.05
		c-0.01-0.03-0.04-0.08-0.05-0.1c-0.01-0.02-0.03-0.04-0.03-0.05c0-0.01-0.01-0.05-0.02-0.08c-0.01-0.04-0.02-0.1-0.03-0.13
		c0-0.03-0.01-0.08-0.02-0.1c-0.01-0.02-0.01-0.08-0.01-0.13S18,7.36,18,7.35c0-0.01-0.02-0.16-0.02-0.2c0-0.15,0.01-0.36,0-0.43
		c0-0.06-0.01-0.09,0-0.1c0.01-0.01,0.01-0.02-0.01-0.04c-0.01-0.02-0.01-0.03-0.01-0.04c0-0.01,0-0.02-0.01-0.04
		c-0.01-0.03-0.01-0.03,0-0.05c0.01-0.01,0.02-0.01,0.01-0.02s-0.03-0.14-0.03-0.19V6.19c0-0.01,0.01-0.02,0-0.03
		c-0.01-0.01-0.01-0.02,0-0.04c0.01-0.02,0.01-0.04,0.01-0.06c0-0.02,0-0.05,0.01-0.07c0.01-0.02,0.02-0.06,0.02-0.08
		c0-0.02,0.01-0.03,0.02-0.04s0.02-0.03,0.02-0.07c0-0.02,0.03-0.1,0.05-0.15c0.02-0.04,0.03-0.09,0.03-0.1V5.49
		c0.02-0.06,0.04-0.12,0.05-0.27c0.01-0.13,0.03-0.21,0.05-0.25c0.01-0.03,0.01-0.04,0-0.05c-0.01-0.02-0.01-0.02,0-0.04
		c0.01-0.01,0.02-0.02,0.02-0.03s0.01-0.03,0.02-0.04c0.01-0.01,0.02-0.06,0.03-0.11c0.01-0.04,0.02-0.11,0.03-0.14
		c0.01-0.03,0.04-0.11,0.06-0.19c0.05-0.16,0.07-0.19,0.11-0.31c0.01-0.04,0.03-0.09,0.03-0.1c0.01-0.02,0.02-0.07,0.04-0.11
		c0.03-0.08,0.04-0.11,0.02-0.13c-0.01-0.01,0-0.03,0.02-0.06c0.02-0.04,0.02-0.1,0-0.11c-0.01,0,0-0.01,0.01-0.04
		c0-0.01,0.03-0.11,0.05-0.2c0.02-0.08,0.04-0.2,0.06-0.25c0.04-0.08,0.18-0.4,0.19-0.42c0.01-0.01,0.02-0.03,0.02-0.05
		c0.01-0.03,0.02-0.05,0.05-0.06c0.03,0,0.03,0,0.02-0.02c0-0.01,0-0.03,0.03-0.07c0.02-0.03,0.04-0.05,0.05-0.07
		c0-0.02,0.01-0.04,0.02-0.04c0.01,0,0.04-0.04,0.06-0.06c0.02-0.03,0.05-0.05,0.06-0.06c0.02-0.01,0.02-0.02,0.02-0.04
		c0-0.02,0.02-0.03,0.04-0.04c0.02-0.01,0.04-0.03,0.05-0.06c0.02-0.02,0.04-0.05,0.05-0.06c0.01-0.01,0.02-0.02,0.02-0.03
		s0.01-0.02,0.02-0.02s0.02-0.02,0.02-0.03c0-0.01,0.01-0.02,0.02-0.02s0.01-0.01,0.01-0.02c0-0.01,0.01-0.03,0.02-0.04
		c0.07-0.07,0.08-0.08,0.08-0.09c0-0.01,0.07-0.1,0.16-0.2c0.04-0.05,0.08-0.12,0.09-0.14c0.01-0.03,0.03-0.03,0.04-0.03
		c0.02,0.01,0.05-0.03,0.05-0.05c0-0.01,0.01-0.02,0.04-0.06c0.02-0.02,0.03-0.04,0.03-0.05s0.01-0.01,0.02-0.01
		c0.01,0,0.03-0.02,0.04-0.04c0-0.02,0.04-0.06,0.08-0.09c0.06-0.03,0.06-0.04,0.06-0.06c0-0.01,0-0.04,0.01-0.06
		c0.01-0.02,0.01-0.04,0-0.04c-0.02-0.01,0-0.02,0.03-0.02c0.04,0,0.06-0.03,0.06-0.06c0-0.01,0.02-0.02,0.02-0.03
		c0-0.01,0.02-0.03,0.03-0.03c0.01,0,0.03-0.01,0.03-0.02c0-0.01,0.01-0.03,0.02-0.04c0.01-0.01,0.02-0.02,0.02-0.03
		c0-0.02,0.08-0.08,0.11-0.08c0.01,0,0.02-0.01,0.01-0.03c0-0.03,0-0.03,0.02-0.03c0.02,0,0.05-0.02,0.1-0.06
		c0.06-0.06,0.06-0.06,0.09-0.04l0.03,0.02V0.44c0.01-0.03,0.01-0.03,0.04-0.03c0.02,0,0.03-0.01,0.04-0.02
		c0.01-0.01,0.03-0.01,0.06-0.01c0.03,0,0.05-0.01,0.07-0.02C20.97,0.32,20.99,0.33,21.02,0.37z"/>
	<path fill="#9E5C4C" d="M27.45,0.32c0.03,0.03,0.05,0.05,0.05,0.06c0,0.01,0.01,0.03,0.02,0.05c0.01,0.02,0.02,0.05,0.02,0.06
		s0,0.02,0.01,0.03c0.01,0.02,0.02,0.06,0.03,0.1c0.02,0.06,0.03,0.1,0.03,0.27v0.22c0.01,0.01,0.02,0.14,0.01,0.15
		c-0.01,0.01,0,0.28,0.01,0.32c0.01,0.03,0.01,0.04,0,0.05c-0.01,0.01-0.01,0.05-0.01,0.09c0,0.03-0.01,0.15-0.02,0.25
		c-0.02,0.18-0.01,0.37,0.01,0.4c0.01,0.01,0.01,0.02,0.01,0.04c0,0.02,0,0.04,0.01,0.07c0.01,0.03,0.02,0.05,0.02,0.06
		c-0.01,0.01,0,0.03,0.01,0.06c0.01,0.03,0.02,0.06,0.02,0.07c-0.01,0.02,0.01,0.11,0.03,0.15c0.01,0.02,0.01,0.04,0.01,0.06
		c0,0.01,0,0.05,0.01,0.09s0.02,0.12,0.03,0.17c0.01,0.04,0.02,0.09,0.03,0.11c0.01,0.02,0.02,0.07,0.02,0.12
		c0,0.04,0.02,0.12,0.02,0.16c0.01,0.04,0.02,0.13,0.02,0.19c0.01,0.08,0.01,0.11,0.02,0.13c0.02,0.02,0.02,0.03,0.01,0.06
		c-0.01,0.03-0.01,0.07,0,0.13c0.02,0.11,0.03,0.32,0.03,0.41c0,0.1,0.03,0.51,0.04,0.54c0.01,0.01,0.01,0.06,0.01,0.1
		c0,0.03,0,0.06,0.01,0.07c0.01,0.01,0.06-0.02,0.11-0.07c0.06-0.04,0.08-0.06,0.17-0.07c0.04-0.01,0.08-0.02,0.09-0.03
		c0.26-0.17,0.29-0.2,0.29-0.26c0-0.02,0.01-0.04,0.01-0.05c0.01-0.01,0.02-0.01,0.02-0.02c0-0.01,0.02-0.03,0.04-0.05
		c0.03-0.02,0.03-0.02,0.1-0.02c0.06,0,0.08,0,0.08,0.02c0.04,0.04,0.02,0.15-0.01,0.19c-0.01,0.01-0.02,0.03-0.02,0.04
		s-0.01,0.01-0.02,0.01c-0.01,0-0.02,0.02-0.03,0.04s-0.03,0.04-0.04,0.06c-0.02,0.02-0.03,0.05-0.03,0.1
		c0,0.04-0.01,0.06-0.02,0.08c-0.01,0.01-0.02,0.03-0.02,0.04c0,0.01-0.01,0.01-0.02,0.02l-0.02,0.02v0.3c0,0.27,0,0.29-0.01,0.31
		c-0.01,0.02-0.03,0.03-0.06,0.03c-0.03,0-0.05,0.03-0.09,0.1c-0.02,0.03-0.01,0.03,0.01,0.03c0.03,0,0.03,0.01,0,0.07
		c-0.01,0.03-0.02,0.07-0.02,0.08s-0.03,0.08-0.08,0.15c-0.1,0.18-0.11,0.2-0.11,0.31c0,0.09,0,0.1-0.06,0.21
		c-0.03,0.07-0.06,0.12-0.06,0.13s-0.01,0.01-0.01,0.03C28.15,6.98,28.14,7,28.14,7.01c0,0.02,0,0.03-0.01,0.04
		c-0.01,0.01-0.01,0.03-0.01,0.07c0,0.03,0,0.09-0.01,0.12c-0.01,0.02-0.02,0.07-0.02,0.1c0,0.03,0,0.06-0.01,0.06s0,0.06,0,0.12
		c0,0.14-0.02,0.21-0.07,0.33C28,7.88,27.98,7.91,27.98,7.92c0,0.02-0.07,0.14-0.09,0.15c-0.01,0.01-0.02,0.02-0.02,0.03
		c0,0.03-0.12,0.11-0.17,0.11h-0.08c-0.05,0.01-0.1,0-0.26-0.04c-0.05-0.02-0.13-0.06-0.14-0.06c-0.02-0.02-0.04-0.03-0.05-0.03
		c-0.01,0-0.05-0.05-0.09-0.11c-0.04-0.07-0.1-0.16-0.12-0.2c-0.03-0.04-0.07-0.07-0.07-0.08c0-0.01-0.02-0.07-0.05-0.13
		c-0.04-0.1-0.04-0.11-0.04-0.21c0-0.06-0.01-0.12-0.02-0.15V7.13c0-0.02,0.01-0.04,0-0.06c0-0.02-0.01-0.08-0.01-0.15
		c0-0.07,0-0.13-0.01-0.13s-0.01-0.01,0-0.02c0.01-0.03,0.01-0.1,0-0.11c-0.01-0.01-0.01-0.03-0.01-0.06c0-0.04,0-0.07-0.01-0.07
		c-0.01-0.01-0.02-0.03-0.02-0.04c0-0.01,0-0.04-0.01-0.06c-0.01-0.02-0.02-0.06-0.02-0.07c0-0.05,0.03-0.17,0.07-0.22
		c0.03-0.04,0.04-0.06,0.04-0.09s0-0.07,0.01-0.1c0.01-0.06,0.01-0.11,0-0.13c-0.01-0.01,0-0.02,0.01-0.04
		c0.02-0.02,0.02-0.04,0.02-0.07c0-0.03,0-0.06,0.01-0.08c0.01-0.02,0.02-0.05,0.03-0.07c0.01-0.03,0.02-0.06,0.03-0.08
		c0.02-0.03,0.02-0.03,0-0.34c-0.01-0.17-0.02-0.35-0.02-0.41c0-0.06,0-0.1-0.01-0.1s-0.01-0.08-0.01-0.19c0-0.28,0-0.35,0.01-0.56
		c0.01-0.22,0.01-0.57-0.01-0.59c0-0.01-0.01-0.04,0-0.09c0.01-0.04,0.01-0.24,0-0.52c-0.01-0.63-0.01-0.91,0.01-0.94
		c0.02-0.02,0.04-0.15,0.04-0.21c0-0.02,0.01-0.04,0.02-0.06c0.01-0.02,0.02-0.06,0.02-0.11c0-0.06,0-0.1,0.02-0.16
		c0.02-0.05,0.03-0.1,0.03-0.12c0-0.02,0.01-0.05,0.02-0.07c0.03-0.11,0.03-0.14,0.03-0.16c0-0.02-0.01-0.04,0-0.05
		s0.01-0.02,0.01-0.03c0-0.02,0.01-0.04,0.04-0.07c0.02-0.02,0.02-0.03,0.02-0.04V0.61c0.01-0.06,0.02-0.09,0.03-0.08
		c0.01,0,0.04-0.05,0.06-0.1c0.02-0.06,0.07-0.11,0.13-0.13c0.03-0.01,0.05,0,0.05-0.01S27.43,0.29,27.45,0.32z M31.53,0.37
		c0.02,0,0.05,0.02,0.08,0.02c0.05,0.01,0.05,0.01,0.04,0.03c-0.01,0.03-0.01,0.03,0.01,0.04c0.01,0,0.03,0.01,0.05,0.03
		c0.03,0.03,0.07,0.13,0.05,0.17c-0.01,0.01-0.01,0.07,0.02,0.1c0.02,0.02,0.03,0.03,0.02,0.04c-0.02,0.03-0.03,0.09-0.01,0.11
		c0.01,0.01,0,0.08,0.03,0.12c0.02,0.01,0.03,0.03,0.03,0.06c0.01,0.06,0.03,0.5,0.04,0.55c0,0.01,0.02,0.03,0.04,0.04
		c0.02,0.01,0.03,0.01,0.06,0c0.04-0.01,0.05-0.01,0.08,0.01c0.02,0.01,0.11-0.01,0.12-0.01c0.09,0.03,0.22,0.03,0.27,0.03
		c0.14,0,0.27,0.02,0.34,0.06c0.03,0.02,0.14,0.03,0.16,0.05c0.04,0.01,0.06,0.02,0.07,0.04c0.01,0.01,0.03,0.03,0.04,0.03
		c0.02,0,0.02,0,0.02,0.02c0,0.01,0,0.03,0.01,0.04c0.02,0.02,0.12,0.19,0.11,0.26c0,0.03-0.01,0.06-0.02,0.06
		c-0.01,0.01-0.01,0.06-0.01,0.13c0,0.11,0,0.11-0.02,0.14c-0.02,0.03-0.04,0.15-0.11,0.22c-0.01,0.06-0.07,0.08-0.1,0.09
		c-0.06,0.03-0.16,0.1-0.24,0.08c-0.03-0.01-0.14-0.01-0.15-0.02c0-0.01-0.02-0.01-0.05-0.01c-0.02,0-0.12-0.02-0.17-0.01
		s-0.1,0.05-0.1,0.08c0,0.02,0,0.06-0.01,0.07c-0.01,0.02,0.01,0.05,0.03,0.07c0.01,0.01,0.01,0.01,0,0.02s-0.01,0.02,0,0.03
		c0.02,0.02,0.03,0.04,0.05,0.25c0.01,0.03,0.02,0.07,0.03,0.09c0.02,0.02,0.02,0.04,0.01,0.04c-0.01,0.01,0,0.02,0.02,0.04
		c0.02,0.02,0.03,0.05,0.01,0.06c-0.01,0.01-0.01,0.06,0.01,0.09c0.01,0.02,0.04,0.09,0.04,0.12c0.01,0.07,0,0.11,0.01,0.18
		c0.05,0.01,0.03,0.02,0.04,0.04c0.01,0.01,0.04,0.03,0.08,0.02c0.1-0.02,0.29-0.06,0.4-0.03c0.04,0,0.06-0.01,0.06-0.02
		s0.02-0.01,0.06-0.01c0.05,0,0.07-0.01,0.13-0.04c0.01-0.01,0.02,0,0.02,0.01c0,0.02,0.01,0.02,0.08,0
		c0.06-0.02,0.12-0.03,0.14-0.01C33.46,4,33.48,4,33.51,4c0.03-0.01,0.07,0,0.1,0.01c0.05,0.01,0.07,0.01,0.07,0
		c0.01-0.02,0.17,0.04,0.19,0.07c0.08,0.1,0.09,0.11,0.12,0.11c0.05,0,0.1,0.04,0.15,0.1c0.02,0.03,0.06,0.07,0.08,0.1
		c0.04,0.04,0.09,0.15,0.09,0.19c0,0.02,0.01,0.03,0.02,0.05l0.03,0.03L34.34,4.7c-0.04,0.04-0.06,0.06-0.06,0.1
		c0,0.03-0.01,0.04-0.03,0.05c-0.02,0.01-0.04,0.01-0.05,0.02c-0.02,0.04-0.04,0.06-0.09,0.07c-0.04,0.02-0.04,0.03-0.06,0.02
		C34.03,4.95,34,4.94,33.93,4.95c-0.11,0.02-0.16,0.01-0.17,0c-0.01-0.01-0.05,0-0.14,0.02c-0.02,0.01-0.03,0-0.04-0.01
		c-0.01-0.01-0.02,0-0.06,0.02C33.49,5,33.46,5,33.44,5c-0.02,0-0.06,0-0.09,0.01c-0.04,0.01-0.1,0.01-0.14,0.01
		c-0.04,0-0.07,0-0.07,0.01c0,0.01-0.01,0.01-0.02,0c-0.01-0.01-0.08,0-0.17,0c-0.19,0.01-0.22-0.01-0.22,0.01
		c-0.01,0.04,0.04,0.14,0.04,0.24c0,0.05-0.01,0.14,0.01,0.33c0.01,0.05,0.02,0.11,0.03,0.15c0.02,0.05,0.02,0.1,0.02,0.17
		c0,0.04,0,0.09,0.01,0.1v0.03c-0.01,0.01,0,0.03,0,0.06c0,0.02,0,0.07-0.01,0.11c-0.01,0.04-0.02,0.09-0.02,0.11
		s-0.03,0.08-0.05,0.15c-0.02,0.06-0.06,0.15-0.11,0.2c-0.02,0.02-0.04,0.06-0.05,0.08c0,0.02-0.02,0.06-0.03,0.09
		c-0.01,0.03-0.02,0.06-0.02,0.07s-0.01,0.04-0.02,0.06c-0.01,0.02-0.03,0.05-0.03,0.06c0,0.01,0,0.02-0.01,0.02
		c-0.01,0.01-0.05,0.07-0.09,0.13c-0.04,0.07-0.04,0.14-0.06,0.17c-0.02,0.02-0.05,0.06-0.06,0.08c-0.07,0.17-0.25,0.39-0.46,0.57
		c-0.05,0.04-0.09,0.08-0.09,0.09c-0.01,0.02-0.06,0.07-0.08,0.07c-0.01,0-0.16,0.05-0.22,0.08c-0.01,0.01-0.06,0.02-0.1,0.04
		c-0.04,0.02-0.1,0.03-0.12,0.04h-0.17c-0.18,0-0.22,0-0.29-0.08c-0.02-0.03-0.06-0.08-0.08-0.09c-0.02-0.01-0.05-0.03-0.05-0.04
		s-0.02-0.01-0.04-0.02c-0.02-0.01-0.04-0.01-0.04-0.02s-0.01-0.02-0.03-0.03c-0.02-0.01-0.1-0.11-0.14-0.16
		c-0.02-0.03-0.05-0.05-0.08-0.06c-0.02-0.01-0.04-0.02-0.04-0.03c0-0.01-0.02-0.05-0.05-0.1s-0.06-0.1-0.07-0.13
		s-0.06-0.08-0.07-0.1c-0.02-0.04-0.02-0.05-0.02-0.16s0-0.13-0.02-0.15c-0.01-0.02-0.03-0.05-0.04-0.09
		c-0.01-0.09-0.02-0.12-0.03-0.13c-0.01-0.01-0.01-0.02-0.01-0.03c0-0.01-0.01-0.03-0.02-0.06c-0.01-0.03-0.02-0.06-0.01-0.07
		c0-0.01,0-0.01-0.01-0.02c0-0.01-0.01-0.03-0.01-0.05c-0.01-0.1-0.01-0.12-0.02-0.13s-0.01-0.02,0-0.03s0.01-0.04,0-0.07
		c-0.01-0.03,0-0.07,0-0.08c0-0.03,0-0.07-0.01-0.09c0-0.02,0-0.06,0.01-0.12c0.01-0.03,0.02-0.12,0.02-0.18
		c0-0.06,0-0.11,0.01-0.13c0.01-0.02,0.01-0.06,0.01-0.09c0-0.03,0-0.07,0.01-0.09c0.01-0.02,0.02-0.04,0.01-0.05
		c-0.01-0.01-0.01-0.06-0.01-0.1V5.37c0-0.07,0.01-0.15,0.01-0.16c0.01-0.04,0-0.05-0.01-0.06C29.91,5.13,29.91,5.12,29.94,5
		c0.02-0.06,0.04-0.13,0.04-0.15c0-0.02,0.02-0.03,0.03-0.04c0.01-0.01,0.03-0.04,0.05-0.06c0.02-0.02,0.08-0.05,0.1-0.06
		c0.05-0.03,0.17-0.16,0.21-0.21c0.02-0.03,0.03-0.06,0.04-0.06s0.03-0.02,0.04-0.04c0.03-0.04,0.09-0.07,0.11-0.06
		c0.01,0,0.04-0.02,0.07-0.03c0.1-0.05,0.29-0.07,0.54-0.07h0.13l0.01-0.11C31.32,4,31.3,3.87,31.28,3.77
		c-0.01-0.04-0.01-0.1-0.01-0.12c0.01-0.09-0.01-0.4-0.03-0.44c-0.01-0.09-0.04-0.19-0.1-0.19c-0.02,0-0.07-0.01-0.11-0.02
		c-0.04-0.01-0.16-0.01-0.2,0c-0.03,0-0.05,0-0.07-0.01c-0.02-0.02-0.07-0.01-0.11,0c-0.02,0.01-0.11,0.04-0.2,0.04
		c-0.05,0-0.09-0.01-0.14-0.01c-0.03,0-0.08,0.04-0.13,0.03C30.1,3.03,30,3.01,29.98,3.01c-0.02,0-0.05,0-0.08-0.02
		c-0.04-0.02-0.06-0.03-0.09-0.03c-0.05,0-0.13-0.04-0.13-0.06c0-0.01-0.02-0.02-0.05-0.03c-0.01,0-0.07-0.02-0.1-0.04
		c-0.03-0.02-0.08-0.04-0.09-0.04l-0.06-0.03c-0.02-0.02,0.05-0.04,0.02-0.06c-0.03-0.02-0.05-0.03-0.06-0.06
		c-0.01-0.04-0.01-0.04,0.02-0.06c0.02-0.02,0.03-0.04,0.02-0.04c-0.02-0.01-0.01-0.02,0.02-0.03c0.01-0.01,0.02-0.02,0.02-0.03
		c0-0.01-0.08-0.02-0.06-0.03c0.04-0.03,0.04-0.04,0.01-0.05c-0.03-0.01-0.03-0.05,0-0.05c0.02,0,0.08-0.05,0.12-0.09
		c0.02-0.02,0.05-0.03,0.06-0.03c0.01,0,0.03-0.01,0.05-0.02c0.02-0.01,0.08-0.04,0.12-0.05c0.11-0.04,0.17-0.05,0.2-0.07
		c0-0.01,0.02-0.02,0.03-0.02s0.13-0.06,0.18-0.06c0.01,0,0.1-0.03,0.15-0.04c0.06-0.01,0.12-0.01,0.13-0.01
		c0.02-0.01,0.08-0.02,0.09-0.02c0.06,0.02,0.09-0.01,0.13-0.03c0.05-0.02,0.08-0.02,0.1-0.02c0.03,0,0.05,0,0.1-0.02
		c0.07-0.03,0.25-0.06,0.26-0.07c0.01-0.01,0.03-0.08,0.03-0.19c0.02-0.56,0.04-0.66,0.06-0.7c0.01-0.02,0.02-0.05,0.02-0.06
		c0-0.01,0-0.03,0.01-0.05c0-0.01,0.01-0.04,0.02-0.06c0.01-0.03,0.03-0.11,0.05-0.12c0.06-0.03,0.06-0.1,0.05-0.16
		c0-0.04,0-0.05,0.01-0.05c0.01,0,0.06-0.01,0.1-0.02C31.47,0.38,31.51,0.37,31.53,0.37z M31.27,5.13c-0.26,0-0.29,0-0.31,0.01
		c-0.02,0.01-0.03,0.02-0.04,0.02s-0.05,0.04-0.09,0.07c-0.12,0.09-0.17,0.14-0.21,0.16c-0.01,0.01-0.05,0.05-0.08,0.07l-0.05,0.05
		v0.06c0.01,0.04,0,0.06-0.01,0.07c-0.01,0.01-0.01,0.03-0.01,0.05c0,0.01,0,0.11-0.01,0.13c-0.02,0.04-0.01,0.24,0.01,0.28
		c0.01,0.02,0.01,0.03,0,0.05c-0.01,0.02,0,0.05,0.03,0.18c0.02,0.08,0.08,0.13,0.1,0.15c0.01,0.01,0.04,0.03,0.06,0.05
		c0.05,0.05,0.1,0.11,0.12,0.1c0.01-0.01,0.03-0.01,0.06,0s0.03,0.01,0.05-0.01c0.01-0.01,0.03-0.02,0.05-0.02
		c0.03,0,0.05,0,0.06-0.04c0.06,0.02,0.12,0.01,0.14-0.01c0.02-0.02,0.02-0.04,0.02-0.05s0.01-0.02,0.01-0.03
		c0.01-0.01,0.02-0.01,0.02-0.02c0-0.01,0.01-0.02,0.02-0.03c0.01-0.01,0.02-0.04,0.03-0.05c0.01-0.03,0.03-0.06,0.04-0.07
		c0.02-0.04,0.05-0.06,0.07-0.15c0.02-0.02,0.04-0.07,0.04-0.08c0-0.01,0.01-0.03,0.01-0.04c0.01-0.01,0.01-0.08,0.02-0.05
		c0.01,0.03,0-0.11,0.02-0.18c0-0.01,0.02-0.03,0.02-0.04c0-0.01,0.01-0.03,0.02-0.04c0.03-0.04-0.01-0.14,0.02-0.22
		c0.01-0.04,0.01-0.09,0.01-0.18c0-0.07-0.05-0.14-0.06-0.15C31.44,5.16,31.41,5.13,31.27,5.13z M33.66,0.16
		c0.02,0.01,0.03,0.03,0.04,0.03c0.02,0,0.02,0.07,0.01,0.13c-0.01,0.03-0.02,0.07-0.03,0.09c-0.02,0.03-0.03,0.06-0.04,0.15
		c-0.02,0.18,0.02,0.3,0.08,0.32c0.02,0.01,0.02,0.02,0.02,0.06c0.01,0.23-0.02,0.33-0.13,0.38c-0.02,0.01-0.05,0.03-0.06,0.04
		c-0.01,0.01-0.02,0.01-0.04,0.01c-0.02,0-0.05,0.01-0.08,0.02c-0.06,0.02-0.15,0-0.21-0.03c-0.07-0.04-0.19-0.16-0.24-0.22
		c-0.02-0.03-0.06-0.07-0.09-0.09c-0.05-0.04-0.1-0.12-0.13-0.22c-0.01-0.04-0.01-0.08-0.02-0.08c-0.01-0.01-0.02-0.02-0.03-0.05
		c-0.01-0.03-0.04-0.07-0.07-0.1c-0.03-0.03-0.05-0.06-0.05-0.08c0-0.01,0.01-0.08,0.03-0.13c0.02-0.05,0.03-0.1,0.03-0.11
		s0.02,0,0.08,0c0.06,0,0.09,0,0.12-0.01c0.04-0.01,0.05-0.01,0.12,0c0.07,0.01,0.15,0.01,0.28,0c0.11-0.01,0.14-0.03,0.18-0.06
		c0.01-0.01,0.04-0.03,0.06-0.04C33.54,0.13,33.62,0.12,33.66,0.16z M34.16,0c0.02,0,0.06,0.02,0.08,0.03
		c0.02,0.01,0.05,0.02,0.07,0.02c0.01,0,0.04,0.02,0.09,0.06c0.06,0.05,0.09,0.09,0.13,0.16c0.01,0.02,0.03,0.04,0.04,0.04
		c0.01,0,0.03,0,0.02,0.01s0.02,0.04,0.05,0.06c0.02,0.01,0.05,0.04,0.08,0.07s0.06,0.08,0.08,0.09c0.02,0.01,0.03,0.03,0.03,0.04
		s0.01,0.03,0.02,0.04s0.01,0.02,0.01,0.03c-0.01,0.01,0,0.04,0.01,0.07c0.02,0.07,0.01,0.1-0.04,0.12
		c-0.02,0.01-0.03,0.02-0.03,0.03s-0.1,0.04-0.17,0.05c-0.05,0.01-0.16-0.02-0.23-0.05c-0.03-0.01-0.05-0.02-0.06-0.02
		c-0.03,0-0.2-0.13-0.22-0.17c-0.01-0.02-0.04-0.23-0.04-0.31c0-0.03-0.01-0.09-0.01-0.12c-0.01-0.05-0.01-0.06,0-0.07
		c0.01-0.01,0.02-0.03,0.02-0.05c0-0.02,0.01-0.07,0.02-0.09C34.13,0,34.14,0,34.16,0z"/>
</g>
</svg>
