<?xml version="1.0" encoding="utf-8"?>
<!-- Generator: Adobe Illustrator 25.0.0, SVG Export Plug-In . SVG Version: 6.00 Build 0)  -->
<svg version="1.1" id="Layer_1" xmlns="http://www.w3.org/2000/svg" xmlns:xlink="http://www.w3.org/1999/xlink" x="0px" y="0px"
	 viewBox="0 0 27.29 9.33" style="enable-background:new 0 0 27.29 9.33;" xml:space="preserve">
<style type="text/css">
	.st0{fill:#9E5C4C;}
</style>
<g>
	<path class="st0" d="M4.03,0.63H4.1c0.05-0.01,0.17-0.02,0.2,0c0.03,0.01,0.03,0.01,0.05,0c0.04-0.02,0.05-0.02,0.07,0
		c0.01,0.01,0.03,0.02,0.04,0.02c0.01,0,0.04,0.01,0.06,0.02l0.03,0.02L4.6,0.67c0.07-0.03,0.14-0.04,0.2-0.01l0.09,0.03
		C4.92,0.7,4.94,0.71,4.95,0.72c0.01,0.02,0.01,0.02,0.02,0.01C4.98,0.72,4.98,0.72,5,0.74C5,0.75,5.02,0.76,5.02,0.76
		c0.01,0,0.02,0,0.03,0.01c0.01,0.01,0.02,0.01,0.03-0.01c0.02-0.02,0.03-0.02,0.05-0.01c0.02,0.01,0.05,0.02,0.08,0.02
		c0.04,0,0.06,0.02,0.06,0.03c0.01,0.02,0.02,0.02,0.04,0c0-0.01,0.01-0.01,0.04,0.01c0.05,0.04,0.1,0.05,0.12,0.04
		c0,0.01,0.02,0.01,0.04,0.01s0.05,0.01,0.06,0.02c0.01,0.01,0.04,0.01,0.06,0.01s0.06,0.02,0.08,0.03
		c0.06,0.03,0.11,0.04,0.26,0.05c0.07,0.01,0.14,0.01,0.15,0.02c0.01,0,0.03,0.01,0.06,0.02c0.04,0,0.06,0.01,0.1,0.04
		C6.31,1.07,6.33,1.1,6.34,1.09c0.01,0,0.03,0,0.05,0.02c0.02,0.02,0.03,0.03,0.04,0.03c0.01,0,0.02,0.01,0.04,0.02
		C6.49,1.17,6.5,1.19,6.51,1.19c0.02,0,0.17,0.09,0.22,0.13c0.02,0.02,0.04,0.03,0.05,0.03c0.01,0,0.05,0.03,0.1,0.08
		C6.93,1.48,6.98,1.54,7,1.55C7.02,1.56,7.05,1.58,7.06,1.6l0.03,0.06l0.04,0.07c0.01,0.02,0.03,0.04,0.04,0.04
		C7.2,1.78,7.27,1.88,7.3,1.95C7.33,2.02,7.42,2.26,7.42,2.3c0,0.01-0.01,0.06-0.02,0.1C7.39,2.44,7.38,2.47,7.39,2.48
		c0.01,0,0.02,0.04,0.02,0.08v0.07L7.37,2.68C7.35,2.71,7.33,2.74,7.32,2.75C7.31,2.77,7.29,2.77,7.25,2.77
		c-0.03,0-0.07,0.01-0.1,0.02C7.11,2.8,7.1,2.8,7.07,2.79C7.05,2.78,7.01,2.78,6.99,2.78s-0.05,0-0.06-0.01
		C6.92,2.76,6.88,2.76,6.84,2.75C6.8,2.74,6.76,2.73,6.75,2.72C6.74,2.71,6.71,2.71,6.69,2.71C6.63,2.7,6.53,2.67,6.5,2.65
		C6.49,2.64,6.47,2.64,6.46,2.64c-0.01,0-0.05-0.01-0.1-0.03c-0.1-0.03-0.17-0.04-0.34-0.04c-0.14,0-0.25,0.01-0.26,0.02
		s-0.01,0.01-0.02,0C5.72,2.57,5.59,2.56,4.84,2.57c-0.41,0-0.46,0.01-0.46,0.02c0.01,0.06,0.04,0.18,0.05,0.2
		c0.02,0.03,0.04,0.08,0.04,0.09s0.05,0.1,0.07,0.11c0.01,0,0.01,0.02,0.01,0.03s0.01,0.04,0.02,0.07c0.01,0.03,0.02,0.06,0.02,0.07
		c0,0.01,0.03,0.09,0.05,0.11c0.01,0.01,0.02,0.02,0.01,0.04v0.14c0.01,0.09,0.02,0.11,0.03,0.12c0.02,0.02,0.02,0.02,0,0.04
		c-0.01,0.01-0.01,0.03,0,0.04C4.69,3.67,4.7,3.76,4.7,3.83c0,0.03,0.01,0.05,0.02,0.06c0.01,0,0.01,0.02,0.01,0.05
		C4.73,3.99,4.74,4,4.8,3.99c0.02-0.01,0.13-0.01,0.25-0.02c0.22-0.01,0.24-0.02,0.28-0.04c0.06-0.03,0.1-0.04,0.12-0.02
		c0.01,0.01,0.05,0.02,0.11,0.02c0.14,0.01,0.17,0.02,0.19,0.03c0.01,0.01,0.03,0.01,0.04,0.01c0.01,0,0.02,0,0.04,0.01
		C5.84,3.99,5.86,4,5.87,4C5.88,4,5.89,4,5.9,4.01c0.01,0.01,0.03,0.02,0.04,0.02c0.02,0,0.1,0.06,0.1,0.08
		c0,0.01,0.03,0.04,0.11,0.12c0.02,0.02,0.03,0.05,0.04,0.06C6.2,4.3,6.22,4.34,6.25,4.37C6.28,4.41,6.3,4.44,6.3,4.46
		c0,0.01,0.01,0.04,0.02,0.05C6.35,4.54,6.37,4.6,6.35,4.62c-0.01,0.01-0.01,0.03,0,0.06c0.01,0.05,0.01,0.21,0,0.21
		c-0.01,0-0.03,0.02-0.06,0.04L6.25,4.97H6.08c-0.09,0-0.18,0-0.19,0.01c-0.01,0-0.02,0.01-0.03,0c-0.01-0.01-0.1-0.01-0.61,0
		C5.04,4.99,4.91,5,4.9,5.01c-0.01,0.01,0,0.02,0.01,0.03c0.01,0.01,0.01,0.03,0,0.04c0,0.01-0.01,0.02,0,0.02
		c0.02,0.01,0.05,0.09,0.05,0.12c0,0.02,0.01,0.04,0.02,0.06c0.01,0.01,0.04,0.04,0.04,0.05c0.02,0.05,0.11,0.22,0.13,0.24
		c0.01,0.01,0.04,0.05,0.06,0.09s0.08,0.14,0.13,0.21C5.38,5.93,5.44,6,5.44,6.03c0.03,0.05,0.16,0.18,0.35,0.37
		C5.86,6.46,5.99,6.56,6,6.56c0.01,0,0.03,0.02,0.06,0.04c0.03,0.02,0.08,0.05,0.09,0.05c0.02,0,0.05,0.02,0.08,0.03
		s0.1,0.04,0.17,0.06c0.07,0.02,0.14,0.04,0.15,0.04s0.04,0.01,0.07,0.01C6.71,6.8,6.8,6.83,6.87,6.86C6.9,6.88,6.93,6.9,6.94,6.89
		c0.01-0.01,0.03,0,0.05,0.01C7.02,6.91,7.07,6.91,7.1,6.91c0.04,0,0.07,0,0.08,0.01C7.2,6.93,7.49,6.95,7.61,6.95
		c0.05,0,0.07,0,0.07,0.01c0,0.01,0.01,0.03,0.02,0.05c0.01,0.02,0.01,0.03,0.01,0.04C7.7,7.07,7.72,7.08,7.82,7.09
		C7.94,7.1,7.98,7.11,8,7.12c0.02,0.01,0.03,0.03,0.04,0.03c0.01,0,0.08,0,0.13,0.01c0.1,0.01,0.12,0.02,0.12,0.06
		c0,0.03-0.03,0.08-0.06,0.09C8.22,7.32,8.2,7.34,8.19,7.37c-0.02,0.05-0.08,0.1-0.11,0.11c-0.01,0-0.04,0.03-0.07,0.06
		C7.98,7.57,7.95,7.59,7.93,7.6C7.9,7.61,7.88,7.64,7.87,7.69c0,0.01-0.02,0.03-0.06,0.04C7.78,7.74,7.76,7.75,7.75,7.76
		C7.74,7.77,7.74,7.79,7.74,7.82c0,0.03,0,0.06-0.01,0.07C7.72,7.9,7.72,7.92,7.72,7.94c0,0.03,0,0.05-0.01,0.05
		C7.68,8,7.63,8.11,7.63,8.17c0,0.03-0.02,0.07-0.03,0.1C7.59,8.29,7.58,8.33,7.57,8.36C7.56,8.39,7.55,8.42,7.54,8.42
		c-0.01,0-0.01,0.03-0.03,0.06C7.48,8.55,7.38,8.62,7.35,8.61c-0.01,0-0.04,0-0.07,0.01C7.21,8.64,7.11,8.66,6.96,8.67
		C6.89,8.68,6.79,8.69,6.75,8.69C6.71,8.7,6.61,8.71,6.52,8.71C6.38,8.72,6.33,8.73,6.26,8.75C6.17,8.78,6.15,8.78,6.05,8.78
		c-0.1,0-0.13-0.01-0.18-0.03C5.83,8.73,5.78,8.69,5.76,8.68C5.7,8.64,5.65,8.56,5.62,8.48C5.61,8.44,5.61,8.39,5.59,8.37
		C5.54,8.25,5.54,8.25,5.54,8c0-0.26-0.01-0.33-0.04-0.36C5.49,7.63,5.48,7.61,5.48,7.6c0-0.02-0.03-0.14-0.05-0.19
		C5.42,7.39,5.42,7.37,5.42,7.36S5.4,7.34,5.4,7.34c-0.01,0-0.03-0.03-0.05-0.08c-0.02-0.05-0.05-0.1-0.06-0.11
		C5.27,7.14,5.25,7.12,5.25,7.11S5.23,7.09,5.21,7.07C5.19,7.05,5.17,7,5.15,6.97s-0.08-0.1-0.13-0.15C4.97,6.77,4.92,6.71,4.9,6.68
		S4.82,6.56,4.76,6.5C4.71,6.42,4.65,6.34,4.64,6.33S4.57,6.25,4.5,6.2L4.37,6.08l-0.04,0.1c-0.02,0.05-0.04,0.1-0.04,0.12
		c0,0.01-0.02,0.05-0.03,0.07c0,0.01-0.02,0.07-0.03,0.11C4.22,6.54,4.22,6.54,4.16,6.6C4.12,6.63,4.09,6.67,4.09,6.68
		S4.07,6.71,4.05,6.73C4.03,6.75,4,6.77,3.98,6.79L3.89,6.88C3.86,6.91,3.83,6.95,3.81,6.97C3.8,6.99,3.77,7.01,3.76,7.01
		c-0.01,0-0.03,0.02-0.04,0.04C3.7,7.1,3.58,7.26,3.53,7.32C3.51,7.35,3.47,7.38,3.46,7.4C3.45,7.42,3.42,7.46,3.38,7.5
		s-0.09,0.09-0.1,0.11C3.27,7.63,3.25,7.65,3.24,7.65c-0.01,0-0.02,0.01-0.03,0.03C3.19,7.72,3.06,7.86,2.99,7.93
		C2.93,7.99,2.88,8.07,2.88,8.09c0,0.01-0.01,0.04-0.04,0.07C2.82,8.19,2.79,8.22,2.79,8.23c0,0.03-0.04,0.12-0.06,0.14
		C2.68,8.43,2.67,8.43,2.64,8.46C2.61,8.49,2.59,8.5,2.52,8.51c-0.02,0-0.04,0.01-0.05,0.02c-0.01,0.01-0.06,0-0.19,0H2.02
		c-0.05,0-0.09,0.01-0.11,0H1.86c-0.01,0.01-0.04,0.01-0.07,0c-0.08-0.01-0.3-0.02-0.31-0.01C1.47,8.53,1.32,8.54,1.12,8.55
		c-0.07,0-0.14,0.01-0.17,0.02c-0.08,0.03-0.12,0-0.22-0.11C0.62,8.34,0.6,8.3,0.6,8.29S0.59,8.28,0.58,8.27
		C0.57,8.26,0.55,8.24,0.55,8.23C0.54,8.19,0.48,8.1,0.44,8.07C0.41,8.04,0.39,8,0.36,7.89c-0.01-0.03-0.03-0.08-0.04-0.1
		C0.29,7.74,0.28,7.67,0.29,7.66C0.3,7.65,0.3,7.58,0.28,7.54C0.27,7.51,0.27,7.49,0.27,7.38c0.01-0.16,0-0.24-0.01-0.29
		c0-0.02-0.01-0.05,0-0.06c0.01-0.01,0.01-0.04,0.01-0.07c0-0.03,0-0.05,0.01-0.06c0.01,0,0.01-0.03,0.01-0.06S0.3,6.76,0.31,6.73
		c0.05-0.16,0.01-0.38-0.08-0.51C0.21,6.2,0.2,6.17,0.2,6.17S0.19,6.13,0.17,6.1C0.15,6.08,0.13,6.07,0.14,6.05
		c0.01-0.01,0.03,0.01,0.12,0.13c0.08,0.1,0.09,0.11,0.09,0.08c0-0.01,0.01-0.03,0.03-0.02c0.01,0,0.01,0,0-0.03
		C0.37,6.2,0.37,6.17,0.37,6.14c0-0.02-0.01-0.04-0.01-0.05l0.06,0.03c0.02,0.01,0.06,0.04,0.11,0.08c0.05,0.04,0.11,0.08,0.13,0.09
		C0.68,6.3,0.72,6.33,0.74,6.34C0.76,6.37,0.8,6.39,0.83,6.42C0.86,6.43,0.92,6.47,0.96,6.5C1,6.54,1.06,6.56,1.08,6.57
		C1.11,6.58,1.14,6.6,1.17,6.63C1.2,6.64,1.24,6.65,1.26,6.65s0.04,0,0.05,0.01c0.01,0.01,0.02,0,0.04-0.01
		c0.03-0.02,0.09-0.02,0.13,0c0.04,0.02,0.09,0.01,0.16-0.01c0.04-0.01,0.1-0.03,0.11-0.03c0.06-0.01,0.18-0.07,0.2-0.08
		C1.97,6.52,2,6.51,2.07,6.5c0.03,0,0.06-0.01,0.07-0.02C2.15,6.47,2.18,6.46,2.2,6.46c0.02-0.01,0.04-0.02,0.05-0.03
		s0.03-0.01,0.04-0.01c0.01,0,0.02,0,0.03-0.01c0.01-0.01,0.02-0.02,0.04-0.02s0.03-0.02,0.03-0.03c0-0.01,0.01-0.02,0.02-0.02
		C2.42,6.34,2.49,6.26,2.53,6.2c0.01-0.02,0.02-0.03,0.03-0.03c0.01,0,0.03-0.02,0.05-0.05c0.01-0.03,0.03-0.06,0.05-0.08
		c0.02-0.02,0.03-0.05,0.03-0.06c0-0.01,0.02-0.02,0.03-0.02s0.05-0.07,0.11-0.18C2.86,5.73,2.9,5.67,2.92,5.63
		c0.07-0.11,0.13-0.24,0.13-0.26c0-0.01,0.01-0.05,0.03-0.09l0.04-0.06H3.03c-0.05,0-0.13,0-0.18,0.01s-0.1,0.01-0.12,0.01
		C2.7,5.23,2.65,5.26,2.64,5.28c0,0.01-0.01,0-0.05-0.01S2.52,5.26,2.45,5.28C2.41,5.29,2.37,5.29,2.34,5.29H2.17
		c-0.01-0.01-0.03-0.02-0.03,0c0,0.01-0.01,0.02-0.02,0.03c-0.01,0-0.03,0.02-0.04,0.03c-0.02,0.03-0.1,0.06-0.15,0.06
		c-0.04,0-0.11-0.03-0.14-0.06C1.78,5.33,1.77,5.33,1.76,5.33c-0.01,0-0.11-0.12-0.11-0.13S1.64,5.18,1.63,5.16
		C1.62,5.14,1.6,5.12,1.6,5.11c0-0.02-0.02-0.03-0.03-0.04C1.56,5.06,1.56,5.05,1.56,5.04c0-0.01,0-0.03-0.01-0.04
		C1.54,4.99,1.52,4.95,1.52,4.92C1.51,4.88,1.5,4.86,1.48,4.84C1.45,4.82,1.44,4.8,1.44,4.78c0-0.02,0-0.04-0.01-0.05
		c-0.01-0.02-0.01-0.03,0-0.04c0.01-0.01,0.01-0.03-0.01-0.04C1.41,4.64,1.4,4.63,1.4,4.62c0-0.01-0.01-0.03-0.02-0.05
		C1.37,4.55,1.37,4.52,1.36,4.51C1.35,4.5,1.34,4.48,1.34,4.46L1.32,4.3c0-0.03,0-0.04,0.01-0.05C1.34,4.24,1.35,4.22,1.35,4.2
		c0-0.02,0-0.05,0.01-0.06c0.01-0.02,0.01-0.02,0-0.03c-0.01-0.02-0.01-0.13,0-0.16c0.01-0.01,0.02-0.06,0.02-0.1
		c0-0.05,0-0.11,0.01-0.13c0.02-0.04,0.07-0.09,0.1-0.09c0.06-0.01,0.08-0.01,0.09-0.02c0.01,0,0.02-0.01,0.02-0.02
		c0-0.01,0.02-0.02,0.04-0.03c0.02-0.01,0.03-0.02,0.04-0.03c0.01-0.01,0.02-0.01,0.02,0s0.02,0,0.05-0.01
		C1.83,3.48,1.93,3.5,1.96,3.55c0.01,0.02,0.03,0.03,0.05,0.03c0.03,0,0.03,0,0.03,0.02c0,0.01,0.01,0.02,0.03,0.02
		c0.02,0,0.04,0.01,0.04,0.02c0,0.01,0.01,0.02,0.02,0.02c0.03,0,0.04,0.01,0.05,0.03c0,0.01,0.02,0.02,0.03,0.02
		c0.01,0,0.02,0,0.02,0.01c0.01,0.02,0.09,0.06,0.12,0.06c0.01,0,0.03,0,0.04,0.02c0.02,0.03,0.05,0.04,0.1,0.02
		c0.02-0.01,0.03-0.01,0.03,0s0.01,0.02,0.03,0.03c0.02,0.01,0.03,0.01,0.04,0.02C2.6,3.88,2.62,3.88,2.63,3.88
		c0.01,0,0.04,0,0.04,0.01C2.68,3.9,2.68,3.9,2.69,3.9c0.01,0,0.03,0.01,0.06,0.02c0.03,0.01,0.06,0.03,0.07,0.03
		c0.01,0,0.03,0.01,0.05,0.02C2.89,3.98,2.96,3.99,3.01,4c0.05,0.01,0.13,0.01,0.18,0.02c0.05,0.01,0.12,0.01,0.15,0.01h0.08
		c0.01,0,0.02-0.01,0.03-0.02C3.47,4,3.47,3.99,3.46,3.98c-0.02-0.02-0.02-0.06,0-0.07c0.01-0.01,0.01-0.02,0-0.02
		c-0.02-0.01-0.02-0.03,0-0.04c0.01,0,0.01-0.02,0.01-0.06c0-0.03,0.01-0.05,0-0.06c-0.01-0.01-0.01-0.03,0-0.06
		c0.01-0.02,0.02-0.03,0.01-0.04C3.47,3.62,3.47,3.59,3.49,3.54c0.01-0.01,0.01-0.02,0-0.02c-0.02,0-0.02-0.08-0.01-0.13
		c0.01-0.04,0-0.18-0.01-0.19C3.46,3.19,3.46,3.15,3.46,3.09c0-0.09,0-0.12-0.01-0.13C3.44,2.95,3.43,2.92,3.43,2.85
		c0-0.05,0-0.12-0.01-0.14C3.41,2.67,3.4,2.67,3.38,2.67c-0.01,0-0.07,0-0.14-0.01C3.17,2.65,3.01,2.65,2.87,2.64
		C2.74,2.63,2.6,2.63,2.56,2.63c-0.04,0-0.06,0-0.07-0.01c-0.01-0.01-0.28,0-0.29,0.01c-0.01,0.01-0.01,0.01-0.02,0
		C2.16,2.61,2.1,2.61,2.03,2.62C1.95,2.63,1.56,2.64,1.57,2.63c0.01-0.01-0.01,0-0.03,0s-0.05,0-0.08-0.01
		C1.42,2.61,1.4,2.61,1.39,2.61C1.36,2.63,1.34,2.63,1.3,2.6C1.26,2.57,1.24,2.56,1.19,2.58c-0.02,0.01-0.04,0.01-0.06,0
		c-0.02-0.01-0.05,0-0.07,0H1.01C1,2.57,0.97,2.57,0.94,2.59C0.91,2.61,0.89,2.6,0.86,2.58c-0.01-0.01-0.02-0.01-0.05,0
		c-0.02,0.01-0.03,0.01-0.04,0c0-0.01-0.02-0.01-0.04-0.01S0.69,2.56,0.67,2.55S0.63,2.54,0.61,2.54s-0.05,0-0.09-0.01
		C0.49,2.52,0.45,2.5,0.43,2.5C0.41,2.49,0.38,2.48,0.37,2.47C0.34,2.45,0.23,2.41,0.22,2.42c-0.01,0.01-0.02,0-0.04-0.02
		C0.16,2.38,0.12,2.36,0.09,2.35C0.06,2.34,0.04,2.32,0.03,2.31C0.01,2.29,0,2.25,0.02,2.25c0.01,0,0.02,0,0.03-0.01
		c0.01-0.01,0-0.03-0.02-0.05c-0.04-0.04-0.04-0.06,0.02-0.08c0.03-0.01,0.07-0.03,0.1-0.06l0.07-0.07C0.24,1.97,0.27,1.94,0.3,1.92
		c0.04-0.04,0.06-0.05,0.08-0.04C0.4,1.89,0.41,1.89,0.42,1.86c0.01-0.03,0.02-0.04,0.05-0.05C0.49,1.8,0.52,1.78,0.53,1.77
		c0.01-0.01,0.03-0.03,0.04-0.03h0.04c0.01,0,0.03-0.01,0.04-0.03c0.02-0.03,0.08-0.08,0.09-0.06C0.75,1.69,0.76,1.7,0.78,1.67
		c0.01-0.02,0.03-0.03,0.04-0.03c0.02,0,0.09-0.03,0.11-0.05c0.01-0.01,0.02-0.01,0.03-0.01c0.01,0,0.02,0,0.03-0.01
		C1,1.56,1.02,1.55,1.03,1.56c0.01,0,0.02,0,0.05-0.02C1.1,1.53,1.13,1.52,1.14,1.52c0.02,0,0.03,0,0.03-0.02
		c0-0.02,0.01-0.03,0.03-0.02c0.03,0.01,0.04,0,0.05-0.03c0-0.02,0.01-0.02,0.05,0c0.02,0.01,0.04,0.01,0.05,0
		c0.01-0.01,0.03-0.01,0.04-0.01c0.02,0,0.03-0.01,0.04-0.03c0.01-0.03,0.04-0.03,0.04,0c0,0.01,0.01,0.01,0.03-0.01
		c0.02-0.03,0.03-0.03,0.04-0.02c0.01,0.01,0.02,0,0.03-0.01C1.58,1.36,1.59,1.36,1.6,1.36c0.01,0,0.02,0,0.03-0.01
		c0.01-0.01,0.03-0.02,0.06-0.02c0.03,0,0.07-0.03,0.09-0.04C1.8,1.28,1.83,1.27,1.84,1.27c0.01,0,0.03,0,0.05-0.01
		s0.03-0.01,0.04-0.01s0.04-0.01,0.06-0.02C2.06,1.2,2.11,1.18,2.12,1.19c0.01,0.01,0.02,0,0.03-0.01C2.16,1.17,2.18,1.15,2.2,1.15
		s0.04,0,0.05-0.01c0.02-0.01,0.1-0.05,0.21-0.08c0.05-0.01,0.1-0.04,0.13-0.05C2.62,1,2.65,0.99,2.66,0.99
		c0.01,0,0.07-0.02,0.14-0.05c0.16-0.06,0.32-0.11,0.34-0.11c0.01,0,0.06-0.01,0.1-0.02C3.28,0.8,3.32,0.79,3.33,0.79
		c0.04,0,0.17-0.04,0.18-0.05c0-0.01,0.06-0.01,0.12-0.02c0.19-0.02,0.2-0.03,0.22-0.05c0.02-0.02,0.03-0.02,0.06-0.02
		c0.02,0,0.05,0,0.06-0.01C3.98,0.63,4,0.63,4.03,0.63z"/>
	<path class="st0" d="M10.09,2.1c0.01,0.01,0.03,0.02,0.05,0.02h0.02l0.03,0.03c0.04-0.01,0.07-0.01,0.09,0.02
		c0.02,0.04,0.05,0.04,0.09,0.05c0.04,0,0.06,0,0.08,0.03l0.04,0.03c0.01,0.01,0.03,0,0.05,0.01c0.03,0.01,0.05,0.01,0.1,0.01
		c0.03,0,0.06-0.01,0.06,0.03c0.02,0.01,0.05,0.01,0.07,0.01c0.04,0,0.08,0,0.12,0.02c0.02,0.01,0.03,0.02,0.05,0.01
		c0.05-0.01,0.09-0.01,0.14-0.01c0.04,0,0.1,0,0.13-0.01c0.03-0.01,0.08-0.01,0.11-0.01h0.06c0.02-0.01,0.04-0.01,0.06-0.01
		l0.11-0.03c0.01,0,0.01,0,0.02,0.01c0.01,0,0.03,0.01,0.05,0c0.02-0.01,0.03-0.01,0.05,0c0.01,0.02,0.07,0.02,0.13,0.02
		c0.1,0,0.11,0,0.15,0.03c0.03,0.02,0.06,0.04,0.08,0.05c0.02,0.01,0.05,0.03,0.06,0.04l0.04,0.03l0.02,0.01
		c0.02,0.03,0.04,0.05,0.06,0.08c0.02,0.03,0.06,0.07,0.07,0.1c0.03,0.07,0.06,0.19,0.06,0.26c0,0.02,0,0.03,0.01,0.05
		c0,0.02,0.01,0.04,0.01,0.06c0,0.02,0,0.08,0.01,0.13c0.01,0.05,0.01,0.13,0.01,0.17c0,0.04,0.01,0.11,0.02,0.14
		c0.01,0.04,0,0.07,0,0.08c-0.01,0.02,0,0.13,0,0.14v0.06c0,0.04,0.01,0.08,0.02,0.11c0.03,0.08,0.04,0.31,0.01,0.35
		c-0.01,0.01-0.02,0.04-0.02,0.06c0,0.04-0.05,0.19-0.09,0.23l-0.03,0.04c-0.01,0.01-0.04,0.06-0.1,0.11
		c-0.05,0.05-0.09,0.1-0.1,0.11c-0.01,0.01-0.01,0.03-0.03,0.04S12,4.87,11.97,4.9l-0.08,0.08c-0.02,0.01-0.03,0.03-0.04,0.04
		c-0.01,0.01-0.02,0.04-0.05,0.07c-0.03,0.03-0.05,0.06-0.05,0.07l-0.01,0.02L11.7,5.22l-0.07,0.09c-0.11,0.14-0.22,0.32-0.23,0.39
		c0,0.02,0,0.03,0.01,0.04c0,0.04,0,0.07,0.01,0.11c0.04,0.12,0.09,0.18,0.18,0.22l0.04,0.03l0.04,0.02
		c0.02,0.01,0.08,0.03,0.12,0.05c0.04,0.02,0.09,0.03,0.1,0.03l0.02,0.01c0.03,0.02,0.06,0.03,0.09,0.04c0.03,0,0.06,0.02,0.05,0.01
		l0.05,0.02c0.03,0,0.05,0,0.11,0.05c0.04,0.04,0.09,0.07,0.11,0.07s0.04,0.03,0.05,0.03l0.04,0.02c0.01,0,0.06,0.04,0.11,0.09
		c0.13,0.13,0.14,0.15,0.15,0.22c0,0.03,0.01,0.06,0.02,0.07c0.02,0.02,0,0.07-0.04,0.11c-0.02,0.02-0.04,0.05-0.04,0.06
		c0,0.01-0.02,0.05-0.04,0.07c-0.02,0.02-0.04,0.04-0.04,0.06c0,0.02-0.01,0.03-0.02,0.05l-0.01,0.02c-0.02,0.05-0.05,0.07-0.09,0.1
		c-0.03,0.02-0.05,0.03-0.08,0.02c-0.02,0-0.05-0.01-0.07-0.04c-0.01-0.02-0.02-0.03-0.04-0.03s-0.03-0.01-0.04-0.03
		c-0.04-0.06-0.15-0.15-0.21-0.18C11.92,7,11.91,7,11.84,7c-0.05,0-0.08,0.01-0.09,0.01c-0.01,0-0.03,0.01-0.05,0.01
		c-0.04,0-0.08,0.01-0.16,0.07c-0.06,0.05-0.08,0.08-0.08,0.12c-0.01,0.09-0.02,0.18-0.03,0.24c-0.01,0.04-0.01,0.1-0.01,0.15
		c0,0.05,0,0.16-0.01,0.23C11.4,7.9,11.39,8,11.39,8.04s-0.01,0.07-0.01,0.08V8.2c0,0.04,0,0.11-0.01,0.2
		c-0.01,0.07-0.03,0.16-0.03,0.21c0,0.03-0.02,0.1-0.03,0.13c-0.02,0.04-0.03,0.06-0.07,0.08c-0.05,0.03-0.05,0.03-0.07,0.02
		c-0.01,0-0.05-0.01-0.24-0.01c-0.13,0-0.23,0-0.24,0.01c-0.03,0.03-0.19,0-0.24-0.04l-0.03-0.03c-0.02-0.01-0.03-0.02-0.05-0.04
		c-0.04-0.04-0.05-0.05-0.07-0.14c-0.01-0.04-0.03-0.16-0.04-0.25c-0.01-0.07-0.01-0.19-0.02-0.24c-0.01-0.06-0.01-0.36-0.01-0.68
		c0-0.58-0.01-0.76-0.03-0.77c-0.01,0-0.03,0.02-0.07,0.03C10.02,6.72,9.6,6.76,9.51,6.73C9.49,6.72,9.45,6.71,9.43,6.67
		C9.42,6.65,9.4,6.64,9.39,6.64C9.37,6.63,9.35,6.61,9.32,6.59C9.31,6.58,9.29,6.56,9.27,6.55L9.24,6.54
		c-0.02,0-0.03-0.01-0.05-0.02C9.17,6.5,9.14,6.5,9.11,6.48C9.05,6.46,9,6.42,8.99,6.42c-0.03,0-0.06,0-0.08-0.02
		C8.89,6.39,8.87,6.38,8.86,6.38c-0.02,0-0.04-0.01-0.07-0.07C8.77,6.26,8.76,6.23,8.76,6.17C8.76,6.08,8.79,6,8.81,6L8.84,6
		C8.85,6,8.86,5.97,8.86,5.96c0.01-0.01,0.02-0.03,0.03-0.04l0.03-0.04c0.01-0.01,0.02-0.02,0.03-0.04l0.04-0.07
		C9,5.75,9.02,5.73,9.04,5.71C9.08,5.66,9.4,5.33,9.41,5.32C9.46,5.29,9.5,5.26,9.55,5.23l0.03-0.02C9.6,5.2,9.64,5.19,9.66,5.17
		c0.02-0.02,0.05-0.04,0.07-0.05C9.77,5.1,9.92,5,10.1,4.88c0.06-0.04,0.11-0.07,0.13-0.08s0.05-0.04,0.09-0.06
		c0.04-0.02,0.08-0.04,0.09-0.05l0.03-0.03c0.01-0.01,0.03-0.03,0.05-0.04c0.05-0.04,0.1-0.08,0.13-0.14
		c0.01-0.02,0.02-0.05,0.03-0.05c0.06-0.02,0.09-0.04,0.12-0.08c0.02-0.03,0.03-0.04,0.04-0.05c0.01-0.01,0.03-0.02,0.05-0.05
		s0.04-0.04,0.05-0.05c0.01-0.01,0.02-0.02,0.04-0.05c0.02-0.03,0.04-0.05,0.06-0.06s0.03-0.03,0.04-0.04
		c0.01-0.01,0.03-0.05,0.06-0.08c0.02-0.03,0.04-0.05,0.06-0.07l0.01-0.03c0.02-0.01,0.03-0.03,0.05-0.04l0.04-0.04
		c0.03-0.03,0.07-0.09,0.09-0.11c0.06-0.07,0.14-0.17,0.15-0.2c0-0.01,0.02-0.05,0.03-0.07c0.01-0.03,0.03-0.08,0.04-0.15l0.01-0.12
		l-0.03-0.09c-0.02-0.05-0.03-0.1-0.03-0.11c0-0.03-0.04-0.06-0.07-0.06c-0.01,0-0.04,0-0.06,0.01s-0.05,0.02-0.07,0.02
		s-0.07,0.02-0.15,0.08c-0.07,0.04-0.11,0.08-0.12,0.09c-0.01,0.01-0.04,0.04-0.08,0.09c-0.04,0.05-0.08,0.09-0.09,0.1
		c-0.01,0.01-0.01,0.03-0.03,0.05l-0.03,0.04c0,0.02-0.05,0.08-0.07,0.08c-0.01,0-0.03,0.01-0.04,0.03
		C10.7,3.49,10.69,3.5,10.67,3.5c-0.05,0-0.08,0.01-0.1,0.05c-0.01,0.02-0.03,0.03-0.12,0.06c-0.12,0.04-0.22,0.05-0.28,0.04
		c-0.02-0.01-0.08-0.02-0.12-0.02s-0.09-0.01-0.1-0.01C9.93,3.61,9.9,3.52,9.89,3.48c0-0.02-0.03-0.07-0.05-0.1
		C9.82,3.34,9.8,3.3,9.8,3.28V3.17c0-0.06-0.02-0.12-0.04-0.16c-0.02-0.05-0.02-0.16,0-0.2L9.75,2.76C9.73,2.72,9.73,2.71,9.74,2.69
		c0.01-0.02,0.01-0.03,0-0.05c-0.01-0.03-0.01-0.09,0-0.11c-0.01-0.05-0.02-0.1,0-0.14V2.36c-0.02-0.01,0-0.08,0.01-0.07
		c0.01-0.01,0.01-0.02,0.02-0.03c0.03-0.04,0.04-0.07,0.1-0.09l0.01-0.02C9.9,2.11,9.92,2.1,9.96,2.09
		C10.03,2.07,10.07,2.07,10.09,2.1z M10.75,0.51l0.02-0.03h0.12c0.06,0,0.09,0,0.14,0.02c0.06,0.02,0.07,0.03,0.09,0.07
		c0.03,0.06,0.09,0.13,0.17,0.17c0.05,0.02,0.07,0.04,0.09,0.07c0.01,0.02,0.04,0.04,0.05,0.05c0.01,0.01,0.03,0.02,0.04,0.04
		c0.01,0.02,0.03,0.03,0.05,0.04l0.03,0.02c0.01,0.01,0.02,0.03,0.04,0.05c0.07,0.07,0.1,0.19,0.06,0.29
		c-0.01,0.02-0.02,0.05-0.02,0.06c0,0.04-0.02,0.09-0.06,0.13c-0.02,0.02-0.06,0.06-0.08,0.09c-0.04,0.06-0.11,0.11-0.17,0.12
		l-0.04,0.01c-0.03,0.02-0.06,0.02-0.09,0.01h-0.02C11.1,1.71,11.09,1.7,11,1.59c-0.07-0.09-0.12-0.18-0.15-0.25
		c-0.01-0.03-0.03-0.06-0.04-0.07c-0.05-0.05-0.06-0.08-0.06-0.15c0-0.06,0-0.1-0.03-0.18c-0.04-0.11-0.08-0.18-0.11-0.17
		c-0.01,0-0.03,0-0.05-0.01c-0.03-0.02-0.04-0.02-0.06-0.01s-0.03,0.01-0.05-0.01l-0.03-0.06l0.02-0.03
		c0.12-0.02,0.21-0.05,0.24-0.08c0.01-0.01,0.03-0.03,0.05-0.04L10.75,0.51z M16.48,6.83c-0.1-0.09-0.23-0.04-0.34-0.03
		c-0.06,0-0.09,0-0.13-0.01c-0.06-0.01-0.05,0.08-0.04,0.14v0.03c0,0.17,0.02,0.78,0.01,0.91c0,0.05-0.01,0.13-0.02,0.19
		c-0.01,0.05-0.02,0.12-0.02,0.15s0,0.06-0.01,0.08c-0.02,0.08-0.03,0.23-0.03,0.45c0,0.21,0,0.23-0.03,0.32
		c-0.01,0.05-0.03,0.12-0.04,0.15c-0.01,0.05-0.02,0.07-0.03,0.07c-0.02-0.04-0.04-0.06-0.08-0.05c-0.03,0.01-0.09,0.06-0.09,0.08
		c0,0.02-0.04,0.02-0.08-0.01c-0.05-0.03-0.06-0.03-0.07,0c-0.01,0.02-0.01,0.02-0.03,0.01h-0.07L15.34,9.3
		c-0.02,0-0.03-0.01-0.06-0.01c-0.06,0-0.12-0.03-0.17-0.1c-0.02-0.03-0.04-0.04-0.05-0.05C15.04,9.11,15.02,9.09,15,9.06
		c0-0.01-0.01-0.01-0.01-0.02c-0.03-0.05-0.04-0.08-0.08-0.23c-0.01-0.03-0.03-0.06-0.03-0.07l-0.01-0.02
		c0-0.02-0.01-0.03-0.03-0.04c-0.02,0-0.04-0.05-0.04-0.15c0-0.03-0.01-0.08-0.03-0.12c-0.02-0.05-0.03-0.09-0.03-0.13V8.22
		c0-0.02,0-0.04-0.01-0.07c-0.01-0.02-0.02-0.05-0.02-0.07l-0.02-0.05V7.99c0-0.03,0-0.05-0.01-0.08c-0.01-0.08-0.02-0.21-0.02-0.25
		c0-0.05,0-0.08-0.01-0.12c0-0.03,0.01-0.06,0.01-0.07c0-0.01,0.01-0.06,0.01-0.09c0-0.02,0.02-0.1,0.03-0.14
		c0.01-0.03,0.03-0.12,0.03-0.24V6.84c0-0.01-0.04-0.01-0.07-0.01c-0.11-0.02-0.33-0.04-0.5-0.05c-0.09,0-0.17-0.01-0.18-0.01
		c-0.01,0-0.02-0.01-0.05-0.01c-0.05,0-0.25-0.04-0.35-0.07c-0.06-0.02-0.18-0.08-0.19-0.09l-0.03-0.02
		c-0.02-0.01-0.06-0.05-0.1-0.1L13.2,6.39l-0.01-0.08v-0.1c0.01-0.02,0.01-0.04,0-0.06c-0.01-0.02,0-0.04,0-0.05
		c0-0.01,0.01-0.05,0.01-0.08c0-0.03,0.02-0.1,0.04-0.16c0.03-0.08,0.03-0.12,0.02-0.15c0-0.03,0.01-0.05,0.02-0.09
		c0.01-0.03,0.01-0.05,0.01-0.06s0.02-0.11,0.04-0.13c0.01-0.01,0.03-0.05,0.04-0.08c0.02-0.03,0.03-0.06,0.04-0.07
		c0.02-0.03,0.03-0.14,0-0.19V5.03c0-0.08-0.05-0.11-0.06-0.19c-0.07-0.1-0.13-0.16-0.19-0.28c-0.02-0.04-0.04-0.16-0.07-0.2
		c-0.01-0.02-0.03-0.07-0.04-0.11c-0.01-0.04-0.02-0.09-0.02-0.1c0-0.01-0.01-0.03-0.01-0.04c0-0.01-0.01-0.03-0.01-0.04
		c0-0.01-0.02-0.03-0.03-0.06c-0.02-0.04-0.02-0.06-0.01-0.09c0.01-0.03,0.01-0.03-0.02-0.08c-0.03-0.06-0.04-0.1-0.05-0.16
		c-0.01-0.04-0.01-0.06-0.02-0.07c-0.01-0.02-0.02-0.04,0-0.07c0.02-0.01,0.08-0.14,0.07-0.17V3.32c0-0.05,0.01-0.09,0.02-0.13
		c0.02-0.05,0.02-0.07,0.01-0.09c0-0.02,0-0.04,0.02-0.06l0.02-0.05L13,2.97c-0.02-0.01-0.02-0.03-0.02-0.08
		c0-0.04,0.01-0.07,0.01-0.08s0-0.06-0.01-0.12C12.96,2.61,12.97,2.6,13,2.58c0.03-0.02,0.03-0.02,0.02-0.05
		c0-0.02-0.01-0.05-0.02-0.07c0-0.01,0.02-0.05,0.02-0.06c0.01-0.01,0.02-0.03,0.02-0.04c0.02-0.03,0.04-0.06,0.05-0.09
		c0.03-0.15,0.03-0.18,0.09-0.24l0.06-0.04c0.01,0,0.02,0,0.03,0.01c0.02,0,0.03,0.01,0.05,0.01c0.04,0,0.07,0.01,0.07,0.02
		c0.01,0.02,0.02,0.05,0.04,0.07c0.02,0.03,0.03,0.08,0.05,0.16l0.02,0.05c0.02,0.06,0.05,0.05,0.06,0.15l0.01,0.04l0.03,0.06
		c0.02,0.07,0.03,0.1,0.04,0.11c0.04-0.01,0.06-0.01,0.09-0.04c0.03-0.03,0.06-0.06,0.08-0.07l0.03-0.03l0.08-0.07
		c0.06-0.06,0.13-0.11,0.18-0.1c0.06-0.07,0.12-0.13,0.15-0.17c0.03-0.04,0.16-0.12,0.18-0.13c0.05-0.04,0.1-0.09,0.12-0.12
		c0.02-0.02,0.1-0.06,0.14-0.08c0.02-0.01,0.04-0.03,0.05-0.04c0.01-0.01,0.02-0.04,0.04-0.06c0.02-0.02,0.03-0.05,0.04-0.06
		c0.01-0.01,0.03-0.01,0.04-0.02c0.02,0,0.05-0.03,0.08-0.05L15,1.58c0.02-0.01,0.04-0.03,0.04-0.04c0.03-0.06,0.08-0.2,0.08-0.21
		l0.02-0.06c0-0.02,0.01-0.08,0.03-0.17c0.02-0.08,0.04-0.16,0.05-0.19l0.03-0.08l0.02-0.11c0.01-0.07,0.02-0.09,0.04-0.11
		c0.01-0.01,0.02-0.04,0.02-0.07s0.02-0.07,0.03-0.09c0.01-0.02,0.02-0.06,0.02-0.08c0-0.05,0.03-0.1,0.04-0.11l0.02-0.02
		c0.01-0.03,0.03-0.06,0.04-0.08c0.02-0.03,0.03-0.07,0.03-0.08c0-0.02,0.01-0.02,0.04-0.01c0.02,0,0.03,0.01,0.04,0.01l0.02-0.04
		c0-0.03,0.03-0.05,0.06-0.03c0.02,0.02,0.1,0.24,0.1,0.26l0.02,0.09C15.8,0.4,15.8,0.45,15.8,0.47c0,0.16,0.02,0.39,0.03,0.42
		c0.01,0.02,0.01,0.03,0,0.05l-0.01,0.04v0.03c0,0.02-0.01,0.04-0.01,0.07c0,0.03-0.01,0.06-0.01,0.09
		c-0.01,0.17-0.04,0.33-0.04,0.34c0,0.01-0.01,0.03-0.01,0.06c-0.01,0.07,0.01,0.1,0.12,0.14c0.02,0.01,0.04,0.04,0.06,0.08
		c0.04,0.02,0.08,0.03,0.09,0.03c0.02,0.01,0.04,0.02,0.06,0.05c0.07,0.04,0.1,0.07,0.12,0.09c0.01,0.01,0.03,0.01,0.04,0.02
		c0.01,0.01,0.05,0.02,0.1,0.06c0.05,0.03,0.14,0.1,0.2,0.13c0.06,0.04,0.1,0.08,0.11,0.09c0.01,0.01,0.02,0.02,0.05,0.03
		c0.03,0.02,0.06,0.05,0.09,0.07l0.04,0.02l0.04,0.04l0.03,0.01c0.03,0.01,0.06,0.02,0.08,0.04c0.02,0.02,0.06,0.06,0.09,0.07
		c0.04,0.03,0.08,0.08,0.1,0.1l0.04,0.01c0.03,0.01,0.06,0.03,0.08,0.05c0.03,0.02,0.07,0.05,0.1,0.08l0.03,0.03
		c0.01,0.01,0.04,0.06,0.07,0.09c0.04,0.04,0.09,0.08,0.14,0.12l0.03,0.03c0.03,0.03,0.07,0.07,0.08,0.09l0.04,0.07
		c0,0.01,0.02,0.02,0.02,0.04c0.01,0.02,0.01,0.05,0.02,0.07c0.02,0.05,0.01,0.15-0.01,0.18c-0.02,0.04-0.09,0.19-0.09,0.2
		l-0.01,0.03c-0.01,0.03-0.02,0.05-0.03,0.06c-0.01,0.02-0.02,0.04-0.02,0.06C17.63,3.9,17.62,3.95,17.61,4
		c0,0.01-0.01,0.04-0.02,0.06c-0.01,0.02-0.02,0.05-0.02,0.04l-0.05,0.07L17.51,4.2c-0.01,0.06-0.02,0.12-0.04,0.18
		c-0.01,0.02-0.01,0.04-0.02,0.06c-0.01,0.03-0.01,0.07-0.01,0.11c0,0.03-0.01,0.05-0.01,0.06c0,0.01-0.01,0.24-0.04,0.47
		c-0.01,0.07-0.04,0.18-0.05,0.25c-0.02,0.11,0,0.21-0.02,0.43l-0.05,0.47c-0.01,0.06,0.04,0.13,0.03,0.17
		c-0.01,0.04-0.01,0.09-0.02,0.11c-0.01,0.04-0.02,0.06-0.04,0.1l-0.01,0.02c-0.02,0.02-0.02,0.05-0.02,0.07
		c-0.01,0.04,0.02,0.07-0.01,0.1c-0.03,0.04-0.1,0.04-0.13,0.04c-0.01,0-0.05,0.01-0.08,0.02c-0.08,0.04-0.14,0.05-0.2,0.01
		c-0.03-0.02-0.17-0.02-0.24-0.02L16.48,6.83z M14.77,2.45c-0.07,0.03-0.1,0.11-0.2,0.17c-0.06,0.04-0.16,0.1-0.2,0.15
		c-0.09,0.1-0.24,0.26-0.31,0.34c-0.06,0.08-0.14,0.16-0.18,0.21c0.01,0.05,0.01,0.09,0.01,0.16c0,0.07,0.03,0.11,0.06,0.12
		c0.05,0.02,0.11-0.01,0.16-0.01c0.03,0,0.14-0.03,0.17-0.03c0.05-0.02,0.16-0.05,0.26-0.06c0.03-0.01,0.12-0.04,0.13-0.04
		c0.16-0.01,0.24-0.01,0.28-0.04l0.02-0.18c0.02-0.14,0.01-0.2,0.01-0.21V2.88c0.01-0.04,0.01-0.07,0.01-0.11V2.61
		c0.01-0.02-0.03-0.27-0.04-0.3C14.89,2.37,14.78,2.41,14.77,2.45z M14.23,4.07c-0.04,0.02-0.07,0.02-0.11,0.02
		c-0.05,0.01-0.08-0.01-0.12,0c0.01,0.02,0,0.11,0.01,0.13c0,0.04,0.04,0.09,0.03,0.12c0,0.08,0.03,0.11,0.03,0.19
		c0.02,0.02-0.01,0.04,0.01,0.06c0.02,0.02,0.02,0.05,0.04,0.06c0.04,0.02,0.05,0.03,0.06,0.06c0.01,0.03,0.03,0.08,0.05,0.11
		c0.05,0.07,0.07,0.19,0.11,0.2c0.04,0.01,0.51,0,0.54-0.01C14.9,5,14.9,4.99,14.9,4.88V4.74c0-0.01,0.05-0.55,0.04-0.57
		c0-0.01-0.06-0.01-0.1-0.01c-0.02,0-0.05-0.01-0.1-0.01c-0.04-0.01-0.09,0-0.11,0c-0.03,0-0.06-0.01-0.09-0.02
		c-0.02-0.01-0.06-0.01-0.07-0.01c-0.01,0-0.03,0.01-0.05,0c-0.01,0-0.06-0.02-0.11-0.03S14.25,4.07,14.23,4.07z M15.84,4.9
		c0.04-0.02,0.14-0.04,0.25-0.06c0.04-0.01,0.18-0.03,0.22-0.04c0.16-0.02,0.19-0.15,0.23-0.2l0.02-0.03l0.03-0.06
		c0.02-0.04,0.04-0.08,0.05-0.14c0-0.02,0.02-0.09,0.02-0.1c0-0.01,0.01-0.04,0.02-0.07c0.01-0.05,0.03-0.13,0.05-0.21
		c0.05-0.17,0.08-0.32,0.09-0.44c0-0.05,0.01-0.09,0.01-0.1V3.39c-0.01-0.03,0-0.04,0-0.05c0-0.01,0.01-0.02-0.01-0.06
		c0-0.01-0.01-0.03-0.02-0.03L16.76,3.2l-0.03-0.03c-0.01-0.01-0.03-0.03-0.06-0.05c-0.03-0.02-0.05-0.05-0.06-0.06l-0.05-0.05
		L16.4,2.9c-0.1-0.07-0.12-0.08-0.18-0.12l-0.03-0.03c-0.01-0.01-0.02-0.04-0.05-0.05c-0.02-0.01-0.03-0.03-0.05-0.04
		c-0.02-0.01-0.04-0.02-0.06-0.04c-0.08-0.06-0.15-0.12-0.23-0.17v0.26c0,0.04,0.04,0.1,0.03,0.16v0.21c0,0.15,0.02,0.28,0.02,0.29
		c0.01,0.02,0.08,0.06,0.12,0.06c0.01,0,0.04,0.01,0.06,0.02s0.05,0.04,0.06,0.04l0.03,0.01c0.02,0,0.04,0.01,0.07,0.02
		c0.02,0.01,0.05,0.04,0.08,0.07c0.04,0.04,0.07,0.07,0.09,0.07c0.05,0.01,0.12,0.08,0.15,0.15c0.03,0.06,0.03,0.08,0.03,0.15
		c0,0.06-0.02,0.1-0.02,0.11c0,0.01-0.05,0.02-0.12,0.02c-0.09,0.01-0.12,0.02-0.12,0.04c-0.01,0.01-0.03,0.01-0.04,0.02
		c-0.06,0.02-0.19,0.02-0.3,0.01c-0.04-0.01-0.07,0.01-0.08,0.01c-0.02,0.01-0.02,0.01-0.02,0.42V4.9z"/>
	<path class="st0" d="M20.7,0.85c0.03,0,0.08,0.03,0.1,0.06c0.02,0.02,0.04,0.05,0.05,0.07c0.02,0.01,0.05,0.06,0.06,0.1
		c0.02,0.04,0.02,0.07,0.03,0.08c0.01,0.01,0.01,0.01,0.01,0.02s0.01,0.03,0.02,0.05c0.01,0.01,0.01,0.04,0.01,0.05
		c0,0.04,0.04,0.13,0.06,0.17c0.01,0.02,0.02,0.05,0.02,0.06c0,0.01,0.01,0.04,0.02,0.07c0.01,0.03,0.02,0.08,0.02,0.1
		c0,0.02,0,0.03,0.01,0.04c0.01,0.01,0.02,0.04,0.03,0.08c0.01,0.03,0.03,0.09,0.04,0.11s0.02,0.06,0.02,0.08
		c0,0.06,0.02,0.09,0.06,0.08c0.01,0,0.07,0.05,0.14,0.11c0.17,0.15,0.32,0.28,0.33,0.28s0.02,0.01,0.03,0.03
		c0.01,0.02,0.05,0.06,0.08,0.1c0.06,0.07,0.13,0.19,0.13,0.23c0,0.01,0.01,0.03,0.02,0.04c0.01,0.01,0.03,0.04,0.04,0.07
		c0.02,0.04,0.02,0.05,0.01,0.11c-0.01,0.07-0.02,0.11-0.04,0.12c-0.01,0.01-0.03,0.03-0.03,0.06c-0.01,0.1-0.1,0.28-0.14,0.29
		c-0.01,0-0.03,0.01-0.03,0.02s-0.02,0.05-0.05,0.07c-0.03,0.02-0.07,0.06-0.09,0.09c-0.02,0.03-0.05,0.05-0.05,0.06
		c-0.01,0.01-0.03,0-0.06-0.01c-0.06-0.02-0.26-0.03-0.31-0.02c-0.02,0.01-0.03,0.02-0.04,0.05c0,0.02-0.02,0.04-0.02,0.05v0.03
		c0,0.01,0,0.05-0.01,0.09s-0.02,0.09-0.02,0.11c0,0.02-0.01,0.09-0.02,0.14c-0.02,0.12-0.04,0.32-0.04,0.5c0,0.12,0,0.13,0.02,0.13
		c0.01,0,0.03,0,0.03,0.01c0,0.01,0.02,0.01,0.05,0.01c0.07,0,0.18,0.03,0.19,0.05c0,0.01,0.02,0.03,0.04,0.04
		c0.02,0.01,0.06,0.05,0.09,0.08c0.03,0.03,0.08,0.07,0.11,0.09c0.1,0.07,0.15,0.15,0.18,0.22c0.05,0.13,0.05,0.15,0.04,0.21
		c-0.01,0.03-0.02,0.08-0.03,0.09c-0.02,0.03-0.02,0.02-0.05,0.08c-0.02,0.03-0.04,0.05-0.05,0.05c-0.02,0-0.07,0.02-0.09,0.03
		c-0.05,0.03-0.14,0.03-0.18,0.01c-0.01-0.01-0.03-0.01-0.04-0.01c-0.01,0.01-0.04-0.01-0.09-0.02c-0.1-0.03-0.2-0.04-0.28-0.02
		c-0.05,0.01-0.07,0.02-0.08,0.04c-0.04,0.06-0.13,0.47-0.14,0.63c0,0.06-0.01,0.15-0.02,0.19c0,0.04-0.01,0.2-0.01,0.36
		c0,0.23,0,0.3,0.01,0.37c0.01,0.08,0.03,0.17,0.04,0.24c0,0.04,0.01,0.07,0.02,0.08c0.01,0.01,0.01,0.02,0,0.03
		c-0.01,0.01-0.01,0.02,0,0.04c0.01,0.01,0.01,0.04,0.01,0.06c0,0.02,0.01,0.04,0.02,0.05s0.01,0.03,0.01,0.06
		c0,0.07,0.02,0.31,0.03,0.39c0.01,0.04,0.02,0.1,0.03,0.13c0.03,0.09,0.04,0.24,0,0.32c-0.01,0.04-0.03,0.08-0.04,0.11
		c-0.01,0.07-0.05,0.1-0.15,0.15c-0.06,0.03-0.09,0.04-0.14,0.04c-0.03,0-0.08,0.01-0.11,0.02c-0.05,0.01-0.12,0.01-0.24-0.03
		c-0.1-0.03-0.13-0.08-0.15-0.16c-0.01-0.04-0.02-0.05-0.04-0.06c-0.01-0.01-0.02-0.02-0.03-0.05c-0.01-0.02-0.02-0.06-0.03-0.08
		C20,8.62,19.99,8.57,19.97,8.29c-0.01-0.09-0.01-0.19-0.02-0.22V7.99c0-0.02,0-0.09-0.01-0.15c-0.01-0.08-0.01-0.12,0-0.15
		c0.01-0.02,0.01-0.04,0-0.05c-0.01-0.01,0-0.03,0.01-0.06c0.01-0.03,0.01-0.1,0.01-0.16c0-0.08,0.01-0.12,0.02-0.16
		C19.99,7.23,20,7.18,20,7.16c0-0.02,0.01-0.06,0.02-0.07c0.03-0.05,0.05-0.84,0.03-0.84c-0.01,0-0.03,0.01-0.05,0.03
		c-0.02,0.02-0.05,0.03-0.07,0.03c-0.02,0-0.04,0.01-0.06,0.03c-0.02,0.02-0.04,0.02-0.06,0.02c-0.01,0-0.04,0-0.05,0.01
		s-0.04,0.02-0.07,0.03c-0.03,0.01-0.05,0.02-0.05,0.03s-0.01,0.01-0.02,0.01c-0.04,0-0.11,0.02-0.16,0.04l-0.08,0.04
		c-0.02,0.01-0.06,0.02-0.07,0.03c-0.04,0.03-0.1,0.02-0.19,0c-0.05-0.01-0.09-0.03-0.1-0.04c-0.01-0.01-0.04-0.03-0.06-0.04
		s-0.05-0.04-0.06-0.05c-0.01-0.01-0.04-0.06-0.08-0.1s-0.07-0.08-0.07-0.09c0-0.01-0.04-0.03-0.07-0.07
		c-0.07-0.07-0.15-0.13-0.22-0.14c-0.04-0.01-0.18-0.09-0.18-0.11c0-0.01,0.03-0.02,0.07-0.03c0.07-0.02,0.12-0.04,0.12-0.07
		c0-0.01,0.01-0.02,0.02-0.02c0.01,0,0.08-0.03,0.16-0.05c0.18-0.05,0.28-0.08,0.31-0.11c0.04-0.04,0.1-0.08,0.1-0.06
		c0,0.01,0.01,0.01,0.02,0s0.04-0.04,0.07-0.05c0.03-0.02,0.07-0.03,0.08-0.04c0.01-0.01,0.05-0.04,0.09-0.06
		c0.04-0.02,0.08-0.04,0.09-0.05c0.01-0.01,0.02-0.03,0.03-0.03c0.01,0,0.04-0.02,0.06-0.04c0.02-0.02,0.04-0.04,0.06-0.05
		c0-0.01,0-0.01,0.02-0.02c0.02-0.01,0.03-0.01,0.03-0.02c0-0.01,0-0.03,0.01-0.03c0.01,0,0.03-0.02,0.04-0.04
		c0.03-0.04,0.1-0.12,0.11-0.12s0.13-0.17,0.14-0.21c0.01-0.01,0.01-0.03,0.02-0.03s0.03-0.03,0.04-0.06s0.03-0.07,0.06-0.1
		c0.04-0.05,0.05-0.07,0.06-0.19c0-0.04,0-0.06,0.01-0.06s0.02-0.01,0.02-0.05V4.22c0-0.06,0-0.07-0.03-0.08
		c-0.02-0.01-0.03-0.01-0.05,0C20.02,4.15,20,4.15,19.99,4.15c-0.01,0-0.02,0.01-0.04,0.03c-0.06,0.06-0.12,0.1-0.15,0.09
		c-0.02,0-0.03-0.01-0.03,0c0,0.01-0.01,0.02-0.02,0.02c-0.01,0-0.04,0.01-0.06,0.03c-0.05,0.03-0.06,0.03-0.11-0.01
		c-0.01-0.01-0.02-0.01-0.05,0c-0.02,0.01-0.08,0.01-0.19,0.01c-0.15-0.01-0.17-0.02-0.2-0.04c-0.04-0.03-0.11-0.14-0.12-0.18
		c0-0.02-0.02-0.06-0.04-0.09c-0.02-0.03-0.04-0.07-0.04-0.08c0-0.03-0.02-0.07-0.07-0.12c-0.03-0.03-0.06-0.07-0.07-0.11
		c-0.01-0.04-0.02-0.07-0.03-0.07c-0.01-0.01-0.03-0.02-0.04-0.03c-0.01-0.01-0.03-0.06-0.06-0.09c-0.02-0.03-0.05-0.08-0.06-0.1
		c-0.01-0.02-0.01-0.04-0.02-0.05s-0.02-0.03-0.02-0.05c0-0.02-0.01-0.03-0.02-0.03c-0.01,0-0.05-0.07-0.05-0.08s0-0.02-0.01-0.02
		c-0.01,0-0.02-0.02-0.02-0.04c0-0.02-0.04-0.09-0.07-0.16c-0.03-0.07-0.07-0.14-0.07-0.16c0-0.02-0.01-0.04-0.02-0.05
		C18.3,2.76,18.3,2.73,18.3,2.68s0.02-0.07,0.04-0.09c0.02-0.02,0.03-0.03,0.02-0.04c-0.01-0.01,0.03-0.04,0.05-0.04
		s0.04-0.04,0.03-0.06c-0.01-0.02,0.08-0.08,0.11-0.08c0.01,0,0.03-0.01,0.03-0.02c0-0.01,0-0.02,0.01-0.02s0.03-0.01,0.05-0.03
		c0.03-0.03,0.03-0.03,0.04-0.02c0.01,0.01,0.03,0.01,0.08-0.01c0.03-0.02,0.07-0.04,0.1-0.06c0.03-0.02,0.07-0.04,0.09-0.04
		S19,2.15,19.03,2.14l0.05-0.02l0.02,0.03c0.02,0.02,0.02,0.02,0.04,0.01c0.03-0.01,0.04-0.01,0.1,0.03
		c0.07,0.04,0.12,0.06,0.15,0.05c0.01,0,0.03,0,0.04,0.01s0.03,0,0.06,0c0.03,0,0.07-0.01,0.09-0.01c0.02,0,0.06-0.01,0.09-0.02
		c0.05-0.02,0.07-0.02,0.09-0.01c0.03,0.02,0.1,0.01,0.13-0.02c0.01-0.01,0.03-0.01,0.05-0.01c0.02,0,0.07-0.01,0.12-0.02l0.09-0.02
		V2.06c0-0.04,0.01-0.13,0.02-0.19c0.01-0.06,0.02-0.15,0.02-0.2c0-0.05,0.01-0.11,0.01-0.13c0.01-0.02,0-0.06,0-0.09
		c0-0.04,0-0.06,0.01-0.07c0.01-0.01,0.01-0.03,0.01-0.07c0-0.03,0.01-0.08,0.01-0.12s0-0.08-0.01-0.09c-0.01-0.02,0-0.04,0.01-0.05
		s0.01-0.04,0.02-0.07c0.01-0.07,0.03-0.09,0.05-0.07c0.02,0.02,0.09,0.01,0.12-0.01c0.01-0.01,0.02-0.02,0.02-0.01
		s0.01,0.01,0.03,0c0.03-0.02,0.03-0.02,0.05,0.01c0.02,0.03,0.03,0.04,0.04,0.02c0.01-0.01,0.02-0.02,0.03-0.02
		c0.01,0,0.02-0.01,0.02-0.02c0-0.02,0-0.03,0.03,0c0.04,0.04,0.06,0.04,0.06,0C20.7,0.86,20.69,0.85,20.7,0.85z M24.49,0.21
		c0.04,0,0.06,0.01,0.11,0.05c0.03,0.02,0.06,0.05,0.07,0.06s0.02,0.02,0.02,0.04c0,0.02,0.03,0.05,0.05,0.07
		c0.02,0.02,0.03,0.03,0.02,0.04c0,0.01,0,0.02,0.01,0.03c0.02,0.04,0.03,0.17,0.03,0.36c0,0.17,0,0.17-0.04,0.26
		c-0.02,0.05-0.03,0.1-0.03,0.12c0,0.02-0.01,0.04-0.02,0.05C24.7,1.3,24.7,1.31,24.7,1.32c0,0.05,0,0.07-0.02,0.08
		c-0.02,0-0.04,0.05-0.07,0.1c-0.02,0.04-0.17,0.18-0.21,0.2c-0.02,0.01-0.04,0.04-0.05,0.05c-0.02,0.03-0.01,0.09,0.01,0.13
		c0.03,0.05,0.13,0.1,0.15,0.07c0-0.01,0.02-0.02,0.05-0.02c0.08-0.01,0.23-0.05,0.41-0.11c0.1-0.03,0.2-0.06,0.24-0.07
		c0.04-0.01,0.08-0.02,0.09-0.03c0.02-0.01,0.04-0.02,0.06-0.02c0.02,0,0.04-0.01,0.04-0.02c0-0.01,0.01-0.02,0.02-0.02
		s0.03-0.01,0.05-0.03c0.02-0.02,0.05-0.04,0.07-0.04c0.05-0.01,0.11-0.05,0.11-0.07c0-0.01,0.02-0.02,0.04-0.02
		c0.02,0,0.05-0.01,0.06-0.01h0.04c0.02,0,0.05-0.01,0.07-0.02c0.04-0.02,0.04-0.02,0.07,0c0.02,0.01,0.06,0.02,0.1,0.03
		c0.01,0,0.07,0.03,0.09,0.04c0.02,0.01,0.05,0.02,0.07,0.02c0.02,0,0.03,0.01,0.04,0.02c0.01,0.01,0.02,0.01,0.03,0.01
		c0.01,0,0.05,0.01,0.08,0.03c0.03,0.02,0.07,0.03,0.08,0.03s0.03,0,0.05,0.01c0.02,0.01,0.06,0.02,0.08,0.03
		c0.04,0.01,0.07,0.03,0.14,0.11c0.05,0.05,0.11,0.11,0.15,0.14c0.04,0.02,0.07,0.04,0.07,0.05s0.01,0.03,0.02,0.06
		c0.02,0.05,0.02,0.05,0.01,0.12c-0.01,0.04-0.01,0.08-0.01,0.1c0,0.03-0.02,0.11-0.05,0.14c-0.01,0.01-0.02,0.04-0.03,0.07
		c-0.02,0.07-0.05,0.08-0.09,0.07c-0.01-0.01-0.04-0.01-0.05-0.01c-0.07,0.02-0.13,0.02-0.2-0.02c-0.05-0.02-0.08-0.03-0.1-0.03
		c-0.01,0-0.03,0-0.05-0.01c-0.01-0.01-0.05-0.02-0.08-0.03c-0.03-0.01-0.07-0.02-0.07-0.03s-0.02-0.01-0.06-0.01
		c-0.11,0.01-0.21,0.03-0.23,0.04c-0.01,0.01,0.08,0.1,0.26,0.28c0.12,0.12,0.17,0.17,0.22,0.19c0.03,0.01,0.06,0.04,0.06,0.05
		C26.47,2.98,26.49,2.99,26.5,3c0.03,0.01,0.16,0.15,0.21,0.22c0.02,0.03,0.04,0.04,0.06,0.04c0.02-0.01,0.03,0,0.06,0.04
		c0.02,0.03,0.06,0.06,0.08,0.09c0.04,0.03,0.06,0.06,0.06,0.09c0,0.02,0.01,0.05,0.02,0.07c0.02,0.02,0.03,0.03,0.03,0.12
		c0.01,0.18-0.02,0.24-0.15,0.27c-0.15,0.04-0.22,0.02-0.36-0.07c-0.05-0.03-0.08-0.06-0.09-0.08c0-0.02-0.03-0.04-0.05-0.06
		c-0.03-0.02-0.05-0.04-0.05-0.05c0-0.01-0.02-0.04-0.05-0.07c-0.04-0.04-0.05-0.06-0.05-0.08c0-0.03-0.03-0.05-0.08-0.08
		c-0.02-0.01-0.03-0.03-0.03-0.05c0-0.02-0.01-0.03-0.03-0.04c-0.02-0.01-0.03-0.01-0.03-0.02c0-0.01-0.01-0.02-0.02-0.04
		c-0.01-0.02-0.02-0.04-0.02-0.07c0-0.05-0.06-0.16-0.09-0.17c-0.01-0.01-0.02-0.02-0.02-0.04c0-0.02-0.01-0.04-0.02-0.04
		c-0.02-0.01-0.07-0.07-0.09-0.11c-0.01-0.02-0.01-0.03-0.02-0.03s-0.02-0.01-0.04-0.03c-0.02-0.02-0.05-0.06-0.08-0.09
		s-0.07-0.08-0.09-0.11c-0.03-0.06-0.03-0.06-0.07-0.06c-0.07,0-0.2,0.02-0.28,0.05c-0.04,0.01-0.08,0.02-0.09,0.02
		s-0.02,0-0.04,0.01c-0.02,0.01-0.07,0.01-0.09,0.01c-0.02,0-0.05,0-0.07,0.01c-0.02,0.01-0.03,0.01-0.04,0
		c-0.01-0.01-0.02-0.01-0.05,0c-0.02,0.01-0.07,0.02-0.11,0.03c-0.11,0.03-0.14,0.05-0.13,0.08c0.03,0.15,0.03,0.2,0.01,0.39
		c-0.02,0.13-0.03,0.18-0.04,0.18c-0.02,0-0.01,0.12,0.01,0.19c0.01,0.03,0.03,0.08,0.05,0.12l0.03,0.07l0.06-0.04
		c0.03-0.02,0.13-0.11,0.22-0.18c0.2-0.17,0.33-0.26,0.37-0.28c0.02-0.01,0.05-0.02,0.05-0.03s0.01-0.01,0.02-0.01
		c0.01,0,0.03,0.01,0.04,0c0.01-0.01,0.05-0.01,0.07-0.01c0.04,0,0.05,0,0.13,0.07c0.05,0.04,0.08,0.07,0.08,0.08
		s0.01,0.03,0.03,0.05c0.02,0.02,0.05,0.06,0.07,0.09c0.02,0.03,0.05,0.05,0.06,0.05s0.03,0.03,0.04,0.05
		c0.01,0.02,0.02,0.04,0.03,0.04c0.01,0,0.02,0.02,0.03,0.04c0.01,0.02,0.04,0.07,0.06,0.11c0.08,0.13,0.08,0.21,0.02,0.3
		C26.01,4.07,26.01,4.1,26,4.14c0,0.03-0.01,0.06-0.02,0.07s-0.01,0.03-0.01,0.06c0,0.02,0,0.05-0.01,0.06
		c-0.02,0.02-0.04,0.1-0.05,0.17c0,0.04-0.01,0.07-0.01,0.08c-0.01,0.03-0.01,0.19,0,0.21c0.01,0.02,0,0.09-0.04,0.13
		c-0.02,0.02-0.07,0.06-0.12,0.09c-0.09,0.06-0.17,0.08-0.29,0.09c-0.03,0-0.06,0.01-0.07,0.02c-0.02,0.01-0.07,0.01-0.2,0.01
		c-0.33,0-0.62,0-0.64,0.02c-0.01,0.01-0.03,0.01-0.04,0s-0.03,0-0.07,0.01c-0.06,0.02-0.08,0.01-0.09-0.05
		c-0.01-0.03-0.01-0.05-0.03-0.06c-0.03-0.03-0.07-0.1-0.07-0.14c0-0.02,0-0.04-0.01-0.04c-0.01-0.01-0.03-0.04-0.06-0.09
		c-0.05-0.08-0.05-0.09-0.04-0.1c0.02-0.02,0.03-0.03,0.01-0.03c-0.02,0-0.03-0.07-0.02-0.08c0.01-0.01,0-0.03-0.01-0.05
		c-0.02-0.03-0.02-0.04-0.01-0.13c0.01-0.08,0-0.11-0.01-0.14c-0.01-0.02-0.02-0.07-0.02-0.11c0-0.06,0-0.07-0.02-0.07
		c-0.01,0-0.03,0.01-0.04,0.03C24,4.11,23.97,4.15,23.95,4.18c-0.02,0.03-0.05,0.06-0.06,0.08c-0.01,0.01-0.07,0.06-0.13,0.1
		c-0.13,0.08-0.16,0.09-0.23,0.06C23.5,4.4,23.48,4.4,23.47,4.41c-0.01,0.01-0.03,0-0.07-0.02c-0.03-0.02-0.09-0.04-0.13-0.05
		s-0.08-0.02-0.09-0.03c-0.01-0.01-0.04-0.02-0.07-0.02c-0.1-0.02-0.22-0.07-0.24-0.1c-0.01-0.02-0.03-0.04-0.06-0.05
		c-0.02-0.01-0.05-0.01-0.04-0.02c-0.02-0.01-0.09-0.07-0.15-0.13c-0.03-0.03-0.19-0.08-0.25-0.08c-0.03,0-0.09,0-0.14,0.01
		c-0.07,0-0.09,0-0.14-0.02c-0.07-0.04-0.07-0.04-0.02-0.09c0.03-0.02,0.05-0.05,0.05-0.06c0-0.02,0.07-0.09,0.11-0.11
		c0.01-0.01,0.03-0.01,0.02-0.02c-0.01-0.01,0.06-0.06,0.13-0.1c0.12-0.06,0.24-0.12,0.27-0.13l0.12-0.06
		c0.02-0.01,0.04-0.02,0.05-0.02s0.04-0.02,0.07-0.04c0.01-0.01,0.03-0.01,0.05-0.01c0.02,0,0.04-0.02,0.07-0.04
		c0.03-0.02,0.05-0.03,0.06-0.03c0.02,0,0.17-0.13,0.21-0.18c0.02-0.03,0.04-0.05,0.05-0.05s0.02-0.04,0.03-0.07
		c0-0.01,0.01-0.02,0.02-0.03c0.01-0.01,0-0.02-0.06-0.04c-0.04-0.01-0.08-0.02-0.1-0.02c-0.02,0-0.05-0.01-0.07-0.02
		c-0.02-0.01-0.08-0.04-0.14-0.05c-0.06-0.02-0.12-0.03-0.13-0.04c-0.01-0.01-0.04-0.02-0.07-0.02c-0.02,0-0.06-0.01-0.07-0.02
		c-0.01-0.01-0.04-0.03-0.06-0.04c-0.03-0.02-0.03-0.04-0.03-0.06c0-0.04,0.03-0.07,0.08-0.09c0.03-0.01,0.03-0.02,0.02-0.04
		c0-0.01,0.01-0.02,0.05-0.04c0.07-0.03,0.2-0.07,0.27-0.08c0.03,0,0.08-0.01,0.11-0.02c0.05-0.02,0.15-0.04,0.25-0.05
		c0.03,0,0.07-0.01,0.09-0.02c0.02-0.01,0.05-0.01,0.06-0.01c0.01,0,0.02,0,0.03-0.01c0.01-0.01,0.03-0.03,0.06-0.04
		c0.04-0.02,0.04-0.03,0.05-0.05c0.01,0,0.01-0.01,0.01-0.05V1.96c0.01-0.05-0.03-0.15-0.07-0.16c-0.01,0-0.04-0.02-0.07-0.04
		c-0.02-0.02-0.06-0.04-0.08-0.04c-0.02-0.01-0.05-0.01-0.06-0.02c-0.01-0.01-0.03-0.02-0.05-0.02c-0.02,0-0.06-0.03-0.08-0.04
		c-0.02-0.01-0.05-0.02-0.06-0.02s-0.02-0.02-0.03-0.04c-0.01-0.02-0.03-0.04-0.04-0.05c-0.02-0.01-0.04-0.03-0.07-0.08
		c0-0.01-0.02-0.04-0.04-0.07c-0.02-0.04-0.06-0.1-0.1-0.14S22.9,1.15,22.9,1.13c-0.01-0.02-0.02-0.03-0.03-0.03
		s-0.02-0.01-0.04-0.03c-0.04-0.03-0.07-0.05-0.15-0.09c-0.04-0.02-0.08-0.03-0.09-0.04c-0.01-0.01-0.02-0.01-0.03-0.01
		c-0.01,0-0.03,0-0.07-0.01C22.45,0.91,22.41,0.9,22.4,0.9s-0.03,0-0.04-0.02c-0.01-0.03-0.01-0.05,0.01-0.06
		c0.03-0.03,0.11-0.04,0.15-0.03c0.02,0,0.04-0.01,0.05-0.01s0.06-0.01,0.1-0.01c0.09,0,0.32-0.06,0.35-0.09
		c0.01-0.01,0.02-0.01,0.03-0.01s0.05,0,0.1-0.01c0.13-0.02,0.37-0.03,0.38-0.02c0.01,0.01,0.14-0.01,0.21-0.03
		c0.08-0.02,0.25-0.09,0.27-0.11c0.01-0.01,0.03-0.02,0.05-0.02c0.05,0,0.11-0.04,0.17-0.11c0.03-0.04,0.08-0.07,0.09-0.08
		c0.02-0.01,0.03-0.03,0.04-0.04c0.01-0.01,0.03-0.03,0.04-0.03C24.42,0.22,24.46,0.21,24.49,0.21z M22.62,5.31
		c0.01,0,0.03,0.02,0.06,0.05c0.05,0.05,0.09,0.12,0.11,0.18c0,0.01,0.01,0.04,0.02,0.05c0.01,0.01,0.05,0.08,0.08,0.15
		c0.06,0.13,0.1,0.18,0.13,0.17c0.01,0,0.05-0.01,0.1-0.01c0.05-0.01,0.1-0.01,0.11-0.02c0.02-0.01,0.03-0.02,0.04-0.01
		c0.01,0.01,0.04,0,0.09-0.01c0.04-0.01,0.24-0.05,0.43-0.09l0.44-0.09l0.19-0.04c0.05-0.01,0.11-0.01,0.14-0.02
		c0.03-0.01,0.06-0.02,0.08-0.02c0.02,0,0.06-0.02,0.1-0.03s0.12-0.03,0.18-0.04l0.32-0.05c0.12-0.02,0.22-0.03,0.23-0.03
		c0.02,0,0.04,0,0.05-0.01s0.03-0.02,0.04-0.02c0.08,0,0.2-0.01,0.2-0.02c0-0.02-0.03-0.03-0.06-0.02c-0.03,0.01-0.05,0-0.04-0.01
		c0-0.01,0.03-0.01,0.07-0.01c0.07,0,0.09,0.01,0.14,0.04c0.03,0.02,0.08,0.04,0.11,0.05s0.06,0.03,0.06,0.04
		c0.01,0.01,0.03,0.03,0.06,0.04c0.03,0.01,0.05,0.02,0.05,0.03c0,0.01,0.02,0.02,0.04,0.04c0.03,0.02,0.08,0.06,0.09,0.07
		c0.03,0.02,0.06,0.05,0.07,0.06c0.02,0.01,0.07,0.05,0.11,0.09s0.08,0.08,0.09,0.08c0.01,0,0.01,0.01,0.02,0.02
		c0.01,0.02,0.03,0.03,0.04,0.03c0.01,0,0.02,0.01,0.03,0.03c0.01,0.01,0.04,0.04,0.06,0.05c0.02,0.01,0.05,0.03,0.05,0.04
		c0.01,0.01,0.02,0.02,0.03,0.02c0.02,0,0.16,0.13,0.17,0.15c0,0.01,0.02,0.01,0.03,0.02C26.99,6.26,27,6.29,27,6.29
		s0.01,0.02,0.02,0.03c0.01,0.01,0.02,0.02,0.03,0.04c0.01,0.02,0.04,0.05,0.07,0.07c0.03,0.02,0.05,0.06,0.06,0.08
		c0.01,0.02,0.03,0.04,0.04,0.06c0.01,0.02,0.02,0.04,0.02,0.05c0,0.01,0.02,0.04,0.03,0.07l0.02,0.06l-0.02,0.07
		c-0.02,0.07-0.03,0.08-0.12,0.14C27.09,7,27.08,7.05,27.07,7.19c0,0.08-0.01,0.13,0,0.17c0.01,0.04,0.01,0.06,0,0.07
		c-0.01,0.01-0.01,0.02,0,0.04c0,0.01,0.01,0.2,0.01,0.43c0,0.54,0.01,0.74,0.02,0.8c0.01,0.07,0.01,0.19,0,0.22
		c-0.01,0.02-0.06,0.05-0.1,0.05c-0.01,0-0.03,0.01-0.03,0.02c-0.01,0.03-0.09,0.04-0.15,0.02C26.8,9,26.8,9,26.79,9.01
		c0,0.01-0.03,0.01-0.04,0.01s-0.03,0-0.04,0.01s-0.01,0.01-0.02,0c-0.01-0.01-0.03-0.01-0.06-0.01S26.56,9.01,26.55,9
		c-0.01-0.01-0.08-0.04-0.14-0.07c-0.12-0.05-0.14-0.06-0.19-0.14l-0.07-0.07c-0.02-0.02-0.04-0.04-0.04-0.05
		c0-0.02-0.14-0.18-0.15-0.17c-0.01,0.01-0.18-0.29-0.21-0.36c-0.01-0.03-0.05-0.08-0.1-0.13c-0.08-0.08-0.12-0.1-0.12-0.07
		c-0.04-0.03-0.05,0-0.04,0.18c0.01,0.21,0.02,0.31,0.05,0.37c0.01,0.03,0.02,0.06,0.02,0.1c0,0.03,0,0.09,0.01,0.12
		c0.01,0.05,0,0.07-0.01,0.08c-0.01,0.01-0.03,0.02-0.03,0.03s-0.01,0.01-0.02,0.02c-0.01,0.01-0.04,0.03-0.06,0.04
		c-0.02,0.02-0.04,0.03-0.05,0.03c-0.01,0-0.03,0.02-0.06,0.03s-0.05,0.02-0.06,0.01c-0.01-0.01-0.02,0.01-0.03,0.02
		C25.22,9,25.19,9.01,25.14,9.01c-0.02,0-0.05,0-0.05,0.01s-0.02,0.01-0.04,0.01c-0.02,0-0.04,0-0.06,0.01
		c-0.06,0.03-0.17,0.02-0.24-0.01c-0.05-0.02-0.05-0.02-0.13-0.01c-0.13,0.02-0.33,0.02-0.38,0.01c-0.02-0.01-0.05-0.02-0.07-0.04
		c-0.01-0.02-0.05-0.06-0.07-0.08C24.06,8.86,24,8.76,24,8.72c0-0.01-0.01-0.03-0.02-0.05c-0.02-0.03-0.02-0.05-0.02-0.13
		c0-0.12-0.01-0.19-0.06-0.23c-0.07-0.07-0.1-0.17-0.09-0.34c0.01-0.06,0.01-0.12,0-0.15c-0.01-0.04-0.02-0.13-0.01-0.43
		c0-0.05,0.01-0.09,0.02-0.1c0.01-0.01,0.03-0.08,0.03-0.13c0.01-0.08,0.03-0.17,0.04-0.2c0.01-0.02,0.02-0.05,0.02-0.06
		c0-0.03,0.03-0.12,0.05-0.14c0.01-0.01,0.02-0.03,0.03-0.05c0.02-0.04,0.06-0.06,0.08-0.04c0.03,0.03,0.07,0.03,0.08,0.01
		c0.01-0.02,0.01-0.02,0.03,0c0.02,0.02,0.03,0.02,0.05,0.01c0.01-0.01,0.02-0.01,0.03-0.01c0.01,0,0.03,0.03,0.06,0.07
		s0.05,0.07,0.06,0.07c0.02,0,0.08-0.04,0.13-0.09c0.07-0.07,0.21-0.2,0.29-0.26c0.05-0.04,0.09-0.04,0.16-0.04
		c0.02,0,0.03,0,0.03-0.01S25,6.4,25.01,6.39c0.03-0.02,0.01-0.05-0.04-0.04c0.03-0.04,0.17,0.01,0.19,0.06
		c0.01,0.01,0.04,0.06,0.08,0.1s0.07,0.08,0.08,0.1c0.01,0.02,0.01,0.04,0.02,0.03c0.01,0,0.02,0,0.03,0.01
		c0.01,0.01,0.01,0.02,0.02,0.02c0.02,0,0.1,0.08,0.11,0.11c0.01,0.02,0.02,0.04,0.03,0.05c0.02,0.01,0.05,0.1,0.05,0.15
		c0,0.04-0.02,0.07-0.04,0.08c-0.01,0-0.03,0.03-0.05,0.06l-0.03,0.04v0.28c0,0.15,0,0.26,0.01,0.27s0.19-0.03,0.22-0.05
		c0.02-0.01,0.05-0.01,0.06-0.01c0.01,0,0.04,0,0.05-0.01c0.02-0.01,0.07-0.02,0.12-0.03c0.05-0.01,0.11-0.03,0.14-0.04
		s0.07-0.01,0.08-0.01c0.01,0,0.03-0.01,0.05-0.03c0.02-0.02,0.04-0.03,0.05-0.03s0.01-0.01,0.01-0.02s0.01-0.03,0.02-0.04
		c0.01-0.02,0.01-0.03,0.01-0.05c0-0.02,0-0.05,0.01-0.07c0.01-0.02,0.01-0.11,0.02-0.19c0.01-0.08,0.01-0.24,0.02-0.34
		c0.02-0.25,0.02-0.28-0.06-0.37c-0.03-0.04-0.08-0.08-0.11-0.09c-0.03-0.02-0.05-0.03-0.05-0.04s-0.07-0.05-0.13-0.1
		c-0.06-0.05-0.13-0.11-0.15-0.13c-0.02-0.02-0.04-0.04-0.05-0.04S25.76,6.01,25.75,6c-0.01-0.02-0.04-0.05-0.07-0.06
		c-0.04-0.02-0.06-0.02-0.11-0.01C25.48,5.95,25.39,5.97,25.19,6c-0.24,0.04-0.38,0.07-0.41,0.08c-0.02,0.01-0.2,0.05-0.35,0.08
		c-0.05,0.01-0.12,0.03-0.15,0.04s-0.08,0.02-0.12,0.03c-0.04,0.01-0.07,0.02-0.08,0.02c-0.01,0-0.07,0.02-0.12,0.03
		c-0.05,0.01-0.12,0.04-0.16,0.06c-0.1,0.05-0.25,0.15-0.35,0.24c-0.05,0.05-0.1,0.09-0.11,0.09c-0.03,0.01-0.08,0.1-0.08,0.15
		c0,0.02-0.01,0.03-0.03,0.05c-0.02,0.01-0.05,0.05-0.08,0.08c-0.05,0.06-0.06,0.09-0.04,0.17c0,0.02,0.02,0.14,0.03,0.25
		c0.01,0.11,0.03,0.22,0.03,0.25c0.01,0.02,0,0.06,0,0.08v0.09c0,0.03,0.02,0.11,0.02,0.17c0.01,0.06,0.02,0.16,0.03,0.23
		c0.01,0.07,0.01,0.18,0.01,0.25v0.14c0,0.01,0.02,0.01,0.01,0.02c0,0.01-0.01,0.06-0.02,0.13c-0.01,0.15-0.02,0.2-0.05,0.2
		c-0.01,0-0.03,0.01-0.04,0.02c-0.04,0.04-0.11,0.07-0.2,0.08c-0.11,0.01-0.19-0.01-0.25-0.05c-0.08-0.06-0.09-0.09-0.11-0.15
		c-0.02-0.07-0.03-0.08-0.06-0.07h-0.05c-0.01,0-0.02-0.01-0.03-0.07l-0.01-0.07L22.4,8.64c-0.01,0.01-0.04,0.01-0.06,0.01
		c-0.03,0-0.03,0-0.06-0.08c-0.02-0.07-0.03-0.11-0.03-0.19c0-0.06,0.01-0.13,0.01-0.18c0.01-0.07,0-0.08-0.02-0.1
		c-0.01-0.02-0.01-0.03-0.01-0.08c0-0.1,0-0.26,0.01-0.27c0.01-0.02,0.02-0.15,0.01-0.16c-0.01-0.01,0-0.01,0-0.02
		c0.01-0.01,0-0.07,0-0.13v-0.5c0-0.31,0.03-0.73,0.05-0.77c0.01-0.01,0.01-0.05,0.01-0.08c0-0.03,0-0.09,0.01-0.13
		s0.02-0.1,0.02-0.14c0-0.1,0.01-0.15,0.04-0.19c0.01-0.02,0.03-0.06,0.04-0.09c0.01-0.03,0.03-0.09,0.06-0.14
		c0.05-0.09,0.05-0.09,0.09-0.09C22.59,5.32,22.61,5.31,22.62,5.31z M24.96,6.76l-0.03-0.02l-0.04,0.05
		c-0.02,0.03-0.08,0.1-0.13,0.15c-0.12,0.12-0.16,0.19-0.19,0.25c-0.02,0.05-0.02,0.08,0,0.08c0.03,0-0.01,0.1-0.09,0.25l-0.05,0.09
		v0.11c0,0.11,0,0.11,0.03,0.12c0.05,0.02,0.09,0.01,0.18-0.03c0.12-0.05,0.17-0.09,0.19-0.15c0.01-0.03,0.03-0.07,0.04-0.09
		c0.01-0.03,0.03-0.07,0.03-0.09c0.01-0.11,0.02-0.2,0.04-0.31c0.01-0.07,0.02-0.13,0.02-0.15s0-0.03,0.01-0.04
		c0.01,0,0.01-0.05,0.01-0.1C24.98,6.79,24.98,6.78,24.96,6.76z M25.34,3.54c-0.01,0-0.1,0.1-0.24,0.26
		c-0.06,0.07-0.15,0.17-0.19,0.21c-0.04,0.04-0.08,0.07-0.08,0.08s-0.02,0.04-0.05,0.06c-0.02,0.02-0.05,0.05-0.06,0.07L24.7,4.25
		h0.11c0.09-0.01,0.4-0.06,0.49-0.09c0.03-0.01,0.12-0.14,0.12-0.17c0-0.02,0.02-0.08,0.03-0.13c0.02-0.07,0.02-0.11,0.02-0.15
		c0-0.06-0.01-0.07-0.06-0.12C25.38,3.56,25.35,3.54,25.34,3.54z"/>
</g>
</svg>
